<?xml version="1.0" encoding="UTF-8"?>
<svg width="150px" height="150px" viewBox="0 0 150 150" version="1.1" xmlns="http://www.w3.org/2000/svg" xmlns:xlink="http://www.w3.org/1999/xlink">
    <title>Artboard</title>
    <g id="Artboard" stroke="none" stroke-width="1" fill="none" fill-rule="evenodd">
        <g id="Group-5" transform="translate(10.000000, 38.000000)" fill-rule="nonzero">
            <path d="M117.124624,21.6144361 C118.261406,27.4869173 115.624841,34.7912782 109.846573,40.1936842 C102.024322,47.5070677 91.4146557,48.562406 86.1496384,42.5509774 C81.6073176,37.364812 82.5304461,28.6153383 87.8907211,21.6144361 L76.5820973,21.6144361 C75.4471182,24.0111278 74.6150405,26.5091729 74.128535,29.0445113 C72.6699199,36.6457143 74.4533728,43.997594 79.0224378,49.2138346 C83.5915028,54.4303759 90.4939312,56.996391 97.960093,56.2535338 C104.478786,55.6054135 110.990267,52.5166917 116.295251,47.5566917 C121.600234,42.5966917 125.223333,36.2099248 126.497142,29.5732331 C127.017904,26.8595489 127.123078,24.1783459 126.838207,21.6144361 L117.124624,21.6144361 L117.124624,21.6144361 Z" id="Path" fill="#FFC34C"></path>
            <path d="M124.608214,15.4186466 C120.039149,10.2021053 113.136721,7.63609023 105.67086,8.37864662 C99.1521667,9.02736842 92.6403851,12.1160902 87.3354016,17.0757895 C82.0304182,22.0357895 78.4073194,28.4222556 77.1338108,35.0592481 C75.6751958,42.6604511 77.4586487,50.0123308 82.0277137,55.2285714 C86.5967787,60.4451128 93.4992071,63.0111278 100.965369,62.2682707 C107.484062,61.6201504 113.995543,58.5314286 119.300526,53.5714286 C124.60551,48.6114286 128.228609,42.2246617 129.502418,35.5879699 C130.961333,27.9867669 129.177279,20.635188 124.608214,15.4186466 Z" id="Path" fill="#FFDF74"></path>
            <path d="M112.851549,46.2087218 C105.029298,53.5221053 94.419631,54.5774436 89.1546137,48.566015 C83.8892959,42.5545865 85.9624284,31.7524812 93.7843792,24.4390977 C101.606631,17.1257143 112.216297,16.0703759 117.481615,22.0818045 C122.746933,28.0932331 120.674101,38.8953383 112.851549,46.2087218 Z" id="Path" fill="#FFDF74"></path>
            <path d="M105.786852,50.8691729 C99.4950344,53.557594 92.9420847,52.8905263 89.1546137,48.566015 C83.8892959,42.5545865 85.9624284,31.7524812 93.7843792,24.4390977 C101.606631,17.1257143 112.216297,16.0700752 117.481615,22.0818045 C118.254495,22.9642105 118.864805,23.9518797 119.326369,25.0144361 C120.366692,20.962406 121.0362,16.7368421 121.298535,12.3867669 C116.996912,9.23909774 111.505921,7.79849624 105.67086,8.37894737 C99.1521667,9.02736842 92.6403851,12.116391 87.3354016,17.0760902 C82.0304182,22.0360902 78.4073194,28.4228571 77.1338108,35.0595489 C75.6751958,42.6607519 77.4586487,50.0126316 82.0277137,55.2288722 C84.8794353,58.484812 88.6401619,60.7079699 92.8795812,61.7386466 C97.6595955,58.8366917 102.005691,55.162406 105.786852,50.8691729 Z" id="Path" fill="#FFD551"></path>
            <path d="M66.1187732,73 L42.611452,73 C36.8028346,73 32.0940383,68.287218 32.0940383,62.4736842 L32.0940383,53.5302256 L76.6361869,53.5302256 L76.6361869,62.4736842 C76.6361869,68.287218 71.9273905,73 66.1187732,73 Z" id="Path" fill="#FFC34C"></path>
            <path d="M104.899483,0 L4.50746303,0 C2.01814145,0 0,2.01984962 0,4.5112782 L0,8.25293233 C0,41.878797 24.4917511,69.1377444 54.7034728,69.1377444 C84.9151945,69.1377444 109.406645,41.8784962 109.406645,8.25293233 L109.406645,4.5112782 C109.406645,2.01984962 107.388804,0 104.899483,0 Z" id="Path" fill="#FFDF74"></path>
            <path d="M69.7283496,66.1302256 C39.5166279,66.1302256 15.0248768,38.8709774 15.0248768,5.24541353 L15.0248768,1.5037594 C15.0248768,0.975639098 15.1201345,0.470977444 15.2869106,0 L4.50746303,0 C2.01814145,0 0,2.01954887 0,4.5112782 L0,8.25293233 C0,41.878797 24.4917511,69.1377444 54.7034728,69.1377444 C60.6956941,69.1377444 66.4616409,68.0616541 71.8573746,66.08 C71.1509049,66.1100752 70.4417307,66.1302256 69.7283496,66.1302256 Z" id="Path" fill="#FFD551"></path>
            <path d="M54.7034728,61.6192481 C28.6821892,61.6192481 7.51243838,37.6790977 7.51243838,8.25293233 L7.51243838,8.25293233 C7.51243838,7.8475188 7.84058169,7.51909774 8.24565237,7.51909774 L101.160993,7.51909774 C101.566063,7.51909774 101.894207,7.8475188 101.894207,8.25293233 L101.894207,8.25293233 C101.894207,37.6790977 80.7247564,61.6192481 54.7034728,61.6192481 Z" id="Path" fill="#A56021"></path>
            <path d="M7.51243838,8.25263158 L7.51243838,8.25263158 C7.51243838,35.0396992 25.055785,57.2769925 47.8310942,61.0514286 C29.1094967,51.9383459 15.8581564,31.5010526 15.0666459,7.51879699 L8.24565237,7.51879699 C7.84058169,7.51879699 7.51243838,7.84721805 7.51243838,8.25263158 Z" id="Path" fill="#8C4C17"></path>
            <path d="M74.3160454,51.8905263 C73.6098762,51.8905263 72.9397667,51.472782 72.6512891,50.7795489 C72.2684552,49.8595489 72.7029747,48.8030075 73.6218961,48.4198496 C89.238152,41.9076692 91.6331174,19.4583459 91.6556547,19.2324812 C91.7539174,18.241203 92.6364787,17.5184962 93.626618,17.6138346 C94.6170579,17.7112782 95.341257,18.5930827 95.2447973,19.5843609 C95.2201565,19.8360902 94.61225,25.8312782 91.8705104,32.7789474 C88.1807012,42.1296241 82.349847,48.6905263 75.0092932,51.7515789 C74.7824176,51.8457143 74.547128,51.8905263 74.3160454,51.8905263 Z" id="Path" fill="#F9BB32"></path>
            <ellipse id="Oval" fill="#8C4C17" cx="35.9286873" cy="40.8478195" rx="4.50746303" ry="4.5112782"></ellipse>
            <ellipse id="Oval" fill="#8C4C17" cx="47.8310942" cy="50.1130827" rx="4.50746303" ry="4.5112782"></ellipse>
        </g>
    </g>
</svg>