<?xml version="1.0" encoding="UTF-8"?>
<svg width="150px" height="150px" viewBox="0 0 150 150" version="1.1" xmlns="http://www.w3.org/2000/svg" xmlns:xlink="http://www.w3.org/1999/xlink">
    <title>Artboard</title>
    <g id="Artboard" stroke="none" stroke-width="1" fill="none" fill-rule="evenodd">
        <g id="Group" transform="translate(5.000000, 28.000000)" fill-rule="nonzero">
            <path d="M136.295008,29.0649295 C128.982606,20.548144 113.84795,21.5045297 102.490589,31.2012007 C91.1332276,40.8978717 87.8541758,55.6626796 95.1665776,64.1794652 C102.478979,72.6962507 117.613636,71.739865 128.970997,62.043194 C140.328358,52.346523 143.60741,37.581715 136.295008,29.0649295 Z" id="Path" fill="#FFF4C1"></path>
            <path d="M124.48294,56.8158738 C119.413438,61.1440499 113.164922,63.4790589 107.767773,63.0619667 C105.580663,62.8928144 102.528642,62.1731132 100.408288,59.7040044 C97.585878,56.4167901 98.0418752,51.9757386 98.5646273,49.6207915 C99.6110989,44.9086461 102.677954,40.1003476 106.978324,36.4285209 C112.047503,32.1003448 118.296019,29.7653358 123.693168,30.182428 C125.880278,30.3515803 128.932621,31.0712815 131.052653,33.5403903 C135.797088,39.0658173 132.788603,49.7246625 124.48294,56.8158738 Z" id="Path" fill="#FFF4C1"></path>
            <path d="M114.342323,62.3361555 C112.101681,62.9638841 109.870068,63.2243658 107.767773,63.0616451 C105.580663,62.8924928 102.528642,62.1727916 100.408288,59.7036828 C97.585878,56.4164685 98.0418752,51.975417 98.5646273,49.6204699 C99.6110989,44.9083245 102.677954,40.100026 106.978324,36.4281993 C112.047503,32.1000232 118.296019,29.7650142 123.693168,30.1821064 C125.080509,30.2891933 126.815169,30.6201015 128.43986,31.4761536 C128.657862,29.5000304 128.773312,27.4933568 128.773312,25.4593488 L128.773312,24.1923146 C120.982661,21.7299589 110.740784,24.1566189 102.489944,31.2008791 C91.1325827,40.8975501 87.8535308,55.6623581 95.1659326,64.1791436 C97.8703119,67.3290422 101.646317,69.1794267 105.904118,69.7746755 C108.969038,67.5888807 111.795963,65.0934021 114.342323,62.3361555 Z" id="Path" fill="#FCE575"></path>
            <path d="M64.492221,79.9132006 L64.4899636,79.9132006 C34.3315869,79.9132006 9.88317205,55.5334036 9.88317205,25.4596704 L9.88317205,22.4570565 C9.88317205,20.6809575 11.3269481,19.2412335 13.1080461,19.2412335 L115.874139,19.2412335 C117.655236,19.2412335 119.099013,20.6809575 119.099013,22.4570565 L119.099013,25.4596704 C119.099013,55.5337251 94.6509202,79.9132006 64.492221,79.9132006 Z" id="Path" fill="#FFF4C1"></path>
            <path d="M80.616591,76.6973776 L80.6143336,76.6973776 C50.4559569,76.6973776 26.0075421,52.3175806 26.0075421,22.2438474 L26.0075421,19.2412335 L13.1080461,19.2412335 C11.3269481,19.2412335 9.88317205,20.6809575 9.88317205,22.4570565 L9.88317205,25.4596704 C9.88317205,55.5334036 34.3315869,79.9132006 64.4899636,79.9132006 L64.492221,79.9132006 C71.0612893,79.9132006 77.3591458,78.7558259 83.1926204,76.6353123 C82.3386737,76.6751885 81.4805348,76.6973776 80.616591,76.6973776 Z" id="Path" fill="#FCE575"></path>
            <path d="M64.4902861,73.4815547 C38.0076207,73.4815547 16.449338,52.0548479 16.333565,25.6728795 L112.648942,25.6728795 C112.533169,52.0545263 90.9748863,73.4815547 64.492221,73.4815547 L64.4902861,73.4815547 Z" id="Path" fill="#A56021"></path>
            <path d="M82.7653246,63.9742957 C81.9613635,63.9742957 81.2102903,63.4706978 80.9352086,62.6696363 C80.5885346,61.6617974 81.1274111,60.564237 82.1380866,60.2188576 C97.8532201,54.8468254 102.58927,33.9098884 102.635386,33.699252 C102.862739,32.6579685 103.894377,31.9990464 104.937301,32.2238324 C105.981515,32.4505479 106.643904,33.4780034 106.416551,34.5196084 C106.209836,35.4673114 101.149041,57.799594 83.3928851,63.8694598 C83.1852032,63.9402079 82.9733289,63.9742957 82.7653246,63.9742957 Z" id="Path" fill="#BF6C0D"></path>
            <ellipse id="Oval" fill="#8C4C17" cx="46.5380575" cy="49.8452559" rx="4.83731101" ry="4.82373444"></ellipse>
            <ellipse id="Oval" fill="#8C4C17" cx="59.0863647" cy="59.6827799" rx="4.83731101" ry="4.82373444"></ellipse>
            <path d="M110.413137,93.5270655 L18.5693702,93.5270655 C15.8978846,93.5270655 13.7320592,91.3673188 13.7320592,88.7033311 L13.7320592,81.9501029 L115.250448,81.9501029 L115.250448,88.7033311 C115.250448,91.3673188 113.084623,93.5270655 110.413137,93.5270655 Z" id="Path" fill="#FFD551"></path>
            <path d="M26.6315552,89.668078 L115.153057,89.668078 C115.216587,89.3564647 115.250125,89.0339177 115.250125,88.7033311 L115.250125,81.9501029 L13.7320592,81.9501029 L13.7320592,88.7033311 C13.7320592,91.3673188 15.8978846,93.5270655 18.5693702,93.5270655 L26.6315552,93.5270655 L26.6315552,89.668078 Z" id="Path" fill="#FFC34C"></path>
            <path d="M118.763303,86.1306727 L8.91893472,86.1306727 C7.02690115,86.1306727 5.25354293,85.2112689 4.16708288,83.6667092 L0.236283952,78.0795383 C-0.363542613,77.2270237 0.247893499,76.0545346 1.2921077,76.0545346 L127.346305,76.0545346 C128.451792,76.0545346 129.045169,77.3501897 128.321185,78.1834094 L123.150099,84.1333251 C122.047192,85.4016456 120.446687,86.1306727 118.763303,86.1306727 Z" id="Path" fill="#FFD551"></path>
            <path d="M115.740306,82.1642767 L93.6882953,82.1642767 C92.6198946,82.1642767 91.7533709,81.300185 91.7533709,80.2347829 C91.7533709,79.1693807 92.6198946,78.3052891 93.6882953,78.3052891 L115.740306,78.3052891 C116.808707,78.3052891 117.675231,79.1693807 117.675231,80.2347829 C117.675231,81.300185 116.808707,82.1642767 115.740306,82.1642767 Z" id="Path" fill="#FFDF74"></path>
            <path d="M24.512168,16.0791148 C20.5268687,16.0791148 17.1178544,18.979144 16.5389895,22.9111307 C16.4035448,23.8298913 16.333565,24.7698764 16.333565,25.7265837 L16.333565,25.7265837 L112.648942,25.7265837 L112.648942,25.7265837 C112.648942,24.7701979 112.578962,23.8302129 112.443518,22.9111307 C111.864653,18.979144 108.455638,16.0791148 104.470339,16.0791148 L24.512168,16.0791148 Z" id="Path" fill="#FFD59A"></path>
            <path d="M61.8894252,73.4108066 C41.9796981,66.1636279 27.4913066,47.6900114 26.1188002,25.673201 L16.333565,25.673201 C16.4454682,51.1852893 36.6106053,72.0627336 61.8894252,73.4108066 Z" id="Path" fill="#8C4C17"></path>
            <path d="M26.0078646,19.2415551 L26.1220251,16.0794364 C26.1220251,16.0794364 21.7336166,15.3558762 18.100151,19.2415551 C17.2984473,20.2860544 16.7421566,21.532829 16.5389895,22.9117739 C16.4038673,23.8305345 16.333565,24.7705195 16.333565,25.7269053 L26.1220251,25.7269053 C26.049143,24.5749975 26.0078646,23.414407 26.0078646,22.244169 L26.0078646,19.2415551 Z" id="Path" fill="#FFC34C"></path>
            <path d="M20.9045015,16.0791148 L20.9045015,16.0791148 C20.9045015,7.19894128 28.1237044,0 37.0288715,0 L90.8184799,0 C99.723647,0 106.94285,7.19894128 106.94285,16.0791148 L106.94285,16.0791148 C106.94285,18.6099675 104.88538,20.6616625 102.347405,20.6616625 L25.4999469,20.6616625 C22.9619711,20.6616625 20.9045015,18.6099675 20.9045015,16.0791148 Z" id="Path" fill="#FFEACF"></path>
            <path d="M33.8039975,16.0791148 L33.8039975,16.0791148 C33.8039975,7.19894128 41.0232004,0 49.9283675,0 L37.0288715,0 C28.1237044,0 20.9045015,7.19894128 20.9045015,16.0791148 L20.9045015,16.0791148 C20.9045015,18.6099675 22.9619711,20.6616625 25.4999469,20.6616625 L38.3994429,20.6616625 C35.8614671,20.6616625 33.8039975,18.6099675 33.8039975,16.0791148 Z" id="Path" fill="#FFD59A"></path>
        </g>
    </g>
</svg>