<?xml version="1.0" encoding="UTF-8"?>
<svg width="150px" height="150px" viewBox="0 0 150 150" version="1.1" xmlns="http://www.w3.org/2000/svg" xmlns:xlink="http://www.w3.org/1999/xlink">
    <title>Artboard</title>
    <g id="Artboard" stroke="none" stroke-width="1" fill="none" fill-rule="evenodd">
        <g id="Group-4" transform="translate(17.000000, 34.000000)" fill-rule="nonzero">
            <path d="M101.643632,20.5788637 C103.026771,24.2513819 101.159353,30.485286 95.5090294,35.3093793 C91.9959031,38.3087473 87.8173436,40.0292197 84.0458549,40.0292197 C84.0455545,40.0292197 84.0458549,40.0292197 84.0452541,40.0292197 C82.3619937,40.0292197 80.0508528,39.6742206 78.6001185,37.9846046 C75.8440537,34.7749334 77.3248302,27.3124628 83.8556882,21.7364304 C84.3372636,21.3251108 84.8323578,20.9404535 85.3361643,20.5785641 L73.9303702,20.5785641 C68.3344232,28.2040048 67.4610985,37.4501587 72.4372765,43.2463804 C78.5694755,50.3886029 91.2616735,49.5866345 100.785929,41.4549081 C107.727163,35.5286699 111.065143,27.346315 109.993841,20.5785641 L101.643632,20.5785641 L101.643632,20.5788637 Z" id="Path" fill="#F9BB32"></path>
            <path d="M109.931654,16.4959247 C103.799455,9.35370215 91.1072569,10.1556706 81.5830013,18.2873969 C72.0587457,26.4191233 69.3086894,38.8009528 75.4408884,45.9428757 C81.5730874,53.0847986 94.2652854,52.2831298 103.789541,44.1514034 C113.314097,36.0196771 116.063853,23.6378476 109.931654,16.4959247 Z" id="Path" fill="#FFEACF"></path>
            <path d="M98.5132422,38.0058746 C95.0001158,41.0052426 90.8215563,42.7257151 87.0500676,42.7257151 C87.0497672,42.7257151 87.0500676,42.7257151 87.0494668,42.7257151 C85.3662064,42.7257151 83.0550656,42.370716 81.6043312,40.6811 C78.8482665,37.4714287 80.3290429,30.0089581 86.859901,24.4329257 C90.3730273,21.4332582 94.5518873,19.7130853 98.3242772,19.7130853 C100.007538,19.7130853 102.318078,20.0677848 103.769112,21.7577004 C106.524877,24.9673716 105.0441,32.4298423 98.5132422,38.0058746 Z" id="Path" fill="#FFEACF"></path>
            <path d="M81.5833017,18.2873969 C72.0590461,26.4191233 69.3089898,38.8009528 75.4411888,45.9428757 C80.4792536,51.8106964 89.9443262,52.3118892 98.4435444,47.7960609 L101.07914,35.4274128 C100.331692,36.3147608 99.4790965,37.1811383 98.5132422,38.0058746 C95.0001158,41.0052426 90.8215563,42.7257151 87.0500676,42.7257151 C87.0497672,42.7257151 87.0500676,42.7257151 87.0494668,42.7257151 C85.3662064,42.7257151 83.0550656,42.370716 81.6043312,40.6811 C78.8482665,37.4714287 80.3290429,30.0089581 86.859901,24.4329257 C90.3730273,21.4332582 94.5518873,19.7130853 98.3242772,19.7130853 C100.007538,19.7130853 102.318078,20.0677848 103.769112,21.7577004 C103.830699,21.8292994 103.887478,21.9056916 103.944859,21.9814847 L105.797857,13.2856543 C99.0954586,9.92349819 89.2999226,11.6987933 81.5833017,18.2873969 Z" id="Path" fill="#FFD59A"></path>
            <path d="M73.8456514,65.0798739 L42.1536105,65.0798739 C36.9653351,65.0798739 32.4842514,61.4609801 31.4060395,56.4005202 L20.1937167,3.78186388 C19.778835,1.83461141 21.2680232,0.000599154606 23.264623,0.000599154606 L92.7352398,0.000599154606 C94.7315392,0.000599154606 96.2210278,1.83431183 95.8061461,3.78186388 L84.5938233,56.4005202 C83.5150105,61.4609801 79.0339268,65.0798739 73.8456514,65.0798739 Z" id="Path" fill="#FFEACF"></path>
            <path d="M43.4228904,56.4002207 L32.2105676,3.78126473 C31.7956859,1.83401225 33.2848741,0 35.2814739,0 L23.264623,0 C21.2683236,0 19.778835,1.83401225 20.1937167,3.78126473 L31.4060395,56.4002207 C32.4842514,61.4609801 36.9656356,65.0795743 42.1536105,65.0795743 L54.1704614,65.0795743 C48.982186,65.0795743 44.5011023,61.4609801 43.4228904,56.4002207 Z" id="Path" fill="#FFD59A"></path>
            <path d="M99.2651966,82 L16.7340654,82 C14.2453755,82 12.2277463,79.9880388 12.2277463,77.5063404 L12.2277463,70.7302014 L103.771516,70.7302014 L103.771516,77.5063404 C103.771516,79.9880388 101.753886,82 99.2651966,82 Z" id="Path" fill="#FFD59A"></path>
            <path d="M24.2445972,77.6204794 L103.765808,77.6204794 C103.766709,77.5821335 103.771516,77.5449859 103.771516,77.5063404 L103.771516,70.7302014 L12.2277463,70.7302014 L12.2277463,77.5063404 C12.2277463,79.9880388 14.2453755,82 16.7340654,82 L24.2445972,82 L24.2445972,77.6204794 Z" id="Path" fill="#FFC34C"></path>
            <path d="M107.094475,74.7996595 L8.0425775,74.7996595 C6.33648509,74.7996595 4.73734266,73.9045225 3.75766889,72.400944 L0.212998289,66.9621181 C-0.327760002,66.132289 0.223513033,64.9905998 1.16533372,64.9905998 L114.834529,64.9905998 C115.831327,64.9905998 116.366377,66.2521199 115.713562,67.0627761 L111.050423,72.8551032 C110.055728,74.0902604 108.612504,74.7996595 107.094475,74.7996595 Z" id="Path" fill="#FFD59A"></path>
            <path d="M27.7219734,17.4926183 L35.81352,55.4661386 C36.4456063,58.4328527 39.1118451,60.5862143 42.1533101,60.5862143 L73.845351,60.5862143 C76.886816,60.5862143 79.5530548,58.4328527 80.1851411,55.4661386 L88.2766877,17.4926183 L27.7219734,17.4926183 Z" id="Path" fill="#A56021"></path>
            <path d="M88.8213515,4.49425871 L27.1779105,4.49425871 C26.0315029,4.49425871 25.176504,5.54727293 25.414738,6.66529543 L27.7219734,17.4929179 L88.2769881,17.4929179 L90.5842235,6.66529543 C90.822758,5.54697336 89.9674586,4.49425871 88.8213515,4.49425871 Z" id="Path" fill="#DB9C2E"></path>
            <path d="M35.1321645,17.4926183 L32.3622804,4.49395913 L27.1782109,4.49395913 C26.0318033,4.49395913 25.1768044,5.54697336 25.4150385,6.66499585 L27.7222738,17.4926183 L35.1321645,17.4926183 L35.1321645,17.4926183 Z" id="Path" fill="#BF6C0D"></path>
            <path d="M81.6364763,26.7923966 C81.5124023,26.7923966 81.3862254,26.7795148 81.2600485,26.7528524 C80.2863831,26.5464436 79.6645111,25.5919903 79.8715013,24.6210603 L80.8058115,20.2361473 C81.0128017,19.2652172 81.9696435,18.6447927 82.9436093,18.851501 C83.9172746,19.0579098 84.5391466,20.012363 84.3321564,20.9832931 L83.3978462,25.3682061 C83.2175935,26.2130141 82.4695445,26.7923966 81.6364763,26.7923966 Z" id="Path" fill="#FFD59A"></path>
            <path d="M76.3721943,54.492812 C76.2481204,54.492812 76.1219434,54.4799301 75.9957665,54.4529682 C75.0221011,54.2465594 74.4002291,53.2921061 74.6075198,52.3211761 L78.9044453,32.1665138 C79.1114355,31.1955838 80.0679768,30.57456 81.042243,30.7821671 C82.0159084,30.9885759 82.6377804,31.9430292 82.4304897,32.9139592 L78.1335643,53.0686215 C77.9533115,53.9134295 77.2049621,54.492812 76.3721943,54.492812 Z" id="Path" fill="#FFD59A"></path>
            <ellipse id="Oval" fill="#8C4C17" cx="47.7853077" cy="42.7805377" rx="4.50631909" ry="4.49365956"></ellipse>
            <ellipse id="Oval" fill="#8C4C17" cx="56.7979459" cy="52.9392041" rx="4.50631909" ry="4.49365956"></ellipse>
            <path d="M43.4228904,56.4002207 L35.1321645,17.4926183 L27.7222738,17.4926183 L35.8138204,55.4661386 C36.4459068,58.4328527 39.1121455,60.5862143 42.1536105,60.5862143 L45.2987208,60.5862143 C44.4055684,59.368133 43.7536542,57.9523307 43.4228904,56.4002207 Z" id="Path" fill="#8C4C17"></path>
        </g>
    </g>
</svg>