<?xml version="1.0" encoding="UTF-8"?>
<svg width="150px" height="150px" viewBox="0 0 150 150" version="1.1" xmlns="http://www.w3.org/2000/svg" xmlns:xlink="http://www.w3.org/1999/xlink">
    <title>Artboard</title>
    <g id="Artboard" stroke="none" stroke-width="1" fill="none" fill-rule="evenodd">
        <g id="Group-7" transform="translate(15.000000, 39.000000)" fill-rule="nonzero">
            <path d="M62.6403752,71 L32.3849493,71 C30.1490847,71 28.3364258,69.1920087 28.3364258,66.9619016 L28.3364258,57.4839462 L66.6888988,57.4839462 L66.6888988,66.9619016 C66.6888988,69.1920087 64.8762398,71 62.6403752,71 Z" id="Path" fill="#F9BB32"></path>
            <path d="M107.110977,13.6221212 C107.305846,13.8011436 107.497476,13.9868961 107.679929,14.1885318 C112.620748,19.6423875 109.48719,30.1627107 100.837655,37.1615429 C95.5581102,41.4333126 89.0507834,43.73799 83.4300833,43.3263731 C81.152384,43.1594651 77.9737532,42.4492982 75.7659584,40.011902 C72.8264604,36.7674245 73.3012173,32.3839341 73.8458786,30.0596046 C74.9357412,25.4087921 78.1294864,20.6626804 82.608233,17.0386217 C84.2646189,15.6982422 86.0419208,14.5519607 87.8748223,13.6221212 L75.9319478,13.6221212 C65.7431637,23.1471877 63.1402329,36.5186776 70.3066594,44.4293124 C77.9219321,52.8355565 93.6836439,51.8914491 105.51154,42.3208866 C115.687909,34.0863963 119.636299,22.1489698 115.690338,13.6221212 L107.110977,13.6221212 L107.110977,13.6221212 Z" id="Path" fill="#FFC34C"></path>
            <path d="M115.941886,12.5665623 C108.326614,4.16031819 92.564632,5.1044256 80.7370055,14.6749881 C68.9091091,24.2458197 65.4940445,38.8187785 73.1095872,47.2250226 C80.7248599,55.6312666 96.4868415,54.6871592 108.314468,45.1165968 C120.142364,35.5460343 123.557159,20.9728063 115.941886,12.5665623 Z" id="Path" fill="#FFDF74"></path>
            <path d="M103.640313,39.957253 C98.3607681,44.2290227 91.8534413,46.5337001 86.2327412,46.1220833 C83.9550419,45.9551752 80.7764111,45.2450083 78.5686163,42.8076121 C75.6291183,39.5631346 76.104145,35.1796442 76.6485365,32.8553147 C77.738399,28.204233 80.9321443,23.4583905 85.4108909,19.8343318 C90.6901656,15.5622929 97.1977623,13.2578847 102.818193,13.6695016 C105.095892,13.8364096 108.274523,14.5465765 110.482587,16.9839727 C115.423675,22.4378285 112.290118,32.9581517 103.640313,39.957253 Z" id="Path" fill="#FFDF74"></path>
            <path d="M101.306474,41.6650995 C96.5178802,44.8312378 91.0499444,46.4750131 86.2330111,46.1223525 C83.9553118,45.9554444 80.776681,45.2452775 78.5688862,42.8078813 C75.6293882,39.5634038 76.104145,35.1799134 76.6488064,32.855584 C77.7386689,28.2047714 80.9324142,23.4586597 85.4111608,19.834601 C90.6904355,15.5628313 97.1980322,13.2581539 102.818732,13.6697708 C103.01657,13.6843079 103.223315,13.7047676 103.433298,13.7281886 L103.433298,6.90245623 C96.1664684,6.35246722 87.7584947,8.993922 80.7372754,14.6752573 C68.909379,24.2460889 65.4945843,38.8190477 73.1098571,47.2252918 C78.2091074,52.8541318 86.9609356,54.284157 95.7384045,51.7455391 C98.0970743,48.7301564 99.9885445,45.3338465 101.306474,41.6650995 Z" id="Path" fill="#FFD551"></path>
            <path d="M59.9378508,65.7485876 L35.0872038,65.7485876 C15.7090809,65.7485876 0,50.0799581 0,30.7517347 L0,2.69206561 C0,1.20523777 1.20834932,0 2.69901568,0 L92.326039,0 C93.8167053,0 95.0250546,1.20523777 95.0250546,2.69206561 L95.0250546,30.7517347 C95.0250546,50.0799581 79.3159737,65.7485876 59.9378508,65.7485876 Z" id="Path" fill="#FFDF74"></path>
            <ellipse id="Oval" fill="#FFD551" cx="26.8325343" cy="36.0222607" rx="4.05958948" ry="4.04913588"></ellipse>
            <ellipse id="Oval" fill="#FFD551" cx="32.2632237" cy="48.7775368" rx="4.05958948" ry="4.04913588"></ellipse>
            <ellipse id="Oval" fill="#FFD551" cx="41.1235524" cy="39.7163132" rx="4.05958948" ry="4.04913588"></ellipse>
            <path d="M87.7225978,23.6710637 C86.8284139,23.6710637 86.1031884,22.9479749 86.1031884,22.0558243 L86.1031884,4.98866678 C86.1031884,4.09651624 86.8284139,3.37342742 87.7225978,3.37342742 C88.6167817,3.37342742 89.3420072,4.09651624 89.3420072,4.98866678 L89.3420072,22.0558243 C89.3420072,22.9479749 88.6170516,23.6710637 87.7225978,23.6710637 Z" id="Path" fill="#FFF4C1"></path>
            <path d="M16.1940941,30.7517347 L16.1940941,2.69206561 C16.1940941,1.20523777 17.4024434,0 18.8931097,0 L2.69901568,0 C1.20834932,0 0,1.20523777 0,2.69206561 L0,30.7517347 C0,50.0799581 15.7090809,65.7485876 35.0872038,65.7485876 L51.2812979,65.7485876 C31.903175,65.7485876 16.1940941,50.0799581 16.1940941,30.7517347 Z" id="Path" fill="#FFD551"></path>
        </g>
    </g>
</svg>