<?xml version="1.0" encoding="UTF-8"?>
<svg width="150px" height="150px" viewBox="0 0 150 150" version="1.1" xmlns="http://www.w3.org/2000/svg" xmlns:xlink="http://www.w3.org/1999/xlink">
    <title>Artboard</title>
    <g id="Artboard" stroke="none" stroke-width="1" fill="none" fill-rule="evenodd">
        <g id="GREEN-TEA" transform="translate(27.000000, 25.000000)" fill-rule="nonzero">
            <path d="M87.2524039,61.752515 C88.0992539,66.123541 86.1351351,71.5603488 81.8305946,75.5814868 C76.0033807,81.0250103 68.099672,81.8105235 64.1774787,77.3360756 C60.7936607,73.4758906 61.4813485,66.9634514 65.4745044,61.752515 L57.0501051,61.752515 C56.2045983,63.5364291 55.5847391,65.3957829 55.2223151,67.2828949 C54.1357146,72.9406492 55.4643042,78.4128264 58.8680454,82.2953971 C62.2717866,86.1781916 67.4137751,88.088137 72.9757187,87.535211 C77.8318422,87.0527998 82.6825932,84.7537914 86.6345594,81.0619466 C90.5865257,77.3701019 93.285566,72.6162809 94.2344946,67.676435 C94.6224382,65.6565759 94.7007881,63.6608934 94.4885719,61.752515 L87.2524039,61.752515 L87.2524039,61.752515 Z" id="Path" fill="#FFD551"></path>
            <path d="M92.8273313,57.1410669 C89.4235901,53.2582723 84.2816016,51.3483269 78.7198818,51.9010291 C73.8637583,52.3838881 69.0127835,54.6828964 65.0608172,58.3745173 C61.108851,62.0663621 58.4098107,66.8199592 57.461106,71.760029 C56.3745055,77.4177833 57.7030951,82.8899605 61.1068363,86.7725312 C64.5105775,90.6553257 69.652566,92.5652711 75.2145096,92.0123451 C80.0706331,91.5299339 84.9213841,89.2309255 88.8733503,85.5390807 C92.8253166,81.847236 95.5243569,77.093415 96.4732855,72.1535691 C97.5601098,66.4955909 96.2310725,61.0238614 92.8273313,57.1410669 Z M84.0691616,80.0586209 C78.2419477,85.5021444 70.338239,86.2876576 66.4160457,81.8132097 C62.4936285,77.3387619 64.038016,69.2985007 69.865006,63.8549772 C75.6922199,58.4114537 83.5959285,57.6259405 87.5183457,62.1003883 C91.4407629,66.5748361 89.8965993,74.6150974 84.0691616,80.0586209 Z" id="Shape" fill="#FFF4C1"></path>
            <path d="M78.8062905,83.5275044 C74.1191788,85.5285595 69.2375356,85.0320453 66.4160457,81.8132097 C62.4936285,77.3387619 64.038016,69.2985007 69.865006,63.8549772 C75.6922199,58.4114537 83.5959285,57.6257166 87.5183457,62.1003883 C88.0941052,62.7571839 88.5487581,63.4923293 88.892602,64.283215 C89.6675939,61.2671937 90.1663467,58.122007 90.3617736,54.8841436 C87.1572648,52.5412593 83.0667313,51.4689857 78.7198818,51.9010291 C73.8637583,52.3836642 69.0127835,54.6828964 65.0608172,58.3745173 C61.108851,62.0663621 58.4098107,66.8201831 57.461106,71.760029 C56.3745055,77.4177833 57.7030951,82.8899605 61.1068363,86.7725312 C63.2312364,89.1960039 66.032803,90.8507526 69.1909734,91.6179095 C72.751862,89.4581401 75.9895016,86.7230588 78.8062905,83.5275044 Z" id="Path" fill="#FCE575"></path>
            <path d="M49.2554146,100 L31.7435523,100 C27.4164022,100 23.9085676,96.4921654 23.9085676,92.1650153 L23.9085676,85.5081885 L57.0903993,85.5081885 L57.0903993,92.1650153 C57.0903993,96.4921654 53.5825647,100 49.2554146,100 Z" id="Path" fill="#FFDF74"></path>
            <path d="M78.1452416,45.6643813 L3.35785057,45.6643813 C1.50342163,45.6643813 0,47.167803 0,49.0222319 L0,51.8072332 C0,76.8357559 18.2452169,97.1252322 40.7515461,97.1252322 C63.2578753,97.1252322 81.5028683,76.8355321 81.5028683,51.8072332 L81.5028683,49.0222319 C81.5028683,47.167803 79.9996706,45.6643813 78.1452416,45.6643813 Z" id="Path" fill="#FFF4C1"></path>
            <path d="M45.8778646,37.3035573 C72.473832,34.9056043 70.2587699,14.4603237 68.8988404,8.07167721 C68.6691635,6.99291175 67.2716261,6.54452677 65.8170052,7.08088743 C57.0279432,10.3209894 29.7286181,21.897515 43.152857,36.4611845 C43.7400331,37.097833 44.7404487,37.4060837 45.8778646,37.3035573 Z" id="Path" fill="#CCC033"></path>
            <path d="M69.2138068,9.77858458 C69.1126236,9.13656355 69.0033815,8.5623711 68.8988404,8.07167721 C68.6691635,6.99291175 67.2716261,6.54452677 65.8170052,7.08088743 C61.824297,8.55274527 54.0119219,11.7451657 47.9324215,16.1562621 L47.9324215,16.1562621 C47.9324215,16.1562621 47.9324215,16.1562621 47.9324215,16.1562621 C47.822284,16.2359551 47.712818,16.3165435 47.6037998,16.3971319 C47.5890253,16.4081009 47.5744746,16.4190699 47.5597001,16.429815 C47.4647848,16.5003299 47.3705411,16.5710686 47.2767452,16.6420311 C47.2563742,16.6574773 47.2362271,16.6729234 47.21608,16.6881456 C47.1283282,16.7546311 47.0412479,16.8215642 46.9543915,16.8887212 C46.930215,16.9073013 46.9060385,16.9263292 46.8816381,16.9451331 C46.7985873,17.0096039 46.716208,17.0742984 46.6340526,17.1392169 C46.6089806,17.1591401 46.5839087,17.1790634 46.5588367,17.1989866 C46.4769052,17.2641289 46.3956452,17.3294951 46.3146091,17.3950851 C46.2906564,17.4143368 46.2667037,17.4338123 46.2427511,17.4532878 C46.1601479,17.5206687 46.0779925,17.5882734 45.996061,17.656102 C45.9747946,17.6737867 45.9535282,17.6912475 45.9324857,17.7087083 C45.8463008,17.7805663 45.7607876,17.8528721 45.6759459,17.9251778 C45.6598282,17.9390569 45.6432628,17.9527122 45.6271451,17.9665913 C45.5290959,18.0503137 45.4319421,18.1344838 45.3356837,18.2188778 C45.3334451,18.2208925 45.3312066,18.2226833 45.328968,18.2246981 C45.0256422,18.4906398 44.7303752,18.760611 44.4438386,19.0334923 C44.432198,19.0446852 44.4207813,19.055878 44.4091408,19.0670708 C44.3283285,19.1445253 44.247964,19.2222035 44.1684948,19.3001057 C44.1479,19.3202528 44.1277529,19.3403999 44.107382,19.360547 C44.037091,19.4301664 43.9670238,19.5000097 43.8978521,19.569853 C43.8736756,19.5942534 43.8499467,19.6186538 43.8259941,19.643278 C43.7615234,19.7090919 43.6972765,19.7751296 43.633925,19.8413912 C43.6079577,19.8684778 43.5822141,19.8957884 43.5564706,19.922875 C43.4953577,19.9873457 43.4349164,20.0518165 43.3749228,20.1165111 C43.3487316,20.144717 43.3223165,20.1731468 43.2963491,20.2015766 C43.2372509,20.2660473 43.1786005,20.3307419 43.1206216,20.3956604 C43.0955497,20.4236425 43.0704777,20.4516245 43.0454058,20.4796066 C42.9865314,20.5458682 42.9285526,20.6125775 42.8710214,20.6792868 C42.8477403,20.7063735 42.8244592,20.7330124 42.8014019,20.7600991 C42.7414083,20.8301662 42.682534,20.9004572 42.6238836,20.9709721 C42.604408,20.9942532 42.5844848,21.0177582 42.5652331,21.0412631 C42.4980761,21.1227469 42.4320384,21.2046785 42.3666722,21.2868339 C42.3570464,21.2989222 42.3471967,21.3107866 42.3375709,21.3230987 C42.1840052,21.5169586 42.0353643,21.7121617 41.8923199,21.9089317 C41.8900813,21.9118418 41.8880666,21.914752 41.8860519,21.9176621 C41.8188949,22.0101149 41.7528571,22.1030155 41.6881626,22.1961398 C41.6724926,22.2187494 41.6572703,22.2415828 41.6416004,22.2644161 C41.5907849,22.338065 41.540641,22.4119377 41.4913925,22.4860343 C41.4716931,22.5155834 41.4526653,22.5453563 41.4331898,22.5751293 C41.3888661,22.642734 41.3452141,22.7105626 41.3022336,22.778615 C41.2814149,22.8115219 41.261044,22.8446527 41.2404491,22.8777835 C41.2001549,22.942702 41.1603084,23.0078443 41.1213574,23.0729866 C41.1003148,23.1081321 41.0794962,23.1435014 41.0589014,23.1788708 C41.0215173,23.2426699 40.9845809,23.3064691 40.94854,23.3702683 C40.928169,23.4065331 40.9077981,23.442574 40.887651,23.4788388 C40.8522816,23.5426379 40.8178077,23.6066609 40.7835576,23.670684 C40.7643059,23.7067249 40.7450543,23.7429897 40.7262503,23.7790306 C40.6922241,23.8446206 40.6588694,23.9104345 40.6261863,23.9762484 C40.6089494,24.0109462 40.5912647,24.0456439 40.5744754,24.0803417 C40.5408969,24.1492896 40.5084377,24.2184613 40.4764262,24.2878569 C40.4616517,24.3198684 40.4464294,24.3516561 40.4318787,24.3836676 C40.3967332,24.461122 40.3631547,24.5388003 40.3298001,24.6164785 C40.3197265,24.6402074 40.3089814,24.6639362 40.2989078,24.687665 C40.2124992,24.8933893 40.1328062,25.1002329 40.059605,25.3084196 C40.0526655,25.328119 40.0463975,25.3478184 40.0396818,25.3677416 C40.0110281,25.4507925 39.983046,25.5340672 39.9566309,25.6175657 C39.9463335,25.6502488 39.9369315,25.6829319 39.926858,25.715615 C39.9051439,25.7865775 39.8836537,25.8575401 39.8637304,25.9289504 C39.8532091,25.9665583 39.8433594,26.0043901 39.833062,26.0422219 C39.8151535,26.1084835 39.7974688,26.1749689 39.7811273,26.2416782 C39.7710537,26.2824201 39.7616518,26.3233859 39.7520259,26.3641278 C39.7370275,26.4281509 39.7224768,26.4923977 39.7088216,26.5566446 C39.6998673,26.5987297 39.6913607,26.6410386 39.6828542,26.6833475 C39.6703182,26.7469228 39.65823,26.8102742 39.6470371,26.8740734 C39.639426,26.9170539 39.6320387,26.9600344 39.6250992,27.0032387 C39.6148018,27.066814 39.6051759,27.1306132 39.5962216,27.1944124 C39.5901775,27.2373928 39.5841334,27.2803733 39.578537,27.3235777 C39.5702543,27.3884961 39.5630909,27.4534146 39.5563752,27.518333 C39.551898,27.5604181 39.547197,27.6022793 39.5433915,27.6443643 C39.5371235,27.7124168 39.5324225,27.7806931 39.5277215,27.8491932 C39.5250352,27.8883681 39.5219012,27.9275431 39.5196627,27.966718 C39.5154094,28.0426054 39.512947,28.1187167 39.5107084,28.194828 C39.509813,28.2266156 39.5080221,28.2584033 39.5073505,28.2901909 C39.5033211,28.5073319 39.5069028,28.7255922 39.5187672,28.9447479 C39.5203342,28.9751924 39.5232444,29.0058608 39.5252591,29.0365292 C39.5304078,29.1151029 39.5357803,29.1939004 39.5429437,29.272698 C39.5465255,29.3132161 39.5514503,29.3537341 39.5557036,29.3940283 C39.5630909,29.4634239 39.5704781,29.5330433 39.5792085,29.6026628 C39.584805,29.6469864 39.5915207,29.69131 39.5980125,29.7356337 C39.6074145,29.8016714 39.6172642,29.867933 39.6282332,29.9341946 C39.6358443,29.9805329 39.6443508,30.0268712 39.6528574,30.0734334 C39.6647218,30.1383519 39.6768101,30.2030465 39.6900176,30.2679649 C39.6996434,30.3151987 39.7099409,30.3626563 39.7202383,30.4101139 C39.7343412,30.4745846 39.7493396,30.5390554 39.7647857,30.60375 C39.7762024,30.6514314 39.7880668,30.6991129 39.800379,30.7470183 C39.8171682,30.8119367 39.8348529,30.877079 39.8532091,30.9422213 C39.8664167,30.9896789 39.8798481,31.0371365 39.8939511,31.084818 C39.9134266,31.1508558 39.9342453,31.2171173 39.9555117,31.2833789 C39.9705101,31.330165 39.9850607,31.376951 40.0007307,31.4239609 C40.023788,31.4926849 40.0484122,31.5616328 40.0730364,31.6303568 C40.0889303,31.6746804 40.1041525,31.7190041 40.1207179,31.7633277 C40.1493716,31.8398867 40.1798161,31.9164457 40.2104844,31.9932285 C40.225259,32.0301649 40.2391381,32.0671012 40.2543604,32.1040376 C40.3000271,32.2146228 40.3477086,32.3254319 40.3976286,32.4364648 C40.3991956,32.4398227 40.4005388,32.4429567 40.4018819,32.4463145 C40.4535928,32.5607053 40.50799,32.6753199 40.5644019,32.7901584 C40.5825343,32.8270948 40.6022337,32.8640311 40.6208138,32.9009675 C40.6602126,32.9788696 40.6996113,33.0569956 40.7410248,33.1351216 C40.7647536,33.1798929 40.7900495,33.2248881 40.8146737,33.2698833 C40.8534009,33.340622 40.8921281,33.4113608 40.9326462,33.4820995 C40.9601805,33.5300048 40.9888342,33.5783579 41.0170402,33.626487 C41.0568866,33.6940918 41.096957,33.7619204 41.1385943,33.8297489 C41.1692627,33.8798928 41.2008265,33.9300367 41.2323903,33.9801806 C41.2742515,34.0466661 41.3167843,34.1133754 41.3602125,34.1800847 C41.3933433,34.2309002 41.4271456,34.2817156 41.4611719,34.3325311 C41.5057193,34.3990165 41.5511622,34.465502 41.5972767,34.5322113 C41.6326461,34.5830267 41.6682393,34.6340661 41.7045041,34.6848815 C41.7524094,34.7520386 41.801434,34.8194194 41.8509064,34.8868003 C41.8880666,34.9371681 41.9250029,34.9875358 41.9630586,35.0381274 C42.0145456,35.1066276 42.0678235,35.1751277 42.1211014,35.2438517 C42.1596048,35.2935479 42.1978843,35.3430203 42.237283,35.3927164 C42.2941427,35.4641267 42.3527931,35.5357609 42.4114436,35.6071712 C42.4497231,35.6539572 42.487331,35.7005194 42.5265059,35.7473055 C42.5929914,35.8265507 42.6617154,35.9062437 42.7304394,35.9857129 C42.7642417,36.0248878 42.7971487,36.0640627 42.8316226,36.1032376 C42.9361637,36.2221055 43.0429433,36.3411973 43.152857,36.4605129 C43.2047917,36.5169248 43.2614275,36.5695311 43.3200779,36.6203466 C43.346493,36.6434039 43.3744751,36.6648941 43.4020095,36.6868321 C43.4326779,36.7107847 43.4637939,36.7342897 43.4958054,36.7568992 C43.5338611,36.7839859 43.5723644,36.8108487 43.6124348,36.8361445 C43.6301195,36.8471135 43.6486996,36.857187 43.6666081,36.8679321 C43.7904009,36.9418048 43.9202378,37.0096334 44.0597005,37.0662692 C44.6629943,37.1271582 45.2779287,37.1806599 45.9076376,37.2245359 C46.1894732,37.2442353 46.4614591,37.2379673 46.7253861,37.216477 C46.8113471,37.2072989 46.8997705,37.1994639 46.9852838,37.1898381 C47.8793674,37.0694032 48.6377939,36.713471 49.1322934,36.1545008 C54.7645281,29.7862253 54.1079564,24.0098269 50.4714042,19.0547587 C56.5495615,14.6463486 64.356564,11.4552713 68.3477052,9.98386118 C68.6420768,9.87551453 68.9333144,9.80925295 69.2138068,9.77858458 Z" id="Path" fill="#99AF17"></path>
            <path d="M41.151578,38.0926522 C9.77962786,32.8349297 14.2628061,8.75175388 16.4568256,1.2870282 C16.8273085,0.0264910964 18.527724,-0.379361109 20.207097,0.389362815 C30.3527306,5.03394172 61.7282625,21.2568371 44.4644334,37.3387028 C43.7095886,38.0420605 42.4933751,38.3174043 41.151578,38.0926522 Z" id="Path" fill="#EACF32"></path>
            <path d="M22.244193,1.34657408 C21.4991979,0.987731787 20.8146441,0.667616699 20.2068732,0.389362815 C18.527724,-0.379361109 16.8270846,0.0264910964 16.4566018,1.2870282 C14.2625822,8.75175388 9.779404,32.8349297 41.151578,38.0924283 C42.4931513,38.3171804 43.7093647,38.0418367 44.4644334,37.3384789 C45.185252,36.6671327 45.8192142,35.9955626 46.3754981,35.3244402 C19.3033875,30.2066282 20.2160513,10.5585013 22.244193,1.34657408 Z" id="Path" fill="#CCC033"></path>
            <path d="M51.9443813,94.886889 C29.4380521,94.886889 11.1928352,74.5971889 11.1928352,49.56889 L11.1928352,46.7838887 C11.1928352,46.3907964 11.2637978,46.0151648 11.3880383,45.6646052 L3.35785057,45.6646052 C1.50342163,45.6646052 0,47.167803 0,49.0224558 L0,51.807457 C0,76.8359798 18.2452169,97.1254561 40.7515461,97.1254561 C45.2154726,97.1254561 49.5108351,96.3244968 53.5304061,94.8495049 C53.004119,94.8718906 52.4758172,94.886889 51.9443813,94.886889 Z" id="Path" fill="#FCE575"></path>
            <path d="M40.7515461,91.5290384 C21.3668986,91.5290384 5.59641762,73.7098209 5.59641762,51.8072332 L5.59641762,51.8072332 C5.59641762,51.5054743 5.84086914,51.2610228 6.14262798,51.2610228 L75.3602404,51.2610228 C75.6619992,51.2610228 75.9064507,51.5054743 75.9064507,51.8072332 L75.9064507,51.8072332 C75.9064507,73.7098209 60.1361936,91.5290384 40.7515461,91.5290384 Z" id="Path" fill="#CCC033"></path>
            <path d="M5.59641762,51.8070093 L5.59641762,51.8070093 C5.59641762,71.7452544 18.6653959,88.2969953 35.6319433,91.106397 C21.6852228,84.323315 11.8135899,69.1113565 11.2239513,51.260799 L6.14262798,51.260799 C5.84086914,51.260799 5.59641762,51.5054743 5.59641762,51.8070093 Z" id="Path" fill="#99AF17"></path>
            <path d="M55.3620016,84.2877218 C54.8359384,84.2877218 54.3365141,83.9767848 54.1216116,83.4607951 C53.8364182,82.7760174 54.160115,81.9896088 54.8448927,81.7044154 C66.5040214,76.846501 68.2628635,60.1485817 68.2792051,59.9804653 C68.3512869,59.2421859 69.0060678,58.7020197 69.7465858,58.7741015 C70.4848652,58.8461834 71.0248076,59.502979 70.9529496,60.2414822 C70.9345933,60.4288503 70.4815073,64.890986 68.4390388,70.0622997 C65.6903023,77.0224524 61.3465868,81.9056626 55.8782152,84.1840761 C55.7092034,84.2543671 55.5341475,84.2877218 55.3620016,84.2877218 Z" id="Path" fill="#EACF32"></path>
            <path d="M44.6168798,33.9197393 C44.2455015,33.9197393 43.876138,33.7668452 43.6106439,33.4668772 L34.6261551,23.3187812 C34.1343419,22.7633927 34.1860528,21.9145281 34.7414413,21.4229388 C35.2968298,20.9313495 36.1456944,20.9828365 36.6372837,21.538225 L45.6217726,31.686321 C46.1135857,32.2417095 46.0618748,33.0905741 45.5064864,33.5821634 C45.2510659,33.8082587 44.9334132,33.9197393 44.6168798,33.9197393 Z" id="Path" fill="#FCDA4F"></path>
            <circle id="Oval" fill="#99AF17" cx="26.765203" cy="76.0683751" r="3.35785057"></circle>
            <circle id="Oval" fill="#99AF17" cx="35.6319433" cy="82.9647286" r="3.35785057"></circle>
        </g>
    </g>
</svg>