<?xml version="1.0" encoding="UTF-8"?>
<svg width="150px" height="150px" viewBox="0 0 150 150" version="1.1" xmlns="http://www.w3.org/2000/svg" xmlns:xlink="http://www.w3.org/1999/xlink">
    <title>Artboard</title>
    <g id="Artboard" stroke="none" stroke-width="1" fill="none" fill-rule="evenodd">
        <g id="Group-2" transform="translate(20.000000, 28.000000)" fill-rule="nonzero">
            <path d="M94.9126279,28.7601626 C97.7563696,32.3473425 98.9951184,37.0821236 98.3952156,42.1275959 C97.7477486,47.5712156 95.0808861,52.6830952 90.885728,56.5216742 C86.8053184,60.2550095 81.7742204,62.3112641 76.7184484,62.3112641 C71.6715948,62.3112641 67.2216712,60.266868 64.1876729,56.5545814 C57.9386353,48.9085519 59.6200281,36.4865331 67.9089732,28.7601626 L58.0391146,28.7601626 C51.2778706,39.1371923 51.1503392,52.6246924 58.5661849,61.6981824 C67.5516475,72.6918513 84.1979111,73.0372285 95.7473788,62.4695743 C105.567592,53.4841333 108.535298,39.5039147 103.681376,28.7601626 L94.9126279,28.7601626 L94.9126279,28.7601626 Z" id="Path" fill="#FFC34C"></path>
            <path d="M104.994097,28.0331559 C96.0099083,17.0399656 79.366004,16.6946034 67.8181734,27.2617975 C56.27064,37.8289916 54.1923813,55.3069872 63.1762731,66.3001775 C72.1604621,77.2933677 88.8043663,77.6387299 100.352197,67.0715358 C111.89973,56.5043417 113.977989,39.0260497 104.994097,28.0331559 Z" id="Path" fill="#FFEACF"></path>
            <path d="M102.999658,46.7301466 C102.352283,52.1735293 99.6857987,57.2851864 95.4912353,61.1235982 C91.411404,64.856771 86.3810191,66.912936 81.3259638,66.912936 C76.2798254,66.912936 71.8305326,64.8686289 68.7969644,61.156504 C62.5077942,53.4607076 64.2489899,40.9233184 72.6791351,33.2091422 C76.7586691,29.4759695 81.7893513,27.4198044 86.8444066,27.4198044 C91.8902477,27.4198044 96.3395406,29.4641115 99.3731088,33.1762364 C102.321965,36.7846045 103.609879,41.5980346 102.999658,46.7301466 Z" id="Path" fill="#FFEACF"></path>
            <path d="M95.6037037,69.2658751 L95.6037037,59.5131501 C95.4450426,59.6679082 95.288442,59.8241486 95.125071,59.9747561 C91.0846578,63.7082212 86.1028748,65.7645472 81.0966597,65.7645472 C76.0992755,65.7645472 71.6929703,63.72008 68.6887114,60.0076645 C62.4603052,52.3112655 64.184678,39.7728947 72.5333739,32.0581145 C76.5734928,28.3246495 81.5555701,26.2683234 86.5617852,26.2683234 C89.9269319,26.2683234 93.0221487,27.1992438 95.6037037,28.9386418 L95.6037037,20.1796892 C86.843784,16.5449491 75.9688731,18.4868372 67.7193772,26.1100077 C56.2834123,36.6780292 54.225233,54.1573932 63.1223254,65.1514442 C70.9464682,74.8202678 84.6372462,76.2489637 95.6037037,69.2658751 Z" id="Path" fill="#FFD59A"></path>
            <path d="M106.39136,50.6178862 C106.125937,50.6178862 105.856589,50.5614146 105.601735,50.4411565 C104.701592,50.0180588 104.325954,48.9676293 104.76289,48.0950998 C107.970913,41.6901133 102.799244,32.6163337 102.746703,32.5253354 C102.257226,31.6797251 102.567943,30.6096915 103.440607,30.1353889 C104.313272,29.6607937 105.417539,29.9621704 105.907016,30.8080734 C106.159455,31.2443381 112.047976,41.5912149 108.022548,49.6283172 C107.709717,50.2538933 107.063825,50.6178862 106.39136,50.6178862 Z" id="Path" fill="#FCF9DE"></path>
            <path d="M63.3599635,93.1829268 L20.7252217,93.1829268 C9.27897783,93.1829268 1.8189894e-12,83.9669683 1.8189894e-12,72.5984631 L1.8189894e-12,4.41095652 C1.8189894e-12,1.97493227 1.98843698,0 4.44111894,0 L79.6440662,0 C82.0967482,0 84.0851852,1.97493227 84.0851852,4.41095652 L84.0851852,72.5984631 C84.0851852,83.9669683 74.8062074,93.1829268 63.3599635,93.1829268 Z" id="Path" fill="#FFEACF"></path>
            <path d="M17.5435897,72.5984631 L17.5435897,4.41095652 C17.5435897,1.97493227 19.5073022,0 21.9294872,0 L4.38589744,0 C1.96371248,0 0,1.97493227 0,4.41095652 L0,72.5984631 C0,83.9669683 9.16360171,93.1829268 20.4675214,93.1829268 L38.0111111,93.1829268 C26.7071915,93.1829268 17.5435897,83.9669683 17.5435897,72.5984631 Z" id="Path" fill="#FFD59A"></path>
            <path d="M8.06296296,71.9832082 L8.06296296,10.974308 C8.06296296,9.36078426 9.38522982,8.05284553 11.0164292,8.05284553 L74.2206078,8.05284553 C75.8518072,8.05284553 77.1740741,9.36078426 77.1740741,10.974308 L77.1740741,71.9835003 C77.1740741,79.2442109 71.2237255,85.1300813 63.8834758,85.1300813 L21.3535613,85.1300813 C14.0136068,85.1300813 8.06296296,79.2439188 8.06296296,71.9832082 Z" id="Path" fill="#BF6C0D"></path>
            <path d="M8.06296296,71.9832082 L8.06296296,10.974308 C8.06296296,9.36078426 9.38522982,8.05284553 11.0164292,8.05284553 L74.2206078,8.05284553 C75.8518072,8.05284553 77.1740741,9.36078426 77.1740741,10.974308 L77.1740741,71.9835003 C77.1740741,79.2442109 71.2237255,85.1300813 63.8834758,85.1300813 L21.3535613,85.1300813 C14.0136068,85.1300813 8.06296296,79.2439188 8.06296296,71.9832082 Z" id="Path" fill="#BF6C0D"></path>
            <path d="M17.3597363,72.4287312 L17.3597363,8.05284553 L9.8964326,8.05284553 C8.24763954,8.05284553 6.91111111,9.36078426 6.91111111,10.974308 L6.91111111,71.9835003 C6.91111111,79.2442109 12.9256383,85.1300813 20.3450578,85.1300813 L21.8851852,85.1300813 C19.0548019,81.6406866 17.3597363,77.2295704 17.3597363,72.4287312 Z" id="Path" fill="#A56021"></path>
            <path d="M70.8388889,31.0609756 C69.8848676,31.0609756 69.1111111,30.2312279 69.1111111,29.2081708 L69.1111111,21.4097154 C69.1111111,20.3866583 69.8848676,19.5569106 70.8388889,19.5569106 C71.7929102,19.5569106 72.5666667,20.3866583 72.5666667,21.4097154 L72.5666667,29.2081708 C72.5666667,30.2315367 71.7929102,31.0609756 70.8388889,31.0609756 Z" id="Path" fill="#E58D23"></path>
            <path d="M70.8388889,71.3252033 C69.8848676,71.3252033 69.1111111,70.5384953 69.1111111,69.5685053 L69.1111111,35.1184866 C69.1111111,34.1484965 69.8848676,33.3617886 70.8388889,33.3617886 C71.7929102,33.3617886 72.5666667,34.1484965 72.5666667,35.1184866 L72.5666667,69.5685053 C72.5666667,70.5384953 71.7929102,71.3252033 70.8388889,71.3252033 Z" id="Path" fill="#E58D23"></path>
            <ellipse id="Oval" fill="#A56021" cx="24.7648148" cy="66.148374" rx="4.03148148" ry="4.02642276"></ellipse>
            <ellipse id="Oval" fill="#A56021" cx="35.1314815" cy="77.652439" rx="4.03148148" ry="4.02642276"></ellipse>
        </g>
    </g>
</svg>