<?xml version="1.0" encoding="UTF-8"?>
<svg width="150px" height="150px" viewBox="0 0 150 150" version="1.1" xmlns="http://www.w3.org/2000/svg" xmlns:xlink="http://www.w3.org/1999/xlink">
    <title>Artboard</title>
    <g id="Artboard" stroke="none" stroke-width="1" fill="none" fill-rule="evenodd">
        <g id="Group-3" transform="translate(37.000000, 29.000000)" fill-rule="nonzero">
            <path d="M70.9117477,18.4934029 L5.11070645,18.4934029 L5.11070645,16.0499176 C5.11070645,7.18577739 12.377927,0 21.3425327,0 L54.6799214,0 C63.6445271,0 70.9117477,7.18577739 70.9117477,16.0499176 L70.9117477,18.4934029 Z" id="Path" fill="#FFEACF"></path>
            <path d="M20.5133183,0 C12.0066819,0 5.11070645,6.81869285 5.11070645,15.2299961 L5.11070645,18.4936322 L13.9120664,18.4936322 L13.9120664,15.2299961 C13.9120664,6.81869285 20.8080419,0 29.3146783,0 L20.5133183,0 Z" id="Path" fill="#FFD59A"></path>
            <path d="M1.8189894e-12,15.99145 L1.8189894e-12,63.0741126 C1.8189894e-12,65.2837277 0.494143169,67.4731657 1.45599482,69.5252623 L9.05318517,85.7345327 C9.23359033,86.1192721 9.32611174,86.5299207 9.32611174,86.9442379 L9.32611174,90.2920214 C9.32611174,91.2534115 10.2413549,92.0325203 11.3703943,92.0325203 L64.6518279,92.0325203 C65.7808674,92.0325203 66.6961105,91.2531822 66.6961105,90.2920214 L66.6961105,86.9442379 C66.6961105,86.5299207 66.7888638,86.1195014 66.969037,85.7347619 L74.5662274,69.5254916 C75.5280791,67.473395 76.0222222,65.2839569 76.0222222,63.0743419 L76.0222222,15.99145 C76.0222222,14.7897698 74.8781104,13.815769 73.466869,13.815769 L2.55535323,13.815769 C1.14411187,13.815769 1.8189894e-12,14.7897698 1.8189894e-12,15.99145 Z" id="Path" fill="#FFF4C1"></path>
            <path d="M22.5283836,90.2915628 L22.5283836,86.9437793 C22.5283836,86.5294622 22.4358622,86.1190428 22.255457,85.7343034 L14.6582667,69.525033 C13.696415,67.4729364 13.2022719,65.2834984 13.2022719,63.0738833 L13.2022719,15.99145 C13.2022719,14.7897698 14.3463837,13.8157691 15.7576251,13.8157691 L2.55535323,13.8157691 C1.14411187,13.8157691 0,14.7897698 0,15.99145 L0,63.0741126 C0,65.2837277 0.494143169,67.4731657 1.45599482,69.5252623 L9.05318517,85.7345327 C9.23359033,86.1192721 9.32611174,86.5299207 9.32611174,86.9440086 L9.32611174,90.2917921 C9.32611174,91.2531822 10.2413549,92.032291 11.3703943,92.032291 L24.5726662,92.032291 C23.4436267,92.032291 22.5283836,91.2527236 22.5283836,90.2915628 Z" id="Path" fill="#FCE575"></path>
            <path d="M5.11070645,63.0741126 C5.11070645,64.7387183 5.47800949,66.3664092 6.20264459,67.9124749 L13.7996031,84.1212867 C14.2223262,85.0230627 14.4365863,85.9727593 14.4365863,86.9440086 L14.4365863,87.6809291 L61.585404,87.6809291 L61.585404,86.9440086 C61.585404,85.9727593 61.7996641,85.0228335 62.2223873,84.1217452 L69.8193457,67.9127042 C70.5439808,66.3666385 70.9112839,64.7387183 70.9112839,63.0741126 L70.9112839,33.723399 L5.11070645,33.723399 L5.11070645,63.0741126 Z" id="Path" fill="#FFD59A"></path>
            <path d="M22.2552252,85.7343034 L14.6580348,69.525033 C13.6961831,67.4729364 13.20204,65.2834984 13.20204,63.0738833 L13.20204,33.723399 L5.11070645,33.723399 L5.11070645,63.0741126 C5.11070645,64.7387183 5.47800949,66.3664092 6.20287648,67.9124749 L13.799835,84.1212867 C14.2225581,85.0230627 14.4368182,85.9727593 14.4368182,86.9440086 L14.4368182,87.6809291 L22.5283836,87.6809291 L22.5283836,86.9440086 C22.5283836,86.5294622 22.4356303,86.1190428 22.2552252,85.7343034 Z" id="Path" fill="#FFB74B"></path>
            <rect id="Rectangle" fill="#BF6C0D" x="5.11070645" y="13.8155398" width="65.8010412" height="19.9076299"></rect>
            <path d="M64.3107277,58.7067007 C63.5424985,58.7067007 62.9194283,58.0906132 62.9194283,57.3309935 L62.9194283,39.5999617 C62.9194283,38.840342 63.5424985,38.2242545 64.3107277,38.2242545 C65.0789568,38.2242545 65.7020271,38.840342 65.7020271,39.5999617 L65.7020271,57.3309935 C65.7020271,58.0906132 65.0789568,58.7067007 64.3107277,58.7067007 Z" id="Path" fill="#BF6C0D"></path>
            <path d="M57.6422297,81.1846103 C57.4465202,81.1846103 57.2475644,81.1435684 57.0581158,81.0566695 C56.3610748,80.7372762 56.0577715,79.9194182 56.3807849,79.2301889 L61.8917218,67.4715607 L62.9511963,62.6577319 C63.1144421,61.9150792 63.8560046,61.4459631 64.6066107,61.6057744 C65.3574486,61.76742 65.8337367,62.5002134 65.6702591,63.2426367 L64.5783209,68.205042 C64.5565239,68.3036343 64.5240602,68.3997045 64.4811618,68.4909598 L58.9057614,80.3871587 C58.670168,80.8892918 58.1672133,81.1846103 57.6422297,81.1846103 Z" id="Path" fill="#BF6C0D"></path>
            <ellipse id="Oval" fill="#A56021" cx="24.0135957" cy="70.6368338" rx="3.37019091" ry="3.33242146"></ellipse>
            <ellipse id="Oval" fill="#A56021" cx="33.1150126" cy="79.5197753" rx="3.37019091" ry="3.33242146"></ellipse>
            <ellipse id="Oval" fill="#FFD59A" cx="23.9477409" cy="7.38342066" rx="3.37019091" ry="3.33242146"></ellipse>
            <rect id="Rectangle" fill="#A56021" x="5.11070645" y="13.8155398" width="6.60101999" height="19.9076299"></rect>
        </g>
    </g>
</svg>