<?xml version="1.0" encoding="UTF-8"?>
<svg width="150px" height="150px" viewBox="0 0 150 150" version="1.1" xmlns="http://www.w3.org/2000/svg" xmlns:xlink="http://www.w3.org/1999/xlink">
    <title>Artboard</title>
    <g id="Artboard" stroke="none" stroke-width="1" fill="none" fill-rule="evenodd">
        <g id="Group-6" transform="translate(39.000000, 38.000000)" fill-rule="nonzero">
            <path d="M0,2.0585985 L0,46.6028522 C0,48.6933384 0.461498809,50.7647354 1.35980808,52.7061955 L8.45510863,68.0415613 C8.62359576,68.4055579 8.71000497,68.7940669 8.71000497,69.1860466 L8.71000497,72.3533381 C8.71000497,73.2628959 9.56478479,74 10.619237,74 L60.380763,74 C61.4352152,74 62.289995,73.262679 62.289995,72.3533381 L62.289995,69.1860466 C62.289995,68.7940669 62.3766208,68.4057748 62.5448914,68.0417782 L69.6401919,52.7064124 C70.5385012,50.7649523 71,48.6935553 71,46.6030692 L71,2.0585985 C71,0.921705483 69.9314711,0.00021688464 68.6134599,0.00021688464 L2.38654006,0.00021688464 C1.06852892,0.00021688464 0,0.921705483 0,2.0585985 Z" id="Path" fill="#FFF4C1"></path>
            <path d="M21.040101,72.3529043 L21.040101,69.1856127 C21.040101,68.793633 20.9536918,68.405341 20.7852047,68.0413443 L13.6899041,52.7059786 C12.7915949,50.7645184 12.3300961,48.6931215 12.3300961,46.6026353 L12.3300961,2.0585985 C12.3300961,0.921705483 13.398625,0.000216922919 14.7166361,0.000216922919 L2.38654006,0.000216922919 C1.06852892,0.000216922919 -1.8189894e-12,0.921705483 -1.8189894e-12,2.0585985 L-1.8189894e-12,46.6028522 C-1.8189894e-12,48.6933384 0.461498809,50.7647354 1.35980808,52.7061955 L8.45510863,68.0415613 C8.62359576,68.4055579 8.71000497,68.7940669 8.71000497,69.1858297 L8.71000497,72.3531212 C8.71000497,73.262679 9.56478479,73.9997831 10.619237,73.9997831 L22.9493331,73.9997831 C21.8948808,73.9997831 21.040101,73.2622452 21.040101,72.3529043 Z" id="Path" fill="#FCE575"></path>
            <path d="M4.77308013,46.6028522 C4.77308013,48.1777126 5.11611819,49.7176484 5.79288205,51.1803597 L12.887966,66.5152916 C13.282763,67.3684494 13.4828685,68.2669442 13.4828685,69.1858297 L13.4828685,69.8830199 L57.5169149,69.8830199 L57.5169149,69.1858297 C57.5169149,68.2669442 57.7170204,67.3682325 58.1118174,66.5157254 L65.2069014,51.1805766 C65.8836652,49.7178654 66.2267033,48.1777126 66.2267033,46.6028522 L66.2267033,18.8345494 L4.77308013,18.8345494 L4.77308013,46.6028522 Z" id="Path" fill="#FFD59A"></path>
            <path d="M20.7849881,68.0413443 L13.6896876,52.7059786 C12.7913783,50.7645184 12.3298795,48.6931215 12.3298795,46.6026353 L12.3298795,18.8345494 L4.77308013,18.8345494 L4.77308013,46.6028522 C4.77308013,48.1777126 5.11611819,49.7176484 5.79309861,51.1803597 L12.8881826,66.5152916 C13.2829796,67.3684494 13.4830851,68.2669442 13.4830851,69.1858297 L13.4830851,69.8830199 L21.040101,69.8830199 L21.040101,69.1858297 C21.040101,68.793633 20.9534752,68.405341 20.7849881,68.0413443 Z" id="Path" fill="#FFB74B"></path>
            <rect id="Rectangle" fill="#BF6C0D" x="4.77308013" y="0" width="61.4540563" height="18.8343324"></rect>
            <path d="M60.0621967,42.4709045 C59.3447187,42.4709045 58.7628101,41.8880326 58.7628101,41.169367 L58.7628101,24.3942838 C58.7628101,23.6756182 59.3447187,23.0927463 60.0621967,23.0927463 C60.7796747,23.0927463 61.3615833,23.6756182 61.3615833,24.3942838 L61.3615833,41.169367 C61.3615833,41.8880326 60.7796747,42.4709045 60.0621967,42.4709045 Z" id="Path" fill="#BF6C0D"></path>
            <path d="M53.8342367,63.7369429 C53.6514563,63.7369429 53.465644,63.6981137 53.2887109,63.6158999 C52.6377182,63.3137262 52.3544519,62.5399622 52.6561262,61.8878919 L57.8029965,50.7632169 L58.7924794,46.2089202 C58.9449408,45.5063069 59.6375138,45.0624826 60.3385329,45.2136779 C61.0397686,45.3666085 61.4845919,46.0598942 61.331914,46.7622906 L60.3121121,51.4571533 C60.291755,51.5504302 60.261436,51.6413209 60.2213716,51.7276562 L55.0142963,62.9824849 C54.7942668,63.4575461 54.3245386,63.7369429 53.8342367,63.7369429 Z" id="Path" fill="#BF6C0D"></path>
            <rect id="Rectangle" fill="#A56021" x="4.77308013" y="0" width="6.16493974" height="18.8343324"></rect>
        </g>
    </g>
</svg>