<?xml version="1.0" encoding="UTF-8"?>
<svg width="150px" height="150px" viewBox="0 0 150 150" version="1.1" xmlns="http://www.w3.org/2000/svg" xmlns:xlink="http://www.w3.org/1999/xlink">
    <title>Artboard</title>
    <g id="Artboard" stroke="none" stroke-width="1" fill="none" fill-rule="evenodd">
        <g id="Group-2" transform="translate(9.000000, 31.000000)" fill-rule="nonzero">
            <g id="MILK-PITCHER" transform="translate(43.016949, 0.000000)">
                <path d="M75.2090564,16.6101695 L75.2090564,22.677876 C75.2090564,32.2549744 72.7829173,41.7265257 68.1931018,50.0682044 C67.3871403,51.5331746 65.867145,52.4431095 64.226143,52.4431095 L54.677113,52.4431095 L54.1141032,16.6101695 L45.0847458,16.6101695 L45.7929638,61.6949153 L62.8260288,61.6949153 C68.5835128,61.6949153 73.9168165,58.5021646 76.7448107,53.362657 L76.807284,53.2486508 C81.668755,44.3677016 84.2372881,34.2965123 84.2372881,24.1128547 L84.2372881,16.6101695 L75.2090564,16.6101695 Z" id="Path" fill="#8C4C17"></path>
                <path d="M49.5799254,65.2542373 L48.6440678,8.30508475 L81.6225219,8.30508475 C85.6811097,8.30508475 88.9830508,11.5398388 88.9830508,15.5158436 L88.9830508,28.4305596 C88.9830508,38.4087172 86.3504585,48.2768646 81.3677425,56.9784133 L81.3037111,57.0901189 C78.4051868,62.1259144 72.9388706,65.2542373 67.0377949,65.2542373 L49.5799254,65.2542373 L49.5799254,65.2542373 Z M68.4726356,56.1891272 C70.1545643,56.1891272 71.712276,55.2973659 72.5385304,53.8619579 C77.2430081,45.6884208 79.7294628,36.4079996 79.7294628,27.0243495 L79.7294628,20.8718745 C79.7294628,18.9410435 78.125987,17.3701948 76.155052,17.3701948 L58.0474469,17.3701948 L58.685453,56.1891272 L68.4726356,56.1891272 L68.4726356,56.1891272 Z" id="Shape" fill="#BF6C0D"></path>
                <path d="M49.5761166,65.2542373 L66.9629337,65.2542373 C70.2033687,65.2542373 73.3110915,64.3016312 75.9322034,62.6041954 L74.5987628,49.6836397 C73.9413304,51.1039778 73.2228083,52.4988855 72.44109,53.8623347 C71.6183899,55.2977427 70.0668265,56.1893156 68.3917432,56.1893156 L58.6445852,56.1893156 L58.0091758,17.3703832 L71.2639164,17.3703832 L70.3284206,8.30508475 L48.6440678,8.30508475 L49.5761166,65.2542373 Z" id="Path" fill="#A56021"></path>
                <path d="M16.1509645,0 L1.5016453,0 C0.460381595,0 -0.264083435,1.03954365 0.0915768889,2.02262157 L5.44400759,16.8120488 C5.98464176,18.305998 7.12629806,19.5021145 8.589325,20.1073505 L17.3425313,23.7288136 L22.5423729,23.7288136 L22.5423729,0 L16.1509645,0 Z" id="Path" fill="#FFD551"></path>
                <path d="M14.2155017,18.2229708 C12.7526653,17.6177397 11.6108185,16.4216329 11.0701843,14.9276957 L5.71794414,0.138196365 C5.70137079,0.0922585153 5.6893694,0.0461292576 5.677368,0 L1.5016453,0 C0.460381595,0 -0.264083435,1.03953526 0.0915768889,2.02260525 L5.44400759,16.8121046 C5.98464176,18.3060418 7.12629806,19.5021486 8.589325,20.1073797 L17.3425313,23.7288136 L22.5423729,23.7288136 L22.5423729,21.6681182 L14.2155017,18.2229708 Z" id="Path" fill="#F9BB32"></path>
                <path d="M61.7105963,1.3445157 C61.6330742,0.580914342 60.9897167,0 60.2219058,0 L15.5444715,0 L8.30508475,71.2750943 L8.30508475,77.2623671 C8.30508475,82.4248896 12.4924186,86.6101695 17.6578989,86.6101695 L59.4607451,86.6101695 C64.6260355,86.6101695 68.8135593,82.4250795 68.8135593,77.2623671 L68.8135593,71.2750943 L61.7105963,1.3445157 Z" id="Path" fill="#FFD551"></path>
                <path d="M17.7964173,77.2623671 L17.7964173,71.2750943 L25.1431712,0 L15.6516457,0 L8.30508475,71.2750943 L8.30508475,77.2623671 C8.30508475,82.4248896 12.5545207,86.6101695 17.7966102,86.6101695 L27.2881356,86.6101695 C22.0458533,86.6101695 17.7964173,82.4248896 17.7964173,77.2623671 Z" id="Path" fill="#F9BB32"></path>
                <path d="M59.1904477,33.220339 C58.523009,33.220339 57.951232,32.7614171 57.882338,32.1454693 L56.9559979,23.8587701 C56.8824963,23.2017724 57.4092946,22.6151175 58.1326824,22.5483616 C58.8543149,22.4830006 59.5020069,22.9600563 59.5752892,23.6170539 L60.5016292,31.9037531 C60.5751309,32.5607508 60.0483325,33.1474057 59.3249448,33.2141616 C59.2799662,33.2185455 59.2349875,33.220339 59.1904477,33.220339 Z" id="Path" fill="#FCE575"></path>
                <path d="M63.0206204,67.6271186 C62.4905127,67.6271186 62.0360599,67.188495 61.9813234,66.5997908 L59.3274726,38.0382096 C59.2690753,37.4102712 59.6876181,36.8495642 60.2623518,36.7857609 C60.8362139,36.7210054 61.3502842,37.1792462 61.4085072,37.8071846 L64.062358,66.3687658 C64.1207552,66.9967043 63.7022124,67.5574112 63.1274787,67.6212145 C63.0917431,67.6252141 63.0560074,67.6271186 63.0206204,67.6271186 Z" id="Path" fill="#FCE575"></path>
                <path d="M80.7112969,45.0847458 C80.3523428,45.0847458 79.9970453,44.9402467 79.7563206,44.6626074 C79.3374393,44.1795784 79.4249941,43.4768214 79.9519476,43.0926699 C83.3927873,40.5855368 84.3581238,26.947135 84.1582309,18.9393548 C84.142792,18.3224407 84.6758398,17.8109215 85.3488533,17.7966102 C86.0238982,17.786528 86.5799011,18.2712329 86.59534,18.8879608 C86.5965589,18.9415893 86.7241328,24.3295793 86.2083522,30.1108449 C85.4841466,38.2273718 83.9337576,43.0459311 81.4688179,44.8419278 C81.244751,45.0054203 80.9770082,45.0847458 80.7112969,45.0847458 Z" id="Path" fill="#E58D23"></path>
                <circle id="Oval" fill="#F9BB32" cx="33.8135593" cy="77.7118644" r="2.96610169"></circle>
                <circle id="Oval" fill="#F9BB32" cx="26.6949153" cy="62.2881356" r="2.96610169"></circle>
                <circle id="Oval" fill="#F9BB32" cx="24.3220339" cy="74.1525424" r="2.96610169"></circle>
            </g>
            <g id="TEA-BAG-CUP" transform="translate(0.000000, 40.000000)">
                <path d="M63.5138083,13 C65.0093176,16.1160224 63.7699261,20.6508141 60.3237524,23.8551082 C56.3658397,27.5351799 50.9979556,28.066292 48.3338677,25.0413409 C45.6934392,22.0430689 46.7021924,16.6779308 50.5735745,13 L44.308451,13 C43.3078049,14.6476827 42.6023229,16.4271141 42.2517328,18.2449174 C41.513657,22.0699127 42.4161908,25.7692527 44.7278687,28.3941817 C47.0395465,31.0191107 50.5320463,32.310413 54.3096178,31.936576 C57.6078784,31.6103332 60.9024992,30.0561921 63.5866066,27.5603769 C66.2708795,25.0643969 68.1039084,21.8507158 68.748339,18.5110499 C69.1164669,16.6034928 69.0762624,14.727226 68.6570102,13 L63.5138083,13 L63.5138083,13 Z" id="Path" fill="#FCDA4F"></path>
                <path d="M68.2719992,10.5735807 C65.9603408,7.97217071 62.4678703,6.69260146 58.690496,7.06276256 C55.3922631,7.3862455 52.0976701,8.92662492 49.4134197,11.400078 C46.7293348,13.873531 44.8961559,17.0585813 44.2517307,20.368161 C43.5136611,24.1588849 44.4161873,27.8250793 46.7278457,30.4264893 C49.0395041,33.0278993 52.5319746,34.3076318 56.3095143,33.9371443 C59.6077473,33.6138245 62.9023403,32.0736083 65.5864252,29.6001553 C68.2706756,27.126539 70.103689,23.941652 70.7481143,20.631909 C71.4865148,16.8411851 70.5838231,13.1749907 68.2719992,10.5735807 Z M62.3237639,25.9282485 C58.3658844,29.5753473 52.9980455,30.1017007 50.3339799,27.1038528 C47.6699144,24.1060048 48.7188633,18.7190835 52.6765774,15.0719847 C56.6344569,11.424886 62.0024613,10.8985325 64.6665268,13.8963805 C67.3305924,16.8942285 66.281478,22.2811497 62.3237639,25.9282485 Z" id="Shape" fill="#FFF4C1"></path>
                <path d="M59.597277,28.0008118 C56.1649916,29.8431055 52.3966081,29.6723306 50.3041046,27.2851053 C47.6525353,24.2602326 48.696564,18.8247497 52.6357137,15.1447733 C56.5750281,11.4647969 61.917853,10.9336986 64.5694223,13.9585713 C65.1596113,14.6319546 65.5656957,15.4252262 65.7985437,16.2916164 C66.4206794,14.1153482 66.8305512,11.8340132 67,9.47692459 C64.7667009,7.6189861 61.795336,6.7479848 58.6215878,7.06335018 C55.3388257,7.38974923 52.0596866,8.94385006 49.3880271,11.4397653 C46.7165324,13.9355159 44.8919523,17.1491138 44.2505499,20.4886932 C43.5159423,24.3135894 44.4142351,28.0128336 46.7150503,30.6376945 C48.2376195,32.3747567 50.2751221,33.5270343 52.568527,34 C55.196548,32.4286076 57.5681727,30.3964359 59.597277,28.0008118 Z" id="Path" fill="#FCE575"></path>
                <path d="M42.3823529,41 L23.6176471,41 C22.7242206,41 22,40.2411864 22,39.3050847 L22,31 L44,31 L44,39.3050847 C44,40.2411864 43.2757794,41 42.3823529,41 Z" id="Path" fill="#FCDA4F"></path>
                <path d="M58.358209,3 L6.64179104,3 C5.73502985,3 5,3.7310316 5,4.63286041 L5,8.62308139 C5,25.3997424 17.3122836,39 32.5,39 C47.6878806,39 60,25.3997424 60,8.62308139 L60,4.63286041 C60,3.7310316 59.2649701,3 58.358209,3 Z" id="Path" fill="#FFF4C1"></path>
                <path d="M42.9625069,33 C42.5336991,33 42.1427651,32.7141695 42.0307487,32.2837536 C41.8981906,31.774285 42.2064764,31.2549546 42.7196977,31.1221397 C42.7532384,31.1132323 44.7461031,30.5695658 47.1255689,28.661166 C49.3301093,26.8930569 52.3322449,23.5526414 54.1145574,17.6796754 C54.2678176,17.1749785 54.8051112,16.8888299 55.3141599,17.040732 C55.8233691,17.1926342 56.1120761,17.7248483 55.9589763,18.2295452 C52.2245616,30.5339364 43.570252,32.8759333 43.2037112,32.9696196 C43.1228283,32.9901383 43.0419454,33 42.9625069,33 Z" id="Path" fill="#FCF9DE"></path>
                <path d="M41.2865997,37.3669763 C26.2827834,37.3669763 14.1197391,23.766882 14.1197391,6.99022098 L14.1197391,3 L7.62394782,3 C6.72704144,3 6,3.7310316 6,4.63286041 L6,8.62308139 C6,25.3997424 18.1630444,39 33.1668606,39 C36.2593445,39 39.2305194,38.4209877 42,37.3566893 C41.7629036,37.363384 41.5251577,37.3669763 41.2865997,37.3669763 Z" id="Path" fill="#FCE575"></path>
                <path d="M25.6622105,12.2245776 C25.2979474,11.9251408 24.7018947,11.9251408 24.3376316,12.2245776 L19.5133158,16.1893741 C19.1839474,16.4600586 19,16.8206535 19,17.1955451 L19,28.9093196 C19,29.5116878 19.6198947,30 20.3845789,30 L29.6154211,30 C30.3801053,30 31,29.5116878 31,28.9093196 L31,17.1955451 C31,16.8204946 30.8160526,16.4600586 30.4866842,16.1893741 L25.6622105,12.2245776 Z" id="Path" fill="#FCE575"></path>
                <path d="M27.6622105,10.2245776 C27.2979474,9.92514082 26.7018947,9.92514082 26.3376316,10.2245776 L21.5133158,14.1893741 C21.1839474,14.4600586 21,14.8206535 21,15.1955451 L21,26.9093196 C21,27.5116878 21.6198947,28 22.3845789,28 L31.6154211,28 C32.3801053,28 33,27.5116878 33,26.9093196 L33,15.1955451 C33,14.8204946 32.8160526,14.4600586 32.4866842,14.1893741 L27.6622105,10.2245776 Z" id="Path" fill="#EACF32"></path>
                <path d="M31,26 C30.4478333,26 30,25.5521667 30,25 L30,18 C30,17.4478333 30.4478333,17 31,17 C31.5521667,17 32,17.4478333 32,18 L32,25 C32,25.5521667 31.5521667,26 31,26 Z" id="Path" fill="#FCDA4F"></path>
                <path d="M24.6025709,26.9091968 L24.6025709,15.1941041 C24.6025709,14.8190115 24.7925247,14.4585349 25.1329676,14.1878199 L29,11.1112974 L27.8871331,10.2259135 C27.5085356,9.9246955 26.8888934,9.9246955 26.5101322,10.2259135 L21.5303967,14.1878199 C21.1901175,14.4585349 21,14.8191703 21,15.1941041 L21,26.9091968 C21,27.5116328 21.6404389,28 22.4303844,28 L26.0329553,28 C25.2430098,28 24.6025709,27.5116328 24.6025709,26.9091968 Z" id="Path" fill="#CCC033"></path>
                <path d="M27,13 C26.4476,13 26,12.4740482 26,11.8253012 L26,1.1746988 C26,0.525951807 26.4476,0 27,0 C27.5524,0 28,0.525951807 28,1.1746988 L28,11.8253012 C28,12.4740482 27.5524,13 27,13 Z" id="Path" fill="#8C4C17"></path>
                <g id="Group" transform="translate(0.000000, 37.000000)">
                    <path d="M53.1136098,10 L15.3607409,10 C14.465852,10 13.740446,9.25384577 13.740446,8.33336111 L13.740446,4.0001 L54.7339046,4.0001 L54.7339046,8.33336111 C54.7339046,9.25384577 54.0084986,10 53.1136098,10 Z" id="Path" fill="#FFD551"></path>
                    <path d="M20.2216253,7.50004167 L54.7339046,7.50004167 L54.7339046,4.0001 L13.740446,4.0001 L13.740446,8.33336111 C13.740446,9.25384577 14.465852,10 15.3607409,10 L20.2216253,10 L20.2216253,7.50004167 Z" id="Path" fill="#FFC34C"></path>
                    <path d="M59.6113161,6.33339444 L8.38877433,6.33339444 C7.40088059,6.33339444 6.43955968,6.0377327 5.64885582,5.49057516 L0.4598617,1.90046833 C-0.419310262,1.29214513 0.0463624655,0 1.14476031,0 L66.855168,0 C67.9535659,0 68.4194007,1.29214513 67.5400667,1.90046833 L62.3510725,5.49057516 C61.5605307,6.0377327 60.5992098,6.33339444 59.6113161,6.33339444 Z" id="Path" fill="#FFD551"></path>
                </g>
                <circle id="Oval" fill="#FCE575" cx="19.5" cy="8.5" r="2.5"></circle>
                <circle id="Oval" fill="#FCE575" cx="37.5" cy="19.5" r="2.5"></circle>
            </g>
        </g>
    </g>
</svg>