<?xml version="1.0" encoding="UTF-8"?>
<svg width="150px" height="150px" viewBox="0 0 150 150" version="1.1" xmlns="http://www.w3.org/2000/svg" xmlns:xlink="http://www.w3.org/1999/xlink">
    <title>Artboard</title>
    <g id="Artboard" stroke="none" stroke-width="1" fill="none" fill-rule="evenodd">
        <g id="COFFE-BEANS" transform="translate(27.867457, 39.500000)" fill-rule="nonzero">
            <ellipse id="Oval" fill="#A56021" transform="translate(27.589719, 31.504265) rotate(-72.470981) translate(-27.589719, -31.504265) " cx="27.5897188" cy="31.504265" rx="26.5482719" ry="20.5478247"></ellipse>
            <path d="M15.3583507,26.3884873 C19.3308174,14.3329643 29.4150923,6.3384275 39.1325435,6.81712061 C38.0072331,6.13994035 36.7936943,5.5943864 35.4970936,5.20179329 C24.7038116,1.93361278 12.2940013,10.3916038 7.77904883,24.0935034 C3.26409632,37.7954031 8.3535274,51.5521629 19.1466107,54.8203434 C20.4434101,55.2129365 21.763459,55.4346631 23.0904627,55.5 C14.8494474,50.5408689 11.385884,38.4440103 15.3583507,26.3884873 Z" id="Path" fill="#8C4C17"></path>
            <path d="M20.2804148,57.5 C19.5569834,57.5 18.8612553,57.1099022 18.5184014,56.4369309 C14.574305,48.6946076 16.2477069,42.7091578 18.3464833,39.0512981 C20.6012632,35.1214593 23.8003156,33.0304891 23.9352959,32.9433335 C23.9419761,32.9389375 23.9488529,32.9345415 23.9557296,32.9303366 C30.4169038,28.876454 34.1356402,24.4577028 35.0083948,19.7969801 C35.9141577,14.9607994 33.3951151,11.582755 33.3693765,11.549116 C32.7235538,10.7008779 32.9068677,9.50401728 33.7788364,8.87557946 C34.6506086,8.24733278 35.8811494,8.42546661 36.5271686,9.27370476 C36.6727587,9.46502661 40.081846,14.0343888 38.8740966,20.4819926 C37.7995592,26.2201192 33.5016061,31.4859618 26.1000889,36.1333053 C25.6155745,36.4526847 16.0435664,42.9710069 22.0388916,54.739499 C22.5206553,55.6854049 22.1231806,56.8319981 21.1508117,57.3006507 C20.8710273,57.4359712 20.5735598,57.5 20.2804148,57.5 Z" id="Path" fill="#8C4C17"></path>
            <circle id="Oval" fill="#8C4C17" cx="27.1325435" cy="50.5" r="3"></circle>
            <ellipse id="Oval" fill="#E58D23" transform="translate(60.355417, 40.852770) rotate(-59.308437) translate(-60.355417, -40.852770) " cx="60.3554167" cy="40.8527702" rx="20.1520013" ry="27.0719628"></ellipse>
            <path d="M54.4978025,51.5869771 C43.0464805,45.2698969 37.165226,34.2732356 39.8898682,25.5 C38.9366447,26.3773982 38.0981852,27.3646342 37.3973623,28.4620812 C31.5644612,37.5965326 37.3867286,50.8218412 50.40161,58.0015874 C63.4164913,65.1813337 78.6959557,63.5966091 84.5288568,54.4621577 C85.2296797,53.3647107 85.760363,52.2077759 86.1325435,51.0098151 C79.1520022,57.4350549 65.9491245,57.9040573 54.4978025,51.5869771 Z" id="Path" fill="#BF6C0D"></path>
            <path d="M77.0119072,55.5 C71.2214827,55.5 67.2093628,53.2730084 64.6845048,51.121086 C61.1758651,48.130576 59.7758759,44.6702229 59.7178285,44.5244226 C59.7148052,44.5170665 59.7119835,44.5097105 59.7091618,44.5023545 C57.0694183,37.5886272 53.4241255,33.1295513 48.8748661,31.2486704 C44.1583175,29.2989447 40.1115306,30.8369213 39.9414196,30.9031255 C38.9199475,31.3161951 37.7388452,30.87389 37.2974435,29.9176058 C36.8560418,28.9613216 37.3319091,27.8490518 38.3535827,27.4357937 C38.5845628,27.3426173 44.0722543,25.1823958 50.4109038,27.760025 C56.0519773,30.0537867 60.4555136,35.254313 63.4991699,43.2171236 C63.7140257,43.7418539 68.172586,54.1538461 81.6560981,51.1937032 C82.7410595,50.9556696 83.82461,51.5850819 84.0787687,52.5992713 C84.3331289,53.613272 83.6607472,54.6284045 82.5769951,54.8664381 C80.5642839,55.3079887 78.7110014,55.5 77.0119072,55.5 Z" id="Path" fill="#A56021"></path>
            <circle id="Oval" fill="#BF6C0D" cx="75.1325435" cy="34.5" r="3"></circle>
            <circle id="Oval" fill="#BF6C0D" cx="79.1325435" cy="44.5" r="3"></circle>
        </g>
    </g>
</svg>