<?xml version="1.0" encoding="UTF-8"?>
<svg width="150px" height="150px" viewBox="0 0 150 150" version="1.1" xmlns="http://www.w3.org/2000/svg" xmlns:xlink="http://www.w3.org/1999/xlink">
    <title>Artboard</title>
    <g id="Artboard" stroke="none" stroke-width="1" fill="none" fill-rule="evenodd">
        <g id="Group-35" transform="translate(37.000000, 49.000000)" fill-rule="nonzero">
            <path d="M42.1008228,51.9726841 C80.0809546,48.5885095 76.9177552,19.7345671 74.9757201,10.718421 C74.647732,9.19598472 72.6519912,8.56318957 70.574733,9.32014273 C58.0235922,13.8928222 19.0390367,30.2304999 38.2094002,50.7838633 C39.0479118,51.6823502 40.4765463,52.1173771 42.1008228,51.9726841 Z" id="Path" fill="#CCC033"></path>
            <path d="M76,13.1390898 C75.8637632,12.2304411 75.7166757,11.4177897 75.5759177,10.7233134 C75.2666722,9.1965427 73.3849766,8.56194596 71.4264217,9.32105419 C66.0504929,11.4041663 55.5316245,15.9223811 47.3459622,22.165381 L47.3459622,22.165381 C47.3459622,22.165381 47.3459622,22.165381 47.3459622,22.165381 C47.1976691,22.27817 47.0502801,22.3922263 46.903494,22.5062827 C46.883601,22.521807 46.8640094,22.5373313 46.8441164,22.5525389 C46.7163191,22.6523381 46.5894259,22.7524543 46.4631356,22.8528872 C46.4357074,22.874748 46.4085806,22.8966088 46.3814538,22.9181528 C46.2633015,23.0122492 46.1460535,23.1069793 46.0291068,23.2020263 C45.9965547,23.2283226 45.9640025,23.2552526 45.931149,23.2818657 C45.8193263,23.3731108 45.7084078,23.4646727 45.5977907,23.5565514 C45.5640329,23.5847486 45.5302751,23.6129459 45.4965174,23.6411432 C45.3862017,23.7333387 45.2767903,23.825851 45.1676803,23.9186802 C45.1354295,23.945927 45.1031788,23.9734906 45.070928,24.0010542 C44.9597081,24.096418 44.8490911,24.1920986 44.7387754,24.288096 C44.7101416,24.313125 44.6815077,24.3378372 44.6531753,24.3625494 C44.5371329,24.4642497 44.4219947,24.5665835 44.3077607,24.6689174 C44.2860593,24.6885604 44.263755,24.7078867 44.2420536,24.7275297 C44.1100365,24.8460215 43.9792251,24.965147 43.8496192,25.0845894 C43.8466052,25.0874408 43.8435911,25.0899754 43.840577,25.0928268 C43.4321679,25.4692127 43.0346096,25.8513014 42.6488063,26.2375088 C42.633133,26.2533499 42.6177612,26.2691911 42.6020879,26.2850322 C42.4932793,26.394653 42.3850735,26.5045907 42.2780734,26.6148451 C42.2503437,26.6433592 42.2232169,26.6718733 42.1957887,26.7003874 C42.1011463,26.7989194 42.0068054,26.8977682 41.91367,26.996617 C41.8811179,27.0311507 41.8491685,27.0656844 41.8169178,27.100535 C41.730112,27.193681 41.6436077,27.2871438 41.558309,27.3809235 C41.5233455,27.4192591 41.4886835,27.4579115 41.4540215,27.4962471 C41.3717369,27.5874921 41.2903565,27.6787372 41.2095789,27.7702991 C41.174314,27.8102188 41.1387478,27.8504553 41.1037844,27.8906919 C41.0242124,27.9819369 40.9452433,28.0734988 40.8671784,28.1653775 C40.8334206,28.2049804 40.7996628,28.2445833 40.765905,28.2841862 C40.6866345,28.3779659 40.6085696,28.4723792 40.5311075,28.5667925 C40.499761,28.6051281 40.4684145,28.64283 40.4373693,28.6811656 C40.3565918,28.7803313 40.2773212,28.8798137 40.1983521,28.979613 C40.1721295,29.0125626 40.1453041,29.045829 40.119383,29.0790955 C40.0289603,29.1944191 39.9400447,29.3103764 39.8520333,29.4266505 C39.8390727,29.4437589 39.8258107,29.4605505 39.8128501,29.4779758 C39.6060837,29.7523446 39.4059482,30.0286144 39.2133479,30.3071019 C39.2103338,30.3112206 39.2076211,30.3153394 39.2049084,30.3194581 C39.1144858,30.450306 39.0255702,30.5817876 38.938463,30.713586 C38.9173644,30.7455852 38.8968686,30.7779011 38.8757699,30.8102171 C38.8073501,30.9144519 38.7398345,31.0190035 38.6735246,31.123872 C38.6470006,31.1656926 38.6213808,31.2078301 38.5951583,31.2499676 C38.5354793,31.3456482 38.4767046,31.4416456 38.4188341,31.5379598 C38.3908031,31.5845328 38.3633749,31.6314227 38.3356452,31.6783125 C38.2813916,31.7701912 38.2277409,31.8623867 38.1752957,31.9545823 C38.1469633,32.0043235 38.1189323,32.0543815 38.0912026,32.1044396 C38.0408674,32.1947342 37.9911349,32.2850288 37.9426081,32.3753234 C37.9151798,32.4266487 37.8877516,32.4776573 37.8606248,32.5289826 C37.8130022,32.6192772 37.7665853,32.7098886 37.7204697,32.8005 C37.6945486,32.8515086 37.6686274,32.9028339 37.643309,32.9538424 C37.5974949,33.0466716 37.552585,33.1398176 37.5085793,33.2329636 C37.4853708,33.2820712 37.4615595,33.3311788 37.4389538,33.3802864 C37.3937425,33.4778679 37.3500382,33.5757663 37.3069367,33.6739814 C37.2870437,33.7192871 37.2665479,33.764276 37.2469564,33.8095817 C37.1996352,33.9192025 37.1544238,34.0291402 37.1095139,34.1390778 C37.0959505,34.172661 37.0814829,34.2062443 37.0679195,34.2398275 C36.9515757,34.530988 36.8442741,34.8237326 36.7457134,35.1183781 C36.7363697,35.1462585 36.7279303,35.174139 36.718888,35.2023362 C36.6803077,35.3198776 36.6426316,35.4377358 36.6070653,35.5559109 C36.5932005,35.602167 36.5805413,35.6484232 36.5669779,35.6946794 C36.5377413,35.7951123 36.508806,35.8955453 36.4819806,35.9966118 C36.4678144,36.0498381 36.4545524,36.1033812 36.4406876,36.1569243 C36.4165749,36.250704 36.3927636,36.3448005 36.3707608,36.4392138 C36.3571974,36.4968756 36.3445382,36.5548542 36.3315776,36.612516 C36.3113832,36.7031274 36.2917916,36.7940557 36.2734057,36.8849839 C36.2613493,36.9445467 36.2498958,37.0044262 36.2384423,37.0643058 C36.2215634,37.1542836 36.2052873,37.2439445 36.1902168,37.3342391 C36.1799689,37.3950692 36.1700224,37.4558992 36.1606788,37.5170461 C36.146814,37.6070238 36.1338534,37.6973184 36.121797,37.787613 C36.113659,37.8484431 36.1055209,37.9092731 36.0979857,37.97042 C36.0868336,38.0622987 36.0771885,38.1541774 36.0681462,38.2460561 C36.0621181,38.3056189 36.0557885,38.3648648 36.0506645,38.4244275 C36.0422251,38.5207418 36.0358955,38.6173728 36.0295659,38.7143207 C36.025949,38.7697648 36.0217293,38.8252088 36.0187152,38.8806529 C36.0129884,38.9880559 36.0096729,39.0957758 36.0066588,39.2034956 C36.0054532,39.2484845 36.0030419,39.2934734 36.0021377,39.3384623 C35.9967123,39.6457807 36.0015349,39.9546833 36.0175096,40.2648531 C36.0196194,40.3079411 36.0235377,40.3513459 36.0262504,40.3947506 C36.0331828,40.5059555 36.0404166,40.6174773 36.0500617,40.728999 C36.0548843,40.786344 36.0615153,40.843689 36.067242,40.9007172 C36.0771885,40.9989323 36.087135,41.0974643 36.09889,41.1959963 C36.1064252,41.2587273 36.1154674,41.3214583 36.1242083,41.3841893 C36.1368675,41.4776521 36.1501295,41.5714318 36.1648985,41.6652114 C36.1751464,41.7307938 36.1865999,41.7963762 36.1980535,41.8622754 C36.2140281,41.9541541 36.2303042,42.045716 36.2480873,42.1375947 C36.2610479,42.2044444 36.2749127,42.2716109 36.2887775,42.3387774 C36.3077663,42.4300225 36.3279607,42.5212675 36.3487579,42.6128294 C36.3641298,42.6803127 36.3801044,42.7477961 36.3966819,42.8155962 C36.4192876,42.9074749 36.4430989,42.9996705 36.4678144,43.091866 C36.4855975,43.1590325 36.5036821,43.226199 36.5226708,43.2936823 C36.5488934,43.3871452 36.5769244,43.4809248 36.6055583,43.5747044 C36.6257527,43.6409205 36.6453442,43.7071365 36.6664429,43.7736694 C36.697488,43.8709341 36.730643,43.9685156 36.7637979,44.0657803 C36.785198,44.1285113 36.8056938,44.1912423 36.827998,44.2539733 C36.8665784,44.3623268 36.90757,44.4706803 36.948863,44.5793506 C36.968756,44.6316264 36.9874433,44.6839022 37.0079391,44.7361781 C37.0694265,44.8926887 37.1336266,45.0495161 37.2008408,45.2066604 C37.2029507,45.2114128 37.2047591,45.2158483 37.2065676,45.2206006 C37.276193,45.3824973 37.3494354,45.5447107 37.4253904,45.707241 C37.4498045,45.7595168 37.4763285,45.8117926 37.5013455,45.8640684 C37.5543934,45.9743229 37.6074414,46.0848942 37.663202,46.1954654 C37.6951514,46.2588301 37.7292106,46.3225115 37.7623655,46.386193 C37.8145093,46.4863091 37.866653,46.5864252 37.921208,46.6865413 C37.9582813,46.7543414 37.9968617,46.8227752 38.0348392,46.8908922 C38.08849,46.9865728 38.1424421,47.0825702 38.1985042,47.1785676 C38.2397972,47.249536 38.2822959,47.3205044 38.3247945,47.3914728 C38.381158,47.4855692 38.4384257,47.5799825 38.496899,47.6743958 C38.5415075,47.7463147 38.5870202,47.8182335 38.6328344,47.8901524 C38.6928148,47.9842489 38.7540008,48.0783453 38.816091,48.1727586 C38.8637136,48.2446775 38.9116376,48.3169132 38.9604658,48.388832 C39.0249673,48.483879 39.0909759,48.5792427 39.1575872,48.6746065 C39.2076211,48.7458917 39.2573536,48.8171769 39.3085931,48.8887789 C39.3779171,48.9857268 39.4496524,49.0826747 39.5213878,49.1799394 C39.5732301,49.2502741 39.624771,49.320292 39.677819,49.3906268 C39.7543768,49.4916933 39.8333459,49.5930768 39.9123151,49.6941433 C39.963856,49.7603594 40.0144927,49.8262586 40.0672392,49.8924746 C40.1567577,50.00463 40.2492902,50.117419 40.3418227,50.2298913 C40.3873355,50.2853353 40.4316426,50.3407794 40.4780595,50.3962234 C40.6188175,50.5644565 40.7625895,50.7330064 40.9105813,50.9018731 C40.9805081,50.9817126 41.0567646,51.056166 41.1357337,51.1280849 C41.1713,51.1607176 41.2089761,51.1911327 41.2460494,51.2221813 C41.2873424,51.2560814 41.3292382,51.2893478 41.3723397,51.321347 C41.4235792,51.3596826 41.4754215,51.3977013 41.5293737,51.4335024 C41.553185,51.4490267 41.5782019,51.4632837 41.6023147,51.4784912 C41.7689938,51.5830429 41.9438109,51.6790403 42.1315886,51.7591965 C42.9438856,51.8453724 43.7718558,51.9210932 44.6197189,51.9831905 C44.9991927,52.0110709 45.3654045,52.0021999 45.7207656,51.9717849 C45.8365066,51.9587951 45.9555631,51.9477063 46.0707013,51.9340829 C47.2745283,51.7636321 48.2957016,51.2598833 48.9615138,50.4687759 C56.5449612,41.4557913 55.6609289,33.2804871 50.7645417,26.267607 C58.9483956,20.0284089 69.4600302,15.5120951 74.8338491,13.4296166 C75.2302017,13.2762742 75.6223347,13.1824946 76,13.1390898 Z" id="Path" fill="#99AF17"></path>
            <path d="M35.6076957,51.8956517 C-6.93323178,44.732776 -0.853961643,11.9229811 2.12116826,1.75338716 C2.62354965,0.0360902336 4.92934363,-0.516823872 7.20660356,0.530449729 C20.9642648,6.85800729 63.5100491,28.9593229 40.0999871,50.8685062 C39.0764039,51.826728 37.4271966,52.2018435 35.6076957,51.8956517 Z" id="Path" fill="#EACF32"></path>
            <path d="M12.0412257,1.83452045 C11.023704,1.34564758 10.0887337,0.90953517 9.25863412,0.53045284 C6.96523567,-0.516826903 4.64248564,0.0360904452 4.13647651,1.75339744 C1.13986297,11.923051 -4.98330604,44.7330384 37.8651185,51.8956511 C39.6974524,52.2018447 41.3585688,51.826727 42.389849,50.8684996 C43.3743501,49.9538834 44.240222,49.0389623 45,48.1246511 C8.0246445,41.152342 9.2711697,14.3844939 12.0412257,1.83452045 Z" id="Path" fill="#CCC033"></path>
            <path d="M43.0445462,45 C42.503583,45 41.9655545,44.7974796 41.5788261,44.4001481 L28.4916901,30.9581887 C27.775297,30.2225325 27.850621,29.0981438 28.6596202,28.4469947 C29.4686195,27.7958456 30.7051068,27.8640443 31.4211739,28.5997005 L44.5083099,42.0416599 C45.224703,42.7773161 45.149379,43.9017048 44.3403798,44.5528539 C43.9683249,44.852335 43.5056204,45 43.0445462,45 Z" id="Path" fill="#FCDA4F"></path>
        </g>
    </g>
</svg>