<?xml version="1.0" encoding="UTF-8"?>
<svg width="150px" height="150px" viewBox="0 0 150 150" version="1.1" xmlns="http://www.w3.org/2000/svg" xmlns:xlink="http://www.w3.org/1999/xlink">
    <title>Artboard</title>
    <g id="Artboard" stroke="none" stroke-width="1" fill="none" fill-rule="evenodd">
        <g id="CHOCOLATE" transform="translate(48.000000, 29.000000)" fill-rule="nonzero">
            <path d="M45.9659807,0 L26.2798054,0 C25.3314975,0 24.5924882,0.806954458 24.6712781,1.74602537 C24.6971374,2.05362782 24.7104711,2.36464361 24.7104711,2.67887195 C24.7104711,6.8817012 22.3843492,10.5428128 18.9428443,12.4647257 C18.4860646,12.7197226 18.1844405,13.1871498 18.1426212,13.7061787 C17.6510931,19.7959843 12.5246954,24.5861093 6.27079326,24.5861093 C5.77785098,24.5861093 5.29197959,24.5557908 4.81499732,24.4971616 C3.85052746,24.3786985 3,25.1236105 3,26.0893858 L3,84.9846126 C3,86.6499224 4.35841963,88 6.03401934,88 L45.9659807,88 C47.6415804,88 49,86.6499224 49,84.9846126 L49,3.01538742 C49,1.35007758 47.6415804,0 45.9659807,0 Z" id="Path" fill="#BF6C0D"></path>
            <path d="M45.9659807,2 L26.2798054,2 C25.3314975,2 24.5924882,2.80695446 24.6712781,3.74602537 C24.6971374,4.05362782 24.7104711,4.36464361 24.7104711,4.67887195 C24.7104711,8.8817012 22.3843492,12.5428128 18.9428443,14.4647257 C18.4860646,14.7197226 18.1844405,15.1871498 18.1426212,15.7061787 C17.6510931,21.7959843 12.5246954,26.5861093 6.27079326,26.5861093 C5.77785098,26.5861093 5.29197959,26.5557908 4.81499732,26.4971616 C3.85052746,26.3786985 3,27.1236105 3,28.0893858 L3,86.9846126 C3,88.6499224 4.35841963,90 6.03401934,90 L45.9659807,90 C47.6415804,90 49,88.6499224 49,86.9846126 L49,5.01538742 C49,3.35007758 47.6415804,2 45.9659807,2 Z" id="Path" fill="#A56021"></path>
            <path d="M12.9880437,86.9844187 L12.9880437,28.0893263 C12.9880437,27.1235532 13.828985,26.3786429 14.7821583,26.4971057 C15.2536526,26.5557348 15.733734,26.5860532 16.2212044,26.5860532 C22.4031514,26.5860532 27.4705666,21.7959391 27.9564394,15.7061474 C27.9979772,15.1871197 28.2959313,14.7198943 28.7474554,14.4646973 C32.1493635,12.542588 34.4487219,8.88148471 34.4487219,4.67886584 C34.4487219,4.36463821 34.4355416,4.05362313 34.4099799,3.74602139 C34.3318968,2.80675183 35.0626031,2 36,2 L28.0119563,2 C27.0745594,2 26.3440528,2.80695262 26.4219362,3.74602139 C26.4474979,4.05362313 26.4606782,4.36463821 26.4606782,4.67886584 C26.4606782,8.88168549 24.1613198,12.5427888 20.7594117,14.4646973 C20.3078875,14.7198943 20.0099335,15.1871197 19.9683957,15.7061474 C19.4825229,21.7959391 14.4151077,26.5860532 8.23316069,26.5860532 C7.74589002,26.5860532 7.2658086,26.5557348 6.79411462,26.4971057 C5.8409413,26.3786429 5,27.1235532 5,28.0893263 L5,86.9844187 C5,88.6497247 6.34279015,90 7.99911101,90 L15.9871547,90 C14.3308338,90 12.9880437,88.6497247 12.9880437,86.9844187 Z" id="Path" fill="#8C4C17"></path>
            <path d="M36,13.2824241 L36,5.71757588 C36,4.7690446 36.7690446,4 37.7175759,4 L45.2824241,4 C46.2309554,4 47,4.7690446 47,5.71757588 L47,13.2824241 C47,14.2309554 46.2309554,15 45.2824241,15 L37.7175759,15 C36.7690446,15 36,14.2309554 36,13.2824241 Z" id="Path" fill="#BF6C0D"></path>
            <path d="M36,29.2824241 L36,21.7175759 C36,20.7690446 36.7690446,20 37.7175759,20 L45.2824241,20 C46.2309554,20 47,20.7690446 47,21.7175759 L47,29.2824241 C47,30.2309554 46.2309554,31 45.2824241,31 L37.7175759,31 C36.7690446,31 36,30.2311701 36,29.2824241 Z" id="Path" fill="#BF6C0D"></path>
            <path d="M23,42.2824241 L23,34.7175759 C23,33.7690446 23.7690446,33 24.7175759,33 L32.2824241,33 C33.2309554,33 34,33.7690446 34,34.7175759 L34,42.2824241 C34,43.2309554 33.2309554,44 32.2824241,44 L24.7175759,44 C23.7690446,44 23,43.2309554 23,42.2824241 Z" id="Path" fill="#BF6C0D"></path>
            <path d="M36,42.2824241 L36,34.7175759 C36,33.7690446 36.7690446,33 37.7175759,33 L45.2824241,33 C46.2309554,33 47,33.7690446 47,34.7175759 L47,42.2824241 C47,43.2309554 46.2309554,44 45.2824241,44 L37.7175759,44 C36.7690446,44 36,43.2309554 36,42.2824241 Z" id="Path" fill="#BF6C0D"></path>
            <path d="M22,27.493441 L22,21.5063707 C22,20.6744775 22.6744775,20 23.5063707,20 L29.4936293,20 C30.3255225,20 31,20.6744775 31,21.5063707 L31,27.4936293 C31,28.3255225 30.3255225,29 29.4936293,29 L23.5063707,29 C22.6744775,28.9998117 22,28.3255225 22,27.493441 Z" id="Path" fill="#BF6C0D"></path>
            <path d="M7,42.2824241 L7,34.7175759 C7,33.7690446 7.7690446,33 8.71757588,33 L16.2824241,33 C17.2309554,33 18,33.7690446 18,34.7175759 L18,42.2824241 C18,43.2309554 17.2309554,44 16.2824241,44 L8.71757588,44 C7.7690446,44 7,43.2309554 7,42.2824241 Z" id="Path" fill="#BF6C0D"></path>
            <path d="M7,55.2824241 L7,47.7175759 C7,46.7690446 7.7690446,46 8.71757588,46 L16.2824241,46 C17.2309554,46 18,46.7690446 18,47.7175759 L18,55.2824241 C18,56.2309554 17.2309554,57 16.2824241,57 L8.71757588,57 C7.7690446,57 7,56.2309554 7,55.2824241 Z" id="Path" fill="#BF6C0D"></path>
            <path d="M32.280096,4 L27.0469592,4 C26.6916426,7.04418854 25.1969514,9.73970918 23,11.6494389 L23,13.2802772 C23,14.2298819 23.7698884,15 24.7196893,15 L32.2803107,15 C33.2301116,15 34,14.2300966 34,13.2802772 L34,5.71972285 C33.9995706,4.76990339 33.2296823,4 32.280096,4 Z" id="Path" fill="#BF6C0D"></path>
            <path d="M8.71972285,29 L16.2802772,29 C17.2300966,29 18,28.3417365 18,27.5296457 L18,21.0654103 C18,20.6455975 17.7932468,20.2678211 17.4632575,20 C15.4764516,23.2992107 11.567893,25.6113933 7,25.8533317 L7,27.5296457 C7,28.341553 7.76990339,29 8.71972285,29 Z" id="Path" fill="#BF6C0D"></path>
            <path d="M0.768586847,55.1605203 L50.8360429,28.1779901 C51.8130227,27.6514949 53,28.3562192 53,29.4627583 L53,89.2612258 C53,90.7737757 51.7690977,92 50.2507777,92 L2.74922232,92 C1.23090227,92 0,90.7737757 0,89.2612258 L0,56.4450887 C0,55.9088029 0.295039471,55.4156757 0.768586847,55.1605203 Z" id="Path" fill="#FF624B"></path>
            <ellipse id="Oval" fill="#FFD59A" cx="28.5" cy="73.5" rx="16.5" ry="7.5"></ellipse>
            <path d="M49,88 C47.8956667,88 47,87.4462249 47,86.7634348 L47,69.2365652 C47,68.5537751 47.8956667,68 49,68 C50.1043333,68 51,68.5537751 51,69.2365652 L51,86.7634348 C51,87.446431 50.1043333,88 49,88 Z" id="Path" fill="#FF9079"></path>
            <path d="M8.02282721,89.2612258 L8.02282721,56.4452885 C8.02282721,55.9088029 8.31786668,55.4156757 8.79141406,55.1605203 L53,31.3355628 L53,29.4627583 C53,28.3562192 51.8130227,27.6514949 50.8360429,28.1779901 L0.768586847,55.1605203 C0.295039471,55.4156757 0,55.9090027 0,56.4452885 L0,89.2612258 C0,90.7737757 1.23090227,92 2.74922232,92 L10.7720495,92 C9.25372948,92 8.02282721,90.7737757 8.02282721,89.2612258 Z" id="Path" fill="#FF4B34"></path>
            <path d="M53,29.4603617 L53,34.485433 L0,63 L0,56.398909 C0,55.8633296 0.294907463,55.3706364 0.768322094,55.1161115 L50.8390816,28.1773648 C51.8149608,27.6523573 53,28.3558912 53,29.4603617 Z" id="Path" fill="#FFD59A"></path>
            <path d="M53,33 L22,50.905295 L44.661403,58.9011988 C45.6514796,59.2506363 46.714866,58.6413553 46.97618,57.5751655 L53,33 Z" id="Path" fill="#FF4B34"></path>
            <path d="M53,26 L22,43.905295 L44.661403,51.9011988 C45.6514796,52.2506363 46.714866,51.6413553 46.97618,50.5751655 L53,26 Z" id="Path" fill="#FFEACF"></path>
            <path d="M49,68 C47.8956667,68 47,67.4385373 47,66.7462687 L47,62.2537313 C47,61.5612537 47.8956667,61 49,61 C50.1043333,61 51,61.5612537 51,62.2537313 L51,66.7462687 C51,67.4387463 50.1043333,68 49,68 Z" id="Path" fill="#FF9079"></path>
            <circle id="Oval" fill="#FF4B34" cx="14" cy="61" r="2"></circle>
            <circle id="Oval" fill="#FF4B34" cx="23" cy="57" r="2"></circle>
            <path d="M17.9997853,21.0652484 C17.9997853,20.6454271 17.7930361,20.2678265 17.463268,20 C16.657526,21.3382149 15.5357561,22.5134209 14.1812593,23.4547605 C14.1761066,23.4582483 14.170954,23.4619197 14.1658014,23.4654075 C13.8609376,23.6766949 13.5444804,23.8758669 13.2170739,24.0625561 C13.2063393,24.0686139 13.1958193,24.0746716 13.1850847,24.0809129 C12.8581076,24.2661336 12.5206105,24.4386881 12.1734523,24.5976585 C12.1648645,24.6015134 12.1567062,24.6055519 12.1481185,24.6094069 C12.0330432,24.6619075 11.9168944,24.712756 11.7994574,24.7623195 C11.7923726,24.7652566 11.7852877,24.7681937 11.7782028,24.7711308 C11.425892,24.9190871 11.064564,25.0532757 10.694863,25.1733295 C10.6736084,25.1801216 10.6525685,25.1869136 10.6313139,25.1935221 C10.272777,25.3080689 9.90694043,25.408848 9.53380436,25.4954924 C9.50739714,25.5017337 9.48120462,25.5077915 9.45458272,25.5138492 C9.08166133,25.5982908 8.70208447,25.668414 8.31649621,25.7236681 C8.29137716,25.7273395 8.26647279,25.7311944 8.24156843,25.7346822 C8.11554376,25.7521212 7.98887501,25.7680917 7.86156218,25.7822265 C7.8430986,25.7842457 7.82463502,25.7860814 7.80617144,25.7879171 C7.54939886,25.815636 7.29026466,25.8369299 7.02898353,25.8512483 C7.01932235,25.851799 7.00966118,25.8527168 7,25.8532675 L7,27.5296157 C7,28.3415395 7.76988836,29 8.71968928,29 L11.3183309,29 L11.3183309,27.2511422 C11.3183309,26.3681774 12.2224022,25.687138 13.2471309,25.7954434 C13.7540206,25.8490454 14.2701421,25.8767643 14.7942072,25.8767643 C15.9022367,25.8767643 16.9759154,25.7524884 18,25.5239455 L18,21.0652484 L17.9997853,21.0652484 Z" id="Path" fill="#A56021"></path>
            <path d="M34,5.71965572 C34,4.76987333 33.2300966,4 32.2802772,4 L27.0470382,4 C27.0459647,4.00966099 27.0440324,4.01910729 27.0429589,4.02876827 C27.0217039,4.20674513 26.9970138,4.38364854 26.9682444,4.55926381 C26.9676003,4.56269883 26.9671709,4.56613385 26.9667415,4.56956887 C26.9064116,4.93303667 26.8293354,5.29070789 26.7372304,5.64258251 C26.7325071,5.66061635 26.7277837,5.67865019 26.7230604,5.69668404 C26.6307407,6.04233269 26.5233922,6.38197006 26.401659,6.7147374 C26.394574,6.73405937 26.3872743,6.75338135 26.3799746,6.77270332 C26.3228652,6.92599098 26.2631795,7.07799051 26.2000586,7.22848723 C26.1949058,7.24115385 26.1897531,7.25382048 26.1846004,7.26627242 C26.1152532,7.43007983 26.042471,7.59216972 25.9662535,7.75211273 C25.9621743,7.76070028 25.9576657,7.76928782 25.9535864,7.77787536 C25.8840246,7.92257548 25.811457,8.0653434 25.7363131,8.20682319 C25.7221431,8.23344458 25.7081878,8.25985128 25.6940178,8.28625798 C25.5325656,8.58510451 25.3588758,8.87643695 25.1735923,9.15918184 C25.155343,9.18709136 25.1366644,9.2145715 25.1179858,9.24248102 C25.0389773,9.36077444 24.9580365,9.47756504 24.8751635,9.59285282 C24.8579877,9.61689794 24.8410266,9.64115776 24.8236362,9.66498819 C24.7250903,9.79981264 24.623968,9.93270488 24.5200547,10.0630209 C24.50567,10.0810547 24.4906412,10.0988739 24.4760418,10.1169077 C24.3865131,10.2279017 24.2948375,10.3371782 24.2014443,10.4447372 C24.1743925,10.475867 24.1475554,10.5069969 24.1200742,10.5379121 C24.017449,10.6538439 23.913321,10.7680582 23.8064019,10.879911 C23.7997463,10.8869957 23.7933054,10.8942951 23.7864351,10.9013799 C23.6728603,11.0196733 23.5560652,11.1349611 23.4377672,11.2485313 C23.4079243,11.2770849 23.377652,11.3052091 23.3475944,11.333548 C23.2518396,11.4235025 23.1547965,11.5119543 23.0560359,11.5986884 C23.0371426,11.6154342 23.019108,11.6330386 23,11.6495696 L23,13.2803443 C23,14.229912 23.7699034,15 24.7197228,15 L28.6733678,15 C28.6995608,14.7969046 28.7212452,14.5923063 28.7377769,14.3862053 C28.7824339,13.8312352 29.1027618,13.3316549 29.5881917,13.0587856 C31.4034547,12.0388001 32.9260857,10.5602397 34,8.78068583 L34,5.71965572 Z" id="Path" fill="#A56021"></path>
            <path d="M45.280096,17 L40.0469592,17 C39.6916426,20.0441885 38.1969514,22.7397092 36,24.6494389 L36,26.2802772 C36,27.2298819 36.7698884,28 37.7196893,28 L45.2803107,28 C46.2301116,28 47,27.2300966 47,26.2802772 L47,18.7197228 C46.9995706,17.7699034 46.2296823,17 45.280096,17 Z" id="Path" fill="#BF6C0D"></path>
            <path d="M27,20 L24.9616257,20 C23.8783179,20 23,20.758015 23,21.6929425 L23,24 C24.6408999,22.9306952 26.0098694,21.5676648 27,20 Z" id="Path" fill="#A56021"></path>
        </g>
    </g>
</svg>