<?xml version="1.0" encoding="UTF-8"?>
<svg width="150px" height="150px" viewBox="0 0 150 150" version="1.1" xmlns="http://www.w3.org/2000/svg" xmlns:xlink="http://www.w3.org/1999/xlink">
    <title>Artboard</title>
    <g id="Artboard" stroke="none" stroke-width="1" fill="none" fill-rule="evenodd">
        <g id="TEA-BAG-CUP" transform="translate(5.000000, 29.000000)" fill-rule="nonzero">
            <path d="M125.589099,25.3448276 C128.530459,31.4807338 126.09283,40.4104053 119.314915,46.7201314 C111.530515,53.9667336 100.972991,55.0125714 95.7332774,49.055998 C90.5400976,43.1519597 92.5241077,32.587214 100.13832,25.3448276 L87.8161105,25.3448276 C85.8480454,28.589357 84.4605074,32.0933191 83.7709687,35.672841 C82.3193254,43.2048191 84.0944238,50.4893633 88.6410188,55.6582344 C93.1876138,60.8271054 100.056643,63.3698696 107.486349,62.6337295 C113.97335,61.9913094 120.453191,58.9309771 125.732279,54.0163501 C131.011692,49.1013987 134.616882,42.773188 135.884345,36.1968949 C136.608377,32.4406346 136.529303,28.7459895 135.70472,25.3448276 L125.589099,25.3448276 L125.589099,25.3448276 Z" id="Path" fill="#FCDA4F"></path>
            <path d="M134.634583,20.3043605 C130.088027,15.187922 123.219055,12.6712723 115.789737,13.3993031 C109.302791,14.0355276 102.823004,17.0651371 97.5436352,21.9299107 C92.264592,26.7946843 88.6591061,33.0590232 87.3916542,39.5682861 C85.9400231,47.0238606 87.7151066,54.2345111 92.2616634,59.3509496 C96.8082202,64.4673882 103.677191,66.9843588 111.106835,66.255686 C117.593781,65.6197826 124.073568,62.590494 129.352612,57.7257204 C134.63198,52.8606259 138.237141,46.5966079 139.504593,40.0870241 C140.956875,32.6314496 139.181466,25.420799 134.634583,20.3043605 Z M122.935628,50.5038349 C115.151292,57.6769283 104.593857,58.7121572 99.3541878,52.8160067 C94.1145187,46.9198562 96.1775855,36.3248897 103.961595,29.1517963 C111.745931,21.9787029 122.303691,20.9434739 127.543361,26.8396245 C132.78303,32.735775 130.719637,43.3307415 122.935628,50.5038349 Z" id="Shape" fill="#FFF4C1"></path>
            <path d="M118.386018,54.5801407 C111.722135,58.2035537 104.405708,57.8676746 100.343052,53.1724932 C95.1949524,47.2231905 97.2219646,36.5327133 104.869939,29.2949564 C112.518233,22.0571995 122.891484,21.0126383 128.039583,26.961941 C129.185452,28.2863475 129.973877,29.8465495 130.425958,31.5505609 C131.633853,27.270289 132.429631,22.7833721 132.758621,18.1474634 C128.422605,14.4932805 122.653613,12.7802 116.491688,13.4004588 C110.11811,14.0424187 103.751565,17.0990154 98.5644605,22.0079675 C93.3776753,26.9165957 89.8351998,33.237082 88.5898982,39.805348 C87.1636362,47.3281324 88.9076979,54.603785 93.3747978,59.7663469 C96.3309105,63.1827909 100.286781,65.449084 104.739494,66.3793103 C109.841874,63.2887046 114.446452,59.2918407 118.386018,54.5801407 Z" id="Path" fill="#FCE575"></path>
            <path d="M83.7018256,80.862069 L46.643002,80.862069 C44.8785548,80.862069 43.4482759,79.3967738 43.4482759,77.5891292 L43.4482759,61.5517241 L86.8965517,61.5517241 L86.8965517,77.5891292 C86.8965517,79.3967738 85.4662728,80.862069 83.7018256,80.862069 Z" id="Path" fill="#FCDA4F"></path>
            <path d="M116.24035,6.03448276 L14.1044776,6.03448276 C12.3136953,6.03448276 10.862069,7.48044087 10.862069,9.2642306 L10.862069,17.1567654 C10.862069,50.3404866 35.1778641,77.2413793 65.1724138,77.2413793 C95.1672877,77.2413793 119.482759,50.3404866 119.482759,17.1567654 L119.482759,9.2642306 C119.482759,7.48044087 118.031132,6.03448276 116.24035,6.03448276 Z" id="Path" fill="#FFF4C1"></path>
            <path d="M85.1842809,65.1724138 C84.3340586,65.1724138 83.5589308,64.5902805 83.3368294,63.7136792 C83.0739987,62.676076 83.685255,61.6183882 84.7028489,61.3478922 C84.769352,61.3297511 88.7207218,60.2224993 93.4386279,56.3357798 C97.8096995,52.7347819 103.76221,45.931565 107.296105,33.9704595 C107.599983,32.9425748 108.665307,32.3597936 109.674627,32.6691633 C110.684266,32.9785329 111.256703,34.0624605 110.953143,35.0903453 C103.5487,60.1499351 86.3892927,64.9197349 85.6625309,65.1105399 C85.5021596,65.1523291 85.3417883,65.1724138 85.1842809,65.1724138 Z" id="Path" fill="#FCF9DE"></path>
            <path d="M81.8647782,74.0113085 C52.1876895,74.0113085 28.1295605,47.1107387 28.1295605,13.9270176 L28.1295605,6.03448276 L15.2810845,6.03448276 C13.5070312,6.03448276 12.0689655,7.48044087 12.0689655,9.2642306 L12.0689655,17.1567654 C12.0689655,50.3404866 36.1270944,77.2413793 65.8041832,77.2413793 C71.9210214,77.2413793 77.7979143,76.0961107 83.2758621,73.9909611 C82.8068927,74.0042031 82.3366385,74.0113085 81.8647782,74.0113085 Z" id="Path" fill="#FCE575"></path>
            <path d="M50.8147913,24.5896675 C50.082078,23.9873522 48.8831216,23.9873522 48.1504083,24.5896675 L38.4463249,32.564833 C37.7838022,33.1093132 37.4137931,33.8346478 37.4137931,34.5887401 L37.4137931,58.1509301 C37.4137931,59.3625904 38.6607078,60.3448276 40.1988657,60.3448276 L58.7666515,60.3448276 C60.3048094,60.3448276 61.5517241,59.3625904 61.5517241,58.1509301 L61.5517241,34.5887401 C61.5517241,33.8343282 61.1817151,33.1093132 60.5191924,32.564833 L50.8147913,24.5896675 Z" id="Path" fill="#FCE575"></path>
            <path d="M54.4354809,20.9689778 C53.7027677,20.3666626 52.5038113,20.3666626 51.771098,20.9689778 L42.0670145,28.9441433 C41.4044918,29.4886235 41.0344828,30.2139581 41.0344828,30.9680504 L41.0344828,54.5302405 C41.0344828,55.7419007 42.2813975,56.7241379 43.8195554,56.7241379 L62.3873412,56.7241379 C63.9254991,56.7241379 65.1724138,55.7419007 65.1724138,54.5302405 L65.1724138,30.9680504 C65.1724138,30.2136386 64.8024047,29.4886235 64.139882,28.9441433 L54.4354809,20.9689778 Z" id="Path" fill="#EACF32"></path>
            <path d="M60.9482759,51.8965517 C59.9486638,51.8965517 59.137931,51.0557918 59.137931,50.0191571 L59.137931,36.8773946 C59.137931,35.8407599 59.9486638,35 60.9482759,35 C61.9478879,35 62.7586207,35.8407599 62.7586207,36.8773946 L62.7586207,50.0191571 C62.7586207,51.0557918 61.9478879,51.8965517 60.9482759,51.8965517 Z" id="Path" fill="#FCDA4F"></path>
            <path d="M48.0998697,54.5299936 L48.0998697,30.965152 C48.0998697,30.2106553 48.4724083,29.4855586 49.1400874,28.9410171 L56.7241379,22.7526098 L54.5415757,20.9716651 C53.7990677,20.3657668 52.5838212,20.3657668 51.8409921,20.9716651 L42.0747004,28.9410171 C41.4073425,29.4855586 41.0344828,30.2109748 41.0344828,30.965152 L41.0344828,54.5299936 C41.0344828,55.7417902 42.2905159,56.7241379 43.8397625,56.7241379 L50.9051495,56.7241379 C49.3559028,56.7241379 48.0998697,55.7417902 48.0998697,54.5299936 Z" id="Path" fill="#CCC033"></path>
            <path d="M53.1034483,26.5517241 C51.770069,26.5517241 50.6896552,25.477499 50.6896552,24.152472 L50.6896552,2.39925218 C50.6896552,1.07422518 51.770069,0 53.1034483,0 C54.4368276,0 55.5172414,1.07422518 55.5172414,2.39925218 L55.5172414,24.152472 C55.5172414,25.477499 54.4368276,26.5517241 53.1034483,26.5517241 Z" id="Path" fill="#8C4C17"></path>
            <g id="Group" transform="translate(0.000000, 73.620690)">
                <path d="M105.580807,19.3103448 L30.5345356,19.3103448 C28.7556491,19.3103448 27.3136656,17.8694953 27.3136656,16.0920077 L27.3136656,7.72433103 L108.801677,7.72433103 L108.801677,16.0920077 C108.801677,17.8694953 107.359693,19.3103448 105.580807,19.3103448 Z" id="Path" fill="#FFD551"></path>
                <path d="M40.1971456,14.4828391 L108.801677,14.4828391 L108.801677,7.72433103 L27.3136656,7.72433103 L27.3136656,16.0920077 C27.3136656,17.8694953 28.7556491,19.3103448 30.5345356,19.3103448 L40.1971456,19.3103448 L40.1971456,14.4828391 Z" id="Path" fill="#FFC34C"></path>
                <path d="M118.497139,12.2300031 L16.675454,12.2300031 C14.7116896,12.2300031 12.8007474,11.65907 11.2289629,10.60249 L0.914126706,3.66986987 C-0.833517356,2.4951768 0.0921606818,0 2.27558845,0 L132.896683,0 C135.080111,0 136.006111,2.4951768 134.258145,3.66986987 L123.943309,10.60249 C122.371846,11.65907 120.460904,12.2300031 118.497139,12.2300031 Z" id="Path" fill="#FFD551"></path>
            </g>
            <circle id="Oval" fill="#FCE575" cx="38.6206897" cy="16.8965517" r="4.82758621"></circle>
            <circle id="Oval" fill="#FCE575" cx="74.8275862" cy="38.6206897" r="4.82758621"></circle>
        </g>
    </g>
</svg>