<svg height="477pt" viewBox="-135 0 477 477.332" width="477pt" xmlns="http://www.w3.org/2000/svg"><path d="m164.96875 282.625h-122.023438v-213.820312c0-3.3125 2.683594-6 6-6h110.023438c3.3125 0 6 2.6875 6 6zm0 0" fill="#ffeacf"/><path d="m79.675781 62.804688h-30.609375c-3.382812 0-6.121094 2.742187-6.121094 6.125v213.695312h30.609376v-213.695312c0-3.382813 2.738281-6.125 6.121093-6.125zm0 0" fill="#ffd59a"/><path d="m152.753906 477.332031h-97.59375c-7.765625 0-14.296875-5.8125-15.199218-13.523437l-16.117188-137.617188h160.226562l-16.117187 137.617188c-.902344 7.710937-7.4375 13.523437-15.199219 13.523437zm0 0" fill="#ffeacf"/><path d="m80.769531 463.808594-16.113281-137.617188h-40.8125l16.117188 137.617188c.902343 7.710937 7.433593 13.523437 15.199218 13.523437h40.8125c-7.765625 0-14.296875-5.8125-15.203125-13.523437zm0 0" fill="#ffd59a"/><path d="m63.085938 16.042969h81.742187v46.761719h-81.742187zm0 0" fill="#ffeacf"/><path d="m173.574219 307.789062h-139.234375v-21.164062c0-2.207031 1.789062-4 4-4h131.234375c2.210937 0 4 1.792969 4 4zm0 0" fill="#f9bb32"/><path d="m203.746094 326.152344h-199.582032c-2.207031 0-4-1.792969-4-4v-10.363282c0-2.207031 1.792969-4 4-4h199.582032c2.207031 0 4 1.792969 4 4v10.363282c0 2.207031-1.792969 4-4 4zm0 0" fill="#db9c2e"/><path d="m144.828125 178.214844v-115.410156h-81.742187v115.410156l-16.507813 53.917968v50.492188h114.757813v-50.492188zm0 0" fill="#ffd59a"/><path d="m45.503906 379.550781 8.8125 75.261719c.480469 4.113281 3.964844 7.214844 8.105469 7.214844h83.066406c4.144531 0 7.625-3.097656 8.109375-7.210938l8.8125-75.265625zm0 0" fill="#a56021"/><path d="m40.976562 321.054688c0-2.253907 1.828126-4.082032 4.082032-4.082032h162.6875v-5.101562c0-2.253906-1.828125-4.082032-4.082032-4.082032h-199.417968c-2.253906 0-4.082032 1.828126-4.082032 4.082032v10.199218c0 2.253907 1.828126 4.082032 4.082032 4.082032h36.730468zm0 0" fill="#bf6c0d"/><path d="m79.230469 282.625h-40.8125c-2.253907 0-4.078125 1.828125-4.078125 4.082031v21.085938h40.808594v-21.085938c0-2.253906 1.828124-4.082031 4.082031-4.082031zm0 0" fill="#db9c2e"/><path d="m45.503906 379.550781 8.8125 75.261719c.480469 4.113281 3.964844 7.214844 8.105469 7.214844h18.140625l-9.65625-82.476563zm0 0" fill="#8c4c17"/><path d="m99.8125 31.347656h45.015625v-15.304687h-81.746094v46.761719h30.609375v-25.335938c0-3.378906 2.742188-6.121094 6.121094-6.121094zm0 0" fill="#ffd59a"/><path d="m93.691406 178.214844v-115.410156h-30.605468v115.410156l-16.507813 53.917968v50.492188h30.609375v-50.492188zm0 0" fill="#ffc34c"/><path d="m161.925781 24.457031h-115.9375c-2.210937 0-4-1.792969-4-4v-16.457031c0-2.210938 1.789063-4 4-4h115.9375c2.207031 0 4 1.789062 4 4v16.457031c0 2.207031-1.792969 4-4 4zm0 0" fill="#ff9079"/><path d="m82.800781 12.242188c0-2.253907 1.828125-4.082032 4.082031-4.082032h79.042969v-4.078125c0-2.253906-1.828125-4.082031-4.082031-4.082031h-115.773438c-2.253906 0-4.082031 1.828125-4.082031 4.082031v16.292969c0 2.253906 1.828125 4.082031 4.082031 4.082031h36.730469zm0 0" fill="#ff624b"/><g fill="#ffeacf"><path d="m118.007812 105.878906c0 7.761719-6.289062 14.054688-14.050781 14.054688s-14.054687-6.292969-14.054687-14.054688c0-7.761718 6.292968-14.050781 14.054687-14.050781s14.050781 6.289063 14.050781 14.050781zm0 0"/><path d="m118.007812 153.496094c0 7.761718-6.289062 14.050781-14.050781 14.050781s-14.054687-6.289063-14.054687-14.050781c0-7.761719 6.292968-14.054688 14.054687-14.054688s14.050781 6.292969 14.050781 14.054688zm0 0"/><path d="m118.007812 201.109375c0 7.761719-6.289062 14.050781-14.050781 14.050781s-14.054687-6.289062-14.054687-14.050781 6.292968-14.054687 14.054687-14.054687 14.050781 6.292968 14.050781 14.054687zm0 0"/><path d="m146.808594 271.390625c-3.3125 0-6-2.6875-6-6v-60.59375c0-3.3125 2.6875-6 6-6s6 2.6875 6 6v60.59375c0 3.3125-2.6875 6-6 6zm0 0"/></g><path d="m139.632812 449.445312c-.257812 0-.515624-.015624-.777343-.046874-3.285157-.425782-5.605469-3.433594-5.183594-6.71875l6.40625-49.613282c.425781-3.285156 3.417969-5.605468 6.71875-5.179687 3.289063.421875 5.605469 3.433593 5.183594 6.71875l-6.40625 49.609375c-.390625 3.023437-2.972657 5.230468-5.941407 5.230468zm0 0" fill="#ffd59a"/><path d="m161.335938 301.207031h-35.953126c-3.3125 0-6-2.6875-6-6s2.6875-6 6-6h35.953126c3.3125 0 6 2.6875 6 6s-2.6875 6-6 6zm0 0" fill="#ffd551"/><path d="m105.207031 348.347656c0 8.453125-6.851562 15.304688-15.304687 15.304688s-15.304688-6.851563-15.304688-15.304688 6.851563-15.304687 15.304688-15.304687 15.304687 6.851562 15.304687 15.304687zm0 0" fill="#ffd59a"/></svg>