<svg height="409pt" viewBox="0 0 409.028 409" width="409pt" xmlns="http://www.w3.org/2000/svg"><path d="m363.679688 133.550781c1.234374 3.191407 1.917968 6.660157 1.917968 10.285157v40.15625c0 2.140624-.605468 4.238281-1.738281 6.054687l-59.058594 94.519531c-4.382812 7.019532-12.078125 11.285156-20.355469 11.285156h-22.859374v-162.300781h-28.574219v190.875h67.273437c8.277344 0 15.96875-4.265625 20.355469-11.285156l71.792969-114.902344c1.132812-1.8125 1.734375-3.914062 1.734375-6.054687v-58.632813zm0 0" fill="#ffdf74"/><path d="m247.871094 104.976562v237.734376h67.273437c8.277344 0 15.96875-4.265626 20.355469-11.285157l71.789062-114.898437c1.136719-1.816406 1.738282-3.917969 1.738282-6.058594v-76.917969c0-15.78125-12.792969-28.574219-28.574219-28.574219zm130.847656 103.359376-59.058594 94.519531c-4.386718 7.015625-12.078125 11.28125-20.355468 11.28125h-22.859376v-180.585938h75.433594c15.78125 0 28.574219 12.792969 28.574219 28.574219v40.152344c0 2.140625-.601563 4.238281-1.734375 6.058594zm0 0" fill="#fff4c1"/><path d="m334.164062 279.640625-14.503906 23.210937c-4.382812 7.019532-12.078125 11.285157-20.355468 11.285157h-22.859376v-180.585938h75.433594c3.144532 0 6.167969.515625 8.992188 1.453125v-30.027344h-113v237.734376h67.273437c7.496094 0 14.503907-3.503907 19.019531-9.378907zm0 0" fill="#fce575"/><path d="m298.011719.015625h-280.867188c-9.46875 0-17.144531 7.675781-17.144531 17.140625v130.445312c0 5.199219.886719 10.359376 2.621094 15.257813l24.089844 68.03125v135.820313h261.738281v-135.820313h1.097656l23.183594-68.285156c1.605469-4.734375 2.425781-9.699219 2.425781-14.699219v-130.75c0-9.46875-7.675781-17.140625-17.144531-17.140625zm0 0" fill="#fff4c1"/><path d="m275.566406 112.5h-4.757812c-7.941406-44.171875-46.542969-77.699219-93-77.699219-46.460938 0-85.0625 33.527344-93 77.699219h-12.6875c-7.257813 0-13.144532 5.886719-13.144532 13.144531v9.046875c0 7.261719 5.886719 13.144532 13.144532 13.144532h12.988281c8.609375 43.335937 46.832031 76.007812 92.699219 76.007812 45.863281 0 84.089844-32.671875 92.695312-76.007812h5.066406c7.257813 0 13.144532-5.882813 13.144532-13.144532v-9.046875c-.003906-7.257812-5.886719-13.144531-13.148438-13.144531zm0 0" fill="#ffd59a"/><path d="m130.828125 147.835938h-12.988281c-7.257813 0-13.144532-5.882813-13.144532-13.144532v-9.046875c0-7.257812 5.886719-13.144531 13.144532-13.144531h12.6875c6.589844-36.675781 34.328125-65.992188 70.140625-74.894531-7.324219-1.820313-14.972657-2.804688-22.859375-2.804688-46.460938 0-85.0625 33.527344-93 77.699219h-12.6875c-7.257813 0-13.144532 5.886719-13.144532 13.144531v9.046875c0 7.261719 5.886719 13.144532 13.144532 13.144532h12.988281c8.609375 43.335937 46.832031 76.007812 92.699219 76.007812 7.886718 0 15.535156-.988281 22.859375-2.808594-35.265625-8.761718-62.710938-37.3125-69.839844-73.199218zm0 0" fill="#ffc34c"/><path d="m59.769531 162.859375c-1.734375-4.898437-2.621093-10.058594-2.621093-15.257813v-130.445312c0-9.464844 7.675781-17.140625 17.144531-17.140625h-57.148438c-9.46875 0-17.144531 7.675781-17.144531 17.140625v130.445312c0 5.199219.886719 10.359376 2.621094 15.257813l24.089844 68.03125v135.824219h57.144531v-135.824219zm0 0" fill="#fce575"/><path d="m260.445312 408.050781h-205.738281c-15.464843 0-28-12.535156-28-28v-28.195312h261.738281v28.195312c0 15.464844-12.535156 28-28 28zm0 0" fill="#ffa730"/><path d="m49.566406 265.855469v80.75c0 11.105469 7.675782 20.109375 17.144532 20.109375h181.730468c9.46875 0 17.144532-9.003906 17.144532-20.109375v-80.75zm0 0" fill="#ffd59a"/><path d="m286.320312 148.597656h-257.382812c-3.40625 0-5.917969 3.347656-4.792969 6.5625.007813.023438.015625.046875.027344.070313l25.394531 71.734375v38.890625h216.019532v-39.726563l7.578124-18.097656 17.917969-52.773438c.019531-.054687.035157-.105468.054688-.160156 1.058593-3.207031-1.4375-6.5-4.816407-6.5zm0 0" fill="#a56021"/><path d="m242.230469 348.710938c-3.3125 0-6-2.6875-6-6v-104.390626c0-3.3125 2.6875-6 6-6 3.316406 0 6 2.6875 6 6v104.390626c0 3.3125-2.683594 6-6 6zm0 0" fill="#fff4c1"/><path d="m241.585938 217.273438c-.675782 0-1.359376-.117188-2.03125-.355469-3.121094-1.121094-4.738282-4.558594-3.617188-7.679688l18.046875-50.167969c1.121094-3.117187 4.558594-4.734374 7.675781-3.613281 3.121094 1.121094 4.738282 4.558594 3.617188 7.679688l-18.046875 50.167969c-.878907 2.445312-3.1875 3.96875-5.644531 3.96875zm0 0" fill="#bf6c0d"/><path d="m259.632812 129.4375c-3.3125 0-6-2.6875-6-6v-92.375c0-3.3125 2.6875-6 6-6s6 2.6875 6 6v92.375c0 3.3125-2.6875 6-6 6zm0 0" fill="#fcf9de"/><g fill="#bf6c0d"><path d="m132.507812 91.925781c-1.609374 0-3.210937-.644531-4.394531-1.914062l-20.191406-21.714844c-2.257813-2.429687-2.117187-6.226563.308594-8.480469 2.425781-2.257812 6.222656-2.117187 8.480469.308594l20.191406 21.71875c2.253906 2.425781 2.117187 6.222656-.308594 8.476562-1.15625 1.074219-2.621094 1.605469-4.085938 1.605469zm0 0"/><path d="m175.925781 53.265625c-.152343 0-.300781-.003906-.453125-.015625l-36.53125-2.71875c-3.304687-.246094-5.785156-3.125-5.539062-6.429688.246094-3.304687 3.136718-5.792968 6.429687-5.539062l36.53125 2.71875c3.304688.246094 5.785157 3.125 5.539063 6.429688-.234375 3.15625-2.867188 5.554687-5.976563 5.554687zm0 0"/><path d="m173.660156 101.449219c-1.808594 0-3.589844-.808594-4.773437-2.355469-2.011719-2.632812-1.507813-6.398438 1.125-8.410156l26.667969-20.382813c2.636718-2.011719 6.398437-1.507812 8.414062 1.125 2.011719 2.632813 1.507812 6.398438-1.125 8.410157l-26.667969 20.382812c-1.089843.832031-2.371093 1.230469-3.640625 1.230469zm0 0"/><path d="m230.5 63.269531c-.894531 0-1.800781-.199219-2.652344-.621093l-29.121094-14.386719c-2.972656-1.46875-4.191406-5.066407-2.722656-8.039063 1.46875-2.96875 5.066406-4.1875 8.035156-2.71875l29.121094 14.386719c2.972656 1.46875 4.191406 5.066406 2.722656 8.039063-1.042968 2.117187-3.171874 3.339843-5.382812 3.339843zm0 0"/></g><path d="m113.382812 178.628906c0 9.679688-7.84375 17.527344-17.523437 17.527344s-17.527344-7.847656-17.527344-17.527344c0-9.679687 7.847657-17.527344 17.527344-17.527344s17.523437 7.847657 17.523437 17.527344zm0 0" fill="#8c4c17"/><path d="m124.242188 292.871094c0 9.679687-7.847657 17.527344-17.527344 17.527344-9.679688 0-17.523438-7.847657-17.523438-17.527344 0-9.679688 7.84375-17.527344 17.523438-17.527344 9.679687 0 17.527344 7.847656 17.527344 17.527344zm0 0" fill="#ffc34c"/><path d="m159.292969 328.136719c0 9.679687-7.847657 17.527343-17.527344 17.527343s-17.523437-7.847656-17.523437-17.527343c0-9.679688 7.84375-17.523438 17.523437-17.523438s17.527344 7.84375 17.527344 17.523438zm0 0" fill="#ffc34c"/><path d="m24.144531 155.160156c.007813.023438.015625.046875.027344.070313l25.394531 71.734375v38.890625h34.289063v-34.964844l-24.085938-68.03125c-1.625-4.585937-2.496093-9.398437-2.601562-14.261719h-28.230469c-3.40625 0-5.917969 3.347656-4.792969 6.5625zm0 0" fill="#8c4c17"/><path d="m49.566406 265.855469v80.75c0 11.105469 7.675782 20.109375 17.144532 20.109375h17.144531v-100.859375zm0 0" fill="#ffc34c"/></svg>