<svg height="425pt" viewBox="-56 0 425 425.974" width="425pt" xmlns="http://www.w3.org/2000/svg"><path d="m72.488281 177.257812h33.664063v-120c0-11.046874-8.953125-20-20-20h-13.664063c-11.046875 0-20 8.953126-20 20v100c0 11.042969 8.953125 20 20 20zm0 0" fill="#8c4c17"/><path d="m241.152344 37.308594h-13.664063c-11.046875 0-20 8.953125-20 20v17.414062c21.644531 16.097656 35.664063 41.871094 35.664063 70.917969v31.5625c10.109375-1 18-9.527344 18-19.898437v-100c0-11.042969-8.953125-19.996094-20-19.996094zm0 0" fill="#8c4c17"/><path d="m273.722656 153.230469c0 15.78125-12.789062 28.570312-28.570312 28.570312-15.777344 0-28.570313-12.789062-28.570313-28.570312 0-15.777344 12.792969-28.570313 28.570313-28.570313 15.78125 0 28.570312 12.792969 28.570312 28.570313zm0 0" fill="#ffeacf"/><path d="m93.722656 153.230469c0 15.78125-12.789062 28.570312-28.570312 28.570312-15.777344 0-28.570313-12.789062-28.570313-28.570312 0-15.777344 12.792969-28.570313 28.570313-28.570313 15.78125 0 28.570312 12.792969 28.570312 28.570313zm0 0" fill="#ffd59a"/><path d="m313.152344 425.972656h-312.664063v-41.832031c0-52.46875 42.53125-95 95-95h122.664063c52.46875 0 95 42.53125 95 95zm0 0" fill="#ffc34c"/><path d="m64.488281 404.140625c0-52.46875 42.53125-95 95-95h116.976563c-16.097656-12.53125-36.332032-20-58.3125-20h-122.664063c-52.46875 0-95 42.53125-95 95v41.832031h64zm0 0" fill="#ffb74b"/><path d="m156.820312 346.640625c-23.933593 0-43.332031-19.402344-43.332031-43.332031v-103.335938h86.664063v103.335938c0 23.929687-19.398438 43.332031-43.332032 43.332031zm0 0" fill="#ffeacf"/><path d="m225.957031 387.949219c-9.726562-1.558594-16.347656-10.707031-14.789062-20.429688l13.625-85.082031c.523437-3.273438 3.601562-5.5 6.871093-4.976562l23.371094 3.742187c3.273438.523437 5.5 3.601563 4.976563 6.875l-13.625 85.082031c-1.558594 9.726563-10.707031 16.347656-20.429688 14.789063zm0 0" fill="#ccc033"/><path d="m88.070312 387.949219c9.726563-1.558594 16.347657-10.707031 14.789063-20.429688l-13.625-85.082031c-.523437-3.273438-3.601563-5.5-6.871094-4.976562l-23.371093 3.742187c-3.269532.523437-5.5 3.601563-4.976563 6.875l13.628906 85.082031c1.554688 9.726563 10.703125 16.347656 20.425781 14.789063zm0 0" fill="#ccc033"/><path d="m85.644531 373.160156-13.628906-85.085937c-.523437-3.269531 1.707031-6.347657 4.976563-6.871094l10.855468-1.738281c-1.316406-1.519532-3.355468-2.34375-5.484375-2.003906l-23.371093 3.742187c-3.269532.523437-5.5 3.601563-4.972657 6.875l13.625 85.082031c1.554688 9.726563 10.703125 16.347656 20.429688 14.789063 2.246093-.359375 4.3125-1.140625 6.164062-2.222657-4.4375-2.601562-7.71875-7.09375-8.59375-12.566406zm0 0" fill="#99af17"/><path d="m269.070312 425.972656h-224.5v-43.332031c0-11.046875 8.953126-20 20-20h184.5c11.046876 0 20 8.953125 20 20zm0 0" fill="#ccc033"/><path d="m104.570312 362.640625h-40c-11.046874 0-20 8.953125-20 20v43.332031h40v-43.332031c0-11.046875 8.953126-20 20-20zm0 0" fill="#99af17"/><path d="m143.488281 303.308594v-103.335938h-30v103.335938c0 23.929687 19.398438 43.332031 43.332031 43.332031 5.273438 0 10.328126-.945313 15-2.667969-16.539062-6.105468-28.332031-22.007812-28.332031-40.664062zm0 0" fill="#ffd59a"/><path d="m156.820312 254.941406c-48.785156 0-88.332031-39.546875-88.332031-88.332031v-44.96875c0-48.785156 39.546875-88.332031 88.332031-88.332031 48.785157 0 88.332032 39.546875 88.332032 88.332031v44.96875c0 48.785156-39.546875 88.332031-88.332032 88.332031zm0 0" fill="#ffeacf"/><path d="m99.488281 155.488281v-43.847656c0-3.34375.1875-6.644531.550781-9.894531.5625-5.027344 4.871094-8.796875 9.929688-8.796875h130.417969c-11.914063-34.703125-44.824219-59.640625-83.566407-59.640625-3.792968 0-7.527343.246094-11.191406.707031.003906 0 .007813-.003906.015625-.007813-.285156.035157-.558593.089844-.84375.125-.929687.128907-1.859375.261719-2.78125.417969-.445312.074219-.886719.160157-1.332031.242188-.816406.152343-1.628906.308593-2.4375.480469-.46875.101562-.933594.207031-1.398438.316406-.789062.179687-1.570312.375-2.347656.574218-.457031.121094-.914062.238282-1.367187.363282-.804688.226562-1.605469.464844-2.402344.710937-.40625.125-.8125.246094-1.21875.375-.953125.3125-1.898437.644531-2.839844.984375-.234375.082032-.46875.160156-.699219.246094-1.171874.4375-2.328124.894531-3.472656 1.378906-.300781.128906-.59375.265625-.890625.394532-.835937.363281-1.671875.734374-2.496093 1.125-.414063.195312-.820313.402343-1.230469.601562-.699219.347656-1.398438.695312-2.085938 1.058594-.441406.230468-.871093.464844-1.304687.703125-.65625.359375-1.304688.722656-1.953125 1.097656-.433594.253906-.863281.503906-1.289063.761719-.648437.390625-1.289062.792968-1.925781 1.199218-.402344.257813-.808594.511719-1.207031.777344-.699219.460938-1.390625.945313-2.074219 1.425782-.316406.222656-.640625.4375-.953125.664062-.972656.703125-1.929688 1.425781-2.871094 2.167969-.292968.230469-.578125.472656-.867187.707031-.65625.53125-1.3125 1.066406-1.953125 1.613281-.382813.328125-.757813.667969-1.136719 1.003907-.535156.472656-1.066406.949218-1.589844 1.4375-.394531.367187-.785156.742187-1.171875 1.117187-.492187.472656-.976562.949219-1.457031 1.433594-.390625.394531-.773437.785156-1.152344 1.183593-.46875.492188-.929687.992188-1.386719 1.496094-.367187.402344-.738281.804688-1.097656 1.214844-.46875.535156-.925781 1.082031-1.386718 1.628906-.324219.390625-.65625.773438-.976563 1.167969-.667969.832031-1.320313 1.675781-1.960937 2.53125-.332032.441406-.652344.894531-.976563 1.34375-.449219.621094-.894531 1.242187-1.328125 1.875-.316406.464844-.621094.9375-.925781 1.410156-.363281.546875-.71875 1.101563-1.070313 1.660157-.308594.5-.613281 1.003906-.914062 1.511718-.324219.546875-.644532 1.09375-.957032 1.648438-.296874.519531-.585937 1.042968-.871093 1.570312-.300781.554688-.59375 1.117188-.882813 1.683594-.269531.53125-.542968 1.0625-.804687 1.601562-.285157.585938-.558594 1.179688-.828125 1.769532-.242188.527344-.492188 1.050781-.722656 1.585937-.316407.714844-.609376 1.445313-.902344 2.171875-.320313.792969-.628906 1.59375-.925782 2.398438-.246093.65625-.496093 1.3125-.722656 1.980468h.003906c-3.085937 8.996094-4.773437 18.644532-4.773437 28.691407v43.902343c0 48.597657 38.800781 88.894532 87.398437 89.398438 15.621094.160156 30.320313-3.734375 43.109376-10.699219-3.855469.488281-7.789063.726563-11.785157.699219-48.726562-.324219-87.71875-40.714844-87.71875-89.449219zm0 0" fill="#ffd59a"/><path d="m241.152344 79.945312h-172.636719c-19.332031 0-35-15.667968-35-35v-33.945312c0-6.074219 4.921875-11 11-11h153.636719c23.75 0 43 19.253906 43 43zm0 0" fill="#a56021"/><path d="m110.9375 59.945312c-19.953125 0-36.128906-15.667968-36.128906-35v-24.945312h-29.9375c-6.273438 0-11.355469 4.925781-11.355469 11v33.945312c0 19.332032 16.175781 35 36.128906 35h171.511719v-20zm0 0" fill="#8c4c17"/><path d="m224.484375 51.703125c-3.207031 0-5.867187-2.535156-5.992187-5.769531-.320313-8.1875-2.90625-14.46875-7.691407-18.667969-8.691406-7.632813-22.304687-6.636719-22.4375-6.621094-3.320312.304688-6.21875-2.128906-6.519531-5.429687-.300781-3.300782 2.132812-6.21875 5.433594-6.519532.761718-.070312 18.777344-1.566406 31.441406 9.550782 7.351562 6.457031 11.3125 15.617187 11.761719 27.222656.128906 3.3125-2.449219 6.097656-5.761719 6.226562-.078125.003907-.15625.007813-.234375.007813zm0 0" fill="#bf6c0d"/><path d="m245.152344 420.640625c-3.3125 0-6-2.6875-6-6v-34c0-3.3125 2.6875-6 6-6s6 2.6875 6 6v34c0 3.3125-2.6875 6-6 6zm0 0" fill="#eacf32"/><path d="m300.492188 416.640625c-.195313 0-.394532-.007813-.597657-.03125-3.296875-.324219-5.703125-3.261719-5.378906-6.558594 5.433594-54.929687-17.789063-67.578125-18.023437-67.699219-2.992188-1.425781-4.222657-4.984374-2.800782-7.976562 1.425782-2.992188 5.046875-4.242188 8.039063-2.820312 1.269531.605468 31.070312 15.550781 24.726562 79.675781-.304687 3.097656-2.914062 5.410156-5.964843 5.410156zm0 0" fill="#ffd551"/><path d="m128.820312 388.175781c0 8.46875-6.863281 15.332031-15.332031 15.332031s-15.335937-6.863281-15.335937-15.332031 6.867187-15.335937 15.335937-15.335937 15.332031 6.867187 15.332031 15.335937zm0 0" fill="#99af17"/><path d="m118.820312 29.90625c0 8.46875-6.863281 15.335938-15.332031 15.335938s-15.335937-6.867188-15.335937-15.335938 6.867187-15.332031 15.335937-15.332031 15.332031 6.863281 15.332031 15.332031zm0 0" fill="#8c4c17"/></svg>