<svg height="459pt" viewBox="0 -63 459.014 459" width="459pt" xmlns="http://www.w3.org/2000/svg"><path d="m439.113281 166.5c0-22.910156-12.765625-42.839844-31.570312-53.066406 18.804687-10.222656 31.570312-30.152344 31.570312-53.066406 0-33.335938-27.027343-60.3593755-60.363281-60.3593755-22.910156 0-42.839844 12.7656255-53.0625 31.5703125-10.226562-18.804687-30.15625-31.5703125-53.066406-31.5703125s-42.839844 12.7656255-53.066406 31.5703125c-10.222657-18.804687-30.152344-31.5703125-53.0625-31.5703125-22.914063 0-42.839844 12.7656255-53.066407 31.5703125-10.226562-18.804687-30.152343-31.5703125-53.066406-31.5703125-33.335937 0-60.359375 27.0234375-60.359375 60.3593755 0 22.914062 12.765625 42.84375 31.570312 53.066406-18.800781 10.226562-31.56640575 30.15625-31.56640575 53.066406s12.76562475 42.839844 31.57031275 53.0625c-18.804688 10.226562-31.57031275 30.15625-31.57031275 53.066406 0 33.335938 27.02343775 60.359375 60.35937475 60.359375 22.910157 0 42.839844-12.761719 53.066407-31.566406 10.222656 18.804687 30.152343 31.566406 53.0625 31.566406 22.914062 0 42.84375-12.761719 53.066406-31.566406 10.226562 18.804687 30.15625 31.566406 53.066406 31.566406s42.839844-12.761719 53.0625-31.566406c10.226562 18.804687 30.15625 31.566406 53.066406 31.566406 33.335938 0 60.359375-27.023437 60.359375-60.359375 0-22.910156-12.761719-42.839844-31.566406-53.066406 18.800781-10.222656 31.566406-30.152344 31.566406-53.0625zm-337.625 78.492188c-10.746093 0-19.457031-8.714844-19.457031-19.457032 0-10.746094 8.710938-19.457031 19.457031-19.457031 10.746094 0 19.457031 8.710937 19.457031 19.457031 0 10.742188-8.710937 19.457032-19.457031 19.457032zm1.105469-113.207032c-10.746094 0-19.457031-8.710937-19.457031-19.457031s8.710937-19.457031 19.457031-19.457031 19.457031 8.714844 19.457031 19.457031c0 10.746094-8.710937 19.457031-19.457031 19.457031zm118.289062 113.207032c-10.746093 0-19.457031-8.714844-19.457031-19.457032 0-10.746094 8.710938-19.457031 19.457031-19.457031 10.746094 0 19.457032 8.710937 19.457032 19.457031 0 10.742188-8.710938 19.457032-19.457032 19.457032zm1.105469-113.207032c-10.746093 0-19.457031-8.710937-19.457031-19.457031s8.714844-19.457031 19.457031-19.457031c10.746094 0 19.457031 8.714844 19.457031 19.457031 0 10.746094-8.710937 19.457031-19.457031 19.457031zm118.289063 113.207032c-10.746094 0-19.457032-8.714844-19.457032-19.457032 0-10.746094 8.710938-19.457031 19.457032-19.457031s19.457031 8.710937 19.457031 19.457031c0 10.742188-8.710937 19.457032-19.457031 19.457032zm1.109375-113.207032c-10.746094 0-19.457031-8.710937-19.457031-19.457031s8.710937-19.457031 19.457031-19.457031c10.742187 0 19.457031 8.714844 19.457031 19.457031 0 10.746094-8.710938 19.457031-19.457031 19.457031zm0 0" fill="#bf6c0d"/><path d="m459.011719 166.5c0-22.910156-12.765625-42.839844-31.570313-53.066406 18.804688-10.222656 31.570313-30.152344 31.570313-53.066406 0-33.335938-27.027344-60.3593755-60.363281-60.3593755-22.910157 0-42.839844 12.7656255-53.0625 31.5703125-10.226563-18.804687-30.15625-31.5703125-53.066407-31.5703125-22.910156 0-42.839843 12.7656255-53.066406 31.5703125-10.222656-18.804687-30.152344-31.5703125-53.0625-31.5703125s-42.839844 12.7656255-53.066406 31.5703125c-10.222657-18.804687-30.152344-31.5703125-53.0625-31.5703125-33.335938 0-60.363281 27.0234375-60.363281 60.3593755 0 22.914062 12.765624 42.84375 31.570312 53.066406-18.800781 10.226562-31.566406 30.15625-31.566406 53.066406s12.765625 42.839844 31.570312 53.0625c-18.804687 10.226562-31.570312 30.15625-31.570312 53.066406 0 33.335938 27.023437 60.359375 60.359375 60.359375 22.914062 0 42.839843-12.761719 53.066406-31.566406 10.226563 18.804687 30.152344 31.566406 53.066406 31.566406 22.910157 0 42.839844-12.761719 53.0625-31.566406 10.226563 18.804687 30.15625 31.566406 53.066407 31.566406 22.910156 0 42.839843-12.761719 53.066406-31.566406 10.222656 18.804687 30.152344 31.566406 53.0625 31.566406 33.335937 0 60.363281-27.023437 60.363281-60.359375 0-22.910156-12.765625-42.839844-31.570313-53.066406 18.800782-10.222656 31.566407-30.152344 31.566407-53.0625zm-337.625 78.492188c-10.746094 0-19.457031-8.714844-19.457031-19.457032 0-10.746094 8.710937-19.457031 19.457031-19.457031 10.746093 0 19.457031 8.710937 19.457031 19.457031 0 10.742188-8.710938 19.457032-19.457031 19.457032zm1.105469-113.207032c-10.746094 0-19.457032-8.710937-19.457032-19.457031s8.710938-19.457031 19.457032-19.457031c10.746093 0 19.457031 8.714844 19.457031 19.457031 0 10.746094-8.710938 19.457031-19.457031 19.457031zm118.289062 113.207032c-10.746094 0-19.457031-8.714844-19.457031-19.457032 0-10.746094 8.710937-19.457031 19.457031-19.457031s19.457031 8.710937 19.457031 19.457031c0 10.742188-8.710937 19.457032-19.457031 19.457032zm1.109375-113.207032c-10.746094 0-19.457031-8.710937-19.457031-19.457031s8.710937-19.457031 19.457031-19.457031 19.457031 8.714844 19.457031 19.457031c0 10.746094-8.710937 19.457031-19.457031 19.457031zm118.289063 113.207032c-10.746094 0-19.457032-8.714844-19.457032-19.457032 0-10.746094 8.710938-19.457031 19.457032-19.457031 10.746093 0 19.457031 8.710937 19.457031 19.457031 0 10.742188-8.710938 19.457032-19.457031 19.457032zm1.105468-113.207032c-10.746094 0-19.457031-8.710937-19.457031-19.457031s8.710937-19.457031 19.457031-19.457031c10.742188 0 19.457032 8.714844 19.457032 19.457031 0 10.746094-8.710938 19.457031-19.457032 19.457031zm0 0" fill="#f9bb32"/><path d="m59.699219 259.363281c0-22.914062 12.765625-42.839843 31.570312-53.066406-18.804687-10.226563-31.570312-30.152344-31.570312-53.066406 0-22.910157 12.765625-42.839844 31.570312-53.0625-18.804687-10.226563-31.570312-30.15625-31.570312-53.066407 0-19.011718 8.800781-35.960937 22.539062-47.0273432-.660156-.0195313-1.3125-.0664063-1.976562-.0664063-33.335938 0-60.359375 27.0234375-60.359375 60.3593755 0 22.910156 12.765625 42.839843 31.570312 53.066406-18.804687 10.226562-31.570312 30.15625-31.570312 53.066406s12.765625 42.839844 31.570312 53.0625c-18.804687 10.226562-31.570312 30.15625-31.570312 53.066406 0 33.335938 27.023437 60.359375 60.359375 60.359375 14.320312 0 27.472656-4.984375 37.824219-13.3125-32.421876-1.046875-58.386719-27.640625-58.386719-60.3125zm0 0" fill="#db9c2e"/><path d="m436.464844 80.742188c-.4375 0-.878906-.046876-1.324219-.144532-3.230469-.730468-5.261719-3.941406-4.535156-7.171875 2.980469-13.25 1.484375-23.535156-4.445313-30.570312-11.035156-13.09375-34.253906-12.058594-34.488281-12.054688-3.304687.171875-6.128906-2.371093-6.304687-5.671875-.175782-3.308594 2.351562-6.128906 5.65625-6.3125 1.191406-.066406 29.335937-1.394531 44.269531 16.253906 8.511719 10.0625 10.875 23.855469 7.019531 40.988282-.628906 2.789062-3.105469 4.683594-5.847656 4.683594zm0 0" fill="#ffc34c"/><g fill="#db9c2e"><path d="m116.824219 166.5c0 8.46875-6.867188 15.332031-15.335938 15.332031s-15.332031-6.863281-15.332031-15.332031 6.863281-15.335938 15.332031-15.335938 15.335938 6.867188 15.335938 15.335938zm0 0"/><path d="m194.390625 269.710938c0 8.46875-6.863281 15.335937-15.332031 15.335937s-15.335938-6.867187-15.335938-15.335937 6.867188-15.332032 15.335938-15.332032 15.332031 6.863282 15.332031 15.332032zm0 0"/></g></svg>