<svg height="477pt" viewBox="-92 0 477 477.333" width="477pt" xmlns="http://www.w3.org/2000/svg"><g fill="#ffd59a"><path d="m274.195312 325.316406h-119.886718c-10.191406 0-18.457032-8.265625-18.457032-18.457031v-1.851563c0-10.191406 8.265626-18.453124 18.457032-18.453124h119.886718c10.191407 0 18.453126 8.261718 18.453126 18.453124v1.851563c0 10.191406-8.261719 18.457031-18.453126 18.457031zm0 0"/><path d="m274.195312 364.078125h-119.886718c-10.191406 0-18.457032-8.265625-18.457032-18.457031v-1.851563c0-10.191406 8.265626-18.453125 18.457032-18.453125h119.886718c10.191407 0 18.453126 8.261719 18.453126 18.453125v1.851563c0 10.191406-8.261719 18.457031-18.453126 18.457031zm0 0"/><path d="m150.597656 364.078125h127.304688c8.144531 0 14.746094 6.199219 14.746094 13.851563v55.691406c0 12.59375-13.203126 22.804687-29.492188 22.804687h-97.8125c-16.289062 0-29.492188-10.210937-29.492188-22.804687v-55.691406c0-7.652344 6.601563-13.851563 14.746094-13.851563zm0 0"/><path d="m253.082031 153.933594v-42.703125h-77.660156v42.703125l-35.796875 51.21875c-2.457031 3.511718-3.773438 7.691406-3.773438 11.976562v58.023438c0 6.296875 6.601563 11.402344 14.746094 11.402344h127.304688c8.144531 0 14.746094-5.105469 14.746094-11.402344v-58.023438c0-4.285156-1.316407-8.464844-3.769532-11.976562zm0 0"/></g><path d="m177.671875 275.152344v-58.023438c0-4.285156 1.316406-8.46875 3.773437-11.976562l35.796876-51.21875v-42.703125h-41.820313v42.703125l-35.796875 51.21875c-2.457031 3.511718-3.773438 7.691406-3.773438 11.976562v58.023438c0 6.296875 6.605469 11.398437 14.746094 11.398437h41.820313c-8.140625 0-14.746094-5.101562-14.746094-11.398437zm0 0" fill="#f9bb32"/><path d="m177.671875 323.792969v-.171875c0-10.65625 8.640625-19.296875 19.296875-19.296875h95.605469c-.78125-9.941407-9.078125-17.773438-19.21875-17.773438h-118.207031c-10.65625 0-19.296876 8.640625-19.296876 19.296875v.171875c0 10.65625 8.640626 19.292969 19.296876 19.292969h22.601562c-.039062-.5-.078125-1.007812-.078125-1.519531zm0 0" fill="#f9bb32"/><path d="m177.671875 361.511719v-.171875c0-10.660156 8.640625-19.296875 19.296875-19.296875h95.492188c-1.257813-9.441407-9.324219-16.726563-19.105469-16.726563h-118.207031c-10.65625 0-19.296876 8.636719-19.296876 19.292969v.171875c0 10.65625 8.640626 19.296875 19.296876 19.296875h22.714843c-.113281-.84375-.191406-1.695313-.191406-2.566406zm0 0" fill="#f9bb32"/><path d="m177.671875 454.53125v-55.691406c0-7.652344 6.605469-13.851563 14.746094-13.851563h100.234375v-7.058593c0-7.652344-6.605469-13.851563-14.746094-13.851563h-127.308594c-8.144531 0-14.746094 6.199219-14.746094 13.851563v55.691406c0 12.59375 13.203126 22.804687 29.492188 22.804687h12.4375c-.066406-.625-.109375-1.253906-.109375-1.894531zm0 0" fill="#f9bb32"/><path d="m258.84375 132.421875h-89.1875c-4.417969 0-8-3.582031-8-8v-36.632813c0-4.417968 3.582031-8 8-8h89.1875c4.417969 0 8 3.582032 8 8v36.632813c0 4.417969-3.582031 8-8 8zm0 0" fill="#db9c2e"/><path d="m203.476562 124.058594v-35.90625c0-4.621094 3.746094-8.363282 8.367188-8.363282h-41.820312c-4.621094 0-8.363282 3.742188-8.363282 8.363282v35.90625c0 4.617187 3.742188 8.363281 8.363282 8.363281h41.820312c-4.621094 0-8.367188-3.746094-8.367188-8.363281zm0 0" fill="#bf6c0d"/><path d="m136.964844 301.035156h-116.796875c-11.046875 0-20-8.953125-20-20v-12.121094c0-11.046874 8.953125-20 20-20h116.796875c11.046875 0 20 8.953126 20 20v12.121094c0 11.046875-8.957032 20-20 20zm0 0" fill="#ffeacf"/><path d="m136.964844 353.160156h-116.796875c-11.046875 0-20-8.957031-20-20v-12.125c0-11.046875 8.953125-20 20-20h116.796875c11.046875 0 20 8.953125 20 20v12.125c0 11.042969-8.957032 20-20 20zm0 0" fill="#ffeacf"/><path d="m14.914062 353.160156h127.304688c8.144531 0 14.746094 8.335938 14.746094 18.625v74.886719c0 16.933594-13.203125 30.660156-29.492188 30.660156h-97.8125c-16.289062 0-29.492187-13.726562-29.492187-30.660156v-74.886719c0-10.289062 6.601562-18.625 14.746093-18.625zm0 0" fill="#ffeacf"/><path d="m116.59375 69.039062h.105469v-36.28125h-76.234375v36.277344h.074218l-40.371093 77.675782v86.871093c0 8.464844 6.601562 15.328125 14.746093 15.328125h127.304688c8.144531 0 14.746094-6.863281 14.746094-15.328125v-86.871093zm0 0" fill="#ffeacf"/><path d="m41.988281 233.582031v-86.871093l40.371094-77.671876h-.074219v-36.28125h-41.820312v36.277344h.074218l-40.371093 77.675782v86.871093c0 8.464844 6.601562 15.328125 14.746093 15.328125h41.820313c-8.144531.003906-14.746094-6.859375-14.746094-15.328125zm0 0" fill="#ffd59a"/><path d="m41.988281 297.898438v-10.300782c0-11.546875 9.359375-20.910156 20.910157-20.910156h93.804687c-1.515625-10.054688-10.167969-17.773438-20.648437-17.773438h-114.976563c-11.546875 0-20.910156 9.359376-20.910156 20.910157v10.300781c0 11.550781 9.363281 20.910156 20.910156 20.910156h21.171875c-.15625-1.023437-.261719-2.066406-.261719-3.136718zm0 0" fill="#ffd59a"/><path d="m41.988281 347.929688v-10.300782c0-11.546875 9.359375-20.910156 20.910157-20.910156h93.378906c-2.324219-9.011719-10.484375-15.683594-20.222656-15.683594h-114.976563c-11.546875 0-20.910156 9.363282-20.910156 20.910156v10.300782c0 11.550781 9.363281 20.910156 20.910156 20.910156h21.59375c-.429687-1.671875-.683594-3.417969-.683594-5.226562zm0 0" fill="#ffd59a"/><path d="m41.988281 467.582031v-74.886719c0-10.289062 6.601563-18.628906 14.746094-18.628906h100.230469v-2.28125c0-10.289062-6.601563-18.628906-14.746094-18.628906h-127.304688c-8.144531 0-14.746093 8.339844-14.746093 18.628906v74.886719c0 16.933594 13.203125 30.660156 29.492187 30.660156h13.859375c-.988281-3.0625-1.53125-6.339843-1.53125-9.75zm0 0" fill="#ffd59a"/><path d="m123.160156 52.632812h-89.1875c-4.417968 0-8-3.582031-8-8v-36.632812c0-4.417969 3.582032-8 8-8h89.1875c4.417969 0 8 3.582031 8 8v36.632812c0 4.421876-3.582031 8-8 8zm0 0" fill="#f9bb32"/><path d="m67.792969 44.269531v-35.90625c0-4.617187 3.746093-8.363281 8.363281-8.363281h-41.820312c-4.617188 0-8.363282 3.746094-8.363282 8.363281v35.90625c0 4.621094 3.746094 8.367188 8.363282 8.367188h41.820312c-4.617188-.003907-8.363281-3.746094-8.363281-8.367188zm0 0" fill="#db9c2e"/><path d="m137.097656 454.625c-3.3125 0-6-2.6875-6-6v-62.316406c0-3.316406 2.6875-6 6-6 3.316406 0 6 2.683594 6 6v62.316406c0 3.3125-2.683594 6-6 6zm0 0" fill="#fcf9de"/><path d="m137.097656 223.128906c-3.3125 0-6-2.6875-6-6v-59.488281l-9.789062-17.453125c-1.617188-2.890625-.589844-6.546875 2.300781-8.167969 2.890625-1.621093 6.546875-.59375 8.167969 2.296875l10.554687 18.820313c.503907.894531.765625 1.90625.765625 2.933593v61.058594c0 3.3125-2.683594 6-6 6zm0 0" fill="#fcf9de"/><path d="m276.050781 265.585938c-3.3125 0-6-2.6875-6-6v-35.699219l-8.207031-12.359375c-1.832031-2.761719-1.078125-6.484375 1.683594-8.316406 2.757812-1.832032 6.480468-1.082032 8.316406 1.679687l9.207031 13.867187c.652344.984376 1 2.140626 1 3.320313v37.507813c0 3.3125-2.683593 6-6 6zm0 0" fill="#ffeacf"/><path d="m271.449219 443.328125c-3.3125 0-6-2.683594-6-6v-40.09375c0-3.3125 2.6875-6 6-6s6 2.6875 6 6v40.09375c0 3.316406-2.6875 6-6 6zm0 0" fill="#ffeacf"/><path d="m113.996094 45.011719c-3.3125 0-6-2.6875-6-6v-24.082031c0-3.316407 2.6875-6 6-6s6 2.683593 6 6v24.082031c0 3.3125-2.683594 6-6 6zm0 0" fill="#ffd551"/><path d="m249.914062 124.433594c-3.3125 0-6-2.6875-6-6v-21.828125c0-3.3125 2.6875-6 6-6s6 2.6875 6 6v21.828125c0 3.3125-2.6875 6-6 6zm0 0" fill="#f9bb32"/><path d="m98.042969 118.433594c0 8.660156-7.023438 15.683594-15.683594 15.683594-8.664063 0-15.683594-7.023438-15.683594-15.683594s7.019531-15.683594 15.683594-15.683594c8.660156 0 15.683594 7.023438 15.683594 15.683594zm0 0" fill="#ffd59a"/><path d="m88.199219 404.464844c0 8.660156-7.019531 15.683594-15.683594 15.683594-8.660156 0-15.683594-7.023438-15.683594-15.683594s7.023438-15.683594 15.683594-15.683594c8.664063 0 15.683594 7.023438 15.683594 15.683594zm0 0" fill="#ffd59a"/><path d="m218.117188 427.652344c0 8.660156-7.023438 15.683594-15.683594 15.683594-8.664063 0-15.683594-7.023438-15.683594-15.683594 0-8.664063 7.019531-15.683594 15.683594-15.683594 8.660156 0 15.683594 7.019531 15.683594 15.683594zm0 0" fill="#f9bb32"/><path d="m233.796875 228.867188c0 8.664062-7.019531 15.683593-15.679687 15.683593-8.664063 0-15.683594-7.019531-15.683594-15.683593 0-8.660157 7.019531-15.683594 15.683594-15.683594 8.660156 0 15.679687 7.023437 15.679687 15.683594zm0 0" fill="#f9bb32"/></svg>