<svg height="476pt" viewBox="-130 0 476 476.89181" width="476pt" xmlns="http://www.w3.org/2000/svg"><path d="m192.359375 73.390625-27.304687-67.199219c-2.492188-6.1328122-11.273438-8.1875-16.964844-3.976562l-96.195313 71.175781zm0 0" fill="#fff4c1"/><path d="m150.15625 73.390625-40.242188-42.929687-56.957031 42.144531-.222656.785156zm0 0" fill="#fce575"/><path d="m15.019531 100.675781 26.625-94.484375c1.726563-6.1328122 7.820313-8.191406 11.765625-3.976562l92.292969 98.460937zm0 0" fill="#fff4c1"/><path d="m53.410156 2.214844c-3.945312-4.214844-10.039062-2.1562502-11.765625 3.972656l-26.625 94.488281h32.027344l22.804687-80.921875zm0 0" fill="#fce575"/><path d="m175.277344 280.835938h-133.296875l-39.390625 129.550781c-1.421875 4.667969-2.144532 9.519531-2.144532 14.398437v12.367188c0 21.945312 17.792969 39.738281 39.742188 39.738281h136.886719c21.945312 0 39.738281-17.792969 39.738281-39.738281v-12.367188c0-4.878906-.71875-9.730468-2.140625-14.398437zm0 0" fill="#ffeacf"/><path d="m40.484375 437.152344v-12.367188c0-4.878906.71875-9.730468 2.140625-14.398437l39.394531-129.550781h-40.039062l-39.394531 129.550781c-1.417969 4.667969-2.140626 9.519531-2.140626 14.398437v12.367188c0 21.945312 17.792969 39.738281 39.742188 39.738281h40.035156c-21.945312 0-39.738281-17.792969-39.738281-39.738281zm0 0" fill="#ffd59a"/><path d="m.445312 81.339844v5.292968c0 7.613282 1.125 15.191407 3.34375 22.476563l38.191407 125.601563h133.296875l38.195312-125.601563c2.214844-7.289063 3.339844-14.863281 3.339844-22.476563v-5.292968c0-4.390625-3.558594-7.949219-7.945312-7.949219h-200.472657c-4.390625 0-7.949219 3.558594-7.949219 7.949219zm0 0" fill="#ffeacf"/><g fill="#ffd59a"><path d="m40.484375 86.632812v-5.292968c0-4.390625 3.558594-7.949219 7.949219-7.949219h-40.039063c-4.390625 0-7.949219 3.558594-7.949219 7.949219v5.292968c0 7.613282 1.128907 15.191407 3.34375 22.476563l38.191407 125.601563h40.039062l-38.195312-125.601563c-2.214844-7.285156-3.339844-14.859375-3.339844-22.476563zm0 0"/><path d="m41.5 233.828125h134.257812v47.316406h-134.257812zm0 0"/><path d="m15.019531 100.679688 27.414063 92.222656h133.324218l27.6875-92.226563zm0 0"/></g><path d="m15.019531 100.679688h32.027344l26.550781 92.222656h-31.164062zm0 0" fill="#ffc34c"/><path d="m145.703125 102.820312-15.054687 90.082032h24.523437l20.558594-92.222656-30.027344-.003907zm0 0" fill="#ffc34c"/><path d="m14.4375 325.878906 13.816406-45.433594v-45.34375l-14.128906-46.464843c-1.378906-4.539063 2.015625-9.121094 6.757812-9.121094h175.492188c4.742188 0 8.140625 4.582031 6.757812 9.121094l-14.128906 46.464843v45.34375l13.816406 45.433594c1.378907 4.539063-2.015624 9.121094-6.757812 9.121094h-174.863281c-4.746094 0-8.140625-4.582031-6.761719-9.121094zm0 0" fill="#ff9079"/><path d="m28.253906 257.875h160.753906v18.839844h-160.753906zm0 0" fill="#bf6c0d"/><path d="m106.140625 263.234375-20.191406 55.453125c-1.777344 4.886719-7.175781 7.402344-12.0625 5.625l-.015625-.003906c-4.882813-1.78125-7.402344-7.179688-5.625-12.066406l20.191406-55.453126c1.78125-4.882812 7.179688-7.402343 12.0625-5.625l.019531.007813c4.882813 1.777344 7.398438 7.179687 5.621094 12.0625zm0 0" fill="#bf6c0d"/><path d="m106.394531 255.292969 30.59375 87.960937c1.707031 4.910156-.890625 10.273438-5.800781 11.984375l-.015625.003907c-4.910156 1.707031-10.273437-.886719-11.980469-5.796876l-30.59375-87.964843c-1.707031-4.90625.890625-10.273438 5.800782-11.980469l.015624-.003906c4.910157-1.707032 10.273438.886718 11.980469 5.796875zm0 0" fill="#bf6c0d"/><path d="m54.476562 325.878906 13.8125-45.429687v-45.347657l-14.128906-46.464843c-1.378906-4.539063 2.019532-9.121094 6.761719-9.121094h-40.039063c-4.742187 0-8.140624 4.582031-6.757812 9.121094l14.128906 46.464843v45.347657l-13.816406 45.429687c-1.378906 4.539063 2.015625 9.121094 6.761719 9.121094h40.035156c-4.742187 0-8.140625-4.582031-6.757813-9.121094zm0 0" fill="#ff624b"/><path d="m192.175781 266.707031h-167.089843c-5.199219 0-9.410157-4.214843-9.410157-9.414062v-.015625c0-5.199219 4.210938-9.410156 9.410157-9.410156h167.089843c5.195313 0 9.410157 4.214843 9.410157 9.410156v.015625c0 5.199219-4.214844 9.414062-9.410157 9.414062zm0 0" fill="#ffc34c"/><path d="m116.152344 263.234375-20.191406 55.453125c-1.777344 4.886719-7.179688 7.402344-12.0625 5.625l-.015626-.003906c-4.886718-1.78125-7.402343-7.179688-5.625-12.066406l20.191407-55.453126c1.777343-4.882812 7.175781-7.402343 12.0625-5.625l.015625.007813c4.882812 1.777344 7.402344 7.179687 5.625 12.0625zm0 0" fill="#ffc34c"/><path d="m116.402344 255.292969 30.59375 87.960937c1.707031 4.910156-.886719 10.273438-5.796875 11.984375l-.019531.003907c-4.90625 1.707031-10.273438-.886719-11.980469-5.796876l-30.589844-87.964843c-1.707031-4.90625.886719-10.273438 5.796875-11.980469l.015625-.003906c4.910156-1.707032 10.273437.886718 11.980469 5.796875zm0 0" fill="#ffc34c"/><path d="m133.175781 257.484375c0 13.554687-10.992187 24.542969-24.546875 24.542969-13.554687 0-24.542968-10.988282-24.542968-24.542969s10.988281-24.542969 24.542968-24.542969c13.554688 0 24.546875 10.988282 24.546875 24.542969zm0 0" fill="#a56021"/><path d="m101.347656 257.484375c0-10.511719 6.621094-19.457031 15.914063-22.953125-2.691407-1.011719-5.589844-1.589844-8.632813-1.589844-13.554687 0-24.542968 10.988282-24.542968 24.542969s10.988281 24.546875 24.542968 24.546875c3.042969 0 5.941406-.582031 8.632813-1.59375-9.292969-3.496094-15.914063-12.441406-15.914063-22.953125zm0 0" fill="#8c4c17"/><path d="m122.808594 269.660156c-.40625 0-.816406-.042968-1.230469-.128906-3.242187-.675781-5.324219-3.851562-4.648437-7.097656 1.5-7.195313-2.921876-10.3125-3.824219-10.863282l.089843.050782 5.886719-10.457032c4.832031 2.722657 12.292969 10.78125 9.597657 23.71875-.59375 2.832032-3.089844 4.777344-5.871094 4.777344zm0 0" fill="#bf6c0d"/><path d="m15.019531 100.679688h32.027344l7.691406-27.289063h-32.03125zm0 0" fill="#ffc34c"/><path d="m22.707031 73.390625-7.6875 27.289063zm0 0" fill="#ffd59a"/><path d="m120.128906 73.390625h-65.390625l-7.691406 27.289063h98.65625zm0 0" fill="#ffd59a"/><path d="m120.128906 73.390625 25.574219 27.289063h30.027344l-25.574219-27.289063zm0 0" fill="#ffc34c"/><path d="m203.445312 100.679688-11.085937-27.289063h-42.203125l25.574219 27.289063zm0 0" fill="#ffd59a"/><path d="m175.195312 166.902344c-.457031 0-.925781-.054688-1.390624-.164063-3.226563-.765625-5.21875-4-4.453126-7.222656l15.816407-66.589844c.765625-3.222656 4-5.21875 7.226562-4.449219 3.222657.765626 5.214844 4 4.449219 7.222657l-15.816406 66.585937c-.652344 2.757813-3.113282 4.617188-5.832032 4.617188zm0 0" fill="#fcf9de"/><path d="m191.285156 385.082031h-165.308594l-9.023437 29.671875c-.988281 3.253906-1.492187 6.632813-1.492187 10.03125v12.367188c0 13.632812 11.09375 24.726562 24.726562 24.726562h136.886719c13.632812 0 24.726562-11.09375 24.726562-24.726562v-12.367188c0-3.398437-.5-6.777344-1.492187-10.03125zm0 0" fill="#a56021"/><path d="m191.703125 425.113281c-2.566406 0-4.941406-1.660156-5.734375-4.246093l-20.519531-67.058594c-.96875-3.167969.816406-6.523438 3.984375-7.496094 3.167968-.96875 6.523437.8125 7.492187 3.984375l20.519531 67.0625c.96875 3.167969-.8125 6.519531-3.980468 7.492187-.585938.179688-1.179688.261719-1.761719.261719zm0 0" fill="#fcf9de"/><path d="m99.179688 423.480469c0 11.425781-9.261719 20.683593-20.6875 20.683593-11.425782 0-20.683594-9.257812-20.683594-20.683593s9.257812-20.6875 20.683594-20.6875c11.425781 0 20.6875 9.261719 20.6875 20.6875zm0 0" fill="#8c4c17"/><path d="m40.484375 424.785156c0-4.878906.71875-9.730468 2.140625-14.398437l7.695312-25.304688h-24.34375l-9.023437 29.671875c-.988281 3.253906-1.492187 6.632813-1.492187 10.03125v12.367188c0 13.632812 11.09375 24.726562 24.726562 24.726562h8.9375c-5.402344-6.789062-8.640625-15.378906-8.640625-24.726562zm0 0" fill="#8c4c17"/></svg>