<svg height="413pt" viewBox="0 -34 413.00848 413" width="413pt" xmlns="http://www.w3.org/2000/svg"><path d="m0 144.222656v159.757813h.210938c2.183593 22.820312 21.398437 40.667969 44.789062 40.667969h314.667969c23.390625 0 42.605469-17.847657 44.785156-40.667969h.214844v-159.757813zm0 0" fill="#ffb74b"/><path d="m4.332031 124.050781c1.730469-4.25 7.210938-9.640625 12.609375-14.222656 3.476563-3.289063 7.625-6.460937 12.382813-9.496094.078125-.054687.136719-.09375.136719-.09375l-.003907.011719c34.066407-21.660156 99.335938-36.3125 174.269531-36.3125 110.125 0 199.394532 31.636719 199.394532 70.664062 0 39.03125-89.269532 70.667969-199.394532 70.667969-110.121093 0-199.394531-31.636719-199.394531-70.667969 0-3.007812.535157-5.972656 1.566407-8.882812-.53125-.546875-1.050782-1.105469-1.566407-1.667969zm0 0" fill="#ffd59a"/><path d="m90.332031 137.601562c0-36.164062 76.667969-65.980468 175.542969-70.160156-19.558594-2.269531-40.445312-3.503906-62.148438-3.503906-74.933593 0-140.199218 14.652344-174.269531 36.3125l.003907-.007812s-.058594.035156-.136719.089843c-4.757813 3.035157-8.90625 6.210938-12.378907 9.5-5.402343 4.578125-10.882812 9.96875-12.609374 14.222657.511718.5625 1.03125 1.117187 1.5625 1.664062-1.03125 2.910156-1.5625 5.875-1.5625 8.886719 0 39.027343 89.269531 70.664062 199.390624 70.664062 8.074219 0 16.03125-.171875 23.855469-.503906-79.691406-9.257813-137.25-35.824219-137.25-67.164063zm0 0" fill="#ffc34c"/><path d="m360.496094 80.570312c0-31.070312-69.507813-56.253906-155.246094-56.253906s-155.246094 25.183594-155.246094 56.253906c0 31.070313 69.507813 56.257813 155.246094 56.257813s155.246094-25.1875 155.246094-56.257813zm0 0" fill="#ffd59a"/><path d="m245.25 126.828125c-85.738281 0-155.246094-25.1875-155.246094-56.257813 0-16.039062 18.527344-30.511718 48.253906-40.761718-52.203124 9.066406-88.253906 28.386718-88.253906 50.761718 0 31.070313 69.507813 56.257813 155.246094 56.257813 41.472656 0 79.144531-5.894531 106.992188-15.496094-20.28125 3.519531-43 5.496094-66.992188 5.496094zm0 0" fill="#ffc34c"/><path d="m309.339844 38.78125c0-21.417969-47.90625-38.77734375-107.007813-38.77734375-59.097656 0-107.007812 17.35937475-107.007812 38.77734375 0 21.414062 47.910156 38.773438 107.007812 38.773438 59.101563 0 107.007813-17.359376 107.007813-38.773438zm0 0" fill="#ffd59a"/><path d="m252.332031 67.554688c-59.097656 0-107.007812-17.359376-107.007812-38.773438 0-10.867188 12.339843-20.6875 32.214843-27.730469-47.140624 4.054688-82.214843 19.40625-82.214843 37.730469 0 21.414062 47.910156 38.773438 107.007812 38.773438 29.113281 0 55.503907-4.210938 74.792969-11.046876-7.957031.683594-16.257812 1.046876-24.792969 1.046876zm0 0" fill="#ffc34c"/><path d="m50.210938 303.984375h-.210938v-159.761719h-50v159.757813h.210938c2.183593 22.820312 21.398437 40.667969 44.789062 40.667969h50c-23.390625 0-42.605469-17.847657-44.789062-40.664063zm0 0" fill="#ffa730"/><path d="m354.453125 303.984375h.214844v-159.761719h50v159.757813h-.214844c-2.179687 22.820312-21.394531 40.667969-44.785156 40.667969h-50c23.390625 0 42.605469-17.847657 44.785156-40.664063zm0 0" fill="#ffa730"/><path d="m394.214844 113.601562c-29.085938 26.691407-103.363282 45.667969-190.425782 45.667969-87.058593 0-161.335937-18.976562-190.417968-45.667969-8.472656 7.773438-13.121094 16.199219-13.121094 25 0 39.03125 91.128906 70.667969 203.542969 70.667969 112.410156 0 203.539062-31.636719 203.539062-70.667969 0-8.800781-4.648437-17.226562-13.117187-25zm0 0" fill="#e58d23"/><path d="m357.121094 183.398438c-13.316406 3.375-46.136719 11.320312-57.0625 10.621093-1.914063-.121093-4.265625-.074219-6.875.085938-3.53125.101562-9.597656.386719-16.691406 1.207031 0 0-20.769532.816406-29.210938 7.09375-14.851562 8.765625-24.511719 24.941406-24.550781 42.96875l-.109375 49.097656c-.058594 27.613282 22.277344 50.046875 49.890625 50.109375l44.964843.097657c24.851563.054687 45.042969-20.046876 45.097657-44.898438l.261719-117.855469v-.914062c.003906.003906-2.054688.976562-5.714844 2.386719zm0 0" fill="#bf6c0d"/><path d="m380.855469 173.617188c-37.449219 17.0625-77.488281 20.117187-87.585938 20.632812-3.480469.808594-7.027343 1.582031-10.65625 2.316406-23.199219 4.695313-39.832031 25.183594-39.882812 48.855469l-.109375 49.09375c-.058594 27.617187 22.277344 50.050781 49.890625 50.113281l44.964843.097656c24.851563.054688 45.042969-20.046874 45.097657-44.902343l.28125-127.144531c-.664063.3125-1.332031.632812-2 .9375zm0 0" fill="#ffa730"/><path d="m264.699219 244.550781v49.097657c0 27.613281 22.386719 50 50 50h44.964843c24.855469 0 45-20.144532 45-45v-155.425782h-1.5c-7.789062 22.363282-45.476562 41.5-98.6875 52.386719-23.191406 4.746094-39.777343 25.269531-39.777343 48.941406zm0 0" fill="#ffb74b"/><path d="m91.898438 147.636719c-35.507813-8.128907-63.253907-20.015625-78.527344-34.035157-8.472656 7.773438-13.121094 16.199219-13.121094 25 0 39.03125 91.128906 70.667969 203.542969 70.667969 15.464843 0 30.519531-.601562 45-1.734375-82.507813-6.46875-146.023438-30.324218-156.894531-59.898437zm0 0" fill="#bf6c0d"/><path d="m264.699219 245.550781v49.097657c0 27.613281 22.386719 50 50 50h44.964843c24.855469 0 45-20.144532 45-45v-155.425782h-1.5c-7.789062 22.363282-45.476562 41.5-98.6875 52.386719-23.191406 4.746094-39.777343 25.269531-39.777343 48.941406zm0 0" fill="#ffb74b"/><path d="m336.460938 141.875s-17.792969 2.503906-17.792969 19.5625h-35.332031l10.332031-15.03125zm0 0" fill="#ffd59a"/><path d="m293.667969 240.910156c13.804687 0 25-11.191406 25-25v-93.230468h-50v93.230468c0 13.808594 11.191406 25 25 25zm0 0" fill="#ffd59a"/><path d="m303.34375 216.019531c-3.316406 0-6-2.6875-6-6v-48.582031c0-3.3125 2.683594-6 6-6 3.3125 0 6 2.6875 6 6v48.582031c0 3.3125-2.6875 6-6 6zm0 0" fill="#ffeacf"/><path d="m205.25 98.511719c-67.175781 0-124.378906-15.460938-146.003906-37.097657-5.976563 5.980469-9.242188 12.429688-9.242188 19.15625 0 31.070313 69.507813 56.257813 155.246094 56.257813s155.246094-25.1875 155.246094-56.257813c0-6.726562-3.265625-13.175781-9.242188-19.15625-21.625 21.636719-78.828125 37.097657-146.003906 37.097657zm0 0" fill="#e58d23"/><path d="m372.640625 97.609375s44.691406 19.105469 40.027344 45.996094v133.378906c0 13.804687-11.195313 25-25 25-13.808594 0-25-11.195313-25-25v-94.648437c-.003907-28.378907-10.851563-36.734376-13.589844-38.394532-4.75-2.601562-10.859375-3.503906-18.546875-.339844zm0 0" fill="#ffd59a"/><path d="m398.34375 268.847656c-3.316406 0-6-2.6875-6-6v-107.816406c0-3.3125 2.683594-6 6-6 3.3125 0 6 2.6875 6 6v107.816406c0 3.316406-2.6875 6-6 6zm0 0" fill="#ffeacf"/><path d="m136 317.316406c0 8.46875-6.863281 15.332032-15.332031 15.332032s-15.335938-6.863282-15.335938-15.332032 6.867188-15.335937 15.335938-15.335937 15.332031 6.867187 15.332031 15.335937zm0 0" fill="#ffa730"/><path d="m94.714844 286.648438c0 8.46875-6.867188 15.335937-15.335938 15.335937s-15.332031-6.867187-15.332031-15.335937 6.863281-15.332032 15.332031-15.332032 15.335938 6.863282 15.335938 15.332032zm0 0" fill="#ffa730"/><path d="m245.25 126.828125c-75.917969 0-139.101562-19.75-152.578125-45.84375-14.585937-5.566406-26.070313-12.210937-33.425781-19.570313-5.976563 5.976563-9.242188 12.429688-9.242188 19.15625 0 31.070313 69.507813 56.257813 155.246094 56.257813 41.472656 0 79.144531-5.894531 106.992188-15.496094-20.28125 3.519531-43 5.496094-66.992188 5.496094zm0 0" fill="#bf6c0d"/><path d="m222.621094 124.332031c9.25 0 16.75-7.5 16.75-16.75v-25.011719c0-1.105468-.894532-2-2-2h-29.5c-1.105469 0-2 .894532-2 2v25.011719c0 9.25 7.5 16.75 16.75 16.75zm0 0" fill="#ffd59a"/><path d="m296.304688 19.625c-18.414063 11.714844-53.1875 19.617188-93.054688 19.617188-39.871094 0-74.644531-7.902344-93.054688-19.617188-8.878906 5.648438-13.953124 12.1875-13.953124 19.15625 0 21.414062 47.90625 38.773438 107.007812 38.773438 59.097656 0 107.007812-17.359376 107.007812-38.773438 0-6.96875-5.074218-13.507812-13.953124-19.15625zm0 0" fill="#e58d23"/><path d="m253.25 67.554688c-54.730469 0-99.859375-14.886719-106.230469-34.097657-15.238281-3.417969-27.9375-8.179687-36.820312-13.835937-8.878907 5.652344-13.957031 12.191406-13.957031 19.15625 0 21.417968 47.910156 38.777344 107.007812 38.777344 29.109375 0 55.5-4.214844 74.792969-11.046876-7.957031.683594-16.257813 1.046876-24.792969 1.046876zm0 0" fill="#bf6c0d"/><path d="m243.582031 69.53125c9.253907 0 16.75-7.5 16.75-16.75v-33.453125c0-1.105469-.894531-2-2-2h-29.5c-1.105469 0-2 .894531-2 2v33.453125c0 9.25 7.5 16.75 16.75 16.75zm0 0" fill="#ffd59a"/><path d="m309 274.035156c0 8.46875-6.863281 15.335938-15.332031 15.335938s-15.335938-6.867188-15.335938-15.335938 6.867188-15.332031 15.335938-15.332031 15.332031 6.863281 15.332031 15.332031zm0 0" fill="#ffa730"/><path d="m357.167969 231.53125c0 8.46875-6.867188 15.335938-15.335938 15.335938s-15.332031-6.867188-15.332031-15.335938 6.863281-15.335938 15.332031-15.335938 15.335938 6.867188 15.335938 15.335938zm0 0" fill="#ffa730"/><path d="m248.792969 11.382812c0-6.285156-18.984375-11.37890575-42.398438-11.37890575-23.417969 0-42.398437 5.09374975-42.398437 11.37890575 0 6.285157 18.980468 11.378907 42.398437 11.378907 23.414063 0 42.398438-5.09375 42.398438-11.378907zm0 0" fill="#e58d23"/></svg>