<svg height="399pt" viewBox="0 -52 399.38612 399" width="399pt" xmlns="http://www.w3.org/2000/svg"><path d="m147.78125 3.863281c-54.316406-17.15625-116.769531 27.246094-139.492188 99.183594-22.71875 71.933594 2.894532 144.152344 57.214844 161.308594 54.316406 17.160156 116.769532-27.246094 139.488282-99.179688 22.722656-71.933593-2.894532-144.15625-57.210938-161.3125zm0 0" fill="#a56021"/><g fill="#8c4c17"><path d="m46.429688 115.101562c19.988281-63.289062 70.738281-105.257812 119.640624-102.746093-5.664062-3.554688-11.769531-6.417969-18.296874-8.476563-54.316407-17.160156-116.765626 27.242188-139.488282 99.175782-22.71875 71.929687 2.890625 144.148437 57.207032 161.304687 6.527343 2.0625 13.167968 3.226563 19.847656 3.570313-41.472656-26.035157-58.902344-89.539063-38.910156-152.828126zm0 0"/><path d="m68.785156 263.957031c-3.679687 0-7.222656-2.042969-8.964844-5.5625-20.074218-40.507812-11.558593-71.824219-.875-90.964843 11.472657-20.558594 27.757813-31.5 28.445313-31.957032.03125-.019531.066406-.042968.101563-.066406 32.886718-21.210938 51.8125-44.328125 56.253906-68.714844 4.609375-25.300781-8.210938-42.976562-8.339844-43.152344-3.289062-4.4375-2.355469-10.699218 2.082031-13.988281 4.4375-3.285156 10.699219-2.355469 13.988281 2.082031.742188 1.003907 18.09375 24.910157 11.945313 58.644532-5.46875 30.019531-27.34375 57.570312-65.015625 81.886718-2.464844 1.671876-51.183594 35.773438-20.667969 97.347657 2.449219 4.949219.425781 10.949219-4.519531 13.402343-1.425781.707032-2.941406 1.042969-4.433594 1.042969zm0 0"/><path d="m121.195312 226.867188c0 8.285156-6.714843 15-15 15-8.285156 0-15-6.714844-15-15 0-8.285157 6.714844-15 15-15 8.285157 0 15 6.714843 15 15zm0 0"/></g><path d="m323.320312 93.65625c-64.867187-38.503906-141.019531-30.007812-170.089843 18.972656-29.074219 48.980469-.058594 119.898438 64.808593 158.402344 64.863282 38.5 141.015626 30.003906 170.089844-18.976562 29.074219-48.980469.058594-119.898438-64.808594-158.398438zm0 0" fill="#e58d23"/><path d="m238.464844 236.621094c-57.074219-33.875-86.390625-92.847656-72.808594-139.890625-4.75 4.703125-8.929688 9.996093-12.421875 15.882812-29.074219 48.984375-.054687 119.902344 64.8125 158.402344 64.867187 38.503906 141.023437 30.003906 170.097656-18.976563 3.492188-5.886718 6.136719-12.089843 7.992188-18.515624-34.792969 34.457031-100.597657 36.972656-157.671875 3.097656zm0 0" fill="#bf6c0d"/><path d="m353.433594 259.5625c-28.730469 0-48.636719-11.808594-61.164063-23.214844-17.40625-15.855468-24.355469-34.203125-24.640625-34.976562-.015625-.039063-.03125-.078125-.042968-.117188-13.097657-36.652344-31.183594-60.292968-53.753907-70.265625-23.402343-10.339843-43.480469-2.183593-44.324219-1.832031-5.066406 2.1875-10.929687-.15625-13.117187-5.226562-2.191406-5.070313.171875-10.964844 5.238281-13.15625 1.148438-.496094 28.375-11.949219 59.824219 1.71875 27.988281 12.160156 49.835937 39.730468 64.9375 81.949218 1.0625 2.78125 23.183594 57.984375 90.082031 42.289063 5.382813-1.261719 10.761719 2.074219 12.019532 7.453125 1.261718 5.375-2.074219 10.757812-7.449219 12.019531-9.984375 2.339844-19.179688 3.359375-27.609375 3.359375zm0 0" fill="#a56021"/><path d="m352.265625 153.015625c0 8.285156-6.714844 15-15 15s-15-6.714844-15-15c0-8.28125 6.714844-15 15-15s15 6.71875 15 15zm0 0" fill="#bf6c0d"/><path d="m378.757812 197.628906c0 8.285156-6.714843 15-15 15-8.285156 0-15-6.714844-15-15 0-8.28125 6.714844-15 15-15 8.285157 0 15 6.71875 15 15zm0 0" fill="#bf6c0d"/></svg>