<svg height="468pt" viewBox="-61 0 468 468.484" width="468pt" xmlns="http://www.w3.org/2000/svg"><path d="m.242188 62.484375h263.09375v343.515625h-263.09375zm0 0" fill="#ffeacf"/><path d="m263.589844 112.742188 68.945312 106.835937c10.484375 16.246094 15.117188 35.578125 13.136719 54.808594l-10.664063 103.4375c-1.578124 15.296875-14.464843 26.925781-29.84375 26.925781h-41.574218zm0 0" fill="#ffd59a"/><path d="m263.335938 62.484375h-263.09375v-22.484375c0-22.089844 17.910156-40 40-40h183.09375c22.089843 0 40 17.910156 40 40zm0 0" fill="#a56021"/><path d="m223.335938 468.484375h-183.09375c-22.089844 0-40-17.910156-40-40v-32.492187h263.09375v32.492187c0 22.089844-17.910157 40-40 40zm0 0" fill="#a56021"/><path d="m156.632812 432.238281c0 13.71875-11.125 24.84375-24.84375 24.84375-13.722656 0-24.84375-11.125-24.84375-24.84375s11.121094-24.84375 24.84375-24.84375c13.71875 0 24.84375 11.125 24.84375 24.84375zm0 0" fill="#db9c2e"/><path d="m.242188 62.484375h40v333.507813h-40zm0 0" fill="#ffd59a"/><path d="m40.675781 428.484375v-32.492187h-40.433593v32.492187c0 22.089844 18.101562 40 40.433593 40h40.4375c-22.332031 0-40.4375-17.910156-40.4375-40zm0 0" fill="#8c4c17"/><path d="m80.242188 0h-40c-22.09375 0-40 17.910156-40 40v22.484375h40v-22.484375c0-22.09375 17.90625-40 40-40zm0 0" fill="#8c4c17"/><path d="m247.699219 101.992188c-3.3125 0-6-2.6875-6-6v-14c0-3.3125 2.6875-6 6-6s6 2.6875 6 6v14c0 3.3125-2.6875 6-6 6zm0 0" fill="#fcf9de"/><path d="m247.699219 221.167969c-3.3125 0-6-2.6875-6-6v-99.195313c0-3.316406 2.6875-6 6-6s6 2.683594 6 6v99.195313c0 3.3125-2.6875 6-6 6zm0 0" fill="#fcf9de"/><path d="m247.703125 55.992188c-.171875 0-.347656-.007813-.523437-.023438-3.300782-.285156-5.746094-3.191406-5.460938-6.492188.679688-7.832031-1.046875-14.140624-5.121094-18.75-7.578125-8.5625-21.191406-9.289062-21.328125-9.292968-3.3125-.121094-5.898437-2.902344-5.777343-6.214844.117187-3.3125 2.855468-5.898438 6.210937-5.78125.765625.03125 18.8125.824219 29.882813 13.339844 6.339843 7.167968 9.0625 16.496094 8.089843 27.730468-.269531 3.125-2.890625 5.484376-5.972656 5.484376zm0 0" fill="#bf6c0d"/><path d="m222.5 458.351562c-.929688 0-1.875-.042968-2.851562-.125-3.300782-.277343-5.753907-3.179687-5.472657-6.484374.277344-3.300782 3.167969-5.75 6.480469-5.472657 18.539062 1.570313 20.96875-23.121093 21.0625-24.171875.300781-3.300781 3.222656-5.734375 6.519531-5.433594 3.300781.300782 5.734375 3.21875 5.433594 6.519532-1.132813 12.488281-9.132813 35.167968-31.171875 35.167968zm0 0" fill="#bf6c0d"/><path d="m145.632812 432.238281c0 13.71875-11.125 24.84375-24.84375 24.84375-13.722656 0-24.84375-11.125-24.84375-24.84375s11.121094-24.84375 24.84375-24.84375c13.71875 0 24.84375 11.125 24.84375 24.84375zm0 0" fill="#8c4c17"/><path d="m156.632812 432.238281c0 13.71875-11.125 24.84375-24.84375 24.84375-13.722656 0-24.84375-11.125-24.84375-24.84375s11.121094-24.84375 24.84375-24.84375c13.71875 0 24.84375 11.125 24.84375 24.84375zm0 0" fill="#f9bb32"/><path d="m200.136719 232.144531c-7.527344-8.789062-23.109375-7.800781-34.796875 2.207031-11.691406 10.007813-15.066406 25.25-7.539063 34.042969 7.523438 8.792969 23.105469 7.804688 34.796875-2.207031 11.691406-10.007812 15.066406-25.25 7.539063-34.042969zm-12.160157 28.648438c-5.21875 4.46875-11.648437 6.878906-17.207031 6.445312-2.25-.171875-5.390625-.914062-7.574219-3.464843-2.90625-3.390626-2.4375-7.976563-1.898437-10.410157 1.078125-4.863281 4.234375-9.828125 8.660156-13.617187 5.21875-4.46875 11.652344-6.878906 17.207031-6.445313 2.25.171875 5.394532.914063 7.574219 3.464844 4.886719 5.703125 1.789063 16.707031-6.761719 24.027344zm0 0" fill="#fcda4f"/><path d="m177.539062 266.492188c-2.308593.648437-4.605468.914062-6.769531.746093-2.25-.171875-5.390625-.914062-7.574219-3.464843-2.90625-3.390626-2.4375-7.976563-1.898437-10.410157 1.074219-4.863281 4.234375-9.828125 8.660156-13.617187 5.21875-4.46875 11.648438-6.878906 17.207031-6.445313 1.425782.109375 3.214844.449219 4.886719 1.335938.222657-2.042969.339844-4.113281.339844-6.210938v-1.308593c-8.019531-2.542969-18.5625-.039063-27.054687 7.234374-11.691407 10.007813-15.066407 25.25-7.539063 34.042969 2.785156 3.25 6.671875 5.160157 11.054687 5.777344 3.15625-2.257813 6.066407-4.835937 8.6875-7.679687zm0 0" fill="#eacf32"/><path d="m126.222656 284.636719c-31.042968 0-56.210937-25.167969-56.210937-56.214844v-3.097656c0-1.832031 1.484375-3.320313 3.320312-3.320313h105.785157c1.832031 0 3.320312 1.488282 3.320312 3.320313v3.097656c-.003906 31.046875-25.167969 56.214844-56.214844 56.214844zm0 0" fill="#fcda4f"/><path d="m142.820312 281.316406c-31.042968 0-56.210937-25.167968-56.210937-56.210937v-3.097657h-13.28125c-1.832031 0-3.316406 1.484376-3.316406 3.316407v3.101562c0 31.042969 25.164062 56.210938 56.210937 56.210938 6.761719 0 13.246094-1.195313 19.25-3.382813-.878906.039063-1.761718.0625-2.652344.0625zm0 0" fill="#eacf32"/><path d="m149.789062 269.550781c-1.519531 0-2.972656-.871093-3.640624-2.34375-.917969-2.011719-.027344-4.382812 1.980468-5.300781 14.46875-6.589844 17.15625-27.496094 17.183594-27.703125.265625-2.191406 2.257812-3.757813 4.445312-3.496094 2.191407.261719 3.757813 2.242188 3.5 4.4375-.121093 1.039063-3.210937 25.570313-21.8125 34.042969-.535156.246094-1.101562.363281-1.65625.363281zm0 0" fill="#fff4c1"/><path d="m166.113281 301.730469h-80.597656c-6.601563 0-11.949219-5.347657-11.949219-11.949219h104.5c0 6.601562-5.351562 11.949219-11.953125 11.949219zm0 0" fill="#eacf32"/><path d="m93.566406 296.78125h82.21875c1.429688-1.96875 2.28125-4.382812 2.28125-7h-104.5c0 6.601562 5.347656 11.949219 11.949219 11.949219h9.132813c-.6875-1.507813-1.082032-3.179688-1.082032-4.949219zm0 0" fill="#ccc033"/><path d="m181.683594 294.097656h-113.074219c-1.945313 0-3.769531-.949218-4.890625-2.542968l-4.042969-5.769532c-.617187-.878906.011719-2.089844 1.085938-2.089844h129.757812c1.136719 0 1.746094 1.335938 1 2.195313l-5.320312 6.144531c-1.136719 1.308594-2.785157 2.0625-4.515625 2.0625zm0 0" fill="#eacf32"/><path d="m154.195312 188.5625c0-11.835938-12.707031-21.429688-28.378906-21.429688s-28.378906 9.59375-28.378906 21.429688c0 11.832031 12.707031 21.425781 28.378906 21.425781s28.378906-9.59375 28.378906-21.425781zm0 0" fill="#bf6c0d"/><path d="m110.136719 188.5625c0-10.160156 9.214843-18.660156 21.582031-20.867188-2.039062-.363281-4.164062-.5625-6.347656-.5625-15.425782 0-27.933594 9.59375-27.933594 21.425782 0 11.835937 12.503906 21.429687 27.933594 21.429687 2.183594 0 4.308594-.199219 6.347656-.5625-12.363281-2.203125-21.582031-10.707031-21.582031-20.863281zm0 0" fill="#a56021"/><path d="m139.769531 196.316406c-8.558593 0-15.34375-5.972656-15.636719-6.234375-10.855468-10.289062-22.09375-.429687-22.566406-.003906-.976562.875-2.519531.84375-3.453125-.074219-.933593-.917968-.898437-2.367187.078125-3.246094 5.207032-4.671874 18.046875-10.679687 29.355469.046876.003906 0 5.980469 5.199218 12.785156 4.910156 3.507813-.152344 6.734375-1.773438 9.585938-4.8125.894531-.953125 2.4375-1.042969 3.445312-.203125 1.015625.835937 1.109375 2.289062.21875 3.238281-3.773437 4.023438-8.167969 6.164062-13.0625 6.367188-.25.007812-.5.011718-.75.011718zm0 0" fill="#8c4c17"/><path d="m313.027344 299.929688-42.71875 55.878906-60.949219-46.597656c-15.429687-11.800782-18.375-33.871094-6.578125-49.300782 11.796875-15.429687 33.871094-18.375 49.300781-6.578125zm0 0" fill="#ffb74b"/><path d="m275.335938 130.941406-11.746094-18.199218v292.007812h11.746094zm0 0" fill="#ffb74b"/><path d="m322.625 297.304688-42.722656 55.875-76.15625-58.226563c-15.429688-11.796875-18.375-33.871094-6.578125-49.300781 11.796875-15.429688 33.867187-18.375 49.300781-6.578125zm0 0" fill="#ffd59a"/><path d="m84.488281 31.792969c0 8.285156-6.714843 15-15 15-8.28125 0-15-6.714844-15-15 0-8.285157 6.71875-15 15-15 8.285157 0 15 6.714843 15 15zm0 0" fill="#8c4c17"/><path d="m230.488281 365.027344c0 8.285156-6.71875 15-15 15-8.285156 0-15-6.714844-15-15s6.714844-15 15-15c8.28125 0 15 6.714844 15 15zm0 0" fill="#ffd59a"/></svg>