<svg height="479pt" viewBox="-102 0 479 479.00944" width="479pt" xmlns="http://www.w3.org/2000/svg"><path d="m273.183594 360.003906c-4.21875-69.417968-22.695313-153.875-30.515625-187.25-11.484375-93.96875-54.140625-163.753906-105.015625-163.753906s-93.53125 69.785156-105.015625 163.753906c-7.816407 33.371094-26.296875 117.820313-30.515625 187.238282-.027344.203124-15.828125 112.015624 39.328125 118.007812v-26.621094l1.167969-33.257812h-.011719l48.402343-1.082032c14.121094 13.433594 29.9375 20.960938 46.644532 20.960938 16.703125 0 32.519531-7.527344 46.644531-20.960938l48.398437 1.082032h-.011718l1.171875 20.347656v39.539062c55.105469-5.992187 39.382812-117.601562 39.328125-118.003906zm0 0" fill="#ccc033"/><path d="m137.652344 440.183594-96.308594 2.816406c.167969-10.390625.757812-20.289062 1.621094-28.414062l.15625-1.425782.054687-1.335937c3.351563-72.316407 17.371094-160.402344 24.878907-203.65625h139.191406c7.511718 43.285156 21.539062 131.449219 24.882812 203.667969l.066406 1.386718.148438 1.378906c.859375 8.121094 1.449219 18.015626 1.617188 28.398438zm0 0" fill="#ffb74b"/><g fill="#99af17"><path d="m56.460938 314.691406c-.042969.347656-.085938.695313-.128907 1.039063.042969-.34375.085938-.691407.128907-1.039063zm0 0"/><path d="m55.257812 324.761719c-.042968.367187-.082031.734375-.125 1.101562.042969-.367187.085938-.734375.125-1.101562zm0 0"/><path d="m57.058594 310.023438c-.042969.308593-.082032.617187-.121094.925781.039062-.308594.078125-.617188.121094-.925781zm0 0"/><path d="m57.78125 304.609375c-.046875.328125-.089844.65625-.136719.984375.046875-.328125.089844-.65625.136719-.984375zm0 0"/><path d="m58.433594 299.882812c-.046875.335938-.09375.671876-.140625 1.011719.046875-.335937.09375-.675781.140625-1.011719zm0 0"/><path d="m55.792969 320.160156c-.035157.277344-.066407.558594-.097657.839844.03125-.28125.0625-.558594.097657-.839844zm0 0"/><path d="m52.800781 350.21875c-.007812.113281-.015625.226562-.027343.34375.011718-.117188.019531-.230469.027343-.34375zm0 0"/><path d="m53.253906 344.738281c-.035156.382813-.066406.765625-.097656 1.148438.03125-.382813.0625-.765625.097656-1.148438zm0 0"/><path d="m52.480469 354.578125c-.027344.371094-.050781.742187-.078125 1.113281.027344-.371094.050781-.742187.078125-1.113281zm0 0"/><path d="m54.183594 334.78125c-.039063.382812-.078125.765625-.113282 1.148438.035157-.382813.074219-.765626.113282-1.148438zm0 0"/><path d="m53.648438 340.304688c-.015626.179687-.03125.359374-.050782.539062.019532-.179688.035156-.359375.050782-.539062zm0 0"/><path d="m54.652344 330.257812c-.027344.25-.050782.496094-.078125.746094.027343-.25.050781-.496094.078125-.746094zm0 0"/><path d="m59.191406 294.605469c-.042968.285156-.085937.570312-.125.855469.039063-.285157.082032-.570313.125-.855469zm0 0"/><path d="m69.796875 232.773438c-.03125.148437-.058594.292968-.085937.441406.027343-.148438.054687-.292969.085937-.441406zm0 0"/><path d="m71.488281 224.195312c-.023437.101563-.039062.195313-.0625.296876.019531-.097657.039063-.195313.0625-.296876zm0 0"/><path d="m66.390625 250.867188c-.046875.246093-.089844.492187-.132813.738281.042969-.246094.085938-.492188.132813-.738281zm0 0"/><path d="m68.097656 241.644531c-.042968.21875-.082031.433594-.125.652344.042969-.21875.082032-.433594.125-.652344zm0 0"/><path d="m137.652344 9c-50.875 0-93.53125 69.785156-105.015625 163.753906-7.816407 33.371094-26.296875 117.820313-30.515625 187.238282-.027344.203124-15.828125 112.015624 39.328125 118.007812v-26.621094l.957031-27.269531-.664062 18.878906-.398438.011719c.144531-8.929688.601562-17.488281 1.273438-24.878906h-.011719.011719c.109374-1.210938.222656-2.394532.34375-3.535156l.15625-1.425782.054687-1.335937c3.355469-72.316407 17.371094-160.402344 24.878906-203.65625h6.722657c3.050781-14.5 5.820312-26.699219 7.859374-35.414063 9.546876-78.074218 40.605469-139.445312 80.019532-157.976562-8.023438-3.773438-16.394532-5.777344-25-5.777344zm0 0"/><path d="m59.898438 289.816406c-.050782.332032-.097657.664063-.148438.996094.050781-.332031.097656-.664062.148438-.996094zm0 0"/><path d="m73.148438 216c-.007813.039062-.015626.078125-.023438.117188.007812-.039063.015625-.078126.023438-.117188zm0 0"/><path d="m61.445312 279.832031c-.050781.332031-.105468.660157-.15625.992188.050782-.332031.101563-.664063.15625-.992188zm0 0"/><path d="m60.6875 284.65625c-.039062.25-.078125.496094-.117188.746094.039063-.25.078126-.496094.117188-.746094zm0 0"/><path d="m62.230469 274.957031c-.023438.148438-.050781.300781-.074219.449219.023438-.148438.050781-.300781.074219-.449219zm0 0"/><path d="m63.816406 265.460938c-.003906.03125-.011718.058593-.015625.089843.003907-.03125.011719-.0625.015625-.089843zm0 0"/><path d="m63.046875 270.007812c-.046875.292969-.097656.589844-.144531.886719.046875-.296875.097656-.59375.144531-.886719zm0 0"/><path d="m64.703125 260.339844c-.046875.269531-.09375.539062-.140625.808594.046875-.269532.09375-.539063.140625-.808594zm0 0"/></g><path d="m253.652344 116c0 64.066406-51.933594 116-116 116s-116-51.933594-116-116 51.933594-116 116-116 116 51.933594 116 116zm0 0" fill="#ffb74b"/><path d="m132.652344 189.210938v-22.417969h-17v22.417969c0 4.417968 3.582031 8 8 8h17c-4.417969 0-8-3.582032-8-8zm0 0" fill="#ffd551"/><path d="m21.652344 116c0 37.140625 17.457031 70.199219 44.609375 91.433594l1.792969.734375c-.035157.183593-.066407.375-.097657.5625-.003906 0-.003906-.003907-.007812-.003907.003906 0 .003906.003907.007812.003907-7.535156 43.449219-21.445312 131.085937-24.78125 203.09375l-.058593 1.335937-.15625 1.425782c-.859376 8.125-1.449219 18.023437-1.617188 28.414062l40.027344-1.171875c.1875-9.957031.761718-19.421875 1.589844-27.242187l.15625-1.425782.058593-1.335937c2.785157-60.066407 12.921875-131.003907 20.582031-178.101563l1.0625-6.445312c.226563.070312.214844.050781.003907-.039063l.414062-2.503906c.546875-3.296875 1.078125-6.445313 1.585938-9.433594.007812-.039062.015625-.078125.023437-.117187.125-.734375.246094-1.457032.371094-2.167969 0-.011719.003906-.023437.003906-.035156.109375-.640625.21875-1.273438.328125-1.902344.019531-.125.042969-.253906.0625-.378906.089844-.515625.175781-1.019531.265625-1.523438.023438-.148437.050782-.300781.078125-.449219.003907.003907.011719.007813.015625.011719-.003906-.003906-.011718-.007812-.015625-.011719.03125-.1875.0625-.375.09375-.558593h-.8125c-27.707031-21.199219-45.585937-54.589844-45.585937-92.167969 0-54.042969 36.960937-99.441406 86.980468-112.328125-.003906.003906-.007812.003906-.011718.003906l.609375-3.078125c1.398437.136719 2.792969.296875 4.175781.480469-5.152344-.699219-10.410156-1.078125-15.753906-1.078125-64.066406 0-116 51.933594-116 116zm0 0" fill="#ffa730"/><path d="m235.234375 478.078125c.007813-.085937.015625-.179687.023437-.269531-.464843.066406-.921874.144531-1.402343.199218v-39.539062l-1.164063-20.269531h-49.65625l-90.769531-.003907h-49.648437l-1.167969 33.1875v25.671876c.027343.34375.058593.691406.089843 1.027343l-1.195312-.027343 43.308594.949218c4.464844.097656 8.792968-1.433594 12.226562-4.234375 13.078125-10.667969 27.441406-16.566406 42.507813-16.566406 15.070312 0 29.429687 5.898437 42.507812 16.566406 3.4375 2.800781 7.761719 4.332031 12.226563 4.234375l43.308594-.945312zm0 0" fill="#eacf32"/><path d="m258.660156 413.914062c-.390625 0-.785156-.039062-1.183594-.117187-3.25-.652344-5.355468-3.8125-4.707031-7.0625 10.597657-52.992187-16.628906-153.273437-16.902343-154.28125-.878907-3.195313 1.003906-6.496094 4.195312-7.371094s6.496094 1 7.375 4.195313c1.160156 4.226562 28.25 104.058594 17.097656 159.8125-.570312 2.851562-3.074218 4.824218-5.875 4.824218zm0 0" fill="#eacf32"/><path d="m128.152344 191.246094h19.167968v149.328125h-19.167968zm0 0" fill="#a56021"/><path d="m216.074219 345.820312c-9.199219-10.746093-28.242188-9.539062-42.53125 2.695313-14.292969 12.234375-18.417969 30.863281-9.214844 41.609375 9.199219 10.746094 28.242187 9.539062 42.53125-2.695312 14.289063-12.234376 18.417969-30.863282 9.214844-41.609376zm-17.128907 32.363282c-5.273437 4.511718-11.542968 7.101562-17.199218 7.101562-.003906 0 0 0-.003906 0-2.523438 0-5.992188-.53125-8.167969-3.074218-4.136719-4.828126-1.914063-16.058594 7.882812-24.449219 5.273438-4.511719 11.542969-7.101563 17.203125-7.101563 2.523438 0 5.992188.535156 8.167969 3.078125 4.136719 4.828125 1.914063 16.054688-7.882813 24.445313zm0 0" fill="#ffdf74"/><path d="m173.542969 348.515625c-14.289063 12.234375-18.417969 30.863281-9.214844 41.609375 7.558594 8.828125 21.757813 9.585938 34.511719 2.789062l3.953125-18.609374c-1.121094 1.335937-2.398438 2.636718-3.847657 3.878906-5.273437 4.511718-11.542968 7.101562-17.199218 7.101562-2.527344 0-5.996094-.53125-8.171875-3.074218-4.136719-4.828126-1.914063-16.058594 7.886719-24.449219 5.269531-4.511719 11.539062-7.101563 17.199218-7.101563 2.523438 0 5.992188.535156 8.167969 3.078125.09375.105469.179687.222657.265625.335938l2.777344-13.085938c-10.054688-5.058593-24.75-2.386719-36.328125 7.527344zm0 0" fill="#ffd551"/><path d="m161.933594 418.921875h-47.550782c-7.785156 0-14.507812-5.445313-16.125-13.0625l-16.824218-79.167969c-.625-2.929687 1.613281-5.691406 4.605468-5.691406h104.234376c2.996093 0 5.230468 2.761719 4.605468 5.691406l-16.820312 79.167969c-1.617188 7.617187-8.34375 13.0625-16.125 13.0625zm0 0" fill="#ffdf74"/><path d="m116.285156 405.859375-16.820312-79.167969c-.625-2.929687 1.609375-5.691406 4.605468-5.691406h-18.03125c-2.992187 0-5.230468 2.761719-4.605468 5.691406l16.824218 79.167969c1.617188 7.617187 8.339844 13.0625 16.125 13.0625h18.03125c-7.785156 0-14.507812-5.445313-16.128906-13.0625zm0 0" fill="#ffd551"/><path d="m151.652344 197.210938h-28c-4.417969 0-8-3.582032-8-8v-22.417969h44v22.417969c0 4.417968-3.582032 8-8 8zm0 0" fill="#fce575"/><path d="m115.652344 166.792969h44v19.207031h-44zm0 0" fill="#ffd551"/><path d="m168.515625 179h-61.726563c-3.316406 0-6-2.6875-6-6v-18.5c0-3.3125 2.683594-6 6-6h61.726563c3.316406 0 6 2.6875 6 6v18.5c0 3.3125-2.683594 6-6 6zm0 0" fill="#e58d23"/><path d="m124.789062 173v-18.5c0-3.3125 2.683594-6 6-6h-24c-3.316406 0-6 2.6875-6 6v18.5c0 3.3125 2.683594 6 6 6h24c-3.316406 0-6-2.6875-6-6zm0 0" fill="#bf6c0d"/><path d="m168.515625 148.5h-61.726563c-3.316406 0-6 2.6875-6 6v10.507812c11.582032 3.878907 23.972657 5.992188 36.863282 5.992188s25.28125-2.113281 36.863281-5.992188v-10.507812c0-3.3125-2.683594-6-6-6zm0 0" fill="#bf6c0d"/><path d="m253.652344 116c0-64.066406-51.933594-116-116-116s-116 51.933594-116 116c0 8.554688.933594 16.886719 2.691406 24.914062 8.730469-6.148437 16.578125-13.46875 23.308594-21.734374 21.269531 26.128906 53.683594 42.820312 90 42.820312 36.253906 0 68.613281-16.636719 89.886718-42.683594.160157 2.085938 4.46875 60.644532-19.351562 89.160156 0 0 34.875-24.210937 42.910156-67.765624l-.0625-.167969c1.707032-7.910157 2.617188-16.121094 2.617188-24.542969zm0 0" fill="#ccc033"/><path d="m137.652344 0c-11.730469 0-23.054688 1.75-33.730469 4.988281v90.761719c0 18.363281 14.886719 33.25 33.25 33.25 18.367187 0 33.25-14.886719 33.25-33.25v-91.046875c-10.390625-3.054687-21.386719-4.703125-32.769531-4.703125zm0 0" fill="#fcda4f"/><path d="m157.652344 1.722656c-6.496094-1.128906-13.179688-1.722656-20-1.722656-64.066406 0-116 51.933594-116 116 0 8.554688.933594 16.886719 2.691406 24.914062.0625-.046874.121094-.09375.1875-.136718 7.980469 43.464844 42.6875 67.703125 42.6875 67.703125-22.929688-27.601563-19.550781-83.148438-19.140625-88.800781 4.5625 5.542968 9.621094 10.660156 15.125 15.269531-1.019531-6.164063-1.550781-12.496094-1.550781-18.949219 0-57.242188 41.46875-104.796875 96-114.277344zm0 0" fill="#99af17"/><path d="m158.652344 99.910156c-3.3125 0-6-2.683594-6-6v-75c0-3.3125 2.6875-6 6-6s6 2.6875 6 6v75c0 3.316406-2.6875 6-6 6zm0 0" fill="#fce575"/><path d="m235.648438 98.414062c-2.695313 0-5.144532-1.828124-5.820313-4.5625-9.617187-38.929687-33.304687-51.050781-34.308594-51.546874-2.957031-1.464844-4.191406-5.050782-2.746093-8.019532 1.449218-2.964844 5.011718-4.214844 7.980468-2.78125 1.207032.582032 29.671875 14.738282 40.722656 59.46875.796876 3.21875-1.167968 6.46875-4.386718 7.265625-.480469.117188-.964844.175781-1.441406.175781zm0 0" fill="#eacf32"/><path d="m132.765625.109375c-1.222656.050781-2.4375.117187-3.648437.203125-.074219.007812-.152344.011719-.230469.015625-1.316407.101563-2.628907.226563-3.933594.367187-.242187.027344-.480469.054688-.722656.082032-1.25.148437-2.5.304687-3.738281.492187-.042969.003907-.089844.011719-.132813.015625-1.351563.203125-2.695313.433594-4.03125.679688-.117187.023437-.230469.046875-.347656.066406-4.097657.777344-8.117188 1.761719-12.050781 2.957031 0 0-.003907 0-.007813 0v21.46875c15.15625-12.492187 33.53125-21.214843 53.695313-24.726562-.328126-.054688-.664063-.105469-.996094-.160157-1.066406-.175781-2.136719-.34375-3.214844-.492187-.523438-.070313-1.046875-.132813-1.570312-.199219-1.039063-.125-2.078126-.238281-3.125-.339844-.535157-.050781-1.070313-.101562-1.605469-.144531-1.09375-.085937-2.191407-.15625-3.289063-.214843-.480468-.023438-.957031-.058594-1.4375-.078126-1.566406-.0624995-3.144531-.101562-4.726562-.101562-1.3125 0-2.613282.0273438-3.914063.0742188-.324219.0117187-.648437.0234374-.972656.0351562zm0 0" fill="#ffc34c"/><path d="m102.863281 116c0 8.46875-6.863281 15.335938-15.332031 15.335938s-15.335938-6.867188-15.335938-15.335938 6.867188-15.335938 15.335938-15.335938 15.332031 6.867188 15.332031 15.335938zm0 0" fill="#99af17"/></svg>