<svg height="473pt" viewBox="0 -141 473.111 473" width="473pt" xmlns="http://www.w3.org/2000/svg"><path d="m147.699219 3.292969c-8.386719-7.609375-24.84375-1.34375-37.671875 13.941406l.015625-.164063c-29.113281 39.589844-94.183594 45.398438-94.183594 45.398438l1.015625 5.265625h88.894531v-.007813c9.503907 2.324219 23.460938-5.097656 34.238281-19.144531 13.058594-17.019531 16.503907-37.292969 7.691407-45.289062zm0 0" fill="#fcda4f"/><path d="m105.714844 191.214844h-49.671875c-6.058594 0-11.535157-3.597656-13.949219-9.152344l-5.261719-12.132812h88.09375l-5.265625 12.132812c-2.410156 5.554688-7.886718 9.152344-13.945312 9.152344zm0 0" fill="#eacf32"/><path d="m82.09375 182.0625-5.261719-12.132812h-40l5.261719 12.132812c2.414062 5.554688 7.890625 9.152344 13.949219 9.152344h40c-6.058594 0-11.535157-3.597656-13.949219-9.152344zm0 0" fill="#ccc033"/><path d="m121.214844 177.226562h-80.671875c-5.195313 0-9.671875-3.652343-10.71875-8.738281l-19.484375-94.640625h141.082031l-19.488281 94.640625c-1.046875 5.089844-5.527344 8.738281-10.71875 8.738281zm0 0" fill="#ccc033"/><path d="m154.125 73.847656h-147.710938c-3.542968 0-6.414062-2.871094-6.414062-6.414062v-.546875c0-3.542969 2.871094-6.417969 6.414062-6.417969h147.710938c3.542969 0 6.417969 2.875 6.417969 6.417969v.546875c-.003907 3.542968-2.875 6.414062-6.417969 6.414062zm0 0" fill="#eacf32"/><path d="m151.421875 73.847656h-141.082031l1.644531 8 17.839844 86.640625c1.046875 5.089844 5.527343 8.738281 10.71875 8.738281h40c-5.195313 0-9.671875-3.648437-10.71875-8.738281l-16.601563-80.632812c-.640625-3.101563 1.730469-6.007813 4.894532-6.007813h91.65625zm0 0" fill="#99af17"/><path d="m104.238281 169.152344c-3.351562 0-5.945312-.464844-6.527343-.578125-3.253907-.632813-5.378907-3.785157-4.746094-7.039063.632812-3.246094 3.785156-5.367187 7.023437-4.742187 3.121094.585937 8.753907.625 10.929688-1.15625.308593-.253907.953125-.78125.976562-2.660157.042969-3.316406 2.78125-5.96875 6.078125-5.921874 3.3125.039062 5.964844 2.761718 5.921875 6.074218-.078125 6.195313-2.984375 9.851563-5.410156 11.824219-4.1875 3.40625-9.867187 4.199219-14.246094 4.199219zm0 0" fill="#eacf32"/><path d="m123.367188 141.425781c-.375 0-.757813-.035156-1.140626-.109375-3.253906-.628906-5.382812-3.773437-4.757812-7.027344l7.070312-36.78125c.628907-3.253906 3.777344-5.382812 7.027344-4.757812 3.253906.625 5.382813 3.769531 4.757813 7.023438l-7.074219 36.78125c-.550781 2.871093-3.0625 4.871093-5.882812 4.871093zm0 0" fill="#eacf32"/><path d="m95.269531 104.046875c0 8.285156-6.714843 15-15 15-8.285156 0-15-6.714844-15-15 0-8.28125 6.714844-15 15-15 8.285157 0 15 6.71875 15 15zm0 0" fill="#99af17"/><path d="m212.324219 60.46875h49.675781c6.058594 0 11.535156 3.597656 13.945312 9.152344l5.265626 12.132812h-88.09375l5.265624-12.132812c2.40625-5.554688 7.886719-9.152344 13.941407-9.152344zm0 0" fill="#e58d23"/><path d="m252.324219 60.46875h-40c-6.054688 0-11.535157 3.597656-13.945313 9.152344l-5.261718 12.132812h40l5.261718-12.132812c2.410156-5.554688 7.890625-9.152344 13.945313-9.152344zm0 0" fill="#bf6c0d"/><path d="m196.828125 74.457031h80.667969c5.195312 0 9.675781 3.652344 10.722656 8.738281l19.484375 94.640626h-141.082031l19.484375-94.640626c1.046875-5.085937 5.527343-8.738281 10.722656-8.738281zm0 0" fill="#ffa730"/><path d="m163.914062 177.835938h147.710938c3.542969 0 6.417969 2.871093 6.417969 6.417968v.546875c0 3.542969-2.871094 6.414063-6.417969 6.414063h-147.710938c-3.542968 0-6.414062-2.871094-6.414062-6.414063v-.546875c0-3.546875 2.871094-6.417968 6.414062-6.417968zm0 0" fill="#ffb74b"/><path d="m236.828125 74.457031h-40c-5.195313 0-9.675781 3.652344-10.722656 8.738281l-19.484375 94.640626h40l19.484375-94.640626c1.046875-5.085937 5.527343-8.738281 10.722656-8.738281zm0 0" fill="#e58d23"/><path d="m197.5 184.796875v-.546875c0-3.542969 2.871094-6.414062 6.417969-6.414062h-40c-3.542969 0-6.417969 2.871093-6.417969 6.414062v.546875c0 3.542969 2.871094 6.417969 6.417969 6.417969h40c-3.546875 0-6.417969-2.871094-6.417969-6.417969zm0 0" fill="#ffa730"/><path d="m273.894531 104.738281c-3.28125 0-5.957031-2.636719-6-5.925781-.023437-1.878906-.667969-2.40625-.980469-2.660156-2.171874-1.777344-7.804687-1.742188-10.933593-1.152344-3.246094.609375-6.390625-1.519531-7.007813-4.769531-.621094-3.246094 1.488282-6.382813 4.734375-7.015625 1.347657-.261719 13.386719-2.390625 20.773438 3.621094 2.425781 1.976562 5.332031 5.628906 5.414062 11.824218.039063 3.3125-2.613281 6.035156-5.925781 6.078125-.023438 0-.050781 0-.074219 0zm0 0" fill="#ffb74b"/><path d="m286.425781 159.148438c-2.820312 0-5.332031-1.996094-5.886719-4.867188l-7.070312-36.78125c-.625-3.253906 1.503906-6.398438 4.757812-7.023438 3.25-.625 6.398438 1.503907 7.023438 4.757813l7.074219 36.78125c.625 3.253906-1.503907 6.398437-4.757813 7.027344-.382812.070312-.765625.105469-1.140625.105469zm0 0" fill="#ffb74b"/><path d="m245.816406 158.101562c0 8.285157-6.714844 15-15 15s-15-6.714843-15-15c0-8.285156 6.714844-15 15-15s15 6.714844 15 15zm0 0" fill="#e58d23"/><path d="m418.285156 191.214844h-49.675781c-6.054687 0-11.535156-3.597656-13.945313-9.152344l-5.261718-12.132812h88.09375l-5.265625 12.132812c-2.410157 5.554688-7.886719 9.152344-13.945313 9.152344zm0 0" fill="#ff9079"/><path d="m394.664062 182.0625-5.265624-12.132812h-40l5.265624 12.132812c2.410157 5.554688 7.890626 9.152344 13.945313 9.152344h40c-6.054687 0-11.535156-3.597656-13.945313-9.152344zm0 0" fill="#ff624b"/><path d="m433.78125 177.226562h-80.667969c-5.195312 0-9.675781-3.652343-10.722656-8.738281l-19.484375-94.640625h141.082031l-19.484375 94.640625c-1.046875 5.089844-5.527344 8.738281-10.722656 8.738281zm0 0" fill="#ff624b"/><path d="m466.695312 73.847656h-147.710937c-3.542969 0-6.414063-2.871094-6.414063-6.414062v-.546875c0-3.542969 2.871094-6.417969 6.414063-6.417969h147.710937c3.542969 0 6.414063 2.875 6.414063 6.417969v.546875c0 3.542968-2.871094 6.414062-6.414063 6.414062zm0 0" fill="#ff9079"/><path d="m463.988281 73.847656h-141.082031l19.484375 94.640625c1.050781 5.089844 5.527344 8.738281 10.722656 8.738281h40c-5.195312 0-9.675781-3.648437-10.722656-8.738281l-16.1875-78.632812c-.640625-3.101563 1.730469-6.007813 4.898437-6.007813h90.828126zm0 0" fill="#ff4b34"/><path d="m352.570312 67.433594v-.546875c0-3.542969 2.871094-6.417969 6.414063-6.417969h-40c-3.542969 0-6.414063 2.875-6.414063 6.417969v.546875c0 3.542968 2.871094 6.414062 6.414063 6.414062h40c-3.542969 0-6.414063-2.871094-6.414063-6.414062zm0 0" fill="#ff624b"/><path d="m417.238281 169.152344c-3.351562 0-5.945312-.464844-6.527343-.578125-3.253907-.632813-5.378907-3.785157-4.746094-7.039063.632812-3.246094 3.78125-5.367187 7.023437-4.742187 3.121094.585937 8.753907.625 10.929688-1.15625.308593-.253907.953125-.78125.976562-2.660157.042969-3.316406 2.777344-5.96875 6.078125-5.921874 3.3125.039062 5.964844 2.761718 5.921875 6.074218-.078125 6.195313-2.984375 9.851563-5.410156 11.824219-4.1875 3.40625-9.867187 4.199219-14.246094 4.199219zm0 0" fill="#ff9079"/><path d="m436.367188 141.425781c-.375 0-.757813-.035156-1.140626-.109375-3.253906-.628906-5.382812-3.773437-4.757812-7.027344l7.070312-36.78125c.628907-3.253906 3.777344-5.382812 7.027344-4.757812 3.253906.625 5.382813 3.769531 4.757813 7.023438l-7.074219 36.78125c-.550781 2.871093-3.0625 4.871093-5.882812 4.871093zm0 0" fill="#ff9079"/><path d="m405.046875 104.371094c0 8.285156-6.714844 15-15 15s-15-6.714844-15-15 6.714844-15 15-15 15 6.714844 15 15zm0 0" fill="#ff4b34"/><path d="m40 67.433594v-.546875c0-3.542969 2.871094-6.417969 6.414062-6.417969h-40c-3.542968 0-6.414062 2.875-6.414062 6.417969v.546875c0 3.542968 2.871094 6.414062 6.414062 6.414062h40c-3.542968 0-6.414062-2.871094-6.414062-6.414062zm0 0" fill="#ccc033"/></svg>