<svg height="456pt" viewBox="-54 0 456 456.556" width="456pt" xmlns="http://www.w3.org/2000/svg"><path d="m157.761719 148.660156h28.324219v286.296875h-28.324219zm0 0" fill="#fcf9de"/><path d="m157.761719 148.660156h17v286.296875h-17zm0 0" fill="#fff4c1"/><path d="m339.085938 0h-328.808594c-5.523438 0-10 4.476562-10 10v23.664062c0 92.46875 74.960937 167.429688 167.429687 167.429688h13.949219c92.46875 0 167.429688-74.960938 167.429688-167.429688v-23.664062c0-5.523438-4.476563-10-10-10zm0 0" fill="#fcf9de"/><path d="m227.707031 191.09375c-92.46875 0-167.429687-74.960938-167.429687-167.429688v-23.664062h-50c-5.519532 0-10 4.476562-10 10v23.664062c0 92.46875 74.960937 167.429688 167.429687 167.429688h13.949219c20.058594 0 39.292969-3.53125 57.117188-10zm0 0" fill="#fff4c1"/><path d="m260.359375 456.554688c4.398437 0 6.457031-5.457032 3.148437-8.351563-21.117187-18.484375-53.054687-30.273437-88.824218-30.273437-35.773438 0-67.710938 11.789062-88.828125 30.273437-3.308594 2.898437-1.25 8.351563 3.148437 8.351563zm0 0" fill="#fcf9de"/><path d="m20.277344 33.664062c0 9.425782.902344 18.644532 2.601562 27.585938h303.605469c1.699219-8.941406 2.601563-18.160156 2.601563-27.585938v-3.664062c0-5.523438-4.476563-10-10-10h-288.808594c-5.523438 0-10 4.476562-10 10zm0 0" fill="#ffeacf"/><path d="m22.878906 61.25c12.953125 68.152344 72.960938 119.84375 144.828125 119.84375h13.949219c71.867188 0 131.875-51.691406 144.832031-119.84375zm0 0" fill="#a56021"/><path d="m60.277344 30c0-5.523438 4.476562-10 10-10h-40c-5.523438 0-10 4.476562-10 10v3.664062c0 9.429688.902344 18.648438 2.601562 27.585938h40c-1.699218-8.9375-2.601562-18.15625-2.601562-27.585938zm0 0" fill="#ffd59a"/><path d="m62.878906 61.25h-40c12.953125 68.152344 72.960938 119.84375 144.828125 119.84375h13.949219c4.390625 0 8.734375-.195312 13.027344-.574219-65.996094-5.804687-119.644532-55.28125-131.804688-119.269531zm0 0" fill="#8c4c17"/><path d="m125.855469 448.203125c17.089843-14.960937 41.265625-25.53125 68.828125-29.019531-6.496094-.824219-13.179688-1.253906-20-1.253906-35.773438 0-67.710938 11.789062-88.828125 30.273437-3.308594 2.894531-1.25 8.351563 3.148437 8.351563h40c-4.394531 0-6.457031-5.457032-3.148437-8.351563zm0 0" fill="#fff4c1"/><path d="m224.175781 159.207031c-2.386719 0-4.640625-1.433593-5.574219-3.78125-1.230468-3.078125.273438-6.570312 3.351563-7.796875 15.996094-6.375 19.1875-11.53125 19.21875-11.582031-.160156.269531-.195313.421875-.195313.421875l11.132813 4.472656c-.851563 2.121094-5.21875 9.667969-25.710937 17.835938-.730469.292968-1.484376.429687-2.222657.429687zm0 0" fill="#fff4c1"/><g fill="#bf6c0d"><path d="m152.472656 100.546875c0 8.285156-6.714844 15-15 15-8.28125 0-15-6.714844-15-15s6.71875-15 15-15c8.285156 0 15 6.714844 15 15zm0 0"/><path d="m181.261719 148.660156c0 8.285156-6.714844 15-15 15-8.285157 0-15-6.714844-15-15s6.714843-15 15-15c8.285156 0 15 6.714844 15 15zm0 0"/><path d="m211.261719 81.4375c0 8.285156-6.714844 15-15 15-8.285157 0-15-6.714844-15-15s6.714843-15 15-15c8.285156 0 15 6.714844 15 15zm0 0"/></g><path d="m267.894531 126.871094c-1.824219 0-3.628906-.828125-4.804687-2.402344-1.988282-2.648438-1.453125-6.402344 1.1875-8.390625.285156-.21875 28.75-22.183594 40.242187-67.335937.816407-3.210938 4.082031-5.152344 7.292969-4.335938 3.214844.816406 5.152344 4.082031 4.335938 7.292969-12.585938 49.464843-43.355469 72.996093-44.660157 73.972656-1.078125.808594-2.34375 1.199219-3.59375 1.199219zm0 0" fill="#fff4c1"/></svg>