<svg height="450pt" viewBox="-62 0 450 450.43902" width="450pt" xmlns="http://www.w3.org/2000/svg"><path d="m45.796875 429.195312h165.292969v11.242188c0 5.523438-4.476563 10-10 10h-145.292969c-5.519531 0-10-4.476562-10-10zm0 0" fill="#bf6c0d"/><path d="m286.1875 222.515625c.152344.859375.246094 1.746094.246094 2.652344v87.9375c0 8.277343-6.710938 14.988281-14.988282 14.988281h-66.105468v29.980469h76.097656c19.316406 0 34.976562-15.660157 34.976562-34.976563v-100.582031zm0 0" fill="#bf6c0d"/><path d="m292.011719 192.535156h-76.097657v29.980469h66.105469c8.277344 0 14.988281 6.710937 14.988281 14.988281v87.9375c0 8.277344-6.710937 14.988282-14.988281 14.988282h-66.105469v29.980468h76.097657c19.316406 0 34.976562-15.660156 34.976562-34.976562v-107.921875c0-19.316407-15.660156-34.976563-34.976562-34.976563zm0 0" fill="#e58d23"/><path d="m292.011719 192.535156h-76.097657v29.980469h66.105469c8.277344 0 14.988281 6.710937 14.988281 14.988281v87.9375c0 8.277344-6.710937 14.988282-14.988281 14.988282h-66.105469v29.980468h76.097657c19.316406 0 34.976562-15.660156 34.976562-34.976562v-107.921875c0-19.316407-15.660156-34.976563-34.976562-34.976563zm0 0" fill="#f9bb32"/><path d="m215.914062 192.535156h60.5625v29.980469h-60.5625zm0 0" fill="#db9c2e"/><path d="m215.914062 340.429688h60.5625v29.980468h-60.5625zm0 0" fill="#db9c2e"/><path d="m185.042969 435.238281h-119.824219c-35.898438 0-65-29.101562-65-65v-227.53125c0-8.285156 6.714844-15 15-15h219.824219c8.285156 0 15 6.714844 15 15v227.53125c0 35.898438-29.101563 65-65 65zm0 0" fill="#f9bb32"/><path d="m229.347656 342.527344c-3.3125 0-6-2.6875-6-6v-149.183594c0-3.316406 2.6875-6 6-6s6 2.683594 6 6v149.183594c0 3.3125-2.683594 6-6 6zm0 0" fill="#ffc34c"/><path d="m203.445312 407.148438c-2.519531 0-5.167968-.214844-7.941406-.644532-3.277344-.511718-5.515625-3.578125-5.007812-6.851562.507812-3.273438 3.574218-5.515625 6.851562-5.007813 8.652344 1.347657 15.1875-.042969 19.414063-4.125 8.378906-8.085937 6.648437-24.734375 6.628906-24.902343-.390625-3.289063 1.957031-6.273438 5.246094-6.667969 3.285156-.398438 6.277343 1.953125 6.671875 5.246093.109375.917969 2.539062 22.648438-10.210938 34.957032-5.515625 5.320312-12.773437 7.996094-21.652344 7.996094zm0 0" fill="#ffc34c"/><path d="m312.523438 319.472656c-3.316407 0-6-2.6875-6-6v-85.667968c0-3.316407 2.683593-6 6-6 3.3125 0 6 2.683593 6 6v85.667968c0 3.3125-2.6875 6-6 6zm0 0" fill="#ffc34c"/><path d="m154.46875 241.296875c-21.460938-21.460937-51.996094-25.722656-68.199219-9.519531-16.207031 16.207031-11.945312 46.742187 9.515625 68.203125 21.460938 21.457031 51.996094 25.71875 68.199219 9.515625 16.207031-16.207032 11.945313-46.742188-9.515625-68.199219zm0 0" fill="#a56021"/><path d="m163.988281 288.410156c-16.203125 16.207032-46.738281 11.945313-68.199219-9.515625-9.5-9.496093-15.621093-20.773437-18.097656-31.792969-4.183594 16.304688 2.273438 37.054688 18.097656 52.878907 21.460938 21.460937 51.996094 25.71875 68.199219 9.515625 9.035157-9.035156 11.703125-22.519532 8.582031-36.40625-1.492187 5.8125-4.324218 11.0625-8.582031 15.320312zm0 0" fill="#8c4c17"/><path d="m116.644531 240.90625c11.71875 11.722656 12.832031 29.191406 12.875 29.953125.773438 28.953125 29.667969 30.839844 30.894531 30.90625 2.535157.136719 4.605469 2.296875 4.625 4.828125.019532 2.53125-2.015624 4.472656-4.550781 4.335938-13.53125-.730469-39.339843-10.082032-40.140625-40.257813 0-.007813-1.0625-15.308594-10.777344-24.234375-5.011718-4.59375-11.644531-6.789062-19.722656-6.535156-2.523437.082031-4.757812-1.910156-4.996094-4.4375-.234374-2.535156 1.617188-4.652344 4.140626-4.734375 10.675781-.339844 19.625 2.746093 26.601562 9.171875.359375.328125.710938.664062 1.050781 1.003906zm0 0" fill="#8c4c17"/><path d="m182.445312 3.160156c-14.785156-7.886718-36.257812-.527344-54 16.671875-17.742187-17.199219-39.214843-24.558593-54-16.671875-19.480468 10.386719-19.976562 43.269532-1.109374 73.449219 11.253906 18 26.851562 30.964844 41.742187 36.300781 4.058594 1.953125 8.578125 2.820313 13.367187 2.683594 4.792969.136719 9.308594-.730469 13.367188-2.683594 14.890625-5.335937 30.488281-18.300781 41.742188-36.300781 18.867187-30.179687 18.371093-63.0625-1.109376-73.449219zm0 0" fill="#ff624b"/><path d="m108.582031 76.609375c-17.992187-28.78125-18.363281-60.003906-1.464843-71.847656-11.808594-5.519531-23.523438-6.484375-32.675782-1.601563-19.476562 10.386719-19.972656 43.269532-1.105468 73.449219 11.25 18 26.847656 30.964844 41.742187 36.300781 4.054687 1.953125 8.574219 2.820313 13.367187 2.683594 4.789063.136719 9.308594-.730469 13.363282-2.683594 1.414062-.503906 2.835937-1.101562 4.257812-1.742187-13.554687-6.121094-27.300781-18.269531-37.484375-34.558594zm0 0" fill="#ff4b34"/><path d="m177.332031 59.042969c-.492187 0-.992187-.058594-1.488281-.1875-3.210938-.820313-5.148438-4.089844-4.328125-7.300781 3.136719-12.253907 2.785156-20.921876-.980469-24.40625-3.941406-3.648438-12.292968-1.925782-14.910156-1.039063-3.121094 1.066406-6.539062-.59375-7.617188-3.71875-1.074218-3.125.566407-6.527344 3.6875-7.617187 1.710938-.597657 17.023438-5.582032 26.9375 3.519531 7.402344 6.792969 8.921876 18.988281 4.507813 36.234375-.691406 2.714844-3.132813 4.515625-5.808594 4.515625zm0 0" fill="#ff9079"/><g fill="#db9c2e"><path d="m95.003906 366.773438c0 8-6.484375 14.484374-14.484375 14.484374s-14.484375-6.484374-14.484375-14.484374 6.484375-14.484376 14.484375-14.484376 14.484375 6.484376 14.484375 14.484376zm0 0"/><path d="m128.445312 401.375c0 8-6.484374 14.484375-14.484374 14.484375s-14.488282-6.484375-14.488282-14.484375 6.488282-14.484375 14.488282-14.484375 14.484374 6.484375 14.484374 14.484375zm0 0"/><path d="m111.269531 425.582031c-34.664062 0-62.765625-28.101562-62.765625-62.769531v-230.277344c0-1.695312.304688-3.316406.839844-4.828125h-34.640625c-8 0-14.484375 6.484375-14.484375 14.484375v230.28125c0 34.664063 28.101562 62.765625 62.769531 62.765625h124.285157c12.296874 0 23.753906-3.546875 33.4375-9.65625zm0 0"/></g></svg>