<svg height="456pt" viewBox="-57 0 456 456.556" width="456pt" xmlns="http://www.w3.org/2000/svg"><path d="m342.695312 228.277344h-342.417968v-188.277344c0-22.089844 17.910156-40 40-40h262.417968c22.089844 0 40 17.910156 40 40zm0 0" fill="#bf6c0d"/><g fill="#a56021"><path d="m301.027344 51.585938c0 8.601562-6.972656 15.574218-15.574219 15.574218-8.597656 0-15.570313-6.972656-15.570313-15.574218 0-8.597657 6.972657-15.570313 15.570313-15.570313 8.601563 0 15.574219 6.972656 15.574219 15.570313zm0 0"/><path d="m301.027344 99.085938c0 8.601562-6.972656 15.574218-15.574219 15.574218-8.597656 0-15.570313-6.972656-15.570313-15.574218 0-8.597657 6.972657-15.570313 15.570313-15.570313 8.601563 0 15.574219 6.972656 15.574219 15.570313zm0 0"/><path d="m59.871094 103.085938c0 8.601562-6.972656 15.574218-15.570313 15.574218-8.601562 0-15.574219-6.972656-15.574219-15.574218 0-8.597657 6.972657-15.570313 15.574219-15.570313 8.597657 0 15.570313 6.972656 15.570313 15.570313zm0 0"/><path d="m63.4375 158.851562c0 10.570313-8.566406 19.136719-19.136719 19.136719-10.570312 0-19.140625-8.566406-19.140625-19.136719 0-10.570312 8.570313-19.140624 19.140625-19.140624 10.570313 0 19.136719 8.570312 19.136719 19.140624zm0 0"/><path d="m59.871094 55.585938c0 8.601562-6.972656 15.574218-15.570313 15.574218-8.601562 0-15.574219-6.972656-15.574219-15.574218 0-8.597657 6.972657-15.570313 15.574219-15.570313 8.597657 0 15.570313 6.972656 15.570313 15.570313zm0 0"/></g><path d="m312.695312 456.554688h-282.417968c-16.566406 0-30-13.429688-30-30v-198.886719h342.417968v198.886719c0 16.570312-13.433593 30-30 30zm0 0" fill="#ffa730"/><path d="m40.277344 426.554688v-198.886719h-40v198.886719c0 16.570312 13.433594 30 30 30h40c-16.566406 0-30-13.429688-30-30zm0 0" fill="#e58d23"/><path d="m98.410156 264.292969h146.152344v131.800781h-146.152344zm0 0" fill="#e58d23"/><path d="m234.5625 110.660156h-126.152344c-5.523437 0-10-4.476562-10-10v-54.46875c0-5.523437 4.476563-10 10-10h126.152344c5.523438 0 10 4.476563 10 10v54.46875c0 5.523438-4.476562 10-10 10zm0 0" fill="#ffdf74"/><path d="m65.871094 47.585938c0 8.601562-6.972656 15.574218-15.570313 15.574218-8.601562 0-15.574219-6.972656-15.574219-15.574218 0-8.597657 6.972657-15.570313 15.574219-15.570313 8.597657 0 15.570313 6.972656 15.570313 15.570313zm0 0" fill="#ffc34c"/><path d="m65.871094 95.085938c0 8.601562-6.972656 15.574218-15.570313 15.574218-8.601562 0-15.574219-6.972656-15.574219-15.574218 0-8.597657 6.972657-15.570313 15.574219-15.570313 8.597657 0 15.570313 6.972656 15.570313 15.570313zm0 0" fill="#ffc34c"/><path d="m307.027344 47.585938c0 8.601562-6.972656 15.574218-15.574219 15.574218-8.597656 0-15.570313-6.972656-15.570313-15.574218 0-8.597657 6.972657-15.570313 15.570313-15.570313 8.601563 0 15.574219 6.972656 15.574219 15.570313zm0 0" fill="#ffc34c"/><path d="m307.027344 95.085938c0 8.601562-6.972656 15.574218-15.574219 15.574218-8.597656 0-15.570313-6.972656-15.570313-15.574218 0-8.597657 6.972657-15.570313 15.570313-15.570313 8.601563 0 15.574219 6.972656 15.574219 15.570313zm0 0" fill="#ffc34c"/><path d="m69.4375 150.851562c0 10.570313-8.566406 19.136719-19.136719 19.136719-10.570312 0-19.140625-8.566406-19.140625-19.136719 0-10.570312 8.570313-19.140624 19.140625-19.140624 10.570313 0 19.136719 8.570312 19.136719 19.140624zm0 0" fill="#db9c2e"/><path d="m183.1875 173.296875h-23.40625c-2.761719 0-5-2.238281-5-5v-37.328125c0-2.757812 2.238281-5 5-5h23.40625c2.761719 0 5 2.242188 5 5v37.328125c0 2.761719-2.238281 5-5 5zm0 0" fill="#ff624b"/><path d="m50.300781 322.929688h-.332031c-3.652344 0-6.613281-2.960938-6.613281-6.613282v-169.429687c0-3.652344 2.960937-6.613281 6.613281-6.613281h.332031c3.652344 0 6.609375 2.960937 6.609375 6.613281v169.429687c0 3.652344-2.957031 6.613282-6.609375 6.613282zm0 0" fill="#ffd551"/><path d="m98.410156 227.667969h146.152344v200.953125h-146.152344zm0 0" fill="#ffd551"/><path d="m121.820312 264.292969h99.332032v131.800781h-99.332032zm0 0" fill="#e58d23"/><path d="m80.277344 0h-40c-22.089844 0-40 17.910156-40 40v188.277344h40v-188.277344c0-22.089844 17.910156-40 40-40zm0 0" fill="#a56021"/><path d="m65.871094 47.585938c0 8.601562-6.972656 15.574218-15.570313 15.574218-8.601562 0-15.574219-6.972656-15.574219-15.574218 0-8.597657 6.972657-15.570313 15.574219-15.570313 8.597657 0 15.570313 6.972656 15.570313 15.570313zm0 0" fill="#ffc34c"/><path d="m65.871094 47.585938c0 8.601562-6.972656 15.574218-15.570313 15.574218-8.601562 0-15.574219-6.972656-15.574219-15.574218 0-8.597657 6.972657-15.570313 15.574219-15.570313 8.597657 0 15.570313 6.972656 15.570313 15.570313zm0 0" fill="#ffc34c"/><path d="m34.726562 47.585938c0 4.78125 2.160157 9.054687 5.550782 11.910156v-19.496094c0-1.535156.09375-3.046875.261718-4.539062-3.539062 2.855468-5.8125 7.222656-5.8125 12.125zm0 0" fill="#ffb74b"/><path d="m40.277344 83.175781c-3.390625 2.859375-5.546875 7.128907-5.546875 11.910157s2.15625 9.054687 5.546875 11.910156zm0 0" fill="#ffb74b"/><path d="m40.277344 134.570312c-5.460938 3.367188-9.117188 9.390626-9.117188 16.28125 0 6.890626 3.65625 12.910157 9.117188 16.28125zm0 0" fill="#e58d23"/><path d="m51.355469 316.316406v-169.429687c0-2.222657 1.097656-4.179688 2.777343-5.378907-1.082031-.773437-2.402343-1.230468-3.832031-1.230468h-.332031c-3.652344 0-6.613281 2.957031-6.613281 6.609375v169.429687c0 3.652344 2.960937 6.613282 6.613281 6.613282h.332031c1.429688 0 2.753907-.457032 3.832031-1.230469-1.679687-1.199219-2.777343-3.160157-2.777343-5.382813zm0 0" fill="#f9bb32"/><path d="m61.765625 249.765625h-22.929687c-2.761719 0-5-2.238281-5-5v-24.710937c0-2.761719 2.238281-5 5-5h22.929687c2.757813 0 5 2.238281 5 5v24.710937c0 2.761719-2.238281 5-5 5zm0 0" fill="#a56021"/><path d="m47.835938 244.765625v-24.710937c0-2.761719 2.238281-5 5-5h-14c-2.761719 0-5 2.238281-5 5v24.710937c0 2.761719 2.238281 5 5 5h14c-2.761719 0-5-2.238281-5-5zm0 0" fill="#8c4c17"/><path d="m219.5625 456.554688h-96.152344c-13.808594 0-25-11.191407-25-25v-25.027344c0-5.519532 4.476563-10 10-10h126.152344c5.523438 0 10 4.480468 10 10v25.027344c0 13.808593-11.191406 25-25 25zm0 0" fill="#f9bb32"/><path d="m138.410156 431.554688v-25.027344c0-5.519532 4.476563-10 10-10h-40c-5.523437 0-10 4.480468-10 10v25.027344c0 13.808593 11.191406 25 25 25h40c-13.808594 0-25-11.191407-25-25zm0 0" fill="#db9c2e"/><path d="m121.820312 264.292969h19.476563v131.800781h-19.476563zm0 0" fill="#bf6c0d"/><path d="m108.410156 90.660156v-54.46875c-5.523437 0-10 4.476563-10 10v54.46875c0 5.523438 4.476563 10 10 10h126.152344c5.523438 0 10-4.476562 10-10h-126.152344c-5.523437 0-10-4.476562-10-10zm0 0" fill="#ffd551"/><path d="m166.78125 168.296875v-37.324219c0-2.761718 2.242188-5 5-5h-12c-2.757812 0-5 2.238282-5 5v37.324219c0 2.761719 2.242188 5 5 5h12c-2.761719 0-5-2.238281-5-5zm0 0" fill="#ff4b34"/><path d="m313.695312 280.945312c-3.3125 0-6-2.6875-6-6v-21.746093c0-3.316407 2.6875-6 6-6s6 2.683593 6 6v21.746093c0 3.3125-2.6875 6-6 6zm0 0" fill="#f9bb32"/><path d="m313.695312 422.945312c-3.3125 0-6-2.6875-6-6v-118.667968c0-3.3125 2.6875-6 6-6s6 2.6875 6 6v118.667968c0 3.3125-2.6875 6-6 6zm0 0" fill="#f9bb32"/><path d="m313.695312 220.351562c-3.3125 0-6-2.6875-6-6v-88.988281c0-3.316406 2.6875-6 6-6s6 2.683594 6 6v88.988281c0 3.3125-2.6875 6-6 6zm0 0" fill="#e58d23"/><path d="m210.117188 448.945312c-2 0-4.105469-.128906-6.3125-.382812-3.292969-.375-5.65625-3.351562-5.28125-6.640625.378906-3.292969 3.347656-5.65625 6.648437-5.28125 5.644531.648437 13.101563.558594 16.554687-3.546875 4.199219-4.988281 1.699219-14.363281 1.667969-14.457031-.933593-3.179688.886719-6.515625 4.066407-7.449219 3.179687-.933594 6.511718.886719 7.449218 4.066406.183594.628906 4.4375 15.539063-4 25.566406-4.546875 5.402344-11.523437 8.125-20.792968 8.125zm0 0" fill="#ffc34c"/><path d="m231.859375 338.621094c-7.21875-8.433594-22.167969-7.488282-33.382813 2.117187-11.214843 9.601563-14.457031 24.222657-7.234374 32.660157 7.222656 8.433593 22.167968 7.484374 33.386718-2.117188 11.214844-9.601562 14.453125-24.226562 7.230469-32.660156zm-13.445313 25.402344c-4.136718 3.542968-9.058593 5.574218-13.5 5.574218 0 0 0 0-.003906 0-1.980468 0-4.703125-.417968-6.410156-2.414062-3.246094-3.792969-1.503906-12.605469 6.1875-19.1875 4.136719-3.542969 9.058594-5.574219 13.503906-5.574219 1.980469 0 4.703125.417969 6.410156 2.414063 3.246094 3.789062 1.503907 12.601562-6.1875 19.1875zm0 0" fill="#fcf9de"/><path d="m231.859375 338.621094c-7.21875-8.433594-22.167969-7.488282-33.382813 2.117187-11.214843 9.601563-14.457031 24.222657-7.234374 32.660157 7.222656 8.433593 22.167968 7.484374 33.386718-2.117188 11.214844-9.601562 14.453125-24.226562 7.230469-32.660156zm-13.445313 25.402344c-4.136718 3.542968-9.058593 5.574218-13.5 5.574218 0 0 0 0-.003906 0-1.980468 0-4.703125-.417968-6.410156-2.414062-3.246094-3.792969-1.503906-12.605469 6.1875-19.1875 4.136719-3.542969 9.058594-5.574219 13.503906-5.574219 1.980469 0 4.703125.417969 6.410156 2.414063 3.246094 3.789062 1.503907 12.601562-6.1875 19.1875zm0 0" fill="#ccc033"/><path d="m198.476562 340.734375c-11.21875 9.605469-14.457031 24.226563-7.234374 32.660156 5.933593 6.929688 17.078124 7.523438 27.089843 2.191407l3.101563-14.609376c-.878906 1.046876-1.882813 2.070313-3.019532 3.046876-4.136718 3.539062-9.058593 5.574218-13.5 5.574218 0 0 0 0-.003906 0-1.980468 0-4.703125-.421875-6.410156-2.414062-3.246094-3.792969-1.503906-12.605469 6.1875-19.191406 4.136719-3.539063 9.058594-5.570313 13.503906-5.570313 1.980469 0 4.703125.417969 6.410156 2.414063.074219.082031.140626.171874.207032.261718l2.183594-10.269531c-7.894532-3.96875-19.429688-1.871094-28.515626 5.90625zm0 0" fill="#99af17"/><path d="m189.363281 395.996094h-37.324219c-6.109374 0-11.386718-4.273438-12.65625-10.25l-13.203124-62.140625c-.488282-2.300781 1.265624-4.464844 3.617187-4.464844h81.8125c2.351563 0 4.105469 2.164063 3.613281 4.464844l-13.203125 62.140625c-1.269531 5.976562-6.546875 10.25-12.65625 10.25zm0 0" fill="#ccc033"/><path d="m153.535156 385.746094-13.203125-62.140625c-.488281-2.300781 1.265625-4.464844 3.617188-4.464844h-14.152344c-2.351563 0-4.105469 2.164063-3.617187 4.464844l13.203124 62.140625c1.269532 5.976562 6.546876 10.25 12.65625 10.25h14.152344c-6.109375 0-11.386718-4.273438-12.65625-10.25zm0 0" fill="#99af17"/><path d="m160.566406 242.664062h20.273438v75.945313h-20.273438zm0 0" fill="#a56021"/><path d="m195.390625 289.476562h-47.808594c-9.859375 0-17.855469-7.996093-17.855469-17.855468v-18.421875h83.515626v18.421875c0 9.859375-7.992188 17.855468-17.851563 17.855468zm0 0" fill="#fff4c1"/><path d="m155.726562 273.199219h57.4375c.046876-.523438.082032-1.046875.082032-1.578125v-18.421875h-83.515625v18.421875c0 9.863281 7.992187 17.855468 17.851562 17.855468h2.148438v-10.277343c-.003907-3.316407 2.683593-6 5.996093-6zm0 0" fill="#fce575"/><path d="m229.5625 264.292969h-116.152344c-8.285156 0-15-6.714844-15-15v-43.25c0-8.285157 6.714844-15 15-15h116.152344c8.285156 0 15 6.714843 15 15v43.25c0 8.285156-6.714844 15-15 15zm0 0" fill="#f9bb32"/><path d="m138.410156 249.292969v-43.25c0-8.285157 6.714844-15 15-15h-40c-8.285156 0-15 6.714843-15 15v43.25c0 8.285156 6.714844 15 15 15h40c-8.285156 0-15-6.714844-15-15zm0 0" fill="#db9c2e"/><path d="m231.855469 237.601562c-.289063 0-.582031-.019531-.875-.0625-3.28125-.480468-5.550781-3.527343-5.070313-6.804687 1.21875-8.359375.003906-14.464844-3.609375-18.144531-5.910156-6.007813-16.914062-4.675782-17.027343-4.660156-3.265626.417968-6.289063-1.886719-6.722657-5.160157-.4375-3.277343 1.847657-6.285156 5.121094-6.734375.6875-.089844 16.949219-2.1875 27.113281 8.070313 6.445313 6.5 8.796875 16.042969 7 28.363281-.4375 2.984375-3 5.132812-5.929687 5.132812zm0 0" fill="#ffc34c"/><path d="m78.4375 420.324219c0 8.285156-6.714844 15-15 15-8.28125 0-15-6.714844-15-15 0-8.285157 6.71875-15 15-15 8.285156 0 15 6.714843 15 15zm0 0" fill="#e58d23"/><path d="m175.566406 240.664062c0 8.285157-6.714844 15-15 15s-15-6.714843-15-15c0-8.28125 6.714844-15 15-15s15 6.71875 15 15zm0 0" fill="#db9c2e"/></svg>