<svg height="456pt" viewBox="-15 0 456 456.556" width="456pt" xmlns="http://www.w3.org/2000/svg"><path d="m197.046875 183.871094c.636719 1.960937 2.609375 3.304687 4.855469 3.308594l68.941406.136718 68.945312.136719c2.242188.003906 4.222657-1.332031 4.867188-3.289063 4.792969-14.550781 23.683594-74.40625 26.472656-122.152343v-.003907c.042969-21.460937-23.511718-38.90625-52.609375-38.964843l-94.695312-.1875c-29.097657-.058594-52.722657 17.292969-52.765625 38.753906v.003906c2.601562 47.757813 21.253906 107.6875 25.988281 122.257813zm0 0" fill="#bf6c0d"/><path d="m318.515625 23.042969-94.691406-.1875c-29.101563-.058594-52.726563 17.292969-52.765625 38.753906v.003906c.105468 2.007813.246094 4.035157.410156 6.082031.007812.097657.015625.195313.023438.292969.164062 2 .351562 4.019531.5625 6.046875.011718.128906.023437.253906.039062.382813.214844 2.03125.449219 4.074219.707031 6.128906.011719.097656.023438.195313.035157.292969 5.464843 43.425781 20.09375 90.367187 24.210937 103.03125.636719 1.960937 2.609375 3.304687 4.855469 3.308594l68.941406.136718 68.945312.136719c.371094 0 .730469-.046875 1.082032-.117187l-10.027344-.019532-68.941406-.136718c-2.246094-.003907-4.21875-1.347657-4.855469-3.308594-3.242187-9.980469-13.015625-41.242188-19.6875-75.300782-2.175781-11.097656 6.367187-21.410156 17.675781-21.410156h113.417969c1.257813-8.546875 2.199219-17.023437 2.675781-25.148437v-.003907c.042969-21.460937-23.511718-38.90625-52.613281-38.964843zm0 0" fill="#a56021"/><path d="m331.519531 176.261719c-.769531 0-1.550781-.148438-2.304687-.460938-3.058594-1.277343-4.503906-4.789062-3.230469-7.847656 16.101563-38.660156 18.304687-68.175781 18.324219-68.46875.226562-3.308594 3.105468-5.800781 6.402344-5.570313 3.304687.226563 5.796874 3.09375 5.570312 6.398438-.089844 1.28125-2.367188 31.792969-19.21875 72.253906-.960938 2.304688-3.195312 3.695313-5.542969 3.695313zm0 0" fill="#e58d23"/><path d="m147.488281 456.554688h-129.210937c-9.941406 0-18-8.058594-18-18v-420.554688c0-9.941406 8.058594-18 18-18h129.210937zm0 0" fill="#8c4c17"/><path d="m360.386719 67.160156c6.078125 0 11-4.925781 11-11v-38.160156c0-9.941406-8.058594-18-18-18h-317.109375c-9.941406 0-18 8.058594-18 18v420.554688c0 9.941406 8.058594 18 18 18h317.109375c9.941406 0 18-8.058594 18-18v-54.515626c0-9.9375-8.058594-18-18-18h-178.898438c-4.96875 0-9-4.027343-9-9v-280.878906c0-4.972656 4.03125-9 9-9zm0 0" fill="#e58d23"/><path d="m392.6875 234.246094h-21.132812l20.757812 57.96875c.242188.667968.292969 1.386718.140625 2.101562-.378906 1.820313-2.132813 3.027344-3.992187 3.027344h-64.886719v-63.097656h-19.894531v82.992187h85.023437c13.105469 0 23.730469-10.625 23.730469-23.730469 0-2.726562-.472656-5.433593-1.390625-8zm0 0" fill="#bf6c0d"/><path d="m424.042969 297.507812-24.144531-67.425781c-3.378907-9.433593-12.320313-15.730469-22.339844-15.730469h-60.878906v114.886719h85.023437c13.105469 0 23.730469-10.625 23.730469-23.730469 0-2.726562-.472656-5.433593-1.390625-8zm-18.589844 8.808594c-.378906 1.820313-2.132813 3.027344-3.992187 3.027344h-64.886719v-75.097656h40.984375c1.613281 0 3.066406 1.019531 3.609375 2.542968l24.144531 67.425782c.242188.667968.289062 1.386718.140625 2.101562zm0 0" fill="#db9c2e"/><path d="m424.042969 297.507812-24.144531-67.425781c-3.378907-9.433593-12.320313-15.730469-22.339844-15.730469h-60.878906v114.886719h85.023437c13.105469 0 23.730469-10.625 23.730469-23.730469 0-2.726562-.472656-5.433593-1.390625-8zm-18.589844 8.808594c-.378906 1.820313-2.132813 3.027344-3.992187 3.027344h-64.886719v-75.097656h40.984375c1.613281 0 3.066406 1.019531 3.609375 2.542968l24.144531 67.425782c.242188.667968.289062 1.386718.140625 2.101562zm0 0" fill="#db9c2e"/><path d="m424.042969 297.507812-24.144531-67.425781c-3.378907-9.433593-12.320313-15.730469-22.339844-15.730469h-60.878906v114.886719h85.023437c13.105469 0 23.730469-10.625 23.730469-23.730469 0-2.726562-.472656-5.433593-1.390625-8zm-18.589844 8.808594c-.378906 1.820313-2.132813 3.027344-3.992187 3.027344h-64.886719v-75.097656h40.984375c1.613281 0 3.066406 1.019531 3.609375 2.542968l24.144531 67.425782c.242188.667968.289062 1.386718.140625 2.101562zm0 0" fill="#f9bb32"/><path d="m390.265625 309.34375h-53.691406v-75.097656h40.984375c.136718 0 .269531.019531.40625.03125-5.804688-12.226563-11.179688-19.921875-11.179688-19.925782h-50.105468v114.886719h66.367187c3.453125-6.511719 5.777344-13.191406 7.21875-19.894531zm0 0" fill="#db9c2e"/><path d="m343.785156 214.351562h-147.460937s-63.875 91.363282 10.996093 145.148438c5.140626 4.191406 11.695313 6.707031 18.84375 6.707031h87.78125c7.148438 0 13.703126-2.515625 18.84375-6.707031 74.871094-53.785156 10.996094-145.148438 10.996094-145.148438zm0 0" fill="#ffeacf"/><path d="m252.324219 214.351562h-56s-63.875 91.367188 10.996093 145.152344c5.140626 4.1875 11.695313 6.703125 18.84375 6.703125h56c-7.148437 0-13.703124-2.515625-18.84375-6.703125-74.871093-53.789062-10.996093-145.152344-10.996093-145.152344zm0 0" fill="#ffd59a"/><path d="m226.164062 351.285156c-4.386718 0-7.539062-1.820312-9.410156-3.347656l-.355468-.289062-.371094-.265626c-25.898438-18.605468-35.023438-43.667968-27.886719-76.625 3.859375-17.8125 11.707031-33.238281 16.472656-41.484374h130.882813c4.761718 8.238281 12.613281 23.667968 16.472656 41.484374 7.136719 32.957032-1.984375 58.019532-27.886719 76.625l-.371093.265626-.351563.289062c-1.875 1.527344-5.027344 3.347656-9.414063 3.347656zm0 0" fill="#a56021"/><path d="m341.113281 214.351562h-142.117187c-5.125 0-9.277344-4.152343-9.277344-9.277343v-.511719c0-5.121094 4.152344-9.277344 9.277344-9.277344h142.117187c5.125 0 9.277344 4.15625 9.277344 9.277344v.511719c0 5.125-4.152344 9.277343-9.277344 9.277343zm0 0" fill="#f9bb32"/><path d="m256.398438 347.648438-.371094-.265626c-25.898438-18.605468-35.023438-43.667968-27.886719-76.625 3.859375-17.8125 11.707031-33.238281 16.472656-41.484374h-40c-4.765625 8.246093-12.613281 23.671874-16.472656 41.484374-7.136719 32.957032 1.984375 58.019532 27.886719 76.625l.371094.265626.355468.289062c1.871094 1.527344 5.023438 3.347656 9.410156 3.347656h40c-4.386718 0-7.539062-1.820312-9.410156-3.347656zm0 0" fill="#8c4c17"/><path d="m239.71875 213.078125v-.515625c0-5.121094 4.152344-9.273438 9.277344-9.273438h101.296875c-.621094-4.519531-4.488281-8-9.179688-8h-142.117187c-5.125 0-9.277344 4.152344-9.277344 9.273438v.515625c0 5.121094 4.152344 9.273437 9.277344 9.273437h40.820312c-.058594-.417968-.097656-.839843-.097656-1.273437zm0 0" fill="#db9c2e"/><path d="m300.855469 345.945312c-2.519531 0-4.863281-1.597656-5.699219-4.121093-1.039062-3.144531.671875-6.539063 3.816406-7.578125 14.371094-4.746094 24.25-12.789063 29.359375-23.910156 10.007813-21.765626-.765625-48.492188-.875-48.761719-1.257812-3.0625.203125-6.570313 3.269531-7.828125 3.066407-1.261719 6.570313.203125 7.832032 3.265625.527344 1.289062 12.839844 31.878906.679687 58.335937-6.558593 14.269532-18.839843 24.460938-36.5 30.292969-.625.207031-1.261719.304687-1.882812.304687zm0 0" fill="#bf6c0d"/><path d="m271.09375 307.929688c0 8.285156-6.714844 15-15 15s-15-6.714844-15-15c0-8.285157 6.714844-15 15-15s15 6.714843 15 15zm0 0" fill="#8c4c17"/><path d="m82.359375 442.554688c-2.195313 0-4.050781-1.730469-4.078125-3.917969 0-.027344-.003906-.050781-.003906-.082031v-420.554688c0-9.941406 8.0625-18 18-18h-60c-9.9375 0-18 8.058594-18 18v420.554688c0 9.320312 7.085937 16.984374 16.160156 17.910156.605469.058594 1.21875.089844 1.839844.089844h317.113281c8.5625 0 15.714844-5.984376 17.539063-14zm0 0" fill="#bf6c0d"/><g fill="#ffa730"><path d="m358.058594 53.589844c-.554688 0-1.125-.078125-1.6875-.242188-3.179688-.933594-5.003906-4.261718-4.074219-7.445312 2.003906-6.851563 1.632813-12.097656-1.101563-15.589844-4.648437-5.9375-15.855468-6.84375-19.421874-6.695312-3.316407.140624-6.105469-2.429688-6.246094-5.742188-.140625-3.308594 2.429687-6.105469 5.742187-6.246094.808594-.035156 19.988281-.703125 29.375 11.285156 5.253907 6.710938 6.320313 15.578126 3.171875 26.355469-.765625 2.621094-3.160156 4.320313-5.757812 4.320313zm0 0"/><path d="m356.574219 418.296875c-.042969 0-.082031 0-.121094 0-3.3125-.066406-5.945313-2.804687-5.882813-6.117187.21875-11.160157-2.035156-19-6.519531-22.667969-4.070312-3.324219-9.121093-2.390625-9.167969-2.378907-3.238281.722657-6.445312-1.3125-7.164062-4.546874-.722656-3.234376 1.3125-6.441407 4.546875-7.164063 3.941406-.878906 12.460937-.859375 19.378906 4.800781 7.546875 6.171875 11.222657 17.003906 10.925781 32.191406-.066406 3.273438-2.738281 5.882813-5.996093 5.882813zm0 0"/><path d="m312.1875 386.007812h-90.332031c-3.3125 0-6-2.6875-6-6s2.6875-6 6-6h90.332031c3.3125 0 6 2.6875 6 6s-2.683594 6-6 6zm0 0"/></g><path d="m115.375 29.839844c0 8.285156-6.714844 15-15 15s-15-6.714844-15-15 6.714844-15 15-15 15 6.714844 15 15zm0 0" fill="#bf6c0d"/><path d="m158.214844 55.585938c0 8.285156-6.714844 15-15 15-8.28125 0-15-6.714844-15-15 0-8.285157 6.71875-15 15-15 8.285156 0 15 6.714843 15 15zm0 0" fill="#bf6c0d"/><path d="m90.597656 319.828125h-1.425781c-14.25 0-25.800781-11.550781-25.800781-25.800781v-184.46875c0-14.25 11.550781-25.800782 25.800781-25.800782h1.425781c14.25 0 25.800782 11.550782 25.800782 25.800782v184.46875c0 14.25-11.550782 25.800781-25.800782 25.800781zm0 0" fill="#ff9079"/><path d="m78.277344 317.414062v-231.242187c-8.804688 4.105469-14.90625 13.03125-14.90625 23.386719v184.46875c0 10.355468 6.101562 19.28125 14.90625 23.386718zm0 0" fill="#ff624b"/><path d="m102.183594 273.609375c-3.3125 0-6-2.683594-6-6v-134.910156c0-3.316407 2.6875-6 6-6s6 2.683593 6 6v134.914062c0 3.3125-2.6875 5.996094-6 5.996094zm0 0" fill="#ffeacf"/><path d="m100.183594 428.621094h-16.597656c-4.421876 0-8-3.582032-8-8v-27.675782c0-4.417968 3.578124-8 8-8h16.597656c4.417968 0 8 3.582032 8 8v27.675782c0 4.417968-3.582032 8-8 8zm0 0" fill="#ffdf74"/><path d="m78.277344 426.597656v-39.628906c-1.648438 1.464844-2.695313 3.59375-2.695313 5.976562v27.675782c0 2.382812 1.046875 4.511718 2.695313 5.976562zm0 0" fill="#ffd551"/></svg>