<svg height="444pt" viewBox="-65 0 444 444.744" width="444pt" xmlns="http://www.w3.org/2000/svg"><path d="m306.339844 0h-40.035156c-4.417969 0-8 3.582031-8 8 0 1.953125.417968 3.886719 1.222656 5.667969l7.601562 16.785156c1.292969 2.863281 4.144532 4.703125 7.285156 4.703125h23.816407c3.140625 0 5.992187-1.839844 7.289062-4.703125l7.597657-16.785156c.804687-1.78125 1.222656-3.714844 1.222656-5.667969 0-4.417969-3.582032-8-8-8zm0 0" fill="#db9c2e"/><path d="m278.023438 35.15625h16.597656v17.902344h-16.597656zm0 0" fill="#f9bb32"/><path d="m285.128906 30.453125-7.597656-16.785156c-.808594-1.78125-1.222656-3.714844-1.222656-5.667969 0-4.417969 3.582031-8 8-8h-18c-4.417969 0-8 3.582031-8 8 0 1.953125.414062 3.886719 1.222656 5.667969l7.597656 16.785156c1.296875 2.863281 4.144532 4.703125 7.285156 4.703125h18c-3.140624 0-5.992187-1.839844-7.285156-4.703125zm0 0" fill="#bf6c0d"/><path d="m278.023438 35.15625h10v17.902344h-10zm0 0" fill="#db9c2e"/><path d="m122.980469 53.058594h18.265625v77.238281h-18.265625zm0 0" fill="#f9bb32"/><path d="m122.980469 53.058594h11v77.238281h-11zm0 0" fill="#db9c2e"/><path d="m163.746094 85.691406h-40.765625c-3.3125 0-6-2.6875-6-6s2.6875-6 6-6h37.613281l14.160156-20.566406c1.121094-1.625 2.96875-2.597656 4.941406-2.597656h121.625c3.316407 0 6 2.6875 6 6 0 3.316406-2.683593 6-6 6h-118.46875l-14.164062 20.566406c-1.121094 1.625-2.96875 2.597656-4.941406 2.597656zm0 0" fill="#ffd551"/><path d="m163.121094 207.933594h-62.363282c-5.523437 0-10-4.476563-10-10v-2.324219h82.363282v2.324219c0 5.523437-4.476563 10-10 10zm0 0" fill="#f9bb32"/><g fill="#bf6c0d"><path d="m13.507812 231.679688h236.863282v189.316406h-236.863282zm0 0"/><path d="m257.507812 231.679688h-251.136718c-3.3125 0-6-2.6875-6-6v-11.746094c0-3.3125 2.6875-6 6-6h251.136718c3.3125 0 6 2.6875 6 6v11.746094c0 3.3125-2.6875 6-6 6zm0 0"/><path d="m257.507812 444.742188h-251.136718c-3.3125 0-6-2.683594-6-6v-11.742188c0-3.316406 2.6875-6 6-6h251.136718c3.3125 0 6 2.683594 6 6v11.742188c0 3.316406-2.6875 6-6 6zm0 0"/></g><path d="m132.117188 206.191406c48.796874 0 88.355468-39.558594 88.355468-88.355468h-176.714844c0 48.796874 39.558594 88.355468 88.359376 88.355468zm0 0" fill="#ffd551"/><path d="m220.472656 117.835938h-176.714844v-6.347657c0-2.761719 2.238282-5 5-5h166.714844c2.761719 0 5 2.238281 5 5zm0 0" fill="#ffdf74"/><path d="m40.371094 225.679688v-11.746094c0-3.3125 2.6875-6 6-6h-40c-3.3125 0-6 2.6875-6 6v11.746094c0 3.3125 2.6875 6 6 6h40c-3.3125 0-6-2.6875-6-6zm0 0" fill="#a56021"/><path d="m257.507812 231.679688h-251.136718c-3.3125 0-6-2.6875-6-6v-11.746094c0-3.3125 2.6875-6 6-6h251.136718c3.3125 0 6 2.6875 6 6v11.746094c0 3.3125-2.6875 6-6 6zm0 0" fill="#bf6c0d"/><path d="m250.371094 231.679688h-236.863282v189.316406h30v-167.316406c0-4.417969 3.582032-8 8-8h198.863282zm0 0" fill="#a56021"/><path d="m204.109375 278.292969c0-18.539063-32.3125-33.570313-72.171875-33.570313-39.855469 0-72.167969 15.03125-72.167969 33.570313 0 18.539062 32.3125 33.570312 72.167969 33.570312 39.859375 0 72.171875-15.03125 72.171875-33.570312zm0 0" fill="#eacf32"/><path d="m228.117188 407.429688h-191.359376c-4.417968 0-8-3.582032-8-8v-66.523438c0-4.417969 3.582032-8 8-8h190.359376c4.417968 0 8 3.582031 8 8v67.523438c0 3.867187-3.132813 7-7 7zm0 0" fill="#db9c2e"/><path d="m149.960938 365.171875c0 9.953125-8.070313 18.019531-18.023438 18.019531-9.949219 0-18.019531-8.066406-18.019531-18.019531 0-9.949219 8.070312-18.019531 18.019531-18.019531 9.953125 0 18.023438 8.070312 18.023438 18.019531zm0 0" fill="#ffd59a"/><path d="m28.757812 328.90625v74.523438c0 2.210937 1.792969 4 4 4h11v-82.523438h-11c-2.207031 0-4 1.789062-4 4zm0 0" fill="#bf6c0d"/><path d="m88.757812 106.488281h-40c-2.761718 0-5 2.238281-5 5v6.347657h40v-6.347657c0-2.761719 2.238282-5 5-5zm0 0" fill="#ffd551"/><path d="m83.757812 117.835938h-40c0 48.796874 39.558594 88.355468 88.355469 88.355468 6.878907 0 13.574219-.785156 20-2.273437-39.164062-9.0625-68.355469-44.164063-68.355469-86.082031zm0 0" fill="#ffc34c"/><path d="m141.960938 366.171875c0 9.953125-8.070313 18.019531-18.023438 18.019531-9.949219 0-18.019531-8.066406-18.019531-18.019531 0-9.949219 8.070312-18.019531 18.019531-18.019531 9.953125 0 18.023438 8.070312 18.023438 18.019531zm0 0" fill="#bf6c0d"/><path d="m149.960938 365.171875c0 9.953125-8.070313 18.019531-18.023438 18.019531-9.949219 0-18.019531-8.066406-18.019531-18.019531 0-9.949219 8.070312-18.019531 18.019531-18.019531 9.953125 0 18.023438 8.070312 18.023438 18.019531zm0 0" fill="#ffd59a"/><path d="m158.9375 191.09375c-2.863281 0-5.398438-2.054688-5.90625-4.972656-.566406-3.261719 1.617188-6.371094 4.882812-6.941406 15.871094-2.769532 27.472657-11.136719 34.480469-24.875 5.320313-10.4375 5.894531-19.945313 5.898438-20.039063.179687-3.308594 2.988281-5.84375 6.316406-5.664063 3.308594.179688 5.84375 3.007813 5.664063 6.316407-.027344.492187-.726563 12.164062-7.191407 24.835937-6.058593 11.882813-18.453125 26.949219-43.105469 31.25-.347656.058594-.699218.089844-1.039062.089844zm0 0" fill="#ffdf74"/><path d="m148.449219 65.59375h-32.671875c-2.207032 0-4-1.789062-4-4v-17.070312c0-2.210938 1.792968-4 4-4h32.671875c2.210937 0 4 1.789062 4 4v17.070312c0 2.210938-1.789063 4-4 4zm0 0" fill="#db9c2e"/><path d="m129.78125 61.59375v-17.070312c0-2.210938 1.789062-4 4-4h-18c-2.210938 0-4 1.789062-4 4v17.070312c0 2.210938 1.789062 4 4 4h18c-2.210938 0-4-1.789062-4-4zm0 0" fill="#bf6c0d"/><path d="m79.769531 288.292969c0-18.539063 32.3125-33.570313 72.171875-33.570313 15.570313 0 29.976563 2.300782 41.769532 6.203125-12.648438-9.710937-35.578126-16.203125-61.769532-16.203125-39.859375 0-72.171875 15.03125-72.171875 33.570313 0 11.296875 12.011719 21.28125 30.402344 27.367187-6.601563-5.066406-10.402344-11.011718-10.402344-17.367187zm0 0" fill="#ccc033"/><path d="m235.121094 306.441406c-3.3125 0-6-2.683594-6-6v-38.734375c0-3.3125 2.6875-6 6-6s6 2.6875 6 6v38.734375c0 3.316406-2.6875 6-6 6zm0 0" fill="#e58d23"/><path d="m220.472656 397.050781c-3.3125 0-6-2.6875-6-6v-48.089843c0-3.3125 2.6875-6 6-6s6 2.6875 6 6v48.089843c0 3.3125-2.6875 6-6 6zm0 0" fill="#f9bb32"/><path d="m40.371094 225.679688v-11.746094c0-3.3125 2.6875-6 6-6h-40c-3.3125 0-6 2.6875-6 6v11.746094c0 3.3125 2.6875 6 6 6h40c-3.3125 0-6-2.6875-6-6zm0 0" fill="#a56021"/><path d="m40.371094 438.742188v-11.742188c0-3.316406 2.6875-6 6-6h-40c-3.3125 0-6 2.683594-6 6v11.742188c0 3.316406 2.6875 6 6 6h40c-3.3125 0-6-2.683594-6-6zm0 0" fill="#a56021"/><path d="m123.769531 141.96875c0 8.28125-6.71875 15-15 15-8.285156 0-15-6.71875-15-15 0-8.285156 6.714844-15 15-15 8.28125 0 15 6.714844 15 15zm0 0" fill="#ffc34c"/><path d="m81.257812 348.152344c0 8.285156-6.714843 15-15 15-8.28125 0-15-6.714844-15-15s6.71875-15 15-15c8.285157 0 15 6.714844 15 15zm0 0" fill="#bf6c0d"/><path d="m137.875 376.109375c-.804688 0-1.625-.160156-2.410156-.507813-3.035156-1.332031-4.410156-4.875-3.078125-7.90625.929687-2.117187.453125-3.808593-1.421875-5.027343l.097656.058593 6.109375-10.328124c4.128906 2.441406 10.742187 9.792968 6.199219 20.125-.988282 2.25-3.1875 3.585937-5.496094 3.585937zm0 0" fill="#fff4c1"/></svg>