<svg height="457pt" viewBox="-25 0 457 457.18548" width="457pt" xmlns="http://www.w3.org/2000/svg"><path d="m335.046875 372.675781c5.039063-75.519531-34.257813-325.753906-34.257813-325.753906h-265.992187s-39.296875 250.234375-34.257813 325.753906v24.167969c0 30.375 24.625 55 55 55h224.953126c30.375 0 55-24.625 55-55v-24.167969zm0 0" fill="#f9bb32"/><path d="m303.46875 0h-271.351562c-5.4375 0-9.316407 5.652344-7.699219 11.222656l10.378906 35.699219h265.992187l10.375-35.699219c1.621094-5.570312-2.257812-11.222656-7.695312-11.222656zm0 0" fill="#bf6c0d"/><path d="m233.0625 192.578125c0 38.261719-31.019531 69.28125-69.28125 69.28125s-69.28125-31.019531-69.28125-69.28125c0-38.265625 31.019531-69.28125 69.28125-69.28125s69.28125 31.015625 69.28125 69.28125zm0 0" fill="#ffeacf"/><path d="m238.796875 390.644531h-143.382813c-8.285156 0-15-6.714843-15-15v-50.824219c0-8.285156 6.714844-15 15-15h143.382813c8.28125 0 15 6.714844 15 15v50.824219c0 8.285157-6.714844 15-15 15zm0 0" fill="#ffd59a"/><path d="m82.117188 0h-50c-5.4375 0-9.316407 5.652344-7.699219 11.222656l10.378906 35.699219h50l-10.378906-35.699219c-1.617188-5.570312 2.261719-11.222656 7.699219-11.222656zm0 0" fill="#a56021"/><path d="m50.539062 396.84375v-24.167969c-5.039062-75.519531 34.257813-325.753906 34.257813-325.753906h-50s-39.296875 250.234375-34.257813 325.753906v24.167969c0 30.375 24.625 55 55 55h50c-30.375 0-55-24.625-55-55zm0 0" fill="#db9c2e"/><path d="m383.15625 365.191406c-26.363281-26.359375-62.78125-32.683594-81.34375-14.121094s-12.242188 54.980469 14.121094 81.34375c26.359375 26.359376 62.777344 32.683594 81.339844 14.121094 18.566406-18.5625 12.242187-54.984375-14.117188-81.34375zm0 0" fill="#db9c2e"/><g fill="#bf6c0d"><path d="m387.21875 396.523438c-4.625-4.625-11.871094-4.878907-16.183594-.566407-4.316406 4.316407-4.0625 11.5625.5625 16.1875s11.875 4.878907 16.1875.566407c4.3125-4.316407 4.058594-11.5625-.566406-16.1875zm0 0"/><path d="m396.40625 421.507812c-18.5625 18.5625-54.980469 12.242188-81.34375-14.121093-11.664062-11.664063-19.398438-25.300781-22.796875-38.488281-4.289063 19.183593 4.234375 44.078124 23.671875 63.515624 26.359375 26.359376 62.777344 32.683594 81.34375 14.121094 10.347656-10.347656 12.953125-26.246094 8.671875-42.855468-1.527344 6.835937-4.667969 12.953124-9.546875 17.828124zm0 0"/><path d="m338.246094 363.164062c14.394531 14.394532 16.4375 35.179688 16.519531 36.082032 2.117187 34.398437 36.492187 37.835937 37.953125 37.964844 3.011719.265624 5.558594 2.917968 5.6875 5.921874.128906 3.003907-2.207031 5.222657-5.222656 4.957032-16.089844-1.425782-47.105469-13.597656-49.308594-49.445313-.003906-.011719-1.898438-18.210937-13.800781-29.210937-6.136719-5.660156-14.101563-8.542969-23.675781-8.570313-2.992188-.011719-5.730469-2.464843-6.113282-5.480469-.386718-3.015624 1.726563-5.453124 4.71875-5.445312 12.65625.042969 23.402344 4.074219 31.953125 11.988281.4375.40625.867188.820313 1.289063 1.238281zm0 0"/></g><path d="m332.539062 384.339844c0-37.28125-21.28125-67.5-47.535156-67.5s-47.535156 30.21875-47.535156 67.5 21.28125 67.503906 47.535156 67.503906 47.535156-30.222656 47.535156-67.503906zm0 0" fill="#a56021"/><path d="m313.257812 409.371094c0-6.542969-4.945312-11.847656-11.046874-11.847656-6.101563 0-11.046876 5.304687-11.046876 11.847656 0 6.539062 4.945313 11.84375 11.046876 11.84375 6.101562 0 11.046874-5.304688 11.046874-11.84375zm0 0" fill="#8c4c17"/><path d="m302.082031 433.53125c-26.25 0-47.53125-30.222656-47.53125-67.503906 0-16.5 4.171875-31.609375 11.09375-43.335938-16.597656 10.53125-28.175781 34.164063-28.175781 61.648438 0 37.28125 21.28125 67.503906 47.535156 67.503906 14.632813 0 27.71875-9.398438 36.4375-24.167969-5.914062 3.75-12.460937 5.855469-19.359375 5.855469zm0 0" fill="#8c4c17"/><path d="m302.210938 351.148438c0 20.359374-13.25 36.496093-13.832032 37.195312-22.824218 25.816406-.949218 52.558594-.007812 53.679688 1.941406 2.320312 1.871094 5.996093-.164063 8.210937-2.035156 2.214844-5.257812 2.132813-7.199219-.1875-10.371093-12.386719-23.695312-42.925781.097657-69.832031.003906-.007813 11.535156-14.21875 10.894531-30.410156-.335938-8.34375-3.929688-16.015626-10.679688-22.804688-2.109374-2.125-2.308593-5.792969-.449218-8.195312 1.859375-2.410157 5.078125-2.636719 7.1875-.515626 8.917968 8.976563 13.671875 19.429688 14.117187 31.070313.023438.597656.035157 1.195313.035157 1.789063zm0 0" fill="#8c4c17"/><path d="m311.535156 298.140625c-3.230468 0-5.898437-2.570313-5.996094-5.824219-3.203124-107.3125-21.839843-181.25-22.023437-181.980468-.824219-3.210938 1.113281-6.480469 4.320313-7.300782 3.214843-.820312 6.480468 1.113282 7.304687 4.320313.1875.746093 19.144531 75.863281 22.394531 184.605469.101563 3.3125-2.507812 6.074218-5.816406 6.175781-.0625 0-.125.003906-.183594.003906zm0 0" fill="#ffc34c"/><path d="m184.453125 172.175781c-16.109375-16.109375-38.363281-19.972656-49.703125-8.628906-11.34375 11.34375-7.480469 33.59375 8.628906 49.703125 16.105469 16.105469 38.359375 19.96875 49.699219 8.625 11.34375-11.339844 7.480469-33.59375-8.625-49.699219zm0 0" fill="#a56021"/><path d="m192.550781 206.585938c-11.34375 11.34375-33.597656 7.480468-49.703125-8.628907-7.128906-7.128906-11.855468-15.460937-13.929687-23.515625-2.625 11.71875 2.585937 26.933594 14.460937 38.808594 16.109375 16.109375 38.359375 19.972656 49.703125 8.628906 6.324219-6.324218 7.914063-16.039062 5.300781-26.1875-.933593 4.175782-2.855468 7.914063-5.832031 10.894532zm0 0" fill="#8c4c17"/><path d="m157.011719 170.9375c8.796875 8.792969 10.042969 21.492188 10.09375 22.046875 1.292969 21.015625 22.296875 23.117187 23.191406 23.195313 1.839844.164062 3.394531 1.78125 3.476563 3.621093.078124 1.835938-1.351563 3.191407-3.191407 3.027344-9.835937-.871094-28.785156-8.308594-30.128906-30.214844-.003906-.003906-1.164063-11.125-8.433594-17.84375-3.75-3.460937-8.617187-5.222656-14.464843-5.238281-1.828126-.007812-3.503907-1.507812-3.738282-3.347656-.234375-1.84375 1.054688-3.332032 2.882813-3.328125 7.734375.027343 14.300781 2.488281 19.523437 7.324219.269532.246093.53125.5.789063.757812zm0 0" fill="#8c4c17"/><path d="m165.996094 86.285156c0 8.285156-6.714844 15-15 15s-15-6.714844-15-15 6.714844-15 15-15 15 6.714844 15 15zm0 0" fill="#db9c2e"/><path d="m120.539062 71.285156c0 8.285156-6.714843 15-15 15-8.285156 0-15-6.714844-15-15s6.714844-15 15-15c8.285157 0 15 6.714844 15 15zm0 0" fill="#db9c2e"/></svg>