<svg height="449pt" viewBox="0 -77 449.384 449" width="449pt" xmlns="http://www.w3.org/2000/svg"><path d="m232.085938 263.929688h-112.097657c-8.285156 0-15-6.714844-15-15v-35.207032h142.097657v35.207032c0 8.285156-6.714844 15-15 15zm0 0" fill="#f9bb32"/><path d="m396.851562 50.792969c.722657.664062 1.433594 1.355469 2.109376 2.105469 18.304687 20.257812 6.695312 59.335937-25.351563 85.335937-19.5625 15.867187-43.671875 24.425781-64.496094 22.898437-8.4375-.621093-20.214843-3.257812-28.394531-12.3125-10.894531-12.050781-9.132812-28.335937-7.117188-36.96875 4.039063-17.277343 15.871094-34.90625 32.464844-48.367187 6.136719-4.980469 12.722656-9.238281 19.515625-12.691406h-44.25c-37.75 35.382812-47.394531 85.050781-20.84375 114.4375 28.214844 31.226562 86.613281 27.71875 130.4375-7.832031 37.703125-30.589844 52.332031-74.929688 37.714844-106.605469zm0 0" fill="#ffc34c"/><path d="m429.570312 46.871094c-28.214843-31.226563-86.613281-27.71875-130.433593 7.832031-43.824219 35.554687-56.476563 89.6875-28.261719 120.910156 28.214844 31.226563 86.613281 27.722657 130.4375-7.832031 43.820312-35.550781 56.472656-89.683594 28.257812-120.910156zm-45.578124 101.746094c-19.558594 15.867187-43.671876 24.429687-64.496094 22.902343-8.4375-.621093-20.214844-3.257812-28.394532-12.3125-10.890624-12.054687-9.132812-28.335937-7.113281-36.96875 4.035157-17.277343 15.871094-34.90625 32.464844-48.371093 19.558594-15.867188 43.667969-24.425782 64.492187-22.898438 8.441407.621094 20.21875 3.257812 28.398438 12.3125 18.308594 20.257812 6.695312 59.335938-25.351562 85.335938zm0 0" fill="#ffdf74"/><path d="m375.347656 154.960938c-17.742187 11.761718-38.003906 17.867187-55.851562 16.558593-8.4375-.621093-20.214844-3.257812-28.394532-12.3125-10.890624-12.050781-9.132812-28.335937-7.113281-36.96875 4.039063-17.277343 15.871094-34.90625 32.464844-48.367187 19.558594-15.867188 43.671875-24.429688 64.496094-22.902344.734375.054688 1.5.132812 2.277343.21875v-25.355469c-26.925781-2.042969-58.078124 7.769531-84.089843 28.871094-43.824219 35.554687-56.476563 89.6875-28.261719 120.914063 18.894531 20.90625 51.320312 26.21875 83.839844 16.789062 8.738281-11.199219 15.75-23.816406 20.632812-37.445312zm0 0" fill="#ffd551"/><path d="m222.074219 244.421875h-92.074219c-71.796875 0-130-58.203125-130-130v-104.230469c0-5.523437 4.476562-10 10-10h332.074219c5.523437 0 10 4.476563 10 10v104.230469c0 71.796875-58.203125 130-130 130zm0 0" fill="#ffdf74"/><path d="m114.457031 134c0 8.308594-6.734375 15.042969-15.042969 15.042969-8.304687 0-15.039062-6.734375-15.039062-15.042969 0-8.304688 6.734375-15.039062 15.039062-15.039062 8.308594 0 15.042969 6.734374 15.042969 15.039062zm0 0" fill="#ffd551"/><path d="m134.578125 181.382812c0 8.304688-6.734375 15.039063-15.042969 15.039063-8.304687 0-15.039062-6.734375-15.039062-15.039063 0-8.308593 6.734375-15.042968 15.039062-15.042968 8.308594 0 15.042969 6.734375 15.042969 15.042968zm0 0" fill="#ffd551"/><path d="m416.675781 163.675781h-30.453125c-14.105468-35.574219-48.824218-60.730469-89.417968-60.730469-53.101563 0-96.152344 43.050782-96.152344 96.15625 0 53.101563 43.050781 96.152344 96.152344 96.152344 40.59375 0 75.3125-25.15625 89.417968-60.730468h30.453125c18.0625 0 32.707031-14.644532 32.707031-32.707032v-5.433594c0-18.0625-14.644531-32.707031-32.707031-32.707031zm0 0" fill="#ffd59a"/><path d="m359.222656 199.101562c0 34.46875-27.945312 62.414063-62.417968 62.414063-34.472657 0-62.414063-27.945313-62.414063-62.414063 0-34.472656 27.941406-62.417968 62.414063-62.417968 34.472656 0 62.417968 27.945312 62.417968 62.417968zm0 0" fill="#a56021"/><path d="m275.925781 199.101562c0-27.136718 17.414063-50.273437 41.648438-58.851562-6.503907-2.300781-13.488281-3.566406-20.769531-3.566406-34.414063 0-62.414063 28-62.414063 62.417968 0 34.414063 28 62.414063 62.414063 62.414063 7.28125 0 14.265624-1.265625 20.769531-3.566406-24.234375-8.578125-41.648438-31.710938-41.648438-58.847657zm0 0" fill="#8c4c17"/><path d="m230.652344 199.101562c0-48.003906 35.175781-87.789062 81.160156-94.988281-4.890625-.765625-9.902344-1.167969-15.007812-1.167969-53.105469 0-96.152344 43.050782-96.152344 96.15625 0 53.101563 43.046875 96.152344 96.152344 96.152344 5.105468 0 10.117187-.398437 15.007812-1.164062-45.984375-7.203125-81.160156-46.984375-81.160156-94.988282zm0 0" fill="#ffb74b"/><path d="m167.40625 147.722656c0 8.308594-6.734375 15.042969-15.042969 15.042969-8.304687 0-15.039062-6.734375-15.039062-15.042969 0-8.304687 6.734375-15.039062 15.039062-15.039062 8.308594 0 15.042969 6.734375 15.042969 15.039062zm0 0" fill="#ffd551"/><path d="m325.015625 88.121094c-3.3125 0-6-2.6875-6-6v-63.398438c0-3.3125 2.6875-6 6-6s6 2.6875 6 6v63.398438c0 3.3125-2.683594 6-6 6zm0 0" fill="#fff4c1"/><path d="m60 114.421875v-104.230469c0-5.523437 4.476562-10 10-10h-60c-5.523438 0-10 4.476563-10 10v104.230469c0 71.796875 58.203125 130 130 130h60c-71.796875 0-130-58.203125-130-130zm0 0" fill="#ffd551"/><path d="m332.613281 171.691406c0 8.308594-6.734375 15.042969-15.039062 15.042969-8.308594 0-15.042969-6.734375-15.042969-15.042969 0-8.304687 6.734375-15.039062 15.042969-15.039062 8.304687 0 15.039062 6.734375 15.039062 15.039062zm0 0" fill="#8c4c17"/></svg>