<svg height="466pt" viewBox="0 -40 466.88484 466" width="466pt" xmlns="http://www.w3.org/2000/svg"><path d="m103.589844 92.933594-15.234375-69.449219c-1.386719-6.332031.300781-13.007813 4.453125-17.609375.320312-.355469.652344-.6875.996094-1.007812l-26.804688-4.238282c-5.210938-.824218-10.464844 1.117188-14.191406 5.246094-4.152344 4.601562-5.839844 11.277344-4.453125 17.609375l15.234375 69.449219c1.828125 8.34375 8.554687 14.214844 16.28125 14.214844h40c-7.726563 0-14.453125-5.871094-16.28125-14.214844zm0 0" fill="#ffc34c"/><path d="m125.753906 290.039062c0 8.285157-6.714844 15-15 15s-15-6.714843-15-15c0-8.285156 6.714844-15 15-15s15 6.714844 15 15zm0 0" fill="#8c4c17"/><path d="m444.335938 239.699219-34.394532-96.054688h-38.765625l38.800781 108.359375c.441407 1.226563.535157 2.542969.257813 3.855469-.695313 3.339844-3.910156 5.554687-7.320313 5.554687h-119.042968v-117.769531h-36.492188v154.265625h155.972656c24.042969 0 43.535157-19.492187 43.535157-43.535156 0-5-.863281-9.964844-2.550781-14.675781zm0 0" fill="#bf6c0d"/><path d="m464.335938 259.699219-44.292969-123.691407c-6.199219-17.308593-22.601563-28.855468-40.984375-28.855468h-111.679688v210.757812h155.972656c24.042969 0 43.535157-19.492187 43.535157-43.535156 0-5-.863281-9.964844-2.550781-14.675781zm-34.101563 16.160156c-.699219 3.339844-3.910156 5.554687-7.324219 5.554687h-119.039062v-137.769531h75.1875c2.964844 0 5.625 1.875 6.625 4.664063l44.292968 123.695312c.441407 1.230469.535157 2.542969.257813 3.855469zm0 0" fill="#f9bb32"/><path d="m400.203125 281.414062h-96.332031v-137.769531h73.71875c-10.636719-22.40625-20.484375-36.496093-20.484375-36.496093h-89.726563v210.761718h119.558594c6.332031-11.949218 10.617188-24.199218 13.265625-36.496094zm0 0" fill="#db9c2e"/><path d="m52.808594 5.875c3.726562-4.128906 8.980468-6.070312 14.191406-5.246094l228.445312 36.132813c8.257813 1.308593 14.398438 9.167969 14.398438 18.445312v33.3125c0 10.289063-7.503906 18.628907-16.761719 18.628907h-213.210937c-7.726563 0-14.453125-5.871094-16.28125-14.21875l-15.234375-69.445313c-1.386719-6.332031.300781-13.007813 4.453125-17.609375zm0 0" fill="#eacf32"/><path d="m317.105469 107.152344h-270.527344s-117.179687 167.609375 20.175781 266.277344c9.429688 7.6875 21.457032 12.300781 34.566406 12.300781h161.039063c13.113281 0 25.140625-4.613281 34.566406-12.300781 137.359375-98.671876 20.179688-266.277344 20.179688-266.277344zm0 0" fill="#ffeacf"/><path d="m116.582031 107.148438h-70.003906s-117.179687 167.609374 20.175781 266.28125c9.429688 7.6875 21.457032 12.300781 34.566406 12.300781h70c-13.109374 0-25.140624-4.613281-34.566406-12.300781-137.355468-98.671876-20.171875-266.28125-20.171875-266.28125zm0 0" fill="#ffd59a"/><path d="m101.324219 358.359375c-8.050781 0-13.835938-3.339844-17.269531-6.140625l-.648438-.53125-.679688-.488281c-47.515624-34.132813-64.246093-80.113281-51.15625-140.570313 7.078126-32.679687 21.472657-60.972656 30.21875-76.109375h240.109376c8.734374 15.117188 23.136718 43.417969 30.214843 76.109375 13.09375 60.457032-3.640625 106.4375-51.15625 140.570313l-.679687.488281-.648438.53125c-3.4375 2.800781-9.21875 6.140625-17.269531 6.140625zm0 0" fill="#a56021"/><path d="m319.636719 107.152344h-275.589844c-5.292969 0-9.582031-4.292969-9.582031-9.585938v-26.726562c0-5.292969 4.289062-9.582032 9.582031-9.582032h275.589844c5.292969 0 9.585937 4.289063 9.585937 9.582032v26.726562c0 5.292969-4.292968 9.585938-9.585937 9.585938zm0 0" fill="#f9bb32"/><path d="m74.464844 90.839844c0-5.292969 4.289062-9.582032 9.582031-9.582032h245.175781v-10.417968c0-5.292969-4.292968-9.582032-9.585937-9.582032h-275.589844c-5.292969 0-9.582031 4.289063-9.582031 9.582032v26.726562c0 5.292969 4.289062 9.582032 9.582031 9.582032h30.417969zm0 0" fill="#db9c2e"/><path d="m123.40625 351.6875-.679688-.488281c-47.515624-34.132813-64.246093-80.113281-51.15625-140.570313 7.078126-32.679687 21.472657-60.972656 30.21875-76.109375h-40c-8.746093 15.136719-23.140624 43.429688-30.21875 76.109375-13.089843 60.457032 3.640626 106.4375 51.15625 140.570313l.679688.488281.648438.53125c3.4375 2.800781 9.21875 6.140625 17.269531 6.140625h40c-8.046875 0-13.832031-3.339844-17.269531-6.140625zm0 0" fill="#8c4c17"/><path d="m247.378906 335.714844c-2.460937 0-4.765625-1.519532-5.644531-3.96875-1.125-3.117188.492187-6.554688 3.609375-7.675782 33.417969-12.03125 52.320312-37.136718 56.183594-74.617187 2.96875-28.789063-4.414063-54.417969-4.488282-54.671875-.933593-3.179688.886719-6.515625 4.0625-7.449219 3.179688-.9375 6.511719.878907 7.449219 4.058594.328125 1.121094 8.070313 27.851563 4.953125 58.929687-4.222656 42.058594-26.386718 71.464844-64.09375 85.039063-.671875.242187-1.355468.355469-2.03125.355469zm0 0" fill="#bf6c0d"/><path d="m163.441406 326.636719c0 8.28125-6.714844 15-15 15-8.28125 0-15-6.71875-15-15 0-8.285157 6.71875-15 15-15 8.285156 0 15 6.714843 15 15zm0 0" fill="#8c4c17"/><path d="m440.359375 234.59375c-2.460937 0-4.769531-1.527344-5.648437-3.976562l-24.585938-68.660157c-1.117188-3.121093.503906-6.554687 3.625-7.671875 3.121094-1.117187 6.554688.507813 7.671875 3.625l24.585937 68.660156c1.117188 3.117188-.503906 6.554688-3.625 7.671876-.667968.238281-1.351562.351562-2.023437.351562zm0 0" fill="#ffd59a"/><path d="m125.753906 290.039062c0 8.285157-6.714844 15-15 15s-15-6.714843-15-15c0-8.285156 6.714844-15 15-15s15 6.714844 15 15zm0 0" fill="#8c4c17"/></svg>