<svg height="440pt" viewBox="0 -4 440.64994 440" width="440pt" xmlns="http://www.w3.org/2000/svg"><path d="m409.082031 224.128906c-12.488281-3.945312-26.847656 6.265625-32.074219 22.804688-5.222656 16.542968.667969 33.148437 13.15625 37.09375 12.488282 3.941406 26.847657-6.265625 32.070313-22.804688 5.226563-16.542968-.664063-33.148437-13.152344-37.09375zm0 0" fill="#a56021"/><g fill="#8c4c17"><path d="m385.769531 249.726562c4.597657-14.550781 16.265625-24.203124 27.511719-23.625-1.304688-.816406-2.707031-1.476562-4.207031-1.949218-12.492188-3.945313-26.847657 6.265625-32.074219 22.804687-5.222656 16.535157.664062 33.140625 13.152344 37.085938 1.5.476562 3.03125.742187 4.566406.820312-9.535156-5.984375-13.542969-20.585937-8.949219-35.136719zm0 0"/><path d="m390.914062 284.652344c-1.105468 0-2.167968-.613282-2.691406-1.667969-7.316406-14.765625 1.105469-25.527344 6.582032-29.15625 7.421874-4.789063 11.667968-9.949219 12.652343-15.359375.992188-5.433594-1.761719-9.339844-1.789062-9.378906-.984375-1.332032-.707031-3.210938.625-4.195313 1.328125-.984375 3.207031-.707031 4.195312.625.179688.238281 4.339844 5.972657 2.875 14.027344-1.296875 7.101563-6.4375 13.597656-15.277343 19.300781-.421876.285156-11.25 7.828125-4.488282 21.472656.738282 1.484376.128906 3.285157-1.355468 4.019532-.425782.210937-.882813.3125-1.328126.3125zm0 0"/><path d="m402.960938 275.425781c0 1.902344-1.542969 3.449219-3.445313 3.449219-1.90625 0-3.449219-1.546875-3.449219-3.449219 0-1.90625 1.542969-3.449219 3.449219-3.449219 1.902344 0 3.445313 1.542969 3.445313 3.449219zm0 0"/></g><path d="m373.339844 276.105469c-14.914063-8.851563-32.425782-6.898438-39.109375 4.363281-6.683594 11.261719-.011719 27.570312 14.902343 36.421875 14.914063 8.851563 32.421876 6.898437 39.109376-4.363281 6.683593-11.261719.011718-27.566406-14.902344-36.421875zm0 0" fill="#e58d23"/><path d="m353.835938 308.960938c-13.121094-7.789063-19.863282-21.347657-16.738282-32.164063-1.09375 1.082031-2.054687 2.300781-2.859375 3.652344-6.683593 11.261719-.011719 27.570312 14.90625 36.421875 14.914063 8.851562 32.421875 6.898437 39.109375-4.363282.800782-1.355468 1.410156-2.78125 1.835938-4.257812-8 7.921875-23.128906 8.5-36.253906.710938zm0 0" fill="#bf6c0d"/><path d="m380.304688 314.933594c-11.90625 0-18.460938-8.5625-20.417969-13.832032-2.976563-8.316406-7.03125-13.628906-12.074219-15.820312-5.066406-2.203125-9.496094-.410156-9.539062-.390625-1.523438.65625-3.289063-.042969-3.945313-1.5625-.65625-1.523437.042969-3.289063 1.566406-3.945313.269531-.117187 6.804688-2.867187 14.308594.394532 6.625 2.878906 11.78125 9.363281 15.320313 19.269531.183593.476563 5.066406 12.734375 19.886718 9.257813 1.609375-.375 3.226563.621093 3.605469 2.238281.378906 1.613281-.625 3.226562-2.234375 3.605469-2.3125.539062-4.472656.785156-6.476562.785156zm0 0" fill="#a56021"/><path d="m380.003906 289.738281c0 1.90625-1.546875 3.449219-3.449218 3.449219-1.90625 0-3.449219-1.542969-3.449219-3.449219 0-1.902343 1.542969-3.449219 3.449219-3.449219 1.902343 0 3.449218 1.546876 3.449218 3.449219zm0 0" fill="#bf6c0d"/><path d="m386.09375 299.996094c0 1.90625-1.542969 3.449218-3.449219 3.449218s-3.449219-1.542968-3.449219-3.449218c0-1.902344 1.542969-3.449219 3.449219-3.449219s3.449219 1.546875 3.449219 3.449219zm0 0" fill="#bf6c0d"/><path d="m350.890625 211.984375c-8-15.390625-23.910156-22.96875-35.527344-16.925781-11.621093 6.042968-14.558593 23.414062-6.554687 38.804687 8 15.390625 23.90625 22.96875 35.527344 16.925781 11.621093-6.039062 14.554687-23.414062 6.554687-38.804687zm0 0" fill="#a56021"/><path d="m316.945312 229.617188c-7.039062-13.542969-5.609374-28.617188 2.75-36.15625-1.5.339843-2.957031.867187-4.355468 1.59375-11.617188 6.042968-14.554688 23.414062-6.554688 38.804687 8.003906 15.386719 23.910156 22.964844 35.527344 16.925781 1.398438-.726562 2.667969-1.617187 3.808594-2.648437-10.976563 2.507812-24.136719-4.980469-31.175782-18.519531zm0 0" fill="#8c4c17"/><path d="m343.15625 251.558594c-.316406 0-.640625-.050782-.960938-.160156-15.613281-5.265626-17.269531-18.832032-15.964843-25.269532 1.851562-8.574218 1.226562-15.195312-1.84375-19.714844-3.136719-4.613281-7.789063-5.429687-7.988281-5.460937-1.625-.269531-2.738282-1.800781-2.484376-3.429687.257813-1.625 1.753907-2.746094 3.394532-2.503907.296875.046875 7.292968 1.15625 11.949218 7.890625 4.109376 5.9375 5.066407 14.164063 2.847657 24.449219-.09375.5-2.417969 13.488281 12.011719 18.355469 1.566406.53125 2.410156 2.230468 1.882812 3.800781-.425781 1.25-1.59375 2.042969-2.84375 2.042969zm0 0" fill="#8c4c17"/><path d="m348.285156 238.070312c0 1.902344-1.542968 3.449219-3.449218 3.449219s-3.449219-1.546875-3.449219-3.449219c0-1.90625 1.542969-3.449218 3.449219-3.449218s3.449218 1.542968 3.449218 3.449218zm0 0" fill="#8c4c17"/><path d="m301.46875 192.285156c-14.914062-8.851562-32.425781-6.898437-39.109375 4.363282-6.683594 11.261718-.011719 27.570312 14.902344 36.421874 14.914062 8.851563 32.421875 6.898438 39.109375-4.363281 6.683594-11.261719.011718-27.566406-14.902344-36.421875zm0 0" fill="#e58d23"/><path d="m281.960938 225.144531c-13.121094-7.789062-19.859376-21.347656-16.738282-32.164062-1.09375 1.082031-2.054687 2.300781-2.855468 3.652343-6.6875 11.261719-.011719 27.570313 14.902343 36.421876 14.914063 8.851562 32.425781 6.898437 39.109375-4.367188.804688-1.351562 1.410156-2.777344 1.839844-4.253906-8 7.921875-23.132812 8.5-36.257812.710937zm0 0" fill="#bf6c0d"/><path d="m308.429688 231.117188c-11.90625 0-18.460938-8.5625-20.417969-13.832032-2.953125-8.261718-6.976563-13.558594-11.972657-15.777344-5.089843-2.261718-9.476562-.5-9.664062-.425781-1.523438.632813-3.277344-.082031-3.917969-1.601562-.640625-1.515625.050781-3.261719 1.5625-3.914063.273438-.121094 6.804688-2.863281 14.3125.394532 6.625 2.878906 11.777344 9.363281 15.316407 19.269531.183593.476562 5.066406 12.738281 19.886718 9.257812 1.609375-.371093 3.230469.621094 3.605469 2.234375.378906 1.613282-.621094 3.230469-2.234375 3.609375-2.3125.542969-4.46875.785157-6.476562.785157zm0 0" fill="#a56021"/><path d="m308.128906 205.921875c0 1.90625-1.542968 3.449219-3.449218 3.449219-1.902344 0-3.449219-1.542969-3.449219-3.449219 0-1.902344 1.546875-3.449219 3.449219-3.449219 1.90625 0 3.449218 1.546875 3.449218 3.449219zm0 0" fill="#bf6c0d"/><path d="m314.222656 216.179688c0 1.90625-1.546875 3.449218-3.449218 3.449218-1.90625 0-3.449219-1.542968-3.449219-3.449218 0-1.902344 1.542969-3.449219 3.449219-3.449219 1.902343 0 3.449218 1.546875 3.449218 3.449219zm0 0" fill="#bf6c0d"/><path d="m425.597656 313.332031c-12.488281-3.945312-26.847656 6.265625-32.074218 22.804688-5.222657 16.539062.664062 33.144531 13.15625 37.089843 12.488281 3.945313 26.847656-6.265624 32.070312-22.804687 5.226562-16.539063-.664062-33.144531-13.152344-37.089844zm0 0" fill="#a56021"/><path d="m402.28125 338.929688c4.597656-14.554688 16.265625-24.203126 27.511719-23.625-1.304688-.816407-2.707031-1.476563-4.207031-1.949219-12.488282-3.945313-26.847657 6.265625-32.074219 22.800781-5.222657 16.539062.667969 33.144531 13.152343 37.089844 1.5.472656 3.03125.742187 4.566407.820312-9.535157-5.984375-13.542969-20.585937-8.949219-35.136718zm0 0" fill="#8c4c17"/><path d="m407.425781 373.855469c-1.105469 0-2.167969-.613281-2.691406-1.667969-7.316406-14.765625 1.105469-25.527344 6.582031-29.15625 7.371094-4.757812 11.609375-9.878906 12.632813-15.25 1.046875-5.476562-1.667969-9.34375-1.785157-9.507812-.957031-1.339844-.664062-3.210938.667969-4.179688 1.332031-.972656 3.1875-.695312 4.167969.628906.179688.238282 4.34375 5.972656 2.875 14.023438-1.296875 7.105468-6.433594 13.601562-15.277344 19.304687-.417968.285157-11.246094 7.828125-4.484375 21.46875.734375 1.484375.128907 3.285157-1.355469 4.023438-.429687.210937-.886718.3125-1.332031.3125zm0 0" fill="#8c4c17"/><path d="m419.472656 364.625c0 1.90625-1.542968 3.449219-3.449218 3.449219-1.902344 0-3.449219-1.542969-3.449219-3.449219 0-1.902344 1.546875-3.449219 3.449219-3.449219 1.90625 0 3.449218 1.546875 3.449218 3.449219zm0 0" fill="#8c4c17"/><path d="m227.71875 187.257812-9.902344-9.902343.945313.714843s-108.453125-130.148437-143.894531-161.230468c-17.472657-16.996094-42.011719-16.511719-42.011719-16.511719l.019531.015625c-7.585938-.113281-15.214844 1.296875-22.492188 4.320312l-2.832031 1.175782c-7.828125 3.25-10.09375 14.292968-4.300781 20.953125l27.914062 32.089843c.226563.316407.472657.625.734376.925782.660156.753906 1.382812 1.554687 2.132812 2.371094l1.375 1.582031.042969-.046875c36.320312 38.859375 157.675781 139.992187 157.675781 139.992187l-.710938-.949219 9.902344 9.902344zm0 0" fill="#a56021"/><path d="m214.089844 200.886719c-38.1875-32.382813-104.015625-89.074219-129.144532-115.957031l-.042968.046874-1.375-1.582031c-.75-.816406-1.46875-1.617187-2.132813-2.371093-.261719-.300782-.507812-.609376-.734375-.925782l-27.910156-32.089844c-5.796875-6.664062-3.53125-17.703124 4.296875-20.953124l2.832031-1.175782c6.53125-2.714844 13.347656-4.117187 20.160156-4.296875-1.859374-1.761719-3.589843-3.351562-5.171874-4.742187-17.472657-16.996094-42.011719-16.511719-42.011719-16.511719l.019531.015625c-7.585938-.113281-15.214844 1.296875-22.492188 4.320312l-2.832031 1.175782c-7.828125 3.25-10.09375 14.292968-4.300781 20.953125l27.914062 32.089843c.226563.316407.472657.625.734376.925782.660156.753906 1.382812 1.554687 2.132812 2.371094l1.375 1.582031.042969-.046875c36.320312 38.859375 157.675781 139.992187 157.675781 139.992187l-.710938-.949219 9.902344 9.902344zm0 0" fill="#8c4c17"/><path d="m398.738281 416.890625-23.796875-44.902344-56.285156-110.402343c-.378906-.75-.84375-1.453126-1.382812-2.105469l-51.175782-61.667969c-.230468-.273438-.46875-.535156-.71875-.789062l-32.328125-32.328126c-4.1875-4.1875-10.742187-4.425781-14.636719-.53125l-42.894531 42.898438c-1.570312 1.566406-2.457031 3.570312-2.695312 5.671875l-.078125-.074219s-14.042969 58.964844 209.761718 215.496094l.105469.101562c4.191407 4.191407 10.742188 4.425782 14.636719.53125 3.039062-3.039062 3.644531-7.835937 1.488281-11.898437zm0 0" fill="#db9c2e"/><path d="m189.71875 195.691406.074219.070313c.242187-2.101563 1.128906-4.101563 2.695312-5.671875l-16.96875 16.972656c-1.570312 1.566406-2.457031 3.570312-2.695312 5.671875l-.078125-.074219s-14.042969 58.964844 209.761718 215.496094l.105469.105469c4.1875 4.1875 10.742188 4.425781 14.632813.53125 3.042968-3.042969 3.644531-7.839844 1.492187-11.902344l-5.253906-9.917969c-217.554687-153.375-203.765625-211.28125-203.765625-211.28125zm0 0" fill="#bf6c0d"/><path d="m168.042969 146.328125c-1.671875 0-3.332031-.691406-4.515625-2.046875l-47.179688-53.851562c-2.1875-2.492188-1.933594-6.285157.558594-8.46875 2.492188-2.183594 6.28125-1.933594 8.464844.558593l47.183594 53.855469c2.183593 2.492188 1.929687 6.28125-.5625 8.464844-1.136719 1-2.546876 1.488281-3.949219 1.488281zm0 0" fill="#bf6c0d"/><path d="m205.832031 215.148438c-1.6875 0-3.363281-.707032-4.546875-2.085938-2.164062-2.511719-1.882812-6.300781.628906-8.460938l27.875-24.007812c2.515626-2.160156 6.300782-1.878906 8.464844.632812 2.160156 2.511719 1.878906 6.300782-.632812 8.460938l-27.875 24.007812c-1.132813.972657-2.527344 1.453126-3.914063 1.453126zm0 0" fill="#f9bb32"/><path d="m91.371094 47.054688c0 8.285156-6.714844 15-15 15-8.28125 0-15-6.714844-15-15 0-8.285157 6.71875-15 15-15 8.285156 0 15 6.714843 15 15zm0 0" fill="#8c4c17"/></svg>