<svg height="468pt" viewBox="-39 0 468 468.238" width="468pt" xmlns="http://www.w3.org/2000/svg"><path d="m354.683594 128.246094c-.492188 0-.992188-.070313-1.488282-.226563l-297.769531-92.582031c-2.640625-.820312-4.113281-3.621094-3.292969-6.257812.820313-2.636719 3.625-4.109376 6.261719-3.289063l297.769531 92.578125c2.640626.820312 4.113282 3.625 3.292969 6.261719-.667969 2.140625-2.644531 3.515625-4.773437 3.515625zm0 0" fill="#db9c2e"/><path d="m385.003906 140.863281h-318.171875v-24.078125h318.171875c2.761719 0 5 2.238282 5 5v14.078125c0 2.761719-2.238281 5-5 5zm0 0" fill="#a56021"/><path d="m55.960938 468.238281h-45.84375c-5.519532 0-10-4.476562-10-10v-448.238281c0-5.523438 4.480468-10 10-10h45.847656c5.519531 0 10 4.476562 10 10v448.238281c-.003906 5.523438-4.480469 10-10.003906 10zm0 0" fill="#ffeacf"/><path d="m285.894531 140.863281h23.136719v123.207031h-23.136719zm0 0" fill="#a56021"/><path d="m147.066406 140.863281h23.136719v123.207031h-23.136719zm0 0" fill="#a56021"/><g fill="#8c4c17"><path d="m106.832031 126.78125h283.171875v-5c0-2.757812-2.238281-5-5-5h-318.171875v24.082031h40zm0 0"/><path d="m157.066406 150.863281h13.136719v-10h-23.136719v123.207031h10zm0 0"/><path d="m295.894531 150.863281h13.136719v-10h-23.136719v123.207031h10zm0 0"/></g><path d="m369.476562 311.148438c0 75.710937-61.375 137.089843-137.089843 137.089843-75.714844 0-137.089844-61.378906-137.089844-137.089843 0-75.714844 61.375-137.089844 137.089844-137.089844 75.714843 0 137.089843 61.375 137.089843 137.089844zm0 0" fill="#ccc033"/><path d="m347.785156 311.148438c0 63.734374-51.664062 115.398437-115.398437 115.398437-63.730469 0-115.398438-51.664063-115.398438-115.398437 0-63.734376 51.667969-115.398438 115.398438-115.398438 63.734375 0 115.398437 51.664062 115.398437 115.398438zm0 0" fill="#fce575"/><path d="m135.296875 311.148438c0-68.917969 50.859375-125.953126 117.089844-135.632813-6.527344-.957031-13.203125-1.457031-20-1.457031-75.710938 0-137.089844 61.375-137.089844 137.089844 0 75.714843 61.378906 137.089843 137.089844 137.089843 6.796875 0 13.472656-.5 20-1.457031-66.230469-9.683594-117.089844-66.714844-117.089844-135.632812zm0 0" fill="#99af17"/><path d="m183.894531 206.445312c-39.46875 18.355469-66.90625 58.382813-66.90625 104.703126 0 46.320312 27.4375 86.34375 66.90625 104.699218-29.722656-25.144531-48.597656-62.71875-48.597656-104.699218 0-41.984376 18.875-79.554688 48.597656-104.703126zm0 0" fill="#ffdf74"/><path d="m327.550781 295.085938c-9.898437-11.5625-30.382812-10.261719-45.753906 2.898437-15.375 13.164063-19.8125 33.203125-9.914063 44.765625 9.894532 11.558594 30.382813 10.261719 45.753907-2.902344 15.375-13.160156 19.8125-33.203125 9.914062-44.761718zm-15.988281 37.667968c-6.863281 5.875-15.320312 9.042969-22.625 8.476563-2.960938-.226563-7.089844-1.203125-9.960938-4.554688-3.820312-4.464843-3.203124-10.492187-2.496093-13.6875 1.417969-6.398437 5.570312-12.925781 11.390625-17.910156 6.863281-5.875 15.320312-9.042969 22.625-8.476563 2.960937.230469 7.09375 1.207032 9.960937 4.558594 6.421875 7.5 2.347657 21.96875-8.894531 31.59375zm0 0" fill="#f9bb32"/><path d="m297.835938 340.246094c-3.03125.851562-6.050782 1.207031-8.898438.984375-2.960938-.226563-7.089844-1.203125-9.960938-4.554688-3.820312-4.464843-3.203124-10.492187-2.496093-13.6875 1.417969-6.398437 5.570312-12.925781 11.390625-17.910156 6.863281-5.875 15.320312-9.042969 22.625-8.476563 1.878906.144532 4.226562.59375 6.425781 1.757813.292969-2.683594.449219-5.40625.449219-8.167969v-1.71875c-10.542969-3.34375-24.40625-.046875-35.574219 9.511719-15.375 13.164063-19.8125 33.203125-9.914063 44.765625 3.660157 4.273438 8.769532 6.785156 14.535157 7.59375 4.144531-2.964844 7.972656-6.355469 11.417969-10.097656zm0 0" fill="#db9c2e"/><path d="m230.359375 364.105469c-40.820313 0-73.914063-33.09375-73.914063-73.914063v-4.074218c0-2.410157 1.953126-4.363282 4.367188-4.363282h139.097656c2.410156 0 4.367188 1.953125 4.367188 4.363282v4.074218c0 40.820313-33.09375 73.914063-73.917969 73.914063zm0 0" fill="#f9bb32"/><path d="m252.1875 359.742188h-.003906c-40.820313 0-73.914063-33.09375-73.914063-73.914063v-4.078125h-17.460937c-2.410156 0-4.363282 1.953125-4.363282 4.367188v4.074218c0 40.824219 33.089844 73.914063 73.914063 73.914063h.003906c8.890625 0 17.414063-1.570313 25.3125-4.449219-1.15625.054688-2.320312.085938-3.488281.085938zm0 0" fill="#db9c2e"/><path d="m266.609375 345.007812c-2.277344 0-4.457031-1.304687-5.464844-3.515624-1.371093-3.015626-.039062-6.570313 2.976563-7.945313 18.640625-8.488281 22.132812-35.574219 22.164062-35.847656.402344-3.285157 3.394532-5.625 6.671875-5.238281 3.285157.390624 5.632813 3.363281 5.246094 6.652343-.164063 1.382813-4.273437 34.042969-29.109375 45.351563-.804688.371094-1.652344.542968-2.484375.542968zm0 0" fill="#ffc34c"/><path d="m284.066406 382.585938h-107.410156c-8.285156 0-15-6.71875-15-15v-.714844h137.410156v.714844c0 8.28125-6.714844 15-15 15zm0 0" fill="#bf6c0d"/><path d="m179.113281 377.347656h119.820313c.085937-.425781.132812-.863281.132812-1.3125v-9.167968h-137.410156v9.167968c0 3.617188 2.929688 6.550782 6.546875 6.550782h10.914063v-5.238282zm0 0" fill="#a56021"/><path d="m303.820312 372.546875h-148.679687c-2.5625 0-4.960937-1.25-6.433594-3.347656l-5.320312-7.582031c-.8125-1.15625.015625-2.75 1.429687-2.75h170.621094c1.496094 0 2.300781 1.757812 1.320312 2.890624l-7 8.074219c-1.492187 1.722657-3.65625 2.714844-5.9375 2.714844zm0 0" fill="#bf6c0d"/><path d="m251.253906 224.820312c-14.058594-13.789062-33.910156-16.347656-44.335937-5.714843-10.425781 10.628906-7.484375 30.425781 6.578125 44.214843 14.058594 13.789063 33.90625 16.351563 44.335937 5.71875 10.425781-10.628906 7.480469-30.425781-6.578125-44.21875zm0 0" fill="#a56021"/><path d="m220.851562 255.882812c-12.382812-12.117187-16.171874-28.902343-9.8125-40.015624-1.496093.902343-2.886718 1.988281-4.136718 3.269531-10.40625 10.648437-7.433594 30.453125 6.640625 44.226562 14.074219 13.773438 33.921875 16.308594 44.328125 5.65625 1.25-1.28125 2.304687-2.695312 3.175781-4.210937-10.960937 6.609375-27.8125 3.195312-40.195313-8.925782zm0 0" fill="#8c4c17"/><path d="m255.835938 270.527344c-.011719 0-.019532 0-.027344 0-18.785156-.140625-25.390625-14.257813-26.257813-21.703125-1.039062-9.960938-4.074219-16.894531-9.027343-20.644531-4.960938-3.765626-10.292969-2.976563-10.34375-2.96875-1.90625.339843-3.714844-.953126-4.042969-2.855469-.328125-1.90625.953125-3.714844 2.855469-4.042969.335937-.054688 8.320312-1.347656 15.757812 4.285156 6.558594 4.972656 10.515625 13.539063 11.757812 25.460938.070313.566406 2.148438 15.339844 19.351563 15.46875 1.933594.015625 3.488281 1.59375 3.476563 3.527344-.015626 1.921874-1.578126 3.472656-3.5 3.472656zm0 0" fill="#8c4c17"/><path d="m224.121094 309.304688c0 8.027343-6.507813 14.535156-14.535156 14.535156-8.027344 0-14.53125-6.507813-14.53125-14.535156 0-8.027344 6.503906-14.535157 14.53125-14.535157 8.027343 0 14.535156 6.507813 14.535156 14.535157zm0 0" fill="#db9c2e"/></svg>