<svg height="451pt" viewBox="0 -2 451.716 451" width="451pt" xmlns="http://www.w3.org/2000/svg"><path d="m409.917969 447.628906h-369.398438c-8.28125 0-15-6.714844-15-15v-382.15625c0-8.285156 6.71875-15 15-15h369.398438c8.285156 0 15 6.714844 15 15v382.15625c0 8.285156-6.714844 15-15 15zm0 0" fill="#ffc34c"/><path d="m78.480469 431.742188v-380.382813c0-8.773437 7.117187-15.886719 15.890625-15.886719h-52.960938c-8.777344 0-15.890625 7.113282-15.890625 15.886719v380.382813c0 8.773437 7.117188 15.886718 15.890625 15.886718h52.960938c-8.773438 0-15.890625-7.113281-15.890625-15.886718zm0 0" fill="#ffc34c"/><path d="m276.898438 430.871094v-173.199219c0-2.207031 1.792968-4 4-4h77.496093c2.207031 0 4 1.792969 4 4v173.199219c0 2.207031-1.792969 4-4 4h-77.496093c-2.207032 0-4-1.792969-4-4zm0 0" fill="#ffeacf"/><path d="m25.519531 256.226562h238.621094v122.496094h-238.621094zm0 0" fill="#ffeacf"/><path d="m424.917969 119.691406h-399.398438l-25.519531 72.734375h451.714844zm0 0" fill="#ccc033"/><path d="m432.992188 119.691406h-424.476563c-2.761719 0-5-2.242187-5-5v-20.625c0-2.761718 2.238281-5 5-5h424.476563c2.761718 0 5 2.238282 5 5v20.625c0 2.757813-2.238282 5-5 5zm0 0" fill="#ffdf74"/><path d="m45.882812 107.070312c0-2.921874 2.371094-5.292968 5.296876-5.292968h386.8125v-7.417969c0-2.921875-2.371094-5.292969-5.296876-5.292969h-423.882812c-2.925781 0-5.296875 2.371094-5.296875 5.292969v20.035156c0 2.925781 2.371094 5.296875 5.296875 5.296875h37.070312zm0 0" fill="#ffd551"/><path d="m99.53125 342.996094h262.863281v15.3125h-262.863281zm0 0" fill="#ffdf74"/><path d="m194.605469 290.953125-16.875 19.042969h31.722656zm0 0" fill="#ffdf74"/><path d="m205.0625 312.996094h-26.796875c-1.136719 0-2.179687-.648438-2.6875-1.667969s-.390625-2.238281.300781-3.148437l13.425782-17.679688v-34.277344c0-1.65625 1.339843-3 3-3 1.65625 0 3 1.34375 3 3v35.289063c0 .652343-.214844 1.292969-.613282 1.8125l-10.378906 13.667969h20.75c1.65625 0 3 1.34375 3 3 0 1.660156-1.34375 3.003906-3 3.003906zm0 0" fill="#ffc34c"/><path d="m258.917969 290.953125-16.875 19.042969h31.722656zm0 0" fill="#ffdf74"/><path d="m268.863281 312.996094h-26.796875c-1.136718 0-2.179687-.648438-2.6875-1.667969-.507812-1.019531-.390625-2.238281.300782-3.148437l13.425781-17.679688v-34.277344c0-1.65625 1.34375-3 3-3s3 1.34375 3 3v35.289063c0 .652343-.214844 1.292969-.613281 1.8125l-10.378907 13.667969h20.75c1.660157 0 3 1.34375 3 3 0 1.660156-1.339843 3.003906-3 3.003906zm0 0" fill="#ffc34c"/><path d="m230.355469 342.996094h-77.675781v-17.703125c0-2.207031 1.789062-4 4-4h73.675781zm0 0" fill="#ffdf74"/><path d="m201.488281 368.933594h-37.640625v-29.734375c0-3.316407 2.683594-6 6-6h25.640625c3.316407 0 6 2.683593 6 6zm0 0" fill="#ffd59a"/><path d="m161.292969 365.964844h42.746093v12.757812h-42.746093zm0 0" fill="#ffd59a"/><path d="m332.417969 312.996094h-26.796875c-1.140625 0-2.179688-.648438-2.6875-1.667969-.507813-1.019531-.390625-2.238281.300781-3.148437l13.425781-17.679688v-34.277344c0-1.65625 1.34375-3 3-3s3 1.34375 3 3v35.289063c0 .652343-.214844 1.292969-.613281 1.8125l-10.378906 13.667969h20.75c1.65625 0 3 1.34375 3 3 0 1.660156-1.34375 3.003906-3 3.003906zm0 0" fill="#ffc34c"/><path d="m25.519531 206.191406h399.398438v34.246094h-399.398438zm0 0" fill="#ffa730"/><path d="m25.519531 119.691406-25.519531 72.734375h42.371094l25.519531-72.734375zm0 0" fill="#99af17"/><path d="m441.714844 226.671875h-431.714844c-5.523438 0-10-4.480469-10-10v-24.246094h451.714844v24.246094c0 5.519531-4.476563 10-10 10zm0 0" fill="#eacf32"/><path d="m42.371094 216.078125v-23.652344h-42.371094v23.652344c0 5.851563 4.742188 10.59375 10.59375 10.59375h42.367188c-5.847657 0-10.589844-4.746094-10.589844-10.59375zm0 0" fill="#ccc033"/><path d="m426.902344 60.023438c0 32.953124-26.710938 59.667968-59.664063 59.667968s-59.667969-26.714844-59.667969-59.667968c0-32.953126 26.714844-59.664063 59.667969-59.664063s59.664063 26.710937 59.664063 59.664063zm0 0" fill="#a56021"/><path d="m437.992188 60.023438c0 32.953124-26.710938 59.667968-59.664063 59.667968s-59.667969-26.714844-59.667969-59.667968c0-32.953126 26.714844-59.664063 59.667969-59.664063s59.664063 26.710937 59.664063 59.664063zm0 0" fill="#e58d23"/><path d="m426.902344 60.023438c0 26.828124-21.746094 48.578124-48.574219 48.578124s-48.578125-21.75-48.578125-48.578124c0-26.828126 21.75-48.574219 48.578125-48.574219s48.574219 21.746093 48.574219 48.574219zm0 0" fill="#fcf9de"/><path d="m264.140625 256.226562h-238.621094v-13.3125c0-1.105468.894531-2 2-2h236.621094zm0 0" fill="#8c4c17"/><path d="m169.691406 256.226562h-59.917968l-84.253907 84.25v38.246094h21.671875zm0 0" fill="#fcf9de"/><path d="m276.898438 316.523438v61.167968l85.496093-87.277344v-32.503906c0-2.339844-1.898437-4.238281-4.238281-4.238281h-19.691406zm0 0" fill="#fcf9de"/><path d="m276.898438 358.308594h18.988281l15-15.3125h-33.988281zm0 0" fill="#fff4c1"/><path d="m322.46875 290.953125-16.871094 19.042969h31.71875zm0 0" fill="#ffea63"/><path d="m332.417969 312.996094h-26.796875c-1.140625 0-2.179688-.648438-2.6875-1.667969-.507813-1.019531-.390625-2.238281.300781-3.148437l13.425781-17.679688v-20.757812c0-1.65625 1.34375-3 3-3s3 1.34375 3 3v21.769531c0 .652343-.214844 1.292969-.613281 1.8125l-10.378906 13.667969h20.75c1.65625 0 3 1.34375 3 3 0 1.660156-1.34375 3.003906-3 3.003906zm0 0" fill="#ffd551"/><path d="m230.027344 321.292969h34.113281v21.703125h-34.113281zm0 0" fill="#ffdf74"/><path d="m276.898438 342.996094h30.804687v-17.703125c0-2.207031-1.792969-4-4-4h-26.804687zm0 0" fill="#fff4c1"/><path d="m275.882812 368.933594h-37.644531v-29.734375c0-3.316407 2.6875-6 6-6h25.644531c3.3125 0 6 2.683593 6 6zm0 0" fill="#ffd59a"/><path d="m235.6875 365.964844h42.746094v12.757812h-42.746094zm0 0" fill="#ffd59a"/><path d="m370.917969 240.914062h-106.777344v202.480469c0 2.339844 1.894531 4.234375 4.234375 4.234375h102.542969c2.339843 0 4.234375-1.894531 4.234375-4.234375v-198.246093c0-2.339844-1.894532-4.234376-4.234375-4.234376zm-8.523438 189.71875c0 2.339844-1.898437 4.238282-4.238281 4.238282h-77.019531c-2.339844 0-4.238281-1.898438-4.238281-4.238282v-172.722656c0-2.339844 1.898437-4.238281 4.238281-4.238281h77.019531c2.339844 0 4.238281 1.898437 4.238281 4.238281zm0 0" fill="#8c4c17"/><path d="m423.160156 60.964844c-4.703125-5.496094-14.441406-4.878906-21.753906 1.378906-7.308594 6.257812-9.417969 15.785156-4.710938 21.28125 4.707032 5.496094 14.445313 4.878906 21.753907-1.378906 7.308593-6.257813 9.417969-15.785156 4.710937-21.28125zm-7.597656 17.90625c-3.261719 2.792968-7.285156 4.300781-10.757812 4.03125-1.40625-.109375-3.371094-.574219-4.738282-2.167969-1.8125-2.121094-1.519531-4.988281-1.183594-6.507813.671876-3.039062 2.644532-6.140624 5.414063-8.511718 3.261719-2.792969 7.28125-4.300782 10.753906-4.03125 1.410157.109375 3.375.574218 4.738281 2.167968 3.054688 3.566407 1.117188 10.445313-4.226562 15.019532zm0 0" fill="#ffd551"/><path d="m409.035156 82.433594c-1.441406.40625-2.878906.574218-4.230468.46875-1.40625-.109375-3.371094-.574219-4.738282-2.167969-1.8125-2.121094-1.519531-4.988281-1.183594-6.507813.671876-3.039062 2.644532-6.140624 5.414063-8.511718 3.261719-2.792969 7.28125-4.300782 10.753906-4.03125.894531.070312 2.011719.285156 3.054688.835937.140625-1.277343.214843-2.570312.214843-3.882812v-.820313c-5.011718-1.585937-11.601562-.019531-16.914062 4.523438-7.308594 6.257812-9.417969 15.789062-4.710938 21.28125 1.738282 2.035156 4.167969 3.230468 6.910157 3.613281 1.972656-1.410156 3.789062-3.019531 5.429687-4.800781zm0 0" fill="#ffc34c"/><path d="m382.066406 93.777344h-10.226562c-16.582032 0-30.027344-13.445313-30.027344-30.027344v-7.355469c0-.976562.792969-1.773437 1.773438-1.773437h66.738281c.976562 0 1.773437.796875 1.773437 1.773437v7.355469c0 16.582031-13.445312 30.027344-30.03125 30.027344zm0 0" fill="#ffd551"/><path d="m402.980469 104.464844h-52.5625c-3.523438 0-6.382813-2.859375-6.382813-6.382813v-1.089843h65.328125v1.089843c0 3.523438-2.855469 6.382813-6.382812 6.382813zm0 0" fill="#ffc34c"/><path d="m383.839844 92.777344c-16.582032 0-30.027344-13.445313-30.027344-30.027344v-7.355469c0-.277343.070312-.535156.183594-.773437h-10.410156c-.976563 0-1.773438.796875-1.773438 1.773437v7.355469c0 16.582031 13.445312 30.027344 30.03125 30.027344h10.226562c2.660157 0 5.238282-.351563 7.695313-1zm0 0" fill="#ffc34c"/><path d="m354.035156 102.082031v-1.089843h54.621094c.449219-.871094.707031-1.859376.707031-2.910157v-1.089843h-65.328125v1.089843c0 3.523438 2.859375 6.382813 6.382813 6.382813h4.082031c-.296875-.738282-.464844-1.539063-.464844-2.382813zm0 0" fill="#ffa730"/><path d="m411.625 98.632812h-70.6875c-1.21875 0-2.359375-.59375-3.058594-1.589843l-2.527344-3.605469c-.386718-.550781.007813-1.308594.679688-1.308594h81.117188c.710937 0 1.09375.835938.628906 1.375l-3.328125 3.839844c-.710938.816406-1.738281 1.289062-2.824219 1.289062zm0 0" fill="#ffc34c"/><path d="m394.441406 33.714844c0-7.398438-7.941406-13.394532-17.742187-13.394532-9.796875 0-17.738281 5.996094-17.738281 13.394532 0 7.398437 7.941406 13.394531 17.738281 13.394531 9.800781 0 17.742187-5.996094 17.742187-13.394531zm0 0" fill="#a56021"/><path d="m366.898438 33.714844c0-6.351563 5.761718-11.664063 13.492187-13.042969-1.273437-.230469-2.601563-.351563-3.96875-.351563-9.644531 0-17.460937 5.996094-17.460937 13.394532 0 7.398437 7.816406 13.394531 17.460937 13.394531 1.367187 0 2.695313-.121094 3.96875-.351563-7.730469-1.378906-13.492187-6.691406-13.492187-13.042968zm0 0" fill="#8c4c17"/><path d="m385.425781 38.566406c-5.351562 0-9.59375-3.734375-9.777343-3.898437-6.785157-6.433594-13.8125-.269531-14.109376-.003907-.605468.546876-1.574218.527344-2.15625-.046874-.582031-.570313-.558593-1.480469.050782-2.027344 3.253906-2.925782 11.28125-6.679688 18.351562.027344 0 0 3.734375 3.25 7.992188 3.070312 2.191406-.09375 4.207031-1.109375 5.992187-3.011719.558594-.59375 1.523438-.648437 2.15625-.125.632813.523438.691407 1.429688.132813 2.023438-2.359375 2.515625-5.105469 3.855469-8.164063 3.980469-.160156.007812-.316406.011718-.46875.011718zm0 0" fill="#8c4c17"/><path d="m264.140625 408.148438h-236.621094c-1.105469 0-2-.894532-2-2v-14.832032c0-1.105468.894531-2 2-2h236.621094zm0 0" fill="#ffa730"/><path d="m264.140625 394.035156h-236.621094c-1.105469 0-2-.894531-2-2v-13.3125h238.621094zm0 0" fill="#8c4c17"/><path d="m433.785156 183.4375c-2.394531 0-4.65625-1.441406-5.585937-3.804688l-18.667969-47.441406c-1.210938-3.082031.304688-6.566406 3.386719-7.78125 3.089843-1.214844 6.570312.304688 7.78125 3.386719l18.667969 47.441406c1.210937 3.085938-.304688 6.570313-3.386719 7.78125-.722657.285157-1.464844.417969-2.195313.417969zm0 0" fill="#eacf32"/><path d="m412.097656 306.472656c-3.316406 0-6-2.6875-6-6v-17.363281c0-3.3125 2.683594-6 6-6 3.3125 0 6 2.6875 6 6v17.363281c0 3.3125-2.6875 6-6 6zm0 0" fill="#ffd551"/><path d="m412.097656 419.992188c-3.316406 0-6-2.683594-6-6v-96.519532c0-3.3125 2.683594-6 6-6 3.3125 0 6 2.6875 6 6v96.519532c0 3.316406-2.6875 6-6 6zm0 0" fill="#ffd551"/><path d="m388.25 87.5625c-1.085938 0-2.207031-.210938-3.351562-.691406-2.035157-.855469-2.992188-3.199219-2.136719-5.238282.855469-2.035156 3.203125-2.992187 5.234375-2.136718 1.304687.546875 5.164062-3.238282 7.398437-7.222656 1.078125-1.925782 3.515625-2.613282 5.445313-1.535157 1.925781 1.082031 2.609375 3.519531 1.53125 5.445313-.730469 1.304687-6.625 11.378906-14.121094 11.378906zm0 0" fill="#ffdf74"/><path d="m96.957031 141.527344c0 8.027344-6.507812 14.535156-14.53125 14.535156-8.027343 0-14.535156-6.507812-14.535156-14.535156s6.507813-14.535156 14.535156-14.535156c8.023438 0 14.53125 6.507812 14.53125 14.535156zm0 0" fill="#99af17"/><path d="m314.984375 413.992188c0 8.027343-6.507813 14.535156-14.535156 14.535156-8.027344 0-14.535157-6.507813-14.535157-14.535156 0-8.023438 6.507813-14.53125 14.535157-14.53125 8.027343 0 14.535156 6.507812 14.535156 14.53125zm0 0" fill="#fcf9de"/><path d="m134.289062 170.59375c0 8.027344-6.503906 14.535156-14.53125 14.535156-8.027343 0-14.535156-6.507812-14.535156-14.535156s6.507813-14.53125 14.535156-14.53125c8.027344 0 14.53125 6.503906 14.53125 14.53125zm0 0" fill="#99af17"/></svg>