<svg height="468pt" viewBox="-73 0 468 468.238" width="468pt" xmlns="http://www.w3.org/2000/svg"><path d="m306.527344 67.054688h-289.898438l17.738282-50.359376c3.523437-10.003906 12.976562-16.695312 23.582031-16.695312h207.261719c10.601562 0 20.054687 6.691406 23.578124 16.695312zm0 0" fill="#a56021"/><path d="m97.949219 0h-40c-10.605469 0-20.058594 6.691406-23.582031 16.695312l-17.738282 50.359376h40l17.738282-50.359376c3.523437-10.003906 12.976562-16.695312 23.582031-16.695312zm0 0" fill="#8c4c17"/><path d="m241.21875 468.238281h-159.277344c-15.519531 0-28.472656-11.835937-29.878906-27.289062l-30.457031-335.515625h279.945312l-30.457031 335.515625c-1.402344 15.453125-14.359375 27.289062-29.875 27.289062zm0 0" fill="#ffeacf"/><path d="m92.0625 440.949219-30.457031-335.515625h-40l30.457031 335.515625c1.40625 15.453125 14.359375 27.289062 29.878906 27.289062h40c-15.515625 0-28.472656-11.835937-29.878906-27.289062zm0 0" fill="#ffd59a"/><path d="m311.039062 105.433594h-298.921874c-6.625 0-12-5.375-12-12v-24.566406c0-6.625 5.375-12 12-12h298.921874c6.625 0 12 5.375 12 12v24.566406c0 6.625-5.371093 12-12 12zm0 0" fill="#a56021"/><path d="m42.355469 356.054688h238.445312c4.042969 0 7.421875-3.144532 7.800781-7.257813l11.644532-127.484375c.429687-4.691406-3.1875-8.742188-7.800782-8.742188h-261.734374c-4.613282 0-8.226563 4.050782-7.796876 8.742188l11.644532 127.484375c.375 4.113281 3.753906 7.257813 7.796875 7.257813zm0 0" fill="#a56021"/><path d="m237.925781 283.796875c0 39.042969-31.652343 70.691406-70.695312 70.691406s-70.691407-31.648437-70.691407-70.691406 31.648438-70.695313 70.691407-70.695313 70.695312 31.652344 70.695312 70.695313zm0 0" fill="#db9c2e"/><path d="m40.117188 88.867188c0-6.625 5.375-12 12-12h270.921874v-8c0-6.625-5.375-12-12-12h-298.921874c-6.625 0-12 5.375-12 12v24.566406c0 6.625 5.375 12 12 12h28zm0 0" fill="#8c4c17"/><path d="m269.960938 339.953125c-.183594 0-.367188-.007813-.550782-.023437-3.300781-.300782-5.730468-3.222657-5.429687-6.523438l9.195312-100.667969c.300781-3.296875 3.210938-5.730469 6.519531-5.425781 3.300782.300781 5.730469 3.21875 5.429688 6.519531l-9.195312 100.667969c-.285157 3.113281-2.902344 5.453125-5.96875 5.453125zm0 0" fill="#bf6c0d"/><path d="m283.003906 49.117188c-3.046875 0-5.65625-2.3125-5.964844-5.40625-.742187-7.507813-3.488281-12.960938-8.402343-16.667969-10.695313-8.078125-28.359375-5.171875-28.535157-5.140625-3.265624.585937-6.382812-1.578125-6.96875-4.839844-.589843-3.261719 1.578126-6.382812 4.839844-6.96875.925782-.167969 22.878906-3.96875 37.894532 7.371094 7.628906 5.761718 12.039062 14.191406 13.113281 25.0625.328125 3.296875-2.082031 6.234375-5.378907 6.5625-.199218.019531-.398437.027344-.597656.027344zm0 0" fill="#bf6c0d"/><path d="m273.148438 198.074219c-.214844 0-.433594-.007813-.652344-.035157-3.292969-.351562-5.675782-3.3125-5.320313-6.605468l7.136719-66.199219c.355469-3.296875 3.324219-5.675781 6.609375-5.324219 3.292969.355469 5.675781 3.316406 5.320313 6.609375l-7.136719 66.199219c-.332031 3.074219-2.929688 5.355469-5.957031 5.355469zm0 0" fill="#fcf9de"/><path d="m226.746094 447.808594c-.34375 0-.691406-.003906-1.042969-.011719-3.3125-.085937-5.929687-2.835937-5.847656-6.152344.085937-3.3125 2.859375-5.929687 6.152343-5.84375 7.148438.179688 12.144532-2.308593 15.152344-7.613281 2.496094-4.386719 2.734375-9.109375 2.738282-9.15625.003906-.109375.011718-.253906.023437-.363281l3.683594-36.871094c.332031-3.296875 3.265625-5.703125 6.570312-5.371094 3.296875.328125 5.703125 3.269531 5.371094 6.566407l-3.667969 36.683593c-.410156 9.953125-7.015625 28.132813-29.132812 28.132813zm0 0" fill="#fcf9de"/><path d="m132.515625 391.214844c0 8.285156-6.714844 15-15 15-8.28125 0-15-6.714844-15-15s6.71875-15 15-15c8.285156 0 15 6.714844 15 15zm0 0" fill="#ffd59a"/><path d="m164.785156 430.476562c0 8.285157-6.714844 15-15 15s-15-6.714843-15-15c0-8.28125 6.714844-15 15-15s15 6.71875 15 15zm0 0" fill="#ffd59a"/><g fill="#8c4c17"><path d="m111.539062 29.234375c0 8.28125-6.714843 15-15 15-8.285156 0-15-6.71875-15-15 0-8.285156 6.714844-15 15-15 8.285157 0 15 6.714844 15 15zm0 0"/><path d="m84.558594 348.796875-11.644532-127.484375c-.429687-4.691406 3.183594-8.742188 7.796876-8.742188h-50c-4.613282 0-8.226563 4.050782-7.796876 8.742188l11.644532 127.484375c.375 4.113281 3.753906 7.257813 7.796875 7.257813h50c-4.042969 0-7.421875-3.144532-7.796875-7.257813zm0 0"/></g></svg>