<svg height="474pt" viewBox="0 -49 474.07476 474" width="474pt" xmlns="http://www.w3.org/2000/svg"><path d="m221.972656 209.433594c-87.175781-112.21875-172.371094-43.539063-197.074218-19.089844-4.171876 4.128906-2.164063 11.675781 4.417968 16.648438 39.769532 30.050781 170.070313 119.039062 196.710938 17.066406 1.164062-4.460938-.328125-9.828125-4.054688-14.625zm0 0" fill="#ccc033"/><path d="m221.972656 209.433594c-87.175781-112.21875-172.371094-43.539063-197.074218-19.089844-2.742188 2.710938-2.800782 6.898438-.660157 10.863281 39.046875-20.605469 97.925781-28.761719 157.734375 48.226563 3.726563 4.796875 5.222656 10.164062 4.054688 14.625-.546875 2.105468-1.148438 4.125-1.785156 6.070312 19.117187-4.277344 34.417968-17.867187 41.785156-46.070312 1.164062-4.460938-.328125-9.828125-4.054688-14.625zm0 0" fill="#99af17"/><path d="m285.53125 227.050781c53.6875 131.566407 154.246094 88.40625 184.628906 71.523438 5.128906-2.851563 5.230469-10.660157.234375-17.226563-30.195312-39.660156-131.671875-160.484375-184.824219-69.472656-2.324218 3.980469-2.332031 9.550781-.039062 15.175781zm0 0" fill="#eacf32"/><path d="m391.316406 200.855469c-37.074218-26.269531-77.996094-36.5-105.746094 11.019531-2.324218 3.980469-2.332031 9.550781-.039062 15.175781 23.421875 57.390625 55.757812 81.53125 87.300781 89.113281-12.839843-10.417968-25.078125-25.050781-36-45.128906 7.804688-8.1875 12.605469-19.261718 12.605469-31.464844 0-10.085937-3.28125-19.40625-8.824219-26.957031-1.324219 1.222657-2.632812 2.539063-3.925781 3.941407 16.027344-17.472657 35.035156-20.753907 54.628906-15.699219zm-64.464844 49.367187c-.441406-1.046875-.882812-2.101562-1.316406-3.171875.433594 1.070313.875 2.125 1.316406 3.171875zm8.523438 18.082032c.484375.921874.96875 1.832031 1.460938 2.730468-.492188-.898437-.976563-1.808594-1.460938-2.730468zm-8.199219-17.324219c.339844.792969.679688 1.582031 1.019531 2.363281-.339843-.78125-.679687-1.570312-1.019531-2.363281zm1.355469 3.121093c.347656.78125.691406 1.5625 1.042969 2.328126-.347657-.765626-.695313-1.546876-1.042969-2.328126zm1.324219 2.945313c.375.8125.746093 1.621094 1.125 2.417969-.378907-.796875-.75-1.605469-1.125-2.417969zm1.34375 2.886719c.402343.847656.808593 1.691406 1.214843 2.527344-.40625-.835938-.8125-1.679688-1.214843-2.527344zm1.363281 2.824218c.433594.882813.871094 1.761719 1.308594 2.628907-.4375-.867188-.875-1.742188-1.308594-2.628907zm1.390625 2.792969c.464844.910157.929687 1.8125 1.394531 2.703125-.464844-.890625-.929687-1.789062-1.394531-2.703125zm.867187-46.875c.609376-.71875 1.226563-1.417969 1.84375-2.09375-.617187.675781-1.234374 1.375-1.84375 2.09375zm-9.25 13.199219c.574219-.984375 1.15625-1.941406 1.738282-2.875-.582032.933594-1.164063 1.890625-1.738282 2.875zm2.140626-3.496094c.460937-.722656.921874-1.4375 1.386718-2.132812-.464844.695312-.925781 1.410156-1.386718 2.132812zm1.757812-2.664062c.488281-.710938.972656-1.410156 1.464844-2.089844-.492188.679688-.976563 1.378906-1.464844 2.089844zm1.75-2.472656c.527344-.714844 1.054688-1.417969 1.589844-2.101563-.535156.683594-1.0625 1.386719-1.589844 2.101563zm1.78125-2.34375c.570312-.722657 1.144531-1.425782 1.71875-2.109376-.578125.683594-1.148438 1.390626-1.71875 2.109376zm0 0" fill="#ccc033"/><path d="m13.792969 369.164062c233.964843-86.554687 345.535156-211.363281 379.648437-255.925781 6.523438-8.523437 3.882813-20.851562-5.566406-25.9375l-.003906-.003906c-7.558594-4.070313-16.957032-2.035156-22.136719 4.808594-27.929687 36.921875-128.191406 152.015625-359.761719 258.183593-5.480468 2.515626-7.617187 9.199219-4.59375 14.417969 2.5 4.308594 7.742188 6.183594 12.414063 4.457031zm0 0" fill="#a56021"/><path d="m273.882812 193.949219c0 25.195312-20.421874 45.621093-45.617187 45.621093s-45.621094-20.425781-45.621094-45.621093c0-25.195313 20.425781-45.621094 45.621094-45.621094s45.617187 20.425781 45.617187 45.621094zm0 0" fill="#ff4b34"/><path d="m261.429688 255.003906c0 25.195313-20.425782 45.621094-45.621094 45.621094-25.195313 0-45.621094-20.425781-45.621094-45.621094 0-25.195312 20.425781-45.621094 45.621094-45.621094 25.195312 0 45.621094 20.425782 45.621094 45.621094zm0 0" fill="#ff624b"/><path d="m11.554688 369.707031c227.585937-105.445312 326.476562-218.980469 354.179687-255.601562 5.179687-6.84375 14.578125-8.875 22.136719-4.804688h.003906c2.097656 1.132813 3.839844 2.632813 5.242188 4.355469.105468-.136719.21875-.28125.320312-.417969 6.523438-8.523437 3.882812-20.847656-5.5625-25.9375l-.003906-.003906c-7.558594-4.070313-16.957032-2.035156-22.136719 4.808594-27.929687 36.921875-128.191406 152.015625-359.761719 258.183593-5.480468 2.515626-7.617187 9.199219-4.59375 14.417969 2.105469 3.628907 6.15625 5.523438 10.175782 5zm0 0" fill="#8c4c17"/><path d="m245.136719 196.335938c-121.738281-73.292969-63.613281-166.011719-42.257813-193.429688 3.609375-4.632812 11.339844-3.53125 17.054688 2.417969 34.542968 35.9375 138.3125 154.800781 40.207031 193.3125-4.289063 1.683593-9.796875.835937-15.003906-2.300781zm0 0" fill="#ccc033"/><path d="m266.40625 295.886719c0 25.195312-20.425781 45.621093-45.621094 45.621093-25.195312 0-45.617187-20.425781-45.617187-45.621093 0-25.195313 20.421875-45.617188 45.617187-45.617188 25.195313 0 45.621094 20.421875 45.621094 45.617188zm0 0" fill="#ff624b"/><path d="m209.449219 286.65625c12.476562-15.316406 32.832031-20.425781 50.457031-14.25-2.644531-4.410156-6.085938-8.449219-10.304688-11.886719-19.535156-15.914062-48.269531-12.980469-64.183593 6.554688-15.914063 19.535156-12.980469 48.269531 6.554687 64.183593 4.21875 3.4375 8.867188 5.992188 13.726563 7.691407-9.609375-16.011719-8.722657-36.980469 3.75-52.292969zm0 0" fill="#ff4b34"/><path d="m226.496094 329.28125c-2.445313 0-4.746094-1.507812-5.636719-3.941406-1.136719-3.109375.460937-6.554688 3.574219-7.695313 8.949218-3.269531 14.671875-7.667969 17.019531-13.0625 2.472656-5.695312.367187-10.808593.277344-11.023437-1.367188-3.019532-.007813-6.539063 3.011719-7.902344 3.019531-1.367188 6.589843.007812 7.953124 3.027344.445313.992187 4.253907 10-.113281 20.386718-3.644531 8.671876-11.726562 15.347657-24.023437 19.84375-.683594.25-1.378906.367188-2.0625.367188zm0 0" fill="#ff9079"/><path d="m228.265625 212.027344c0 25.195312-20.425781 45.621094-45.621094 45.621094-25.195312 0-45.621093-20.425782-45.621093-45.621094 0-25.195313 20.425781-45.617188 45.621093-45.617188 25.195313 0 45.621094 20.421875 45.621094 45.617188zm0 0" fill="#ff624b"/><path d="m169.007812 217.304688c-7.128906-18.421876-1.488281-38.636719 12.601563-50.890626-5.144531.113282-10.355469 1.105469-15.429687 3.070313-23.5 9.09375-35.175782 35.511719-26.082032 59.011719 9.09375 23.496094 35.515625 35.171875 59.011719 26.078125 5.074219-1.964844 9.597656-4.738281 13.480469-8.117188-18.671875.421875-36.453125-10.730469-43.582032-29.152343zm0 0" fill="#ff4b34"/><path d="m209.277344 226.628906c-.332032 0-.667969-.027344-1.007813-.085937-3.265625-.550781-5.46875-3.648438-4.914062-6.914063 1.601562-9.488281.582031-16.683594-3.035157-21.390625-3.707031-4.828125-9.207031-5.546875-9.261718-5.550781-3.300782-.3125-5.722656-3.238281-5.414063-6.535156.3125-3.300782 3.238281-5.722656 6.535157-5.414063 1.085937.101563 10.796874 1.253907 17.660156 10.191407 5.726562 7.457031 7.527344 17.785156 5.347656 30.699218-.496094 2.929688-3.035156 5-5.910156 5zm0 0" fill="#ff9079"/><path d="m226.832031 12.640625c-2.507812-2.710937-4.828125-5.164063-6.898437-7.316406-5.714844-5.949219-13.449219-7.050781-17.054688-2.417969-21.355468 27.417969-79.476562 120.136719 42.257813 193.429688 5.207031 3.136718 10.714843 3.984374 15.003906 2.300781 4.09375-1.605469 7.832031-3.359375 11.242187-5.234375-104.097656-65.660156-68.085937-145.808594-44.550781-180.761719zm0 0" fill="#99af17"/><path d="m329.4375 239.570312c0 25.195313-20.421875 45.617188-45.617188 45.617188-25.195312 0-45.621093-20.421875-45.621093-45.617188 0-25.195312 20.425781-45.621093 45.621093-45.621093 25.195313 0 45.617188 20.425781 45.617188 45.621093zm0 0" fill="#ff624b"/><path d="m269.199219 239.570312c0-19.753906 12.554687-36.570312 30.117187-42.914062-4.835937-1.75-10.054687-2.707031-15.5-2.707031-25.191406 0-45.617187 20.425781-45.617187 45.621093 0 25.195313 20.425781 45.621094 45.617187 45.621094 5.445313 0 10.664063-.957031 15.5-2.707031-17.5625-6.34375-30.117187-23.160156-30.117187-42.914063zm0 0" fill="#ff4b34"/><path d="m305.539062 263.203125c-1.042968 0-2.097656-.273437-3.0625-.847656-2.847656-1.691407-3.78125-5.375-2.089843-8.222657 4.871093-8.1875 6.535156-15.210937 4.945312-20.875-1.679687-5.976562-6.542969-8.613281-6.746093-8.71875-2.96875-1.480468-4.140626-5.070312-2.660157-8.035156s5.113281-4.152344 8.078125-2.671875c.976563.488281 9.617188 5.066407 12.792969 15.875 2.648437 9.023438.597656 19.304688-6.09375 30.558594-1.121094 1.890625-3.117187 2.9375-5.164063 2.9375zm0 0" fill="#ff9079"/><path d="m215.808594 330.808594c0 25.195312-20.425782 45.621094-45.621094 45.621094s-45.621094-20.425782-45.621094-45.621094c0-25.195313 20.425782-45.621094 45.621094-45.621094s45.621094 20.425781 45.621094 45.621094zm0 0" fill="#ff624b"/><path d="m155.890625 327.753906c4.125-19.316406 19.917969-33.136718 38.421875-35.675781-4.367188-2.71875-9.269531-4.746094-14.59375-5.882813-24.640625-5.261718-48.882812 10.445313-54.144531 35.085938-5.261719 24.636719 10.445312 48.878906 35.082031 54.140625 5.324219 1.136719 10.625 1.292969 15.726562.59375-15.851562-9.875-24.617187-28.941406-20.492187-48.261719zm0 0" fill="#ff4b34"/><path d="m187.75 358.589844c-1.457031 0-2.917969-.527344-4.074219-1.597656-2.429687-2.25-2.578125-6.046876-.324219-8.480469 6.46875-6.988281 9.5625-13.507813 9.191407-19.382813-.390625-6.195312-4.597657-9.785156-4.773438-9.933594-2.589843-2.070312-2.988281-5.820312-.921875-8.414062 2.066406-2.589844 5.867188-2.992188 8.460938-.925781.851562.679687 8.34375 6.964843 9.191406 18.199219.707031 9.375-3.445312 19.003906-12.34375 28.609374-1.183594 1.28125-2.792969 1.925782-4.40625 1.925782zm0 0" fill="#ff9079"/><path d="m165.65625 271.675781c0 25.195313-20.425781 45.617188-45.621094 45.617188-25.195312 0-45.617187-20.421875-45.617187-45.617188 0-25.195312 20.421875-45.621093 45.617187-45.621093 25.195313 0 45.621094 20.425781 45.621094 45.621093zm0 0" fill="#ff624b"/><path d="m105.414062 271.675781c0-19.753906 12.558594-36.570312 30.121094-42.917969-4.839844-1.746093-10.058594-2.703124-15.5-2.703124-25.195312 0-45.621094 20.425781-45.621094 45.621093 0 25.195313 20.425782 45.617188 45.621094 45.617188 5.441406 0 10.660156-.957031 15.5-2.703125-17.5625-6.34375-30.121094-23.164063-30.121094-42.914063zm0 0" fill="#ff4b34"/><path d="m141.757812 295.304688c-1.042968 0-2.101562-.269532-3.0625-.84375-2.847656-1.691407-3.785156-5.375-2.089843-8.222657 4.871093-8.1875 6.53125-15.210937 4.941406-20.875-1.675781-5.980469-6.539063-8.613281-6.746094-8.722656-2.964843-1.476563-4.136719-5.066406-2.65625-8.03125s5.113281-4.152344 8.078125-2.671875c.976563.488281 9.617188 5.066406 12.792969 15.875 2.648437 9.023438.597656 19.304688-6.09375 30.5625-1.125 1.882812-3.117187 2.929688-5.164063 2.929688zm0 0" fill="#ff9079"/><path d="m274.90625 151.941406c0 8.285156-6.714844 15-15 15-8.28125 0-15-6.714844-15-15s6.71875-15 15-15c8.285156 0 15 6.714844 15 15zm0 0" fill="#99af17"/><path d="m243.277344 116.503906c0 8.28125-6.714844 15-15 15s-15-6.71875-15-15c0-8.285156 6.714844-15 15-15s15 6.714844 15 15zm0 0" fill="#99af17"/><path d="m388.964844 269.671875c0 8.28125-6.714844 15-15 15-8.28125 0-15-6.71875-15-15 0-8.285156 6.71875-15 15-15 8.285156 0 15 6.714844 15 15zm0 0" fill="#ccc033"/><path d="m444.675781 287.285156c-1.578125 0-3.15625-.621094-4.332031-1.851562l-33-34.421875c-2.292969-2.390625-2.210938-6.1875.179688-8.480469 2.394531-2.292969 6.191406-2.214844 8.484374.179688l32.996094 34.421874c2.292969 2.390626 2.214844 6.1875-.179687 8.480469-1.160157 1.117188-2.65625 1.671875-4.148438 1.671875zm0 0" fill="#fce575"/></svg>