<svg height="456pt" viewBox="-59 0 456 456.556" width="456pt" xmlns="http://www.w3.org/2000/svg"><path d="m195.15625 54.9375h-143.824219v-34.9375c0-11.046875 8.953125-20 20-20h103.824219c11.046875 0 20 8.953125 20 20zm0 0" fill="#ffeacf"/><path d="m98.289062 0h-31.304687c-8.644531 0-15.652344 8.675781-15.652344 19.378906v35.558594h31.304688v-35.558594c0-10.703125 7.007812-19.378906 15.652343-19.378906zm0 0" fill="#ffd59a"/><path d="m212.277344 84.628906h-178.066406v-34.9375c0-11.046875 8.953124-20 20-20h138.066406c11.046875 0 20 8.953125 20 20zm0 0" fill="#ffeacf"/><path d="m72.96875 62.636719c0-10.703125 8.675781-19.378907 19.375-19.378907h119.042969c-2.46875-7.863281-9.8125-13.566406-18.488281-13.566406h-139.308594c-10.703125 0-19.378906 8.675782-19.378906 19.378906v35.5625h38.757812zm0 0" fill="#ffd59a"/><path d="m291.425781 185.320312c.113281.824219.191407 1.65625.191407 2.515626v105.75c0 9.953124-7.894532 18.023437-17.632813 18.023437h-77.761719v36.050781h89.515625c22.722657 0 41.140625-18.832031 41.140625-42.058594v-120.28125zm0 0" fill="#fcda4f"/><path d="m297.367188 150.054688h-89.515626v35.265624h77.761719c9.738281 0 17.628907 7.894532 17.628907 17.628907v103.441406c0 9.738281-7.890626 17.632813-17.628907 17.632813h-77.761719v35.265624h89.515626c22.722656 0 41.140624-18.421874 41.140624-41.140624v-126.953126c0-22.71875-18.417968-41.140624-41.140624-41.140624zm0 0" fill="#fff4c1"/><path d="m198.164062 150.054688h77.113282v35.265624h-77.113282zm0 0" fill="#fce575"/><path d="m198.164062 324.023438h77.113282v35.265624h-77.113282zm0 0" fill="#fce575"/><path d="m236.59375 103.597656h-226.699219c-5.308593 0-9.617187 4.085938-9.617187 9.121094v289.113281c0 30.222657 25.832031 54.722657 57.699218 54.722657h130.53125c31.867188 0 57.703126-24.5 57.703126-54.722657v-289.113281c0-5.035156-4.308594-9.121094-9.617188-9.121094zm0 0" fill="#fff4c1"/><path d="m39.035156 401.835938v-289.117188c0-5.035156 4.304688-9.117188 9.617188-9.117188h-38.757813c-5.308593 0-9.617187 4.082032-9.617187 9.117188v289.117188c0 30.21875 25.832031 54.71875 57.699218 54.71875h38.757813c-31.867187 0-57.699219-24.5-57.699219-54.71875zm0 0" fill="#fce575"/><path d="m57.976562 437.320312c-21.207031 0-38.464843-14.851562-38.464843-33.113281v-254.152343h207.464843v254.152343c0 18.261719-17.257812 33.113281-38.46875 33.113281zm0 0" fill="#a56021"/><path d="m226.976562 123.003906h-207.464843v-34.941406c0-11.046875 8.953125-20 20-20h167.464843c11.046876 0 20 8.953125 20 20zm0 0" fill="#ffeacf"/><path d="m58.269531 99.070312c0-10.703124 8.675781-19.378906 19.378907-19.378906h147.703124c-2.988281-6.84375-9.808593-11.628906-17.753906-11.628906h-168.707031c-10.703125 0-19.378906 8.675781-19.378906 19.378906v35.5625h38.757812zm0 0" fill="#ffd59a"/><path d="m58.269531 404.207031v-254.152343h-38.757812v254.152343c0 18.261719 17.257812 33.117188 38.46875 33.117188h38.753906c-21.210937-.003907-38.464844-14.855469-38.464844-33.117188zm0 0" fill="#8c4c17"/><path d="m195.15625 221.023438c-3.3125 0-6-2.683594-6-6v-24.222657c0-3.3125 2.6875-6 6-6s6 2.6875 6 6v24.222657c0 3.316406-2.6875 6-6 6zm0 0" fill="#bf6c0d"/><path d="m195.15625 384.773438c-3.3125 0-6-2.6875-6-6v-137.585938c0-3.316406 2.6875-6 6-6s6 2.683594 6 6v137.585938c0 3.3125-2.6875 6-6 6zm0 0" fill="#bf6c0d"/><path d="m102.011719 364.285156c0 8.027344-6.507813 14.535156-14.535157 14.535156-8.027343 0-14.535156-6.507812-14.535156-14.535156 0-8.023437 6.507813-14.53125 14.535156-14.53125 8.027344 0 14.535157 6.507813 14.535157 14.53125zm0 0" fill="#8c4c17"/><path d="m136.96875 405.800781c0 8.027344-6.507812 14.535157-14.535156 14.535157s-14.535156-6.507813-14.535156-14.535157c0-8.027343 6.507812-14.535156 14.535156-14.535156s14.535156 6.507813 14.535156 14.535156zm0 0" fill="#8c4c17"/><path d="m19.511719 105.222656h207.464843v44.832032h-207.464843zm0 0" fill="#ffd59a"/><g fill="#ffc34c"><path d="m19.511719 105.222656h38.757812v44.832032h-38.757812zm0 0"/><path d="m94.664062 130.203125c0 8.027344-6.507812 14.53125-14.535156 14.53125s-14.53125-6.503906-14.53125-14.53125 6.503906-14.535156 14.53125-14.535156 14.535156 6.507812 14.535156 14.535156zm0 0"/></g></svg>