<svg height="443pt" viewBox="-86 0 443 443.81" width="443pt" xmlns="http://www.w3.org/2000/svg"><path d="m226.753906 264.054688c5.980469 8.796874 8.460938 19.746093 7.003906 31.335937-1.792968 14.242187-9.191406 27.632813-20.832031 37.699219-11.320312 9.789062-25.265625 15.179687-39.265625 15.179687-13.867187 0-26.078125-5.289062-34.382812-14.894531-16.324219-18.878906-12.875-49.039062 7.160156-69.320312h-31.367188c-16.160156 27.875-15.152343 62.207031 5.207032 85.75 13.152344 15.207031 32.113281 23.585937 53.386718 23.585937 20.03125 0 39.8125-7.566406 55.695313-21.300781 27.011719-23.359375 36.269531-59.074219 25.445313-88.035156zm0 0" fill="#ffc34c"/><path d="m185.242188 384.96875c-21.273438 0-40.234376-8.375-53.386719-23.582031-26.355469-30.480469-20.308594-79.050781 13.480469-108.273438 15.882812-13.734375 35.664062-21.300781 55.695312-21.300781 21.273438 0 40.234375 8.375 53.386719 23.585938 26.355469 30.480468 20.3125 79.046874-13.480469 108.269531-15.882812 13.734375-35.664062 21.300781-55.695312 21.300781zm15.789062-128.035156c-14 0-27.945312 5.390625-39.265625 15.179687-23.3125 20.164063-28.207031 52.839844-10.910156 72.839844 8.304687 9.605469 20.515625 14.898437 34.386719 14.898437 13.996093 0 27.941406-5.394531 39.265624-15.183593 11.636719-10.066407 19.035157-23.453125 20.828126-37.695313 1.675781-13.328125-1.847657-25.808594-9.921876-35.144531-8.304687-9.605469-20.515624-14.894531-34.382812-14.894531zm0 0" fill="#fff4c1"/><path d="m145.335938 253.113281c-33.789063 29.222657-39.835938 77.792969-13.480469 108.273438 13.152343 15.207031 32.113281 23.582031 53.386719 23.582031 10.816406 0 21.558593-2.222656 31.65625-6.417969l2.609374-29.980469c-10.304687 7.304688-22.261718 11.28125-34.265624 11.28125-13.867188 0-26.078126-5.292968-34.386719-14.898437-17.296875-20-12.402344-52.675781 10.910156-72.839844 11.324219-9.789062 25.265625-15.179687 39.265625-15.179687 9.667969 0 18.523438 2.578125 25.820312 7.386718l2.359376-27.058593c-8.640626-3.5625-18.148438-5.449219-28.179688-5.449219-20.03125 0-39.8125 7.566406-55.695312 21.300781zm0 0" fill="#ffdf74"/><path d="m168.660156 443.808594h-125.269531c-7.695313 0-14.113281-5.882813-14.78125-13.546875l-28.175781-323.382813c-.355469-4.046875 2.835937-7.527344 6.894531-7.527344h197.394531c4.0625 0 7.25 3.480469 6.898438 7.527344l-28.179688 323.382813c-.667968 7.664062-7.085937 13.546875-14.78125 13.546875zm0 0" fill="#fff4c1"/><path d="m67.210938 430.261719-28.179688-323.386719c-.351562-4.046875 2.835938-7.523438 6.898438-7.523438h-38.601563c-4.058594 0-7.25 3.476563-6.894531 7.523438l28.175781 323.386719c.667969 7.664062 7.085937 13.546875 14.78125 13.546875h38.597656c-7.691406 0-14.109375-5.882813-14.777343-13.546875zm0 0" fill="#ffdf74"/><path d="m28.292969 198.753906 18.710937 214.699219c.519532 5.984375 5.527344 10.574219 11.535156 10.574219h94.976563c6.003906 0 11.011719-4.589844 11.535156-10.574219l18.707031-214.699219zm0 0" fill="#a56021"/><path d="m183.734375 198.753906 6.9375-99.402344h-169.316406l6.9375 99.402344zm0 0" fill="#ffb74b"/><path d="m28.292969 198.753906 18.710937 214.699219c.519532 5.984375 5.527344 10.574219 11.535156 10.574219h8.125l-19.628906-225.273438zm0 0" fill="#8c4c17"/><path d="m47.035156 198.753906-8.003906-91.878906c-.351562-4.046875 2.835938-7.523438 6.898438-7.523438h-24.574219l6.9375 99.402344zm0 0" fill="#ffa730"/><path d="m153.886719 157.683594h-1.199219c-8.679688 0-15.71875-7.039063-15.71875-15.71875v-57.144532h32.640625v57.144532c0 8.679687-7.039063 15.71875-15.722656 15.71875zm0 0" fill="#ffa730"/><path d="m103.949219 177.847656h-1.195313c-8.683594 0-15.722656-7.035156-15.722656-15.71875v-78.273437h32.640625v78.273437c0 8.679688-7.039063 15.71875-15.722656 15.71875zm0 0" fill="#ffa730"/><path d="m203.535156 68.359375h-14.441406c-7.742188-38.957031-42.679688-68.359375-84.617188-68.359375-41.933593 0-76.871093 29.402344-84.613281 68.359375h-7.878906c-6.394531 0-11.578125 5.1875-11.578125 11.582031v7.832032c0 6.394531 5.183594 11.578124 11.578125 11.578124h86.628906v63.328126c0 8.375 6.789063 15.167968 15.167969 15.167968h2.300781c8.378907 0 15.167969-6.792968 15.167969-15.167968v-63.328126h17.296875v42.195313c0 8.378906 6.792969 15.171875 15.171875 15.171875h2.296875c8.378906 0 15.171875-6.792969 15.171875-15.171875v-42.195313h22.347656c6.394532 0 11.582032-5.183593 11.582032-11.578124v-7.832032c0-6.394531-5.183594-11.582031-11.582032-11.582031zm0 0" fill="#ffeacf"/><path d="m39.003906 87.773438v-7.832032c0-6.394531 5.183594-11.582031 11.582032-11.582031h7.878906c6.515625-32.792969 32.304687-58.808594 65.3125-66.222656-6.203125-1.394531-12.664063-2.136719-19.300782-2.136719-41.933593 0-76.871093 29.402344-84.613281 68.359375h-7.878906c-6.394531 0-11.578125 5.183594-11.578125 11.582031v7.828125c0 6.394531 5.183594 11.582031 11.578125 11.582031h38.601563c-6.398438 0-11.582032-5.183593-11.582032-11.578124zm0 0" fill="#ffd59a"/><g fill="#a56021"><path d="m89.03125 37.671875c-1.839844 0-3.65625-.84375-4.832031-2.4375l-13.511719-18.300781c-1.96875-2.667969-1.402344-6.425782 1.265625-8.394532 2.664063-1.96875 6.421875-1.398437 8.390625 1.265626l13.507812 18.300781c1.96875 2.667969 1.402344 6.421875-1.261718 8.390625-1.074219.792968-2.324219 1.175781-3.558594 1.175781zm0 0"/><path d="m113.761719 36.050781c-.296875 0-.597657-.023437-.902344-.070312-3.273437-.492188-5.53125-3.550781-5.039063-6.824219l3.390626-22.492188c.492187-3.277343 3.550781-5.53125 6.824218-5.039062 3.277344.492188 5.535156 3.550781 5.039063 6.824219l-3.386719 22.492187c-.449219 2.972656-3.007812 5.109375-5.925781 5.109375zm0 0"/><path d="m137.039062 29.574219c-2.515624 0-4.855468-1.59375-5.691406-4.109375-1.046875-3.144532.65625-6.542969 3.800782-7.585938l21.585937-7.175781c3.140625-1.046875 6.539063.65625 7.585937 3.800781 1.046876 3.144532-.65625 6.542969-3.800781 7.585938l-21.585937 7.175781c-.628906.207031-1.269532.308594-1.894532.308594zm0 0"/></g><path d="m157.703125 278.515625c-.175781 0-.351563-.007813-.527344-.023437-3.304687-.289063-5.746093-3.195313-5.457031-6.496094l2.316406-26.613282c.289063-3.300781 3.214844-5.738281 6.5-5.457031 3.300782.289063 5.742188 3.195313 5.457032 6.5l-2.320313 26.609375c-.273437 3.125-2.890625 5.480469-5.96875 5.480469zm0 0" fill="#bf6c0d"/><path d="m148.238281 390.96875c-.175781 0-.351562-.007812-.527343-.023438-3.300782-.285156-5.742188-3.195312-5.457032-6.496093l7.972656-91.46875c.289063-3.300781 3.207032-5.742188 6.496094-5.457031 3.304688.285156 5.746094 3.195312 5.457032 6.496093l-7.96875 91.46875c-.273438 3.125-2.894532 5.480469-5.972657 5.480469zm0 0" fill="#bf6c0d"/><path d="m119.484375 389.976562c0 8.027344-6.507813 14.535157-14.535156 14.535157-8.027344 0-14.535157-6.507813-14.535157-14.535157 0-8.027343 6.507813-14.535156 14.535157-14.535156 8.027343 0 14.535156 6.507813 14.535156 14.535156zm0 0" fill="#8c4c17"/><path d="m77.96875 129.644531c0 8.027344-6.507812 14.535157-14.535156 14.535157s-14.53125-6.507813-14.53125-14.535157c0-8.027343 6.503906-14.535156 14.53125-14.535156s14.535156 6.507813 14.535156 14.535156zm0 0" fill="#ffa730"/><path d="m94.589844 355.914062c0 8.027344-6.507813 14.535157-14.535156 14.535157-8.027344 0-14.53125-6.507813-14.53125-14.535157 0-8.023437 6.503906-14.53125 14.53125-14.53125 8.027343 0 14.535156 6.507813 14.535156 14.53125zm0 0" fill="#8c4c17"/></svg>