<svg height="468pt" viewBox="-106 0 468 468.237" width="468pt" xmlns="http://www.w3.org/2000/svg"><path d="m172.898438 321.777344h-127.183594l-16.703125 77.324218c-2.371094 10.976563-3.566407 22.179688-3.566407 33.417969v2.257813c0 11.609375 4.398438 22.179687 11.59375 30.105468 4.457032 2 9.496094 3.132813 14.835938 3.132813h117.644531c5.339844 0 10.378907-1.132813 14.835938-3.132813 7.195312-7.925781 11.59375-18.496093 11.59375-30.105468 0-12.726563-1.535157-25.40625-4.570313-37.753906zm0 0" fill="#ffd551"/><path d="m65.140625 434.996094v-2.253906c0-11.238282 1.195313-22.441407 3.566406-33.417969l16.703125-77.328125h-40l-16.703125 77.328125c-2.371093 10.976562-3.566406 22.179687-3.566406 33.417969v2.253906c0 11.613281 4.398437 22.183594 11.59375 30.105468 4.457031 2 9.496094 3.136719 14.835937 3.136719h40c-5.339843 0-10.378906-1.136719-14.835937-3.136719-7.195313-7.921874-11.59375-18.492187-11.59375-30.105468zm0 0" fill="#ffc34c"/><path d="m172.59375 287.601562h-91.421875v-15.820312h83.421875c4.417969 0 8 3.582031 8 8zm0 0" fill="#ffd551"/><path d="m140.222656 362.117188h-51.050781c-4.417969 0-8-3.582032-8-8v-116.707032h67.050781v116.707032c0 4.417968-3.582031 8-8 8zm0 0" fill="#f9bb32"/><path d="m47.078125 271.78125h-17.007813l-6.421874 4.621094c-1.324219.949218-1.015626 3 .53125 3.519531l22.585937 7.574219c.207031.070312.421875.105468.636719.105468h6.605468v-15.820312zm0 0" fill="#ffc34c"/><path d="m47.082031 271.78125h34.089844v15.820312h-34.089844zm0 0" fill="#ffc34c"/><path d="m101.171875 354.117188v-116.707032h-20v116.707032c0 4.417968 3.582031 8 8 8h20c-4.417969 0-8-3.582032-8-8zm0 0" fill="#db9c2e"/><path d="m172.925781 28.640625h-127.933593v-20.640625c0-4.417969 3.582031-8 8-8h111.933593c4.417969 0 8 3.582031 8 8zm0 0" fill="#bf6c0d"/><path d="m92.992188 0h-40c-4.417969 0-8 3.582031-8 8v20.640625h40v-20.640625c0-4.417969 3.582031-8 8-8zm0 0" fill="#a56021"/><path d="m231.617188 305.070312v69.703126c0 1.667968-1.332032 3.019531-2.980469 3.019531h-17.121094c-1.339844 0-2.523437-.914063-2.875-2.226563l-17.28125-64.21875c-.898437-2.105468-1.019531-4.285156-.542969-6.277344h-39.679687v8.652344h22.355469l4.167968 15.609375 13.722656 50.992188c2.46875 9.167969 10.746094 15.570312 20.132813 15.570312h17.121094c11.503906 0 20.867187-9.472656 20.867187-21.121093v-69.703126zm0 0" fill="#99af17"/><path d="m236.183594 287.601562h-77.503906v34.398438h22.359374l4.167969 15.609375 13.722657 50.992187c2.46875 9.167969 10.746093 15.570313 20.132812 15.570313h17.121094c11.503906 0 20.863281-9.476563 20.863281-21.121094v-74.328125c0-11.648437-9.359375-21.121094-20.863281-21.121094zm2.980468 95.449219c0 1.664063-1.335937 3.015625-2.980468 3.015625h-17.121094c-1.34375 0-2.523438-.914062-2.878906-2.222656l-17.28125-64.226562c-2.808594-6.574219 1.957031-13.914063 9.035156-13.914063h28.246094c1.644531 0 2.980468 1.351563 2.980468 3.019531zm0 0" fill="#eacf32"/><path d="m222.515625 397.242188-2.746094-11.175782h-.707031c-1.34375 0-2.523438-.914062-2.878906-2.222656l-16.640625-61.84375-.640625-2.378906c-2.808594-6.578125 1.957031-13.917969 9.035156-13.917969h14.957031v-18.101563h-64.210937v34.394532h22.355468l4.167969 15.609375 13.722657 50.996093c2.46875 9.167969 10.746093 15.570313 20.132812 15.570313h4.992188c-.460938-2.320313-.972657-4.632813-1.539063-6.929687zm0 0" fill="#ccc033"/><path d="m155.421875 168.625h-92.925781l-30.371094-131.070312h153.667969zm0 0" fill="#ffc34c"/><path d="m197.914062 37.554688h-177.910156c-2.761718 0-5-2.242188-5-5v-7.824219c0-2.761719 2.238282-5 5-5h177.910156c2.761719 0 5 2.238281 5 5v7.824219c0 2.757812-2.238281 5-5 5zm0 0" fill="#db9c2e"/><path d="m38.867188 419.765625c-2.125 0-3.867188 1.660156-4 3.777344-.195313 3.0625-.292969 6.128906-.292969 9.203125v2.25c0 8.105468 2.75 15.878906 7.785156 22.109375 2.910156 1.054687 6 1.585937 9.210937 1.585937h117.644532c3.210937 0 6.300781-.53125 9.207031-1.585937 5.039063-6.234375 7.789063-14.007813 7.789063-22.109375 0-3.84375-.160157-7.691406-.460938-11.523438-.164062-2.089844-1.898438-3.707031-3.996094-3.707031zm0 0" fill="#a56021"/><path d="m168.59375 322h-120.546875c-2.207031 0-4-1.792969-4-4v-26.398438c0-2.210937 1.792969-4 4-4h120.546875c2.207031 0 4 1.789063 4 4v26.398438c0 2.207031-1.792969 4-4 4zm0 0" fill="#eacf32"/><path d="m60.003906 30.554688c-2.761718 0-5-2.242188-5-5v-5.824219h-35c-2.761718 0-5 2.238281-5 5v7.824219c0 2.757812 2.238282 5 5 5h177.910156c2.761719 0 5-2.242188 5-5v-2zm0 0" fill="#bf6c0d"/><path d="m32.125 37.554688 30.371094 131.070312h34l-30.371094-131.070312zm0 0" fill="#ffb74b"/><path d="m182.011719 170.828125c-.066407-.113281-.132813-.21875-.195313-.320313-.734375-1.171874-2.011718-1.882812-3.394531-1.882812h-138.746094c-1.378906 0-2.660156.710938-3.390625 1.882812-.066406.101563-.132812.207032-.203125.320313-5.589843 9.082031-24.199219 45.367187 1.453125 92.042969h.46875c3.363282 5.347656 9.296875 8.910156 16.078125 8.910156h110c6.785157 0 12.71875-3.5625 16.082031-8.910156h.398438c25.652344-46.675782 7.042969-82.960938 1.449219-92.042969zm0 0" fill="#ffdf74"/><path d="m120.582031 225.394531h-22.640625c-1.65625 0-3-1.339843-3-3v-53.769531h28.640625v53.769531c0 1.660157-1.34375 3-3 3zm0 0" fill="#fcda4f"/><path d="m103.535156 215.449219h-99.417968c-2.207032 0-4-1.792969-4-4v-8.230469c0-2.210938 1.792968-4 4-4h99.417968zm0 0" fill="#fcda4f"/><path d="m68.003906 262.871094h-.46875c-25.652344-46.675782-7.042968-82.960938-1.453125-92.046875.070313-.109375.136719-.21875.203125-.320313.730469-1.171875 2.007813-1.878906 3.390625-1.878906h-30c-1.378906 0-2.660156.707031-3.390625 1.878906-.066406.101563-.132812.210938-.203125.320313-5.589843 9.085937-24.199219 45.371093 1.453125 92.046875h.46875c3.363282 5.347656 9.296875 8.910156 16.078125 8.910156h30c-6.78125 0-12.714843-3.5625-16.078125-8.910156zm0 0" fill="#ffd551"/><path d="m94.941406 168.625v52.21875c0 2.515625 1.34375 4.550781 3 4.550781h10v-56.769531zm0 0" fill="#ffd551"/><path d="m108.511719 157.414062-31.4375-.265624c-4.417969-.039063-7.96875-3.648438-7.933594-8.070313l.261719-30.511719c.035156-4.417968 3.648437-7.96875 8.066406-7.929687l31.4375.265625c4.417969.039062 7.96875 3.648437 7.933594 8.070312l-.257813 30.511719c-.039062 4.417969-3.652343 7.96875-8.070312 7.929687zm0 0" fill="#fff4c1"/><path d="m91.074219 157.148438c-4.417969-.039063-7.96875-3.648438-7.933594-8.066407l.261719-30.511719c.03125-3.96875 2.949218-7.226562 6.738281-7.824218l-12.671875-.109375c-4.417969-.035157-8.03125 3.515625-8.066406 7.933593l-.261719 30.511719c-.035156 4.417969 3.515625 8.027344 7.933594 8.066407zm0 0" fill="#ffdf74"/><path d="m129.410156 163.105469-25.117187-18.910157c-3.53125-2.660156-4.238281-7.671874-1.578125-11.203124l18.351562-24.375c2.65625-3.53125 7.671875-4.238282 11.203125-1.582032l25.117188 18.914063c3.527343 2.65625 4.234375 7.671875 1.578125 11.203125l-18.351563 24.375c-2.660156 3.53125-7.675781 4.238281-11.203125 1.578125zm0 0" fill="#fff4c1"/><path d="m115.546875 152.519531c-3.527344-2.65625-4.234375-7.671875-1.578125-11.203125l18.355469-24.375c2.382812-3.167968 6.667969-4.050781 10.070312-2.28125l-10.125-7.625c-3.527343-2.65625-8.542969-1.949218-11.203125 1.582032l-18.351562 24.375c-2.65625 3.53125-1.953125 8.546874 1.578125 11.203124zm0 0" fill="#ffdf74"/><path d="m136.890625 115.113281-29.871094 9.8125c-4.195312 1.378907-8.71875-.90625-10.097656-5.105469l-9.519531-28.988281c-1.378906-4.199219.90625-8.71875 5.101562-10.097656l29.871094-9.808594c4.199219-1.378906 8.71875.902344 10.097656 5.101563l9.519532 28.988281c1.378906 4.199219-.90625 8.71875-5.101563 10.097656zm0 0" fill="#fff4c1"/><path d="m120.285156 120.441406c-4.199218 1.378906-8.71875-.90625-10.097656-5.101562l-9.523438-28.988282c-1.238281-3.769531.484376-7.789062 3.882813-9.570312l-12.042969 3.953125c-4.195312 1.378906-6.480468 5.898437-5.101562 10.097656l9.519531 28.988281c1.378906 4.199219 5.902344 6.484376 10.097656 5.105469zm0 0" fill="#ffdf74"/><path d="m74.046875 317.996094v-26.394532c0-2.210937 1.792969-4 4-4h-30c-2.207031 0-4 1.789063-4 4v26.394532c0 2.210937 1.792969 4 4 4h30c-2.207031 0-4-1.789063-4-4zm0 0" fill="#ccc033"/><path d="m65.679688 419.765625h-26.8125c-2.125 0-3.867188 1.65625-4 3.777344-.195313 3.0625-.292969 6.128906-.292969 9.199219v2.253906c0 8.101562 2.75 15.875 7.789062 22.109375 2.90625 1.050781 5.996094 1.585937 9.207031 1.585937h20.316407c-4.269531-6.863281-6.746094-14.984375-6.746094-23.695312v-2.253906c0-4.335938.183594-8.664063.539063-12.976563zm0 0" fill="#8c4c17"/><path d="m166.855469 261.476562c-1.390625 0-2.78125-.476562-3.914063-1.453124-2.511718-2.164063-2.792968-5.953126-.628906-8.460938 20.582031-23.886719 11.207031-53.109375 10.796875-54.339844-1.039063-3.140625.648437-6.539062 3.785156-7.589844 3.132813-1.054687 6.527344.625 7.589844 3.757813.503906 1.492187 12.054687 36.835937-13.082031 66.003906-1.1875 1.378907-2.863282 2.082031-4.546875 2.082031zm0 0" fill="#fce575"/><path d="m55.640625 199.21875h-30c-.863281 4.929688-1.382813 10.363281-1.3125 16.230469h30c-.070313-5.867188.449219-11.300781 1.3125-16.230469zm0 0" fill="#ffc34c"/><path d="m106.90625 394.894531c0 8.46875-6.867188 15.335938-15.335938 15.335938s-15.332031-6.867188-15.332031-15.335938 6.863281-15.332031 15.332031-15.332031 15.335938 6.863281 15.335938 15.332031zm0 0" fill="#ffc34c"/><path d="m152.023438 113.378906c-.457032 0-.921876-.054687-1.390626-.164062-3.222656-.765625-5.214843-3.996094-4.453124-7.222656l11.804687-49.75c.765625-3.222657 4-5.214844 7.222656-4.453126 3.226563.765626 5.21875 4 4.453125 7.226563l-11.800781 49.746094c-.65625 2.757812-3.117187 4.617187-5.835937 4.617187zm0 0" fill="#ffd551"/><path d="m174.183594 416.230469c-2.890625 0-5.433594-2.09375-5.914063-5.039063l-9.367187-57.5625c-.535156-3.269531 1.6875-6.351562 4.957031-6.886718 3.269531-.53125 6.355469 1.691406 6.886719 4.960937l9.367187 57.5625c.535157 3.269531-1.6875 6.351563-4.957031 6.886719-.328125.050781-.652344.078125-.972656.078125zm0 0" fill="#fce575"/></svg>