<svg height="472pt" viewBox="-149 0 472 472.97324" width="472pt" xmlns="http://www.w3.org/2000/svg"><path d="m154.277344 125.953125-19.386719-12.789063 18.117187-27.46875c3.421876-5.183593 10.398438-6.613281 15.585938-3.195312l.605469.402344c5.1875 3.421875 6.617187 10.398437 3.195312 15.582031zm0 0" fill="#ffd551"/><path d="m144.890625 118.164062 18.117187-27.464843c2.097657-3.179688 5.53125-4.9375 9.066407-5.042969-.769531-1.050781-1.722657-1.992188-2.875-2.753906l-.605469-.398438c-5.1875-3.421875-12.164062-1.992187-15.585938 3.195313l-18.117187 27.46875 19.386719 12.785156.734375-1.109375zm0 0" fill="#ffc34c"/><path d="m7.589844.820312c-1.5625-1.054687-3.644532-1.117187-5.1875-.03125-1.832032 1.289063-2.4218752 3.691407-1.453125 5.65625l3.257812 6.625c.683594 1.398438 1.550781 2.699219 2.574219 3.871094l61.070312 69.949219 10.308594-9-61.070312-69.949219c-1.027344-1.171875-2.199219-2.207031-3.488282-3.074218zm0 0" fill="#fce575"/><path d="m15.785156 16.9375c-1.023437-1.171875-1.890625-2.472656-2.578125-3.871094l-3.257812-6.621094c-.640625-1.296874-.585938-2.78125.042969-4.011718l-2.398438-1.617188c-1.566406-1.054687-3.648438-1.113281-5.191406-.027344-1.832032 1.289063-2.4218752 3.691407-1.453125 5.65625l3.257812 6.621094c.6875 1.398438 1.554688 2.699219 2.578125 3.871094l61.070313 69.949219 5.105469-4.457031zm0 0" fill="#ffd551"/><path d="m112.378906 111.734375-15.605468 13.621094-14.957032-10.703125 21.972656-19.183594zm0 0" fill="#f9bb32"/><path d="m148.730469 178.832031v-10.15625h-41.121094v10.15625s-25.457031 16.167969-25.457031 165.820313v108.398437c0 11.003907 8.921875 19.921875 19.925781 19.921875h52.183594c11.003906 0 19.925781-8.917968 19.925781-19.921875v-108.398437c0-149.652344-25.457031-165.820313-25.457031-165.820313zm0 0" fill="#ffdf74"/><path d="m146.222656 178.628906h-36.105468c-4.417969 0-8-3.582031-8-8v-22.496094h52.105468v22.496094c0 4.417969-3.578125 8-8 8zm0 0" fill="#ffd551"/><path d="m153.167969 167.515625h-49.996094c-5.519531 0-10-4.476563-10-10v-24.382813h69.996094v24.382813c0 5.523437-4.476563 10-10 10zm0 0" fill="#ffc34c"/><path d="m163.167969 135.585938h-69.996094v-.976563c0-16.625 13.480469-30.101563 30.105469-30.101563h9.789062c16.625 0 30.101563 13.476563 30.101563 30.101563zm0 0" fill="#ffdf74"/><path d="m108.367188 87.609375-.359376-.414063c-3.078124-3.523437-8.433593-3.886718-11.960937-.808593l-30.570313 26.691406-38.617187 119.726563c-.9375 2.898437.621094 5.992187 3.476563 6.914062 2.699218.871094 5.625-.515625 6.714843-3.179688l33.039063-80.746093 10.554687-32.726563 26.914063-23.5c3.527344-3.074218 3.890625-8.429687.808594-11.957031zm0 0" fill="#fce575"/><path d="m73.96875 105.664062 21.871094-19.097656-16.554688-16.113281c-2.226562-2.164063-5.742187-2.261719-8.085937-.21875l-10.007813 8.742187c-2.332031 2.035157-2.722656 5.519532-.890625 8.019532zm0 0" fill="#f9bb32"/><path d="m115.152344 453.050781v-108.398437c0-149.652344 25.457031-165.820313 25.457031-165.820313v-10.15625h-33v10.15625s-25.457031 16.167969-25.457031 165.820313v108.398437c0 11.003907 8.921875 19.921875 19.925781 19.921875h33c-11.003906 0-19.925781-8.917968-19.925781-19.921875zm0 0" fill="#ffd551"/><path d="m132.117188 170.628906v-22.496094h-30v22.496094c0 4.417969 3.582031 8 8 8h30c-4.417969 0-8-3.582031-8-8zm0 0" fill="#ffc34c"/><path d="m133.171875 157.515625v-24.378906h-40v24.378906c0 5.523437 4.480469 10 10 10h40c-5.519531 0-10-4.476563-10-10zm0 0" fill="#f9bb32"/><path d="m148.171875 108.578125c-4.441406-2.582031-9.601563-4.070313-15.109375-4.070313h-9.785156c-16.625 0-30.105469 13.480469-30.105469 30.105469v.972657h40v-.972657c0-11.121093 6.03125-20.824219 15-26.035156zm0 0" fill="#ffd551"/><path d="m35.859375 234.804688 38.617187-119.726563 30.570313-26.691406c.792969-.691407 1.683594-1.203125 2.613281-1.546875-3.121094-3.179688-8.210937-3.421875-11.613281-.453125l-30.570313 26.691406-38.617187 119.726563c-.9375 2.898437.621094 5.996093 3.476563 6.914062 2.007812.648438 4.144531.042969 5.554687-1.410156-.375-1.089844-.417969-2.3125-.03125-3.503906zm0 0" fill="#ffd551"/><path d="m71.300781 86.996094c-1.832031-2.5-1.441406-5.984375.890625-8.019532l8.355469-7.296874-1.261719-1.222657c-2.226562-2.167969-5.746094-2.265625-8.085937-.222656l-10.007813 8.742187c-2.332031 2.035157-2.722656 5.519532-.890625 8.019532l13.667969 18.667968 6.707031-5.859374zm0 0" fill="#db9c2e"/><path d="m140.167969 467.660156c-3.164063 0-5.808594-2.476562-5.984375-5.671875-.183594-3.300781 2.339844-6.125 5.640625-6.320312 1.539062-.097657 14.875-1.269531 14.351562-12.042969-.160156-3.308594 2.394531-6.121094 5.703125-6.28125 3.296875-.183594 6.121094 2.390625 6.28125 5.703125.886719 18.296875-16.394531 24.09375-25.65625 24.601563-.113281.007812-.226562.011718-.335937.011718zm0 0" fill="#fff4c1"/><path d="m160.191406 430.667969c-3.3125 0-6-2.683594-6-5.996094l-.023437-78c0-3.316406 2.683593-6.003906 5.996093-6.003906h.003907c3.3125 0 6 2.683593 6 6l.023437 78c0 3.3125-2.683594 6-5.996094 6-.003906 0-.003906 0-.003906 0zm0 0" fill="#fff4c1"/><path d="m158.507812 237.246094c0 8.46875-6.867187 15.335937-15.335937 15.335937s-15.332031-6.867187-15.332031-15.335937 6.863281-15.332032 15.332031-15.332032 15.335937 6.863282 15.335937 15.332032zm0 0" fill="#ffd551"/></svg>