<svg height="468pt" viewBox="0 -135 468.98802 468" width="468pt" xmlns="http://www.w3.org/2000/svg"><path d="m465.558594 154.710938c-19.601563-30.96875-37.324219-45.839844-44.277344-50.945313-.84375-.660156-1.726562-1.273437-2.648438-1.839844-.304687-.199219-.46875-.292969-.46875-.292969-31.679687-24.089843-63.761718-24.5625-63.761718-24.5625-21.949219-3.507812-43.523438 3.703126-48.179688 16.101563-.210937.558594-.371094 1.121094-.503906 1.683594l-.121094-.019531-17.746094 47.25.019532.003906c-8.003906 23.066406 2.628906 44.28125 24.1875 47.722656 4.316406.691406 8.746094.605469 13.148437-.136719l-.003906.007813s57.359375-8.035156 97.976563 7.339844l.441406-.4375c2.03125.925781 4.273437 1.59375 6.710937 1.957031 15.035157 2.234375 31.582031-7.921875 36.960938-22.683594 2.859375-7.859375 1.980469-15.4375-1.734375-21.148437zm0 0" fill="#a56021"/><path d="m465.558594 154.710938c-.507813-.800782-1.011719-1.585938-1.515625-2.367188-7.210938 11.121094-21 18.085938-33.710938 16.195312-2.4375-.363281-4.679687-1.03125-6.710937-1.957031l-.441406.4375c-10.75-4.070312-22.671876-6.496093-34.394532-7.871093 1.949219-3.671876 3.613282-7.574219 4.921875-11.699219l.027344.011719 15.054687-52.296876c-28.332031-17.699218-54.386718-18.09375-54.386718-18.09375-21.949219-3.507812-43.523438 3.703126-48.179688 16.101563-.210937.558594-.371094 1.121094-.503906 1.683594l-.121094-.019531-17.746094 47.25.019532.003906c-.226563.644531-.429688 1.285156-.621094 1.925781-.058594.191406-.113281.378906-.167969.570313-.140625.476562-.269531.953124-.394531 1.429687-.046875.183594-.097656.371094-.140625.554687-.152344.613282-.292969 1.222657-.417969 1.828126-.035156.183593-.066406.363281-.101562.542968-.085938.4375-.164063.871094-.234375 1.304688-.039063.261718-.082031.519531-.117188.777344-.054687.367187-.101562.730468-.144531 1.097656-.03125.257812-.066406.519531-.09375.777344-.054688.527343-.097656 1.050781-.132812 1.574218-.019532.332032-.035157.664063-.046876.992188-.007812.242187-.019531.484375-.023437.722656-.011719.359375-.015625.714844-.015625 1.070312 0 .164063.003906.324219.007812.484376.011719.820312.042969 1.632812.105469 2.4375 0 .03125.003907.0625.003907.089843.035156.429688.074218.851563.121093 1.273438.011719.089843.023438.179687.03125.269531.160157 1.359375.390625 2.683594.691407 3.980469 2.898437 12.460937 12.175781 21.832031 25.878906 24.019531 1.78125.285156 3.585937.429688 5.398437.460938h.222657c.796874.007812 1.59375 0 2.394531-.042969h.027343c.777344-.039063 1.550782-.101563 2.328126-.183594.160156-.015625.320312-.035156.484374-.054687.761719-.089844 1.527344-.1875 2.292969-.316407l-.003906.007813s.015625 0 .042969-.003906c.898437-.125 15.382812-2.066407 34.632812-2.09375 19.269532-.023438 43.308594 1.871093 63.300782 9.4375l.4375-.4375c2.03125.921874 4.277343 1.59375 6.714843 1.953124 15.035157 2.238282 31.582031-7.917968 36.957031-22.679687 2.863282-7.859375 1.984376-15.4375-1.730468-21.148437zm0 0" fill="#8c4c17"/><path d="m394.335938 75.898438c5.21875-18.136719-16.167969-40.214844-47.777344-49.3125-31.605469-9.097657-61.457032-1.769532-66.679688 16.367187-.234375.820313-.398437 1.652344-.527344 2.488281l-.175781-.050781-19.898437 69.121094.027344.007812c-8.777344 33.859375 8.734374 68.070313 39.777343 77.003907 31.039063 8.9375 64.058594-10.730469 74.625-44.070313l.027344.007813 19.898437-69.121094-.171874-.050782c.332031-.777343.636718-1.566406.875-2.390624zm0 0" fill="#bf6c0d"/><path d="m317.148438 165.0625c12.65625-12.207031 20.648437-28.785156 21.210937-47.140625h.035156v-77.746094h-.222656c.132813-.910156.222656-1.820312.222656-2.742187 0-4.867188-1.902343-9.511719-5.320312-13.765625-20.316407-2.972657-38.410157.925781-47.601563 10.058593 0 0-.003906.003907-.003906.003907-.289062.285156-.5625.578125-.832031.875-.054688.0625-.117188.125-.171875.1875-.242188.269531-.472656.546875-.699219.824219-.082031.101562-.160156.195312-.238281.296874-.203125.257813-.398438.519532-.589844.785157-.09375.132812-.183594.261719-.273438.394531-.167968.246094-.332031.496094-.492187.746094-.101563.164062-.199219.332031-.296875.496094-.132812.234374-.269531.464843-.394531.699218-.109375.207032-.210938.414063-.3125.621094-.105469.207031-.210938.417969-.308594.632812-.117187.261719-.222656.527344-.328125.796876-.066406.167968-.140625.335937-.203125.507812-.164063.445312-.316406.898438-.449219 1.355469-.234375.824219-.398437 1.652343-.527344 2.488281l-.175781-.046875-19.898437 69.121094.027344.007812c-.25.96875-.472657 1.941407-.683594 2.914063-.066406.304687-.121094.613281-.183594.917968-.136719.671876-.265625 1.347657-.378906 2.019532-.058594.347656-.117188.695312-.171875 1.042968-.101563.65625-.191407 1.308594-.277344 1.964844-.039063.324219-.085937.652344-.121094.976563-.089843.804687-.164062 1.605469-.226562 2.40625-.011719.164062-.03125.328125-.042969.492187-.070312.953125-.113281 1.90625-.140625 2.855469-.007813.292969-.007813.582031-.011719.875-.011718.667969-.015625 1.332031-.007812 1.992187.003906.355469.015625.707032.023437 1.0625.015625.609376.042969 1.222657.078125 1.832032.015625.351562.035156.699218.058594 1.050781.046875.667969.109375 1.332031.175781 1.996094.027344.269531.046875.542969.078125.8125.101563.90625.222656 1.804687.359375 2.703125.042969.292968.097657.582031.148438.875.105469.617187.210937 1.234375.332031 1.851562.074219.367188.152344.734375.230469 1.101563.113281.539062.234375 1.074219.363281 1.605469.089844.378906.183594.757812.28125 1.132812.140625.539062.289062 1.074219.441406 1.609375.097656.347656.195313.695313.296875 1.042969.25.824218.515625 1.640625.796875 2.449218.109375.320313.234375.628907.347656.945313.195313.527344.386719 1.054687.59375 1.574219.152344.390625.316407.773437.476563 1.15625.183594.441406.371094.882812.566406 1.320312.175781.394532.355469.789063.539063 1.179688.199218.421875.402344.839844.613281 1.261718.191406.382813.378906.769532.578125 1.148438.238281.457031.488281.90625.738281 1.359375.339844.613281.691407 1.21875 1.050781 1.820313.246094.40625.488282.820312.742188 1.222656.246094.386718.5.765625.753906 1.148437.230469.347657.464844.695313.703125 1.035157.265625.386718.539063.769531.816407 1.152343.238281.324219.480468.644531.722656.964844.289062.378906.578125.757813.875 1.128906.242187.304688.496094.605469.746094.90625.574218.6875 1.164062 1.363281 1.765624 2.023438.246094.269531.488282.542969.738282.808593.339844.355469.6875.703126 1.035156 1.050782.265625.265625.53125.535156.800781.792968.355469.34375.714844.675782 1.078125 1.011719.277344.25.558594.5.839844.75.371094.324219.742188.652344 1.125.96875.28125.234375.570312.460938.855469.691407.96875.773437 1.953125 1.523437 2.972656 2.234374.03125.019532.0625.046876.09375.066407 4.84375 3.367187 10.269531 5.996093 16.1875 7.699219 31.042969 8.9375 64.0625-10.730469 74.628906-44.070313l.027344.007813 3.351563-11.644532c-13.269532 20.921875-36.632813 32.75-59.9375 29.246094zm0 0" fill="#a56021"/><path d="m4.953125 138.382812c23.0625-28.488281 42.390625-41.199218 49.890625-45.464843.914062-.558594 1.859375-1.066407 2.84375-1.523438.324219-.160156.496094-.238281.496094-.238281 34.261718-20.25 66.179687-17 66.179687-17 22.214844-.933594 42.800781 8.730469 45.988281 21.582031.144532.582031.238282 1.160157.308594 1.734375l.121094-.003906 12.144531 48.984375-.019531.003906c5.273438 23.839844-7.746094 43.675781-29.5625 44.597657-4.363281.183593-8.753906-.417969-13.042969-1.664063l.003907.007813s-56.039063-14.632813-98.167969-4.078126l-.382813-.480468c-2.128906.679687-4.433594 1.085937-6.894531 1.164062-15.191406.476563-30.449219-11.53125-34.082031-26.820312-1.929688-8.136719-.175782-15.5625 4.175781-20.800782zm0 0" fill="#ffc34c"/><path d="m183.34375 161.050781c-4.363281.183594-8.753906-.414062-13.039062-1.664062v.011719s-56.039063-14.636719-98.164063-4.078126l-.386719-.484374c-2.125.683593-4.429687 1.085937-6.894531 1.164062-15.191406.476562-30.449219-11.527344-34.078125-26.816406-1.929688-8.136719-.179688-15.5625 4.171875-20.800782 1.019531-1.257812 2.027344-2.476562 3.03125-3.671874-9.035156 7.339843-20.476563 18.164062-33.03125 33.671874-4.351563 5.238282-6.101563 12.664063-4.171875 20.800782 3.628906 15.289062 18.886719 27.292968 34.078125 26.816406 2.464844-.078125 4.769531-.480469 6.894531-1.164062l.386719.484374c42.125-10.558593 98.164063 4.078126 98.164063 4.078126v-.011719c4.285156 1.25 8.675781 1.847656 13.039062 1.664062 17.164062-.722656 28.875-13.160156 30.527344-30.035156-.175782.007813-.347656.027344-.527344.035156zm0 0" fill="#f9bb32"/><path d="m76.703125 75.898438c-5.21875-18.136719 16.167969-40.214844 47.773437-49.3125 31.609376-9.097657 61.460938-1.769532 66.683594 16.367187.234375.820313.398438 1.652344.527344 2.488281l.171875-.050781 19.898437 69.121094-.027343.007812c8.777343 33.859375-8.730469 68.070313-39.773438 77.003907-31.039062 8.9375-64.058593-10.730469-74.625-44.070313l-.027343.007813-19.898438-69.121094.171875-.050782c-.332031-.777343-.636719-1.566406-.875-2.390624zm0 0" fill="#f9bb32"/><path d="m161.644531 37.433594c0-20.402344 33.074219-36.941406 73.875-36.941406s73.875 16.539062 73.875 36.941406c0 .921875-.089843 1.835937-.222656 2.742187h.222656v77.75h-.035156c-1.15625 37.792969-33.769531 68.089844-73.839844 68.089844-40.070312 0-72.6875-30.300781-73.84375-68.089844h-.035156v-77.75h.226563c-.132813-.90625-.222657-1.820312-.222657-2.742187zm0 0" fill="#db9c2e"/><path d="m181.957031 161.523438c-31.039062 8.9375-64.058593-10.730469-74.625-44.070313l-.027343.007813-19.898438-69.121094.171875-.050782c-.125-.289062-.238281-.585937-.351563-.878906-8.945312 9.035156-13.175781 19.269532-10.523437 28.488282.238281.824218.542969 1.613281.875 2.390624l-.171875.050782 19.898438 69.121094.027343-.007813c10.566407 33.339844 43.585938 53.007813 74.625 44.070313 23.914063-6.882813 39.785157-28.777344 41.800781-53.945313-7.332031 11.363281-18.28125 20.054687-31.800781 23.945313zm0 0" fill="#db9c2e"/><path d="m265.519531 156.015625c-40.070312 0-72.683593-30.296875-73.839843-68.089844h-.035157v-77.75h.222657c-.121094-.816406-.195313-1.636719-.210938-2.464843-18.203125 6.730468-30.011719 17.535156-30.011719 29.722656 0 .921875.089844 1.835937.222657 2.742187h-.222657v77.75h.035157c1.15625 37.792969 33.769531 68.089844 73.839843 68.089844 29.015625 0 54.109375-15.890625 66.191407-39.003906-10.695313 5.722656-23.035157 9.003906-36.191407 9.003906zm0 0" fill="#bf6c0d"/><path d="m290.5 119.292969c-.183594 0-.367188-.011719-.554688-.027344-3.300781-.304687-5.730468-3.226563-5.425781-6.523437 6.4375-69.882813-15.863281-84.753907-16.089843-84.894532l.125.070313 5.878906-10.460938c3.007812 1.691407 29.1875 18.75 22.035156 96.386719-.285156 3.109375-2.902344 5.449219-5.96875 5.449219zm0 0" fill="#f9bb32"/><path d="m372.695312 102.867188c-.453124 0-.910156-.050782-1.367187-.160157-3.230469-.753906-5.234375-3.976562-4.480469-7.203125 7.632813-32.722656-7.726562-37.414062-7.886718-37.453125-3.21875-.78125-5.195313-4.027343-4.414063-7.246093s4.03125-5.195313 7.246094-4.414063c1.113281.269531 27.167969 7.132813 16.738281 51.835937-.644531 2.769532-3.109375 4.640626-5.835938 4.640626zm0 0" fill="#e58d23"/><path d="m246.679688 113.292969c0 8.285156-6.71875 15-15 15-8.285157 0-15-6.714844-15-15 0-8.285157 6.714843-15 15-15 8.28125 0 15 6.714843 15 15zm0 0" fill="#bf6c0d"/><path d="m138.195312 60.464844c0 8.285156-6.714843 15-15 15-8.285156 0-15-6.714844-15-15 0-8.28125 6.714844-15 15-15 8.285157 0 15 6.71875 15 15zm0 0" fill="#db9c2e"/></svg>