<svg height="382pt" viewBox="0 -2 382.507 382" width="382pt" xmlns="http://www.w3.org/2000/svg"><path d="m319.496094 358.476562 53.453125-159.53125c2.125-6.34375-2.59375-12.90625-9.285157-12.90625h-344.820312c-6.691406 0-11.410156 6.5625-9.285156 12.90625l53.453125 159.53125c4.027343 12.023438 15.730469 20.179688 28.949219 20.179688h198.585937c13.21875 0 24.921875-8.15625 28.949219-20.179688zm0 0" fill="#ffd551"/><g fill="#ffc34c"><path d="m146.980469 361.582031c-3.027344 0-5.875-1.84375-7.011719-4.84375l-35.144531-92.6875c-1.46875-3.871093.480469-8.203125 4.355469-9.671875 3.871093-1.46875 8.203124.480469 9.671874 4.355469l35.140626 92.6875c1.46875 3.871094-.480469 8.203125-4.351563 9.671875-.875.332031-1.777344.488281-2.660156.488281zm0 0"/><path d="m256.195312 361.582031c-.882812 0-1.78125-.15625-2.660156-.488281-3.871094-1.46875-5.820312-5.800781-4.351562-9.671875l35.140625-92.6875c1.46875-3.875 5.796875-5.824219 9.671875-4.355469s5.824218 5.800782 4.355468 9.671875l-35.140624 92.6875c-1.140626 2.996094-3.988282 4.84375-7.015626 4.84375zm0 0"/><path d="m200.074219 362.828125c-4.144531 0-7.5-3.359375-7.5-7.5v-99.683594c0-4.140625 3.355469-7.5 7.5-7.5 4.140625 0 7.5 3.359375 7.5 7.5v99.683594c0 4.140625-3.359375 7.5-7.5 7.5zm0 0"/><path d="m53.867188 186.039062h-35.023438c-6.691406 0-11.410156 6.558594-9.285156 12.902344l12.113281 36.148438 41.339844 123.386718c4.027343 12.023438 15.730469 20.179688 28.949219 20.179688h48.632812c-13.21875 0-24.921875-8.15625-28.949219-20.179688l-39.3125-117.328124c-1.003906-2.996094 1.335938-6.058594 4.632813-6.058594h280.855468c1.796876 0 3.390626-1.113282 3.9375-2.746094l11.191407-33.402344c2.125-6.34375-2.597657-12.902344-9.289063-12.902344zm0 0"/></g><path d="m337.773438 211.132812c21.753906 0 40.414062-15.855468 43.550781-37.382812.78125-5.355469 1.183593-10.800781 1.183593-16.316406 0-80.628906-85.628906-145.996094-191.253906-145.996094s-191.24999975 65.367188-191.24999975 145.996094c0 5.515625.39843775 10.960937 1.17968775 16.316406 3.136718 21.527344 21.796875 37.382812 43.550781 37.382812zm0 0" fill="#a56021"/><path d="m61.183594 173.75c-.78125-5.355469-1.183594-10.800781-1.183594-16.316406 0-72.839844 69.878906-133.210938 161.253906-144.203125-9.777344-1.175781-19.792968-1.792969-30-1.792969-105.625 0-191.253906 65.367188-191.253906 145.996094 0 5.515625.402344 10.960937 1.183594 16.316406 3.136718 21.527344 21.792968 37.382812 43.546875 37.382812h60c-21.75 0-40.410157-15.855468-43.546875-37.382812zm0 0" fill="#8c4c17"/><path d="m87.453125 51.113281c-2.566406 0-5.132813-.980469-7.085937-2.945312-3.898438-3.914063-3.882813-10.246094.03125-14.144531l26.261718-26.132813c3.914063-3.894531 10.246094-3.878906 14.140625.035156 3.898438 3.917969 3.882813 10.246094-.03125 14.144531l-26.261719 26.132813c-1.949218 1.941406-4.503906 2.910156-7.054687 2.910156zm0 0" fill="#ff9079"/><path d="m218.59375 21.441406c-.109375 0-.21875-.003906-.328125-.007812l-37.027344-1.183594c-5.519531-.179688-9.851562-4.796875-9.675781-10.316406.179688-5.519532 4.792969-9.8593752 10.316406-9.675782l37.027344 1.1875c5.523438.179688 9.851562 4.796876 9.675781 10.316407-.175781 5.410156-4.613281 9.679687-9.988281 9.679687zm0 0" fill="#ff9079"/><path d="m52.285156 96.3125c-3.824218 0-7.472656-2.203125-9.136718-5.917969-2.253907-5.042969.007812-10.957031 5.046874-13.210937l33.820313-15.128906c5.042969-2.253907 10.957031.003906 13.210937 5.046874 2.253907 5.042969-.003906 10.957032-5.046874 13.210938l-33.816407 15.125c-1.328125.59375-2.714843.875-4.078125.875zm0 0" fill="#ff9079"/><path d="m163.90625 110.914062c-2.59375 0-5.183594-1.003906-7.140625-3l-25.929687-26.464843c-3.863282-3.945313-3.800782-10.277344.144531-14.140625 3.945312-3.867188 10.277343-3.800782 14.140625.144531l25.929687 26.460937c3.863281 3.945313 3.800781 10.277344-.144531 14.144532-1.945312 1.902344-4.472656 2.855468-7 2.855468zm0 0" fill="#8c4c17"/><path d="m193.464844 82.75c-2.085938 0-4.191406-.652344-5.992188-2-4.417968-3.3125-5.3125-9.582031-2-14l22.230469-29.636719c3.3125-4.417969 9.582031-5.3125 14-2s5.3125 9.582031 2 14l-22.230469 29.636719c-1.964844 2.621094-4.96875 4-8.007812 4zm0 0" fill="#8c4c17"/><path d="m281.960938 111.34375c-.636719 0-1.277344-.058594-1.921876-.1875l-36.363281-7.078125c-5.421875-1.054687-8.960937-6.308594-7.90625-11.726563 1.054688-5.421874 6.304688-8.964843 11.726563-7.90625l36.363281 7.082032c5.421875 1.054687 8.960937 6.304687 7.90625 11.726562-.929687 4.777344-5.117187 8.089844-9.804687 8.089844zm0 0" fill="#8c4c17"/><path d="m301.164062 66.4375c-1.808593 0-3.636718-.488281-5.28125-1.511719l-31.441406-19.597656c-4.6875-2.921875-6.117187-9.089844-3.195312-13.773437 2.917968-4.6875 9.089844-6.121094 13.773437-3.199219l31.441407 19.59375c4.6875 2.921875 6.121093 9.089843 3.199218 13.777343-1.894531 3.042969-5.160156 4.710938-8.496094 4.710938zm0 0" fill="#8c4c17"/><path d="m172.90625 104.914062c-2.59375 0-5.183594-1.003906-7.140625-3l-25.929687-26.464843c-3.863282-3.945313-3.800782-10.277344.144531-14.140625 3.945312-3.867188 10.277343-3.800782 14.140625.144531l25.929687 26.460937c3.863281 3.945313 3.800781 10.277344-.144531 14.144532-1.945312 1.902344-4.472656 2.855468-7 2.855468zm0 0" fill="#ff9079"/><path d="m207.464844 80.75c-2.085938 0-4.191406-.652344-5.992188-2-4.417968-3.3125-5.3125-9.582031-2-14l22.230469-29.636719c3.3125-4.417969 9.582031-5.3125 14-2s5.3125 9.582031 2 14l-22.230469 29.636719c-1.964844 2.621094-4.96875 4-8.007812 4zm0 0" fill="#ff9079"/><path d="m291.960938 103.34375c-.636719 0-1.277344-.058594-1.921876-.1875l-36.363281-7.078125c-5.421875-1.054687-8.960937-6.308594-7.90625-11.726563 1.054688-5.421874 6.304688-8.964843 11.726563-7.90625l36.363281 7.082032c5.421875 1.054687 8.960937 6.304687 7.90625 11.726562-.929687 4.777344-5.117187 8.089844-9.804687 8.089844zm0 0" fill="#ff9079"/><path d="m311.164062 59.4375c-1.808593 0-3.636718-.488281-5.28125-1.511719l-31.441406-19.597656c-4.6875-2.921875-6.117187-9.089844-3.195312-13.773437 2.917968-4.6875 9.089844-6.121094 13.773437-3.199219l31.441407 19.59375c4.6875 2.921875 6.121093 9.089843 3.199218 13.777343-1.894531 3.042969-5.160156 4.710938-8.496094 4.710938zm0 0" fill="#ff9079"/><path d="m361.261719 184.457031c-.441407 0-.890625-.050781-1.335938-.152343-3.230469-.734376-5.257812-3.949219-4.523437-7.179688 9.183594-40.402344-16.246094-67.8125-16.503906-68.085938-2.28125-2.402343-2.175782-6.203124.230468-8.480468 2.402344-2.28125 6.199219-2.175782 8.480469.226562 1.230469 1.300782 30.085937 32.40625 19.496094 79-.632813 2.78125-3.109375 4.671875-5.84375 4.671875zm0 0" fill="#bf6c0d"/><path d="m111.101562 145.382812c0 8.285157-6.714843 15-15 15-8.285156 0-15-6.714843-15-15 0-8.285156 6.714844-15 15-15 8.285157 0 15 6.714844 15 15zm0 0" fill="#8c4c17"/><path d="m155.035156 178.457031c0 8.28125-6.714844 15-15 15-8.28125 0-15-6.71875-15-15 0-8.285156 6.71875-15 15-15 8.285156 0 15 6.714844 15 15zm0 0" fill="#8c4c17"/></svg>