<svg height="444.348pt" viewBox="0 0 444.348 444.348" width="444.348pt" xmlns="http://www.w3.org/2000/svg"><path d="m222.175781 0c-122.703125 0-222.175781 99.46875-222.175781 222.175781 0 122.703125 99.472656 222.171875 222.175781 222.171875s222.171875-99.46875 222.171875-222.171875c0-122.707031-99.46875-222.175781-222.171875-222.175781zm0 306.847656c-46.691406 0-84.675781-37.984375-84.675781-84.671875 0-46.691406 37.984375-84.675781 84.675781-84.675781 46.6875 0 84.671875 37.984375 84.671875 84.675781 0 46.6875-37.984375 84.671875-84.671875 84.671875zm0 0" fill="#ffb74b"/><g fill="#e58d23"><path d="m391.769531 352.785156h-5.03125c-11.875 0-21.5-9.625-21.5-21.5v-91.039062h48.03125v91.039062c0 11.875-9.628906 21.5-21.5 21.5zm0 0"/><path d="m50 222.175781c0-114.25 86.242188-208.34375 197.175781-220.769531-8.210937-.917969-16.546875-1.40625-25-1.40625-122.703125 0-222.175781 99.46875-222.175781 222.175781 0 122.703125 99.472656 222.171875 222.175781 222.171875 8.453125 0 16.789063-.488281 25-1.40625-110.933593-12.425781-197.175781-106.515625-197.175781-220.765625zm0 0"/><path d="m244.640625 441.976562h-5.03125c-11.875 0-21.5-9.625-21.5-21.5v-91.039062h48.03125v91.039062c0 11.875-9.625 21.5-21.5 21.5zm0 0"/><path d="m147.460938 414.109375h-5.03125c-11.871094 0-21.5-9.625-21.5-21.5v-73.398437h48.03125v73.398437c0 11.875-9.625 21.5-21.5 21.5zm0 0"/></g><path d="m405.933594 353.1875h-5.03125c-11.871094 0-21.5-9.625-21.5-21.5v-117.007812h48.03125v117.007812c0 11.875-9.625 21.5-21.5 21.5zm0 0" fill="#ccc033"/><path d="m426.210938 203.84375c-7-106.980469-96.242188-191.878906-204.957032-191.878906-105.972656 0-193.4375 80.667968-204.269531 183.816406-.746094 5.0625-1.152344 10.234375-1.152344 15.503906 0 58.4375 47.375 105.8125 105.8125 105.8125 18.097657 0 51.644531 3.21875 54.28125 11.039063 14.402344 42.71875 60.707031 65.675781 103.425781 51.273437 23.960938-8.078125 41.699219-26.195312 50.121094-48.082031 8.996094-.585937 18.066406-2.332031 27.011719-5.347656 51.417969-17.335938 80.738281-70.324219 69.726563-122.136719zm-204.957032 98.214844c-46.765625 0-84.675781-37.910156-84.675781-84.675782 0-46.765624 37.910156-84.675781 84.675781-84.675781s84.675782 37.910157 84.675782 84.675781c0 46.765626-37.910157 84.675782-84.675782 84.675782zm0 0" fill="#ccc033"/><path d="m50 222.175781c0-88.039062 51.21875-164.097656 125.472656-200.054687-84.019531 19.613281-148.375 90.933594-157.566406 178.449218-.746094 5.0625-1.152344 10.234376-1.152344 15.503907 0 37.730469 19.753906 70.84375 49.480469 89.578125-10.460937-25.773438-16.234375-53.949219-16.234375-83.476563zm0 0" fill="#99af17"/><path d="m411.203125 336.453125c-3.3125 0-6-2.6875-6-6v-41.664063c0-3.3125 2.6875-6 6-6s6 2.6875 6 6v41.664063c0 3.316406-2.6875 6-6 6zm0 0" fill="#eacf32"/><path d="m400.449219 199.035156c-.101563 0-.207031-.003906-.308594-.007812-3.308594-.167969-5.855469-2.984375-5.691406-6.296875 3.304687-65.421875-73.976563-122.792969-74.757813-123.363281-2.671875-1.957032-3.253906-5.710938-1.292968-8.386719 1.957031-2.671875 5.710937-3.253907 8.382812-1.296875.847656.621094 20.988281 15.472656 40.964844 39.203125 26.820312 31.867187 40.199218 64.523437 38.691406 94.449219-.164062 3.207031-2.816406 5.699218-5.988281 5.699218zm0 0" fill="#eacf32"/><path d="m137.523438 168.355469c-.777344 0-1.5625-.148438-2.324219-.46875-3.054688-1.285157-4.488281-4.800781-3.207031-7.855469.230468-.546875 5.746093-13.464844 18.273437-25.671875 11.6875-11.390625 31.890625-24.304687 61.777344-21.179687 3.296875.34375 5.6875 3.296874 5.34375 6.59375-.34375 3.292968-3.292969 5.683593-6.589844 5.339843-48.398437-5.078125-67.554687 39.121094-67.742187 39.566407-.960938 2.296874-3.1875 3.675781-5.53125 3.675781zm0 0" fill="#eacf32"/><path d="m87.5625 202.628906c0 8.023438-6.507812 14.53125-14.535156 14.53125s-14.535156-6.507812-14.535156-14.53125c0-8.027344 6.507812-14.535156 14.535156-14.535156s14.535156 6.507812 14.535156 14.535156zm0 0" fill="#99af17"/><path d="m116.628906 253.605469c0 8.027343-6.507812 14.535156-14.53125 14.535156-8.027344 0-14.535156-6.507813-14.535156-14.535156 0-8.027344 6.507812-14.535157 14.535156-14.535157 8.023438 0 14.53125 6.507813 14.53125 14.535157zm0 0" fill="#99af17"/><path d="m313.917969 306.128906c0 8.027344-6.507813 14.53125-14.535157 14.53125-8.027343 0-14.53125-6.503906-14.53125-14.53125s6.503907-14.535156 14.53125-14.535156c8.027344 0 14.535157 6.507812 14.535157 14.535156zm0 0" fill="#99af17"/><path d="m257.640625 442.976562h-5.03125c-11.875 0-21.5-9.625-21.5-21.5v-93.738281h48.03125v93.738281c0 11.875-9.625 21.5-21.5 21.5zm0 0" fill="#ccc033"/><path d="m160.460938 414.296875h-5.03125c-11.871094 0-21.5-9.625-21.5-21.5v-75.679687h48.03125v75.679687c0 11.875-9.625 21.5-21.5 21.5zm0 0" fill="#ccc033"/><path d="m361.507812 256.597656c0 8.023438-6.507812 14.53125-14.535156 14.53125s-14.535156-6.507812-14.535156-14.53125c0-8.027344 6.507812-14.535156 14.535156-14.535156s14.535156 6.507812 14.535156 14.535156zm0 0" fill="#99af17"/></svg>