<svg height="473pt" viewBox="0 -46 473.974 473" width="473pt" xmlns="http://www.w3.org/2000/svg"><path d="m232.988281 16.058594h40.574219v49.230468h-40.574219zm0 0" fill="#a56021"/><path d="m232.988281 16.058594h20v49.230468h-20zm0 0" fill="#8c4c17"/><path d="m99.792969 241.972656-55.9375-111.453125c-5.085938-10.132812-14.695313-16.410156-25.113281-16.410156h-14.742188c-2.210938 0-4-1.792969-4-4v-13.375c0-2.207031 1.789062-4 4-4h25.992188c10.421874 0 20.027343 6.277344 25.113281 16.414063l55.9375 111.449218c5.085937 10.136719 14.695312 16.414063 25.113281 16.414063h13.945312v21.375h-25.195312c-10.421875 0-20.027344-6.277344-25.113281-16.414063zm0 0" fill="#f9bb32"/><path d="m130.90625 248.386719c-10.421875 0-20.027344-6.28125-25.113281-16.414063l-55.9375-111.453125c-5.085938-10.132812-14.695313-16.410156-25.113281-16.410156h-14.742188c-2.210938 0-4-1.792969-4-4v-7.375h-2c-2.210938 0-4 1.792969-4 4v13.375c0 2.207031 1.789062 4 4 4h14.742188c10.417968 0 20.027343 6.277344 25.113281 16.410156l55.9375 111.453125c5.085937 10.132813 14.691406 16.414063 25.113281 16.414063h25.195312v-10zm0 0" fill="#db9c2e"/><path d="m447.390625 56.566406h-60.148437v47.75l25.085937.992188c6.773437.269531 12.136719 6.460937 12.136719 14.011718v117.941407c0 4.132812 3.003906 7.476562 6.710937 7.476562h22.085938c3.707031 0 6.710937-3.347656 6.710937-7.476562v-166.675781c0-7.742188-5.632812-14.019532-12.582031-14.019532zm0 0" fill="#8c4c17"/><path d="m316.210938 92.410156h29.144531l25.800781-30.070312c3.167969-3.6875 7.546875-5.773438 12.128906-5.773438h78.105469c6.949219 0 12.582031 6.277344 12.582031 14.019532v166.675781c0 4.132812-3.003906 7.476562-6.707031 7.476562h-22.089844c-3.707031 0-6.710937-3.347656-6.710937-7.476562v-117.941407c0-7.546874-5.363282-13.742187-12.136719-14.011718l-27.820313-1.097656c-4.652343-.1875-9.164062 1.792968-12.457031 5.460937l-23.914062 26.648437-57.601563-.621093v-43.289063zm0 0" fill="#bf6c0d"/><path d="m371.15625 62.339844-25.800781 30.070312h-40.820313v43.289063l57.597656.621093 23.917969-26.648437c.378907-.421875.78125-.820313 1.191407-1.195313l-2.964844-16.066406v-31.863281c0-1.371094-.167969-2.699219-.457032-3.980469h-.535156c-4.582031 0-8.960937 2.085938-12.128906 5.773438zm0 0" fill="#a56021"/><path d="m387.683594 327.613281h-271.769532l43.40625-235.203125h184.957032zm0 0" fill="#f9bb32"/><path d="m347.683594 381.820312h-191.769532c-22.09375 0-40-17.90625-40-40v-14.207031h271.769532v14.207031c0 22.09375-17.90625 40-40 40zm0 0" fill="#bf6c0d"/><path d="m344.277344 92.410156h-184.957032v-31.863281c0-9.941406 8.058594-18 18-18h148.957032c9.941406 0 18 8.058594 18 18zm0 0" fill="#bf6c0d"/><path d="m159.320312 92.410156-43.40625 235.203125h40l43.40625-235.203125zm0 0" fill="#db9c2e"/><g fill="#a56021"><path d="m217.320312 42.546875h-40c-9.941406 0-18 8.058594-18 18v31.863281h40v-31.863281c0-9.941406 8.058594-18 18-18zm0 0"/><path d="m155.914062 341.820312v-14.207031h-40v14.207031c0 22.09375 17.90625 40 40 40h40c-22.09375 0-40-17.90625-40-40zm0 0"/><path d="m286.300781 25.605469h-66.050781c-4.417969 0-8-3.582031-8-8v-9.117188c0-4.417969 3.582031-8 8-8h66.050781c4.417969 0 8 3.582031 8 8v9.117188c0 4.417969-3.582031 8-8 8zm0 0"/></g><path d="m239.25 17.605469v-9.117188c0-4.417969 3.582031-8 8-8h-27c-4.417969 0-8 3.582031-8 8v9.117188c0 4.417969 3.582031 8 8 8h27c-4.417969 0-8-3.582031-8-8zm0 0" fill="#8c4c17"/><path d="m343.175781 200.847656c-2.835937 0-5.359375-2.019531-5.894531-4.910156l-3.558594-19.289062c-.601562-3.257813 1.550782-6.386719 4.8125-6.988282 3.253906-.601562 6.386719 1.554688 6.988282 4.8125l3.558593 19.285156c.601563 3.261719-1.550781 6.390626-4.8125 6.988282-.367187.070312-.734375.101562-1.09375.101562zm0 0" fill="#ffc34c"/><path d="m359.886719 300.382812c-2.839844 0-5.363281-2.019531-5.894531-4.910156l-13.914063-75.371094c-.601563-3.261718 1.554687-6.390624 4.8125-6.992187s6.390625 1.554687 6.992187 4.8125l13.910157 75.371094c.601562 3.261719-1.554688 6.390625-4.8125 6.988281-.367188.070312-.734375.101562-1.09375.101562zm0 0" fill="#ffc34c"/><path d="m459.972656 200.847656c-3.3125 0-6-2.6875-6-6v-95.402344c0-3.3125 2.6875-6 6-6s6 2.6875 6 6v95.402344c0 3.3125-2.6875 6-6 6zm0 0" fill="#e58d23"/><path d="m202.855469 274.246094c0 8.027344-6.507813 14.53125-14.535157 14.53125-8.027343 0-14.535156-6.503906-14.535156-14.53125s6.507813-14.535156 14.535156-14.535156c8.027344 0 14.535157 6.507812 14.535157 14.535156zm0 0" fill="#db9c2e"/><path d="m235.738281 303.070312c0 8.027344-6.503906 14.535157-14.53125 14.535157-8.027343 0-14.535156-6.507813-14.535156-14.535157 0-8.027343 6.507813-14.535156 14.535156-14.535156 8.027344 0 14.53125 6.507813 14.53125 14.535156zm0 0" fill="#db9c2e"/></svg>