<svg height="477pt" viewBox="-13 0 477 477.334" width="477pt" xmlns="http://www.w3.org/2000/svg"><path d="m391 100.335938c1.191406 3.785156 1.835938 7.816406 1.835938 12v132.105468c0 13.359375-6.671876 25.839844-17.78125 33.261719l-68.21875 45.574219v-222.941406h-40v272.332031h38.078124l110.140626-73.582031c11.109374-7.421876 17.777343-19.902344 17.777343-33.261719v-165.488281zm0 0" fill="#8c4c17"/><path d="m284.835938 60.335938v340.332031h38.078124l110.140626-73.582031c11.109374-7.421876 17.777343-19.902344 17.777343-33.261719v-193.488281c0-22.09375-17.90625-40-40-40zm108.21875 245.367187-68.21875 45.574219v-250.941406h46c22.089843 0 40 17.90625 40 40v132.105468c0 13.359375-6.671876 25.839844-17.78125 33.261719zm0 0" fill="#bf6c0d"/><path d="m437.5 256.863281c-3.3125 0-6-2.683593-6-6v-114.09375c0-3.3125 2.6875-6 6-6s6 2.6875 6 6v114.09375c0 3.316407-2.6875 6-6 6zm0 0" fill="#e58d23"/><path d="m392.917969 305.796875-68.082031 45.480469v-250.941406h46c8.164062 0 15.753906 2.449218 22.082031 6.648437v-46.648437h-108.082031v340.332031h38.078124l70-46.765625v-48.105469zm0 0" fill="#a56021"/><path d="m83.011719 60.335938h-77.722657c-3.785156 0-6.257812 3.875-4.59375 7.195312l61.78125 123.421875c3.390626 6.773437 10.3125 11.046875 17.886719 11.046875h39.136719v-141.664062zm0 0" fill="#ffd59a"/><path d="m82.835938 60.335938h260.078124v343h-260.078124zm0 0" fill="#ffd59a"/><path d="m302.917969 477.335938h-180.082031c-22.09375 0-40-17.910157-40-40v-36.667969h260.078124v36.667969c.003907 22.089843-17.90625 40-39.996093 40zm0 0" fill="#bf6c0d"/><path d="m342.917969 60.335938h-260.082031v-10.335938c0-27.613281 22.382812-50 50-50h160.078124c27.613282 0 50 22.386719 50 50v10.335938zm0 0" fill="#bf6c0d"/><path d="m235.542969 364h-45.332031c-6.628907 0-12-5.371094-12-12v-213.378906c0-19.144532 15.519531-34.667969 34.664062-34.667969 19.148438 0 34.667969 15.523437 34.667969 34.667969v213.378906c0 6.628906-5.375 12-12 12zm0 0" fill="#ff9079"/><path d="m92.480469 190.953125-61.785157-123.421875c-1.664062-3.320312.8125-7.199219 4.59375-7.199219h-30c-3.78125 0-6.257812 3.878907-4.59375 7.199219l61.785157 123.421875c3.386719 6.769531 10.3125 11.046875 17.882812 11.046875h30c-7.570312 0-14.496093-4.277344-17.882812-11.046875zm0 0" fill="#ffc34c"/><path d="m82.835938 60.335938h40v343h-40zm0 0" fill="#ffc34c"/><path d="m122.835938 437.335938v-36.667969h-40v36.667969c0 22.089843 17.90625 40 40 40h40c-22.09375 0-40-17.910157-40-40zm0 0" fill="#a56021"/><path d="m122.835938 60c0-27.613281 22.382812-50 50-50h150.082031c-8.359375-6.277344-18.746094-10-30.003907-10h-160.078124c-27.617188 0-50 22.386719-50 50v10.332031h40zm0 0" fill="#a56021"/><path d="m319.292969 391.253906c-3.316407 0-6-2.6875-6-6v-201.375c0-3.3125 2.683593-6 6-6 3.3125 0 6 2.6875 6 6v201.375c0 3.3125-2.6875 6-6 6zm0 0" fill="#ffeacf"/><path d="m291.304688 460.25c-7.695313 0-10.769532-.738281-11.488282-.949219l3.371094-11.515625-.164062-.046875c.050781.015625 5.546874 1.246094 22.78125-.175781 2.226562-.183594 3.789062-1.007812 5.070312-2.675781 4.878906-6.363281 3.503906-21.382813 2.636719-26.148438-.59375-3.257812 1.566406-6.382812 4.828125-6.976562 3.257812-.597657 6.386718 1.570312 6.976562 4.832031.441406 2.414062 4.035156 23.917969-4.917968 35.59375-3.328126 4.339844-8.035157 6.875-13.605469 7.335938-6.539063.539062-11.605469.726562-15.488281.726562zm0 0" fill="#e58d23"/><path d="m234.875 115.953125c1.519531 0 3.007812.109375 4.476562.300781-6.359374-7.519531-15.859374-12.300781-26.476562-12.300781-19.144531 0-34.667969 15.523437-34.667969 34.667969v213.378906c0 6.628906 5.375 12 12 12h10v-213.378906c0-19.144532 15.523438-34.667969 34.667969-34.667969zm0 0" fill="#ff624b"/><path d="m159.84375 87.082031c0 8.285157-6.71875 15-15 15-8.285156 0-15-6.714843-15-15 0-8.285156 6.714844-15 15-15 8.28125 0 15 6.714844 15 15zm0 0" fill="#ffc34c"/><path d="m167.5 441.253906c0 8.285156-6.714844 15-15 15-8.28125 0-15-6.714844-15-15s6.71875-15 15-15c8.285156 0 15 6.714844 15 15zm0 0" fill="#a56021"/></svg>