<svg height="473pt" viewBox="-49 0 473 473.352" width="473pt" xmlns="http://www.w3.org/2000/svg"><path d="m16.84375 150.632812h312.136719v270.566407h-312.136719zm0 0" fill="#bf6c0d"/><path d="m118.765625 365.394531c0 10.9375-8.867187 19.804688-19.804687 19.804688s-19.804688-8.867188-19.804688-19.804688 8.867188-19.800781 19.804688-19.800781 19.804687 8.863281 19.804687 19.800781zm0 0" fill="#a56021"/><path d="m16.84375 150.632812h47.910156v270.566407h-47.910156zm0 0" fill="#a56021"/><path d="m148.492188 235.183594h48.839843v48.839844h-48.839843zm0 0" fill="#8c4c17"/><path d="m366.558594 291.707031c-38.167969 6.691407-189.574219-5.058593-217.597656-7.316406-2.53125-.203125-4.476563-2.28125-4.476563-4.777344v-25.140625c0-2.492187 1.945313-4.570312 4.476563-4.773437 28.023437-2.261719 179.429687-14.011719 217.597656-7.316407 4.667968.816407 8.070312 4.785157 8.070312 9.441407v30.441406c0 4.65625-3.402344 8.621094-8.070312 9.441406zm0 0" fill="#a56021"/><path d="m199.09375 237.15625h-52.363281c-6.628907 0-12-5.371094-12-12v-30.171875h76.363281v30.171875c0 6.628906-5.371094 12-12 12zm0 0" fill="#ffa730"/><path d="m166.207031 271.933594c-2.527343-.203125-4.472656-2.28125-4.472656-4.773438v-18.464844c-5.449219.417969-9.808594.765626-12.773437 1.003907-2.527344.203125-4.472657 2.28125-4.472657 4.777343v25.140626c0 2.492187 1.945313 4.570312 4.472657 4.773437 28.023437 2.257813 179.429687 14.007813 217.601562 7.316406 4.664062-.820312 8.066406-4.785156 8.066406-9.441406v-1.910156c-48.8125 4.046875-182.28125-6.3125-208.421875-8.421875zm0 0" fill="#8c4c17"/><path d="m163.476562 217.984375h47.617188v-23h-76.363281v30.675781c0 6.351563 5.148437 11.496094 11.496093 11.496094h17.25zm0 0" fill="#e58d23"/><path d="m328.980469 47.039062h-312.136719v-22.039062c0-13.808594 11.195312-25 25-25h262.136719c13.804687 0 25 11.191406 25 25zm0 0" fill="#ffc34c"/><path d="m88.710938 10.539062h236.160156c-4.304688-6.359374-11.585938-10.539062-19.847656-10.539062h-264.222657c-13.230469 0-23.957031 10.726562-23.957031 23.953125v23.085937h47.910156v-12.542968c0-13.230469 10.726563-23.957032 23.957032-23.957032zm0 0" fill="#f9bb32"/><path d="m98.082031 207.582031-10.132812-21.050781v-75.464844h-38.964844v75.464844l-10.132813 21.050781c-1.222656 2.546875.628907 5.496094 3.453126 5.496094h52.324218c2.824219 0 4.679688-2.949219 3.453125-5.496094zm0 0" fill="#ffdf74"/><path d="m261.066406 111.066406h31.621094s0 83.824219-7.554688 102.011719h-16.511718 16.511718-16.511718c-7.554688-18.1875-7.554688-102.011719-7.554688-102.011719h31.621094zm0 0" fill="#ffdf74"/><path d="m261.066406 111.066406s0 83.824219 7.554688 102.011719h12.457031c-7.554687-18.1875-7.554687-102.011719-7.554687-102.011719zm0 0" fill="#ffd551"/><path d="m54.183594 207.582031 10.132812-21.050781v-75.464844h-15.332031v75.464844l-10.132813 21.050781c-1.222656 2.546875.632813 5.496094 3.457032 5.496094h15.328125c-2.824219 0-4.675781-2.949219-3.453125-5.496094zm0 0" fill="#ffd551"/><path d="m327.648438 473.351562h-309.472657c-9.941406 0-18-8.058593-18-18v-37.0625c0-9.941406 8.058594-18 18-18h309.472657c9.941406 0 18 8.058594 18 18v37.0625c0 9.941407-8.058594 18-18 18zm0 0" fill="#e58d23"/><path d="m249.886719 473.351562h-153.949219l16.972656-32.316406c3.3125-6.304687 9.84375-10.253906 16.964844-10.253906h86.074219c7.121093 0 13.65625 3.949219 16.964843 10.253906zm0 0" fill="#bf6c0d"/><path d="m328.980469 39.296875h-312.136719v122.773437h80.339844c4.578125 0 8.464844 3.253907 9.402344 7.734376 2.691406 12.921874 7.679687 25.316406 14.792968 36.578124 2.636719 4.167969 7.222656 6.695313 12.152344 6.695313h78.761719c4.929687 0 9.515625-2.527344 12.148437-6.695313 7.117188-11.261718 12.105469-23.65625 14.796875-36.578124.933594-4.484376 4.824219-7.734376 9.402344-7.734376h80.335937v-122.773437zm0 0" fill="#f9bb32"/><path d="m212.480469 111.066406c0 21.855469-17.714844 39.570313-39.570313 39.570313-21.851562 0-39.566406-17.714844-39.566406-39.570313 0-21.851562 17.714844-39.566406 39.566406-39.566406 21.855469 0 39.570313 17.714844 39.570313 39.566406zm0 0" fill="#fcda4f"/><path d="m202.898438 111.066406c0 16.5625-13.425782 29.988282-29.988282 29.988282-16.558594 0-29.984375-13.425782-29.984375-29.988282 0-16.558594 13.425781-29.984375 29.984375-29.984375 16.5625 0 29.988282 13.425781 29.988282 29.984375zm0 0" fill="#ffeacf"/><path d="m87.578125 115.855469c0 10.9375-8.863281 19.804687-19.800781 19.804687s-19.804688-8.867187-19.804688-19.804687c0-10.933594 8.867188-19.800781 19.804688-19.800781s19.800781 8.867187 19.800781 19.800781zm0 0" fill="#fcda4f"/><path d="m296.679688 115.855469c0 10.9375-8.867188 19.804687-19.800782 19.804687-10.9375 0-19.804687-8.867187-19.804687-19.804687 0-10.933594 8.867187-19.800781 19.804687-19.800781 10.933594 0 19.800782 8.867187 19.800782 19.800781zm0 0" fill="#fcda4f"/><path d="m172.910156 119.609375c-.917968 0-1.835937-.3125-2.589844-.949219l-17.566406-14.929687c-1.683594-1.429688-1.886718-3.953125-.457031-5.636719s3.957031-1.890625 5.640625-.460938l17.566406 14.929688c1.683594 1.429688 1.886719 3.953125.457032 5.636719-.792969.933593-1.917969 1.410156-3.050782 1.410156zm0 0" fill="#ff624b"/><path d="m181.441406 193.914062c-4.929687 0-9.515625-2.527343-12.152344-6.695312-7.113281-11.257812-12.101562-23.65625-14.792968-36.578125-.933594-4.480469-4.824219-7.730469-9.402344-7.730469h-80.335938v-103.613281h-47.910156v122.773437h80.335938c4.578125 0 8.46875 3.253907 9.402344 7.734376 2.691406 12.921874 7.679687 25.316406 14.796874 36.578124 2.632813 4.167969 7.21875 6.695313 12.148438 6.695313h78.761719c4.929687 0 9.515625-2.527344 12.152343-6.695313 2.539063-4.019531 4.796876-8.1875 6.785157-12.46875zm0 0" fill="#db9c2e"/><path d="m296.550781 142.90625c-4.578125 0-8.464843 3.253906-9.398437 7.734375-.804688 3.867187-1.84375 7.675781-3.054688 11.429687h44.882813v-19.164062zm0 0" fill="#db9c2e"/><path d="m65.714844 96.308594c-9.5 1.457031-16.785156 9.640625-16.785156 19.546875 0 9.910156 7.285156 18.09375 16.785156 19.550781zm0 0" fill="#ffd551"/><path d="m290.875 441c0 10.9375-8.867188 19.804688-19.804688 19.804688-10.933593 0-19.800781-8.867188-19.800781-19.804688s8.867188-19.800781 19.800781-19.800781c10.9375 0 19.804688 8.863281 19.804688 19.800781zm0 0" fill="#a56021"/><path d="m362.960938 274.964844c-.484376 0-.972657-.0625-1.460938-.183594-3.214844-.804688-5.167969-4.0625-4.363281-7.277344.945312-3.777344.742187-6.5-.605469-8.089844-2.394531-2.820312-8.4375-3.007812-10.367188-2.851562-3.296874.277344-6.195312-2.171875-6.476562-5.464844-.285156-3.289062 2.128906-6.1875 5.417969-6.488281 1.382812-.125 13.691406-.996094 20.527343 6.984375 2.769532 3.238281 5.570313 9.132812 3.144532 18.824219-.683594 2.726562-3.128906 4.546875-5.816406 4.546875zm0 0" fill="#bf6c0d"/><path d="m311.328125 394.691406c-3.3125 0-6-2.6875-6-6v-83.34375c0-3.3125 2.6875-6 6-6s6 2.6875 6 6v83.34375c0 3.3125-2.683594 6-6 6zm0 0" fill="#db9c2e"/><path d="m314.40625 109.347656c-3.3125 0-6-2.6875-6-6v-59.910156c0-3.3125 2.6875-6 6-6s6 2.6875 6 6v59.910156c0 3.3125-2.6875 6-6 6zm0 0" fill="#ffd551"/><path d="m238.359375 347.019531c-7.222656-8.433593-22.167969-7.488281-33.382813 2.117188-11.21875 9.601562-14.457031 24.222656-7.234374 32.660156 7.222656 8.433594 22.167968 7.484375 33.382812-2.117187 11.21875-9.605469 14.453125-24.226563 7.234375-32.660157zm-13.449219 25.402344c-4.136718 3.542969-9.054687 5.574219-13.5 5.574219-1.980468 0-4.703125-.421875-6.410156-2.414063-3.246094-3.792969-1.503906-12.605469 6.1875-19.1875 4.136719-3.542969 9.058594-5.574219 13.5-5.574219 1.984375 0 4.703125.417969 6.414062 2.414063 3.246094 3.789063 1.5 12.601563-6.191406 19.1875zm0 0" fill="#fcf9de"/><path d="m228.597656 351.839844c1.628906 4.339844-.570312 11.699218-7.222656 17.398437-4.136719 3.539063-9.058594 5.574219-13.5 5.574219 0 0 0 0-.003906 0-1.980469 0-4.703125-.421875-6.410156-2.414062-3.246094-3.792969-1.5-12.605469 6.1875-19.1875.570312-.488282 1.152343-.941407 1.746093-1.367188h-13.433593c-6.589844 9.003906-7.617188 19.921875-1.757813 26.769531 7.222656 8.433594 22.167969 7.484375 33.386719-2.117187 8.171875-7 12.101562-16.660156 10.84375-24.652344h-9.835938zm0 0" fill="#99af17"/><path d="m238.359375 347.019531c-7.222656-8.433593-22.167969-7.488281-33.382813 2.117188-11.21875 9.601562-14.457031 24.222656-7.234374 32.660156 7.222656 8.433594 22.167968 7.484375 33.382812-2.117187 11.21875-9.605469 14.453125-24.226563 7.234375-32.660157zm-13.449219 25.402344c-4.136718 3.542969-9.054687 5.574219-13.5 5.574219-1.980468 0-4.703125-.421875-6.410156-2.414063-3.246094-3.792969-1.503906-12.605469 6.1875-19.1875 4.136719-3.542969 9.058594-5.574219 13.5-5.574219 1.984375 0 4.703125.417969 6.414062 2.414063 3.246094 3.789063 1.5 12.601563-6.191406 19.1875zm0 0" fill="#eacf32"/><path d="m204.972656 349.132812c-11.214844 9.605469-14.453125 24.226563-7.230468 32.660157 5.933593 6.929687 17.078124 7.523437 27.085937 2.1875l3.105469-14.605469c-.878906 1.046875-1.882813 2.070312-3.023438 3.046875-4.136718 3.539063-9.054687 5.570313-13.5 5.570313-1.980468 0-4.703125-.417969-6.410156-2.414063-3.246094-3.789063-1.503906-12.601563 6.1875-19.1875 4.136719-3.539063 9.058594-5.574219 13.5-5.574219 1.984375 0 4.703125.421875 6.414062 2.414063.070313.085937.136719.175781.207032.265625l2.179687-10.269532c-7.890625-3.96875-19.425781-1.871093-28.515625 5.90625zm0 0" fill="#ccc033"/><path d="m195.863281 404.394531h-37.324219c-6.109374 0-11.386718-4.273437-12.65625-10.25l-13.203124-62.140625c-.488282-2.300781 1.265624-4.464844 3.617187-4.464844h81.808594c2.351562 0 4.105469 2.164063 3.617187 4.464844l-13.203125 62.140625c-1.269531 5.976563-6.546875 10.25-12.65625 10.25zm0 0" fill="#ccc033"/><path d="m160.035156 394.144531-13.203125-62.140625c-.488281-2.300781 1.265625-4.464844 3.613281-4.464844h-14.148437c-2.351563 0-4.105469 2.164063-3.617187 4.464844l13.203124 62.140625c1.269532 5.976563 6.546876 10.25 12.65625 10.25h14.152344c-6.109375 0-11.386718-4.273437-12.65625-10.25zm0 0" fill="#99af17"/><g fill="#eacf32"><path d="m202.574219 359.554688c-.171875 0-.347657-.015626-.519531-.054688-1.351563-.285156-2.214844-1.613281-1.925782-2.964844l1.097656-5.179687c.289063-1.347657 1.613282-2.207031 2.964844-1.925781 1.351563.289062 2.214844 1.617187 1.925782 2.964843l-1.097657 5.179688c-.25 1.175781-1.289062 1.980469-2.445312 1.980469zm0 0"/><path d="m196.375 392.269531c-.171875 0-.347656-.019531-.519531-.054687-1.351563-.289063-2.214844-1.617188-1.925781-2.964844l5.058593-23.804688c.289063-1.347656 1.613281-2.210937 2.964844-1.921874 1.351563.285156 2.210937 1.613281 1.925781 2.964843l-5.058594 23.800781c-.25 1.175782-1.289062 1.980469-2.445312 1.980469zm0 0"/></g></svg>