<svg height="461pt" viewBox="-90 0 461 461.645" width="461pt" xmlns="http://www.w3.org/2000/svg"><path d="m175.390625 0h-69.359375c-23.726562 0-42.957031 19.234375-42.957031 42.960938v114.363281c0 6.308593 1.042969 12.5625 3.097656 18.527343 5.914063 17.179688 18.382813 58.367188 20.023437 104.429688.238282 6.714844 5.695313 12.0625 12.414063 12.0625h84.203125c6.71875 0 12.175781-5.347656 12.414062-12.0625 1.636719-46.0625 14.105469-87.25 20.023438-104.429688 2.054688-5.964843 3.097656-12.21875 3.097656-18.527343v-114.363281c0-23.726563-19.230468-42.960938-42.957031-42.960938zm0 0" fill="#a56021"/><path d="m265.867188 461.644531h-250.3125c-8.285157 0-15-6.714843-15-15v-32.578125h280.3125v32.578125c0 8.285157-6.714844 15-15 15zm0 0" fill="#e58d23"/><path d="m193.21875 298.617188c-1.65625-3.765626-5.371094-6.199219-9.484375-6.199219h-86.046875c-4.113281 0-7.828125 2.433593-9.484375 6.199219-8.617187 19.613281-37.585937 79.53125-73.265625 88.394531h251.546875c-35.679687-8.863281-64.648437-68.78125-73.265625-88.394531zm0 0" fill="#ffd551"/><path d="m268.507812 387.011719h-255.59375s-14.585937 6.070312-12.359374 26.8125h280.3125c2.226562-20.742188-12.359376-26.8125-12.359376-26.8125zm0 0" fill="#ffc34c"/><path d="m127.601562 280.28125c-1.636718-46.0625-14.105468-87.25-20.023437-104.429688-2.054687-5.964843-3.097656-12.21875-3.097656-18.527343v-114.363281c0-23.726563 19.234375-42.960938 42.957031-42.960938h-41.40625c-23.726562 0-42.957031 19.234375-42.957031 42.960938v114.363281c0 6.308593 1.042969 12.5625 3.097656 18.527343 5.914063 17.179688 18.382813 58.363282 20.023437 104.429688.238282 6.714844 5.695313 12.0625 12.414063 12.0625h41.40625c-6.71875 0-12.175781-5.347656-12.414063-12.0625zm0 0" fill="#8c4c17"/><path d="m129.609375 298.617188c1.65625-3.765626 5.371094-6.199219 9.484375-6.199219h-41.410156c-4.109375 0-7.824219 2.433593-9.480469 6.199219-8.617187 19.613281-37.585937 79.53125-73.265625 88.394531h41.40625c35.679688-8.863281 64.648438-68.785157 73.265625-88.394531zm0 0" fill="#ffc34c"/><path d="m54.320312 399.433594h225.0625c-3.441406-9.320313-10.875-12.421875-10.875-12.421875h-255.59375s-14.585937 6.070312-12.359374 26.8125h42.257812c3.046875-10.855469 11.507812-14.390625 11.507812-14.390625zm0 0" fill="#f9bb32"/><path d="m41.960938 448.945312v-34.882812h-41.40625v34.882812c0 7.015626 6.949218 12.699219 15.527343 12.699219h41.40625c-8.574219 0-15.527343-5.683593-15.527343-12.699219zm0 0" fill="#bf6c0d"/><path d="m203.855469 141.277344c-3.3125 0-6-2.6875-6-6v-86.679688c-.898438-9.605468-3.734375-16.625-8.207031-20.3125-3.859376-3.175781-7.914063-2.980468-7.945313-2.976562-3.304687.339844-6.246094-2.054688-6.585937-5.351563-.34375-3.296875 2.050781-6.246093 5.347656-6.585937.902344-.097656 9.0625-.730469 16.816406 5.65625 7.148438 5.890625 11.371094 15.566406 12.550781 28.761718.015625.179688.023438.355469.023438.535157v86.953125c0 3.316406-2.6875 6-6 6zm0 0" fill="#e58d23"/><path d="m214.203125 375.230469c-1.105469 0-2.226563-.304688-3.230469-.949219-18.742187-11.996094-31.539062-46.546875-32.074218-48.011719-1.140626-3.113281.460937-6.558593 3.574218-7.695312 3.109375-1.140625 6.558594.460937 7.695313 3.574219 3.273437 8.929687 14.550781 33.886718 27.273437 42.027343 2.792969 1.789063 3.605469 5.496094 1.820313 8.289063-1.144531 1.789062-3.082031 2.765625-5.058594 2.765625zm0 0" fill="#ffdf74"/><path d="m258.375 455.972656c-3.3125 0-6-2.6875-6-6v-25.558594c0-3.3125 2.6875-6 6-6s6 2.6875 6 6v25.558594c0 3.3125-2.6875 6-6 6zm0 0" fill="#ffa730"/><path d="m140.710938 43.957031c0 8.574219-6.953126 15.527344-15.527344 15.527344-8.578125 0-15.527344-6.953125-15.527344-15.527344s6.949219-15.527343 15.527344-15.527343c8.574218 0 15.527344 6.953124 15.527344 15.527343zm0 0" fill="#8c4c17"/><path d="m82.332031 436.515625c0 8.578125-6.949219 15.527344-15.527343 15.527344-8.574219 0-15.527344-6.949219-15.527344-15.527344 0-8.574219 6.953125-15.527344 15.527344-15.527344 8.578124 0 15.527343 6.953125 15.527343 15.527344zm0 0" fill="#bf6c0d"/><path d="m170.148438 92.820312c0 8.578126-6.953126 15.53125-15.527344 15.53125-8.578125 0-15.527344-6.953124-15.527344-15.53125 0-8.574218 6.949219-15.527343 15.527344-15.527343 8.574218 0 15.527344 6.953125 15.527344 15.527343zm0 0" fill="#8c4c17"/></svg>