<svg height="477pt" viewBox="-111 0 477 477.337" width="477pt" xmlns="http://www.w3.org/2000/svg"><path d="m81.957031 464.960938c-38.273437 0-69.414062-29.042969-69.414062-64.742188v-.3125c0-4.878906.636719-9.757812 1.894531-14.496094l46.308594-174.738281c3.839844-14.488281 5.785156-29.402344 5.785156-44.328125v-.214844c0-21.910156-4.125-43.441406-12.265625-64l-23.585937-59.558594c-1.882813-4.765624-1.152344-10.097656 1.960937-14.265624 3.113281-4.167969 8.222656-6.65625 13.667969-6.65625h166.320312c5.445313 0 10.554688 2.488281 13.667969 6.65625 3.113281 4.167968 3.84375 9.5 1.960937 14.265624l-23.585937 59.558594c-8.140625 20.554688-12.265625 42.089844-12.265625 63.996094v1.660156c0 14.011719 1.71875 28.035156 5.109375 41.683594l43.8125 176.417969c1.109375 4.464843 1.671875 9.050781 1.671875 13.632812v.699219c0 35.699219-31.136719 64.742188-69.414062 64.742188zm0 0" fill="#ffeacf"/><path d="m52.132812 400.21875v-.3125c0-4.878906.636719-9.757812 1.894532-14.496094l46.308594-174.738281c3.839843-14.488281 5.785156-29.402344 5.785156-44.328125v-.214844c0-21.910156-4.125-43.441406-12.265625-63.996094l-23.585938-59.5625c-1.886719-4.765624-1.152343-10.097656 1.960938-14.265624 3.113281-4.167969 8.222656-6.65625 13.667969-6.65625h-39.589844c-5.445313 0-10.554688 2.488281-13.667969 6.65625-3.113281 4.167968-3.847656 9.5-1.960937 14.265624l23.585937 59.5625c8.140625 20.554688 12.265625 42.085938 12.265625 63.996094v.214844c0 14.925781-1.945312 29.839844-5.785156 44.328125l-46.308594 174.738281c-1.257812 4.738282-1.894531 9.617188-1.894531 14.496094v.3125c0 35.699219 31.140625 64.742188 69.414062 64.742188h39.589844c-38.273437 0-69.414063-29.042969-69.414063-64.742188zm0 0" fill="#ffd59a"/><path d="m42.070312 21.648438 9.941407 24.511718 33.335937 90.273438v185.71875h89.246094v-185.71875l33.335938-90.273438 9.941406-24.511718zm0 0" fill="#ffd59a"/><path d="m124.9375 136.433594-33.339844-90.273438-9.9375-24.511718h-39.589844l9.941407 24.511718 33.335937 90.273438v185.71875h39.589844zm0 0" fill="#ffc34c"/><path d="m253.335938 382.902344-43.8125-176.414063c-3.148438-12.675781-4.746094-25.699219-4.746094-38.703125v-1.660156c0-20.34375 3.835937-40.339844 11.394531-59.4375l2.128906-5.371094c1.027344-2.597656-.886719-5.414062-3.683593-5.414062h-36.175782c-5.585937 0-10.699218 3.132812-13.234375 8.113281l-37.4375 73.578125-37.4375-73.578125c-2.535156-4.980469-7.648437-8.113281-13.234375-8.113281h-32.78125c-2.796875 0-4.710937 2.816406-3.683594 5.414062l2.128907 5.371094c7.5625 19.097656 11.394531 39.097656 11.394531 59.441406v.21875c0 13.851563-1.808594 27.703125-5.371094 41.15625l-46.3125 174.738282c-1.527344 5.773437-2.304687 11.71875-2.304687 17.667968v.3125c0 42.519532 36.691406 77.113282 81.789062 77.113282h91.628907c45.097656 0 81.789062-34.59375 81.789062-77.113282v-.699218c-.003906-5.589844-.6875-11.179688-2.039062-16.621094zm0 0" fill="#bf6c0d"/><path d="m132.667969 309.929688h-9.796875c-2.757813 0-5-2.242188-5-5v-135.542969h19.796875v135.542969c0 2.757812-2.238281 5-5 5zm0 0" fill="#ffd551"/><path d="m42.070312 21.648438h175.800782l5.46875-13.476563c1.582031-3.90625-1.292969-8.171875-5.503906-8.171875h-175.730469c-4.214844 0-7.085938 4.265625-5.503907 8.171875zm0 0" fill="#ffeacf"/><path d="m81.695312 0h-39.589843c-4.214844 0-7.085938 4.265625-5.503907 8.171875l5.46875 13.476563h39.585938l-5.464844-13.476563c-1.582031-3.90625 1.289063-8.171875 5.503906-8.171875zm0 0" fill="#ffd59a"/><path d="m39.757812 400.21875v-.3125c0-5.949219.777344-11.894531 2.304688-17.667969l46.308594-174.738281c3.566406-13.453125 5.375-27.300781 5.375-41.15625v-.214844c0-20.34375-3.835938-40.34375-11.398438-59.441406l-2.125-5.371094c-.710937-1.792968-.011718-3.695312 1.40625-4.699218-1.441406-.460938-2.964844-.714844-4.53125-.714844h-32.78125c-2.796875 0-4.710937 2.816406-3.683594 5.414062l2.128907 5.371094c7.5625 19.097656 11.394531 39.097656 11.394531 59.441406v.214844c0 13.855469-1.808594 27.703125-5.371094 41.15625l-46.3125 174.738281c-1.527344 5.773438-2.304687 11.71875-2.304687 17.667969v.3125c0 42.523438 36.691406 77.117188 81.789062 77.117188h39.589844c-45.097656 0-81.789063-34.597657-81.789063-77.117188zm0 0" fill="#a56021"/><path d="m117.875 225.800781h19.792969v-52.277343c-1.246094-1.910157-3.398438-3.148438-5.800781-3.148438h-8.195313c-2.402344 0-4.550781 1.238281-5.800781 3.148438v52.277343zm0 0" fill="#f9bb32"/><path d="m112.703125 214.914062h30.132813c2.464843 0 4.332031-2.230468 3.898437-4.65625l-8.046875-45.058593c-.589844-3.304688-3.464844-5.710938-6.820312-5.710938h-8.195313c-3.355469 0-6.226563 2.40625-6.820313 5.710938l-8.042968 45.058593c-.433594 2.425782 1.429687 4.65625 3.894531 4.65625zm0 0" fill="#ff9079"/><path d="m121.671875 210.257812 8.046875-45.058593c.449219-2.5 2.203125-4.484375 4.484375-5.300781-.734375-.265626-1.519531-.410157-2.335937-.410157h-8.195313c-3.355469 0-6.226563 2.40625-6.820313 5.710938l-8.042968 45.058593c-.433594 2.425782 1.429687 4.65625 3.894531 4.65625h12.867187c-2.464843 0-4.328124-2.230468-3.898437-4.65625zm0 0" fill="#ff624b"/><path d="m182.863281 81.691406c-.683593 0-1.378906-.117187-2.0625-.367187-3.109375-1.140625-4.710937-4.585938-3.570312-7.695313l23.753906-64.867187c1.140625-3.109375 4.585937-4.707031 7.699219-3.570313 3.109375 1.140625 4.707031 4.585938 3.570312 7.695313l-23.753906 64.867187c-.890625 2.429688-3.1875 3.9375-5.636719 3.9375zm0 0" fill="#fcf9de"/><path d="m211.457031 443.957031c-1.757812 0-3.496093-.769531-4.683593-2.246093-2.074219-2.582032-1.660157-6.359376.925781-8.433594 31.082031-24.949219 8.515625-85.160156 8.285156-85.761719-1.1875-3.09375.359375-6.566406 3.453125-7.75 3.09375-1.1875 6.5625.355469 7.746094 3.449219 1.078125 2.800781 25.941406 68.992187-11.976563 99.421875-1.105469.886719-2.433593 1.320312-3.75 1.320312zm0 0" fill="#e58d23"/><path d="m211.398438 316.136719c-2.613282 0-5.019532-1.722657-5.769532-4.359375l-9.570312-33.601563c-.90625-3.1875.941406-6.507812 4.128906-7.414062 3.191406-.90625 6.507812.9375 7.414062 4.125l9.566407 33.605469c.910156 3.1875-.9375 6.503906-4.125 7.414062-.550781.15625-1.101563.230469-1.644531.230469zm0 0" fill="#e58d23"/><path d="m99.835938 387.511719c0 11.296875-9.15625 20.457031-20.453126 20.457031-11.296874 0-20.457031-9.160156-20.457031-20.457031s9.160157-20.453125 20.457031-20.453125c11.296876 0 20.453126 9.15625 20.453126 20.453125zm0 0" fill="#a56021"/><path d="m138.328125 437.957031c0 11.296875-9.15625 20.453125-20.453125 20.453125s-20.457031-9.15625-20.457031-20.453125 9.160156-20.457031 20.457031-20.457031 20.453125 9.160156 20.453125 20.457031zm0 0" fill="#a56021"/><path d="m145.390625 48.46875c0 11.296875-9.15625 20.457031-20.453125 20.457031s-20.453125-9.160156-20.453125-20.457031 9.15625-20.453125 20.453125-20.453125 20.453125 9.15625 20.453125 20.453125zm0 0" fill="#ffc34c"/></svg>