<svg height="474pt" viewBox="-80 0 474 474.802" width="474pt" xmlns="http://www.w3.org/2000/svg"><path d="m192.554688 449.664062c59.289062-141.644531-2.097657-266.5-2.097657-266.5l-46.859375-96.757812v-72.855469h-68.421875v72.855469l-46.863281 96.757812s-61.382812 124.855469-2.09375 266.5v1.648438c0 3.503906.753906 6.828125 2.09375 9.816406v.117188h.054688c3.644531 8.007812 11.550781 13.554687 20.726562 13.554687h120.589844c9.171875 0 17.078125-5.546875 20.722656-13.554687h.054688v-.117188c1.339843-2.988281 2.09375-6.3125 2.09375-9.816406zm0 0" fill="#eacf32"/><path d="m164.464844 225.539062c0-31.238281-24.660156-56.5625-55.078125-56.5625s-55.078125 25.324219-55.078125 56.5625c0 31.238282 24.660156 56.5625 55.078125 56.5625s55.078125-25.324218 55.078125-56.5625zm0 0" fill="#fcf9de"/><path d="m198.371094 202.75h-177.972656s-13.878907 38.550781-13.878907 52.039062h205.734375c0-13.488281-13.882812-52.039062-13.882812-52.039062zm0 0" fill="#fcf9de"/><path d="m123.089844 321.226562c-3.648438 0-6.53125 3.085938-6.28125 6.722657 2.238281 32.449219 10.828125 97.9375 43.753906 132.878906h.582031c1.992188 7.761719 9.011719 13.503906 17.390625 13.503906h73.8125c8.382813 0 15.402344-5.742187 17.390625-13.503906h.585938c32.925781-34.9375 41.515625-100.429687 43.753906-132.878906.25-3.636719-2.632813-6.722657-6.28125-6.722657zm0 0" fill="#fff4c1"/><path d="m70.347656 461.246094h-.054687v-.117188c-1.339844-2.988281-2.09375-6.3125-2.09375-9.816406v-1.652344c-59.289063-141.640625 2.09375-266.496094 2.09375-266.496094l46.863281-96.761718v-72.851563h-41.980469v72.855469l-46.863281 96.757812s-61.382812 124.855469-2.09375 266.5v1.648438c0 3.503906.753906 6.828125 2.09375 9.816406v.117188h.054688c3.644531 8.007812 11.550781 13.554687 20.726562 13.554687h41.976562c-9.171874 0-17.078124-5.546875-20.722656-13.554687zm0 0" fill="#ccc033"/><path d="m20.402344 202.75c-4.40625 12.394531-9.804688 30.199219-13.882813 52.039062h41.980469c4.078125-21.839843 9.476562-39.644531 13.878906-52.039062zm0 0" fill="#fff4c1"/><path d="m54.308594 225.539062c0 1.042969.03125 2.078126.085937 3.105469 5.144531-19.394531 10.640625-33.441406 13.632813-40.4375-8.53125 9.960938-13.71875 23.019531-13.71875 37.332031zm0 0" fill="#fff4c1"/><path d="m156.492188 65.773438h-94.210938c-5.523438 0-10-4.476563-10-10v-45.773438c0-5.523438 4.476562-10 10-10h94.210938c5.523437 0 10 4.476562 10 10v45.773438c0 5.523437-4.476563 10-10 10zm0 0" fill="#ccc033"/><path d="m94.261719 56.53125v-47.292969c0-5.101562 4.699219-9.238281 10.496093-9.238281h-41.980468c-5.796875 0-10.496094 4.136719-10.496094 9.238281v47.292969c0 5.105469 4.699219 9.242188 10.496094 9.242188h41.980468c-5.796874 0-10.496093-4.136719-10.496093-9.242188zm0 0" fill="#99af17"/><path d="m203.125 460.828125h-.585938c-32.925781-34.9375-41.515624-100.429687-43.753906-132.878906-.25-3.636719 2.636719-6.722657 6.285156-6.722657h-41.980468c-3.648438 0-6.535156 3.085938-6.28125 6.722657 2.238281 32.449219 10.824218 97.9375 43.753906 132.878906h.582031c1.992188 7.761719 9.011719 13.503906 17.390625 13.503906h41.980469c-8.382813 0-15.402344-5.742187-17.390625-13.503906zm0 0" fill="#fce575"/><path d="m178.535156 458.589844c-1.175781 0-1.933594-.867188-2.140625-1.671875l-3.035156-11.832031h-5.625c-23.523437-29.464844-31.621094-79.554688-34.382813-108.117188h164.179688c-2.761719 28.5625-10.855469 78.652344-34.382812 108.117188h-5.625l-3.035157 11.832031c-.207031.804687-.964843 1.671875-2.140625 1.671875zm0 0" fill="#fcf9de"/><path d="m159.515625 336.96875h-26.164063c2.761719 28.5625 10.859376 78.652344 34.382813 108.117188h5.625l3.035156 11.832031c.207031.804687.964844 1.671875 2.140625 1.671875h22c-28.53125-32.339844-37.929687-87.988282-41.019531-121.621094zm0 0" fill="#fff4c1"/><path d="m150.289062 58.164062c-3.3125 0-6-2.6875-6-6v-38.613281c0-3.3125 2.6875-6 6-6s6 2.6875 6 6v38.613281c0 3.3125-2.6875 6-6 6zm0 0" fill="#eacf32"/><path d="m246.84375 441.984375c-1.726562 0-3.4375-.738281-4.625-2.171875-2.113281-2.550781-1.757812-6.332031.792969-8.445312 16.277343-13.488282 28.269531-61.515626 31.515625-78.882813.605468-3.257813 3.738281-5.402344 7-4.796875 3.253906.609375 5.402344 3.746094 4.792968 7-.507812 2.726562-12.730468 66.929688-35.652343 85.917969-1.121094.929687-2.476563 1.378906-3.824219 1.378906zm0 0" fill="#fff4c1"/><path d="m170.226562 194.207031c-3.21875 0-5.882812-2.550781-5.992187-5.792969-.8125-23.511718-28.214844-67.976562-28.492187-68.421874-1.746094-2.816407-.875-6.515626 1.941406-8.261719 2.816406-1.746094 6.515625-.875 8.261718 1.941406 1.195313 1.933594 29.359376 47.660156 30.28125 74.328125.113282 3.3125-2.480468 6.089844-5.789062 6.203125-.074219.003906-.140625.003906-.210938.003906zm0 0" fill="#fce575"/><path d="m120.496094 433.304688c0 8.695312-7.046875 15.742187-15.738282 15.742187-8.695312 0-15.742187-7.046875-15.742187-15.742187 0-8.695313 7.046875-15.742188 15.742187-15.742188 8.691407 0 15.738282 7.046875 15.738282 15.742188zm0 0" fill="#ccc033"/><path d="m95.789062 387.769531c0 8.695313-7.046874 15.742188-15.742187 15.742188s-15.742187-7.046875-15.742187-15.742188c0-8.695312 7.046874-15.742187 15.742187-15.742187s15.742187 7.046875 15.742187 15.742187zm0 0" fill="#ccc033"/><path d="m202.289062 362.453125c0 8.695313-7.050781 15.742187-15.742187 15.742187-8.695313 0-15.742187-7.046874-15.742187-15.742187 0-8.691406 7.046874-15.738281 15.742187-15.738281 8.691406 0 15.742187 7.046875 15.742187 15.738281zm0 0" fill="#fff4c1"/></svg>