<svg height="463pt" viewBox="-66 0 463 463.269" width="463pt" xmlns="http://www.w3.org/2000/svg"><path d="m291.453125 140.839844c1.632813 2.894531 2.574219 6.234375 2.574219 9.796875v186.675781c0 11.046875-8.953125 20-20 20h-44.027344v24.285156h63.316406c13.804688 0 25-11.191406 25-25v-215.757812zm0 0" fill="#8c4c17"/><path d="m306.316406 118.351562h-63.316406v24.285157h44.027344c11.046875 0 20 8.957031 20 20v186.675781c0 11.046875-8.953125 20-20 20h-44.027344v24.285156h63.316406c13.804688 0 25-11.191406 25-25v-225.246094c0-13.808593-11.195312-25-25-25zm0 0" fill="#e58d23"/><path d="m287.027344 369.3125h-44.027344v24.285156h54.285156v-27.140625c-3 1.800781-6.5 2.855469-10.257812 2.855469zm0 0" fill="#bf6c0d"/><path d="m287.027344 142.636719c3.753906 0 7.257812 1.054687 10.257812 2.855469v-19.140626c0-4.417968-3.582031-8-8-8h-46.285156v24.289063h44.027344zm0 0" fill="#bf6c0d"/><path d="m72.257812 193.101562h-2.699218c-38.34375 0-69.425782-31.082031-69.425782-69.425781v-1.324219c0-2.210937 1.792969-4 4-4h68.125zm0 0" fill="#ffeacf"/><path d="m21.703125 118.351562h-17.570313c-2.207031 0-4 1.789063-4 4v1.324219c0 38.34375 31.082032 69.425781 69.425782 69.425781h2.699218v-22.175781c-25.308593-6.492187-45.027343-26.894531-50.554687-52.574219zm0 0" fill="#ffd59a"/><path d="m267.285156 393.597656h-203.121094v-275.246094h195.121094c4.417969 0 8 3.582032 8 8zm0 0" fill="#ffeacf"/><path d="m232.285156 463.269531h-133.121094c-19.332031 0-35-15.671875-35-35v-34.671875h203.121094v34.671875c0 19.328125-15.667968 35-35 35zm0 0" fill="#a56021"/><path d="m153.929688 30.035156h23.585937v342.246094h-23.585937zm0 0" fill="#db9c2e"/><path d="m153.929688 30.035156h13v342.246094h-13zm0 0" fill="#bf6c0d"/><path d="m132.480469 10c0 3.558594.652343 7.089844 1.925781 10.410156l9.097656 23.773438c1.1875 3.09375 4.15625 5.136718 7.472656 5.136718h29.496094c3.316406 0 6.285156-2.042968 7.472656-5.136718l9.097657-23.773438c1.273437-3.320312 1.925781-6.851562 1.925781-10.410156 0-5.523438-4.476562-10-10-10h-46.488281c-5.523438 0-10 4.476562-10 10zm0 0" fill="#ffd551"/><path d="m163.503906 44.183594-9.097656-23.773438c-1.273438-3.320312-1.925781-6.851562-1.925781-10.410156 0-5.523438 4.476562-10 10-10h-20c-5.523438 0-10 4.476562-10 10 0 3.558594.652343 7.089844 1.925781 10.410156l9.097656 23.773438c1.1875 3.09375 4.15625 5.136718 7.472656 5.136718h20c-3.316406 0-6.285156-2.042968-7.472656-5.136718zm0 0" fill="#f9bb32"/><path d="m64.164062 118.351562h50v275.246094h-50zm0 0" fill="#ffd59a"/><path d="m246.039062 383.074219h-161.609374c-4.417969 0-8-3.582031-8-8v-5.585938c0-4.417969 3.582031-8 8-8h161.609374c4.417969 0 8 3.582031 8 8v5.585938c0 4.417969-3.582031 8-8 8zm0 0" fill="#f9bb32"/><path d="m116.429688 378.488281c0-4.417969 3.582031-8 8-8h129.609374v-1c0-4.417969-3.582031-8-8-8h-161.609374c-4.417969 0-8 3.582031-8 8v5.585938c0 4.417969 3.582031 8 8 8h32zm0 0" fill="#db9c2e"/><path d="m114.164062 428.269531v-34.671875h-50v34.671875c0 19.328125 15.667969 35 35 35h50c-19.332031 0-35-15.671875-35-35zm0 0" fill="#8c4c17"/><path d="m259.285156 118.351562h-187.121094c-4.417968 0-8-3.582031-8-8v-12.046874c0-16.566407 13.429688-30 30-30h143.121094c16.570313 0 30 13.433593 30 30v12.046874c0 4.417969-3.582031 8-8 8zm0 0" fill="#e58d23"/><path d="m122.164062 103.351562c-4.417968 0-8-3.582031-8-8v-12.046874c0-5.464844 1.46875-10.585938 4.019532-15h-24.019532c-16.570312 0-30 13.433593-30 30v12.046874c0 4.417969 3.582032 8 8 8h187.121094c4.417969 0 8-3.582031 8-8v-7zm0 0" fill="#bf6c0d"/><path d="m243 176.101562c-3.3125 0-6-2.6875-6-6v-15.464843c0-3.316407 2.6875-6 6-6s6 2.683593 6 6v15.464843c0 3.3125-2.6875 6-6 6zm0 0" fill="#fcf9de"/><path d="m243 368.28125c-3.3125 0-6-2.6875-6-6v-166.261719c0-3.3125 2.6875-6 6-6s6 2.6875 6 6v166.261719c0 3.3125-2.6875 6-6 6zm0 0" fill="#fcf9de"/><path d="m319.390625 290.183594c-3.3125 0-6-2.6875-6-6v-106.546875c0-3.316407 2.6875-6 6-6s6 2.683593 6 6v106.546875c0 3.3125-2.6875 6-6 6zm0 0" fill="#ffa730"/><path d="m252.71875 103.328125c-3.226562 0-5.890625-2.5625-5.992188-5.8125-.3125-10.050781-10.328124-11.769531-11.46875-11.933594-3.261718-.464843-5.5625-3.480469-5.121093-6.746093.4375-3.265626 3.402343-5.570313 6.675781-5.152344 7.355469.933594 21.394531 7.039062 21.910156 23.457031.101563 3.3125-2.5 6.082031-5.8125 6.183594-.0625.003906-.125.003906-.191406.003906zm0 0" fill="#ffa730"/><path d="m178.726562 41.636719c-.507812 0-1.023437-.066407-1.535156-.203125-3.203125-.847656-5.113281-4.128906-4.265625-7.335938l6-22.664062c.847657-3.207032 4.132813-5.113282 7.332031-4.265625 3.203126.847656 5.113282 4.132812 4.265626 7.335937l-6 22.667969c-.710938 2.6875-3.140626 4.464844-5.796876 4.464844zm0 0" fill="#ffdf74"/><path d="m220.789062 446.074219c-3.375 0-7.035156-.300781-10.972656-.902344-3.273437-.5-5.523437-3.5625-5.023437-6.835937.5-3.277344 3.566406-5.523438 6.835937-5.023438 11.585938 1.769531 19.574219.511719 23.105469-3.632812 4.234375-4.96875 1.667969-13.789063 1.640625-13.875-1.011719-3.15625.722656-6.535157 3.878906-7.546876 3.15625-1.015624 6.535156.722657 7.546875 3.878907.195313.613281 4.730469 15.167969-3.933593 25.328125-4.882813 5.730468-12.625 8.609375-23.078126 8.609375zm0 0" fill="#bf6c0d"/><path d="m218.757812 326.882812c0 8.285157-6.714843 15-15 15-8.285156 0-15-6.714843-15-15 0-8.28125 6.714844-15 15-15 8.285157 0 15 6.71875 15 15zm0 0" fill="#ffd59a"/><path d="m149.046875 148.820312c0 8.285157-6.714844 15-15 15s-15-6.714843-15-15c0-8.28125 6.714844-15 15-15s15 6.71875 15 15zm0 0" fill="#ffd59a"/><path d="m157.140625 429.808594c0 8.285156-6.714844 15-15 15-8.28125 0-15-6.714844-15-15s6.71875-15 15-15c8.285156 0 15 6.714844 15 15zm0 0" fill="#8c4c17"/></svg>