<svg height="477pt" viewBox="-89 0 477 477.333" width="477pt" xmlns="http://www.w3.org/2000/svg"><path d="m121.535156 418.574219c-7.460937 0-13.507812-6.046875-13.507812-13.507813v-391.558594c0-7.460937 6.046875-13.507812 13.507812-13.507812 7.460938 0 13.507813 6.046875 13.507813 13.507812v391.558594c0 7.457032-6.046875 13.507813-13.507813 13.507813zm0 0" fill="#ff9079"/><path d="m122.246094 405.066406v-391.558594c0-4.847656 2.5625-9.085937 6.398437-11.46875-2.066406-1.285156-4.496093-2.039062-7.109375-2.039062-7.460937 0-13.507812 6.046875-13.507812 13.507812v391.558594c0 7.460938 6.046875 13.507813 13.507812 13.507813 2.613282 0 5.042969-.753907 7.109375-2.039063-3.835937-2.382812-6.398437-6.621094-6.398437-11.46875zm0 0" fill="#ff624b"/><path d="m258.175781 280.703125v72.167969c0 8.980468-9.121093 16.261718-20.371093 16.261718h-35.644532v-88.429687h-30.550781v118.574219h96.75c11.25 0 20.367187-7.28125 20.367187-16.261719v-102.3125zm0 0" fill="#ffc34c"/><path d="m278.785156 249.929688h-96.75v168.304687h96.75c11.25 0 20.367188-7.28125 20.367188-16.261719v-135.78125c0-8.980468-9.117188-16.261718-20.367188-16.261718zm-10.183594 121.898437c0 8.980469-9.117187 16.261719-20.367187 16.261719h-35.644531v-108.015625h35.644531c11.25 0 20.367187 7.28125 20.367187 16.261719zm0 0" fill="#fff4c1"/><path d="m269.261719 249.929688h-87.226563v168.304687h87.226563zm-21.027344 138.160156h-35.648437v-108.015625h35.648437c11.246094 0 20.367187 7.28125 20.367187 16.261719v75.492187c0 8.980469-9.121093 16.261719-20.367187 16.261719zm0 0" fill="#ffdf74"/><path d="m216.070312 201.054688h-3.570312c3.253906-1.503907 5.515625-4.785157 5.515625-8.601563v-6.765625c0-4.085938-2.59375-7.558594-6.21875-8.890625 3.625-1.328125 6.21875-4.800781 6.21875-8.890625v-6.761719c0-5.238281-4.242187-9.480469-9.480469-9.480469h-185.558594c-5.234374 0-9.476562 4.242188-9.476562 9.480469v6.761719c0 4.089844 2.589844 7.5625 6.21875 8.890625-3.628906 1.332031-6.21875 4.804687-6.21875 8.890625v6.765625c0 3.816406 2.261719 7.097656 5.511719 8.601563h-3.570313c-8.4375 0-15.273437 6.382812-15.273437 14.257812v233.5c0 15.75 13.675781 28.519531 30.550781 28.519531h170.074219c16.875 0 30.550781-12.769531 30.550781-28.519531v-233.496094c.003906-7.878906-6.835938-14.261718-15.273438-14.261718zm0 0" fill="#fff4c1"/><path d="m38.082031 448.8125v-233.496094c0-7.878906 6.839844-14.261718 15.277344-14.261718h3.570313c-3.253907-1.5-5.515626-4.785157-5.515626-8.601563v-6.761719c0-4.089844 2.59375-7.5625 6.21875-8.890625-3.625-1.332031-6.21875-4.804687-6.21875-8.894531v-6.761719c0-5.234375 4.246094-9.480469 9.480469-9.480469h-37.914062c-5.234375 0-9.480469 4.246094-9.480469 9.480469v6.761719c0 4.089844 2.59375 7.5625 6.21875 8.894531-3.625 1.328125-6.21875 4.800781-6.21875 8.890625v6.761719c0 3.816406 2.261719 7.101563 5.515625 8.601563h-3.570313c-8.4375 0-15.277343 6.386718-15.277343 14.261718v233.496094c0 15.75 13.679687 28.519531 30.550781 28.519531h37.914062c-16.871093.003907-30.550781-12.769531-30.550781-28.519531zm0 0" fill="#ffdf74"/><path d="m202.914062 224.75c-2.730468 0-4.945312-2.210938-4.945312-4.941406v-6.847656h-164.421875v6.847656c0 2.730468-2.214844 4.941406-4.945313 4.941406-2.613281 0-4.738281 2.121094-4.738281 4.738281v219.324219c0 2.28125 2.816407 4.824219 6.855469 4.824219h170.078125c4.039063 0 6.855469-2.542969 6.855469-4.824219v-219.324219c0-2.617187-2.121094-4.738281-4.738282-4.738281zm0 0" fill="#bf6c0d"/><path d="m71.460938 149.683594h126.507812v63.277344h-126.507812zm0 0" fill="#ffb74b"/><path d="m33.546875 219.808594c0 2.730468-2.214844 4.941406-4.945313 4.941406-2.613281 0-4.738281 2.121094-4.738281 4.738281v219.324219c0 2.28125 2.816407 4.824219 6.855469 4.824219h37.914062c-4.039062 0-6.855468-2.542969-6.855468-4.824219v-219.324219c0-2.617187 2.125-4.738281 4.738281-4.738281 2.730469 0 4.945313-2.210938 4.945313-4.941406v-6.847656h-37.914063zm0 0" fill="#a56021"/><path d="m173.511719 128.476562c1-3.375 1.535156-6.914062 1.535156-10.570312 0-22.800781-20.730469-41.285156-46.308594-41.285156s-46.3125 18.484375-46.3125 41.285156c0 .261719.019531.515625.023438.773438-.007813 0-.015625 0-.023438 0-5.316406 0-10.417969.808593-15.171875 2.28125-6.28125-6.746094-15.757812-11.046876-26.359375-11.046876-18.910156 0-34.242187 13.667969-34.242187 30.527344 0 2.042969.230468 4.039063.660156 5.972656v39.636719c0 7.796875 6.753906 14.113281 15.082031 14.113281s15.082031-6.316406 15.082031-14.113281v-15.234375c.089844.007813.183594.011719.273438.019532 5.351562 17.527343 23.320312 30.417968 44.675781 30.417968 14.921875 0 28.183594-6.296875 36.652344-16.0625 7.242187 14.382813 23.433594 24.40625 42.261719 24.40625 25.578125 0 46.3125-18.484375 46.3125-41.285156 0-19.046875-14.472656-35.070312-34.140625-39.835938zm0 0" fill="#ffd59a"/><path d="m16.550781 161.113281c-.429687-1.933593-.660156-3.929687-.660156-5.972656 0-16.859375 15.332031-30.527344 34.242187-30.527344 10.605469 0 20.078126 4.296875 26.359376 11.042969 4.757812-1.46875 9.855468-2.277344 15.171874-2.277344h.023438c-.003906-.257812-.023438-.515625-.023438-.773437 0-22.800781 20.734376-41.289063 46.3125-41.289063 13.960938 0 26.46875 5.515625 34.957032 14.226563-5.894532-16.761719-23.449219-28.921875-44.195313-28.921875-25.578125 0-46.3125 18.484375-46.3125 41.285156 0 .261719.019531.515625.023438.773438-.007813 0-.015625 0-.023438 0-5.3125 0-10.414062.808593-15.171875 2.28125-6.28125-6.746094-15.753906-11.046876-26.359375-11.046876-18.910156 0-34.238281 13.667969-34.238281 30.527344 0 2.042969.226562 4.039063.660156 5.972656v39.636719c0 5.855469 3.808594 10.878907 9.234375 13.015625zm0 0" fill="#ffc34c"/><path d="m103.542969 234.414062h-1.046875c-8.039063 0-14.558594-6.515624-14.558594-14.558593v-48.355469h30.164062v48.355469c0 8.042969-6.515624 14.558593-14.558593 14.558593zm0 0" fill="#ffd59a"/><path d="m71.117188 168.1875h-39.738282v77.296875c0 9.957031 8.894532 18.027344 19.867188 18.027344 10.976562 0 19.871094-8.070313 19.871094-18.027344zm0 0" fill="#ffd59a"/><path d="m192.3125 279.621094c-3.3125 0-6-2.6875-6-6v-20.21875c0-3.3125 2.6875-6 6-6s6 2.6875 6 6v20.21875c0 3.316406-2.683594 6-6 6zm0 0" fill="#ffa730"/><path d="m192.3125 431.910156c-3.3125 0-6-2.6875-6-6v-129.539062c0-3.3125 2.6875-6 6-6s6 2.6875 6 6v129.539062c0 3.3125-2.683594 6-6 6zm0 0" fill="#ffa730"/><path d="m99.382812 382.511719c0 7.851562-6.363281 14.21875-14.21875 14.21875-7.851562 0-14.214843-6.367188-14.214843-14.21875 0-7.851563 6.363281-14.21875 14.214843-14.21875 7.855469 0 14.21875 6.367187 14.21875 14.21875zm0 0" fill="#a56021"/><path d="m127.238281 422.964844c0 7.851562-6.367187 14.21875-14.21875 14.21875-7.851562 0-14.21875-6.367188-14.21875-14.21875 0-7.851563 6.367188-14.21875 14.21875-14.21875 7.851563 0 14.21875 6.367187 14.21875 14.21875zm0 0" fill="#a56021"/><path d="m286.320312 365.003906c-3.316406 0-6-2.6875-6-6v-62.632812c0-3.3125 2.683594-6 6-6 3.3125 0 6 2.6875 6 6v62.632812c0 3.3125-2.6875 6-6 6zm0 0" fill="#fcf9de"/><path d="m60.277344 151.664062c0 7.851563-6.367188 14.21875-14.21875 14.21875-7.851563 0-14.21875-6.367187-14.21875-14.21875 0-7.851562 6.367187-14.21875 14.21875-14.21875 7.851562 0 14.21875 6.367188 14.21875 14.21875zm0 0" fill="#ffc34c"/></svg>