<svg height="478pt" viewBox="-55 0 478 478.43" width="478pt" xmlns="http://www.w3.org/2000/svg"><path d="m266.28125 48.496094c9.785156 13.25 5.015625 35.4375-11.273438 50.65625-16.941406 15.828125-39.921874 18.109375-51.328124 5.101562-11.40625-13.011718-6.914063-36.390625 10.027343-52.214844 1.363281-1.273437 2.765625-2.445312 4.195313-3.542968h-28.878906c-5.664063 8.15625-9.59375 17.226562-11.382813 26.527344-3.160156 16.449218.707031 32.359374 10.601563 43.648437 9.898437 11.289063 24.847656 16.84375 41.019531 15.234375 14.121093-1.402344 28.226562-8.085938 39.714843-18.820312 11.492188-10.734376 19.339844-24.554688 22.097657-38.921876 1.863281-9.691406 1.269531-19.1875-1.542969-27.667968zm0 0" fill="#ff4b34"/><path d="m290.472656 42.515625c-9.894531-11.289063-24.84375-16.84375-41.019531-15.234375-14.117187 1.402344-28.222656 8.085938-39.714844 18.820312-11.488281 10.734376-19.335937 24.558594-22.09375 38.921876-3.160156 16.449218.703125 32.359374 10.597657 43.648437 9.898437 11.292969 24.851562 16.84375 41.023437 15.234375 14.117187-1.402344 28.222656-8.085938 39.714844-18.820312 11.488281-10.734376 19.335937-24.554688 22.09375-38.917969 3.160156-16.453125-.703125-32.363281-10.601563-43.652344zm-25.464844 66.636719c-16.941406 15.828125-39.921874 18.113281-51.328124 5.101562-11.40625-13.011718-6.914063-36.386718 10.027343-52.214844 16.945313-15.828124 39.925781-18.113281 51.328125-5.101562 11.40625 13.007812 6.917969 36.386719-10.027344 52.214844zm0 0" fill="#ffc34c"/><path d="m290.472656 42.515625c-9.894531-11.289063-24.84375-16.84375-41.019531-15.234375-14.117187 1.402344-28.222656 8.085938-39.714844 18.820312-11.488281 10.734376-19.335937 24.558594-22.09375 38.921876-3.160156 16.449218.703125 32.359374 10.597657 43.648437 9.898437 11.292969 24.851562 16.84375 41.023437 15.234375 14.117187-1.402344 28.222656-8.085938 39.714844-18.820312 11.488281-10.734376 19.335937-24.554688 22.09375-38.917969 3.160156-16.453125-.703125-32.363281-10.601563-43.652344zm-25.464844 66.636719c-16.941406 15.828125-39.921874 18.113281-51.328124 5.101562-11.40625-13.011718-6.914063-36.386718 10.027343-52.214844 16.945313-15.828124 39.925781-18.113281 51.328125-5.101562 11.40625 13.007812 6.917969 36.386719-10.027344 52.214844zm0 0" fill="#ff9079"/><path d="m213.679688 114.253906c-11.40625-13.011718-6.914063-36.390625 10.027343-52.214844 12.824219-11.980468 29.105469-16.195312 41.210938-11.898437l6.355469-20.433594c-6.726563-2.320312-14.128907-3.191406-21.820313-2.429687-14.117187 1.40625-28.222656 8.089844-39.714844 18.824218-11.488281 10.734376-19.335937 24.554688-22.09375 38.917969-3.160156 16.453125.703125 32.363281 10.597657 43.652344 9.164062 10.453125 22.664062 15.976563 37.449218 15.464844l7.015625-22.5625c-11.304687 2.753906-22.226562.4375-29.027343-7.320313zm0 0" fill="#ff624b"/><path d="m328.589844 224.070312v109.515626c0 2.617187-2.125 4.742187-4.742188 4.742187h-27.230468c-2.132813 0-4.011719-1.4375-4.574219-3.496094l-27.484375-100.898437c-1.429688-3.304688-1.621094-6.730469-.859375-9.863282h-63.105469v13.601563h35.550781l6.632813 24.523437 21.824218 80.113282c3.921876 14.402344 17.089844 24.464844 32.015626 24.464844h27.230468c18.296875 0 33.183594-14.886719 33.183594-33.1875v-109.515626zm0 0" fill="#8c4c17"/><path d="m335.847656 194.628906h-123.253906v54.042969h35.550781l6.632813 24.523437 21.824218 80.113282c3.921876 14.40625 17.089844 24.464844 32.015626 24.464844h27.230468c18.296875 0 33.183594-14.886719 33.183594-33.183594v-116.777344c0-18.296875-14.886719-33.183594-33.183594-33.183594zm4.742188 149.957032c0 2.617187-2.125 4.742187-4.742188 4.742187h-27.230468c-2.132813 0-4.011719-1.4375-4.574219-3.492187l-27.484375-100.902344c-4.464844-10.332032 3.109375-21.863282 14.367187-21.863282h44.921875c2.617188 0 4.742188 2.125 4.742188 4.742188zm0 0" fill="#a56021"/><path d="m335.847656 194.628906h-123.253906v54.042969h35.550781l6.632813 24.523437 21.824218 80.113282c3.921876 14.40625 17.089844 24.464844 32.015626 24.464844h27.230468c18.296875 0 33.183594-14.886719 33.183594-33.183594v-116.777344c0-18.296875-14.886719-33.183594-33.183594-33.183594zm4.742188 149.957032c0 2.617187-2.125 4.742187-4.742188 4.742187h-27.230468c-2.132813 0-4.011719-1.4375-4.574219-3.492187l-27.484375-100.902344c-4.464844-10.332032 3.109375-21.863282 14.367187-21.863282h44.921875c2.617188 0 4.742188 2.125 4.742188 4.742188zm0 0" fill="#bf6c0d"/><path d="m314.109375 366.890625-4.367187-17.5625h-1.125c-2.132813 0-4.011719-1.4375-4.574219-3.496094l-26.46875-97.160156-1.015625-3.738281c-4.464844-10.332032 3.109375-21.863282 14.367187-21.863282h23.789063v-28.441406h-102.121094v54.042969h35.554688l6.628906 24.523437 21.824218 80.113282c3.921876 14.402344 17.089844 24.464844 32.015626 24.464844h7.9375c-.730469-3.644532-1.546876-7.273438-2.445313-10.882813zm0 0" fill="#a56021"/><path d="m200.78125 159.914062h-129.972656l-46.667969-150.074218c-1.519531-4.882813 2.128906-9.839844 7.242187-9.839844h208.828126c5.113281 0 8.761718 4.957031 7.242187 9.839844zm0 0" fill="#ff624b"/><path d="m32.449219 179.773438h202.265625v68.898437h-202.265625zm0 0" fill="#bf6c0d"/><path d="m234.714844 248.671875h-202.265625l-26.5625 121.484375c-3.769531 17.246094-5.671875 34.851562-5.671875 52.503906v3.542969c0 18.246094 6.992187 34.851563 18.4375 47.300781 7.085937 3.140625 15.101562 4.925782 23.59375 4.925782h187.097656c8.496094 0 16.507812-1.78125 23.59375-4.925782 11.445312-12.449218 18.4375-29.054687 18.4375-47.300781 0-19.992187-2.4375-39.910156-7.265625-59.3125zm0 0" fill="#ffeacf"/><path d="m263.375 183.25h-255.160156c-4.417969 0-8-3.582031-8-8v-8.019531c0-4.417969 3.582031-8 8-8h255.160156c4.417969 0 8 3.582031 8 8v8.019531c0 4.417969-3.582031 8-8 8zm0 0" fill="#ff9079"/><path d="m71.382812 0h-40c-5.113281 0-8.761718 4.953125-7.246093 9.839844l46.671875 150.074218h40l-46.667969-150.074218c-1.519531-4.886719 2.128906-9.839844 7.242187-9.839844zm0 0" fill="#ff4b34"/><path d="m40.214844 178.230469c0-4.417969 3.582031-8 8-8h223.160156v-3c0-4.417969-3.582031-8-8-8h-255.160156c-4.417969 0-8 3.582031-8 8v8.019531c0 4.421875 3.582031 8 8 8h32zm0 0" fill="#ff624b"/><path d="m80.449219 199.773438h154.265625v-20h-202.265625v68.898437h40v-40.898437c0-4.417969 3.582031-8 8-8zm0 0" fill="#a56021"/><path d="m43.214844 426.203125v-3.542969c0-17.652344 1.902344-35.257812 5.671875-52.503906l26.5625-121.484375h-43l-26.5625 121.484375c-3.769531 17.246094-5.671875 34.851562-5.671875 52.503906v3.542969c0 18.246094 6.992187 34.851563 18.4375 47.300781 7.085937 3.144532 15.101562 4.925782 23.59375 4.925782h43c-8.492188 0-16.507813-1.78125-23.59375-4.925782-11.445313-12.449218-18.4375-29.054687-18.4375-47.300781zm0 0" fill="#ffd59a"/><path d="m232.160156 325.714844h-194.761718c-3.757813 0-7.011719 2.617187-7.8125 6.292968l-9.042969 41.351563c-3.542969 16.195313-5.328125 32.726563-5.328125 49.304687v3.539063c0 12.730469 4.375 24.941406 12.386718 34.734375 4.625 1.65625 9.539063 2.492188 14.644532 2.492188h187.097656c5.105469 0 10.019531-.835938 14.644531-2.492188 8.007813-9.792969 12.386719-22.003906 12.386719-34.734375 0-18.753906-2.296875-37.492187-6.820312-55.695313l-9.628907-38.722656c-.886719-3.566406-4.089843-6.070312-7.765625-6.070312zm0 0" fill="#a56021"/><path d="m48.886719 370.15625 9.71875-44.441406h-21.207031c-3.757813 0-7.011719 2.617187-7.8125 6.292968l-9.042969 41.351563c-3.542969 16.195313-5.328125 32.726563-5.328125 49.304687v3.539063c0 12.730469 4.375 24.941406 12.386718 34.734375 4.625 1.65625 9.539063 2.492188 14.644532 2.492188h11.699218c-6.796874-10.777344-10.730468-23.542969-10.730468-37.226563v-3.542969c0-17.652344 1.902344-35.257812 5.671875-52.503906zm0 0" fill="#8c4c17"/><path d="m215.839844 452.925781c-2.484375 0-4.808594-1.558593-5.667969-4.035156-1.085937-3.128906.570313-6.550781 3.699219-7.636719 14.953125-5.191406 21.164062-22.484375 18.464844-51.398437-2.171876-23.242188-9.628907-45.128907-9.703126-45.347657-1.078124-3.132812.585938-6.546874 3.71875-7.625 3.136719-1.082031 6.546876.585938 7.625 3.71875 1.335938 3.878907 32.183594 95.207032-16.171874 111.988282-.648438.226562-1.3125.335937-1.964844.335937zm0 0" fill="#ffd59a"/><path d="m106.621094 239.214844c-3.257813 0-5.929688-2.609375-5.996094-5.878906-.066406-3.3125 2.566406-6.054688 5.878906-6.121094l105.96875-2.113282c3.269532-.039062 6.050782 2.566407 6.117188 5.878907s-2.566406 6.050781-5.878906 6.121093l-105.96875 2.113282c-.039063 0-.082032 0-.121094 0zm0 0" fill="#e58d23"/><path d="m357.03125 308.578125c-3.3125 0-6-2.6875-6-6v-55.921875c0-3.3125 2.6875-6 6-6s6 2.6875 6 6v55.921875c0 3.3125-2.6875 6-6 6zm0 0" fill="#e58d23"/><path d="m184.625 140.183594c-.550781 0-1.109375-.078125-1.664062-.238282-3.183594-.914062-5.019532-4.242187-4.105469-7.425781l27.96875-97.03125c.917969-3.183593 4.242187-5.019531 7.429687-4.101562 3.183594.917969 5.019532 4.242187 4.101563 7.425781l-27.96875 97.03125c-.757813 2.628906-3.15625 4.339844-5.761719 4.339844zm0 0" fill="#ff9079"/><path d="m97.179688 419.214844c0 11.414062-9.25 20.667968-20.664063 20.667968s-20.667969-9.253906-20.667969-20.667968c0-11.414063 9.253906-20.667969 20.667969-20.667969s20.664063 9.253906 20.664063 20.667969zm0 0" fill="#8c4c17"/><path d="m220.761719 319.300781c-2.667969 0-5.105469-1.792969-5.800781-4.496093l-9.261719-35.789063c-.828125-3.207031 1.101562-6.480469 4.308593-7.3125 3.207032-.832031 6.480469 1.097656 7.3125 4.308594l9.257813 35.785156c.828125 3.207031-1.097656 6.480469-4.308594 7.3125-.503906.128906-1.007812.191406-1.507812.191406zm0 0" fill="#fcf9de"/></svg>