<svg height="373pt" viewBox="0 -28 373.13048 373" width="373pt" xmlns="http://www.w3.org/2000/svg"><path d="m320.921875 97.941406c9.5625 12.101563 13.730469 28.074219 11.714844 45.09375-2.179688 18.359375-11.152344 35.601563-25.261719 48.550782-13.726562 12.59375-30.652344 19.53125-47.65625 19.53125-16.980469 0-31.949219-6.898438-42.152344-19.421876-21.023437-25.789062-15.367187-67.691406 12.515625-93.753906h-33.199219c-22.746093 35.003906-23.171874 80.5 1.773438 111.105469 30.226562 37.082031 86.222656 38.25 125.070312 2.601563 33.035157-30.308594 43.019532-77.464844 26.691407-113.707032zm0 0" fill="#ffc34c"/><path d="m354.34375 93.964844c-30.226562-37.085938-86.222656-38.25-125.070312-2.605469-38.851563 35.648437-45.84375 94.605469-15.617188 131.6875 30.226562 37.085937 86.222656 38.25 125.070312 2.601563 38.851563-35.644532 45.84375-94.601563 15.617188-131.683594zm-6.707031 63.070312c-2.179688 18.359375-11.152344 35.601563-25.261719 48.550782-13.726562 12.59375-30.652344 19.53125-47.65625 19.53125-16.980469 0-31.949219-6.898438-42.152344-19.421876-21.160156-25.957031-15.300781-68.25 13.058594-94.273437 13.726562-12.589844 30.652344-19.527344 47.65625-19.527344 16.976562 0 31.945312 6.894531 42.152344 19.417969 9.921875 12.171875 14.253906 28.410156 12.203125 45.722656zm0 0" fill="#ffeacf"/><path d="m324 236.925781v-32.898437c-.539062.523437-1.070312 1.050781-1.625 1.558594-13.726562 12.59375-30.648438 19.53125-47.65625 19.53125-16.976562 0-31.945312-6.898438-42.152344-19.421876-21.160156-25.957031-15.300781-68.25 13.0625-94.273437 13.722656-12.589844 30.648438-19.527344 47.65625-19.527344 11.429688 0 21.945313 3.140625 30.714844 9.007813v-29.546875c-29.757812-12.257813-66.703125-5.707031-94.726562 20.003906-38.851563 35.648437-45.84375 94.605469-15.617188 131.6875 26.578125 32.613281 73.089844 37.433594 110.34375 13.878906zm0 0" fill="#ffd59a"/><path d="m359.980469 174.160156c-.878907 0-1.769531-.195312-2.613281-.605468-2.980469-1.445313-4.226563-5.035157-2.777344-8.015626 10.625-21.890624-6.503906-52.902343-6.679688-53.214843-1.621094-2.890625-.589844-6.546875 2.300782-8.167969 2.890624-1.621094 6.546874-.589844 8.167968 2.300781.835938 1.488281 20.335938 36.851563 7.003906 64.320313-1.035156 2.136718-3.171874 3.382812-5.402343 3.382812zm0 0" fill="#fcf9de"/><path d="m214 316.945312h-144c-38.660156 0-70-31.339843-70-70v-231.878906c0-8.285156 6.714844-14.9999998 15-14.9999998h254c8.285156 0 15 6.7148438 15 14.9999998v231.878906c0 38.660157-31.339844 70-70 70zm0 0" fill="#ffeacf"/><path d="m60 246.945312v-231.878906c0-8.285156 6.714844-14.9999998 15-14.9999998h-60c-8.285156 0-15 6.7148438-15 14.9999998v231.878906c0 38.660157 31.339844 70 70 70h60c-38.660156 0-70-31.339843-70-70zm0 0" fill="#ffd59a"/><path d="m25 245.421875v-208.832031c0-5.523438 4.476562-10 10-10h214c5.523438 0 10 4.476562 10 10v208.832031c0 24.851563-20.148438 45-45 45h-144c-24.851562 0-45-20.148437-45-45zm0 0" fill="#bf6c0d"/><path d="m25 245.421875v-208.832031c0-5.523438 4.476562-10 10-10h214c5.523438 0 10 4.476562 10 10v208.832031c0 24.851563-20.148438 45-45 45h-144c-24.851562 0-45-20.148437-45-45zm0 0" fill="#bf6c0d"/><path d="m60 246.945312v-220.355468h-25c-5.523438 0-10 4.476562-10 10v208.832031c0 24.851563 20.148438 45 45 45h5.160156c-9.480468-11.945313-15.160156-27.042969-15.160156-43.476563zm0 0" fill="#a56021"/><path d="m237.566406 103.941406c-3.3125 0-6-2.683594-6-6v-25.253906c0-3.3125 2.6875-6 6-6s6 2.6875 6 6v25.253906c0 3.316406-2.6875 6-6 6zm0 0" fill="#e58d23"/><path d="m237.566406 243.640625c-3.3125 0-6-2.6875-6-6v-117.664063c0-3.3125 2.6875-6 6-6s6 2.6875 6 6v117.664063c0 3.3125-2.6875 6-6 6zm0 0" fill="#e58d23"/><g fill="#a56021"><path d="m98.652344 225.070312c0 8.027344-6.507813 14.535157-14.535156 14.535157-8.027344 0-14.535157-6.507813-14.535157-14.535157 0-8.023437 6.507813-14.53125 14.535157-14.53125 8.027343 0 14.535156 6.507813 14.535156 14.53125zm0 0"/><path d="m131.839844 264.734375c0 8.027344-6.507813 14.535156-14.535156 14.535156-8.027344 0-14.53125-6.507812-14.53125-14.535156s6.503906-14.535156 14.53125-14.535156c8.027343 0 14.535156 6.507812 14.535156 14.535156zm0 0"/></g></svg>