<svg height="473pt" viewBox="0 -57 473.736 473" width="473pt" xmlns="http://www.w3.org/2000/svg"><path d="m250 341.601562h131.519531v6.90625c0 5.523438-4.476562 10-10 10h-111.519531c-5.523438 0-10-4.476562-10-10zm0 0" fill="#f9bb32"/><path d="m441.273438 180.335938c.121093.683593.195312 1.386718.195312 2.109374v69.96875c0 6.589844-5.339844 11.929688-11.925781 11.929688h-52.597657v23.851562h60.546876c15.371093 0 27.832031-12.457031 27.832031-27.828124v-80.03125zm0 0" fill="#db9c2e"/><path d="m445.90625 156.480469h-60.550781v23.855469h52.601562c6.585938 0 11.925781 5.339843 11.925781 11.925781v69.972656c0 6.585937-5.339843 11.925781-11.925781 11.925781h-52.601562v23.855469h60.550781c15.371094 0 27.828125-12.460937 27.828125-27.832031v-85.871094c0-15.371094-12.457031-27.832031-27.828125-27.832031zm0 0" fill="#ffd551"/><path d="m385.355469 156.480469h48.191406v23.855469h-48.191406zm0 0" fill="#ffc34c"/><path d="m385.355469 274.160156h48.191406v23.851563h-48.191406zm0 0" fill="#ffc34c"/><path d="m347.511719 349.597656h-68.78125c-35.894531 0-65-29.101562-65-65v-164.699218c0-8.285157 6.71875-15 15-15h168.78125c8.285156 0 15 6.714843 15 15v164.699218c0 35.894532-29.101563 65-65 65zm0 0" fill="#ffd551"/><g fill="#ffdf74"><path d="m392.046875 277.050781c-3.3125 0-6-2.6875-6-6v-118.703125c0-3.3125 2.6875-6 6-6s6 2.6875 6 6v118.703125c0 3.316407-2.6875 6-6 6zm0 0"/><path d="m371.449219 328.472656c-2.070313 0-4.246094-.175781-6.519531-.53125-3.277344-.507812-5.519532-3.574218-5.007813-6.847656.507813-3.277344 3.574219-5.515625 6.851563-5.007812 6.484374 1.007812 11.332031.011718 14.40625-2.953126 5.234374-5.054687 5.300781-15.519531 4.910156-18.789062-.394532-3.289062 1.957031-6.273438 5.246094-6.667969 3.277343-.382812 6.273437 1.957031 6.667968 5.246094.089844.753906 2.089844 18.628906-8.488281 28.84375-4.625 4.460937-10.683594 6.707031-18.066406 6.707031zm0 0"/><path d="m462.226562 258.707031c-3.316406 0-6-2.6875-6-6v-68.164062c0-3.3125 2.683594-6 6-6 3.3125 0 6 2.6875 6 6v68.164062c0 3.3125-2.6875 6-6 6zm0 0"/></g><path d="m358.726562 3.410156c-11.765624-6.273437-28.851562-.417968-42.96875 13.269532-14.117187-13.6875-31.199218-19.542969-42.96875-13.269532-15.496093 8.265625-15.890624 34.429688-.878906 58.445313 8.953125 14.320312 21.363282 24.636719 33.210938 28.882812 3.230468 1.550781 6.824218 2.242188 10.636718 2.132813 3.8125.109375 7.40625-.582032 10.636719-2.132813 11.847657-4.246093 24.257813-14.5625 33.210938-28.882812 15.015625-24.015625 14.621093-50.179688-.878907-58.445313zm0 0" fill="#ff624b"/><path d="m299.957031 61.855469c-14.316406-22.902344-14.613281-47.746094-1.167969-57.167969-9.394531-4.390625-18.714843-5.160156-26-1.277344-15.496093 8.265625-15.890624 34.429688-.878906 58.445313 8.953125 14.320312 21.363282 24.636719 33.210938 28.882812 3.230468 1.550781 6.824218 2.242188 10.636718 2.132813 3.8125.109375 7.40625-.582032 10.636719-2.132813 1.125-.402343 2.253907-.878906 3.386719-1.386719-10.785156-4.871093-21.722656-14.535156-29.824219-27.496093zm0 0" fill="#ff4b34"/><path d="m354.660156 49.105469c-.492187 0-.992187-.0625-1.492187-.191407-3.210938-.816406-5.144531-4.085937-4.324219-7.296874 3.324219-13.003907.8125-17.070313-.421875-18.214844-2.488281-2.304688-8.242187-1.378906-10.640625-.566406-3.128906 1.058593-6.539062-.605469-7.609375-3.730469-1.074219-3.121094.5625-6.519531 3.679687-7.609375 1.433594-.5 14.253907-4.667969 22.667969 3.054687 6.25 5.734375 7.578125 15.84375 3.949219 30.039063-.695312 2.710937-3.132812 4.515625-5.808594 4.515625zm0 0" fill="#ff9079"/><path d="m160.050781 38.335938c8.285157 0 15-6.714844 15-15v-7.96875c0-8.28125-6.714843-15-15-15h-145.050781c-8.285156 0-15 6.71875-15 15v7.96875c0 8.285156 6.714844 15 15 15h48.652344v282.691406h-48.652344c-8.285156 0-15 6.714844-15 15v7.96875c0 8.285156 6.714844 15 15 15h145.050781c8.285157 0 15-6.714844 15-15v-7.96875c0-8.285156-6.714843-15-15-15h-48.65625v-282.691406zm0 0" fill="#fff4c1"/><path d="m340.914062 197.679688c-20.40625-20.027344-49.226562-23.757813-64.375-8.324219-15.144531 15.429687-10.878906 44.175781 9.527344 64.207031 20.40625 20.027344 49.226563 23.757812 64.371094 8.324219 15.148438-15.429688 10.882812-44.175781-9.523438-64.207031zm0 0" fill="#a56021"/><path d="m296.726562 242.773438c-17.976562-17.597657-23.472656-41.96875-14.246093-58.105469-2.171875 1.3125-4.1875 2.890625-6 4.746093-15.113281 15.46875-10.796875 44.21875 9.636719 64.222657 20.429687 20 49.242187 23.679687 64.351562 8.210937 1.816406-1.855468 3.347656-3.910156 4.609375-6.113281-15.910156 9.597656-40.375 4.636719-58.351563-12.960937zm0 0" fill="#8c4c17"/><path d="m347.515625 263.953125c-.011719 0-.027344 0-.039063 0-27.210937-.203125-36.78125-20.652344-38.042968-31.4375-1.496094-14.386719-5.867188-24.4375-12.988282-29.925781-7.253906-5.59375-14.941406-4.480469-15.265624-4.429688-2.707032.414063-5.277344-1.421875-5.71875-4.132812-.445313-2.707032 1.359374-5.265625 4.066406-5.726563.488281-.085937 12.039062-1.953125 22.808594 6.207031 9.503906 7.203126 15.238281 19.621094 17.035156 36.910157.109375.828125 3.128906 22.347656 28.179687 22.535156 2.761719.019531 4.984375 2.277344 4.964844 5.035156-.023437 2.753907-2.257813 4.964844-5 4.964844zm0 0" fill="#8c4c17"/><path d="m63.652344 38.335938h20c4.417968 0 8 3.582031 8 8v266.691406c0 4.417968-3.582032 8-8 8h-20zm0 0" fill="#fce575"/><path d="m15 38.335938h28c-8.285156 0-15-6.714844-15-15v-7.96875c0-8.28125 6.714844-15 15-15h-28c-8.285156 0-15 6.71875-15 15v7.96875c0 8.285156 6.714844 15 15 15zm0 0" fill="#fce575"/><path d="m28 343.996094v-7.96875c0-8.285156 6.714844-15 15-15h-28c-8.285156 0-15 6.714844-15 15v7.96875c0 8.285156 6.714844 15 15 15h28c-8.285156 0-15-6.714844-15-15zm0 0" fill="#fce575"/><path d="m151.867188 21.941406h-46c-3.3125 0-6-2.6875-6-6s2.6875-6 6-6h46c3.3125 0 6 2.6875 6 6s-2.6875 6-6 6zm0 0" fill="#fcf9de"/><path d="m253.734375 284.597656v-164.699218c0-8.285157 6.714844-15 15-15h-40c-8.285156 0-15 6.714843-15 15v164.699218c0 35.894532 29.101563 65 65 65h40c-35.898437 0-65-29.101562-65-65zm0 0" fill="#ffc34c"/><path d="m306.664062 308.96875c0 8.46875-6.867187 15.332031-15.335937 15.332031s-15.332031-6.863281-15.332031-15.332031 6.863281-15.335938 15.332031-15.335938 15.335937 6.867188 15.335937 15.335938zm0 0" fill="#ffc34c"/></svg>