<svg height="463pt" viewBox="-130 0 463 463.27" width="463pt" xmlns="http://www.w3.org/2000/svg"><path d="m174.351562 463.269531h-144.636718c-5.523438 0-10-4.476562-10-10v-26.046875h164.636718v26.046875c0 5.523438-4.476562 10-10 10zm0 0" fill="#ffd59a"/><path d="m183.929688 440.773438h-163.792969c-11.046875 0-20-8.953126-20-20v-323.03125c0-5.523438 4.476562-10 10-10h183.792969c5.523437 0 10 4.476562 10 10v323.03125c0 11.046874-8.953126 20-20 20zm0 0" fill="#ffeacf"/><path d="m39.289062 421.195312v-323.664062c0-5.40625 4.382813-9.789062 9.789063-9.789062h-39.152344c-5.40625 0-9.789062 4.382812-9.789062 9.789062v323.664062c0 10.8125 8.761719 19.578126 19.574219 19.578126h39.15625c-10.8125 0-19.578126-8.765626-19.578126-19.578126zm0 0" fill="#ffd59a"/><path d="m20.183594 410.726562v-298.671874c0-4.417969 3.582031-8 8-8h147.699218c4.417969 0 8 3.582031 8 8v298.671874c0 5.523438-4.476562 10-10 10h-143.699218c-5.523438 0-10-4.476562-10-10zm0 0" fill="#a56021"/><path d="m131.105469 269.527344-29.875 29.875c-5.859375 5.859375-15.355469 5.859375-21.210938 0l-29.875-29.875c-5.859375-5.855469-5.859375-15.351563 0-21.210938l29.875-29.875c5.855469-5.855468 15.351563-5.855468 21.210938 0l29.875 29.875c5.855469 5.859375 5.855469 15.355469 0 21.210938zm0 0" fill="#e58d23"/><path d="m101.007812 278.859375-30.320312-30.320313c-5.734375-5.734374-5.734375-15.03125 0-20.765624l-20.765625 20.765624c-5.734375 5.734376-5.734375 15.03125 0 20.765626l30.320313 30.320312c5.734374 5.734375 15.03125 5.734375 20.765624 0l20.765626-20.765625c-5.734376 5.734375-15.03125 5.734375-20.765626 0zm0 0" fill="#bf6c0d"/><path d="m105.015625 414.664062-6.398437-.007812c-4.417969-.003906-7.996094-3.589844-7.992188-8.007812l.414062-398.65625c.007813-4.417969 3.59375-7.99609425 8.011719-7.992188l6.398438.0078125c4.417969.0039063 7.996093 3.5898435 7.992187 8.0078125l-.417968 398.65625c-.003907 4.417969-3.589844 7.996094-8.007813 7.992187zm0 0" fill="#ff9079"/><path d="m104.378906 415.597656.425782-407.605468c.003906-3.132813 1.808593-5.835938 4.433593-7.144532-1.070312-.53125-2.269531-.8398435-3.542969-.8398435l-6.882812-.0078125c-4.417969-.00390625-8.003906 3.574219-8.007812 7.992188l-.425782 407.605468c-.003906 4.417969 3.574219 8.003906 7.992188 8.007813l6.882812.007812c1.285156 0 2.5-.308593 3.574219-.84375-2.636719-1.3125-4.453125-4.027343-4.449219-7.171875zm0 0" fill="#ff624b"/><path d="m119.046875 209.648438-33.640625-25.550782c-6.597656-5.011718-7.886719-14.421875-2.875-21.019531l25.554688-33.640625c5.007812-6.597656 14.417968-7.886719 21.015624-2.875l33.644532 25.550781c6.597656 5.011719 7.882812 14.421875 2.871094 21.019531l-25.550782 33.644532c-5.011718 6.59375-14.421875 7.882812-21.019531 2.871094zm0 0" fill="#e58d23"/><path d="m105.726562 181.09375 25.933594-34.148438c4.90625-6.457031 14.117188-7.71875 20.574219-2.8125l-23.386719-17.761718c-6.457031-4.902344-15.667968-3.644532-20.574218 2.8125l-25.933594 34.148437c-4.90625 6.457031-3.644532 15.667969 2.8125 20.574219l23.386718 17.761719c-6.460937-4.90625-7.71875-14.117188-2.8125-20.574219zm0 0" fill="#bf6c0d"/><path d="m109.789062 404.539062-32.152343-27.402343c-6.304688-5.375-7.058594-14.839844-1.683594-21.148438l27.402344-32.148437c5.375-6.308594 14.84375-7.0625 21.148437-1.6875l32.152344 27.40625c6.304688 5.375 7.058594 14.839844 1.683594 21.144531l-27.40625 32.152344c-5.371094 6.304687-14.839844 7.058593-21.144532 1.683593zm0 0" fill="#e58d23"/><path d="m98.097656 375.28125 27.8125-32.632812c5.261719-6.171876 14.53125-6.910157 20.699219-1.652344l-22.347656-19.050782c-6.171875-5.257812-15.4375-4.519531-20.699219 1.652344l-27.816406 32.632813c-5.257813 6.171875-4.519532 15.441406 1.652344 20.699219l22.347656 19.050781c-6.171875-5.261719-6.910156-14.527344-1.648438-20.699219zm0 0" fill="#bf6c0d"/><g fill="#ffd59a"><path d="m168.921875 225.890625c-3.3125 0-6-2.6875-6-6v-13.910156c0-3.316407 2.6875-6 6-6s6 2.683593 6 6v13.910156c0 3.3125-2.6875 6-6 6zm0 0"/><path d="m171.53125 401.980469c-3.265625 0-5.941406-2.621094-5.996094-5.898438l-2.609375-152.003906c-.058593-3.3125 2.582031-6.046875 5.894531-6.101563 3.308594-.0625 6.042969 2.582032 6.101563 5.894532l2.609375 152.007812c.058594 3.3125-2.582031 6.042969-5.894531 6.101563-.035157 0-.070313 0-.105469 0zm0 0"/><path d="m74.15625 131.175781c0 8.28125-6.714844 15-15 15s-15-6.71875-15-15c0-8.285156 6.714844-15 15-15s15 6.714844 15 15zm0 0"/></g><path d="m28.015625 104.054688c-4.324219 0-7.832031 3.636718-7.832031 8.125v298.394531c0 5.609375 4.382812 10.152343 9.789062 10.152343h9.316406v-316.671874zm0 0" fill="#8c4c17"/></svg>