<svg height="468pt" viewBox="-93 0 468 468.787" width="468pt" xmlns="http://www.w3.org/2000/svg"><path d="m269.308594 102.78125h-256.402344c-7.347656 0-13.117188 6.308594-12.460938 13.625l9.109376 101.933594c.578124 6.453125 5.984374 11.398437 12.460937 11.398437h2.761719l19.859375 218.53125c1.054687 11.617188 10.949219 20.515625 22.808593 20.515625h147.273438c11.855469 0 21.75-8.898437 22.804688-20.515625l19.859374-218.53125h2.8125c6.480469 0 11.886719-4.945312 12.464844-11.398437l9.109375-101.933594c.65625-7.320312-5.113281-13.625-12.460937-13.625zm0 0" fill="#ffeacf"/><path d="m95.195312 448.269531-19.859374-218.53125h-2.757813c-6.480469 0-11.886719-4.945312-12.460937-11.398437l-9.113282-101.933594c-.652344-7.320312 5.113282-13.625 12.460938-13.625h-50.558594c-7.347656 0-13.117188 6.304688-12.460938 13.625l9.109376 101.933594c.578124 6.453125 5.984374 11.398437 12.460937 11.398437h2.761719l19.859375 218.53125c1.054687 11.613281 10.949219 20.515625 22.804687 20.515625h50.5625c-11.855468 0-21.753906-8.898437-22.808594-20.515625zm0 0" fill="#ffd59a"/><path d="m65.496094 452.105469c-3.253906 0-5.917969-2.300781-6.195313-5.34375l-20.6875-227.636719c-.308593-3.4375-3.191406-6.070312-6.644531-6.070312h-4.269531c-2.175781 0-3.960938-1.632813-4.152344-3.796876l-5.640625-63.101562c-.085938-.957031.367188-1.609375.644531-1.914062.28125-.300782.886719-.8125 1.847657-.8125h237.527343c.957031 0 1.566407.511718 1.84375.8125.28125.304687.734375.957031.648438 1.914062l-5.640625 63.101562c-.191406 2.164063-1.980469 3.796876-4.152344 3.796876h-4.324219c-3.453125 0-6.335937 2.632812-6.648437 6.070312l-20.683594 227.636719c-.277344 3.042969-2.941406 5.34375-6.195312 5.34375zm0 0" fill="#bf6c0d"/><path d="m201.257812 446.742188c-.207031 0-.414062-.011719-.625-.03125-3.296874-.34375-5.691406-3.292969-5.347656-6.589844l12.625-121.316406c.34375-3.296876 3.28125-5.6875 6.589844-5.347657 3.296875.34375 5.6875 3.292969 5.347656 6.589844l-12.628906 121.316406c-.320312 3.085938-2.921875 5.378907-5.960938 5.378907zm0 0" fill="#e58d23"/><path d="m216.738281 301.039062c-.207031 0-.414062-.011718-.625-.03125-3.296875-.34375-5.691406-3.292968-5.347656-6.589843l3.078125-29.589844c.34375-3.292969 3.28125-5.695313 6.589844-5.347656 3.296875.34375 5.6875 3.292969 5.347656 6.589843l-3.082031 29.589844c-.320313 3.085938-2.925781 5.378906-5.960938 5.378906zm0 0" fill="#e58d23"/><path d="m18.550781 144.242188c-.277343.304687-.730469.957031-.644531 1.914062l5.640625 63.101562c.191406 2.164063 1.976563 3.796876 4.152344 3.796876h4.269531c3.453125 0 6.335938 2.632812 6.644531 6.070312l20.6875 227.636719c.277344 3.042969 2.941407 5.34375 6.195313 5.34375h30.402344c-.335938-1.242188-.585938-2.519531-.703126-3.835938l-19.859374-218.53125h-2.761719c-6.476563 0-11.882813-4.945312-12.460938-11.398437l-6.691406-74.910156h-33.023437c-.960938 0-1.570313.511718-1.847657.8125zm0 0" fill="#a56021"/><path d="m140.332031 187.835938-44.898437 26.066406c-7.167969 4.160156-16.34375 1.722656-20.503906-5.441406l-25.5625-44.03125c-4.15625-7.164063-1.722657-16.34375 5.445312-20.5l44.898438-26.066407c7.167968-4.160156 16.34375-1.722656 20.503906 5.441407l25.558594 44.027343c4.160156 7.164063 1.722656 16.34375-5.441407 20.503907zm0 0" fill="#ffa730"/><path d="m105.109375 193.996094-28.214844-48.601563c-3.425781-5.902343-1.359375-13.496093 4.617188-16.96875l-28.855469 16.753907c-5.976562 3.46875-8.042969 11.0625-4.613281 16.96875l28.210937 48.597656c3.425782 5.902344 11.050782 7.875 17.023438 4.40625l28.855468-16.75c-5.976562 3.46875-13.597656 1.496094-17.023437-4.40625zm0 0" fill="#e58d23"/><path d="m113.222656 433.398438-38.222656-35.128907c-6.101562-5.609375-6.5-15.097656-.894531-21.195312l35.128906-38.226563c5.609375-6.101562 15.097656-6.5 21.195313-.894531l38.226562 35.132813c6.101562 5.605468 6.5 15.09375.894531 21.195312l-35.132812 38.226562c-5.605469 6.097657-15.09375 6.496094-21.195313.890626zm0 0" fill="#ffa730"/><path d="m96.984375 401.480469 38.5-41.890625c4.675781-5.085938 12.589844-5.417969 17.679687-.746094l-24.566406-22.574219c-5.089844-4.675781-13.003906-4.34375-17.679687.746094l-38.5 41.890625c-4.675781 5.085938-4.339844 13 .746093 17.679688l24.566407 22.574218c-5.089844-4.675781-5.421875-12.589844-.746094-17.679687zm0 0" fill="#e58d23"/><path d="m131.898438 143.429688-11.601563-19.980469c-4.203125-7.246094-13.488281-9.707031-20.730469-5.503907l-43.898437 25.484376zm0 0" fill="#ffb74b"/><path d="m81.507812 128.429688-25.839843 15h20.320312c-2.015625-5.527344.191407-11.902344 5.519531-15zm0 0" fill="#ffa730"/><path d="m112.191406 240.214844c0 8.023437-6.503906 14.53125-14.53125 14.53125s-14.535156-6.507813-14.535156-14.53125c0-8.027344 6.507812-14.535156 14.535156-14.535156s14.53125 6.507812 14.53125 14.535156zm0 0" fill="#a56021"/><path d="m141.105469 418.570312c-7.457031 0-13.503907-6.046874-13.503907-13.503906v-391.558594c0-7.460937 6.046876-13.507812 13.503907-13.507812 7.460937 0 13.507812 6.046875 13.507812 13.507812v391.558594c0 7.457032-6.046875 13.503906-13.507812 13.503906zm0 0" fill="#ff9079"/><path d="m141.816406 405.066406v-391.558594c0-4.847656 2.5625-9.085937 6.398438-11.46875-2.066406-1.285156-4.496094-2.039062-7.109375-2.039062-7.457031 0-13.503907 6.046875-13.503907 13.507812v391.558594c0 7.460938 6.046876 13.507813 13.503907 13.507813 2.613281 0 5.042969-.753907 7.109375-2.039063-3.835938-2.382812-6.398438-6.621094-6.398438-11.46875zm0 0" fill="#ff624b"/><path d="m171.550781 317.414062-51.210937-8.53125c-8.171875-1.359374-13.695313-9.085937-12.332032-17.261718l8.53125-51.210938c1.359376-8.171875 9.085938-13.691406 17.257813-12.332031l51.214844 8.53125c8.171875 1.359375 13.691406 9.085937 12.332031 17.257813l-8.53125 51.214843c-1.359375 8.171875-9.089844 13.691407-17.261719 12.332031zm0 0" fill="#ffa730"/><path d="m140.507812 299.558594 9.347657-56.121094c1.136719-6.816406 7.582031-11.421875 14.398437-10.285156l-32.910156-5.480469c-6.816406-1.136719-13.261719 3.46875-14.398438 10.285156l-9.347656 56.121094c-1.132812 6.816406 3.472656 13.261719 10.289063 14.398437l32.910156 5.480469c-6.816406-1.136719-11.421875-7.582031-10.289063-14.398437zm0 0" fill="#e58d23"/></svg>