<svg height="456pt" viewBox="-78 0 456 456.557" width="456pt" xmlns="http://www.w3.org/2000/svg"><path d="m32.347656 43.269531h235.269532v391.777344h-235.269532zm0 0" fill="#bf6c0d"/><path d="m32.347656 43.269531h47.144532v391.777344h-47.144532zm0 0" fill="#a56021"/><path d="m32.347656 103.148438h235.269532v336.421874h-235.269532zm0 0" fill="#a56021"/><path d="m274.445312 265.472656h-248.925781c-11.046875 0-20-8.953125-20-20v-135.757812c0-11.046875 8.953125-20 20-20h248.925781c11.046876 0 20 8.953125 20 20v135.757812c0 11.046875-8.953124 20-20 20zm0 0" fill="#e58d23"/><path d="m271.667969 71.316406h-243.363281c-8.285157 0-15-6.714844-15-15v-41.316406c0-8.285156 6.714843-15 15-15h243.363281c8.285156 0 15 6.714844 15 15v41.316406c0 8.285156-6.714844 15-15 15zm0 0" fill="#ffd551"/><path d="m269.417969 456.554688h-239.140625c-16.566406 0-30-13.429688-30-30v-118.089844c0-11.046875 8.957031-20 20-20h259.140625c11.046875 0 20 8.953125 20 20v118.089844c0 16.570312-13.429688 30-30 30zm0 0" fill="#e58d23"/><path d="m76.238281 110.382812h218.207031c0-11.414062-10.554687-20.667968-23.570312-20.667968h-241.78125c-13.019531 0-23.574219 9.253906-23.574219 20.667968v134.421876c0 11.414062 10.554688 20.667968 23.574219 20.667968h23.570312v-134.417968c0-11.417969 10.554688-20.671876 23.574219-20.671876zm0 0" fill="#bf6c0d"/><path d="m49.089844 445.585938v-113.394532c0-12.117187 10.925781-21.941406 24.40625-21.941406h225.921875c0-12.117188-10.925781-21.941406-24.40625-21.941406h-250.328125c-13.476563 0-24.40625 9.824218-24.40625 21.941406v113.394531c0 18.175781 16.390625 32.914063 36.609375 32.914063h14.292969c-1.347657-3.433594-2.089844-7.125-2.089844-10.972656zm0 0" fill="#bf6c0d"/><path d="m5.519531 147.316406h288.925781v80.097656h-288.925781zm0 0" fill="#ccc033"/><path d="m214.863281 187.367188c0 35.832031-29.046875 64.878906-64.878906 64.878906-35.835937 0-64.882813-29.046875-64.882813-64.878906 0-35.835938 29.046876-64.882813 64.882813-64.882813 35.832031 0 64.878906 29.046875 64.878906 64.882813zm0 0" fill="#99af17"/><path d="m204.53125 187.367188c0 30.125-24.421875 54.546874-54.546875 54.546874-30.128906 0-54.550781-24.421874-54.550781-54.546874s24.421875-54.546876 54.550781-54.546876c30.125 0 54.546875 24.421876 54.546875 54.546876zm0 0" fill="#fcda4f"/><path d="m5.519531 147.316406h47.539063v80.097656h-47.539063zm0 0" fill="#99af17"/><path d="m274.34375 391.484375c-3.3125 0-6-2.683594-6-6v-51.671875c0-3.316406 2.6875-6 6-6s6 2.683594 6 6v51.671875c0 3.316406-2.6875 6-6 6zm0 0" fill="#ffa730"/><path d="m253.039062 445.570312c-1.492187 0-3.039062-.074218-4.640624-.21875-.515626.140626-1.054688.21875-1.613282.21875h-177.757812c-3.3125 0-6-2.6875-6-6s2.6875-6 6-6h175.511718c.949219-.382812 1.996094-.523437 3.03125-.386718 8.292969 1.097656 14.179688-.121094 17.492188-3.625 4.398438-4.648438 3.9375-13.167969 3.390625-16.0625-.613281-3.242188 1.507813-6.390625 4.75-7.019532 3.246094-.628906 6.382813 1.46875 7.027344 4.710938.132812.664062 3.121093 16.40625-6.382813 26.546875-4.886718 5.210937-11.871094 7.835937-20.808594 7.835937zm0 0" fill="#ffa730"/><path d="m71.648438 52.921875c-8.785157 0-15.910157-8.820313-15.910157-19.707031v-31.902344c0-.441406.027344-.875.050781-1.3125h-26.574218c-8.785156 0-15.910156 8.824219-15.910156 19.707031v31.902344c0 10.882813 7.121093 19.707031 15.910156 19.707031h241.539062c8.429688 0 15.3125-8.125 15.859375-18.394531zm0 0" fill="#ffc34c"/><path d="m263.308594 49.097656c-3.3125 0-6-2.683594-6-6v-26.640625c0-3.316406 2.6875-6 6-6s6 2.683594 6 6v26.640625c0 3.3125-2.6875 6-6 6zm0 0" fill="#fce575"/><path d="m170.320312 169.015625c-14.878906-14.875-36.042968-17.828125-47.277343-6.59375-11.230469 11.234375-8.277344 32.398437 6.597656 47.273437s36.039063 17.828126 47.273437 6.597657c11.234376-11.234375 8.28125-32.398438-6.59375-47.277344zm0 0" fill="#bf6c0d"/><path d="m176.917969 201.675781c-11.234375 11.230469-32.398438 8.277344-47.273438-6.597656-6.585937-6.582031-10.828125-14.398437-12.542969-22.039063-2.902343 11.304688 1.574219 25.6875 12.542969 36.65625 14.875 14.875 36.039063 17.828126 47.273438 6.59375 6.261719-6.261718 8.109375-15.609374 5.949219-25.234374-1.035157 4.03125-2.996094 7.667968-5.949219 10.621093zm0 0" fill="#a56021"/><path d="m144.101562 168.746094c8.121094 8.125 8.894532 20.234375 8.921876 20.761718.535156 20.070313 20.566406 21.378907 21.417968 21.425782 1.757813.09375 3.191406 1.589844 3.207032 3.34375.011718 1.757812-1.398438 3.101562-3.15625 3.007812-9.378907-.507812-27.269532-6.988281-27.824219-27.90625 0-.007812-.738281-10.609375-7.472657-16.796875-3.472656-3.183593-8.070312-4.707031-13.667968-4.53125-1.75.054688-3.300782-1.324219-3.460938-3.078125-.164062-1.753906 1.121094-3.222656 2.867188-3.277344 7.398437-.234374 13.601562 1.902344 18.441406 6.355469.246094.226563.488281.460938.726562.695313zm0 0" fill="#8c4c17"/><path d="m274.34375 247.914062c-3.3125 0-6-2.6875-6-6v-108.21875c0-3.3125 2.6875-6 6-6 3.316406 0 6 2.6875 6 6v108.21875c0 3.3125-2.683594 6-6 6zm0 0" fill="#ffa730"/><path d="m94.492188 340.664062c0 8.285157-6.714844 15-15 15-8.28125 0-15-6.714843-15-15 0-8.285156 6.71875-15 15-15 8.285156 0 15 6.714844 15 15zm0 0" fill="#bf6c0d"/><path d="m116.238281 385.847656c0 8.285156-6.714843 15-15 15-8.285156 0-15-6.714844-15-15s6.714844-15 15-15c8.285157 0 15 6.714844 15 15zm0 0" fill="#bf6c0d"/><path d="m94.492188 27.882812c0 8.285157-6.714844 15-15 15-8.28125 0-15-6.714843-15-15 0-8.285156 6.71875-15 15-15 8.285156 0 15 6.714844 15 15zm0 0" fill="#ffc34c"/></svg>