<svg height="456pt" viewBox="-76 0 456 456.63" width="456pt" xmlns="http://www.w3.org/2000/svg"><path d="m222.050781 445.863281-11.46875-11.183593h-184.324219l-11.46875 11.183593c-4.40625 4.296875-.59375 10.765625 6.34375 10.765625h194.574219c6.9375 0 10.75-6.46875 6.34375-10.765625zm0 0" fill="#fff4c1"/><path d="m54.789062 445.863281 11.46875-11.183593h-40l-11.46875 11.183593c-4.40625 4.296875-.59375 10.765625 6.34375 10.765625h40c-6.9375 0-10.75-6.46875-6.34375-10.765625zm0 0" fill="#fce575"/><path d="m265.617188 191.804688c.316406 1.742187.488281 3.535156.488281 5.371093v27.398438c0 16.816406-13.832031 30.445312-30.894531 30.445312h-45.3125v-63.214843h-25.746094v88.585937h96.804687c17.0625 0 30.894531-13.628906 30.894531-30.445313v-58.140624zm0 0" fill="#ffd551"/><path d="m176.15625 161.359375v139.03125h96.800781c17.0625 0 30.894531-13.632813 30.894531-30.445313v-78.140624c0-16.816407-13.832031-30.445313-30.894531-30.445313zm71.054688 113.660156h-45.308594v-88.289062h45.308594c17.066406 0 30.894531 13.628906 30.894531 30.445312v27.398438c0 16.816406-13.828125 30.445312-30.894531 30.445312zm0 0" fill="#fff4c1"/><path d="m261.832031 290.242188h.027344l.019531-.367188c.382813-3.128906.601563-6.308594.613282-9.535156l.617187-9.65625c-4.644531 2.75-10.082031 4.335937-15.898437 4.335937h-45.308594v-88.289062h45.308594c7.992187 0 15.277343 2.992187 20.761718 7.898437l2.128906-33.269531h-93.945312v139.03125h83.703125c.863281-3.308594 1.535156-6.691406 1.972656-10.148437zm0 0" fill="#ffdf74"/><path d="m179.585938 0h-122.332032c-19.902344 0-36.042968 15.902344-36.042968 35.519531v29.429688h194.417968v-29.429688c0-19.617187-16.136718-35.519531-36.042968-35.519531zm0 0" fill="#ffeacf"/><path d="m51.210938 35.519531c0-19.617187 16.140624-35.519531 36.042968-35.519531h-30c-19.902344 0-36.042968 15.902344-36.042968 35.519531v29.429688h30zm0 0" fill="#ffd59a"/><path d="m150.320312 403.394531h-59.550781c-11.042969 0-20-8.953125-20-20v-26.46875c0-11.046875 8.957031-20 20-20h59.550781c11.046876 0 20 8.953125 20 20v26.472657c0 11.042968-8.953124 19.996093-20 19.996093zm0 0" fill="#fff4c1"/><path d="m150.320312 336.925781h-59.546874c-11.046876 0-20 8.953125-20 20v26.46875c0 11.046875 8.953124 20 20 20h40c-11.046876 0-20-8.953125-20-20v-8.113281h29.339843c10.664063 0 20.851563-2.007812 30.207031-5.644531v-12.710938c0-11.046875-8.953124-20-20-20zm0 0" fill="#ffdf74"/><path d="m221.113281 44.652344h-205.351562c-8.878907 0-15.929688 7.355468-15.421875 16.089844l14.800781 229.5c5.070313 40.042968 39.710937 71.039062 81.71875 71.039062h43.253906c42.007813 0 76.648438-30.996094 81.71875-71.039062h.023438l.023437-.367188c.382813-3.128906.601563-6.308594.613282-9.535156l14.039062-219.507813c.558594-8.765625-6.503906-16.179687-15.417969-16.179687zm0 0" fill="#fff4c1"/><path d="m65.140625 290.242188-14.800781-229.5c-.507813-8.734376 6.542968-16.089844 15.421875-16.089844h-50c-8.878907 0-15.929688 7.355468-15.421875 16.089844l14.800781 229.5c5.070313 40.042968 39.710937 71.039062 81.71875 71.039062h43.253906c1.128907 0 2.253907-.035156 3.371094-.078125-40.476563-1.609375-73.410156-31.992187-78.34375-70.960937zm0 0" fill="#ffdf74"/><path d="m76.140625 397.730469-49.882813 36.949219h184.324219l-46.230469-36.949219zm0 0" fill="#fce575"/><path d="m24.75 125.839844 8.363281 144.105468h.210938l2.25 17.78125c3.847656 30.363282 30.191406 53.257813 61.285156 53.257813h43.253906c31.089844 0 57.4375-22.894531 61.28125-53.257813l.0625-.472656c.28125-2.398437.429688-4.746094.4375-6.976562v-.609375l9.839844-153.832031h-186.984375zm0 0" fill="#a56021"/><path d="m211.734375 125.839844 3.894531-60.890625h-194.414062l3.535156 60.890625zm0 0" fill="#db9c2e"/><path d="m76.140625 397.730469-49.882813 36.949219h40l49.882813-36.949219zm0 0" fill="#ffd551"/><path d="m24.75 125.839844 8.363281 144.105468h.210938l2.25 17.78125c3.847656 30.363282 30.191406 53.257813 61.285156 53.257813h43.253906c31.089844 0 57.4375-22.894531 61.28125-53.257813l.0625-.472656c.28125-2.398437.429688-4.746094.4375-6.976562v-.609375l9.839844-153.832031h-186.984375zm0 0" fill="#a56021"/><path d="m50.585938 64.949219h-29.371094l3.535156 60.890625h29.367188zm0 0" fill="#bf6c0d"/><path d="m33.113281 269.945312h.210938l2.25 17.78125c3.652343 28.832032 27.597656 50.914063 56.628906 53.070313-14.570313-12.757813-24.527344-30.515625-27.0625-50.554687l-11.023437-164.402344h-29.367188zm0 0" fill="#8c4c17"/><path d="m21.210938 44.652344h194.417968v20.296875h-194.417968zm0 0" fill="#ffd59a"/><path d="m50.585938 64.949219-.246094-4.207031c-.507813-8.734376 6.542968-16.089844 15.421875-16.089844h-44.550781v20.296875zm0 0" fill="#ffc34c"/><path d="m188.78125 178.125c-.128906 0-.257812-.003906-.390625-.011719-3.308594-.210937-5.816406-3.0625-5.601563-6.371093l1.476563-23.054688c.210937-3.308594 3.070313-5.828125 6.367187-5.605469 3.308594.210938 5.816407 3.0625 5.605469 6.371094l-1.476562 23.054687c-.203125 3.175782-2.84375 5.617188-5.980469 5.617188zm0 0" fill="#bf6c0d"/><path d="m181.90625 281.019531c-.136719 0-.273438-.003906-.410156-.011719-3.304688-.226562-5.804688-3.085937-5.582032-6.394531l5.617188-83.214843c.222656-3.304688 3.066406-5.824219 6.390625-5.582032 3.304687.222656 5.804687 3.082032 5.582031 6.390625l-5.617187 83.21875c-.214844 3.167969-2.851563 5.59375-5.980469 5.59375zm0 0" fill="#bf6c0d"/><g fill="#8c4c17"><path d="m97.625 269.957031c0 8.027344-6.503906 14.535157-14.53125 14.535157s-14.535156-6.507813-14.535156-14.535157c0-8.027343 6.507812-14.535156 14.535156-14.535156s14.53125 6.507813 14.53125 14.535156zm0 0"/><path d="m126.695312 309.304688c0 8.027343-6.507812 14.535156-14.535156 14.535156s-14.535156-6.507813-14.535156-14.535156c0-8.027344 6.507812-14.53125 14.535156-14.53125s14.535156 6.503906 14.535156 14.53125zm0 0"/></g></svg>