<svg height="477pt" viewBox="-51 0 477 477.334" width="477pt" xmlns="http://www.w3.org/2000/svg"><path d="m78.667969 234.089844-41.164063-24.441406c-2.484375-1.472657-5.679687-.640626-7.140625 1.863281l-7.273437 12.457031-.976563 26.871094-4.800781 8.21875 10.757812 2.769531 11.667969-19.976563c2.859375-4.898437 9.117188-6.535156 13.976563-3.648437s6.480468 9.195313 3.617187 14.09375l-11.296875 19.351563 12.441406 7.386718 22.039063-37.75c1.460937-2.5.632813-5.722656-1.847656-7.195312zm0 0" fill="#f9bb32"/><path d="m36.089844 240.96875 7.273437-12.457031c1.460938-2.503907 4.65625-3.335938 7.140625-1.863281l28.632813 17 1.378906-2.363282c1.460937-2.503906.632813-5.722656-1.847656-7.195312l-41.164063-24.441406c-2.484375-1.472657-5.679687-.640626-7.140625 1.863281l-7.273437 12.457031-.976563 26.871094-4.800781 8.21875 10.757812 2.769531 7.742188-13.257813zm0 0" fill="#db9c2e"/><path d="m214.425781 153.246094 6.585938 42.082031h18.871093l6.585938-42.082031c0-6.605469-5.3125-11.964844-11.867188-11.964844h-8.308593c-6.554688 0-11.867188 5.359375-11.867188 11.964844zm0 0" fill="#f9bb32"/><path d="m237.445312 141.644531c-.910156-.230469-1.859374-.363281-2.84375-.363281h-8.308593c-6.554688 0-11.867188 5.359375-11.867188 11.964844l6.585938 42.082031h14l-6.585938-42.082031c0-5.617188 3.84375-10.316406 9.019531-11.601563zm0 0" fill="#db9c2e"/><path d="m120.351562 369.65625-113.132812-67.167969 26.671875-45.675781 113.132813 67.167969zm0 0" fill="#fce575"/><path d="m120.351562 346.65625-103.160156-61.246094-9.972656 17.078125 113.132812 67.167969 26.671876-45.675781-9.972657-5.921875zm0 0" fill="#ffd551"/><path d="m98.605469 178.050781h10.40625v149.160157h-10.40625zm0 0" fill="#ffc34c"/><path d="m353.832031 178.050781h10.402344v149.160157h-10.402344zm0 0" fill="#ffc34c"/><path d="m231.480469 0c-76.167969 0-138.433594 59.976562-142.910157 135.644531v80.136719c0 4.882812 3.929688 8.84375 8.773438 8.84375h12.738281c4.84375 0 8.769531-3.960938 8.769531-8.84375v-79.171875c3.960938-59.550781 53.273438-106.078125 112.628907-106.078125 59.359375 0 108.667969 46.527344 112.628906 106.078125v79.171875c0 4.882812 3.929687 8.84375 8.773437 8.84375h12.738282c4.84375 0 8.769531-3.960938 8.769531-8.84375v-80.136719c-4.472656-75.667969-66.742187-135.644531-142.910156-135.644531zm0 0" fill="#a56021"/><path d="m106.570312 215.78125v-80.136719c4.296876-72.664062 61.890626-130.847656 133.910157-135.351562-2.976563-.1875-5.976563-.292969-9-.292969-76.167969 0-138.433594 59.976562-142.910157 135.644531v80.136719c0 4.882812 3.929688 8.84375 8.773438 8.84375h12.738281c.917969 0 1.800781-.140625 2.628907-.40625-3.558594-1.125-6.140626-4.476562-6.140626-8.4375zm0 0" fill="#8c4c17"/><path d="m362.109375 215.78125v-79.171875c-3.960937-59.550781-53.269531-106.078125-112.628906-106.078125-3.027344 0-6.027344.128906-9 .367188 55.269531 4.421874 99.871093 49.195312 103.628906 105.710937v79.171875c0 4.882812 3.929687 8.84375 8.773437 8.84375h12.738282c.917968 0 1.800781-.144531 2.628906-.40625-3.558594-1.125-6.140625-4.476562-6.140625-8.4375zm0 0" fill="#8c4c17"/><path d="m255.59375 222h-50.292969c-66.273437 0-120 53.726562-120 120v120.335938c0 8.28125 6.714844 15 15 15h260.292969c8.285156 0 15-6.71875 15-15v-120.335938c0-66.273438-53.722656-120-120-120zm0 0" fill="#fce575"/><path d="m40.816406 260.925781-26.671875 45.675781-1.554687-.921874c-11.996094-7.125-15.996094-22.703126-8.933594-34.796876l1.09375-1.875c7.0625-12.097656 22.515625-16.128906 34.511719-9.003906zm0 0" fill="#f9bb32"/><path d="m135.300781 462.335938v-120.335938c0-66.273438 53.726563-120 120-120h-50c-66.273437 0-120 53.726562-120 120v120.335938c0 8.28125 6.714844 15 15 15h50c-8.285156 0-15-6.71875-15-15zm0 0" fill="#ffd551"/><path d="m330.472656 254.347656h-197.984375c-3.453125 0-6.253906-2.800781-6.253906-6.253906 0-38.914062 31.546875-70.460938 70.460937-70.460938h69.574219c38.914063 0 70.460938 31.546876 70.460938 70.460938-.003907 3.453125-2.800781 6.253906-6.257813 6.253906zm0 0" fill="#f9bb32"/><path d="m166.234375 248.09375c0-38.914062 31.546875-70.460938 70.460937-70.460938h-40c-38.914062 0-70.460937 31.546876-70.460937 70.460938 0 3.453125 2.800781 6.253906 6.253906 6.253906h40c-3.453125 0-6.253906-2.800781-6.253906-6.253906zm0 0" fill="#db9c2e"/><path d="m16.65625 267.882812 1.09375-1.875c2.433594-4.164062 5.855469-7.371093 9.792969-9.5-8.996094-.375-17.90625 4.128907-22.792969 12.5l-1.09375 1.875c-7.0625 12.09375-3.0625 27.671876 8.933594 34.796876l1.558594.921874 5.289062-9.054687c-6.988281-8.023437-8.445312-19.960937-2.78125-29.664063zm0 0" fill="#db9c2e"/><path d="m352.027344 337.847656c-3.074219 0-5.691406-2.347656-5.972656-5.464844-3.464844-38.859374-35.171876-52.890624-36.519532-53.46875-3.039062-1.300781-4.460937-4.820312-3.164062-7.863281 1.292968-3.042969 4.792968-4.472656 7.84375-3.1875 1.617187.683594 39.671875 17.238281 43.796875 63.453125.292969 3.300782-2.144531 6.214844-5.445313 6.507813-.183594.015625-.363281.023437-.539062.023437zm0 0" fill="#fff4c1"/><path d="m352.03125 442.964844c-3.3125 0-6-2.6875-6-6v-86.296875c0-3.3125 2.6875-6 6-6s6 2.6875 6 6v86.296875c0 3.3125-2.683594 6-6 6zm0 0" fill="#fff4c1"/><path d="m319.542969 237.738281c-2.808594 0-5.316407-1.976562-5.878907-4.835937-5.230468-26.382813-34.832031-35.300782-35.128906-35.386719-3.183594-.929687-5.007812-4.257813-4.082031-7.441406.929687-3.179688 4.261719-5.011719 7.441406-4.078125 1.503907.4375 36.90625 11.121094 43.539063 44.574218.644531 3.25-1.46875 6.40625-4.71875 7.050782-.394532.078125-.785156.117187-1.171875.117187zm0 0" fill="#ffc34c"/><path d="m185.632812 408.230469c0 8.46875-6.863281 15.332031-15.332031 15.332031s-15.335937-6.863281-15.335937-15.332031 6.867187-15.335938 15.335937-15.335938 15.332031 6.867188 15.332031 15.335938zm0 0" fill="#ffd551"/><path d="m221.136719 443.335938c0 8.464843-6.863281 15.332031-15.332031 15.332031s-15.335938-6.867188-15.335938-15.332031c0-8.46875 6.867188-15.335938 15.335938-15.335938s15.332031 6.867188 15.332031 15.335938zm0 0" fill="#ffd551"/><path d="m229.761719 208.921875c0 8.46875-6.867188 15.332031-15.335938 15.332031s-15.332031-6.863281-15.332031-15.332031 6.863281-15.335937 15.332031-15.335937 15.335938 6.867187 15.335938 15.335937zm0 0" fill="#db9c2e"/></svg>