<svg height="401pt" viewBox="-37 0 401 401.39" width="401pt" xmlns="http://www.w3.org/2000/svg"><path d="m306.003906 80.65625h-283.769531v-10.65625c0-38.660156 31.339844-70 70-70h143.769531c38.660156 0 70 31.339844 70 70zm0 0" fill="#ffeacf"/><path d="m88.660156 0c-36.6875 0-66.425781 29.738281-66.425781 66.425781v14.230469h37.957031v-14.230469c0-36.6875 29.738282-66.425781 66.421875-66.425781zm0 0" fill="#ffd59a"/><path d="m.195312 69.746094v205.34375c0 9.636718 2.128907 19.1875 6.277344 28.136718l32.765625 70.695313c.777344 1.679687 1.175781 3.46875 1.175781 5.277344v14.601562c0 4.191407 3.945313 7.589844 8.816407 7.589844h229.777343c4.867188 0 8.816407-3.398437 8.816407-7.589844v-14.601562c0-1.808594.398437-3.597657 1.175781-5.277344l32.761719-70.695313c4.148437-8.949218 6.28125-18.496093 6.28125-28.132812v-205.347656c0-5.242188-4.933594-9.488282-11.019531-9.488282h-305.808594c-6.085938-.003906-11.019532 4.246094-11.019532 9.488282zm0 0" fill="#fff4c1"/><path d="m97.347656 393.796875v-14.601563c0-1.804687-.398437-3.597656-1.175781-5.273437l-32.761719-70.695313c-4.148437-8.949218-6.28125-18.5-6.28125-28.136718v-205.34375c0-5.242188 4.933594-9.488282 11.019532-9.488282h-56.933594c-6.085938 0-11.019532 4.246094-11.019532 9.488282v205.34375c0 9.636718 2.128907 19.1875 6.277344 28.136718l32.765625 70.695313c.777344 1.679687 1.175781 3.46875 1.175781 5.273437v14.601563c0 4.195313 3.945313 7.59375 8.816407 7.59375h56.933593c-4.867187-.003906-8.816406-3.402344-8.816406-7.59375zm0 0" fill="#fce575"/><path d="m22.234375 147.082031v128.007813c0 7.261718 1.585937 14.359375 4.710937 21.101562l32.761719 70.695313c1.820313 3.933593 2.746094 8.074219 2.746094 12.308593v3.214844h203.328125v-3.214844c0-4.234374.925781-8.378906 2.75-12.308593l32.761719-70.691407c3.125-6.746093 4.707031-13.84375 4.707031-21.105468v-128.007813zm0 0" fill="#bf6c0d"/><path d="m96.171875 373.921875-32.765625-70.695313c-4.144531-8.949218-6.277344-18.5-6.277344-28.136718v-128.007813h-34.894531v128.007813c0 7.261718 1.585937 14.359375 4.710937 21.101562l32.761719 70.695313c1.824219 3.933593 2.746094 8.074219 2.746094 12.308593v3.214844h34.894531v-3.214844c0-1.804687-.398437-3.597656-1.175781-5.273437zm0 0" fill="#a56021"/><path d="m22.234375 60.253906h283.769531v86.824219h-283.769531zm0 0" fill="#ffd59a"/><path d="m277.535156 256.042969c-3.3125 0-6-2.6875-6-6v-77.332031c0-3.3125 2.6875-6 6-6s6 2.6875 6 6v77.332031c0 3.3125-2.6875 6-6 6zm0 0" fill="#bf6c0d"/><path d="m248.777344 354.078125c-.84375 0-1.703125-.179687-2.519532-.558594-3.003906-1.390625-4.3125-4.960937-2.917968-7.964843l23.765625-51.285157 4.566406-20.996093c.707031-3.238282 3.902344-5.285157 7.140625-4.585938 3.238281.703125 5.292969 3.902344 4.585938 7.136719l-4.707032 21.644531c-.09375.429688-.234375.847656-.421875 1.246094l-24.042969 51.886718c-1.015624 2.1875-3.183593 3.476563-5.449218 3.476563zm0 0" fill="#bf6c0d"/><path d="m118.289062 308.074219c0 8.027343-6.507812 14.535156-14.535156 14.535156s-14.535156-6.507813-14.535156-14.535156c0-8.027344 6.507812-14.535157 14.535156-14.535157s14.535156 6.507813 14.535156 14.535157zm0 0" fill="#a56021"/><path d="m157.539062 346.816406c0 8.027344-6.507812 14.535156-14.535156 14.535156s-14.535156-6.507812-14.535156-14.535156 6.507812-14.535156 14.535156-14.535156 14.535156 6.507812 14.535156 14.535156zm0 0" fill="#a56021"/><path d="m118.003906 32.203125c0 8.027344-6.507812 14.53125-14.535156 14.53125s-14.53125-6.503906-14.53125-14.53125 6.503906-14.535156 14.53125-14.535156 14.535156 6.507812 14.535156 14.535156zm0 0" fill="#ffd59a"/><path d="m22.234375 60.253906h28.46875v86.824219h-28.46875zm0 0" fill="#ffb74b"/></svg>