<svg height="477pt" viewBox="-89 0 477 477.334" width="477pt" xmlns="http://www.w3.org/2000/svg"><path d="m279.183594 186.152344c1.175781-6.433594 1.796875-13.039063 1.796875-19.777344 0-66.042969-58.757813-119.578125-131.242188-119.578125-72.480469 0-131.242187 53.539063-131.242187 119.578125 0 6.738281.621094 13.34375 1.796875 19.777344zm0 0" fill="#fff4c1"/><path d="m150.039062 427.886719h-.601562c-7.457031 0-13.503906-6.046875-13.503906-13.507813v-400.871094c0-7.460937 6.046875-13.507812 13.503906-13.507812h.601562c7.460938 0 13.507813 6.046875 13.507813 13.507812v400.871094c0 7.460938-6.046875 13.507813-13.507813 13.507813zm0 0" fill="#ff9079"/><path d="m150.464844 414.078125v-400.269531c0-4.957032 2.621094-9.289063 6.542968-11.722656-2.113281-1.3125-4.597656-2.085938-7.269531-2.085938-7.625 0-13.804687 6.183594-13.804687 13.808594v400.269531c0 7.625 6.179687 13.808594 13.804687 13.808594 2.671875 0 5.15625-.773438 7.269531-2.085938-3.921874-2.433593-6.542968-6.769531-6.542968-11.722656zm0 0" fill="#ff624b"/><path d="m221.398438 141.128906c8.421874-21.023437-2.203126-41.644531-9.996094-52.820312-3.347656-4.800782-11.199219-6.414063-17.128906-3.484375-3.257813 1.605469-5.269532 4.332031-5.589844 7.324219-2.851563 26.660156-76.566406 25.832031-76.566406 25.832031-38.960938 0-70.4375 24.953125-69.511719 55.453125.859375 28.375 30.257812 51.660156 66.679687 52.789062 25.808594.796875 48.628906-9.371094 61.453125-24.996094 9.371094 9.011719 23.957031 14.597657 40.1875 13.960938 24.960938-.976562 45.078125-16.914062 45.9375-36.359375.792969-17.925781-14.476562-33.167969-35.464843-37.699219zm0 0" fill="#fcda4f"/><path d="m53.605469 195.433594c-.925781-30.5 30.550781-55.453125 69.511719-55.453125 0 0 73.710937.828125 76.566406-25.832031.320312-2.992188 2.332031-5.71875 5.589844-7.324219 5.8125-2.871094 13.457031-1.371094 16.914062 3.210937-2.625-8.757812-7.03125-16.339844-10.785156-21.726562-3.347656-4.800782-11.199219-6.414063-17.128906-3.484375-3.257813 1.605469-5.269532 4.332031-5.589844 7.324219-2.855469 26.660156-76.566406 25.832031-76.566406 25.832031-38.960938 0-70.4375 24.953125-69.511719 55.453125.320312 10.589844 4.617187 20.46875 11.773437 28.753906-.429687-2.214844-.703125-4.464844-.773437-6.753906zm0 0" fill="#eacf32"/><path d="m211.546875 477.335938h-123.613281c-11.082032 0-20.597656-8.09375-22.65625-19.269532l-46.78125-254.132812h262.484375l-46.78125 254.132812c-2.058594 11.175782-11.570313 19.269532-22.652344 19.269532zm0 0" fill="#fff4c1"/><path d="m112.300781 458.066406-46.78125-254.132812h-47.023437l46.78125 254.132812c2.058594 11.175782 11.574218 19.265625 22.65625 19.265625h47.019531c-11.082031 0-20.59375-8.089843-22.652344-19.265625zm0 0" fill="#fce575"/><path d="m87.933594 457.277344c-1.394532 0-2.625-1.195313-2.925782-2.84375l-42.421874-230.441406h214.308593l-42.421875 230.441406c-.300781 1.648437-1.53125 2.84375-2.925781 2.84375zm0 0" fill="#ccc033"/><path d="m289.3125 210.007812h-279.144531c-5.523438 0-10-4.476562-10-10v-22.496093c0-5.523438 4.476562-10 10-10h279.144531c5.523438 0 10 4.476562 10 10v22.496093c0 5.523438-4.476562 10-10 10zm0 0" fill="#fff4c1"/><path d="m42.585938 169.628906h214.308593v56.476563h-214.308593zm0 0" fill="#eacf32"/><path d="m42.585938 223.992188 42.417968 230.441406c.304688 1.648437 1.535156 2.839844 2.925782 2.839844h24.226562l-42.945312-233.28125zm0 0" fill="#99af17"/><path d="m256.894531 169.625h-214.308593v40.382812h.515624v-13.871093c0-5.648438 4.578126-10.222657 10.222657-10.222657h203.570312zm0 0" fill="#fce575"/><path d="m65.519531 203.933594-2.417969-18.023438h-20.515624v40.195313h27.015624zm0 0" fill="#ccc033"/><path d="m43.101562 196.136719c0-5.648438 4.578126-10.222657 10.222657-10.222657h245.988281v-8.179687c0-5.644531-4.578125-10.222656-10.222656-10.222656h-278.699219c-5.648437 0-10.222656 4.578125-10.222656 10.222656v22.050781c0 5.644532 4.574219 10.222656 10.222656 10.222656h32.710937zm0 0" fill="#fce575"/><path d="m265.253906 207.722656h-213.308594c-3.3125 0-6-2.6875-6-6s2.6875-6 6-6h213.308594c3.3125 0 6 2.6875 6 6s-2.6875 6-6 6zm0 0" fill="#fff4c1"/><path d="m214.984375 315.96875c-.359375 0-.726563-.035156-1.09375-.101562-3.257813-.601563-5.414063-3.730469-4.8125-6.988282l4.691406-25.492187c.601563-3.261719 3.726563-5.421875 6.988281-4.816407 3.257813.601563 5.414063 3.730469 4.8125 6.988282l-4.691406 25.492187c-.535156 2.894531-3.058594 4.917969-5.894531 4.917969zm0 0" fill="#eacf32"/><path d="m194.035156 429.769531c-.359375 0-.726562-.03125-1.09375-.101562-3.257812-.601563-5.414062-3.726563-4.8125-6.984375l17.152344-93.183594c.601562-3.257812 3.730469-5.421875 6.988281-4.8125 3.257813.597656 5.414063 3.726562 4.8125 6.984375l-17.152343 93.183594c-.53125 2.890625-3.058594 4.914062-5.894532 4.914062zm0 0" fill="#eacf32"/><path d="m134.953125 385.4375c0 8.46875-6.863281 15.335938-15.332031 15.335938s-15.335938-6.867188-15.335938-15.335938 6.867188-15.332031 15.335938-15.332031 15.332031 6.863281 15.332031 15.332031zm0 0" fill="#99af17"/><path d="m162.328125 423.5625c0 8.46875-6.863281 15.332031-15.332031 15.332031s-15.335938-6.863281-15.335938-15.332031 6.867188-15.335938 15.335938-15.335938 15.332031 6.867188 15.332031 15.335938zm0 0" fill="#99af17"/><path d="m264.910156 155.105469c-3.230468 0-5.894531-2.566407-5.996094-5.816407-.921874-30.21875-31.097656-50.726562-31.402343-50.929687-2.753907-1.839844-3.5-5.5625-1.664063-8.316406 1.832032-2.753907 5.546875-3.507813 8.304688-1.675781 1.457031.964843 35.640625 24.0625 36.753906 60.554687.101562 3.3125-2.5 6.082031-5.8125 6.179687-.0625.003907-.121094.003907-.183594.003907zm0 0" fill="#fcf9de"/><path d="m59.386719 176.597656c0-66.042968 58.757812-119.578125 131.242187-119.578125 4.691406 0 9.324219.226563 13.886719.664063-16.671875-6.984375-35.222656-10.886719-54.777344-10.886719-72.480469 0-131.242187 53.535156-131.242187 119.578125 0 6.738281.621094 13.34375 1.796875 19.777344h39.515625c-.277344-3.152344-.421875-6.335938-.421875-9.554688zm0 0" fill="#fce575"/></svg>