<svg height="467pt" viewBox="0 -5 467.10772 467" width="467pt" xmlns="http://www.w3.org/2000/svg"><path d="m399.292969 88.945312v31.558594c0 49.816406-12.929688 99.082032-37.394531 142.472656-4.296876 7.617188-12.398438 12.351563-21.144532 12.351563h-50.898437l-3.003907-186.382813h-48.128906l3.777344 234.503907h90.789062c30.691407 0 59.117188-16.605469 74.191407-43.339844l.332031-.589844c25.914062-46.195312 39.605469-98.582031 39.605469-151.550781v-39.023438zm0 0" fill="#8c4c17"/><path d="m262.1875 343.140625-4.867188-302.320313h171.507813c21.109375 0 38.28125 17.171876 38.28125 38.28125v68.558594c0 52.96875-13.691406 105.355469-39.605469 151.546875l-.332031.59375c-15.074219 26.734375-43.503906 43.339844-74.191406 43.339844zm98.253906-48.125c8.746094 0 16.847656-4.730469 21.144532-12.351563 24.464843-43.390624 37.398437-92.65625 37.398437-142.46875v-32.664062c0-10.25-8.339844-18.585938-18.589844-18.585938h-94.167969l3.316407 206.074219h50.898437zm0 0" fill="#bf6c0d"/><path d="m262.1875 343.140625h90.792969c16.921875 0 33.148437-5.058594 46.835937-14.070313l-6.964844-68.589843c-3.433593 7.542969-7.183593 14.945312-11.265624 22.183593-4.296876 7.621094-12.398438 12.355469-21.144532 12.355469h-50.898437l-3.316407-206.074219h69.210938l-4.882812-48.125h-113.234376zm0 0" fill="#a56021"/><path d="m84.78125.0546875h-76.898438c-5.464843 0-9.269531 5.4296875-7.402343 10.5664065l28.097656 77.265625c2.835937 7.804687 8.832031 14.054687 16.511719 17.214843l45.949218 18.921876h27.292969v-123.9687505zm0 0" fill="#ffd551"/><path d="m74.621094 95.257812c-7.675782-3.160156-13.671875-9.410156-16.507813-17.214843l-28.097656-77.265625c-.085937-.242188-.148437-.484375-.214844-.7226565h-21.917969c-5.464843 0-9.269531 5.4296875-7.402343 10.5664065l28.097656 77.265625c2.835937 7.804687 8.832031 14.054687 16.511719 17.21875l45.949218 18.917969h27.292969v-10.765626zm0 0" fill="#f9bb32"/><path d="m327.753906 7.132812c-.40625-4.019531-3.792968-7.0781245-7.832031-7.0781245h-235.140625l-38.097656 375.3203125v31.53125c0 27.183594 22.035156 49.222656 49.222656 49.222656h220.007812c27.1875 0 49.226563-22.039062 49.226563-49.222656v-31.53125zm0 0" fill="#ffd551"/><path d="m95.90625 406.90625v-31.53125l38.097656-375.3203125h-49.222656l-38.097656 375.3203125v31.53125c0 27.183594 22.035156 49.222656 49.222656 49.222656h49.222656c-27.1875 0-49.222656-22.039062-49.222656-49.222656zm0 0" fill="#f9bb32"/><path d="m314.523438 173.78125c-3.042969 0-5.648438-2.304688-5.964844-5.394531l-4.222656-41.585938c-.332032-3.296875 2.066406-6.242187 5.363281-6.574219 3.289062-.328124 6.242187 2.0625 6.578125 5.359376l4.21875 41.585937c.335937 3.296875-2.0625 6.242187-5.363282 6.578125-.203124.019531-.40625.03125-.609374.03125zm0 0" fill="#fce575"/><path d="m333.0625 356.421875c-3.039062 0-5.648438-2.304687-5.960938-5.394531l-15.226562-149.960938c-.332031-3.296875 2.066406-6.242187 5.363281-6.578125 3.292969-.339843 6.242188 2.066407 6.578125 5.363281l15.222656 149.964844c.335938 3.296875-2.066406 6.238282-5.363281 6.574219-.203125.019531-.410156.03125-.613281.03125zm0 0" fill="#fce575"/><path d="m428.113281 239.34375c-1.765625 0-3.515625-.777344-4.699219-2.269531-2.0625-2.59375-1.632812-6.367188.960938-8.429688 16.941406-13.464843 21.691406-86.707031 20.707031-129.710937-.074219-3.3125 2.546875-6.058594 5.863281-6.136719 3.320313-.054687 6.058594 2.550781 6.132813 5.859375.007813.289062.636719 29.226562-1.902344 60.273438-3.566406 43.585937-11.199219 69.464843-23.332031 79.109374-1.101562.875-2.421875 1.304688-3.730469 1.304688zm0 0" fill="#e58d23"/><g fill="#f9bb32"><path d="m195.511719 410.9375c0 8.027344-6.507813 14.535156-14.53125 14.535156-8.027344 0-14.535157-6.507812-14.535157-14.535156s6.507813-14.535156 14.535157-14.535156c8.023437 0 14.53125 6.507812 14.53125 14.535156zm0 0"/><path d="m159.664062 330.925781c0 8.027344-6.507812 14.535157-14.535156 14.535157s-14.535156-6.507813-14.535156-14.535157c0-8.027343 6.507812-14.535156 14.535156-14.535156s14.535156 6.507813 14.535156 14.535156zm0 0"/><path d="m147.761719 387.933594c0 8.027344-6.507813 14.535156-14.53125 14.535156-8.027344 0-14.535157-6.507812-14.535157-14.535156s6.507813-14.53125 14.535157-14.53125c8.023437 0 14.53125 6.503906 14.53125 14.53125zm0 0"/></g></svg>