<svg height="477pt" viewBox="-81 0 477 477.334" width="477pt" xmlns="http://www.w3.org/2000/svg"><path d="m149.074219 39.316406h-95.402344l-49.320313 113.789063c-2.761718 6.367187-4.183593 13.238281-4.183593 20.179687v264.582032c0 21.796874 17.667969 39.46875 39.464843 39.46875h123.476563c21.796875 0 39.46875-17.671876 39.46875-39.46875v-264.582032c0-6.941406-1.425781-13.808594-4.1875-20.179687zm0 0" fill="#ffd551"/><path d="m41.988281 437.867188v-264.582032c0-6.941406 1.421875-13.808594 4.183594-20.179687l49.320313-113.789063h-41.820313l-49.320313 113.789063c-2.757812 6.371093-4.183593 13.238281-4.183593 20.179687v264.582032c0 21.796874 17.671875 39.46875 39.46875 39.46875h41.816406c-21.796875 0-39.464844-17.671876-39.464844-39.46875zm0 0" fill="#f9bb32"/><path d="m39.636719 461.652344c-13.117188 0-23.785157-10.671875-23.785157-23.785156v-264.582032c0-4.824218.972657-9.515625 2.890626-13.945312l45.222656-104.339844h74.8125l45.226562 104.34375c1.917969 4.425781 2.890625 9.117188 2.890625 13.941406v264.582032c0 13.113281-10.667969 23.785156-23.785156 23.785156zm0 0" fill="#ffeacf"/><path d="m306.371094 247.878906h-160.742188c-4.609375 0-8.222656 3.953125-7.8125 8.542969l5.710938 63.902344c.363281 4.042969 3.75 7.144531 7.8125 7.144531h1.730468l12.449219 137.003906c.664063 7.28125 6.867188 12.863282 14.300781 12.863282h92.328126c7.433593 0 13.636718-5.582032 14.296874-12.863282l12.453126-137.003906h1.761718c4.0625 0 7.453125-3.097656 7.8125-7.144531l5.710938-63.902344c.410156-4.589844-3.207032-8.542969-7.8125-8.542969zm0 0" fill="#ffd551"/><path d="m161.730469 56.082031h-120.714844c-6.628906 0-12-5.371093-12-12v-32.082031c0-6.628906 5.371094-12 12-12h120.714844c6.625 0 12 5.371094 12 12v32.082031c0 6.628907-5.375 12-12 12zm0 0" fill="#ffd551"/><path d="m70.835938 43.535156v-30.988281c0-6.929687 5.613281-12.546875 12.542968-12.546875h-41.820312c-6.925782 0-12.542969 5.617188-12.542969 12.546875v30.988281c0 6.929688 5.617187 12.546875 12.542969 12.546875h41.820312c-6.929687 0-12.542968-5.617187-12.542968-12.546875zm0 0" fill="#f9bb32"/><path d="m41.988281 173.285156c0-6.941406 1.421875-13.808594 4.183594-20.179687l42.519531-98.105469h-24.726562l-45.222656 104.339844c-1.921876 4.429687-2.894532 9.121094-2.894532 13.945312v264.582032c0 13.113281 10.671875 23.785156 23.785156 23.785156h10.328126c-5.003907-6.617188-7.976563-14.851563-7.976563-23.785156v-264.582032zm0 0" fill="#ffd59a"/><path d="m207.339844 464.472656-12.449219-137.003906h-1.730469c-4.0625 0-7.449218-3.101562-7.8125-7.144531l-5.710937-63.902344c-.410157-4.589844 3.203125-8.542969 7.8125-8.542969h-41.820313c-4.609375 0-8.222656 3.949219-7.8125 8.542969l5.710938 63.902344c.363281 4.042969 3.75 7.144531 7.8125 7.144531h1.730468l12.449219 137.003906c.664063 7.28125 6.867188 12.859375 14.300781 12.859375h41.820313c-7.4375.003907-13.640625-5.578125-14.300781-12.859375zm0 0" fill="#f9bb32"/><path d="m170.054688 327.46875 12.082031 132.949219h87.691406l12.082031-132.949219zm0 0" fill="#ffeacf"/><path d="m193.160156 327.46875h-23.105468l12.082031 132.949219h24.835937l-12.082031-132.949219zm0 0" fill="#ffd59a"/><path d="m255.601562 447.117188c-.195312 0-.386718-.007813-.585937-.027344-3.296875-.316406-5.710937-3.25-5.394531-6.546875l7.773437-80.558594c.316407-3.296875 3.242188-5.714844 6.546875-5.394531 3.300782.316406 5.714844 3.25 5.398438 6.546875l-7.773438 80.558593c-.300781 3.101563-2.914062 5.421876-5.964844 5.421876zm0 0" fill="#fcf9de"/><path d="m169.546875 234.210938c-3.3125 0-6-2.6875-6-6v-57.542969l-11.664063-33.03125c-1.105468-3.125.53125-6.550781 3.65625-7.65625 3.121094-1.101563 6.554688.535156 7.65625 3.660156l12.007813 34c.226563.640625.34375 1.316406.34375 2v58.570313c0 3.3125-2.6875 6-6 6zm0 0" fill="#fcf9de"/><path d="m149.175781 45.316406c-3.3125 0-6-2.6875-6-6v-26.09375c0-3.3125 2.6875-6 6-6s6 2.6875 6 6v26.09375c0 3.316406-2.6875 6-6 6zm0 0" fill="#ffdf74"/><path d="m281.652344 319.554688c-.226563 0-.457032-.011719-.6875-.039063-3.292969-.378906-5.65625-3.351563-5.277344-6.644531l5.503906-48.066406c.375-3.289063 3.351563-5.660157 6.644532-5.277344 3.292968.378906 5.652343 3.351562 5.277343 6.644531l-5.503906 48.066406c-.351563 3.058594-2.949219 5.316407-5.957031 5.316407zm0 0" fill="#fcf9de"/><g fill="#ffd59a"><path d="m126.785156 430.929688c0 8.660156-7.023437 15.683593-15.683594 15.683593-8.660156 0-15.683593-7.023437-15.683593-15.683593 0-8.664063 7.023437-15.683594 15.683593-15.683594 8.660157 0 15.683594 7.019531 15.683594 15.683594zm0 0"/><path d="m86.605469 393.945312c0 8.660157-7.023438 15.683594-15.683594 15.683594-8.664063 0-15.683594-7.023437-15.683594-15.683594 0-8.664062 7.019531-15.683593 15.683594-15.683593 8.660156 0 15.683594 7.019531 15.683594 15.683593zm0 0"/></g></svg>