<svg height="468pt" viewBox="-37 0 468 468.238" width="468pt" xmlns="http://www.w3.org/2000/svg"><path d="m370.609375 124.21875-51.496094-51.496094-17.3125 11.25h-20l-26.558593 18.179688 15.921874 23.261718 29.230469-20.003906c3.96875-2.71875 9.3125-2.222656 12.71875 1.179688l26.148438 26.148437c3.53125 3.535157 4.933593 8.679688 3.671875 13.519531l-17.890625 68.757813c-1.144531 4.40625-5.125 7.484375-9.675781 7.484375h-17.226563c-4.417969 0-8 3.582031-8 8v12.191406c0 4.417969 3.582031 8 8 8h39.019531c4.554688 0 8.53125-3.078125 9.679688-7.480468l.796875-3.066407 26.644531-102.410156c1.257812-4.839844-.136719-9.980469-3.671875-13.515625zm0 0" fill="#bf6c0d"/><path d="m366.839844 243.210938c-1.144532 4.402343-5.125 7.480468-9.675782 7.480468h-39.019531c-4.417969 0-8-3.582031-8-8v-12.191406c0-4.417969 3.582031-8 8-8h17.222657c4.554687 0 8.53125-3.078125 9.679687-7.484375l17.890625-68.757813c1.257812-4.839843-.140625-9.984374-3.675781-13.519531l-26.148438-26.148437c-3.402343-3.402344-8.75-3.898438-12.71875-1.179688l-29.226562 20.003906-15.925781-23.261718 45.734374-31.304688 2.804688-1.921875c3.972656-2.714843 9.316406-2.222656 12.71875 1.183594l2.402344 2.402344 51.707031 51.703125c3.535156 3.535156 4.929687 8.679687 3.671875 13.515625l-26.644531 102.414062zm0 0" fill="#ffa730"/><path d="m366.839844 243.210938c-1.144532 4.402343-5.125 7.480468-9.675782 7.480468h-39.019531c-4.417969 0-8-3.582031-8-8v-12.191406c0-4.417969 3.582031-8 8-8h17.222657c4.554687 0 8.53125-3.078125 9.679687-7.484375l17.890625-68.757813c1.257812-4.839843-.140625-9.984374-3.675781-13.519531l-26.148438-26.148437c-3.402343-3.402344-8.75-3.898438-12.71875-1.179688l-29.226562 20.003906-15.925781-23.261718 45.734374-31.304688 2.804688-1.921875c3.972656-2.714843 9.316406-2.222656 12.71875 1.183594l2.402344 2.402344 51.707031 51.703125c3.535156 3.535156 4.929687 8.679687 3.671875 13.515625l-26.644531 102.414062zm0 0" fill="#ffa730"/><path d="m318.546875 72.511719-43.304687 29.640625 15.921874 23.261718 29.230469-20.003906c.402344-.277344.820313-.507812 1.25-.71875l3.011719-19.371094c.132812-.875-.023438-1.769531-.449219-2.542968zm0 0" fill="#e58d23"/><path d="m78.675781 222.90625h187.390625v120.632812h-187.390625zm0 0" fill="#e58d23"/><path d="m266.066406 222.90625h-187.390625v120.632812h40v-62.847656c0-5.523437 4.476563-10 10-10h137.390625zm0 0" fill="#bf6c0d"/><path d="m270.375 250.691406h-196.011719c-4.929687 0-9.121093-3.59375-9.878906-8.464844l-24.609375-158.253906h264.988281l-24.605469 158.253906c-.757812 4.871094-4.953124 8.464844-9.882812 8.464844zm0 0" fill="#ffa730"/><path d="m270.375 301.519531h-196.011719c-4.929687 0-9.121093 3.59375-9.878906 8.464844l-23.171875 149.023437c-.753906 4.851563 2.996094 9.230469 7.90625 9.230469h246.304688c4.910156 0 8.660156-4.378906 7.90625-9.230469l-23.171876-149.023437c-.757812-4.871094-4.953124-8.464844-9.882812-8.464844zm0 0" fill="#ffa730"/><path d="m126.792969 250.691406h91.152343l21.519532-166.71875h-134.1875zm0 0" fill="#ffb74b"/><path d="m47.648438 137.148438 53.175781-53.175782h-96.699219c-3.5625 0-5.347656 4.308594-2.824219 6.828125 0 0 46.347657 46.347657 46.347657 46.347657zm0 0" fill="#ffa730"/><path d="m21.300781 90.800781c-2.523437-2.519531-.738281-6.828125 2.824219-6.828125h-20c-3.5625 0-5.347656 4.308594-2.824219 6.828125l46.347657 46.347657 10-10zm0 0" fill="#e58d23"/><path d="m304.863281 83.972656h-264.988281l10.335938-24.117187c2.367187-5.515625 7.789062-9.089844 13.789062-9.089844h213.703125c5.46875 0 10.5 2.972656 13.140625 7.761719zm0 0" fill="#bf6c0d"/><path d="m192.460938 50.765625h-41.175782l-10.601562-40.75c-1.320313-5.066406 2.503906-10.015625 7.742187-10.015625h46.894531c5.234376 0 9.058594 4.949219 7.742188 10.015625zm0 0" fill="#bf6c0d"/><path d="m217.945312 301.519531h-91.152343l-21.515625 166.71875h134.1875zm0 0" fill="#ffb74b"/><path d="m81.3125 459.007812 23.171875-149.023437c.757813-4.871094 4.953125-8.464844 9.878906-8.464844h-40c-4.929687 0-9.121093 3.589844-9.878906 8.464844l-23.171875 149.023437c-.753906 4.851563 2.996094 9.230469 7.90625 9.230469h40c-4.910156 0-8.660156-4.378906-7.90625-9.230469zm0 0" fill="#e58d23"/><path d="m104.484375 242.226562-24.609375-158.253906h-40l24.609375 158.253906c.757813 4.871094 4.953125 8.464844 9.878906 8.464844h40c-4.925781 0-9.121093-3.59375-9.878906-8.464844zm0 0" fill="#e58d23"/><path d="m175.425781 0h-27c-5.238281 0-9.0625 4.945312-7.742187 10.015625l10.601562 40.75h27l-10.601562-40.75c-1.320313-5.070313 2.503906-10.015625 7.742187-10.015625zm0 0" fill="#a56021"/><path d="m90.210938 71.855469c2.367187-5.515625 7.789062-9.089844 13.789062-9.089844h189.179688l-2.335938-4.238281c-2.640625-4.789063-7.671875-7.761719-13.140625-7.761719h-213.703125c-6 0-11.425781 3.574219-13.789062 9.089844l-10.335938 24.117187h45.144531zm0 0" fill="#a56021"/><path d="m145.105469 250.691406h81.070312l19.136719-166.71875h-119.347656zm0 0" fill="#ffc34c"/><path d="m226.175781 301.519531h-81.070312l-19.140625 166.71875h119.347656zm0 0" fill="#ffc34c"/><path d="m123.316406 250.691406h81.070313l19.140625-166.71875h-119.347656zm0 0" fill="#ffb74b"/><path d="m104.179688 83.972656 19.136718 166.71875h35.574219l-19.136719-166.71875zm0 0" fill="#ffc34c"/><path d="m204.386719 301.519531h-81.070313l-19.136718 166.71875h119.347656zm0 0" fill="#ffb74b"/><path d="m126.792969 301.519531-21.515625 166.71875h40l21.515625-166.71875zm0 0" fill="#ffc34c"/><g fill="#ffb74b"><path d="m266.492188 220.265625c-.296876 0-.59375-.023437-.894532-.070313-3.277344-.488281-5.539062-3.542968-5.046875-6.820312l15.488281-103.699219c.488282-3.277343 3.546876-5.539062 6.820313-5.050781 3.277344.492188 5.535156 3.542969 5.046875 6.820312l-15.488281 103.703126c-.445313 2.976562-3.007813 5.117187-5.925781 5.117187zm0 0"/><path d="m281.964844 438.964844c-2.890625 0-5.433594-2.09375-5.914063-5.035156l-12.804687-78.527344c-.53125-3.269532 1.6875-6.355469 4.957031-6.886719 3.269531-.535156 6.355469 1.683594 6.886719 4.957031l12.804687 78.523438c.53125 3.273437-1.6875 6.355468-4.957031 6.886718-.328125.054688-.652344.082032-.972656.082032zm0 0"/><path d="m359.082031 220.265625c-.507812 0-1.027343-.066406-1.542969-.203125-3.203124-.847656-5.109374-4.136719-4.257812-7.339844l19.332031-72.824218c.851563-3.203126 4.136719-5.109376 7.339844-4.261719 3.203125.851562 5.109375 4.136719 4.257813 7.339843l-19.332032 72.828126c-.714844 2.683593-3.140625 4.460937-5.796875 4.460937zm0 0"/></g><path d="m212.949219 444.292969c0 8.285156-6.714844 15-15 15-8.28125 0-15-6.714844-15-15 0-8.285157 6.71875-15 15-15 8.285156 0 15 6.714843 15 15zm0 0" fill="#ffa730"/><path d="m193.285156 399.878906c0 8.285156-6.71875 15-15 15-8.285156 0-15-6.714844-15-15s6.714844-15 15-15c8.28125 0 15 6.714844 15 15zm0 0" fill="#ffa730"/><path d="m187.035156 38.605469c-.472656 0-.957031-.058594-1.4375-.175781-3.21875-.792969-5.183594-4.046876-4.390625-7.261719l3.917969-15.886719c.792969-3.21875 4.042969-5.183594 7.261719-4.390625 3.214843.792969 5.179687 4.046875 4.386719 7.261719l-3.914063 15.886718c-.675781 2.734376-3.125 4.566407-5.824219 4.566407zm0 0" fill="#e58d23"/></svg>