<svg height="480pt" viewBox="0 -72 480.73911 480" width="480pt" xmlns="http://www.w3.org/2000/svg"><path d="m446.570312 153.667969c1.664063 14.414062-5.085937 31.613281-18.914062 44.53125-19.882812 18.574219-46.851562 21.253906-60.234375 5.988281-10.980469-12.523438-9.398437-33.230469 2.492187-50.519531h-28.007812c-2.277344 5.269531-3.984375 10.707031-5.042969 16.214843-3.707031 19.304688.828125 37.976563 12.441407 51.226563 11.613281 13.25 29.160156 19.765625 48.136718 17.878906 16.570313-1.648437 33.125-9.492187 46.609375-22.085937 13.484375-12.597656 22.695313-28.820313 25.929688-45.675782 1.148437-5.960937 1.5-11.859374 1.109375-17.558593zm0 0" fill="#db9c2e"/><path d="m467.035156 138.984375c-11.613281-13.25-29.160156-19.765625-48.136718-17.878906-16.570313 1.644531-33.125 9.488281-46.609376 22.085937-13.484374 12.597656-22.695312 28.820313-25.933593 45.675782-3.707031 19.304687.828125 37.976562 12.441406 51.226562 11.613281 13.246094 29.160156 19.765625 48.136719 17.878906 16.570312-1.644531 33.125-9.492187 46.609375-22.089844 13.484375-12.59375 22.695312-28.816406 25.929687-45.671874 3.710938-19.308594-.824218-37.976563-12.4375-51.226563zm-29.886718 78.199219c-19.882813 18.574218-46.851563 21.253906-60.234376 5.984375-13.386718-15.265625-8.117187-42.703125 11.769532-61.277344 19.882812-18.570313 46.851562-21.253906 60.234375-5.984375 13.382812 15.265625 8.113281 42.703125-11.769531 61.277344zm0 0" fill="#ffd551"/><path d="m443.078125 210.859375c-1.804687 2.191406-3.773437 4.3125-5.929687 6.324219-19.882813 18.574218-46.851563 21.253906-60.234376 5.988281-13.382812-15.269531-8.113281-42.703125 11.769532-61.277344 14.554687-13.597656 32.902344-18.664062 46.945312-14.421875-2.878906-9.652344-6.277344-18.640625-9.746094-26.683594-2.300781-.023437-4.632812.082032-6.984374.316407-16.570313 1.644531-33.121094 9.492187-46.609376 22.085937-13.484374 12.597656-22.695312 28.820313-25.929687 45.675782-3.710937 19.304687.824219 37.976562 12.4375 51.226562 11.613281 13.246094 29.160156 19.765625 48.140625 17.878906 8.828125-.878906 17.648438-3.53125 26.003906-7.710937 5.84375-12.945313 8.976563-26.238281 10.136719-39.402344zm0 0" fill="#f9bb32"/><path d="m175.128906 201.542969c-53.988281-.167969-97.5-45.058594-97.269531-100.304688v-12.882812c0-3.671875-2.972656-6.644531-6.640625-6.644531h-63.625c-4.195312 0-7.59375 3.398437-7.59375 7.59375v9.101562c0 2.28125 1.027344 4.441406 2.796875 5.882812l18.582031 15.152344c.011719.011719 12.738282 11.558594 23.617188 37.980469l.003906-.003906c16.523438 46.625 51.304688 107.882812 122.289062 125.507812l9.265626-81.394531c-.476563.003906-.949219.015625-1.425782.011719zm0 0" fill="#ffd551"/><path d="m63.984375 138.4375h-.003906c-10.878907-26.421875-23.609375-37.96875-23.617188-37.980469l-18.582031-15.152343c-1.160156-.945313-1.992188-2.199219-2.433594-3.59375h-11.753906c-4.195312 0-7.59375 3.398437-7.59375 7.59375v9.097656c0 2.285156 1.027344 4.445312 2.796875 5.886718l18.582031 15.152344c.011719.011719 12.738282 11.558594 23.617188 37.980469l.003906-.003906c16.523438 46.625 51.304688 107.882812 122.289062 125.507812l2.730469-23.988281c-60.140625-22.273438-90.824219-77.585938-106.035156-120.5zm0 0" fill="#f9bb32"/><path d="m237.628906 9.65625 7.125 32.664062h20.425782l7.125-32.664062c0-5.128906-5.75-9.285156-12.839844-9.285156h-8.996094c-7.089844 0-12.839844 4.15625-12.839844 9.285156zm0 0" fill="#db9c2e"/><path d="m261.609375.507812c-.699219-.082031-1.414063-.136718-2.144531-.136718h-8.996094c-7.09375 0-12.839844 4.15625-12.839844 9.285156l7.125 32.660156h13.289063l-7.128907-32.660156c0-4.597656 4.628907-8.40625 10.695313-9.148438zm0 0" fill="#bf6c0d"/><path d="m314.121094 336.761719h-117.566406c-11.046876 0-20-8.953125-20-20v-26.984375h157.566406v26.984375c0 11.042969-8.953125 20-20 20zm0 0" fill="#f9bb32"/><path d="m366.925781 81.710938h-224.863281s-97.402344 139.320312 16.773438 221.335937c7.832031 6.386719 17.832031 10.222656 28.730468 10.222656h133.855469c10.898437 0 20.898437-3.835937 28.734375-10.222656 114.171875-82.015625 16.769531-221.335937 16.769531-221.335937zm0 0" fill="#ffd551"/><path d="m146.15625 82.777344h216.132812c3.460938 0 5.273438-4.152344 2.890626-6.664063-27.335938-28.800781-66.917969-46.910156-110.957032-46.910156-44.039062 0-83.621094 18.109375-110.953125 46.910156-2.382812 2.511719-.574219 6.664063 2.886719 6.664063zm0 0" fill="#db9c2e"/><path d="m189.523438 81.710938h-47.460938s-97.402344 139.320312 16.773438 221.335937c7.832031 6.390625 17.832031 10.222656 28.730468 10.222656h47.460938c-10.898438 0-20.898438-3.835937-28.734375-10.222656-114.171875-82.015625-16.769531-221.335937-16.769531-221.335937zm0 0" fill="#f9bb32"/><path d="m190.726562 76.117188c22.324219-23.523438 52.8125-39.90625 87.226563-45.125-7.730469-1.171876-15.652344-1.789063-23.730469-1.789063-44.039062 0-83.621094 18.113281-110.953125 46.914063-2.382812 2.507812-.574219 6.660156 2.886719 6.660156h47.460938c-3.460938 0-5.273438-4.152344-2.890626-6.660156zm0 0" fill="#bf6c0d"/><path d="m339.402344 78.035156c-1.929688 0-3.828125-.929687-4.984375-2.652344-8.164063-12.148437-32.710938-21.371093-41.480469-23.898437-3.183594-.917969-5.023438-4.242187-4.105469-7.425781.914063-3.183594 4.234375-5.023438 7.421875-4.105469 1.457032.417969 35.84375 10.460937 48.125 28.738281 1.847656 2.75 1.117188 6.476563-1.632812 8.324219-1.027344.691406-2.191406 1.019531-3.34375 1.019531zm0 0" fill="#f9bb32"/><path d="m319.246094 287.777344c-2.324219 0-4.535156-1.355469-5.511719-3.625-1.3125-3.042969.089844-6.574219 3.132813-7.886719 46.207031-19.929687 53.320312-66.480469 53.386718-66.949219.464844-3.28125 3.503906-5.5625 6.785156-5.097656 3.28125.46875 5.5625 3.503906 5.097657 6.785156-.3125 2.183594-8.195313 53.714844-60.519531 76.28125-.773438.335938-1.582032.492188-2.371094.492188zm0 0" fill="#fce575"/><g fill="#f9bb32"><path d="m200.265625 233.289062c0 7.863282-6.375 14.238282-14.238281 14.238282-7.863282 0-14.238282-6.375-14.238282-14.238282 0-7.863281 6.375-14.238281 14.238282-14.238281 7.863281 0 14.238281 6.375 14.238281 14.238281zm0 0"/><path d="m245.238281 282.925781c0 7.863281-6.375 14.238281-14.238281 14.238281s-14.238281-6.375-14.238281-14.238281 6.375-14.238281 14.238281-14.238281 14.238281 6.375 14.238281 14.238281zm0 0"/><path d="m251.863281 241.730469c0 7.863281-6.371093 14.238281-14.234375 14.238281-7.867187 0-14.238281-6.375-14.238281-14.238281s6.371094-14.238281 14.238281-14.238281c7.863282 0 14.234375 6.375 14.234375 14.238281zm0 0"/></g></svg>