<svg height="424pt" viewBox="0 0 424 424.09238" width="424pt" xmlns="http://www.w3.org/2000/svg"><path d="m243.5 223.53125 49.769531 49.769531-19.917969 19.917969-49.769531-49.769531zm0 0" fill="#f9bb32"/><path d="m223.578125 243.453125 7.070313-7.070313 49.769531 49.769532-7.070313 7.070312zm0 0" fill="#db9c2e"/><path d="m238.027344 371.261719 13.550781-13.550781c-9.074219-29.132813-2.117187-62.226563 20.914063-85.261719 23.035156-23.03125 56.128906-29.988281 85.261718-20.914063l12.855469-12.855468c5.859375-5.855469 15.355469-5.855469 21.214844 0l-14.144531-14.140626c-5.855469-5.859374-15.355469-5.859374-21.210938 0l-12.855469 12.855469c-29.132812-9.078125-62.230469-2.117187-85.261719 20.914063s-29.988281 56.128906-20.914062 85.261718l-13.550781 13.550782c-5.859375 5.859375-5.859375 15.355468 0 21.210937l14.140625 14.144531c-5.855469-5.859374-5.855469-15.355468 0-21.214843zm0 0" fill="#bf6c0d"/><path d="m93.582031 57.964844.046875-.050782-25.296875-25.296874-35.621093 35.621093 25.296874 25.296875s131.953126 134.035156 154.632813 141.535156l22.476563-22.476562c-7.5-22.679688-141.535157-154.628906-141.535157-154.628906zm0 0" fill="#bf6c0d"/><path d="m76.839844 77.078125 17.9375-17.933594c-.78125-.773437-1.195313-1.183593-1.195313-1.183593l.046875-.046876-25.296875-25.296874-6.59375 6.59375-17.003906 17.007812-5.476563 5.472656-6.546874 6.546875 25.296874 25.296875s131.949219 134.035156 154.628907 141.535156l12.023437-12.019531c-19.578125-6.476562-120.585937-107.246093-147.84375-134.683593-3.105468-3.125-3.09375-8.171876.023438-11.289063zm0 0" fill="#a56021"/><path d="m31.285156 84.449219-27.722656-27.722657c-4.6875-4.6875-4.6875-12.285156 0-16.972656l36.238281-36.238281c4.6875-4.6875 12.285157-4.6875 16.972657 0l27.722656 27.722656c4.6875 4.6875 4.6875 12.285157 0 16.972657l-36.238282 36.238281c-4.6875 4.6875-12.285156 4.6875-16.972656 0zm0 0" fill="#ccc033"/><path d="m26.894531 61.675781c-4.683593-4.6875-4.683593-12.285156 0-16.972656l35.53125-35.53125-5.65625-5.65625c-4.683593-4.6875-12.28125-4.6875-16.96875 0l-36.238281 36.238281c-4.6875 4.6875-4.6875 12.285156 0 16.972656l27.722656 27.722657c4.683594 4.6875 12.285156 4.6875 16.96875 0l.707032-.707031zm0 0" fill="#99af17"/><path d="m219.710938 255.332031-8.011719-8.007812c-3.125-3.125-3.125-8.191407 0-11.316407l23.054687-23.054687c3.125-3.121094 8.191406-3.121094 11.3125 0l8.011719 8.011719c3.125 3.125 3.125 8.191406 0 11.316406l-23.054687 23.050781c-3.125 3.125-8.1875 3.125-11.3125 0zm0 0" fill="#ffdf74"/><path d="m226.546875 246.617188c-3.121094-3.125-3.121094-8.191407 0-11.316407l20.933594-20.933593-1.414063-1.414063c-3.121094-3.121094-8.1875-3.121094-11.3125 0l-23.054687 23.054687c-3.125 3.125-3.125 8.191407 0 11.316407l8.011719 8.007812c3.125 3.125 8.191406 3.125 11.3125 0l2.121093-2.121093zm0 0" fill="#ffc34c"/><path d="m385.277344 385.234375c23.035156-23.035156 29.992187-56.128906 20.914062-85.261719l12.855469-12.855468c5.859375-5.859376 5.859375-15.355469 0-21.214844l-34.292969-34.292969c-5.859375-5.859375-15.355468-5.859375-21.214844 0l-12.855468 12.855469c-29.132813-9.078125-62.226563-2.117188-85.261719 20.914062-23.03125 23.03125-29.988281 56.128906-20.914063 85.261719l-13.550781 13.550781c-5.855469 5.859375-5.855469 15.355469 0 21.210938l34.296875 34.296875c5.855469 5.859375 15.355469 5.859375 21.210938 0l13.554687-13.550781c29.132813 9.074218 62.226563 2.117187 85.257813-20.914063zm0 0" fill="#db9c2e"/><path d="m395.101562 325.304688c0 38.523437-31.226562 69.75-69.75 69.75-38.523437 0-69.75-31.226563-69.75-69.75 0-38.519532 31.226563-69.75 69.75-69.75 38.523438 0 69.75 31.230468 69.75 69.75zm0 0" fill="#f9bb32"/><path d="m390.101562 325.304688c0 35.761718-28.988281 64.75-64.75 64.75-35.761718 0-64.75-28.988282-64.75-64.75 0-35.757813 28.988282-64.75 64.75-64.75 35.761719 0 64.75 28.992187 64.75 64.75zm0 0" fill="#ffd551"/><path d="m291.585938 359.953125c-24.546876-24.546875-26.929688-62.992187-7.160157-90.246094-2.9375 2.132813-5.75 4.515625-8.394531 7.160157-27.195312 27.195312-27.195312 71.445312 0 98.640624 27.195312 27.195313 71.445312 27.195313 98.640625 0 2.648437-2.644531 5.027344-5.457031 7.160156-8.394531-27.253906 19.769531-65.695312 17.390625-90.246093-7.160156zm0 0" fill="#f9bb32"/><path d="m217.265625 210.046875c-2.164063 0-4.25-1.171875-5.320313-3.21875-1.933593-3.6875-16.03125-17.738281-28.546874-29.1875-2.441407-2.238281-2.609376-6.035156-.375-8.480469 2.234374-2.441406 6.035156-2.609375 8.476562-.375 4.511719 4.128906 27.207031 25.09375 31.074219 32.480469 1.539062 2.933594.40625 6.558594-2.53125 8.097656-.890625.464844-1.839844.683594-2.777344.683594zm0 0" fill="#f9bb32"/><path d="m74.894531 45.132812c-1.535156 0-3.070312-.585937-4.242187-1.757812l-13.007813-13.007812c-2.34375-2.34375-2.34375-6.140626 0-8.484376s6.140625-2.34375 8.484375 0l13.007813 13.007813c2.34375 2.34375 2.34375 6.140625 0 8.484375-1.171875 1.171875-2.707031 1.757812-4.242188 1.757812zm0 0" fill="#eacf32"/><g fill="#f9bb32"><path d="m410.0625 282.71875c-1.535156 0-3.070312-.585938-4.242188-1.757812l-28.136718-28.140626c-2.347656-2.339843-2.347656-6.140624 0-8.484374 2.339844-2.34375 6.140625-2.34375 8.480468 0l28.140626 28.140624c2.34375 2.34375 2.34375 6.140626 0 8.484376-1.167969 1.171874-2.707032 1.757812-4.242188 1.757812zm0 0"/><path d="m333.734375 285.570312c0 8.285157-6.71875 15-15 15-8.285156 0-15-6.714843-15-15 0-8.285156 6.714844-15 15-15 8.28125 0 15 6.714844 15 15zm0 0"/></g></svg>