<svg height="463pt" viewBox="-31 0 463 463.27" width="463pt" xmlns="http://www.w3.org/2000/svg"><path d="m358.40625 151.917969v69.351562c0 14.261719-3.875 28.261719-11.214844 40.496094l-10.710937 17.851563c-1.898438 3.160156-5.3125 5.09375-9 5.09375h-45.140625v-138.535157h-28.289063v166.824219h89.449219c3.6875 0 7.101562-1.933594 8.996094-5.097656l22.984375-38.304688c7.339843-12.234375 11.214843-26.230468 11.214843-40.496094v-82.925781h-29.386718c.703125 1.777344 1.097656 3.710938 1.097656 5.742188zm0 0" fill="#ffb74b"/><path d="m384.953125 117.886719h-116.902344v205.113281h89.449219c3.6875 0 7.101562-1.933594 8.996094-5.09375l22.984375-38.308594c7.339843-12.230468 11.214843-26.230468 11.214843-40.492187v-105.476563c0-8.695312-7.046874-15.742187-15.742187-15.742187zm-12.546875 113.382812c0 14.261719-3.875 28.261719-11.214844 40.496094l-10.710937 17.851563c-1.898438 3.160156-5.3125 5.09375-9 5.09375h-45.140625v-148.535157h60.324218c8.695313 0 15.742188 7.046875 15.742188 15.738281zm0 0" fill="#ffeacf"/><path d="m368.179688 256.691406c-1.785157 5.234375-4.117188 10.289063-6.988282 15.070313l-10.710937 17.851562c-1.898438 3.164063-5.3125 5.097657-9 5.097657h-45.140625v-148.535157h60.324218c.707032 0 1.398438.0625 2.078126.152344l-2.429688-28.441406h-88.261719v205.113281h89.445313c3.6875 0 7.105468-1.933594 9-5.09375l6.054687-10.085938zm0 0" fill="#ffd59a"/><path d="m215.460938 13.53125 7.507812 47.585938h21.519531l7.507813-47.585938c0-7.472656-6.058594-13.53125-13.53125-13.53125h-9.472656c-7.472657 0-13.53125 6.058594-13.53125 13.53125zm0 0" fill="#a56021"/><path d="m241.230469.285156c-.894531-.183594-1.816407-.285156-2.765625-.285156h-9.472656c-7.472657 0-13.53125 6.058594-13.53125 13.53125l7.507812 47.585938h15l-7.507812-47.585938c0-6.527344 4.621093-11.972656 10.769531-13.246094zm0 0" fill="#8c4c17"/><path d="m141.894531 231.34375c-44.511719-.191406-80.386719-50.902344-80.199219-113.308594 0-1.585937-1.285156-2.867187-2.867187-2.867187h-54.488281c-3.574219 0-5.511719 4.183593-3.203125 6.910156l13.992187 16.519531s10.5 13.042969 19.472656 42.902344c13.625 52.667969 42.304688 121.859375 100.832032 141.773438l7.636718-91.949219c-.394531.007812-.785156.019531-1.175781.019531zm0 0" fill="#ffeacf"/><path d="m64.601562 181.5c-8.972656-29.859375-19.472656-42.902344-19.472656-42.902344l-13.992187-16.519531c-2.308594-2.726563-.371094-6.910156 3.203125-6.910156h18.707031-48.707031c-3.574219 0-5.511719 4.183593-3.203125 6.910156l13.992187 16.519531s10.5 13.042969 19.472656 42.902344c13.625 52.667969 42.304688 121.859375 100.832032 141.773438l1.253906-15.136719c-39.597656-29.117188-60.910156-83.433594-72.085938-126.636719zm0 0" fill="#ffd59a"/><path d="m304.664062 463.269531h-141.871093c-6.628907 0-12-5.371093-12-12v-23.832031h165.871093v23.832031c0 6.628907-5.371093 12-12 12zm0 0" fill="#8c4c17"/><path d="m338.449219 376.828125h-209.441407l25.285157-295.773437c.179687-2.105469 1.941406-3.71875 4.050781-3.71875h150.769531c2.109375 0 3.871094 1.613281 4.050781 3.71875zm0 0" fill="#ffeacf"/><path d="m303.449219 445.351562h-139.441407c-19.332031 0-35-15.667968-35-35v-33.523437h209.441407v33.523437c0 19.332032-15.667969 35-35 35zm0 0" fill="#a56021"/><path d="m198.34375 77.335938h-40c-2.109375 0-3.871094 1.617187-4.050781 3.71875l-25.285157 295.773437h40l25.285157-295.773437c.179687-2.101563 1.941406-3.71875 4.050781-3.71875zm0 0" fill="#ffd59a"/><path d="m169.007812 410.351562v-33.523437h-40v33.523437c0 19.332032 15.667969 35 35 35h40c-19.332031 0-35-15.667968-35-35zm0 0" fill="#8c4c17"/><path d="m307.84375 77.335938h-148.230469c-2.761719 0-5-2.238282-5-5v-6.480469c0-11.019531 8.929688-19.953125 19.949219-19.953125h118.332031c11.019531 0 19.953125 8.933594 19.953125 19.953125v6.480469c-.003906 2.761718-2.242187 5-5.003906 5zm0 0" fill="#a56021"/><path d="m214.5625 57.902344h96.625c-3.074219-7.058594-10.101562-12-18.292969-12h-118.332031c-11.019531 0-19.953125 8.933594-19.953125 19.953125v6.480469c0 2.761718 2.242187 5 5 5h35.027344c.277343-10.777344 9.082031-19.433594 19.925781-19.433594zm0 0" fill="#8c4c17"/><path d="m314.648438 338.425781c-3.085938 0-5.707032-2.363281-5.972657-5.492187l-12.144531-142.042969c-.28125-3.300781 2.164062-6.207031 5.46875-6.488281 3.296875-.285156 6.207031 2.164062 6.488281 5.464844l12.144531 142.046874c.28125 3.300782-2.164062 6.207032-5.46875 6.488282-.171874.015625-.347656.023437-.515624.023437zm0 0" fill="#fcf9de"/><path d="m300.839844 168.628906c-3.082032 0-5.703125-2.363281-5.972656-5.492187l-.800782-9.402344c-.285156-3.304687 2.164063-6.207031 5.464844-6.492187 3.296875-.28125 6.207031 2.167968 6.488281 5.46875l.804688 9.40625c.285156 3.300781-2.164063 6.207031-5.464844 6.488281-.175781.015625-.347656.023437-.519531.023437zm0 0" fill="#fcf9de"/><path d="m298.300781 439.699219c-.773437 0-1.558593-.023438-2.355469-.078125-3.304687-.21875-5.808593-3.074219-5.589843-6.382813.21875-3.304687 3.082031-5.808593 6.382812-5.589843 5.328125.351562 9.300781-.972657 12.140625-4.050782 6.984375-7.574218 6.328125-24.046875 5.488282-29.753906-.484376-3.277344 1.78125-6.328125 5.058593-6.8125 3.277344-.484375 6.328125 1.78125 6.8125 5.058594.394531 2.683594 3.519531 26.574218-8.539062 39.644531-4.832031 5.238281-11.503907 7.964844-19.398438 7.964844zm0 0" fill="#bf6c0d"/><g fill="#ffd59a"><path d="m213.34375 319.074219c0 8.28125-6.714844 15-15 15s-15-6.71875-15-15c0-8.285157 6.714844-15 15-15s15 6.714843 15 15zm0 0"/><path d="m243.34375 355.3125c0 8.285156-6.714844 15-15 15-8.28125 0-15-6.714844-15-15s6.71875-15 15-15c8.285156 0 15 6.714844 15 15zm0 0"/></g></svg>