<svg height="456pt" viewBox="-69 0 456 456.68599" width="456pt" xmlns="http://www.w3.org/2000/svg"><path d="m274.496094 127.730469c0-70.542969-51.664063-127.730469-115.390625-127.730469-63.730469 0-115.394531 57.1875-115.394531 127.730469 0 70.546875 51.664062 127.734375 115.394531 127.734375 63.726562 0 115.390625-57.1875 115.390625-127.734375zm0 0" fill="#bf6c0d"/><path d="m80.695312 25.980469c-9.9375-3.160157-21.375 4.929687-25.554687 18.070312-4.175781 13.136719.492187 26.347657 10.425781 29.507813 9.933594 3.15625 21.375-4.933594 25.550782-18.070313 4.179687-13.140625-.488282-26.351562-10.421876-29.507812zm0 0" fill="#a56021"/><path d="m62.101562 46.289062c3.660157-11.566406 12.949219-19.234374 21.902344-18.773437-1.039062-.652344-2.15625-1.171875-3.351562-1.550781-9.941406-3.136719-21.371094 4.980468-25.53125 18.121094-4.160156 13.144531.527344 26.34375 10.472656 29.476562 1.195312.378906 2.410156.589844 3.632812.652344-7.59375-4.757813-10.78125-16.359375-7.125-27.925782zm0 0" fill="#8c4c17"/><path d="m66.195312 74.160156c-.917968 0-1.804687-.507812-2.242187-1.386718-5.859375-11.808594.890625-20.421876 5.28125-23.324219 5.839844-3.761719 9.199219-7.808594 10.007813-12.042969.820312-4.296875-1.308594-7.335938-1.398438-7.464844-.800781-1.113281-.558594-2.675781.550781-3.484375 1.109375-.808593 2.65625-.578125 3.476563.523438.140625.191406 3.480468 4.785156 2.308594 11.234375-1.035157 5.679687-5.144532 10.871094-12.210938 15.421875-.332031.222656-8.867188 6.164062-3.535156 16.914062.617187 1.234375.109375 2.734375-1.125 3.347657-.359375.179687-.738282.261718-1.113282.261718zm0 0" fill="#8c4c17"/><path d="m119.167969 41.007812c-6.621094-12.09375-19.398438-17.84375-28.542969-12.839843-9.144531 5.003906-11.195312 18.867187-4.578125 30.960937s19.394531 17.84375 28.542969 12.839844c9.144531-5.003906 11.195312-18.867188 4.578125-30.960938zm0 0" fill="#a56021"/><path d="m92.476562 55.636719c-5.835937-10.632813-4.96875-22.648438 1.546876-28.804688-1.1875.300781-2.335938.746094-3.433594 1.351563-9.136719 5.023437-11.160156 18.894531-4.527344 30.980468 6.632812 12.085938 19.414062 17.808594 28.546875 12.785157 1.097656-.605469 2.09375-1.335938 2.984375-2.179688-8.6875 2.207031-19.28125-3.5-25.117188-14.132812zm0 0" fill="#8c4c17"/><path d="m113.652344 72.699219c-.246094 0-.496094-.035157-.746094-.113281-12.585938-3.914063-14.152344-14.742188-13.222656-19.925782 1.316406-6.820312.710937-12.042968-1.792969-15.554687-2.542969-3.5625-6.210937-4.121094-6.367187-4.140625-1.359376-.195313-2.320313-1.449219-2.136719-2.808594.179687-1.359375 1.421875-2.320312 2.773437-2.152344.238282.03125 5.871094.785156 9.722656 6.089844 3.394532 4.671875 4.308594 11.226562 2.71875 19.480469-.066406.394531-1.664062 10.671875 9.789063 14.238281 1.320313.40625 2.054687 1.808594 1.644531 3.128906-.328125 1.070313-1.316406 1.757813-2.382812 1.757813zm0 0" fill="#8c4c17"/><path d="m137.570312 45.113281c-10.421874-.246093-19.132812 10.730469-19.457031 24.511719s7.859375 25.152344 18.28125 25.398438c10.421875.246093 19.132813-10.726563 19.457031-24.507813.328126-13.78125-7.859374-25.15625-18.28125-25.402344zm0 0" fill="#a56021"/><path d="m125.4375 69.820312c.269531-12.125 7.035156-22.09375 15.757812-24.160156-1.179687-.335937-2.398437-.523437-3.652343-.550781-10.421875-.222656-19.117188 10.773437-19.425781 24.554687-.308594 13.78125 7.894531 25.136719 18.316406 25.359376 1.25.027343 2.476562-.113282 3.667968-.394532-8.621093-2.4375-14.9375-12.683594-14.664062-24.808594zm0 0" fill="#8c4c17"/><path d="m136.476562 95.527344c-.671874 0-1.34375-.269532-1.835937-.804688-8.941406-9.691406-4.871094-19.851562-1.476563-23.867187 4.585938-5.285157 6.675782-10.140625 6.226563-14.457031-.453125-4.3125-3.382813-6.644532-3.414063-6.667969-1.101562-.832031-1.316406-2.402344-.484374-3.503907.835937-1.097656 2.402343-1.3125 3.503906-.480468.191406.144531 4.6875 3.617187 5.367187 10.136718.597657 5.742188-1.890625 11.875-7.398437 18.226563-.253906.308594-6.785156 8.40625 1.351562 17.226563.933594 1.015624.871094 2.597656-.144531 3.53125-.480469.441406-1.089844.660156-1.695313.660156zm0 0" fill="#8c4c17"/><path d="m175.902344 26.558594c-9.933594-3.160156-21.375 4.929687-25.550782 18.070312-4.175781 13.136719.492188 26.347656 10.425782 29.507813 9.933594 3.15625 21.375-4.933594 25.550781-18.070313 4.179687-13.136718-.488281-26.347656-10.425781-29.507812zm0 0" fill="#a56021"/><path d="m157.308594 46.867188c3.660156-11.5625 12.949218-19.234376 21.898437-18.773438-1.035156-.648438-2.152343-1.171875-3.347656-1.550781-9.941406-3.132813-21.375 4.980469-25.53125 18.121093-4.160156 13.144532.527344 26.34375 10.472656 29.476563 1.191407.378906 2.410157.589844 3.632813.652344-7.59375-4.757813-10.785156-16.359375-7.125-27.925781zm0 0" fill="#8c4c17"/><path d="m161.402344 74.742188c-.917969 0-1.804688-.511719-2.242188-1.390626-5.859375-11.808593.890625-20.421874 5.277344-23.324218 5.84375-3.761719 9.203125-7.804688 10.011719-12.039063.820312-4.300781-1.308594-7.339843-1.398438-7.46875-.800781-1.113281-.558593-2.675781.550781-3.484375 1.109376-.804687 2.65625-.578125 3.476563.523438.140625.191406 3.480469 4.789062 2.308594 11.234375-1.035157 5.683593-5.144531 10.871093-12.210938 15.421875-.332031.222656-8.867187 6.167968-3.535156 16.914062.617187 1.234375.109375 2.734375-1.125 3.351563-.359375.175781-.738281.261719-1.113281.261719zm0 0" fill="#8c4c17"/><path d="m222.671875 65.210938c-1.832031-13.664063-11.695313-23.617188-22.027344-22.234376-10.332031 1.386719-17.222656 13.585938-15.390625 27.25 1.832032 13.664063 11.695313 23.617188 22.027344 22.230469s17.222656-13.585937 15.390625-27.246093zm0 0" fill="#a56021"/><path d="m192.519531 69.296875c-1.628906-12.019531 3.5-22.921875 11.789063-26.328125-1.214844-.144531-2.449219-.140625-3.6875.027344-10.332032 1.410156-17.203125 13.628906-15.355469 27.289062 1.851563 13.664063 11.722656 23.59375 22.050781 22.1875 1.242188-.171875 2.433594-.496094 3.566406-.960937-8.898437-1.0625-16.734374-10.195313-18.363281-22.214844zm0 0" fill="#8c4c17"/><path d="m207.050781 92.996094c-.542969 0-1.09375-.175782-1.550781-.539063-10.34375-8.175781-7.914062-18.847656-5.183594-23.347656 3.675782-5.894531 4.988282-10.984375 3.910156-15.160156-1.089843-4.234375-4.316406-6.078125-4.453124-6.152344-1.199219-.667969-1.644532-2.183594-.988282-3.386719.660156-1.207031 2.15625-1.65625 3.367188-1.011718.210937.113281 5.191406 2.839843 6.882812 9.171874 1.488282 5.582032-.011718 12.027344-4.460937 19.160157-.203125.34375-5.386719 9.363281 4.027343 16.804687 1.082032.855469 1.265626 2.425782.410157 3.511719-.492188.625-1.222657.949219-1.960938.949219zm0 0" fill="#8c4c17"/><path d="m265.21875 51.292969c-7.898438-11.296875-21.230469-15.613281-29.773438-9.640625-8.546874 5.972656-9.066406 19.976562-1.167968 31.273437 7.898437 11.300781 21.230468 15.617188 29.773437 9.644531 8.542969-5.972656 9.066407-19.976562 1.167969-31.277343zm0 0" fill="#a56021"/><path d="m240.285156 68.769531c-6.964844-9.933593-7.414062-21.972656-1.609375-28.800781-1.148437.425781-2.242187.996094-3.265625 1.71875-8.53125 5.992188-9.03125 20-1.117187 31.289062 7.914062 11.289063 21.246093 15.582032 29.777343 9.589844 1.023438-.722656 1.929688-1.558594 2.722657-2.492187-8.390625 3.140625-19.546875-1.375-26.507813-11.304688zm0 0" fill="#8c4c17"/><path d="m262.925781 83.429688c-.15625 0-.320312-.015626-.480469-.042969-12.9375-2.519531-15.679687-13.113281-15.320312-18.363281.566406-6.976563-.628906-12.125-3.542969-15.332032-2.917969-3.210937-6.664062-3.355468-6.699219-3.355468-1.382812-.019532-2.484374-1.152344-2.464843-2.535157.023437-1.378906 1.199219-2.480469 2.535156-2.464843.242187.003906 5.921875.140624 10.328125 4.988281 3.882812 4.277343 5.511719 10.691406 4.832031 19.074219-.023437.394531-.488281 10.789062 11.289063 13.078124 1.355468.261719 2.238281 1.574219 1.976562 2.929688-.234375 1.195312-1.28125 2.023438-2.453125 2.023438zm0 0" fill="#8c4c17"/><path d="m231.351562 10.046875c-9.835937-9.65625-23.734374-11.457031-31.035156-4.015625-7.304687 7.441406-5.246094 21.300781 4.589844 30.957031 9.839844 9.660157 23.738281 11.457031 31.039062 4.015625 7.304688-7.441406 5.246094-21.300781-4.59375-30.957031zm0 0" fill="#a56021"/><path d="m210.050781 31.796875c-8.667969-8.488281-11.316406-20.238281-6.867187-28.019531-1.046875.632812-2.019532 1.394531-2.894532 2.289062-7.285156 7.457032-5.207031 21.320313 4.648438 30.964844 9.851562 9.644531 23.742188 11.417969 31.027344 3.960938.875-.894532 1.613281-1.886719 2.222656-2.949219-7.671875 4.628906-19.46875 2.238281-28.136719-6.246094zm0 0" fill="#8c4c17"/><path d="m234.539062 42.097656c-.007812 0-.011718 0-.019531 0-13.183593-.101562-17.820312-10.011718-18.429687-15.238281-.726563-6.960937-2.84375-11.804687-6.300782-14.421875-3.457031-2.621094-7.164062-2.074219-7.199218-2.066406-1.355469.234375-2.652344-.679688-2.886719-2.042969-.234375-1.359375.679687-2.652344 2.039063-2.886719.234374-.042968 5.84375-.949218 11.066406 3.011719 4.605468 3.488281 7.378906 9.496094 8.25 17.859375.050781.394531 1.5 10.695312 13.496094 10.785156 1.382812.007813 2.492187 1.136719 2.480468 2.515625-.007812 1.375-1.125 2.484375-2.496094 2.484375zm0 0" fill="#8c4c17"/><path d="m273.527344 109.289062h-228.847656s-68.097657 268.980469-35.503907 316.394532h.292969c2.207031 17.480468 17.117188 31.003906 35.199219 31.003906h228.875c18.078125 0 32.988281-13.523438 35.199219-31.003906h.292968c32.589844-47.414063-35.507812-316.394532-35.507812-316.394532zm0 0" fill="#ffd551"/><path d="m239.472656 290.773438c0 44.386718-35.980468 80.371093-80.367187 80.371093s-80.371094-35.984375-80.371094-80.371093c0-44.386719 35.984375-80.367188 80.371094-80.367188s80.367187 35.980469 80.367187 80.367188zm0 0" fill="#f9bb32"/><path d="m57.429688 425.683594h-.292969c-32.59375-47.414063 35.503906-316.394532 35.503906-316.394532h-47.960937s-68.097657 268.980469-35.503907 316.394532h.292969c2.207031 17.480468 17.117188 31 35.199219 31h47.960937c-18.078125.003906-32.992187-13.519532-35.199218-31zm0 0" fill="#ffc34c"/><path d="m283.902344 153.058594h-249.59375c-11.046875 0-20-8.957032-20-20v-37.503906c0-11.046876 8.953125-20 20-20h249.589844c11.046874 0 20 8.953124 20 20v37.503906c.003906 11.042968-8.953126 20-19.996094 20zm0 0" fill="#f9bb32"/><path d="m52.675781 152.097656v-39.132812c0-10.597656 8.589844-19.1875 19.183594-19.1875h231.992187c-.5-10.144532-8.863281-18.222656-19.132812-18.222656h-251.226562c-10.59375 0-19.183594 8.589843-19.183594 19.183593v39.132813c0 10.597656 8.585937 19.1875 19.183594 19.1875h19.234374c-.019531-.320313-.050781-.636719-.050781-.960938zm0 0" fill="#db9c2e"/><path d="m294.152344 394.800781c-.292969 0-.59375-.023437-.894532-.066406-3.277343-.492187-5.535156-3.542969-5.046874-6.820313 3.800781-25.410156-3.28125-59.578124-3.351563-59.917968-.683594-3.242188 1.394531-6.425782 4.636719-7.105469 3.246094-.691406 6.421875 1.390625 7.105468 4.632813.3125 1.484374 7.59375 36.644531 3.476563 64.164062-.445313 2.976562-3.003906 5.113281-5.925781 5.113281zm0 0" fill="#fce575"/><path d="m288.375 301.230469c-3.191406 0-5.847656-2.515625-5.988281-5.734375-1.140625-26.042969-15.535157-92.015625-15.679688-92.679688-.710937-3.234375 1.339844-6.433594 4.578125-7.144531 3.234375-.707031 6.433594 1.34375 7.144532 4.578125.601562 2.75 14.761718 67.65625 15.945312 94.71875.144531 3.3125-2.421875 6.113281-5.730469 6.257812-.089843.003907-.179687.003907-.269531.003907zm0 0" fill="#fce575"/><g fill="#ffc34c"><path d="m231.832031 146.121094c-3.257812 0-5.933593-2.609375-5.996093-5.882813-.0625-3.3125 2.566406-6.050781 5.882812-6.117187l30.285156-.59375c6.992188-.136719 12.003906-2.101563 15.316406-6.007813 6.117188-7.210937 4.605469-18.996093 4.585938-19.113281-.476562-3.277344 1.796875-6.320312 5.074219-6.800781 3.285156-.476563 6.324219 1.796875 6.800781 5.074219.101562.699218 2.371094 17.191406-7.308594 28.605468-5.589844 6.589844-13.746094 10.035156-24.234375 10.242188l-30.285156.59375c-.042969 0-.082031 0-.121094 0zm0 0"/><path d="m89.191406 388.113281c0 8.027344-6.507812 14.535157-14.535156 14.535157s-14.535156-6.507813-14.535156-14.535157c0-8.027343 6.507812-14.535156 14.535156-14.535156s14.535156 6.507813 14.535156 14.535156zm0 0"/><path d="m133.917969 423.03125c0 8.027344-6.507813 14.535156-14.53125 14.535156-8.027344 0-14.535157-6.507812-14.535157-14.535156 0-8.023438 6.507813-14.53125 14.535157-14.53125 8.023437 0 14.53125 6.507812 14.53125 14.53125zm0 0"/></g><path d="m91.191406 119.03125c0 8.027344-6.507812 14.535156-14.535156 14.535156s-14.535156-6.507812-14.535156-14.535156c0-8.023438 6.507812-14.53125 14.535156-14.53125s14.535156 6.507812 14.535156 14.53125zm0 0" fill="#db9c2e"/><path d="m187.515625 261.3125c-21.542969-21.140625-51.964844-25.078125-67.953125-8.789062-15.984375 16.289062-11.484375 46.632812 10.054688 67.773437 21.542968 21.144531 51.964843 25.078125 67.953124 8.789063 15.984376-16.289063 11.484376-46.632813-10.054687-67.773438zm0 0" fill="#a56021"/><path d="m140.875 308.90625c-18.976562-18.574219-24.777344-44.300781-15.039062-61.332031-2.292969 1.382812-4.417969 3.050781-6.335938 5.011719-15.945312 16.324218-11.390625 46.671874 10.175781 67.785156 21.566407 21.113281 51.980469 24.996094 67.929688 8.667968 1.914062-1.960937 3.53125-4.125 4.863281-6.449218-16.796875 10.128906-42.617188 4.894531-61.59375-13.683594zm0 0" fill="#8c4c17"/><path d="m194.484375 330.988281c-.011719 0-.027344 0-.039063 0-28.53125-.214843-38.5625-21.640625-39.882812-32.9375-1.589844-15.269531-6.238281-25.941406-13.828125-31.785156-7.753906-5.972656-15.96875-4.773437-16.3125-4.722656-2.710937.425781-5.28125-1.417969-5.722656-4.128907-.445313-2.710937 1.359375-5.269531 4.066406-5.730468.507813-.089844 12.589844-2.042969 23.863281 6.5 9.96875 7.554687 15.980469 20.597656 17.875 38.769531.113282.890625 3.316406 23.832031 30.015625 24.035156 2.761719.019531 4.984375 2.273438 4.964844 5.035157-.023437 2.75-2.257813 4.964843-5 4.964843zm0 0" fill="#8c4c17"/></svg>