<svg height="469pt" viewBox="-129 0 469 469.666" width="469pt" xmlns="http://www.w3.org/2000/svg"><path d="m18.160156 129.574219v136.007812l11.195313 183.570313c.703125 11.527344 10.253906 20.511718 21.804687 20.511718h109.65625c11.535156 0 21.082032-8.964843 21.800782-20.476562l11.492187-183.605469v-136.007812zm0 0" fill="#ffc34c"/><path d="m69.355469 449.152344-11.195313-183.570313v-136.007812h-40v136.007812l11.195313 183.570313c.703125 11.527344 10.253906 20.511718 21.804687 20.511718h40c-11.550781 0-21.101562-8.984374-21.804687-20.511718zm0 0" fill="#db9c2e"/><path d="m18.160156 129.574219h175.949219v136.007812h-175.949219zm0 0" fill="#ffd551"/><path d="m18.160156 129.574219h40v136.007812h-40zm0 0" fill="#ffc34c"/><path d="m147.234375 62.0625h-82.53125v-42.0625c0-11.046875 8.957031-20 20-20h42.53125c11.046875 0 20 8.953125 20 20zm0 0" fill="#ffd551"/><path d="m147.234375 62.0625h-82.53125l-34.800781 28.347656c-7.640625 6.222656-12.074219 15.554688-12.074219 25.40625v36.585938h176.28125v-36.585938c0-9.851562-4.433594-19.183594-12.074219-25.40625zm0 0" fill="#ffc34c"/><path d="m130.96875.359375c-1.210938-.226563-2.457031-.359375-3.734375-.359375h-42.527344c-11.046875 0-20 8.953125-20 20v42.0625h50v-42.0625c0-9.769531 7.003907-17.886719 16.261719-19.640625zm0 0" fill="#f9bb32"/><path d="m79.902344 90.410156 34.804687-28.347656h-50l-34.804687 28.347656c-7.636719 6.222656-12.074219 15.554688-12.074219 25.40625v36.585938h50v-36.585938c0-9.851562 4.4375-19.183594 12.074219-25.40625zm0 0" fill="#db9c2e"/><path d="m203.605469 192.574219h-195.269531c-4.421876 0-8-3.582031-8-8v-27.109375c0-4.417969 3.578124-8 8-8h195.269531c4.417969 0 8 3.582031 8 8v27.109375c0 4.417969-3.582031 8-8 8zm0 0" fill="#db9c2e"/><path d="m50.332031 184.574219v-27.109375c0-4.417969 3.582031-8 8-8h-50c-4.417969 0-8 3.582031-8 8v27.109375c0 4.417969 3.582031 8 8 8h50c-4.417969 0-8-3.582031-8-8zm0 0" fill="#bf6c0d"/><path d="m161.976562 444c-.121093 0-.246093-.003906-.367187-.011719-3.308594-.199219-5.828125-3.042969-5.628906-6.351562l8-132.5c.199219-3.308594 3.058593-5.824219 6.351562-5.628907 3.308594.203126 5.828125 3.042969 5.628907 6.351563l-8 132.5c-.195313 3.1875-2.835938 5.640625-5.984376 5.640625zm0 0" fill="#ffd551"/><path d="m174.96875 135.003906c-2.628906 0-5.042969-1.742187-5.78125-4.398437l-4.621094-16.640625-21.792968-24.21875c-2.214844-2.460938-2.015626-6.253906.449218-8.472656 2.460938-2.21875 6.253906-2.015626 8.472656.445312l22.734376 25.265625c.621093.691406 1.074218 1.515625 1.320312 2.410156l5 18c.886719 3.191407-.980469 6.5-4.175781 7.386719-.535157.148438-1.078125.222656-1.605469.222656zm0 0" fill="#ffd551"/><g fill="#db9c2e"><path d="m106.492188 397c0 8.46875-6.863282 15.335938-15.332032 15.335938s-15.335937-6.867188-15.335937-15.335938 6.867187-15.335938 15.335937-15.335938 15.332032 6.867188 15.332032 15.335938zm0 0"/><path d="m113.171875 112.75c0 8.46875-6.863281 15.332031-15.332031 15.332031s-15.335938-6.863281-15.335938-15.332031 6.867188-15.335938 15.335938-15.335938 15.332031 6.867188 15.332031 15.335938zm0 0"/></g></svg>