<svg height="458pt" viewBox="0 -42 458.90994 458" width="458pt" xmlns="http://www.w3.org/2000/svg"><path d="m360.5625 55.066406v313.476563h-86.289062v-313.476563c0-23.828125 19.316406-43.144531 43.144531-43.144531s43.144531 19.316406 43.144531 43.144531zm0 0" fill="#bf6c0d"/><path d="m336.59375 16.414062c-5.777344-2.871093-12.285156-4.492187-19.175781-4.492187-23.828125 0-43.144531 19.316406-43.144531 43.144531v313.476563h38.351562v-313.476563c0-16.9375 9.765625-31.589844 23.96875-38.652344zm0 0" fill="#a56021"/><path d="m350.574219 370.035156v-12.539062c0-24.007813-15.453125-43.472656-34.515625-43.472656s-34.515625 19.464843-34.515625 43.472656v12.539062zm0 0" fill="#8c4c17"/><path d="m286.746094 375.25c2.507812 0 4.328125-2.363281 3.707031-4.792969-.769531-3-1.183594-6.179687-1.183594-9.472656 0-18.1875 12.628907-32.988281 28.148438-32.988281s28.148437 14.800781 28.148437 32.988281c0 3.292969-.414062 6.472656-1.183594 9.472656-.621093 2.429688 1.199219 4.792969 3.707032 4.792969h8.296875c1.828125 0 3.421875-1.285156 3.761719-3.082031.6875-3.601563 1.054687-7.339844 1.054687-11.183594 0-28.339844-19.601563-51.3125-43.785156-51.3125-24.183594 0-43.785157 22.972656-43.785157 51.3125 0 3.84375.367188 7.582031 1.054688 11.183594.339844 1.796875 1.933594 3.082031 3.765625 3.082031zm0 0" fill="#e58d23"/><path d="m348.019531 127.773438c-3.3125 0-6-2.6875-6-6v-27.234376c0-3.3125 2.6875-6 6-6s6 2.6875 6 6v27.234376c0 3.3125-2.6875 6-6 6zm0 0" fill="#e58d23"/><path d="m348.019531 291.511719c-3.3125 0-6-2.6875-6-6v-137.742188c0-3.316406 2.6875-6 6-6s6 2.683594 6 6v137.742188c0 3.3125-2.6875 6-6 6zm0 0" fill="#e58d23"/><path d="m351.59375 50.011719c0 8.28125-6.714844 15-15 15s-15-6.71875-15-15c0-8.285157 6.714844-15 15-15s15 6.714843 15 15zm0 0" fill="#a56021"/><path d="m268.164062 87.402344c0 48.019531-38.925781 86.945312-86.945312 86.945312s-86.945312-38.925781-86.945312-86.945312c0-48.019532 38.925781-86.949219 86.945312-86.949219s86.945312 38.929687 86.945312 86.949219zm0 0" fill="#ffa730"/><path d="m181.21875 165.695312c-43.171875 0-78.292969-35.125-78.292969-78.292968 0-43.171875 35.121094-78.296875 78.292969-78.296875s78.296875 35.125 78.296875 78.296875c0 43.167968-35.125 78.292968-78.296875 78.292968zm0 0" fill="#ffb74b"/><g fill="#ffd551"><path d="m214.707031 87.574219c0 17.972656-14.570312 32.542969-32.542969 32.542969-17.972656 0-32.542968-14.570313-32.542968-32.542969 0-17.972657 14.570312-32.542969 32.542968-32.542969 17.972657 0 32.542969 14.570312 32.542969 32.542969zm0 0"/><path d="m253.585938 93.574219h-142.847657c-3.3125 0-6-2.6875-6-6 0-3.316407 2.6875-6 6-6h142.847657c3.3125 0 6 2.683593 6 6 0 3.3125-2.683594 6-6 6zm0 0"/><path d="m232.667969 144.078125c-1.535157 0-3.070313-.585937-4.242188-1.757813l-101.011719-101.007812c-2.34375-2.34375-2.34375-6.144531 0-8.488281 2.34375-2.339844 6.144532-2.339844 8.484376 0l101.011718 101.011719c2.34375 2.34375 2.34375 6.140624 0 8.484374-1.171875 1.171876-2.707031 1.757813-4.242187 1.757813zm0 0"/><path d="m182.164062 164.996094c-3.3125 0-6-2.683594-6-6v-142.847656c0-3.316407 2.6875-6 6-6s6 2.683593 6 6v142.847656c0 3.316406-2.6875 6-6 6zm0 0"/><path d="m131.65625 144.078125c-1.535156 0-3.070312-.585937-4.242188-1.757813-2.34375-2.34375-2.34375-6.140624 0-8.484374l101.011719-101.011719c2.34375-2.339844 6.140625-2.339844 8.484375 0 2.34375 2.34375 2.34375 6.144531 0 8.488281l-101.011718 101.007812c-1.167969 1.171876-2.707032 1.757813-4.242188 1.757813zm0 0"/></g><path d="m446.273438 112.183594-221.660157 221.660156-61.019531-61.015625 221.664062-221.664063c16.847657-16.847656 44.164063-16.847656 61.015626 0 16.847656 16.851563 16.847656 44.167969 0 61.019532zm0 0" fill="#bf6c0d"/><path d="m456.652344 67.902344c-2.054688-6.113282-5.507813-11.863282-10.378906-16.738282-16.851563-16.847656-44.167969-16.847656-61.015626 0l-221.664062 221.664063 27.121094 27.117187 221.660156-221.660156c11.976562-11.976562 29.242188-15.429687 44.277344-10.382812zm0 0" fill="#a56021"/><path d="m216.492188 327.839844 8.867187-8.871094c16.976563-16.976562 19.8125-41.664062 6.332031-55.144531-13.480468-13.480469-38.167968-10.644531-55.144531 6.332031l-8.867187 8.867188zm0 0" fill="#8c4c17"/><path d="m167.671875 286.390625c1.773437 1.773437 4.730469 1.390625 6.007813-.769531 1.578124-2.664063 3.535156-5.207032 5.863281-7.53125 12.863281-12.863282 32.253906-14.398438 43.230469-3.421875 10.976562 10.972656 9.441406 30.367187-3.421876 43.230469-2.328124 2.324218-4.867187 4.28125-7.535156 5.859374-2.15625 1.277344-2.539062 4.238282-.765625 6.011719l5.863281 5.863281c1.292969 1.292969 3.332032 1.511719 4.84375.484376 3.03125-2.0625 5.933594-4.445313 8.652344-7.164063 20.039063-20.039063 22.421875-50.144531 5.324219-67.246094-17.101563-17.097656-47.207031-14.714843-67.246094 5.324219-2.71875 2.71875-5.101562 5.621094-7.164062 8.652344-1.027344 1.511718-.808594 3.550781.484375 4.84375zm0 0" fill="#e58d23"/><path d="m271.453125 266.261719c-1.535156 0-3.070313-.585938-4.242187-1.757813-2.34375-2.34375-2.34375-6.144531 0-8.484375l97.398437-97.398437c2.34375-2.34375 6.140625-2.34375 8.484375 0s2.34375 6.140625 0 8.484375l-97.398438 97.398437c-1.171874 1.171875-2.707031 1.757813-4.242187 1.757813zm0 0" fill="#e58d23"/><path d="m446.40625 90.878906c0 8.285156-6.714844 15-15 15s-15-6.714844-15-15 6.714844-15 15-15 15 6.714844 15 15zm0 0" fill="#a56021"/><path d="m135.660156 199.300781c15.40625-17.285156 22.738282-35.425781 16.519532-42.515625-6.691407-7.625-26.613282.3125-45.289063 17.734375-.746094-24.703125-8.667969-44.449219-18.535156-45.09375-9.757813-.640625-17.988281 17.65625-19.355469 41.851563-17.285156-15.40625-35.425781-22.738282-42.515625-16.519532-7.628906 6.695313.320313 26.640626 17.765625 45.324219-24.296875.902344-43.597656 8.75-44.234375 18.496094-.636719 9.761719 17.660156 17.992187 41.851563 19.359375-15.402344 17.285156-22.738282 35.425781-16.519532 42.515625 6.691406 7.625 26.617188-.3125 45.289063-17.734375.746093 24.703125 8.667969 44.449219 18.535156 45.09375 9.761719.636719 17.988281-17.65625 19.355469-41.851562 17.285156 15.402343 35.425781 22.738281 42.515625 16.519531 7.632812-6.695313-.316407-26.640625-17.765625-45.324219 24.300781-.902344 43.597656-8.75 44.234375-18.5.636719-9.757812-17.65625-17.988281-41.851563-19.355469zm0 0" fill="#8c4c17"/><path d="m89.648438 297.910156c-2.972657-2.621094-8.796876-14.589844-9.425782-35.480468l-.640625-21.171876-15.484375 14.449219c-13.296875 12.40625-25.480468 18.058594-31.175781 18.058594-.078125 0-.152344-.003906-.21875-.003906-.144531-3.488281 3.0625-14.566407 16.324219-29.445313l13.222656-14.828125-19.835938-1.121093c-20.007812-1.132813-30.15625-6.746094-32.492187-9.308594 2.585937-2.910156 14.285156-8.636719 34.6875-9.398438l20.980469-.777344-14.328125-15.347656c-14.03125-15.019531-18.328125-27.4375-18.121094-31.394531.074219-.003906.152344-.003906.238281-.003906 5.277344 0 16.675782 5.097656 29.242188 16.300781l14.832031 13.21875 1.121094-19.835938c1.132812-20.011718 6.746093-30.160156 9.308593-32.492187 2.972657 2.621094 8.796876 14.59375 9.425782 35.484375l.640625 21.167969 15.484375-14.449219c13.292968-12.40625 25.480468-18.054688 31.171875-18.054688h.222656c.140625 3.488282-3.066406 14.566407-16.324219 29.445313l-13.222656 14.832031 19.835938 1.117188c20.007812 1.132812 30.15625 6.746094 32.488281 9.308594-2.582031 2.914062-14.28125 8.640624-34.683594 9.398437l-20.984375.777344 14.332031 15.347656c14.03125 15.023437 18.328125 27.441406 18.121094 31.398437-.074219 0-.238281.003907-.238281.003907-5.277344 0-16.679688-5.101563-29.242188-16.300781l-14.832031-13.222657-1.121094 19.835938c-1.128906 20.011719-6.75 30.160156-9.308593 32.492187zm0 0" fill="#a56021"/><path d="m109.695312 209.996094c6.878907-7.714844 10.152344-15.8125 7.375-18.976563-2.984374-3.40625-11.878906.136719-20.214843 7.914063-.332031-11.027344-3.871094-19.839844-8.273438-20.128906-4.355469-.285157-8.027343 7.882812-8.640625 18.683593-7.714844-6.878906-15.8125-10.152343-18.976562-7.375-3.40625 2.988281.144531 11.890625 7.929687 20.230469-10.84375.402344-19.460937 3.90625-19.742187 8.257812-.285156 4.355469 7.878906 8.03125 18.679687 8.640626-6.875 7.714843-10.148437 15.8125-7.371093 18.976562 2.984374 3.402344 11.878906-.136719 20.214843-7.914062.332031 11.023437 3.867188 19.839843 8.269531 20.128906 4.359376.285156 8.03125-7.882813 8.644532-18.683594 7.710937 6.875 15.808594 10.152344 18.976562 7.375 3.40625-2.988281-.144531-11.890625-7.929687-20.230469 10.84375-.402343 19.460937-3.90625 19.742187-8.257812.285156-4.359375-7.882812-8.03125-18.683594-8.640625zm0 0" fill="#8c4c17"/></svg>