<svg height="466pt" viewBox="0 -91 466.97206 466" width="466pt" xmlns="http://www.w3.org/2000/svg"><path d="m234.976562 54.46875h-30.058593c-3.320313 0-5.195313 3.8125-3.167969 6.441406l28.722656 37.242188c2.839844 3.679687 7.226563 5.835937 11.878906 5.835937h15.039063v-49.519531zm0 0" fill="#ffd59a"/><path d="m252.347656 93.992188c-4.648437 0-9.035156-2.160157-11.875-5.839844l-25.980468-33.683594h-9.574219c-3.320313 0-5.195313 3.8125-3.167969 6.441406l28.722656 37.242188c2.839844 3.679687 7.226563 5.839844 11.875 5.839844h15.042969v-10zm0 0" fill="#ffb74b"/><path d="m438.105469 96.949219c.554687 1.566406.875 3.246093.875 5v18.679687c0 27.660156-20.445313 50.640625-47.015625 54.617188v-78.296875h-16.992188v95.898437h2.203125c43.519531 0 78.796875-35.277344 78.796875-78.796875v-17.101562zm0 0" fill="#ffb74b"/><path d="m385.972656 79.957031v122.890625h2.203125c43.515625 0 78.796875-35.277344 78.796875-78.796875v-24.09375c0-11.046875-8.953125-20-20-20zm64.007813 50.671875c0 27.660156-20.445313 50.640625-47.015625 54.617188v-88.296875h32.015625c8.28125 0 15 6.71875 15 15zm0 0" fill="#ffd59a"/><path d="m447.960938 175.351562-2.25-23.460937c-7.328126 17.5-23.410157 30.460937-42.746094 33.355469v-88.292969h32.015625c1.964843 0 3.839843.386719 5.5625 1.078125l-1.734375-18.074219h-52.835938v122.894531h2.203125c23.917969-.003906 45.332031-10.675781 59.785157-27.5zm0 0" fill="#ffb74b"/><path d="m385.972656 79.957031v122.890625h2.203125c43.515625 0 78.796875-35.277344 78.796875-78.796875v-24.09375c0-11.046875-8.953125-20-20-20zm64.007813 50.671875c0 27.660156-20.445313 50.640625-47.015625 54.617188v-88.296875h32.015625c8.28125 0 15 6.71875 15 15zm0 0" fill="#ffd59a"/><path d="m407.058594 61.703125c-.394532-4.101563-3.84375-7.234375-7.964844-7.234375h-150.765625l-18.976563 197.789062v.792969c0 15.660157 12.695313 28.355469 28.355469 28.355469h139.277344c15.660156 0 28.355469-12.695312 28.355469-28.355469v-.792969zm0 0" fill="#ffd59a"/><path d="m166.707031 71.542969c-1.28125-4.203125-5.167969-7.074219-9.5625-7.074219h-116.710937c-4.398438 0-8.28125 2.871094-9.5625 7.078125-8.171875 26.808594-35.886719 123.980469-30.078125 190.710937h195.988281c5.8125-66.730468-21.90625-163.90625-30.074219-190.714843zm0 0" fill="#ffd59a"/><path d="m70.867188 71.542969c1.285156-4.203125 5.167968-7.074219 9.566406-7.074219h-40c-4.398438 0-8.28125 2.871094-9.566406 7.074219-8.167969 26.8125-35.882813 123.984375-30.074219 190.714843h40c-5.808594-66.730468 21.90625-163.90625 30.074219-190.714843zm0 0" fill="#ffb74b"/><path d="m116.628906 60.613281h-35.683594v-38.519531c0-9.855469 7.988282-17.84375 17.839844-17.84375 9.855469 0 17.84375 7.988281 17.84375 17.84375zm0 0" fill="#ccc033"/><path d="m107.285156 6.402344c-2.523437-1.371094-5.421875-2.152344-8.5-2.152344-9.851562 0-17.839844 7.988281-17.839844 17.84375v38.519531h17v-38.519531c0-6.777344 3.777344-12.671875 9.339844-15.691406zm0 0" fill="#99af17"/><path d="m136.753906 202.675781-28.480468 9.847657-66.378907-192.042969c-2.71875-7.867188 1.453125-16.445313 9.316407-19.164063 7.863281-2.71875 16.445312 1.453125 19.164062 9.316406zm0 0" fill="#f9bb32"/><path d="m58.957031.769531c-2.507812-.480469-5.164062-.34375-7.746093.546875-7.867188 2.71875-12.039063 11.300782-9.320313 19.164063l66.382813 192.042969 14.175781-4.898438-66.378907-192.042969c-1.828124-5.285156-.535156-10.878906 2.886719-14.8125zm0 0" fill="#db9c2e"/><path d="m289.351562 253.050781v-.792969l18.976563-197.789062h-60l-18.976563 197.789062v.792969c0 15.660157 12.695313 28.355469 28.355469 28.355469h60c-15.660156 0-28.355469-12.695312-28.355469-28.355469zm0 0" fill="#ffb74b"/><path d="m257.707031 261.40625c-4.558593 0-8.273437-3.574219-8.355469-7.996094l16.800782-170.65625c.199218-2 1.921875-3.523437 3.984375-3.523437h114.417969c2.0625 0 3.785156 1.523437 3.984374 3.523437l16.800782 170.65625c-.082032 4.421875-3.796875 7.996094-8.355469 7.996094zm0 0" fill="#fcf9de"/><path d="m159.984375 64.46875h-124c-2.207031 0-4-1.792969-4-4v-6.898438c0-8.285156 6.71875-15 15-15h102c8.285156 0 15 6.714844 15 15v6.898438c0 2.207031-1.789063 4-4 4zm0 0" fill="#ccc033"/><path d="m20.179688 252.921875c1.53125-50.230469 13.585937-113.570313 26.644531-164.402344.621093-2.402343 2.578125-4.050781 4.800781-4.050781h94.324219c2.222656 0 4.179687 1.648438 4.800781 4.050781 13.054688 50.832031 25.113281 114.171875 26.644531 164.402344.152344 5.101563-3.46875 9.335937-8 9.335937h-141.214843c-4.53125 0-8.15625-4.230468-8-9.335937zm0 0" fill="#fcf9de"/><path d="m71.984375 60.46875v-6.898438c0-8.285156 6.71875-15 15-15h-40c-8.28125 0-15 6.714844-15 15v6.898438c0 2.207031 1.792969 4 4 4h40c-2.207031 0-4-1.792969-4-4zm0 0" fill="#99af17"/><path d="m60.179688 252.921875c1.53125-50.230469 13.585937-113.570313 26.644531-164.402344.621093-2.402343 2.578125-4.050781 4.800781-4.050781h-40c-2.222656 0-4.179688 1.648438-4.800781 4.050781-13.058594 50.832031-25.113281 114.171875-26.644531 164.402344-.15625 5.101563 3.46875 9.335937 8 9.335937h40c-4.53125 0-8.15625-4.230468-8-9.335937zm0 0" fill="#fff4c1"/><path d="m289.351562 253.410156 16.800782-170.65625c.195312-2 1.921875-3.523437 3.980468-3.523437h-40c-2.058593 0-3.785156 1.523437-3.980468 3.523437l-16.800782 170.65625c.082032 4.421875 3.796876 7.996094 8.355469 7.996094h40c-4.558593 0-8.273437-3.574219-8.355469-7.996094zm0 0" fill="#fff4c1"/><path d="m377.410156 124.515625c-3.058594 0-5.667968-2.324219-5.96875-5.425781l-1.390625-14.527344c-.316406-3.296875 2.097657-6.226562 5.398438-6.542969 3.3125-.316406 6.226562 2.097657 6.542969 5.398438l1.394531 14.523437c.316406 3.300782-2.101563 6.230469-5.398438 6.546875-.195312.015625-.386719.027344-.578125.027344zm0 0" fill="#ffd59a"/><path d="m387.957031 234.703125c-3.058593 0-5.671875-2.328125-5.964843-5.433594l-8.382813-88.605469c-.3125-3.300781 2.109375-6.226562 5.40625-6.539062 3.316406-.3125 6.226563 2.109375 6.539063 5.410156l8.382812 88.605469c.3125 3.296875-2.109375 6.222656-5.40625 6.535156-.191406.019531-.386719.027344-.574219.027344zm0 0" fill="#ffd59a"/><g fill="#fff4c1"><path d="m99.335938 239.703125c0 8.285156-6.714844 15-15 15-8.28125 0-15-6.714844-15-15s6.71875-15 15-15c8.285156 0 15 6.714844 15 15zm0 0"/><path d="m119.984375 211.128906c0 8.285156-6.714844 15-15 15-8.28125 0-15-6.714844-15-15s6.71875-15 15-15c8.285156 0 15 6.714844 15 15zm0 0"/><path d="m104.984375 176.539062c0 8.28125-6.714844 15-15 15-8.28125 0-15-6.71875-15-15 0-8.285156 6.71875-15 15-15 8.285156 0 15 6.714844 15 15zm0 0"/><path d="m332.707031 229.703125c0 8.285156-6.714843 15-15 15-8.285156 0-15-6.714844-15-15s6.714844-15 15-15c8.285157 0 15 6.714844 15 15zm0 0"/></g><path d="m160.605469 230.703125c-.183594 0-.371094-.007813-.558594-.027344-3.300781-.304687-5.726563-3.226562-5.421875-6.523437 1.390625-15.003906-7.964844-60.578125-11.683594-76.871094-.738281-3.230469 1.28125-6.445312 4.511719-7.183594 3.226563-.738281 6.449219 1.28125 7.1875 4.515625.5625 2.464844 13.78125 60.675781 11.933594 80.644531-.289063 3.109376-2.902344 5.445313-5.96875 5.445313zm0 0" fill="#ffd59a"/><path d="m143.777344 128.09375c-2.726563 0-5.199219-1.878906-5.839844-4.652344l-4.078125-17.632812c-.746094-3.226563 1.269531-6.449219 4.496094-7.195313 3.226562-.746093 6.449219 1.265625 7.195312 4.492188l4.078125 17.632812c.746094 3.230469-1.265625 6.453125-4.492187 7.199219-.457031.105469-.910157.15625-1.359375.15625zm0 0" fill="#ffd59a"/><path d="m168.425781 284.40625h-139.277343c-15.660157 0-28.355469-12.695312-28.355469-28.355469v-.792969h195.988281v.792969c0 15.660157-12.695312 28.355469-28.355469 28.355469zm0 0" fill="#e58d23"/><path d="m60.792969 256.050781v-.792969h-60v.792969c0 15.660157 12.695312 28.355469 28.355469 28.355469h60c-15.660157 0-28.355469-12.695312-28.355469-28.355469zm0 0" fill="#bf6c0d"/></svg>