<svg height="461pt" viewBox="0 -152 461.976 461" width="461pt" xmlns="http://www.w3.org/2000/svg"><path d="m421.863281 138.488281v-119.671875c-227.527343-41.238281-387.363281 0-387.363281 0v120.210938h2.214844c19.773437 4.671875 171.632812 37.5625 382.09375 0h3.054687zm0 0" fill="#eacf32"/><path d="m374.007812 83.277344c0-29.941406-64.03125-54.214844-143.019531-54.214844s-143.019531 24.273438-143.019531 54.214844c0 29.945312 64.03125 54.214844 143.019531 54.214844s143.019531-24.269532 143.019531-54.214844zm0 0" fill="#fcf9de"/><path d="m461.976562 146.636719v-135.429688c0-3.0625-3.605468-5.148437-6.902343-3.996093l-33.214844 11.605468v120.210938l33.214844 11.605468c3.296875 1.148438 6.902343-.9375 6.902343-3.996093zm0 0" fill="#f9bb32"/><path d="m0 146.636719v-135.429688c0-3.0625 3.101562-5.148437 5.9375-3.996093l28.5625 11.605468v120.210938l-28.5625 11.605468c-2.839844 1.148438-5.9375-.9375-5.9375-3.996093zm0 0" fill="#f9bb32"/><g fill="#fcda4f"><path d="m136.371094 110.007812c-5.351563 0-9.566406-1.191406-12.640625-3.570312-2.59375-1.980469-3.890625-4.265625-3.890625-6.859375 0-1.324219.402344-2.425781 1.203125-3.300781s1.90625-1.3125 3.316406-1.3125c1.898437 0 3.289063.96875 4.171875 2.90625 1.199219 2.59375 3.917969 3.886718 8.152344 3.886718 3.625 0 7.132812-.789062 10.523437-2.367187 3.519531-1.625 5.277344-3.402344 5.277344-5.34375 0-2.652344-1.09375-4.402344-3.285156-5.246094-1.558594-.609375-4.6875-.96875-9.386719-1.074219-3.644531-.082031-6.910156-.769531-9.796875-2.054687-3.898437-1.746094-5.816406-4.253906-5.75-7.519531.0625-4.109375 2.253906-7.875 6.570313-11.296875 4.320312-3.425781 9.082031-5.136719 14.285156-5.136719 2.0625 0 4.613281.472656 7.648437 1.421875 3.769531 1.179687 5.65625 2.539063 5.65625 4.078125 0 1.09375-.378906 2.0625-1.136719 2.90625-.84375.945312-1.929687 1.421875-3.257812 1.421875-.988281 0-2.46875-.210937-4.4375-.632813-1.972656-.421874-3.460938-.632812-4.472656-.632812-2.71875.023438-5.300782.675781-7.742188 1.960938-2.527344 1.304687-3.792968 2.730468-3.792968 4.265624 0 .800782.382812 1.460938 1.152343 1.976563s1.921875.878906 3.460938 1.089844c2.695312.148437 5.382812.296875 8.058593.441406 4.679688.359375 8.375 1.675781 11.09375 3.953125 2.992188 2.523438 4.488282 6.023438 4.488282 10.492188 0 5.433593-3.097656 9.554687-9.292969 12.355468-4.714844 2.128906-10.109375 3.191406-16.175781 3.191406zm0 0"/><path d="m199.671875 102.613281c-1.539063 2.085938-3.394531 3.824219-5.5625 5.214844-2.65625 1.683594-5.382813 2.527344-8.1875 2.527344-5.371094 0-9.363281-1.015625-11.976563-3.042969-5.519531-4.285156-8.28125-11.722656-8.28125-22.320312 0-1.015626.054688-2.523438.160157-4.53125.105469-2.007813.15625-3.519532.15625-4.535157 0-.808593.023437-2.011719.0625-3.617187.042969-1.601563.0625-2.808594.0625-3.617188 0-1.652344.308593-3.214844.917969-4.6875.820312-1.945312 1.96875-2.917968 3.445312-2.917968 1.15625 0 2.179688.371093 3.0625 1.113281.972656.785156 1.457031 1.792969 1.457031 3.03125 0 1.175781-.015625 2.953125-.050781 5.335937-.03125 2.382813-.046875 4.171875-.046875 5.367188 0 .988281-.050781 2.484375-.15625 4.484375s-.160156 3.492187-.160156 4.484375c0 3.195312.378906 6.164062 1.140625 8.90625.882812 3.28125 2.179687 5.570312 3.886718 6.867187.886719.679688 2.992188 1.042969 6.320313 1.082031 5.5625.085938 9.3125-4.65625 11.25-14.222656 1.011719-4.949218 1.519531-11.902344 1.519531-20.855468 0-1.179688.347656-2.316407 1.042969-3.414063.945313-1.453125 2.292969-2.179687 4.042969-2.179687 1.433594 0 2.507812.523437 3.226562 1.578124.546875.78125.820313 1.644532.820313 2.59375 0 8.320313-.390625 14.8125-1.171875 19.464844-1.179688 7.1875-3.503906 13.148438-6.980469 17.890625zm0 0"/><path d="m253.078125 89.496094c-1.433594 6.28125-4.316406 11.304687-8.65625 15.074218-4.40625 3.792969-9.566406 5.691407-15.488281 5.691407-5.601563 0-9.804688-1.480469-12.609375-4.441407-2.800781-2.960937-4.203125-7.398437-4.203125-13.320312 0-5.394531 1.328125-10.925781 3.984375-16.59375 2.652343-5.664062 6.066406-10.257812 10.238281-13.777344 2.929688-2.464844 6.066406-3.695312 9.417969-3.695312 2.042969 0 4.824219.738281 8.34375 2.210937 4.171875 1.75 6.257812 3.613281 6.257812 5.59375 0 1.140625-.433593 2.15625-1.296875 3.050781-.863281.894532-1.929687 1.34375-3.191406 1.34375-.632812 0-2.027344-.597656-4.1875-1.785156-2.160156-1.191406-4.136719-1.785156-5.925781-1.785156-1.898438 0-4.457031 2.042969-7.679688 6.128906-4.699219 5.941406-7.046875 12.378906-7.046875 19.3125 0 3.515625.515625 5.90625 1.546875 7.171875 1.097657 1.328125 3.214844 1.992188 6.351563 1.992188 3.226562 0 6.058594-.917969 8.503906-2.75 2.589844-1.9375 4.507812-4.761719 5.75-8.46875-4.886719.378906-9.144531 1.378906-12.765625 3-.65625.296875-1.308594.441406-1.960937.441406-1.308594 0-2.390626-.484375-3.253907-1.453125-.78125-.863281-1.171875-1.84375-1.171875-2.9375 0-3.222656 3.8125-5.476562 11.441406-6.765625 4.296876-.714844 9.3125-1.074219 15.042969-1.074219 1.265625 0 2.324219.414063 3.175781 1.234375.855469.820313 1.28125 1.832031 1.28125 3.035157 0 1.535156-.632812 2.726562-1.898437 3.566406zm0 0"/><path d="m294.382812 109.027344c-1.664062-.0625-3.339843-2.019532-5.023437-5.878906-1.117187-2.484376-2.074219-5.351563-2.875-8.59375-1.5625.230468-4.109375.460937-7.648437.695312-3.328126.230469-5.878907.503906-7.648438.820312-.96875 2.316407-2.652344 5.804688-5.054688 10.460938-.929687 1.515625-2.214843 2.273438-3.855468 2.273438-1.160156 0-2.203125-.394532-3.128906-1.183594-.929688-.792969-1.390626-1.796875-1.390626-3.019532 0-1.074218 1.535157-4.71875 4.613282-10.9375-.296875-.648437-.421875-1.261718-.378906-1.828124.082031-1.015626 1.105468-1.804688 3.0625-2.371094 2.992187-5.183594 6.324218-10.558594 9.988281-16.117188 5.265625-7.984375 8.511719-11.980468 9.734375-11.980468 2.316406 0 3.863281 1.402343 4.644531 4.203124.421875 2.253907 1.085937 5.636719 1.992187 10.144532 1.28125 6.070312 2.851563 13.011718 4.707032 20.828125.148437.589843.683594 1.980469 1.613281 4.171875.757813 1.8125 1.136719 3.171875 1.136719 4.074218 0 1.222657-.457032 2.246094-1.375 3.066407-.914063.824219-1.953125 1.214843-3.113282 1.171875zm-11.785156-32.425782c-1.644531 2.824219-3.910156 6.671876-6.796875 11.535157.949219-.207031 2.421875-.378907 4.425781-.503907 2.359376-.148437 3.84375-.265624 4.457032-.347656-.507813-2.738281-1.203125-6.300781-2.085938-10.683594zm0 0"/><path d="m337.804688 108.460938c-1.136719 0-2.179688-.441407-3.128907-1.328126-6.382812-5.984374-13.398437-10.132812-21.046875-12.453124.230469 6.132812.347656 9.535156.347656 10.210937 0 1.199219-.421874 2.214844-1.261718 3.046875-.84375.832031-1.898438 1.25-3.160156 1.25-1.265626 0-2.320313-.417969-3.160157-1.25-.84375-.832031-1.265625-1.847656-1.265625-3.046875 0-1.582031.019532-3.945313.0625-7.097656.042969-3.148438.0625-5.515625.0625-7.09375l.0625-25.503907c0-1.371093.410156-2.613281 1.234375-3.730468 1.074219-1.433594 2.558594-2.074219 4.453125-1.925782 5.121094.378907 7.742188.578126 7.871094.601563 2.949219.355469 5.457031 1.0625 7.519531 2.117187 8.996094 4.527344 13.496094 10.144532 13.496094 16.84375 0 2.757813-.945313 5.199219-2.828125 7.316407-1.886719 2.117187-4.714844 3.902343-8.488281 5.355469 5.585937 3.117187 9.789062 6.300781 12.613281 9.542968.734375.84375 1.101562 1.78125 1.101562 2.8125 0 1.183594-.441406 2.195313-1.324218 3.050782-.886719.855468-1.9375 1.28125-3.160156 1.28125zm-20.253907-39.757813c-.171875-.019531-1.402343-.105469-3.699219-.253906v16.78125c.527344.023437.992188.03125 1.390626.03125 5.160156 0 8.984374-.640625 11.472656-1.925781 1.074218-.550782 2.058594-1.277344 2.957031-2.183594.894531-.90625 1.339844-1.589844 1.339844-2.054688 0-2.359375-1.496094-4.632812-4.484375-6.824218-2.847656-2.0625-5.839844-3.253907-8.976563-3.570313zm0 0"/></g><path d="m18.328125 12.246094-12.394531-5.035156c-2.835938-1.152344-5.933594.933593-5.933594 3.996093v135.429688c0 3.058593 3.101562 5.144531 5.933594 3.996093l12.394531-5.035156zm0 0" fill="#db9c2e"/><path d="m79.839844 117.464844h-2.214844v-106.820313c-27.832031 4.230469-43.125 8.171875-43.125 8.171875v120.210938h2.214844c19.773437 4.671875 171.632812 37.5625 382.089844 0h3.054687v-15.136719c-189.472656 26.992187-323.523437-2.054687-342.019531-6.425781zm0 0" fill="#ccc033"/><path d="m230.988281 137.492188c14.34375 0 28.191407-.800782 41.257813-2.292969-45.179688.371093-83.933594-2.128907-114.695313-5.390625 21.46875 4.878906 46.585938 7.683594 73.4375 7.683594zm0 0" fill="#fff4c1"/><path d="m455.074219 136.613281-33.210938-11.601562v14.015625l33.210938 11.605468c3.296875 1.148438 6.902343-.9375 6.902343-3.996093v-14.015625c0 3.058594-3.605468 5.144531-6.902343 3.992187zm0 0" fill="#db9c2e"/><path d="m441.917969 114.078125c-3.3125 0-6-2.6875-6-6v-79.015625c0-3.3125 2.6875-6 6-6s6 2.6875 6 6v79.015625c0 3.3125-2.6875 6-6 6zm0 0" fill="#ffc34c"/><path d="m118.636719 31.980469c0 8.46875-6.863281 15.335937-15.332031 15.335937s-15.335938-6.867187-15.335938-15.335937 6.867188-15.332031 15.335938-15.332031 15.332031 6.863281 15.332031 15.332031zm0 0" fill="#ccc033"/></svg>