<svg height="462pt" viewBox="-110 0 462 462.24" width="462pt" xmlns="http://www.w3.org/2000/svg"><path d="m127.714844 245.882812h.121094c-14.1875-11.738281-19.128907-49.195312-19.128907-49.195312h-68.183593s-4.722657 35.738281-18.171876 48.332031c-.242187.214844-.488281.433594-.726562.652344-.078125.066406-.152344.144531-.234375.210937h.011719c-13.15625 12.183594-21.28125 28.863282-21.28125 47.273438 0 37.308594 33.328125 67.550781 74.4375 67.550781 41.113281 0 74.441406-30.242187 74.441406-67.550781 0-18.410156-8.125-35.089844-21.285156-47.273438zm0 0" fill="#fff4c1"/><path d="m96.558594 354.707031c-41.109375 0-74.4375-30.242187-74.4375-67.550781 0-18.410156 8.125-35.089844 21.28125-47.273438h-.011719c.082031-.066406.15625-.140624.234375-.207031.238281-.222656.480469-.441406.726562-.65625 10.019532-9.382812 15.195313-31.609375 17.179688-42.332031h-21.007812s-4.722657 35.738281-18.171876 48.332031c-.242187.21875-.488281.433594-.726562.65625-.078125.066407-.15625.140625-.234375.207031h.011719c-13.15625 12.183594-21.28125 28.863282-21.28125 47.273438 0 37.308594 33.328125 67.550781 74.4375 67.550781 11.554687 0 22.496094-2.390625 32.253906-6.652343-3.351562.417968-6.773438.652343-10.253906.652343zm0 0" fill="#ffdf74"/><path d="m89.699219 426.890625h-30.277344c-11.046875 0-20-8.953125-20-20v-19.148437c0-2.210938 1.789063-4 4-4h62.277344c2.210937 0 4 1.789062 4 4v19.148437c0 11.042969-8.953125 20-20 20zm0 0" fill="#ffc34c"/><path d="m114.898438 456.769531h-80.679688c-5.523438 0-10-4.480469-10-10v-9.820312c0-5.523438 4.476562-10 10-10h80.679688c5.523437 0 10 4.476562 10 10v9.820312c0 5.519531-4.476563 10-10 10zm0 0" fill="#bf6c0d"/><path d="m86.800781 421.117188c-3.066406 0-5.679687-2.332032-5.96875-5.445313-.304687-3.296875 2.121094-6.222656 5.421875-6.527344 5.246094-.484375 5.269532-7.5 5.269532-7.796875-.019532-3.3125 2.652343-6.015625 5.964843-6.03125h.035157c3.296874 0 5.980468 2.664063 6 5.96875.035156 6.328125-3.300782 18.617188-16.160157 19.808594-.191406.015625-.378906.023438-.5625.023438zm0 0" fill="#ffd551"/><path d="m62.421875 406.890625v-19.148437c0-2.210938 1.789063-4 4-4h-23c-2.210937 0-4 1.789062-4 4v19.148437c0 11.046875 8.953125 20 20 20h23c-11.046875 0-20-8.957031-20-20zm0 0" fill="#ffa730"/><path d="m64.21875 447.949219c0-5.523438 4.476562-10 10-10h50.679688v-1c0-5.523438-4.476563-10-10-10h-80.679688c-5.523438 0-10 4.476562-10 10v9.820312c0 5.519531 4.476562 10 10 10h30zm0 0" fill="#a56021"/><path d="m230.15625 230.613281h-25.496094v-26.382812c0-2.761719 2.238282-5 5-5h15.496094c2.761719 0 5 2.238281 5 5zm0 0" fill="#ffdf74"/><path d="m235.425781 436.519531h-36.035156v-210.804687c0-4.417969 3.582031-8 8-8h20.035156c4.417969 0 8 3.582031 8 8zm0 0" fill="#bf6c0d"/><path d="m223.023438 366.707031c-3.3125 0-6-2.6875-6-6v-93.089843c0-3.3125 2.6875-6 6-6s6 2.6875 6 6v93.089843c0 3.3125-2.6875 6-6 6zm0 0" fill="#e58d23"/><path d="m220.390625 217.714844h-13c-4.417969 0-8 3.582031-8 8v210.804687h13v-210.804687c0-4.417969 3.578125-8 8-8zm0 0" fill="#a56021"/><path d="m60.3125 187.328125h28.492188v110.390625h-28.492188zm0 0" fill="#fce575"/><path d="m60.3125 187.328125h17v110.390625h-17zm0 0" fill="#fcda4f"/><path d="m24.851562 31.601562v71.082032c0 27.457031 22.253907 49.710937 49.707032 49.710937 27.457031 0 49.710937-22.253906 49.710937-49.710937v-71.082032zm0 0" fill="#fff4c1"/><path d="m46.851562 102.683594v-71.082032h-22v71.082032c0 27.453125 22.253907 49.710937 49.707032 49.710937 3.785156 0 7.460937-.4375 11-1.238281-22.15625-5.007812-38.707032-24.800781-38.707032-48.472656zm0 0" fill="#ffdf74"/><path d="m60.3125 9.285156h28.492188v45.808594h-28.492188zm0 0" fill="#fce575"/><path d="m60.3125 9.285156h16v45.808594h-16zm0 0" fill="#fcda4f"/><g fill="#ffd551"><path d="m217.535156 200.222656h-168.535156v-15.363281h168.535156c3.867188 0 7 3.132813 7 7v1.363281c0 3.863282-3.132812 7-7 7zm0 0"/><path d="m53.476562 152.324219h42.167969v42.167969h-42.167969zm0 0"/><path d="m217.40625 462.238281h-192.367188c-4.242187 0-7.683593-3.4375-7.683593-7.679687 0-4.242188 3.441406-7.683594 7.683593-7.683594h192.367188zm0 0"/></g><path d="m99.285156 167.363281h-49.453125c-3.3125 0-6-2.6875-6-6v-13.824219c0-3.3125 2.6875-6 6-6h49.453125c3.316406 0 6 2.6875 6 6v13.824219c0 3.3125-2.683594 6-6 6zm0 0" fill="#ffc34c"/><path d="m237.925781 462.238281h-41.035156c-2.207031 0-4-1.789062-4-4v-28.53125c0-4.417969 3.582031-8 8-8h33.035156c4.417969 0 8 3.582031 8 8v28.53125c0 2.210938-1.792969 4-4 4zm0 0" fill="#ffc34c"/><path d="m17.824219 275.433594c-1.855469 0-3.488281 1.269531-3.898438 3.078125-.84375 3.707031-1.28125 7.515625-1.28125 11.382812 0 30.984375 27.773438 56.1875 61.917969 56.1875 34.136719 0 61.914062-25.207031 61.914062-56.1875 0-3.867187-.4375-7.675781-1.28125-11.382812-.410156-1.808594-2.042968-3.078125-3.898437-3.078125zm0 0" fill="#fcf9de"/><path d="m107.789062 211.867188h-66.460937c-4.417969 0-8-3.582032-8-8v-20.59375c0-4.417969 3.582031-8 8-8h66.460937c4.421876 0 8 3.582031 8 8v20.59375c0 4.417968-3.578124 8-8 8zm0 0" fill="#ffc34c"/><path d="m122.8125 31.566406h-96.503906c-2.210938 0-4-1.789062-4-4v-21.566406c0-3.3125 2.683594-6 6-6h92.503906c3.3125 0 6 2.6875 6 6v21.566406c0 2.210938-1.792969 4-4 4zm0 0" fill="#ffc34c"/><path d="m73.625 141.40625c-21.144531-.4375-37.796875-15.980469-37.796875-34.453125v-48.367187c0-1.929688 1.792969-3.492188 4-3.492188h69.460937c2.210938 0 4 1.5625 4 3.492188v49.003906c0 18.921875-17.882812 34.265625-39.664062 33.816406zm0 0" fill="#a56021"/><path d="m87 338.386719c-2.769531 0-5.253906-1.925781-5.859375-4.742188-.695313-3.238281 1.367187-6.429687 4.605469-7.125 25.597656-5.5 34.441406-36.304687 34.527344-36.617187.886718-3.1875 4.1875-5.058594 7.375-4.183594 3.191406.882812 5.066406 4.171875 4.195312 7.363281-.425781 1.554688-10.789062 38.125-43.578125 45.167969-.425781.089844-.847656.136719-1.265625.136719zm0 0" fill="#fff4c1"/><path d="m102.285156 115.117188c-3.3125 0-6-2.683594-6-6v-43c0-3.3125 2.6875-6 6-6 3.316406 0 6 2.6875 6 6v43c0 3.316406-2.683594 6-6 6zm0 0" fill="#bf6c0d"/><path d="m227.023438 455.558594c-3.3125 0-6-2.6875-6-6v-16.464844c0-3.316406 2.6875-6 6-6s6 2.683594 6 6v16.464844c0 3.3125-2.6875 6-6 6zm0 0" fill="#ffd551"/><path d="m102.523438 208.617188c-3.3125 0-6-2.683594-6-6v-16.289063c0-3.3125 2.6875-6 6-6s6 2.6875 6 6v16.289063c0 3.316406-2.6875 6-6 6zm0 0" fill="#ffd551"/><path d="m62.308594 27.566406v-21.566406c0-3.3125 2.683594-6 6-6h-40c-3.316406 0-6 2.6875-6 6v21.566406c0 2.210938 1.789062 4 4 4h40c-2.210938 0-4-1.789062-4-4zm0 0" fill="#ffa730"/><path d="m70.832031 161.363281v-13.824219c0-3.3125 2.6875-6 6-6h-27c-3.3125 0-6 2.6875-6 6v13.824219c0 3.3125 2.6875 6 6 6h27c-3.3125 0-6-2.6875-6-6zm0 0" fill="#ffa730"/><path d="m60.328125 203.867188v-20.59375c0-4.417969 3.582031-8 8-8h-27c-4.417969 0-8 3.582031-8 8v20.59375c0 4.417968 3.582031 8 8 8h27c-4.417969 0-8-3.582032-8-8zm0 0" fill="#ffa730"/><path d="m115.789062 26.117188c-3.3125 0-6-2.683594-6-6v-10.832032c0-3.3125 2.6875-6 6-6 3.316407 0 6 2.6875 6 6v10.832032c0 3.316406-2.683593 6-6 6zm0 0" fill="#ffd551"/><path d="m207.890625 458.238281v-28.53125c0-4.417969 3.582031-8 8-8h-15c-4.417969 0-8 3.582031-8 8v28.53125c0 2.210938 1.792969 4 4 4h15c-2.207031 0-4-1.789062-4-4zm0 0" fill="#ffa730"/><path d="m17.824219 275.433594c-1.855469 0-3.488281 1.269531-3.898438 3.078125-.84375 3.707031-1.28125 7.515625-1.28125 11.382812 0 24.761719 17.75 45.820313 42.304688 53.28125-19.804688-12.136719-32.828125-32.699219-32.828125-56.019531 0-4 .40625-7.914062 1.140625-11.71875h-5.4375zm0 0" fill="#fff4c1"/><path d="m39.828125 55.09375c-2.207031 0-4 1.5625-4 3.492188v48.367187c0 15.496094 11.726563 28.925781 27.984375 33.109375-10.394531-9.105469-16.960938-22.46875-16.960938-37.378906v-47.589844zm0 0" fill="#8c4c17"/><path d="m60.839844 298.539062c0 8.027344-6.507813 14.53125-14.53125 14.53125-8.027344 0-14.535156-6.503906-14.535156-14.53125 0-8.027343 6.507812-14.535156 14.535156-14.535156 8.023437 0 14.53125 6.507813 14.53125 14.535156zm0 0" fill="#fff4c1"/><path d="m80.347656 81.109375c0 8.027344-6.507812 14.53125-14.535156 14.53125s-14.535156-6.503906-14.535156-14.53125 6.507812-14.535156 14.535156-14.535156 14.535156 6.507812 14.535156 14.535156zm0 0" fill="#8c4c17"/></svg>