<svg height="430pt" viewBox="0 -48 430 430" width="430pt" xmlns="http://www.w3.org/2000/svg"><path d="m269.125 297.339844h-108.25l26.46875-288.253906c.472656-5.148438 4.789062-9.085938 9.957031-9.085938h35.394531c5.171876 0 9.488282 3.9375 9.960938 9.085938zm0 0" fill="#eacf32"/><path d="m227.300781 0h-30c-5.167969 0-9.484375 3.941406-9.957031 9.085938l-26.46875 288.253906h30l26.46875-288.253906c.472656-5.144532 4.789062-9.085938 9.957031-9.085938zm0 0" fill="#ccc033"/><path d="m144.34375 154.050781h-121.609375l7.441406-21.128906c1.480469-4.195313 5.445313-7 9.890625-7h86.945313c4.449219 0 8.414062 2.804687 9.890625 7zm0 0" fill="#a56021"/><path d="m56.847656 125.921875h-16.777344c-4.449218 0-8.414062 2.804687-9.890624 7l-7.441407 21.128906h16.777344l7.441406-21.128906c1.476563-4.195313 5.441407-7 9.890625-7zm0 0" fill="#8c4c17"/><path d="m116.945312 322.339844h-66.8125c-6.507812 0-11.945312-4.964844-12.53125-11.449219l-12.777343-140.742187h117.433593l-12.777343 140.742187c-.589844 6.484375-6.023438 11.449219-12.535157 11.449219zm0 0" fill="#ffeacf"/><path d="m54.378906 310.890625-12.777344-140.742187h-16.777343l12.777343 140.742187c.585938 6.484375 6.023438 11.449219 12.53125 11.449219h16.777344c-6.507812 0-11.941406-4.964844-12.53125-11.449219zm0 0" fill="#ffd59a"/><path d="m141.085938 170.148438h-115.089844c-5.625 0-10.1875-4.5625-10.1875-10.1875s4.5625-10.183594 10.1875-10.183594h115.089844c5.625 0 10.183593 4.558594 10.183593 10.183594s-4.558593 10.1875-10.183593 10.1875zm0 0" fill="#a56021"/><path d="m33.527344 275.28125h100.023437c1.695313 0 3.113281-1.320312 3.273438-3.046875l4.882812-53.476563c.179688-1.96875-1.335937-3.667968-3.269531-3.667968h-109.792969c-1.9375 0-3.453125 1.699218-3.273437 3.667968l4.886718 53.476563c.15625 1.726563 1.574219 3.046875 3.269532 3.046875zm0 0" fill="#a56021"/><path d="m115.566406 244.96875c0 16.378906-13.277344 29.652344-29.65625 29.652344s-29.652344-13.273438-29.652344-29.652344 13.273438-29.65625 29.652344-29.65625 29.65625 13.277344 29.65625 29.65625zm0 0" fill="#db9c2e"/><path d="m32.589844 163.199219c0-2.78125 2.253906-5.035157 5.03125-5.035157h113.648437v-3.355468c0-2.78125-2.253906-5.035156-5.035156-5.035156h-125.390625c-2.78125 0-5.035156 2.253906-5.035156 5.035156v10.304687c0 2.78125 2.253906 5.035157 5.035156 5.035157h11.746094zm0 0" fill="#8c4c17"/><path d="m404.34375 154.050781h-121.609375l7.441406-21.128906c1.480469-4.195313 5.445313-7 9.890625-7h86.945313c4.449219 0 8.414062 2.804687 9.890625 7zm0 0" fill="#a56021"/><path d="m316.847656 125.921875h-16.777344c-4.449218 0-8.414062 2.804687-9.890624 7l-7.441407 21.128906h16.777344l7.441406-21.128906c1.476563-4.195313 5.441407-7 9.890625-7zm0 0" fill="#8c4c17"/><path d="m376.945312 322.339844h-66.8125c-6.507812 0-11.945312-4.964844-12.53125-11.449219l-12.777343-140.742187h117.433593l-12.777343 140.742187c-.589844 6.484375-6.023438 11.449219-12.535157 11.449219zm0 0" fill="#ffeacf"/><path d="m314.378906 310.890625-12.777344-140.742187h-16.777343l12.777343 140.742187c.585938 6.484375 6.023438 11.449219 12.53125 11.449219h16.777344c-6.507812 0-11.941406-4.964844-12.53125-11.449219zm0 0" fill="#ffd59a"/><path d="m401.085938 170.148438h-115.089844c-5.625 0-10.1875-4.5625-10.1875-10.1875s4.5625-10.183594 10.1875-10.183594h115.089844c5.625 0 10.183593 4.558594 10.183593 10.183594s-4.558593 10.1875-10.183593 10.1875zm0 0" fill="#a56021"/><path d="m293.527344 275.28125h100.023437c1.695313 0 3.113281-1.320312 3.273438-3.046875l4.882812-53.476563c.179688-1.96875-1.335937-3.667968-3.269531-3.667968h-109.792969c-1.9375 0-3.453125 1.699218-3.273437 3.667968l4.886718 53.476563c.15625 1.726563 1.574219 3.046875 3.269532 3.046875zm0 0" fill="#a56021"/><path d="m375.566406 244.96875c0 16.378906-13.277344 29.652344-29.65625 29.652344s-29.652344-13.273438-29.652344-29.652344 13.273438-29.65625 29.652344-29.65625 29.65625 13.277344 29.65625 29.65625zm0 0" fill="#db9c2e"/><path d="m292.589844 163.199219c0-2.78125 2.253906-5.035157 5.03125-5.035157h113.648437v-3.355468c0-2.78125-2.253906-5.035156-5.035156-5.035156h-125.390625c-2.78125 0-5.035156 2.253906-5.035156 5.035156v10.304687c0 2.78125 2.253906 5.035157 5.035156 5.035157h11.746094zm0 0" fill="#8c4c17"/><path d="m415 334.839844h-400c-8.285156 0-15-6.71875-15-15v-76.5c0-5.523438 4.476562-10 10-10h410c5.523438 0 10 4.476562 10 10v76.5c0 8.28125-6.714844 15-15 15zm0 0" fill="#ccc033"/><g fill="#99af17"><path d="m65 320.839844c-8.285156 0-15-6.71875-15-15v-72.5h-40c-5.523438 0-10 4.476562-10 10v76.5c0 8.28125 6.714844 15 15 15h400c7.945312 0 14.433594-6.183594 14.949219-14zm0 0"/><path d="m89.867188 262.945312c0 8.027344-6.507813 14.535157-14.535157 14.535157-8.027343 0-14.53125-6.507813-14.53125-14.535157 0-8.027343 6.503907-14.535156 14.53125-14.535156 8.027344 0 14.535157 6.507813 14.535157 14.535156zm0 0"/><path d="m130.097656 294.007812c0 8.027344-6.503906 14.535157-14.53125 14.535157s-14.535156-6.507813-14.535156-14.535157c0-8.027343 6.507812-14.535156 14.535156-14.535156s14.53125 6.507813 14.53125 14.535156zm0 0"/></g><path d="m238.769531 206.070312c0 8.027344-6.503906 14.535157-14.53125 14.535157-8.027343 0-14.535156-6.507813-14.535156-14.535157 0-8.027343 6.507813-14.535156 14.535156-14.535156 8.027344 0 14.53125 6.507813 14.53125 14.535156zm0 0" fill="#ccc033"/><path d="m408.667969 310.085938c-3.3125 0-6-2.6875-6-6v-55.675782c0-3.3125 2.6875-6 6-6s6 2.6875 6 6v55.675782c0 3.3125-2.6875 6-6 6zm0 0" fill="#eacf32"/></svg>