<svg height="435pt" viewBox="0 -72 435.60357 435" width="435pt" xmlns="http://www.w3.org/2000/svg"><path d="m389.445312 79.300781c9.039063 18.921875 1.546876 46.457031-19.28125 65.914063-23.921874 22.347656-56.367187 25.570312-72.46875 7.203125-15.960937-18.207031-9.863281-50.78125 13.535157-73.117188h-37.867188c-6.046875 10.007813-10.308593 20.8125-12.429687 31.847657-4.460938 23.226562.996094 45.691406 14.964844 61.628906 13.972656 15.9375 35.082031 23.78125 57.914062 21.511718 19.9375-1.980468 39.847656-11.417968 56.070312-26.574218 16.226563-15.15625 27.304688-34.671875 31.199219-54.949219 2.226563-11.582031 1.980469-22.976563-.550781-33.464844zm0 0" fill="#fcda4f"/><path d="m419.113281 65.351562c-13.96875-15.941406-35.078125-23.78125-57.910156-21.511718-19.933594 1.980468-39.847656 11.417968-56.070313 26.574218-16.226562 15.15625-27.304687 34.667969-31.199218 54.949219-4.460938 23.222657.992187 45.6875 14.964844 61.625 13.972656 15.941407 35.082031 23.78125 57.914062 21.511719 19.933594-1.980469 39.847656-11.417969 56.070312-26.574219 16.222657-15.15625 27.304688-34.667969 31.199219-54.949219 4.460938-23.226562-.992187-45.6875-14.96875-61.625zm-35.949219 94.078126c-23.921874 22.34375-56.367187 25.570312-72.46875 7.203124-16.101562-18.367187-9.761718-51.375 14.160157-73.722656 23.921875-22.34375 56.367187-25.570312 72.46875-7.203125 16.101562 18.371094 9.761719 51.375-14.160157 73.722657zm0 0" fill="#fff4c1"/><path d="m367.128906 170.976562c-20.84375 11.1875-43.726562 10.152344-56.433594-4.34375-16.101562-18.367187-9.761718-51.375 14.160157-73.722656 23.921875-22.34375 56.367187-25.570312 72.46875-7.203125 3.582031 4.089844 6.050781 8.90625 7.464843 14.167969 3.777344-13.214844 6.265626-27.066406 7.292969-41.378906-13.5625-11.285156-31.605469-16.574219-50.878906-14.65625-19.933594 1.980468-39.847656 11.417968-56.070313 26.574218-16.222656 15.15625-27.304687 34.667969-31.199218 54.949219-4.460938 23.222657.996094 45.6875 14.964844 61.625 9.246093 10.550781 21.621093 17.546875 35.546874 20.417969 15.960938-9.542969 30.363282-21.882812 42.683594-36.429688zm0 0" fill="#fce575"/><path d="m262.800781 251.300781h-116c-5.523437 0-10-4.476562-10-10v-49h136v49c0 5.523438-4.476562 10-10 10zm0 0" fill="#fcda4f"/><path d="m362.800781 19.300781h-315c-5.523437 0-10 4.476563-10 10v24.4375c0 102.746094 74.996094 186.035157 167.5 186.035157 92.507813 0 167.5-83.289063 167.5-186.035157v-24.4375c0-5.523437-4.476562-10-10-10zm0 0" fill="#fff4c1"/><path d="m265.519531 202.976562c-2.671875 0-5.109375-1.796874-5.808593-4.503906-.824219-3.203125 1.097656-6.46875 4.292968-7.304687.210938-.054688 12.628906-3.472657 27.457032-15.472657 13.734374-11.113281 32.441406-32.117187 43.546874-69.039062.957032-3.171875 4.304688-4.972656 7.476563-4.015625 3.171875.953125 4.972656 4.300781 4.019531 7.472656-23.273437 77.359375-77.199218 92.082031-79.484375 92.671875-.503906.128906-1.007812.191406-1.5.191406zm0 0" fill="#fcf9de"/><path d="m255.089844 229.773438c-92.390625 0-167.289063-83.289063-167.289063-186.035157v-24.4375h-40c-5.523437 0-10 4.476563-10 10v24.4375c0 102.746094 74.898438 186.035157 167.289063 186.035157 19.042968 0 37.339844-3.546876 54.394531-10.0625-1.460937.039062-2.925781.0625-4.394531.0625zm0 0" fill="#fce575"/><path d="m157.996094 76.402344c-2.304688-1.882813-6.082032-1.882813-8.386719 0l-30.554687 24.960937c-2.085938 1.703125-3.25 3.972657-3.25 6.332031v73.742188c0 3.789062 3.925781 6.863281 8.765624 6.863281h58.464844c4.84375 0 8.769532-3.074219 8.769532-6.863281v-73.742188c0-2.359374-1.167969-4.628906-3.253907-6.332031zm0 0" fill="#fce575"/><path d="m171.996094 66.402344c-2.304688-1.882813-6.082032-1.882813-8.386719 0l-30.554687 24.960937c-2.085938 1.703125-3.25 3.972657-3.25 6.332031v73.742188c0 3.789062 3.925781 6.863281 8.765624 6.863281h58.464844c4.84375 0 8.769532-3.074219 8.769532-6.863281v-73.742188c0-2.359374-1.167969-4.628906-3.253907-6.332031zm0 0" fill="#eacf32"/><path d="m190.800781 162.300781c-3.3125 0-6-2.6875-6-6v-42c0-3.3125 2.6875-6 6-6s6 2.6875 6 6v42c0 3.3125-2.6875 6-6 6zm0 0" fill="#fcda4f"/><path d="m151.800781 171.4375v-73.742188c0-2.359374 1.160157-4.628906 3.242188-6.332031l23.613281-19.367187-6.796875-5.574219c-2.3125-1.894531-6.09375-1.894531-8.410156 0l-30.40625 24.941406c-2.078125 1.703125-3.242188 3.972657-3.242188 6.332031v73.742188c0 3.789062 3.914063 6.863281 8.738281 6.863281h22c-4.824218 0-8.738281-3.074219-8.738281-6.863281zm0 0" fill="#ccc033"/><path d="m167.300781 83.300781c-4.140625 0-7.5-3.355469-7.5-7.5v-68c0-4.140625 3.359375-7.5 7.5-7.5 4.144531 0 7.5 3.359375 7.5 7.5v68c0 4.144531-3.355469 7.5-7.5 7.5zm0 0" fill="#8c4c17"/><path d="m327.800781 291.300781h-233c-5.523437 0-10-4.476562-10-10v-26h253v26c0 5.523438-4.476562 10-10 10zm0 0" fill="#ffd551"/><path d="m124.800781 276.300781h213v-21h-253v26c0 5.523438 4.476563 10 10 10h30zm0 0" fill="#ffc34c"/><path d="m367.902344 269.300781h-316.128906c-6.097657 0-12.03125-1.773437-16.910157-5.054687l-32.023437-21.542969c-5.425782-3.648437-2.554688-11.402344 4.226562-11.402344h405.542969c6.78125 0 9.65625 7.753907 4.230469 11.402344l-32.027344 21.542969c-4.878906 3.28125-10.8125 5.054687-16.910156 5.054687zm0 0" fill="#ffd551"/><g fill="#fce575"><path d="m135.800781 53.300781c0 8.285157-6.714843 15-15 15-8.28125 0-15-6.714843-15-15 0-8.285156 6.71875-15 15-15 8.285157 0 15 6.714844 15 15zm0 0"/><path d="m249.800781 121.300781c0 8.285157-6.714843 15-15 15-8.28125 0-15-6.714843-15-15 0-8.285156 6.71875-15 15-15 8.285157 0 15 6.714844 15 15zm0 0"/></g></svg>