<svg height="460pt" viewBox="0 -52 460 460" width="460pt" xmlns="http://www.w3.org/2000/svg"><path d="m50 230.152344h-18.472656c-8.285156 0-15 6.71875-15 15v79.796875c0 8.285156 6.714844 15 15 15h18.546875c-.039063-.488281-.074219-.976563-.074219-1.472657zm0 0" fill="#8c4c17"/><path d="m445 281.144531h-126.453125c-8.285156 0-15-6.714843-15-15v-58.535156c0-8.285156 6.714844-15 15-15h126.453125c8.285156 0 15 6.714844 15 15v58.535156c0 8.285157-6.714844 15-15 15zm0 0" fill="#ccc033"/><path d="m396.085938 231.285156c0 8.027344-6.507813 14.53125-14.535157 14.53125-8.027343 0-14.53125-6.503906-14.53125-14.53125s6.503907-14.535156 14.53125-14.535156c8.027344 0 14.535157 6.507812 14.535157 14.535156zm0 0" fill="#99af17"/><path d="m358.546875 207.609375h101.453125c0-8.285156-6.714844-15-15-15h-126.453125c-8.285156 0-15 6.714844-15 15v58.535156c0 8.285157 6.714844 15 15 15h25v-58.535156c0-8.285156 6.714844-15 15-15zm0 0" fill="#99af17"/><path d="m179.289062 63.835938c-3.160156-7.210938-10.289062-11.863282-18.160156-11.863282h-111.816406c-7.871094 0-14.996094 4.652344-18.160156 11.863282l-31.152344 70.996093v203.644531c0 9.9375 8.058594 18 18 18h174.441406c9.941406 0 18-8.0625 18-18v-203.644531zm0 0" fill="#fff4c1"/><path d="m50 338.476562v-203.644531l31.152344-70.996093c3.164062-7.210938 10.289062-11.863282 18.164062-11.863282h-50c-7.875 0-15 4.652344-18.164062 11.863282l-31.152344 70.996093v203.644531c0 9.9375 8.058594 18 18 18h50c-9.941406 0-18-8.0625-18-18zm0 0" fill="#ffd59a"/><path d="m123.742188 94.734375c0 10.226563-8.292969 18.519531-18.519532 18.519531-10.230468 0-18.519531-8.292968-18.519531-18.519531 0-10.230469 8.289063-18.519531 18.519531-18.519531 10.226563 0 18.519532 8.289062 18.519532 18.519531zm0 0" fill="#ffd59a"/><path d="m16.527344 324.949219v-79.796875c0-8.285156 6.714844-15 15-15h147.386718c8.285157 0 15 6.714844 15 15v79.796875c0 8.28125-6.714843 15-15 15h-147.386718c-8.285156 0-15-6.714844-15-15zm0 0" fill="#a56021"/><path d="m381.773438 238.660156c-4.972657 0-9-4.027344-9-9v-189.808594c0-12.050781-9.804688-21.851562-21.851563-21.851562h-214.851563c-12.046874 0-21.851562 9.800781-21.851562 21.851562v53.550782c0 4.96875-4.027344 9-9 9-4.96875 0-9-4.03125-9-9v-53.550782c0-21.972656 17.878906-39.851562 39.851562-39.851562h214.851563c21.972656 0 39.851563 17.878906 39.851563 39.851562v189.808594c0 4.972656-4.03125 9-9 9zm0 0" fill="#8c4c17"/><path d="m181.5 273.738281c-3.3125 0-6-2.6875-6-6v-117.925781l-19.226562-34.128906c-1.628907-2.886719-.605469-6.546875 2.28125-8.171875 2.890624-1.628907 6.546874-.605469 8.171874 2.28125l20 35.5c.507813.898437.773438 1.910156.773438 2.945312v119.5c0 3.3125-2.6875 6-6 6zm0 0" fill="#fcf9de"/><g fill="#8c4c17"><path d="m85.085938 314.285156c0 8.027344-6.507813 14.53125-14.535157 14.53125-8.027343 0-14.53125-6.503906-14.53125-14.53125s6.503907-14.535156 14.53125-14.535156c8.027344 0 14.535157 6.507812 14.535157 14.535156zm0 0"/><path d="m115.085938 272.285156c0 8.027344-6.507813 14.53125-14.535157 14.53125-8.027343 0-14.53125-6.503906-14.53125-14.53125s6.503907-14.535156 14.53125-14.535156c8.027344 0 14.535157 6.507812 14.535157 14.535156zm0 0"/><path d="m50 230.152344h-18.472656c-8.285156 0-15 6.71875-15 15v79.796875c0 8.285156 6.714844 15 15 15h18.546875c-.039063-.488281-.074219-.976563-.074219-1.472657zm0 0"/></g></svg>