<svg height="468pt" viewBox="0 -18 468.88833 468" width="468pt" xmlns="http://www.w3.org/2000/svg"><path d="m234.445312 75.636719 7.507813 47.585937h21.519531l7.503906-47.585937c0-7.472657-6.054687-13.53125-13.527343-13.53125h-9.476563c-7.472656 0-13.527344 6.058593-13.527344 13.53125zm0 0" fill="#db9c2e"/><path d="m260.210938 62.390625c-.890626-.183594-1.816407-.285156-2.761719-.285156h-9.476563c-7.472656 0-13.53125 6.058593-13.53125 13.53125l7.507813 47.585937h15l-7.503907-47.585937c0-6.527344 4.617188-11.96875 10.765626-13.246094zm0 0" fill="#bf6c0d"/><path d="m279.425781.445312h-64.886719c-57.101562 0-103.390624 46.289063-103.390624 103.390626v61.050781h14.769531v-61.050781c0-48.945313 39.675781-88.621094 88.621093-88.621094h64.886719c48.945313 0 88.621094 39.675781 88.621094 88.621094v61.050781h14.769531v-61.050781c0-57.101563-46.289062-103.390626-103.390625-103.390626zm0 0" fill="#ccc033"/><path d="m296.980469 431.617188h-101.898438c-16.796875 0-30.417969-13.621094-30.417969-30.421876h162.734376c0 16.800782-13.617188 30.421876-30.417969 30.421876zm0 0" fill="#db9c2e"/><path d="m111.148438 164.886719c-23.597657 27.027343-37.707032 61.25-37.707032 98.484375 0 87.394531 77.699219 158.246094 173.539063 158.246094 95.84375 0 173.542969-70.851563 173.542969-158.246094 0-37.234375-14.109376-71.457032-37.707032-98.484375zm0 0" fill="#ffdf74"/><path d="m6.003906 183.59375h32.875c3.382813 0 6.390625 2.128906 7.535156 5.316406 4.695313 13.101563 20.867188 45.5 64.734376 39.980469v90.589844s-99.320313-5.710938-111.1210942-129.347657c-.3359378-3.511718 2.4531252-6.539062 5.9765622-6.539062zm0 0" fill="#ffdf74"/><path d="m296.980469 411.617188c-95.84375 0-173.539063-70.851563-173.539063-158.246094 0-32.78125 10.941406-63.226563 29.660156-88.484375h-41.953124c-23.597657 27.027343-37.707032 61.25-37.707032 98.484375 0 87.394531 77.699219 158.246094 173.539063 158.246094 21.8125 0 42.679687-3.679688 61.90625-10.378907-3.933594.242188-7.902344.378907-11.90625.378907zm0 0" fill="#ffc34c"/><path d="m114.136719 169h265.691406c4.753906 0 7.167969-5.765625 3.792969-9.113281-33.902344-33.660157-82.566406-54.765625-136.640625-54.765625-54.070313 0-102.734375 21.105468-136.640625 54.765625-3.371094 3.347656-.957032 9.113281 3.796875 9.113281zm0 0" fill="#db9c2e"/><path d="m286.980469 115.121094c9.804687 0 19.421875.703125 28.8125 2.039062-21.277344-7.757812-44.492188-12.039062-68.8125-12.039062-54.070313 0-102.734375 21.105468-136.636719 54.765625-3.375 3.347656-.960938 9.113281 3.792969 9.113281h37.121093c33.863282-33.140625 82.132813-53.878906 135.722657-53.878906zm0 0" fill="#bf6c0d"/><path d="m23.574219 183.59375h-17.570313c-3.523437 0-6.3125 3.03125-5.9765622 6.539062 11.8007812 123.636719 111.1210942 129.347657 111.1210942 129.347657v-34.03125c-26.84375-8.042969-72.851563-31.894531-87.574219-101.855469zm0 0" fill="#ffc34c"/><path d="m348.292969 404.300781h87.195312v16.042969c0 6.226562-5.046875 11.269531-11.273437 11.269531h-64.648438c-6.226562 0-11.273437-5.042969-11.273437-11.269531zm0 0" fill="#eacf32"/><path d="m406.386719 422.347656h-28.996094c-34.515625 0-62.5-27.980468-62.5-62.5v-27.023437c0-2.757813 2.242187-5 5-5h143.996094c2.761719 0 5 2.242187 5 5v27.023437c0 34.519532-27.980469 62.5-62.5 62.5zm0 0" fill="#fcda4f"/><path d="m417.390625 412.347656c-34.515625 0-62.5-27.980468-62.5-62.5v-22.023437h-35c-2.757813 0-5 2.242187-5 5v27.023437c0 34.519532 27.984375 62.5 62.5 62.5h28.996094c12.5 0 24.128906-3.683594 33.894531-10zm0 0" fill="#eacf32"/><path d="m422.808594 407.195312c-3.0625 0-5.675782-2.332031-5.964844-5.441406-.308594-3.296875 2.113281-6.222656 5.414062-6.53125 24.058594-2.25 23.589844-44.328125 23.582032-44.75-.058594-3.3125 2.574218-6.046875 5.882812-6.109375h.117188c3.257812 0 5.929687 2.605469 5.996094 5.875.042968 2.191407.664062 53.648438-34.460938 56.933594-.191406.015625-.378906.023437-.566406.023437zm0 0" fill="#ffdf74"/><path d="m382.8125 318.738281c-.84375 0-1.695312-.175781-2.511719-.550781-3.007812-1.390625-4.320312-4.957031-2.933593-7.964844 29.882812-64.714844-13.773438-109.585937-14.21875-110.03125-2.339844-2.347656-2.335938-6.144531.011718-8.484375 2.347656-2.339843 6.144532-2.335937 8.484375.011719.523438.519531 12.847657 13.03125 21.058594 34.511719 7.574219 19.820312 12.957031 51.351562-4.441406 89.023437-1.011719 2.195313-3.179688 3.484375-5.449219 3.484375zm0 0" fill="#ffeacf"/><path d="m216.722656 344.765625c0 8.28125-6.714844 15-15 15s-15-6.71875-15-15c0-8.285156 6.714844-15 15-15s15 6.714844 15 15zm0 0" fill="#ffc34c"/><path d="m263.785156 370.863281c0 8.285157-6.714844 15-15 15s-15-6.714843-15-15c0-8.285156 6.714844-15 15-15s15 6.714844 15 15zm0 0" fill="#ffc34c"/><path d="m303.96875 137.0625c0 8.285156-6.71875 15-15 15-8.285156 0-15-6.714844-15-15s6.714844-15 15-15c8.28125 0 15 6.714844 15 15zm0 0" fill="#bf6c0d"/></svg>