<svg height="449pt" viewBox="0 -84 449.35688 449" width="449pt" xmlns="http://www.w3.org/2000/svg"><path d="m152.921875 132.582031c-2.621094 0-5.027344-1.726562-5.773437-4.371093l-3.851563-13.679688c-.882813-3.132812.890625-6.394531 4-7.359375l62.851563-19.464844c3.164062-.984375 6.527343.789063 7.507812 3.957031.980469 3.164063-.792969 6.527344-3.957031 7.503907l-57.269531 17.738281 2.269531 8.046875c.898437 3.191406-.957031 6.503906-4.148438 7.402344-.542969.15625-1.089843.226562-1.628906.226562zm0 0" fill="#fce575"/><path d="m158.757812 181.011719-21.460937-92.320313c-1.007813-4.328125-.789063-8.851562.625-13.0625l23.214844-69.035156c.871093-2.585938-1.054688-5.265625-3.785157-5.265625h-151.796874c-2.730469 0-4.652344 2.679687-3.785157 5.265625l23.214844 69.035156c1.417969 4.210938 1.632813 8.734375.628906 13.0625l-21.464843 92.320313c-2.757813 11.859375-4.148438 23.992187-4.148438 36.167969v36.496093c0 15.4375 12.515625 27.949219 27.949219 27.949219h107.007812c15.4375 0 27.949219-12.511719 27.949219-27.949219v-36.496093c0-12.175782-1.390625-24.308594-4.148438-36.167969zm0 0" fill="#ffc34c"/><path d="m352.113281 266.136719c1.128907-2.480469 1.722657-5.035157 1.722657-7.644531 0-9.8125-8.324219-18.851563-22.3125-26.058594-3.140626-7.902344-14.054688-14.855469-29.753907-19.761719.539063-1.5.835938-3.039063.835938-4.613281 0-6.554688-4.878907-12.558594-12.976563-17.230469-1.210937-15.984375-12.25-28.5-25.695312-28.5-10.621094 0-19.742188 7.8125-23.703125 18.976563-27.964844 1.515624-49.707031 12.910156-49.707031 26.753906 0 1.574218.296874 3.113281.835937 4.613281-15.699219 4.90625-26.613281 11.863281-29.753906 19.761719-13.542969 6.980468-21.753907 15.675781-22.265625 25.128906h-.046875v8.136719c0 8.464843 7.53125 15.367187 17.03125 15.875.027343.015625.050781.035156.078125.050781h180.324218c.136719-.082031.261719-.167969.394532-.253906 8.371094-1.277344 14.757812-7.578125 14.992187-15.234375zm0 0" fill="#a56021"/><path d="m442.554688 39.546875c-40.480469 19.011719-210.320313 64.085937-243.050782 72.695313-3.078125.808593-6.242187-.925782-7.226562-3.949219l-5.253906-16.148438c-.984376-3.023437.554687-6.285156 3.519531-7.441406 31.53125-12.300781 195.378906-75.796875 239.292969-84.246094 5.390624-1.035156 10.191406.878907 11.390624 4.570313l7.851563 24.125c1.199219 3.6875-1.554687 8.058594-6.523437 10.394531zm0 0" fill="#a56021"/><path d="m42.464844 253.675781v-36.496093c0-12.175782 1.390625-24.308594 4.148437-36.167969l21.460938-92.320313c1.007812-4.328125.789062-8.851562-.625-13.0625l-23.214844-69.035156c-.871094-2.585938 1.054687-5.261719 3.785156-5.261719h-42.464843c-2.730469 0-4.652344 2.675781-3.785157 5.261719l23.214844 69.035156c1.417969 4.210938 1.632813 8.734375.628906 13.0625l-21.464843 92.320313c-2.757813 11.859375-4.148438 23.992187-4.148438 36.167969v36.496093c0 15.4375 12.515625 27.949219 27.949219 27.949219h42.464843c-15.4375 0-27.949218-12.511719-27.949218-27.949219zm0 0" fill="#ffb74b"/><path d="m150.054688 218.265625c-.085938 0-.167969-.003906-.253907-.007813-3.3125-.136718-5.882812-2.933593-5.746093-6.246093 1.140624-27.148438-19.320313-86.554688-19.523438-87.152344-1.085938-3.128906.574219-6.546875 3.703125-7.632813 3.132813-1.085937 6.550781.574219 7.632813 3.707032.875 2.523437 21.410156 62.179687 20.179687 91.582031-.136719 3.226563-2.792969 5.75-5.992187 5.75zm0 0" fill="#ffd551"/><path d="m98.476562 234.203125c0 12.117187-9.820312 21.9375-21.9375 21.9375-12.117187 0-21.941406-9.820313-21.941406-21.9375s9.824219-21.9375 21.941406-21.9375c12.117188 0 21.9375 9.820313 21.9375 21.9375zm0 0" fill="#ffb74b"/><g fill="#8c4c17"><path d="m235.203125 81.722656c30.132813-11.738281 144.152344-55.808594 206.53125-75.136718l-.507813-1.558594c-1.199218-3.691406-6-5.605469-11.390624-4.570313-43.914063 8.449219-207.761719 71.945313-239.292969 84.246094-2.964844 1.15625-4.503907 4.417969-3.519531 7.441406l5.253906 16.148438c.984375 3.023437 4.148437 4.757812 7.226562 3.949219 6.585938-1.734376 18.726563-4.941407 34.246094-9.117188l-3.535156-10.863281c-1.390625-4.28125.792968-8.902344 4.988281-10.539063zm0 0"/><path d="m272.324219 230.132812c0 12.117188-9.820313 21.941407-21.9375 21.941407-12.117188 0-21.941407-9.824219-21.941407-21.941407 0-12.113281 9.824219-21.9375 21.941407-21.9375 12.117187 0 21.9375 9.824219 21.9375 21.9375zm0 0"/><path d="m323 225.410156c1.785156.558594 3.5 1.144532 5.15625 1.753906-1.257812-1.417968-2.769531-2.796874-4.523438-4.121093-.140624.800781-.351562 1.589843-.632812 2.367187zm0 0"/><path d="m160.523438 278.441406v-8.140625h.046874c.507813-9.453125 8.722657-18.148437 22.265626-25.128906 3.140624-7.898437 14.054687-14.855469 29.753906-19.761719-.539063-1.5-.835938-3.039062-.835938-4.613281 0-13.84375 21.742188-25.238281 49.707032-26.75 3.902343-10.996094 12.8125-18.726563 23.226562-18.957031-4.699219-7.742188-12.242188-12.761719-20.753906-12.761719-10.621094 0-19.742188 7.816406-23.703125 18.976563-27.964844 1.511718-49.707031 12.910156-49.707031 26.753906 0 1.574218.296874 3.113281.835937 4.613281-15.703125 4.90625-26.617187 11.863281-29.757813 19.761719-13.539062 6.980468-21.753906 15.675781-22.261718 25.128906h-.050782v8.136719c0 8.464843 7.535157 15.367187 17.035157 15.875.023437.015625.050781.035156.074219.050781h4.492187c-.238281-1.027344-.367187-2.09375-.367187-3.183594zm0 0"/></g><path d="m120.644531 78.960938c-.609375 0-1.230469-.09375-1.84375-.289063-3.152343-1.019531-4.882812-4.402344-3.867187-7.554687l16.605468-51.453126c1.019532-3.15625 4.402344-4.882812 7.554688-3.867187 3.152344 1.019531 4.886719 4.398437 3.867188 7.550781l-16.605469 51.457032c-.820313 2.539062-3.175781 4.15625-5.710938 4.15625zm0 0" fill="#ffd551"/></svg>