<svg height="444pt" viewBox="0 -92 444.44004 444" width="444pt" xmlns="http://www.w3.org/2000/svg"><path d="m396.089844 44.785156c-.460938 1.257813-1.203125 2.460938-2.269532 3.535156l-98.605468 98.777344c-3.632813 3.636719-8.558594 5.683594-13.699219 5.6875l-14.558594.015625-.097656-108.015625h-24.222656l.117187 132.257813 46.808594-.039063c6.425781-.007812 12.585938-2.566406 17.125-7.113281l124.886719-125.105469zm0 0" fill="#ff4b34"/><path d="m425.011719 20.542969-179.40625.089843.148437 169.410157 46.808594-.042969c6.425781-.003906 12.582031-2.5625 17.121094-7.109375l129.054687-129.277344c12.195313-12.214843 3.535157-33.078125-13.726562-33.070312zm-28.191407 40.777343-98.605468 98.777344c-3.632813 3.636719-8.558594 5.683594-13.699219 5.6875l-14.558594.015625-.105469-120.957031 120.105469-.058594c8.628907-.003906 12.957031 10.425782 6.863281 16.535156zm0 0" fill="#ff9079"/><path d="m320.507812 172.050781c2.488282-3.890625 3.9375-8.515625 3.933594-13.476562l-.011718-15.101563h1.402343c13.804688-.011718 24.988281-11.214844 24.976563-25.023437l-.007813-10.789063c12.339844-.960937 22.160157-10.875 22.972657-23.253906l-75.558594 75.691406c-3.632813 3.636719-8.558594 5.683594-13.699219 5.6875l-14.558594.015625-.105469-120.953125 120.105469-.0625c4.996094-.003906 8.546875 3.492188 9.46875 7.621094 2.875-4.074219 4.566407-9.042969 4.5625-14.410156l-.015625-17.441406-158.367187.078124.152343 169.410157 46.808594-.039063c.398438 0 .796875-.011718 1.195313-.03125.769531-2.03125 1.328125-4.164062 1.640625-6.375l4.066406-.003906c4.960938-.003906 9.582031-1.460938 13.46875-3.957031zm0 0" fill="#ff624b"/><path d="m222.457031 211.460938-69.636719.0625c-16.570312.015624-30.011718-13.40625-30.027343-29.972657l-.007813-9.351562 129.636719-.113281.007813 9.347656c.015624 16.570312-13.40625 30.015625-29.972657 30.027344zm0 0" fill="#ff9079"/><path d="m162.792969 181.550781-.007813-9.351562h-40l.007813 9.351562c.015625 16.566407 13.460937 29.988281 30.027343 29.972657l38.609376-.035157c-15.921876-.710937-28.621094-13.835937-28.636719-29.9375zm0 0" fill="#ff624b"/><path d="m286.273438 259.144531-201.707032.175781c-9.9375.007813-18.003906-8.042968-18.015625-17.984374l-.011719-12.359376 237.707032-.207031.011718 12.359375c.011719 9.941406-8.042968 18.007813-17.984374 18.015625zm0 0" fill="#ff624b"/><path d="m256.191406 185.707031-137.175781.121094c-13.804687.011719-25.007813-11.171875-25.019531-24.976563l-.03125-35.667968 187.171875-.164063.03125 35.667969c.011719 13.804688-11.171875 25.007812-24.976563 25.019531zm0 0" fill="#ff9079"/><path d="m106.539062 247.976562 196.433594-.171874c.824219-2.066407 1.289063-4.316407 1.289063-6.675782l-.011719-12.359375-237.710938.207031.011719 12.359376c.011719 9.941406 8.078125 17.992187 18.015625 17.984374l21.984375-.019531zm0 0" fill="#ff4b34"/><path d="m370.539062 239.046875-362.519531.316406c-4.417969.003907-8.003906-3.574219-8.0078122-7.992187l-.0117188-12.742188c-.00390625-4.417968 3.574219-8.003906 7.992188-8.007812l362.523437-.320313c4.417969-.003906 8.003906 3.578125 8.007813 7.996094l.011718 12.742187c.003906 4.417969-3.574218 8.003907-7.996094 8.007813zm0 0" fill="#ff624b"/><path d="m133.996094 160.851562-.03125-35.667968h-40l.03125 35.667968c.011718 13.804688 11.214844 24.988282 25.019531 24.976563l38.679687-.035156c-13.191406-.675781-23.6875-11.578125-23.699218-24.941407zm0 0" fill="#ff624b"/><path d="m282.554688 145.585938-190.011719.167968c-13.808594.011719-25.011719-11.171875-25.023438-24.980468l-.03125-35.667969 240.015625-.210938.03125 35.667969c.011719 13.808594-11.171875 25.011719-24.980468 25.023438zm0 0" fill="#ff9079"/><path d="m107.519531 120.773438-.03125-35.667969h-40l.03125 35.667969c.011719 13.808593 11.214844 24.992187 25.023438 24.980468l38.679687-.035156c-13.195312-.675781-23.691406-11.582031-23.703125-24.945312zm0 0" fill="#ff624b"/><path d="m305.582031 109.855469-236.152343.207031c-13.808594.011719-25.007813-11.167969-25.023438-24.976562l-.027344-35.667969 286.152344-.25.03125 35.667969c.011719 13.804687-11.171875 25.007812-24.980469 25.019531zm0 0" fill="#ff9079"/><path d="m84.40625 85.085938-.027344-35.667969h-40l.027344 35.667969c.015625 13.808593 11.214844 24.988281 25.023438 24.976562l38.679687-.03125c-13.195313-.675781-23.691406-11.582031-23.703125-24.945312zm0 0" fill="#ff624b"/><path d="m335.734375 65.128906-296.546875.261719c-13.808594.011719-25.011719-11.171875-25.023438-24.976563l-.027343-31.898437c-.003907-4.417969 3.574219-8 7.992187-8.003906l330.550782-.292969c4.417968-.003906 8.003906 3.578125 8.007812 7.996094l.027344 31.894531c.011718 13.804687-11.171875 25.007813-24.980469 25.019531zm0 0" fill="#ff9079"/><path d="m54.164062 40.414062-.027343-31.898437c-.003907-4.417969 3.574219-8 7.992187-8.003906h-40c-4.417968.003906-7.996094 3.585937-7.992187 8.003906l.027343 31.898437c.011719 13.804688 11.214844 24.988282 25.023438 24.976563l38.679688-.035156c-13.195313-.671875-23.691407-11.578125-23.703126-24.941407zm0 0" fill="#ff624b"/><path d="m316.691406 55.992188c-.910156 0-1.839844-.019532-2.785156-.0625-3.308594-.144532-5.875-2.949219-5.726562-6.257813.144531-3.3125 2.9375-5.875 6.257812-5.730469 9.371094.421875 15.953125-1.691406 19.59375-6.269531 6.699219-8.414063 2.71875-23.175781 2.679688-23.324219-.886719-3.1875.976562-6.492187 4.160156-7.386718 3.183594-.890626 6.488281.953124 7.390625 4.136718.234375.839844 5.699219 20.734375-4.796875 33.996094-5.734375 7.238281-14.730469 10.898438-26.773438 10.898438zm0 0" fill="#ffd59a"/><g fill="#ff624b"><path d="m90.257812 26.945312c0 8.027344-6.507812 14.535157-14.535156 14.535157s-14.53125-6.507813-14.53125-14.535157c0-8.027343 6.503906-14.535156 14.53125-14.535156s14.535156 6.507813 14.535156 14.535156zm0 0"/><path d="m137.257812 44.945312c0 8.027344-6.507812 14.535157-14.535156 14.535157s-14.53125-6.507813-14.53125-14.535157c0-8.027343 6.503906-14.535156 14.53125-14.535156s14.535156 6.507813 14.535156 14.535156zm0 0"/></g></svg>