<svg height="477pt" viewBox="-83 0 477 477.333" width="477pt" xmlns="http://www.w3.org/2000/svg"><path d="m276.59375 338.382812h-22.25l21.007812 58.675782c.253907.707031.308594 1.460937.148438 2.214844-.398438 1.917968-2.246094 3.1875-4.203125 3.1875h-68.324219v-64.078126h-20.945312v85.027344h89.523437c13.800781 0 24.988281-11.1875 24.988281-24.988281 0-2.871094-.496093-5.722656-1.464843-8.425781zm0 0" fill="#bf6c0d"/><path d="m308.917969 404.996094-25.421875-70.996094c-3.554688-9.933594-12.972656-16.5625-23.523438-16.5625h-64.101562v120.96875h89.523437c13.800781 0 24.988281-11.1875 24.988281-24.984375 0-2.875-.496093-5.722656-1.464843-8.425781zm-19.570313 9.273437c-.402344 1.917969-2.246094 3.191407-4.203125 3.191407h-68.324219v-79.078126h43.152344c1.699219 0 3.230469 1.078126 3.804688 2.679688l25.421875 70.996094c.253906.703125.304687 1.460937.148437 2.210937zm0 0" fill="#f9bb32"/><path d="m271.539062 417.460938h-54.71875v-79.078126h41.75c-6.105468-12.855468-11.753906-20.945312-11.753906-20.945312h-50.945312v120.96875h68.066406c3.632812-6.855469 6.078125-13.890625 7.601562-20.945312zm0 0" fill="#db9c2e"/><path d="m217.972656 317.4375h-155.273437s-67.257813 96.203125 11.582031 152.835938c5.410156 4.410156 12.3125 7.058593 19.839844 7.058593h92.429687c7.527344 0 14.429688-2.648437 19.839844-7.058593 78.839844-56.632813 11.582031-152.835938 11.582031-152.835938zm0 0" fill="#ffeacf"/><path d="m108.84375 317.4375h-46.144531s-67.257813 96.203125 11.582031 152.835938c5.410156 4.414062 12.3125 7.058593 19.839844 7.058593h46.144531c-7.523437 0-14.429687-2.648437-19.839844-7.058593-78.839843-56.632813-11.582031-152.835938-11.582031-152.835938zm0 0" fill="#ffd59a"/><path d="m92.769531 221.296875h94v63.21875h-94zm0 0" fill="#db9c2e"/><path d="m188.796875 287.4375c-.804687-.875-1.457031-1.863281-1.957031-2.921875h-94.304688c-.5 1.058594-1.15625 2.050781-1.964844 2.921875l-24.238281 26.113281c-1.367187 1.476563-.332031 3.886719 1.667969 3.886719h143.300781c2 0 3.039063-2.410156 1.671875-3.882812zm0 0" fill="#f9bb32"/><path d="m100.945312 313.550781 24.449219-26.113281c2.003907-2.136719 3.117188-4.957031 3.117188-7.882812v-58.257813h-34.609375v58.257813c0 2.925781-1.117188 5.746093-3.117188 7.882812l-24.449218 26.113281c-1.378907 1.476563-.335938 3.886719 1.683593 3.886719h34.609375c-2.019531 0-3.0625-2.410156-1.683594-3.886719zm0 0" fill="#db9c2e"/><path d="m92.769531 221.296875h35.742188v63.21875h-35.742188zm0 0" fill="#a56021"/><path d="m92.769531 284.515625h34.609375c.734375-1.539063 1.132813-3.230469 1.132813-4.960937v-58.257813h-34.609375v58.257813c0 1.730468-.402344 3.421874-1.132813 4.960937zm0 0" fill="#bf6c0d"/><path d="m229.882812 178.992188c.101563-1.480469.164063-2.96875.164063-4.46875s-.0625-2.992188-.164063-4.472657v-80.269531h-179.09375v80.269531c-.101562 1.480469-.164062 2.972657-.164062 4.472657s.0625 2.988281.164062 4.46875v2.050781h.179688c3.855469 39.511719 42.378906 70.550781 89.367188 70.550781 46.984374 0 85.511718-31.039062 89.367187-70.550781h.179687zm0 0" fill="#ffeacf"/><path d="m171.558594 153.617188h-62.445313c-4.417969 0-8-3.582032-8-8v-93.90625h78.445313v93.90625c0 4.417968-3.582032 8-8 8zm0 0" fill="#ffd59a"/><path d="m106.878906 144.847656v-34.203125h66.914063v34.203125c0 1.65625-1.34375 3-3 3h-60.914063c-1.65625 0-3-1.34375-3-3zm0 0" fill="#a56021"/><path d="m97.113281 181.042969h-.179687v-2.050781c-.097656-1.476563-.160156-2.96875-.160156-4.46875s.0625-2.988282.160156-4.46875v-80.273438h-46.144532v80.273438c-.101562 1.480468-.164062 2.96875-.164062 4.46875s.0625 2.992187.164062 4.46875v2.050781h.179688c3.855469 39.511719 42.378906 70.550781 89.367188 70.550781 7.980468 0 15.707031-.914062 23.074218-2.59375-35.992187-8.214844-63.09375-35.15625-66.296875-67.957031zm0 0" fill="#ffd59a"/><path d="m135.722656 144.386719v-92.675781h-34.609375v92.675781c0 5.097656 4.128907 9.230469 9.226563 9.230469h34.609375c-5.097657 0-9.226563-4.132813-9.226563-9.230469zm0 0" fill="#ffc34c"/><path d="m232.097656 89.78125h-183.523437c-11.042969 0-20-8.953125-20-20v-45.65625h223.523437v45.65625c0 11.046875-8.957031 20-20 20zm0 0" fill="#ffa730"/><path d="m74.722656 66.707031v-42.582031h-46.148437v42.582031c0 12.742188 10.332031 23.074219 23.074219 23.074219h46.144531c-12.742188 0-23.070313-10.332031-23.070313-23.074219zm0 0" fill="#e58d23"/><path d="m274.503906 48.25h-268.335937c-3.316407 0-6-2.6875-6-6v-36.25c0-3.3125 2.683593-6 6-6h268.335937c3.316406 0 6 2.6875 6 6v36.25c0 3.3125-2.683594 6-6 6zm0 0" fill="#bf6c0d"/><path d="m46.3125 41.328125v-34.40625c0-3.824219 3.097656-6.921875 6.921875-6.921875h-46.144531c-3.824219 0-6.921875 3.097656-6.921875 6.921875v34.40625c0 3.824219 3.097656 6.921875 6.921875 6.921875h46.144531c-3.824219 0-6.921875-3.101562-6.921875-6.921875zm0 0" fill="#a56021"/><path d="m135.722656 110.644531h-28.84375v33.742188c0 1.914062 1.550782 3.460937 3.460938 3.460937h26.058594c-.433594-1.070312-.675782-2.234375-.675782-3.460937zm0 0" fill="#8c4c17"/><path d="m63.25 377.921875c-4.578125 0-8.515625 3.355469-9.136719 7.894531-4.070312 29.789063 5.875 52.882813 30.261719 70.402344l.429688.308594.410156.335937c1.773437 1.445313 4.753906 3.164063 8.90625 3.164063h92.429687c4.152344 0 7.132813-1.71875 8.90625-3.164063l.410157-.335937.429687-.308594c24.386719-17.519531 34.332031-40.613281 30.257813-70.402344-.621094-4.539062-4.554688-7.894531-9.132813-7.894531zm0 0" fill="#fcf9de"/><path d="m67.953125 173.46875c-.011719.359375-.023437.722656-.023437 1.054688 0 .988281.042968 2.074218.125 3.316406l.027343.382812.109375 1.140625c3.007813 30.800781 34.695313 54.925781 72.144532 54.925781 37.445312 0 69.136718-24.128906 72.144531-54.925781l.109375-1.140625.027344-.382812c.082031-1.242188.125-2.328125.125-3.316406 0-.332032-.011719-.695313-.023438-1.054688zm0 0" fill="#a56021"/><path d="m114.335938 179.363281-.109376-1.140625-.027343-.382812c-.082031-1.242188-.121094-2.328125-.121094-3.316406 0-.332032.007813-.695313.019531-1.054688h-46.144531c-.011719.359375-.023437.722656-.023437 1.054688 0 .988281.042968 2.074218.125 3.316406l.027343.382812.109375 1.140625c3.007813 30.800781 34.695313 54.925781 72.144532 54.925781 8.03125 0 15.796874-1.117187 23.074218-3.164062-26.648437-7.5-46.710937-27.570312-49.074218-51.761719zm0 0" fill="#8c4c17"/><path d="m186.777344 451.109375c-2.148438 0-4.222656-1.15625-5.304688-3.183594-1.554687-2.917969-.449218-6.542969 2.460938-8.105469 1.824218-.984374 44.375-24.714843 17.625-75.230468-1.550782-2.929688-.433594-6.5625 2.496094-8.109375 2.925781-1.550781 6.558593-.433594 8.109374 2.492187 16.847657 31.816406 9.820313 55.054688.957032 68.941406-9.507813 14.910157-22.960938 22.1875-23.53125 22.488282-.898438.480468-1.863282.707031-2.8125.707031zm0 0" fill="#fff4c1"/><path d="m210.136719 179.46875c-3.3125 0-6-2.6875-6-6v-65.996094c0-3.316406 2.6875-6 6-6 3.316406 0 6 2.683594 6 6v65.996094c0 3.3125-2.683594 6-6 6zm0 0" fill="#fcf9de"/><path d="m251.472656 39.636719c-.054687 0-.113281 0-.171875 0-3.3125-.09375-5.921875-2.855469-5.828125-6.167969l.625-22.207031c.09375-3.3125 2.832032-5.917969 6.167969-5.832031 3.3125.09375 5.921875 2.855468 5.828125 6.167968l-.625 22.207032c-.089844 3.253906-2.757812 5.832031-5.996094 5.832031zm0 0" fill="#e58d23"/><path d="m216.195312 83.476562c-2.988281 0-5.574218-2.230468-5.949218-5.269531-.402344-3.289062 1.9375-6.28125 5.226562-6.6875 4.824219-.589843 8.152344-2.015625 9.371094-4.011719 1.101562-1.796874.433594-4.101562.425781-4.125-1.136719-3.109374.464844-6.558593 3.574219-7.695312 3.113281-1.136719 6.558594.464844 7.695312 3.578125.285157.773437 2.65625 7.78125-1.460937 14.507813-3.261719 5.332031-9.367187 8.578124-18.144531 9.65625-.25.03125-.496094.046874-.738282.046874zm0 0" fill="#ffb74b"/><path d="m159.179688 141.925781c-3.3125 0-6-2.6875-6-6v-28.457031c0-3.3125 2.6875-6 6-6s6 2.6875 6 6v28.457031c0 3.316407-2.6875 6-6 6zm0 0" fill="#ffeacf"/><path d="m292.082031 396.683594c-2.414062 0-4.6875-1.46875-5.605469-3.855469l-12.726562-33.253906c-1.183594-3.09375.363281-6.5625 3.457031-7.746094 3.097657-1.183594 6.5625.363281 7.75 3.457031l12.726563 33.25c1.1875 3.097656-.359375 6.566406-3.457032 7.75-.707031.269532-1.429687.398438-2.144531.398438zm0 0" fill="#ffd551"/><path d="m186.320312 314.910156c-2.132812 0-4.195312-1.136718-5.28125-3.144531l-8.578124-15.871094c-1.578126-2.914062-.492188-6.554687 2.421874-8.132812 2.914063-1.574219 6.558594-.488281 8.132813 2.425781l8.578125 15.871094c1.578125 2.914062.492188 6.554687-2.421875 8.132812-.910156.488282-1.886719.71875-2.851563.71875zm0 0" fill="#ffb74b"/><path d="m63.25 377.921875c-4.578125 0-8.515625 3.355469-9.136719 7.894531-4.070312 29.789063 5.875 52.882813 30.261719 70.402344l.429688.308594.410156.335937c1.773437 1.445313 4.753906 3.164063 8.90625 3.164063h14.027344c-25.90625-25.148438-28.921876-55.722656-24.144532-82.105469zm0 0" fill="#fff4c1"/><path d="m142.304688 353.386719c0 11.414062-9.253907 20.667969-20.667969 20.667969-11.414063 0-20.664063-9.253907-20.664063-20.667969 0-11.414063 9.25-20.664063 20.664063-20.664063 11.414062 0 20.667969 9.25 20.667969 20.664063zm0 0" fill="#ffd59a"/></svg>