<svg height="456pt" viewBox="-30 0 456 456.556" width="456pt" xmlns="http://www.w3.org/2000/svg"><path d="m366.859375 0h-336.582031c-16.566406 0-30 13.429688-30 30v396.554688c0 16.570312 13.433594 30 30 30h336.582031c16.566406 0 30-13.429688 30-30v-396.554688c0-16.570312-13.433594-30-30-30zm0 0" fill="#e58d23"/><path d="m40.277344 426.554688v-396.554688c0-16.570312 13.433594-30 30-30h-40c-16.566406 0-30 13.429688-30 30v396.554688c0 16.570312 13.433594 30 30 30h40c-16.566406 0-30-13.429688-30-30zm0 0" fill="#bf6c0d"/><path d="m366.859375 0h-122.394531v456.554688h122.394531c16.566406 0 30-13.429688 30-30v-396.554688c0-16.570312-13.433594-30-30-30zm0 0" fill="#a56021"/><path d="m.277344 390.039062v36.515626c0 16.570312 13.433594 30 30 30h214.1875v-66.515626zm0 0" fill="#ffa730"/><path d="m52.179688 244.1875h140.382812v145.851562h-140.382812zm0 0" fill="#a56021"/><path d="m362.449219 267.09375h-83.574219c-6.625 0-12 5.375-12 12v34.617188c0 6.628906 5.375 12 12 12h83.574219c6.625 0 12-5.371094 12-12v-34.617188c0-6.625-5.375-12-12-12zm0 0" fill="#ffc34c"/><path d="m362.8125 46.773438h-84.300781c-6.425781 0-11.636719 5.210937-11.636719 11.636718v1.761719c0 6.429687 5.210938 11.636719 11.636719 11.636719h84.300781c6.425781 0 11.636719-5.207032 11.636719-11.636719v-1.761719c0-6.425781-5.210938-11.636718-11.636719-11.636718zm0 0" fill="#ff9079"/><path d="m362.8125 94.105469h-84.300781c-6.425781 0-11.636719 5.210937-11.636719 11.636719v1.761718c0 6.425782 5.210938 11.636719 11.636719 11.636719h84.300781c6.425781 0 11.636719-5.210937 11.636719-11.636719v-1.761718c0-6.425782-5.210938-11.636719-11.636719-11.636719zm0 0" fill="#ff9079"/><path d="m362.8125 140.359375h-84.300781c-6.425781 0-11.636719 5.210937-11.636719 11.636719v1.765625c0 6.425781 5.210938 11.636719 11.636719 11.636719h84.300781c6.425781 0 11.636719-5.210938 11.636719-11.636719v-1.765625c0-6.425782-5.210938-11.636719-11.636719-11.636719zm0 0" fill="#ff9079"/><path d="m362.8125 187.691406h-84.300781c-6.425781 0-11.636719 5.210938-11.636719 11.636719v1.765625c0 6.425781 5.210938 11.636719 11.636719 11.636719h84.300781c6.425781 0 11.636719-5.210938 11.636719-11.636719v-1.765625c0-6.425781-5.210938-11.636719-11.636719-11.636719zm0 0" fill="#ff9079"/><path d="m40.277344 426.554688v-36.515626h-40v36.515626c0 16.570312 13.433594 30 30 30h40c-16.566406 0-30-13.429688-30-30zm0 0" fill="#e58d23"/><path d="m52.179688 244.1875h30.15625v145.851562h-30.15625zm0 0" fill="#8c4c17"/><g fill="#bf6c0d"><path d="m.277344 244.1875h51.902344v20.089844h-51.902344zm0 0"/><path d="m192.5625 244.1875h51.902344v20.089844h-51.902344zm0 0"/><path d="m374.445312 334.945312c-3.3125 0-6 2.6875-6 6v52.289063c0 3.316406 2.6875 6 6 6 3.316407 0 6-2.683594 6-6v-52.289063c0-3.3125-2.683593-6-6-6zm0 0"/><path d="m380.433594 415.863281c-.226563-3.289062-3.054688-5.75-6.359375-5.554687-3.292969.207031-5.796875 3.050781-5.613281 6.34375.003906.074218.359374 7.515625-4.15625 11.644531-3.035157 2.773437-7.953126 3.6875-14.617188 2.710937-3.285156-.480468-6.328125 1.789063-6.808594 5.066407-.476562 3.28125 1.792969 6.328125 5.070313 6.804687 2.300781.339844 4.492187.507813 6.578125.507813 7.40625 0 13.4375-2.121094 17.980468-6.332031 8.722657-8.078126 7.960938-20.660157 7.925782-21.191407zm0 0"/></g><path d="m286.875 313.710938v-34.617188c0-6.625 5.375-12 12-12h-20c-6.625 0-12 5.375-12 12v34.617188c0 6.628906 5.375 12 12 12h20c-6.625 0-12-5.371094-12-12zm0 0" fill="#f9bb32"/><path d="m286.875 60.171875v-1.761719c0-6.425781 5.210938-11.636718 11.636719-11.636718h-20c-6.425781 0-11.636719 5.210937-11.636719 11.636718v1.761719c0 6.429687 5.210938 11.636719 11.636719 11.636719h20c-6.425781 0-11.636719-5.207032-11.636719-11.636719zm0 0" fill="#ff624b"/><path d="m286.875 107.503906v-1.761718c0-6.425782 5.210938-11.636719 11.636719-11.636719h-20c-6.425781 0-11.636719 5.210937-11.636719 11.636719v1.761718c0 6.429688 5.210938 11.636719 11.636719 11.636719h20c-6.425781 0-11.636719-5.210937-11.636719-11.636719zm0 0" fill="#ff624b"/><path d="m286.875 153.761719v-1.765625c0-6.425782 5.210938-11.636719 11.636719-11.636719h-20c-6.425781 0-11.636719 5.210937-11.636719 11.636719v1.765625c0 6.425781 5.210938 11.636719 11.636719 11.636719h20c-6.425781 0-11.636719-5.210938-11.636719-11.636719zm0 0" fill="#ff624b"/><path d="m286.875 201.089844v-1.761719c0-6.425781 5.210938-11.636719 11.636719-11.636719h-20c-6.425781 0-11.636719 5.210938-11.636719 11.636719v1.761719c0 6.429687 5.210938 11.636718 11.636719 11.636718h20c-6.425781.003907-11.636719-5.207031-11.636719-11.636718zm0 0" fill="#ff624b"/><path d="m361.644531 272.929688c-3.316406 0-6 2.683593-6 6v29.347656c0 3.316406 2.683594 6 6 6 3.3125 0 6-2.683594 6-6v-29.347656c0-3.316407-2.6875-6-6-6zm0 0" fill="#ffdf74"/><path d="m85.277344 426.832031c0 8.285157-6.714844 15-15 15s-15-6.714843-15-15c0-8.285156 6.714844-15 15-15s15 6.714844 15 15zm0 0" fill="#e58d23"/><path d="m130.796875 411.832031c0 8.285157-6.714844 15-15 15-8.28125 0-15-6.714843-15-15 0-8.285156 6.71875-15 15-15 8.285156 0 15 6.714844 15 15zm0 0" fill="#e58d23"/><path d="m112.179688 260.277344h30.15625v71.722656h-30.15625zm0 0" fill="#8c4c17"/><path d="m74.859375 218.839844v32.695312c0 9.941406 8.058594 18 18 18h62.25c9.941406 0 18-8.058594 18-18v-32.695312zm0 0" fill="#ffd551"/><path d="m74.859375 218.839844v32.695312c0 .488282.03125.96875.074219 1.445313.03125.40625.085937.808593.144531 1.207031 1.285156 8.679688 8.746094 15.347656 17.78125 15.347656h30c-9.035156 0-16.496094-6.667968-17.78125-15.347656h67.8125c.128906-.867188.21875-1.75.21875-2.652344v-32.695312zm0 0" fill="#f9bb32"/><path d="m30.277344 0c-16.566406 0-30 13.429688-30 30v214.1875h244.1875v-244.1875zm0 0" fill="#ffa730"/><path d="m30.277344 0c-16.566406 0-30 13.429688-30 30v214.1875h40v-214.1875c0-16.570312 13.433594-30 30-30zm0 0" fill="#e58d23"/><path d="m201.355469 117.097656c-7.527344-8.792968-23.109375-7.804687-34.796875 2.207032-11.691406 10.007812-15.066406 25.25-7.539063 34.042968 7.527344 8.789063 23.105469 7.800782 34.796875-2.207031s15.066406-25.25 7.539063-34.042969zm-12.160157 28.648438c-5.21875 4.46875-11.648437 6.875-17.207031 6.445312-2.25-.171875-5.390625-.914062-7.574219-3.464844-2.90625-3.390624-2.4375-7.976562-1.898437-10.410156 1.078125-4.863281 4.234375-9.828125 8.660156-13.617187 5.21875-4.46875 11.652344-6.878907 17.207031-6.445313 2.25.171875 5.394532.914063 7.578126 3.464844 4.882812 5.703125 1.785156 16.707031-6.765626 24.027344zm0 0" fill="#ffeacf"/><path d="m166.558594 119.304688c-11.691406 10.007812-15.066406 25.25-7.539063 34.042968 2.78125 3.25 6.667969 5.160156 11.050781 5.773438 3.15625-2.253906 6.066407-4.832032 8.6875-7.675782-2.308593.648438-4.605468.914063-6.769531.746094-2.25-.171875-5.390625-.914062-7.574219-3.464844-2.90625-3.390624-2.4375-7.976562-1.898437-10.410156 1.078125-4.863281 4.234375-9.828125 8.660156-13.617187 5.21875-4.46875 11.652344-6.878907 17.207031-6.445313 1.429688.109375 3.214844.449219 4.886719 1.335938.222657-2.042969.34375-4.113282.34375-6.210938v-1.308594c-8.019531-2.542968-18.5625-.039062-27.054687 7.234376zm0 0" fill="#ffd59a"/><path d="m180.335938 106.957031h-105.785157c-1.835937 0-3.320312 1.488281-3.320312 3.320313v3.097656c0 31.046875 25.164062 56.214844 56.210937 56.214844 31.042969 0 56.210938-25.167969 56.210938-56.214844v-3.097656c0-1.832032-1.484375-3.320313-3.316406-3.320313zm0 0" fill="#ffeacf"/><path d="m144.039062 166.269531c-31.042968 0-56.210937-25.167969-56.210937-56.210937v-3.101563h-13.277344c-1.832031 0-3.320312 1.488281-3.320312 3.320313v3.101562c0 31.042969 25.167969 56.210938 56.210937 56.210938 6.761719 0 13.246094-1.195313 19.25-3.386719-.878906.042969-1.761718.066406-2.652344.066406zm0 0" fill="#ffd59a"/><path d="m174.800781 117.144531c-1.375-.164062-2.613281.820313-2.777343 2.1875-.027344.21875-2.796876 21.945313-18.050782 28.894531-1.257812.570313-1.8125 2.054688-1.242187 3.308594.421875.921875 1.328125 1.464844 2.277343 1.464844.347657 0 .699219-.070312 1.035157-.226562 17.839843-8.125 20.824219-31.847657 20.945312-32.855469.160157-1.367188-.820312-2.609375-2.1875-2.773438zm0 0" fill="#fcf9de"/><path d="m113.878906 137.75c-.4375-2.714844-2.996094-4.558594-5.710937-4.117188-2.714844.441407-4.558594 3-4.117188 5.714844.441407 2.710938 3 4.554688 5.710938 4.117188 2.714843-.441406 4.558593-3 4.117187-5.714844zm0 0" fill="#ffd59a"/><path d="m126.796875 147.90625c-.4375-2.714844-2.996094-4.558594-5.710937-4.117188-2.714844.441407-4.558594 2.996094-4.117188 5.710938s2.996094 4.558594 5.710938 4.117188c2.714843-.441407 4.558593-2.996094 4.117187-5.710938zm0 0" fill="#ffd59a"/><path d="m74.785156 174.734375c0 6.597656 5.347656 11.949219 11.949219 11.949219h80.601563c6.597656 0 11.949218-5.347656 11.949218-11.949219zm0 0" fill="#ffd59a"/><path d="m179.285156 174.734375h-104.5c0 6.597656 5.351563 11.949219 11.949219 11.949219h9.132813c-.6875-1.507813-1.082032-3.179688-1.082032-4.949219h82.222656c1.425782-1.96875 2.277344-4.382813 2.277344-7zm0 0" fill="#db9c2e"/><path d="m191.734375 168.648438h-129.753906c-1.078125 0-1.707031 1.210937-1.089844 2.089843l4.046875 5.765625c1.121094 1.59375 2.945312 2.542969 4.890625 2.542969h113.070313c1.734374 0 3.382812-.75 4.515624-2.0625l5.324219-6.140625c.746094-.859375.136719-2.195312-1.003906-2.195312zm0 0" fill="#ffd59a"/><path d="m155.410156 73.515625c0-11.835937-12.703125-21.429687-28.375-21.429687-15.675781 0-28.378906 9.59375-28.378906 21.429687 0 11.832031 12.703125 21.425781 28.378906 21.425781 15.671875 0 28.375-9.59375 28.375-21.425781zm0 0" fill="#bf6c0d"/><path d="m111.355469 73.515625c0-10.160156 9.214843-18.660156 21.582031-20.867187-2.039062-.363282-4.164062-.5625-6.347656-.5625-15.425782 0-27.933594 9.59375-27.933594 21.425781 0 11.835937 12.507812 21.429687 27.933594 21.429687 2.183594 0 4.308594-.199218 6.347656-.5625-12.367188-2.207031-21.582031-10.707031-21.582031-20.863281zm0 0" fill="#a56021"/><path d="m154.585938 71.652344c-1.011719-.839844-2.554688-.75-3.445313.203125-2.855469 3.039062-6.082031 4.660156-9.585937 4.8125-6.808594.289062-12.78125-4.910157-12.785157-4.910157-11.3125-10.726562-24.152343-4.722656-29.359375-.046874-.972656.875-1.007812 2.328124-.078125 3.246093.933594.917969 2.476563.949219 3.453125.074219.472656-.425781 11.710938-10.285156 22.566406.003906.292969.261719 7.078126 6.234375 15.636719 6.234375.25 0 .5-.003906.753907-.011719 4.894531-.203124 9.289062-2.34375 13.0625-6.367187.890624-.949219.792968-2.402344-.21875-3.238281zm0 0" fill="#8c4c17"/><path d="m137.917969 60.777344c0 2.75-2.230469 4.980468-4.980469 4.980468s-4.976562-2.230468-4.976562-4.980468 2.226562-4.980469 4.976562-4.980469 4.980469 2.230469 4.980469 4.980469zm0 0" fill="#a56021"/><path d="m85.277344 34.886719c0 8.285156-6.714844 15-15 15s-15-6.714844-15-15c0-8.285157 6.714844-15 15-15s15 6.714843 15 15zm0 0" fill="#e58d23"/><path d="m167.761719 313.667969h-81.8125c-2.347657 0-4.101563 2.167969-3.613281 4.464843l13.203124 62.140626c1.269532 5.976562 6.546876 10.25 12.65625 10.25h37.324219c6.109375 0 11.386719-4.273438 12.65625-10.25l13.203125-62.140626c.488282-2.296874-1.265625-4.464843-3.617187-4.464843zm0 0" fill="#ccc033"/><path d="m109.691406 380.273438-13.203125-62.140626c-.492187-2.300781 1.265625-4.464843 3.613281-4.464843h-14.152343c-2.347657 0-4.101563 2.167969-3.613281 4.464843l13.203124 62.140626c1.269532 5.976562 6.546876 10.25 12.65625 10.25h14.152344c-6.109375 0-11.386718-4.273438-12.65625-10.25zm0 0" fill="#99af17"/></svg>