<svg height="456pt" viewBox="-56 0 456 456.97" width="456pt" xmlns="http://www.w3.org/2000/svg"><path d="m280.976562 286.996094c3.816407 10.164062-1.335937 27.414062-16.929687 40.765625-9.691406 8.300781-21.222656 13.0625-31.632813 13.0625-4.644531 0-11.023437-.984375-15.027343-5.660157-7.605469-8.882812-3.519531-29.53125 14.503906-44.964843 1.328125-1.136719 2.695313-2.203125 4.085937-3.203125h-31.476562c-15.441406 21.101562-17.851562 46.691406-4.121094 62.730468 16.921875 19.765626 51.949219 17.542969 78.230469-4.957031 19.15625-16.402343 28.367187-39.042969 25.410156-57.773437zm0 0" fill="#f9bb32"/><path d="m303.851562 275.699219c-16.925781-19.765625-51.949218-17.546875-78.230468 4.957031-26.285156 22.503906-33.871094 56.769531-16.949219 76.53125 16.921875 19.765625 51.945313 17.546875 78.230469-4.957031 26.28125-22.503907 33.871094-56.765625 16.949218-76.53125zm-31.511718 59.523437c-9.695313 8.300782-21.226563 13.0625-31.632813 13.0625-.003906 0 0 0-.003906 0-4.644531 0-11.023437-.984375-15.027344-5.660156-7.601562-8.882812-3.515625-29.53125 14.503907-44.964844 9.695312-8.300781 21.226562-13.058594 31.636718-13.058594 4.644532 0 11.023438.980469 15.027344 5.65625 7.605469 8.882813 3.519531 29.535157-14.503906 44.964844zm0 0" fill="#ffeacf"/><path d="m225.621094 280.65625c-26.285156 22.5-33.871094 56.765625-16.949219 76.53125 13.902344 16.238281 40.019531 17.625 63.476563 5.128906l7.273437-34.226562c-2.0625 2.453125-4.417969 4.851562-7.082031 7.132812-9.695313 8.300782-21.226563 13.0625-31.632813 13.0625-.003906 0 0 0-.003906 0-4.644531 0-11.023437-.984375-15.027344-5.660156-7.601562-8.882812-3.515625-29.53125 14.503907-44.964844 9.695312-8.300781 21.226562-13.058594 31.636718-13.058594 4.644532 0 11.023438.980469 15.027344 5.65625.167969.199219.324219.410157.484375.621094l5.113281-24.066406c-18.496094-9.300781-45.527344-4.390625-66.820312 13.84375zm0 0" fill="#ffd59a"/><path d="m204.269531 410.144531h-87.457031c-14.316406 0-26.683594-10.011719-29.660156-24.015625l-30.941406-145.617187c-1.144532-5.386719 2.964843-10.460938 8.476562-10.460938h191.707031c5.507813 0 9.617188 5.074219 8.472657 10.460938l-30.941407 145.617187c-2.976562 14.003906-15.339843 24.015625-29.65625 24.015625zm0 0" fill="#ffeacf"/><path d="m120.3125 386.128906-30.941406-145.617187c-1.144532-5.386719 2.964844-10.460938 8.476562-10.460938h-33.160156c-5.511719 0-9.621094 5.074219-8.476562 10.460938l30.941406 145.617187c2.976562 14.003906 15.34375 24.015625 29.660156 24.015625h33.160156c-14.316406 0-26.683594-10.011719-29.660156-24.015625zm0 0" fill="#ffd59a"/><path d="m90.0625 304.410156c-2.542969 0-4.441406 2.34375-3.914062 4.832032l15.675781 73.765624c1.496093 7.035157 7.796875 12.136719 14.988281 12.136719h87.453125c7.191406 0 13.492187-5.101562 14.988281-12.136719l15.671875-73.765624c.53125-2.488282-1.367187-4.832032-3.910156-4.832032zm0 0" fill="#a56021"/><path d="m308.492188 92.277344-52.8125 55.957031c-2.835938 3-6.78125 4.703125-10.910157 4.703125h-4.828125v-60.660156h-20v80.660156h33.453125c4.128907 0 8.074219-1.699219 10.910157-4.703125l64.511718-68.355469c2.097656-2.226562 3.734375-4.808594 4.847656-7.601562zm0 0" fill="#ffc34c"/><path d="m229.941406 72.277344v113.660156h33.453125c4.128907 0 8.074219-1.699219 10.910157-4.703125l64.511718-68.355469c4.214844-4.46875 6.566406-10.378906 6.566406-16.523437 0-13.300781-10.78125-24.078125-24.078124-24.078125zm94.328125 26.875-58.589843 62.082031c-2.832032 3-6.777344 4.703125-10.90625 4.703125h-4.832032v-73.664062h71.363282c2.253906 0 4.078124 1.828124 4.078124 4.078124 0 1.042969-.398437 2.042969-1.113281 2.800782zm0 0" fill="#ffdf74"/><path d="m287.777344 137.820312-22.097656 23.414063c-2.832032 3-6.777344 4.703125-10.90625 4.703125h-4.832032v-73.660156h37.835938v-20h-57.835938v113.660156h33.457032c4.128906 0 8.074218-1.699219 10.910156-4.703125l13.46875-14.273437zm0 0" fill="#ffd551"/><path d="m271.851562 456.96875h-222.621093c-8.285157 0-15-6.714844-15-15v-16.1875h252.621093v16.1875c0 8.285156-6.71875 15-15 15zm0 0" fill="#ffd59a"/><path d="m67.390625 444.851562h219.441406c.003907-.109374.019531-.210937.019531-.316406v-18.753906h-252.621093v18.753906c0 6.867188 5.566406 12.433594 12.433593 12.433594h20.726563zm0 0" fill="#ffc34c"/><g fill="#ffd59a"><path d="m296.019531 437.046875h-273.339843c-4.707032 0-9.121094-2.480469-11.824219-6.640625l-9.78125-15.050781c-1.492188-2.296875.027343-5.457031 2.625-5.457031h313.679687c2.75 0 4.226563 3.492187 2.425782 5.738281l-12.867188 16.027343c-2.746094 3.417969-6.730469 5.382813-10.917969 5.382813zm0 0"/><path d="m219.769531 305.21875c-.414062 0-.835937-.042969-1.253906-.132812-3.242187-.6875-5.3125-3.875-4.621094-7.117188l2.574219-12.132812c.691406-3.242188 3.875-5.308594 7.117188-4.625 3.242187.6875 5.3125 3.875 4.621093 7.117187l-2.578125 12.136719c-.597656 2.820312-3.089844 4.753906-5.859375 4.753906zm0 0"/><path d="m205.242188 381.875c-.414063 0-.835938-.042969-1.253907-.132812-3.242187-.6875-5.3125-3.875-4.621093-7.117188l11.859374-55.773438c.6875-3.242187 3.875-5.308593 7.113282-4.621093 3.242187.6875 5.3125 3.875 4.621094 7.117187l-11.855469 55.773438c-.601563 2.820312-3.09375 4.753906-5.863281 4.753906zm0 0"/></g><path d="m75.503906 29.875h172.273438v191.679688h-172.273438zm0 0" fill="#ffdf74"/><path d="m75.503906 29.875h40v191.679688h-40zm0 0" fill="#ffd551"/><path d="m256.128906 46.863281h-188.972656c-3.316406 0-6-2.683593-6-6v-15.359375h200.972656v15.359375c0 3.3125-2.6875 6-6 6zm0 0" fill="#ffd551"/><path d="m236.96875 0h-150.65625c-2.363281 0-4.605469 1.042969-6.125 2.851562l-19.035156 22.652344h200.972656l-19.03125-22.652344c-1.519531-1.808593-3.761719-2.851562-6.125-2.851562zm0 0" fill="#ffea63"/><path d="m131.902344 0h-40c-5.90625 0-11.511719 2.609375-15.3125 7.132812l-15.4375 18.371094h40l15.4375-18.371094c3.800781-4.523437 9.40625-7.132812 15.3125-7.132812zm0 0" fill="#ffdf74"/><path d="m101.15625 40.863281v-15.363281h-40v15.363281c0 3.3125 2.683594 6 6 6h40c-3.316406 0-6-2.6875-6-6zm0 0" fill="#ffc34c"/><path d="m284.507812 236.71875h-245.734374c-4.417969 0-8-3.582031-8-8v-8.925781c0-4.417969 3.582031-8 8-8h245.734374c4.417969 0 8 3.582031 8 8v8.925781c0 4.417969-3.582031 8-8 8zm0 0" fill="#ffc34c"/><path d="m70.773438 228.71875v-8.925781c0-4.417969 3.582031-8 8-8h-40c-4.417969 0-8 3.582031-8 8v8.925781c0 4.417969 3.582031 8 8 8h40c-4.417969 0-8-3.582031-8-8zm0 0" fill="#f9bb32"/><path d="m86.152344 309.242188 15.671875 73.769531c1.496093 7.03125 7.796875 12.136719 14.988281 12.136719h7c-1.609375-2.746094-2.808594-5.773438-3.5-9.019532l-17.363281-81.71875h-12.886719c-2.542969 0-4.441406 2.34375-3.910156 4.832032zm0 0" fill="#8c4c17"/><path d="m225.742188 98.277344c-3.3125 0-6-2.6875-6-6v-25.84375c0-3.3125 2.6875-6 6-6 3.316406 0 6 2.6875 6 6v25.84375c0 3.3125-2.683594 6-6 6zm0 0" fill="#ffea63"/><path d="m225.742188 201.746094c-3.3125 0-6-2.6875-6-6v-85.335938c0-3.3125 2.6875-6 6-6 3.316406 0 6 2.6875 6 6v85.335938c0 3.3125-2.683594 6-6 6zm0 0" fill="#ffea63"/><path d="m158.558594 366.996094c0 8.46875-6.867188 15.332031-15.335938 15.332031s-15.332031-6.863281-15.332031-15.332031 6.863281-15.335938 15.332031-15.335938 15.335938 6.867188 15.335938 15.335938zm0 0" fill="#8c4c17"/><path d="m199.234375 72.277344c0 8.46875-6.867187 15.332031-15.335937 15.332031s-15.332032-6.863281-15.332032-15.332031 6.863282-15.335938 15.332032-15.335938 15.335937 6.867188 15.335937 15.335938zm0 0" fill="#ffd551"/></svg>