<svg height="481pt" viewBox="0 -26 481.57871 481" width="481pt" xmlns="http://www.w3.org/2000/svg"><path d="m283.214844 360.582031h-91.40625c-8.28125 0-15-6.714843-15-15v-31.828125h121.410156v31.828125c-.003906 8.285157-6.71875 15-15.003906 15zm0 0" fill="#f9bb32"/><path d="m272.285156 360.582031h-71.808594s-23.632812 39.476563-54.144531 44.46875h180.949219c-30.988281-4.992187-54.996094-44.46875-54.996094-44.46875zm0 0" fill="#ffc34c"/><path d="m328.695312 405.050781h-182.363281s-10.40625 5.621094-8.816406 24.828125h199.996094c1.585937-19.207031-8.816407-24.828125-8.816407-24.828125zm0 0" fill="#f9bb32"/><path d="m240.476562 360.582031h-40s-23.632812 39.476563-54.144531 44.46875h40c30.511719-4.992187 54.144531-44.46875 54.144531-44.46875zm0 0" fill="#f9bb32"/><path d="m285.808594 401.59375c-.964844 0-1.945313-.234375-2.851563-.726562l-3.0625-1.65625c-1.167969-.628907-4.269531-2.308594-21.457031-26.15625-1.9375-2.6875-1.328125-6.4375 1.359375-8.375 2.691406-1.9375 6.441406-1.328126 8.378906 1.359374 6.835938 9.488282 15.4375 20.71875 17.753907 22.796876l2.734374 1.476562c2.914063 1.578125 4 5.21875 2.425782 8.132812-1.085938 2.007813-3.152344 3.148438-5.28125 3.148438zm-.207032-12.9375.070313.035156c-.027344-.011718-.046875-.023437-.070313-.035156zm0 0" fill="#ffd551"/><path d="m317.371094 423.464844h-31.558594c-3.316406 0-6-2.683594-6-6 0-3.3125 2.683594-6 6-6h31.558594c3.316406 0 6 2.6875 6 6 0 3.316406-2.683594 6-6 6zm0 0" fill="#ffd551"/><path d="m224.808594 341.753906h73.40625v-28h-121.40625v31.828125c0 8.285157 6.714844 15 15 15h25v-10.828125c0-4.417968 3.582031-8 8-8zm0 0" fill="#db9c2e"/><path d="m446.386719 159.542969c.234375 1.609375.183593 3.285156-.195313 4.984375l-15.414062 68.53125c-3.484375 15.496094-18.488282 26.625-35.890625 26.625h-61.617188v-83.523438l19.042969-16.617187h-33.0625l-8.878906 7.75v113.203125h103.203125c17.40625 0 32.410156-11.128906 35.894531-26.628906l21.210938-94.324219zm0 0" fill="#bf6c0d"/><path d="m357.023438 145.691406-39.652344 34.601563v113.203125h103.203125c17.40625 0 32.410156-11.128906 35.894531-26.628906l24.769531-110.148438c2.089844-9.289062-5.71875-17.984375-16.152343-17.984375h-89.03125c-7.09375 0-13.914063 2.492187-19.03125 6.957031zm44.863281 126.992188h-61.617188v-83.523438l25.96875-22.65625c5.117188-4.464844 11.933594-6.960937 19.027344-6.960937h51.773437c10.433594 0 18.242188 8.695312 16.152344 17.984375l-15.414062 68.53125c-3.484375 15.496094-18.488282 26.625-35.890625 26.625zm0 0" fill="#f9bb32"/><path d="m357.023438 145.691406-39.652344 34.601563v113.203125h77.484375c.765625-3.140625 1.179687-6.398438 1.179687-9.738282v-11.074218h-55.765625v-83.523438l25.96875-22.65625c5.117188-4.464844 11.933594-6.960937 19.027344-6.960937h10.769531v-12.160157c0-2.925781-.429687-5.828124-1.25-8.648437h-18.730468c-7.09375 0-13.914063 2.492187-19.03125 6.957031zm0 0" fill="#db9c2e"/><path d="m254.089844 58.632812h-33.15625v-44.210937c0-7.804687 6.328125-14.132813 14.132812-14.132813h4.890625c7.804688 0 14.132813 6.328126 14.132813 14.132813zm0 0" fill="#a56021"/><path d="m246.511719 1.910156c-1.957031-1.03125-4.1875-1.621094-6.554688-1.621094h-4.890625c-7.804687 0-14.132812 6.328126-14.132812 14.132813v44.210937h18v-44.210937c0-5.4375 3.078125-10.152344 7.578125-12.511719zm0 0" fill="#8c4c17"/><path d="m297.300781 80.476562h-119.574219v-37.632812c0-8.28125 6.714844-15 15-15h89.574219c8.28125 0 15 6.71875 15 15zm0 0" fill="#f9bb32"/><path d="m217.726562 55.84375c0-8.28125 6.714844-15 15-15h64.421876c-.976563-7.335938-7.246094-13-14.847657-13h-89.574219c-8.285156 0-15 6.71875-15 15v37.632812h40zm0 0" fill="#db9c2e"/><path d="m186.332031 405.050781h-40s-10.40625 5.621094-8.816406 24.828125h40c-1.589844-19.207031 8.816406-24.828125 8.816406-24.828125zm0 0" fill="#db9c2e"/><path d="m122.898438 191.746094c-42.191407 4.957031-80.785157-28.972656-86.257813-75.800782-.144531-1.1875-1.226563-2.035156-2.414063-1.890624l-32.320312 3.90625c-1.1875.140624-2.035156 1.222656-1.890625 2.410156l.097656.792968.125-.015624c3.027344 12.203124 33.90625 127.214843 124.875 140.289062l-1.101562-69.839844c-.367188.050782-.738281.105469-1.113281.148438zm0 0" fill="#f9bb32"/><path d="m20.449219 115.71875-18.539063 2.242188c-1.1875.144531-2.039062 1.222656-1.894531 2.410156l.097656.796875.125-.015625c3.027344 12.203125 33.90625 127.210937 124.875 140.285156l-.226562-14.511719c-69.8125-22.960937-98.054688-108.421875-104.4375-131.207031zm0 0" fill="#db9c2e"/><path d="m336.449219 102.21875h-197.875l-15.960938 30.585938c-2.386719 4.574218-3.625 9.546874-3.625 14.578124v136.371094c0 25.546875 23.632813 46.257813 52.785157 46.257813h131.476562c29.152344 0 52.785156-20.710938 52.785156-46.257813v-136.371094c0-5.03125-1.234375-10.003906-3.621094-14.578124zm0 0" fill="#a56021"/><path d="m158.988281 283.753906v-136.371094c0-5.03125 1.238281-10.003906 3.625-14.578124l15.960938-30.585938h-40l-15.960938 30.585938c-2.386719 4.574218-3.625 9.546874-3.625 14.578124v136.371094c0 25.546875 23.632813 46.257813 52.789063 46.257813h40c-29.15625 0-52.789063-20.710938-52.789063-46.257813zm0 0" fill="#8c4c17"/><path d="m328.449219 104.230469h-181.875c-4.417969 0-8-3.582031-8-8v-13.722657c0-11.046874 8.953125-20 20-20h157.875c11.046875 0 20 8.953126 20 20v13.722657c0 4.417969-3.582031 8-8 8zm0 0" fill="#f9bb32"/><path d="m178.574219 97.507812c0-11.046874 8.953125-20 20-20h137.222656c-2.226563-8.621093-10.03125-15-19.347656-15h-157.875c-11.046875 0-20 8.953126-20 20v13.722657c0 4.417969 3.582031 8 8 8h32zm0 0" fill="#db9c2e"/><path d="m328.644531 172.257812c-3.3125 0-6-2.6875-6-6v-20c0-3.3125 2.6875-6 6-6s6 2.6875 6 6v20c0 3.3125-2.6875 6-6 6zm0 0" fill="#bf6c0d"/><path d="m328.644531 292.925781c-3.3125 0-6-2.6875-6-6v-98c0-3.3125 2.6875-6 6-6s6 2.6875 6 6v98c0 3.3125-2.6875 6-6 6zm0 0" fill="#bf6c0d"/><g fill="#ffd551"><path d="m453.535156 243.925781c-.402344 0-.8125-.042969-1.222656-.125-3.242188-.671875-5.328125-3.847656-4.660156-7.09375l13.449218-65c.671876-3.242187 3.84375-5.320312 7.09375-4.660156 3.242188.671875 5.328126 3.847656 4.660157 7.09375l-13.449219 65c-.585938 2.835937-3.085938 4.785156-5.871094 4.785156zm0 0"/><path d="m322.976562 94.925781h-29.332031c-3.3125 0-6-2.6875-6-6s2.6875-6 6-6h29.332031c3.3125 0 6 2.6875 6 6s-2.683593 6-6 6zm0 0"/><path d="m285.226562 57.441406h-29.332031c-3.316406 0-6-2.6875-6-6s2.683594-6 6-6h29.332031c3.3125 0 6 2.6875 6 6s-2.6875 6-6 6zm0 0"/></g><path d="m200.867188 265.445312c0 8.027344-6.507813 14.535157-14.535157 14.535157-8.027343 0-14.535156-6.507813-14.535156-14.535157 0-8.027343 6.507813-14.535156 14.535156-14.535156 8.027344 0 14.535157 6.507813 14.535157 14.535156zm0 0" fill="#8c4c17"/><path d="m240.84375 298c0 8.027344-6.507812 14.535156-14.535156 14.535156s-14.535156-6.507812-14.535156-14.535156 6.507812-14.53125 14.535156-14.53125 14.535156 6.503906 14.535156 14.53125zm0 0" fill="#8c4c17"/></svg>