<svg height="461pt" viewBox="-14 0 461 461.58175" width="461pt" xmlns="http://www.w3.org/2000/svg"><path d="m192.796875 189.882812c0 7.675782-6.21875 13.894532-13.894531 13.894532-7.671875 0-13.890625-6.21875-13.890625-13.894532 0-7.671874 6.21875-13.890624 13.890625-13.890624 7.675781 0 13.894531 6.21875 13.894531 13.890624zm0 0" fill="#ffc34c"/><path d="m249.832031 118.8125 10.671875-10.671875c2.378906-2.378906 2.3125-6.28125-.179687-8.535156-46.101563-41.695313-116.738281-41.695313-162.839844 0-2.496094 2.253906-2.558594 6.15625-.179687 8.535156l10.671874 10.671875c2.226563 2.226562 5.789063 2.296875 8.140626.203125 35.703124-31.734375 89.871093-31.734375 125.574218 0 2.351563 2.09375 5.914063 2.023437 8.140625-.203125zm0 0" fill="#ff9079"/><path d="m207.742188 160.902344 12.914062-12.914063c3.472656-3.472656 3.0625-9.203125-.847656-12.171875-24.085938-18.296875-57.722656-18.296875-81.808594 0-3.910156 2.96875-4.320312 8.699219-.847656 12.171875l12.910156 12.914063c15.929688-15.929688 41.753906-15.929688 57.679688 0zm0 0" fill="#ffa730"/><path d="m289.734375 78.871094 16.671875-16.671875c3.71875-3.71875 3.617188-9.8125-.28125-13.335938-72.035156-65.152343-182.40625-65.152343-254.445312 0-3.898438 3.523438-3.996094 9.617188-.28125 13.335938l16.675781 16.671875c3.476562 3.480468 9.042969 3.589844 12.71875.324218 55.789062-49.59375 140.429687-49.59375 196.214843 0 3.679688 3.265626 9.246094 3.15625 12.726563-.324218zm0 0" fill="#ff624b"/><path d="m390.058594 290.726562c3.785156 19.523438-4.988282 43.8125-24.21875 61.773438-26.03125 24.316406-61.339844 27.828125-78.859375 7.839844-15.117188-17.246094-12.042969-46.335938 5.792969-69.613282h-37.632813c-3.777344 7.96875-6.542969 16.273438-8.164063 24.703126-4.855468 25.273437 1.082032 49.71875 16.285157 67.0625 15.207031 17.34375 38.175781 25.878906 63.023437 23.40625 21.691406-2.152344 43.359375-12.421876 61.015625-28.914063 17.652344-16.492187 29.710938-37.730469 33.949219-59.796875 1.734375-9.023438 2.082031-17.9375 1.136719-26.460938zm0 0" fill="#ffc34c"/><path d="m414.964844 270.125c-15.207032-17.347656-38.175782-25.878906-63.019532-23.410156-21.695312 2.15625-43.363281 12.429687-61.019531 28.917968-17.652343 16.492188-29.710937 37.726563-33.949219 59.796876-4.851562 25.273437 1.082032 49.71875 16.289063 67.0625 15.203125 17.34375 38.171875 25.875 63.019531 23.40625 21.691406-2.15625 43.363282-12.425782 61.015625-28.917969 17.652344-16.492188 29.710938-37.726563 33.949219-59.792969 4.855469-25.273438-1.082031-49.71875-16.285156-67.0625zm-39.125 102.375c-26.03125 24.316406-61.339844 27.828125-78.859375 7.839844-17.523438-19.988282-10.621094-55.90625 15.40625-80.222656 26.03125-24.316407 61.339843-27.828126 78.859375-7.839844 17.523437 19.988281 10.625 55.90625-15.40625 80.222656zm0 0" fill="#ffdf74"/><path d="m352.328125 387.996094c-20.9375 8.941406-42.742187 6.722656-55.347656-7.65625-17.523438-19.988282-10.621094-55.90625 15.40625-80.222656 26.03125-24.316407 61.339843-27.828126 78.859375-7.839844 2.574218 2.933594 4.605468 6.21875 6.140625 9.753906 3.460937-13.472656 5.691406-27.523438 6.5625-41.988281-14.3125-10.464844-32.585938-15.257813-52.003907-13.328125-21.695312 2.15625-43.363281 12.429687-61.019531 28.917968-17.652343 16.492188-29.710937 37.730469-33.949219 59.796876-4.851562 25.273437 1.082032 49.71875 16.289063 67.0625 9.488281 10.828124 22.003906 18.21875 36.109375 21.644531 15.910156-9.648438 30.371094-21.863281 42.953125-36.140625zm0 0" fill="#ffd551"/><path d="m220.320312 461.582031h-78.226562c-19.328125 0-35-15.671875-35-35v-29.738281h148.226562v29.738281c0 19.328125-15.667968 35-35 35zm0 0" fill="#ffc34c"/><path d="m349.375 218.855469h-334.085938c-8.28125 0-15 6.71875-15 15v12.441406c0 111.808594 81.503907 202.441406 182.042969 202.441406 100.539063 0 182.042969-90.636719 182.042969-202.441406v-12.441406c0-8.28125-6.714844-15-15-15zm0 0" fill="#ffdf74"/><path d="m232.332031 438.738281c-100.539062 0-182.042969-90.636719-182.042969-202.441406v-12.441406c0-1.753907.320313-3.433594.875-5h-35.875c-8.28125 0-15 6.714843-15 15v12.441406c0 111.808594 81.503907 202.441406 182.042969 202.441406 19.941407 0 39.128907-3.578125 57.085938-10.164062-2.351563.097656-4.710938.164062-7.085938.164062zm0 0" fill="#ffd551"/><path d="m182.332031 423.742188c-86.59375 0-157.042969-79.601563-157.042969-177.445313 0-1.347656 1.09375-2.4375 2.441407-2.4375h309.207031c1.347656 0 2.4375 1.089844 2.4375 2.4375 0 97.84375-70.445312 177.445313-157.042969 177.445313zm0 0" fill="#a56021"/><path d="m25.289062 246.296875c0 89.066406 58.382813 163.007813 134.175782 175.554687-62.304688-30.300781-106.402344-98.253906-109.035156-177.996093h-22.699219c-1.347657 0-2.441407 1.09375-2.441407 2.441406zm0 0" fill="#8c4c17"/><path d="m247.601562 391.394531c-2.351562 0-4.582031-1.390625-5.539062-3.695312-1.277344-3.058594.171875-6.574219 3.226562-7.847657 51.96875-21.652343 59.941407-96.296874 60.015626-97.046874.328124-3.296876 3.261718-5.699219 6.558593-5.382813 3.296875.324219 5.707031 3.257813 5.382813 6.554687-.082032.835938-2.101563 20.769532-11.226563 43.871094-12.28125 31.089844-31.683593 52.90625-56.113281 63.082032-.753906.3125-1.535156.464843-2.304688.464843zm0 0" fill="#f9bb32"/><g fill="#8c4c17"><path d="m134.855469 354.675781c0 8.285157-6.714844 15-15 15-8.285157 0-15-6.714843-15-15 0-8.285156 6.714843-15 15-15 8.285156 0 15 6.714844 15 15zm0 0"/><path d="m174.464844 385.484375c0 8.28125-6.714844 15-15 15s-15-6.71875-15-15c0-8.285156 6.714844-15 15-15s15 6.714844 15 15zm0 0"/></g></svg>