<svg height="434pt" viewBox="0 -72 434.71996 434" width="434pt" xmlns="http://www.w3.org/2000/svg"><path d="m422.636719 90.742188c-22.675781-26.484376-69.605469-23.511719-104.824219 6.640624-35.21875 30.152344-45.386719 76.066407-22.710938 102.550782 22.675782 26.484375 69.605469 23.511718 104.824219-6.644532 35.21875-30.152343 45.386719-76.0625 22.710938-102.546874zm-36.628907 86.292968c-15.71875 13.460938-35.09375 20.722656-51.832031 19.421875-6.78125-.523437-16.246093-2.761719-22.820312-10.441406-8.75-10.21875-7.335938-24.03125-5.714844-31.355469 3.242187-14.652344 12.753906-29.601562 26.089844-41.019531 15.71875-13.460937 35.09375-20.722656 51.828125-19.425781 6.78125.527344 16.25 2.765625 22.820312 10.441406 14.714844 17.183594 5.386719 50.328125-20.371094 72.378906zm0 0" fill="#fff4c1"/><path d="m354.5625 194.203125c-6.945312 1.949219-13.867188 2.761719-20.386719 2.253906-6.78125-.523437-16.246093-2.761719-22.820312-10.441406-8.75-10.222656-7.335938-24.03125-5.714844-31.355469 3.242187-14.652344 12.753906-29.605468 26.089844-41.023437 15.71875-13.457031 35.09375-20.71875 51.828125-19.421875 4.304687.332031 9.683594 1.363281 14.71875 4.023437.675781-6.144531 1.035156-12.382812 1.035156-18.710937v-3.9375c-24.15625-7.65625-55.917969-.113282-81.5 21.792968-35.21875 30.152344-45.386719 76.066407-22.710938 102.550782 8.382813 9.792968 20.09375 15.546875 33.296876 17.398437 9.503906-6.796875 18.269531-14.554687 26.164062-23.128906zm0 0" fill="#fce575"/><path d="m199.984375 248.859375h-.007813c-93.519531 0-169.328124-75.8125-169.328124-169.328125v-9.339844c0-5.519531 4.476562-10 10-10h318.664062c5.523438 0 10 4.480469 10 10v9.339844c0 93.519531-75.808594 169.328125-169.328125 169.328125zm0 0" fill="#fff4c1"/><path d="m249.984375 238.859375h-.007813c-93.519531 0-169.328124-75.8125-169.328124-169.328125v-9.339844h-40c-5.523438 0-10 4.480469-10 10v9.339844c0 93.515625 75.808593 169.328125 169.328124 169.328125h.007813c20.371094 0 39.898437-3.597656 57.988281-10.191406-2.648437.121093-5.308594.191406-7.988281.191406zm0 0" fill="#fce575"/><path d="m199.976562 228.859375c-82.117187 0-148.96875-66.628906-149.328124-148.667969h298.664062c-.359375 82.039063-67.207031 148.667969-149.328125 148.667969zm0 0" fill="#a56021"/><path d="m256.648438 199.296875c-2.496094 0-4.824219-1.566406-5.675782-4.058594-1.074218-3.132812.59375-6.546875 3.730469-7.621093 48.730469-16.703126 63.414063-81.808594 63.558594-82.464844.703125-3.238282 3.902343-5.289063 7.136719-4.589844 3.238281.707031 5.292968 3.902344 4.589843 7.140625-.644531 2.945313-16.335937 72.390625-71.394531 91.265625-.644531.222656-1.300781.328125-1.945312.328125zm0 0" fill="#bf6c0d"/><path d="m159.308594 155.359375c0 8.285156-6.714844 15-15 15-8.28125 0-15-6.714844-15-15s6.71875-15 15-15c8.285156 0 15 6.714844 15 15zm0 0" fill="#8c4c17"/><path d="m198.21875 185.949219c0 8.285156-6.714844 15-15 15-8.28125 0-15-6.714844-15-15 0-8.28125 6.71875-15 15-15 8.285156 0 15 6.71875 15 15zm0 0" fill="#8c4c17"/><path d="m342.378906 291.195312h-284.796875c-8.285156 0-15-6.71875-15-15v-21h314.796875v21c0 8.28125-6.714844 15-15 15zm0 0" fill="#ffd551"/><path d="m82.582031 279.195312h274.496094c.195313-.96875.300781-1.972656.300781-3v-21h-314.796875v21c0 8.28125 6.714844 15 15 15h25zm0 0" fill="#ffc34c"/><path d="m368.273438 268.195312h-340.617188c-5.867188 0-11.367188-2.859374-14.734375-7.664062l-12.1875-17.375c-1.863281-2.648438.035156-6.296875 3.273437-6.296875h390.878907c3.429687 0 5.269531 4.03125 3.023437 6.621094l-16.035156 18.503906c-3.417969 3.941406-8.382812 6.210937-13.601562 6.210937zm0 0" fill="#ffd551"/><path d="m358.898438 255.859375h-68.378907c-3.316406 0-6-2.6875-6-6s2.683594-6 6-6h68.378907c3.3125 0 6 2.6875 6 6s-2.6875 6-6 6zm0 0" fill="#ffdf74"/><path d="m76.007812 50.359375c-12.355468 0-22.925781 9.019531-24.722656 21.246094-.417968 2.855469-.636718 5.78125-.636718 8.753906h298.664062c0-2.972656-.21875-5.894531-.636719-8.753906-1.796875-12.226563-12.367187-21.246094-24.722656-21.246094zm0 0" fill="#ffd59a"/><path d="m191.914062 228.640625c-61.738281-22.535156-106.667968-79.984375-110.921874-148.445313h-30.34375c.347656 79.332032 62.878906 144.253907 141.265624 148.445313zm0 0" fill="#8c4c17"/><path d="m80.648438 60.195312.351562-9.835937s-13.605469-2.25-24.875 9.835937c-2.484375 3.246094-4.210938 7.125-4.839844 11.410157-.417968 2.859375-.636718 5.78125-.636718 8.753906h30.351562c-.222656-3.582031-.351562-7.1875-.351562-10.828125zm0 0" fill="#ffc34c"/><path d="m64.824219 50.359375c0-27.613281 22.382812-50 50-50h166.792969c27.617187 0 50 22.386719 50 50 0 7.871094-6.378907 14.25-14.25 14.25h-238.292969c-7.871094 0-14.25-6.378906-14.25-14.25zm0 0" fill="#ffeacf"/><path d="m104.824219 50.359375c0-27.613281 22.382812-50 50-50h-40c-27.617188 0-50 22.386719-50 50 0 7.871094 6.378906 14.25 14.25 14.25h40c-7.871094 0-14.25-6.378906-14.25-14.25zm0 0" fill="#ffd59a"/></svg>