<svg height="465pt" viewBox="-100 0 465 465.557" width="465pt" xmlns="http://www.w3.org/2000/svg"><path d="m224.230469 0h-97.445313c-4.691406 0-8.351562 4.019531-7.960937 8.695312.128906 1.53125.195312 3.082032.195312 4.648438 0 20.929688-11.515625 39.164062-28.550781 48.734375-2.261719 1.273437-3.753906 3.601563-3.960938 6.183594-2.433593 30.332031-27.808593 54.1875-58.761718 54.1875-2.441406 0-4.847656-.148438-7.207032-.441407-4.773437-.589843-8.984374 3.121094-8.984374 7.929688v293.324219c0 8.292969 6.722656 15.019531 15.019531 15.019531h197.65625c8.292969 0 15.019531-6.726562 15.019531-15.019531v-408.242188c0-8.296875-6.726562-15.019531-15.019531-15.019531zm0 0" fill="#bf6c0d"/><path d="m231.230469 9h-97.445313c-4.691406 0-8.351562 4.019531-7.960937 8.695312.128906 1.53125.195312 3.082032.195312 4.648438 0 20.929688-11.515625 39.164062-28.550781 48.734375-2.261719 1.273437-3.753906 3.601563-3.960938 6.183594-2.433593 30.332031-27.808593 54.1875-58.761718 54.1875-2.441406 0-4.847656-.148438-7.207032-.441407-4.773437-.589843-8.984374 3.121094-8.984374 7.929688v293.324219c0 8.292969 6.722656 15.019531 15.019531 15.019531h197.65625c8.292969 0 15.019531-6.726562 15.019531-15.019531v-408.242188c0-8.296875-6.726562-15.019531-15.019531-15.019531zm0 0" fill="#a56021"/><path d="m59.964844 432.261719v-293.324219c0-4.808594 4.210937-8.519531 8.984375-7.929688 2.359375.292969 4.765625.441407 7.207031.441407 30.953125 0 56.328125-23.855469 58.761719-54.1875.207031-2.582031 1.699219-4.910157 3.960937-6.183594 17.035156-9.570313 28.550782-27.804687 28.550782-48.734375 0-1.566406-.066407-3.117188-.195313-4.648438-.390625-4.675781 3.269531-8.695312 7.960937-8.695312h-40c-4.691406 0-8.351562 4.019531-7.960937 8.695312.128906 1.53125.195313 3.082032.195313 4.648438 0 20.929688-11.515626 39.164062-28.550782 48.734375-2.261718 1.273437-3.753906 3.601563-3.960937 6.183594-2.433594 30.332031-27.808594 54.1875-58.761719 54.1875-2.441406 0-4.847656-.148438-7.207031-.441407-4.773438-.589843-8.984375 3.121094-8.984375 7.929688v293.324219c0 8.292969 6.722656 15.019531 15.019531 15.019531h40c-8.296875 0-15.019531-6.726562-15.019531-15.019531zm0 0" fill="#8c4c17"/><g fill="#bf6c0d"><path d="m177.90625 72.121094v-35.234375c0-4.417969 3.582031-8 8-8h35.234375c4.417969 0 8 3.582031 8 8v35.234375c0 4.417968-3.582031 8-8 8h-35.234375c-4.417969 0-8-3.582032-8-8zm0 0"/><path d="m177.90625 140.464844v-35.234375c0-4.417969 3.582031-8 8-8h35.234375c4.417969 0 8 3.582031 8 8v35.234375c0 4.417968-3.582031 8-8 8h-35.234375c-4.417969 0-8-3.582032-8-8zm0 0"/><path d="m106.785156 211.585938v-35.234376c0-4.417968 3.582032-8 8-8h35.234375c4.417969 0 8 3.582032 8 8v35.234376c0 4.417968-3.582031 8-8 8h-35.234375c-4.417968 0-8-3.582032-8-8zm0 0"/><path d="m177.90625 211.585938v-35.234376c0-4.417968 3.582031-8 8-8h35.234375c4.417969 0 8 3.582032 8 8v35.234376c0 4.417968-3.582031 8-8 8h-35.234375c-4.417969 0-8-3.582032-8-8zm0 0"/><path d="m110.222656 140.464844v-31.796875c0-4.417969 3.582032-8 8-8h31.796875c4.417969 0 8 3.582031 8 8v31.796875c0 4.417968-3.582031 8-8 8h-31.796875c-4.417968 0-8-3.582032-8-8zm0 0"/><path d="m38.441406 211.585938v-35.234376c0-4.417968 3.582032-8 8-8h35.234375c4.417969 0 8 3.582032 8 8v35.234376c0 4.417968-3.582031 8-8 8h-35.234375c-4.417968 0-8-3.582032-8-8zm0 0"/><path d="m38.441406 279.929688v-35.234376c0-4.417968 3.582032-8 8-8h35.234375c4.417969 0 8 3.582032 8 8v35.234376c0 4.417968-3.582031 8-8 8h-35.234375c-4.417968 0-8-3.582032-8-8zm0 0"/><path d="m150.007812 28.886719h-24.375c-1.652343 14.179687-8.617187 26.734375-18.847656 35.628906v7.597656c0 4.421875 3.585938 8.007813 8.007813 8.007813h35.21875c4.421875 0 8.007812-3.585938 8.007812-8.007813v-35.214843c0-4.425782-3.585937-8.011719-8.011719-8.011719zm0 0"/><path d="m46.449219 148.464844h35.214843c4.425782 0 8.011719-3.585938 8.011719-8.011719v-35.214844c0-2.285156-.964843-4.34375-2.5-5.800781-9.253906 17.972656-27.460937 30.566406-48.734375 31.886719v9.128906c0 4.425781 3.585938 8.011719 8.007813 8.011719zm0 0"/></g><path d="m4.109375 281.183594 249.625-135.042969c4.871094-2.632813 10.789063.890625 10.789063 6.429687v299.28125c0 7.570313-6.136719 13.707032-13.707032 13.707032h-236.832031c-7.570313 0-13.707031-6.136719-13.707031-13.707032v-164.238281c0-2.683593 1.472656-5.152343 3.832031-6.429687zm0 0" fill="#ff624b"/><path d="m215.285156 375.445312c0-22.117187-37.042968-40.046874-82.734375-40.046874-45.695312 0-82.734375 17.929687-82.734375 40.046874 0 22.117188 37.039063 40.050782 82.734375 40.050782 45.691407 0 82.734375-17.933594 82.734375-40.050782zm0 0" fill="#ffd59a"/><path d="m243.359375 447.113281c-3.3125 0-6-2.6875-6-6v-85.042969c0-3.3125 2.6875-6 6-6s6 2.6875 6 6v85.042969c0 3.3125-2.6875 6-6 6zm0 0" fill="#ff9079"/><path d="m40.277344 451.847656v-164.234375c0-2.6875 1.472656-5.152343 3.832031-6.429687l220.414063-119.242188v-9.371094c0-5.539062-5.917969-9.066406-10.789063-6.429687l-249.625 135.042969c-2.359375 1.277344-3.832031 3.746094-3.832031 6.429687v164.234375c0 7.570313 6.136718 13.707032 13.707031 13.707032h40c-7.570313 0-13.707031-6.136719-13.707031-13.707032zm0 0" fill="#ff4b34"/><path d="m264.824219 152.5625v25.195312l-264.546875 142.949219v-33.09375c0-2.683593 1.472656-5.152343 3.835937-6.429687l249.921875-135.050782c4.871094-2.632812 10.789063.894532 10.789063 6.429688zm0 0" fill="#ffd59a"/><path d="m264.824219 176.855469-157.308594 86.136719 114.992187 38.464843c5.027344 1.679688 10.421876-1.25 11.746094-6.378906zm0 0" fill="#ff4b34"/><path d="m264.824219 140.304688-157.308594 86.132812 114.992187 38.464844c5.027344 1.683594 10.421876-1.25 11.746094-6.378906zm0 0" fill="#ffeacf"/><path d="m243.359375 344.609375c-3.3125 0-6-2.683594-6-6v-21.5c0-3.3125 2.6875-6 6-6s6 2.6875 6 6v21.5c0 3.316406-2.6875 6-6 6zm0 0" fill="#ff9079"/><path d="m87.335938 317.109375c0 8.285156-6.714844 15-15 15-8.28125 0-15-6.714844-15-15 0-8.28125 6.71875-15 15-15 8.285156 0 15 6.71875 15 15zm0 0" fill="#ff4b34"/><path d="m127.582031 287.929688c0 8.285156-6.71875 15-15 15-8.285156 0-15-6.714844-15-15 0-8.285157 6.714844-15 15-15 8.28125 0 15 6.714843 15 15zm0 0" fill="#ff4b34"/><path d="m89.675781 105.238281c0-2.285156-.964843-4.34375-2.5-5.800781-3.753906 7.289062-8.976562 13.691406-15.285156 18.820312-.023437.019532-.050781.039063-.074219.058594-1.417968 1.148438-2.894531 2.234375-4.417968 3.25-.050782.035156-.097657.066406-.148438.101563-1.523438 1.007812-3.09375 1.949219-4.710938 2.816406-.042968.019531-.078124.042969-.121093.0625-.535157.285156-1.074219.5625-1.621094.832031-.035156.015625-.066406.03125-.101563.050782-1.640624.804687-3.324218 1.535156-5.042968 2.1875-.101563.039062-.199219.074218-.296875.113281-1.671875.621093-3.375 1.171875-5.113281 1.644531-.121094.03125-.246094.066406-.367188.097656-1.738281.460938-3.507812.84375-5.300781 1.144532-.117188.019531-.234375.039062-.351563.058593-.585937.097657-1.175781.183594-1.769531.261719-.085937.007812-.171875.019531-.257813.03125-1.195312.148438-2.402343.265625-3.621093.34375-.042969.003906-.089844.007812-.132813.011719v9.128906c0 4.425781 3.585938 8.011719 8.007813 8.011719h12.105469v-9.527344c0-4.808594 4.210937-8.519531 8.984374-7.929688 2.359376.292969 4.765626.441407 7.207032.441407 5.160156 0 10.160156-.675781 14.929687-1.921875zm0 0" fill="#a56021"/><path d="m158.019531 36.898438c0-4.425782-3.585937-8.011719-8.011719-8.011719h-24.375c-.003906.046875-.011718.089843-.019531.132812-.097656.832031-.210937 1.65625-.347656 2.472657-.003906.015624-.003906.03125-.007813.046874-.28125 1.695313-.636718 3.359376-1.066406 5-.023437.082032-.042968.167969-.066406.25-.429688 1.609376-.929688 3.191407-1.496094 4.742188-.035156.089844-.070312.179688-.101562.269531-.265625.714844-.542969 1.421875-.839844 2.125-.023438.058594-.046875.117188-.070312.175781-.324219.761719-.664063 1.515626-1.019532 2.261719-.015625.039063-.039062.082031-.058594.121094-.324218.671875-.660156 1.339844-1.011718 1.996094-.066406.125-.128906.25-.195313.371093-.753906 1.390626-1.5625 2.75-2.425781 4.066407-.082031.128906-.171875.257812-.257812.386719-.367188.550781-.746094 1.097656-1.132813 1.632812-.078125.113281-.15625.226562-.238281.335938-.457032.628906-.929688 1.246093-1.414063 1.855468-.066406.082032-.136719.167969-.203125.25-.417968.515625-.84375 1.027344-1.28125 1.527344-.125.144531-.25.289062-.378906.433594-.476562.539062-.960938 1.070312-1.460938 1.59375-.03125.03125-.0625.066406-.09375.097656-.527343.554688-1.070312 1.089844-1.621093 1.617188-.140625.132812-.28125.265624-.421875.398437-.445313.417969-.898438.832031-1.359375 1.234375-.085938.078125-.171875.160156-.257813.238281v7.59375c0 4.421875 3.585938 8.011719 8.007813 8.011719h18.414062c.125-.945312.222657-1.898438.300781-2.859375.207032-2.585937 1.699219-4.914063 3.960938-6.183594 8.457031-4.75 15.546875-11.636719 20.550781-19.925781zm0 0" fill="#a56021"/><path d="m216.007812 89.886719h-24.375c-1.652343 14.179687-8.617187 26.734375-18.847656 35.628906v7.597656c0 4.421875 3.585938 8.007813 8.007813 8.007813h35.21875c4.421875 0 8.007812-3.585938 8.007812-8.007813v-35.214843c0-4.425782-3.585937-8.011719-8.011719-8.011719zm0 0" fill="#bf6c0d"/><path d="m126.535156 100.667969h-8.3125c-4.417968 0-8 3.582031-8 8v10.902343c6.691406-5.054687 12.273438-11.496093 16.3125-18.902343zm0 0" fill="#a56021"/></svg>