<svg height="386pt" viewBox="0 -56 386.12445 386" width="386pt" xmlns="http://www.w3.org/2000/svg"><path d="m338.335938 68.753906c4.605468 12.261719-1.609376 33.070313-20.417969 49.171875-11.695313 10.011719-25.605469 15.753907-38.15625 15.753907-.003907 0 0 0-.003907 0-5.601562 0-13.296874-1.183594-18.125-6.824219-9.171874-10.714844-4.246093-35.625 17.496094-54.234375 1.601563-1.375 3.25-2.660156 4.925782-3.867188h-37.964844c-18.628906 25.453125-21.535156 56.316406-4.972656 75.667969 20.414062 23.839844 62.660156 21.164063 94.363281-5.980469 23.105469-19.78125 34.21875-47.097656 30.652343-69.6875zm0 0" fill="#f9bb32"/><path d="m365.925781 55.125c-20.414062-23.839844-62.660156-21.164062-94.363281 5.980469s-40.859375 68.476562-20.445312 92.316406c20.410156 23.839844 62.660156 21.164063 94.363281-5.980469 31.703125-27.144531 40.855469-68.476562 20.445312-92.316406zm-38.007812 71.800781c-11.695313 10.011719-25.605469 15.757813-38.15625 15.757813-.003907 0 0 0-.003907 0-5.601562 0-13.296874-1.1875-18.125-6.828125-9.171874-10.710938-4.246093-35.621094 17.496094-54.234375 11.691406-10.015625 25.601563-15.757813 38.160156-15.757813 5.601563 0 13.292969 1.1875 18.121094 6.828125 9.175782 10.710938 4.246094 35.621094-17.492187 54.234375zm0 0" fill="#ffeacf"/><path d="m271.5625 61.105469c-31.703125 27.144531-40.855469 68.476562-20.445312 92.316406 16.769531 19.585937 48.277343 21.257813 76.566406 6.183594l8.773437-41.285157c-2.488281 2.960938-5.324219 5.855469-8.539062 8.605469-11.695313 10.011719-25.605469 15.757813-38.15625 15.757813-.003907 0 0 0-.003907 0-5.601562 0-13.296874-1.1875-18.125-6.828125-9.171874-10.710938-4.246093-35.621094 17.496094-54.234375 11.691406-10.015625 25.601563-15.757813 38.160156-15.757813 5.601563 0 13.292969 1.1875 18.121094 6.828125.207032.238282.394532.492188.585938.746094l6.167968-29.027344c-22.308593-11.222656-54.914062-5.296875-80.601562 16.695313zm0 0" fill="#ffd59a"/><path d="m245.808594 217.300781h-105.492188c-17.269531 0-32.1875-12.078125-35.777344-28.972656l-37.320312-175.640625c-1.382812-6.5 3.574219-12.625 10.222656-12.625h231.242188c6.644531 0 11.601562 6.121094 10.222656 12.625l-37.320312 175.640625c-3.59375 16.894531-18.507813 28.972656-35.777344 28.972656zm0 0" fill="#ffeacf"/><path d="m144.539062 188.328125-37.320312-175.644531c-1.382812-6.5 3.574219-12.621094 10.222656-12.621094h-40c-6.644531 0-11.605468 6.121094-10.222656 12.621094l37.320312 175.644531c3.589844 16.894531 18.507813 28.972656 35.777344 28.972656h40c-17.269531 0-32.1875-12.078125-35.777344-28.972656zm0 0" fill="#ffd59a"/><path d="m330.421875 273.78125h-274.71875c-8.285156 0-15-6.714844-15-15v-22.617188h304.71875v22.617188c0 8.285156-6.71875 15-15 15zm0 0" fill="#ffd59a"/><path d="m80.703125 259.164062h264.699219c0-.128906.019531-.253906.019531-.382812v-22.617188h-304.71875v22.617188c0 8.285156 6.714844 15 15 15h25zm0 0" fill="#ffc34c"/><path d="m356.480469 249.746094h-329.710938c-5.675781 0-11-2.988282-14.261719-8.007813l-11.796874-18.152343c-1.800782-2.773438.03125-6.582032 3.167968-6.582032h378.367188c3.316406 0 5.097656 4.210938 2.925781 6.917969l-15.523437 19.332031c-3.308594 4.125-8.113282 6.492188-13.167969 6.492188zm0 0" fill="#ffd59a"/><path d="m92.277344 58.453125 26.933594 126.757813c2.105468 9.902343 10.980468 17.089843 21.101562 17.089843h105.492188c10.125 0 19-7.1875 21.105468-17.089843l26.933594-126.757813zm0 0" fill="#a56021"/><path d="m295.65625 15.0625h-205.191406c-3.816406 0-6.660156 3.515625-5.867188 7.25l7.679688 36.140625h201.566406l7.679688-36.140625c.792968-3.734375-2.050782-7.25-5.867188-7.25zm0 0" fill="#db9c2e"/><path d="m116.941406 58.453125-9.21875-43.390625h-17.253906c-3.816406 0-6.664062 3.515625-5.871094 7.246094l7.679688 36.144531zm0 0" fill="#bf6c0d"/><path d="m271.738281 89.496094c-.410156 0-.832031-.042969-1.25-.132813-3.242187-.6875-5.3125-3.875-4.625-7.113281l3.113281-14.640625c.6875-3.238281 3.871094-5.308594 7.113282-4.621094 3.242187.691407 5.3125 3.875 4.625 7.117188l-3.113282 14.636719c-.597656 2.820312-3.089843 4.753906-5.863281 4.753906zm0 0" fill="#ffd59a"/><path d="m254.21875 181.960938c-.414062 0-.835938-.042969-1.253906-.132813-3.242188-.6875-5.3125-3.875-4.621094-7.117187l14.300781-67.277344c.691407-3.238282 3.875-5.3125 7.117188-4.621094 3.242187.691406 5.3125 3.875 4.621093 7.117188l-14.304687 67.277343c-.597656 2.820313-3.089844 4.753907-5.859375 4.753907zm0 0" fill="#ffd59a"/><g fill="#8c4c17"><path d="m174.0625 142.863281c0 8.285157-6.71875 15-15 15-8.285156 0-15-6.714843-15-15 0-8.28125 6.714844-15 15-15 8.28125 0 15 6.71875 15 15zm0 0"/><path d="m204.0625 176.773438c0 8.285156-6.71875 15-15 15-8.285156 0-15-6.714844-15-15 0-8.28125 6.714844-15 15-15 8.28125 0 15 6.71875 15 15zm0 0"/><path d="m144.539062 188.328125-27.597656-129.875h-24.664062l26.933594 126.757813c2.105468 9.902343 10.980468 17.089843 21.105468 17.089843h10.46875c-2.972656-4.066406-5.144531-8.792969-6.246094-13.972656zm0 0"/></g></svg>