<svg height="434pt" viewBox="0 -101 434.71996 434" width="434pt" xmlns="http://www.w3.org/2000/svg"><path d="m402.734375 38.527344c3.324219 17.824218-6.757813 41.582031-26.726563 58.675781-15.71875 13.457031-35.09375 20.71875-51.832031 19.421875-6.78125-.527344-16.246093-2.765625-22.820312-10.441406-8.75-10.222656-7.335938-24.03125-5.714844-31.355469 2.8125-12.710937 10.347656-25.644531 21-36.300781h-27.765625c-19.101562 27.777344-21.640625 60.703125-3.773438 81.574218 22.675782 26.480469 69.605469 23.507813 104.824219-6.644531 24.824219-21.257812 37.183594-50.339843 34.382813-74.929687zm0 0" fill="#ffb74b"/><path d="m422.636719 30.90625c-22.675781-26.484375-69.605469-23.507812-104.824219 6.644531-35.21875 30.152344-45.386719 76.066407-22.710938 102.550781 22.675782 26.480469 69.605469 23.507813 104.824219-6.644531 35.21875-30.152343 45.386719-76.066406 22.710938-102.550781zm-36.628907 86.296875c-15.71875 13.457031-35.09375 20.71875-51.832031 19.421875-6.78125-.527344-16.246093-2.765625-22.820312-10.441406-8.75-10.222656-7.335938-24.03125-5.714844-31.355469 3.242187-14.652344 12.753906-29.605469 26.089844-41.023437 15.71875-13.457032 35.09375-20.71875 51.828125-19.421876 6.78125.523438 16.25 2.761719 22.820312 10.441407 14.714844 17.183593 5.386719 50.328125-20.371094 72.378906zm0 0" fill="#ffd551"/><path d="m354.5625 134.367188c-6.945312 1.953124-13.867188 2.765624-20.386719 2.257812-6.78125-.527344-16.246093-2.765625-22.820312-10.441406-8.75-10.222656-7.335938-24.03125-5.714844-31.355469 3.242187-14.652344 12.753906-29.605469 26.089844-41.023437 15.71875-13.457032 35.09375-20.71875 51.828125-19.421876 4.304687.332032 9.683594 1.359376 14.71875 4.023438.675781-6.144531 1.035156-12.386719 1.035156-18.710938v-3.9375c-24.15625-7.660156-55.917969-.113281-81.5 21.792969-35.21875 30.152344-45.386719 76.066407-22.710938 102.550781 8.382813 9.792969 20.09375 15.546876 33.296876 17.398438 9.503906-6.796875 18.269531-14.558594 26.164062-23.132812zm0 0" fill="#ffc34c"/><path d="m199.984375 189.027344h-.007813c-93.519531 0-169.328124-75.8125-169.328124-169.332032v-9.335937c0-5.523437 4.476562-10 10-10h318.664062c5.523438 0 10 4.476563 10 10v9.335937c0 93.519532-75.808594 169.332032-169.328125 169.332032zm0 0" fill="#ffd551"/><path d="m249.984375 179.027344h-.007813c-93.519531 0-169.328124-75.8125-169.328124-169.332032v-9.335937h-40c-5.523438 0-10 4.476563-10 10v9.335937c0 93.519532 75.808593 169.332032 169.328124 169.332032h.007813c20.371094 0 39.898437-3.597656 57.988281-10.195313-2.648437.125-5.308594.195313-7.988281.195313zm0 0" fill="#ffc34c"/><path d="m283.023438 137.527344c-2.28125 0-4.460938-1.304688-5.464844-3.515625-1.375-3.015625-.042969-6.574219 2.972656-7.945313 46.882812-21.351562 55.183594-87.574218 55.261719-88.242187.390625-3.289063 3.378906-5.644531 6.660156-5.257813 3.292969.386719 5.648437 3.371094 5.257813 6.660156-.351563 2.996094-9.234376 73.636719-62.207032 97.757813-.804687.371094-1.648437.542969-2.480468.542969zm0 0" fill="#ffdf74"/><path d="m159.308594 95.527344c0 8.285156-6.714844 15-15 15-8.28125 0-15-6.714844-15-15s6.71875-15 15-15c8.285156 0 15 6.714844 15 15zm0 0" fill="#ffc34c"/><path d="m198.21875 126.117188c0 8.285156-6.714844 15-15 15-8.28125 0-15-6.714844-15-15 0-8.285157 6.71875-15 15-15 8.285156 0 15 6.714843 15 15zm0 0" fill="#ffc34c"/><path d="m342.378906 231.359375h-284.796875c-8.285156 0-15-6.714844-15-15v-21h314.796875v21c0 8.285156-6.714844 15-15 15zm0 0" fill="#ffea63"/><path d="m82.582031 219.359375h274.496094c.195313-.96875.300781-1.972656.300781-3v-21h-314.796875v21c0 8.285156 6.714844 15 15 15h25zm0 0" fill="#ffd551"/><path d="m368.273438 208.359375h-340.617188c-5.867188 0-11.367188-2.859375-14.734375-7.660156l-12.1875-17.375c-1.863281-2.652344.035156-6.296875 3.273437-6.296875h390.878907c3.429687 0 5.269531 4.027344 3.023437 6.621094l-16.035156 18.5c-3.417969 3.945312-8.382812 6.210937-13.601562 6.210937zm0 0" fill="#ffea63"/></svg>