<svg height="486pt" viewBox="-46 0 486 486.938" width="486pt" xmlns="http://www.w3.org/2000/svg"><path d="m310.878906 0h-229.417968c-5.703126 0-9.285157 6.148438-6.476563 11.109375l104.992187 185.460937c7.125 12.589844 25.261719 12.589844 32.386719 0l104.992188-185.460937c2.808593-4.960937-.773438-11.109375-6.476563-11.109375zm0 0" fill="#fff4c1"/><path d="m116.484375 11.113281c-2.808594-4.964843.773437-11.113281 6.476563-11.113281h-41.5c-5.703126 0-9.285157 6.148438-6.476563 11.113281l104.992187 185.457031c7.125 12.589844 25.261719 12.589844 32.386719 0l4.558594-8.046874zm0 0" fill="#fce575"/><path d="m221.121094 147.75c-.933594 0-1.878906-.21875-2.761719-.675781-2.941406-1.527344-4.085937-5.148438-2.5625-8.089844l57.066406-109.878906c1.527344-2.941407 5.148438-4.085938 8.089844-2.558594s4.085937 5.148437 2.5625 8.089844l-57.066406 109.875c-1.066407 2.058593-3.160157 3.238281-5.328125 3.238281zm0 0" fill="#fcf9de"/><path d="m352.871094 313.015625h-26.40625l27.226562 76.03125c.300782.839844.359375 1.734375.175782 2.628906-.476563 2.273438-2.667969 3.785157-4.992188 3.785157h-81.09375v-82.445313h-24.863281v107.304687h106.257812c16.378907 0 29.65625-13.277343 29.65625-29.65625 0-3.40625-.585937-6.789062-1.734375-10zm0 0" fill="#bf6c0d"/><path d="m392.660156 392.078125-30.175781-84.265625c-4.21875-11.792969-15.394531-19.660156-27.917969-19.660156h-76.085937v143.582031h106.257812c16.382813 0 29.660157-13.277344 29.660157-29.65625 0-3.410156-.589844-6.792969-1.738282-10zm-23.230468 11.011719c-.476563 2.273437-2.664063 3.78125-4.988282 3.78125h-81.097656v-93.855469h51.21875c2.019531 0 3.832031 1.277344 4.515625 3.179687l30.171875 84.265626c.300781.835937.367188 1.734374.179688 2.628906zm0 0" fill="#f9bb32"/><path d="m348.804688 406.871094h-65.460938v-93.855469h50.058594c-7.25-15.265625-13.957032-24.863281-13.957032-24.863281h-60.964843v143.582031h81.289062c4.3125-8.136719 7.230469-16.488281 9.035157-24.863281zm0 0" fill="#db9c2e"/><path d="m288.320312 288.152344h-184.300781s-79.828125 114.1875 13.746094 181.40625c6.421875 5.234375 14.617187 8.378906 23.550781 8.378906h109.707032c8.933593 0 17.128906-3.140625 23.550781-8.378906 93.574219-67.21875 13.746093-181.40625 13.746093-181.40625zm0 0" fill="#ffeacf"/><path d="m286.992188 288.152344h-181.640626c-5.292968 0-9.582031-4.289063-9.582031-9.582032v-12.097656c0-5.292968 4.289063-9.585937 9.582031-9.585937h181.640626c5.292968 0 9.582031 4.292969 9.582031 9.585937v12.097656c0 5.292969-4.292969 9.582032-9.582031 9.582032zm0 0" fill="#f9bb32"/><path d="m137.269531 280.320312c0-5.492187 4.453125-9.945312 9.941407-9.945312h149.363281v-3.542969c0-5.492187-4.453125-9.945312-9.945313-9.945312h-180.917968c-5.492188 0-9.941407 4.453125-9.941407 9.945312v11.378907c0 5.492187 4.449219 9.941406 9.941407 9.941406h31.558593zm0 0" fill="#db9c2e"/><path d="m145.523438 288.152344h-41.5s-79.832032 114.1875 13.742187 181.40625c6.421875 5.238281 14.617187 8.378906 23.550781 8.378906h41.5c-8.933594 0-17.125-3.140625-23.546875-8.378906-93.578125-67.21875-13.746093-181.40625-13.746093-181.40625zm0 0" fill="#ffd59a"/><path d="m373.09375 486.9375h-353.238281c-6.066407 0-11.667969-2.757812-15.363281-7.570312-3.699219-4.808594-4.921876-10.933594-3.359376-16.792969l103.101563-386.75c1.050781-3.941407 4.621094-6.683594 8.695313-6.683594h166.480468c4.972656 0 9 4.03125 9 9 0 4.972656-4.027344 9-9 9h-159.5625l-101.320312 380.070313c-.117188.433593-.039063.832031.238281 1.191406.273437.355468.640625.535156 1.089844.535156h353.238281c.457031 0 .824219-.183594 1.097656-.550781.273438-.363281.351563-.769531.222656-1.207031l-100.828124-346.335938h-141.574219c-4.972657 0-9-4.027344-9-9 0-4.96875 4.027343-9 9-9h148.328125c4.003906 0 7.523437 2.644531 8.644531 6.484375l102.714844 352.820313c1.71875 5.910156.585937 12.121093-3.109375 17.042968-3.691406 4.921875-9.339844 7.746094-15.496094 7.746094zm0 0" fill="#8c4c17"/><path d="m168.109375 406.871094c0 11.84375-9.597656 21.441406-21.441406 21.441406s-21.441407-9.597656-21.441407-21.441406c0-11.839844 9.597657-21.441406 21.441407-21.441406s21.441406 9.601562 21.441406 21.441406zm0 0" fill="#8c4c17"/><path d="m99.335938 381.226562c-4.773438 0-8.578126 4.019532-8.292969 8.785157 1.5625 26.21875 14.011719 47.453125 37.601562 64.402343l.464844.332032.441406.359375c2.339844 1.910156 6.28125 4.183593 11.765625 4.183593h109.707032c5.484374 0 9.425781-2.273437 11.765624-4.183593l.441407-.359375.464843-.332032c23.589844-16.945312 36.039063-38.183593 37.601563-64.402343.285156-4.765625-3.519531-8.785157-8.292969-8.785157zm0 0" fill="#a56021"/><path d="m233.1875 449.792969c-2.933594 0-5.496094-2.152344-5.929688-5.140625-.476562-3.28125 1.800782-6.324219 5.078126-6.796875 17.609374-2.550781 30.273437-9.675781 37.640624-21.175781 14.101563-22.023438 5.015626-53.535157 4.921876-53.851563-.941407-3.171875.867187-6.511719 4.039062-7.457031 3.171875-.945313 6.511719.855468 7.460938 4.027344.445312 1.5 10.769531 36.984374-6.277344 63.6875-9.324219 14.605468-24.820313 23.566406-46.0625 26.644531-.292969.042969-.582032.0625-.871094.0625zm0 0" fill="#ffd59a"/><g fill="#8c4c17"><path d="m113.828125 381.226562h-14.492187c-4.773438 0-8.578126 4.019532-8.292969 8.785157 1.5625 26.21875 14.011719 47.453125 37.601562 64.402343l.464844.332032.441406.359375c2.339844 1.910156 6.28125 4.183593 11.765625 4.183593h5.351563c-25.558594-23.6875-33.425781-51.667968-32.839844-78.0625zm0 0"/><path d="m177.089844 416.503906c0 11.839844-9.601563 21.441406-21.441406 21.441406-11.84375 0-21.445313-9.601562-21.445313-21.441406 0-11.84375 9.601563-21.445312 21.445313-21.445312 11.839843 0 21.441406 9.601562 21.441406 21.445312zm0 0"/></g></svg>