<svg height="446pt" viewBox="-7 0 446 446.71434" width="446pt" xmlns="http://www.w3.org/2000/svg"><path d="m390.125 275.855469c3.785156 19.527343-4.988281 43.816406-24.21875 61.777343-26.03125 24.316407-61.339844 27.828126-78.859375 7.839844-15.117187-17.246094-12.042969-46.335937 5.792969-69.617187h-37.632813c-3.777343 7.972656-6.542969 16.277343-8.164062 24.707031-4.855469 25.273438 1.082031 49.71875 16.285156 67.0625 15.207031 17.34375 38.175781 25.878906 63.023437 23.40625 21.691407-2.152344 43.359376-12.425781 61.015626-28.914062 17.652343-16.492188 29.710937-37.730469 33.949218-59.796876 1.734375-9.023437 2.082032-17.9375 1.132813-26.464843zm0 0" fill="#ffd551"/><path d="m415.03125 255.257812c-15.207031-17.34375-38.175781-25.878906-63.019531-23.410156-21.695313 2.160156-43.363281 12.429688-61.019531 28.917969-17.652344 16.492187-29.710938 37.730469-33.949219 59.796875-4.851563 25.273438 1.082031 49.71875 16.289062 67.0625 15.203125 17.34375 38.171875 25.878906 63.019531 23.40625 21.691407-2.152344 43.363282-12.425781 61.015626-28.914062 17.652343-16.492188 29.710937-37.730469 33.949218-59.796876 4.855469-25.273437-1.082031-49.71875-16.285156-67.0625zm-39.125 102.375c-26.03125 24.316407-61.339844 27.828126-78.859375 7.839844-17.523437-19.988281-10.621094-55.90625 15.40625-80.222656 26.03125-24.316406 61.339844-27.828125 78.859375-7.839844 17.523438 19.988282 10.625 55.90625-15.40625 80.222656zm0 0" fill="#fff4c1"/><path d="m352.394531 373.128906c-20.9375 8.9375-42.742187 6.722656-55.347656-7.65625-17.523437-19.988281-10.621094-55.90625 15.40625-80.222656 26.03125-24.316406 61.339844-27.828125 78.859375-7.839844 2.574219 2.933594 4.605469 6.21875 6.140625 9.753906 3.460937-13.476562 5.691406-27.523437 6.5625-41.988281-14.316406-10.464843-32.585937-15.257812-52.003906-13.328125-21.695313 2.15625-43.363281 12.429688-61.019531 28.917969-17.652344 16.492187-29.710938 37.730469-33.949219 59.796875-4.851563 25.273438 1.082031 49.71875 16.289062 67.0625 9.488281 10.828125 22.003907 18.21875 36.109375 21.644531 15.910156-9.648437 30.371094-21.863281 42.953125-36.140625zm0 0" fill="#fce575"/><path d="m220.386719 446.714844h-78.226563c-19.328125 0-35-15.671875-35-35v-29.738282h148.226563v29.738282c0 19.328125-15.667969 35-35 35zm0 0" fill="#ffdf74"/><path d="m349.441406 203.988281h-334.085937c-8.28125 0-15 6.71875-15 15v12.441407c0 111.808593 81.503906 202.441406 182.042969 202.441406 100.539062 0 182.042968-90.636719 182.042968-202.441406v-12.441407c0-8.28125-6.714844-15-15-15zm0 0" fill="#fff4c1"/><path d="m205.300781 166.640625c118.808594-10.710937 108.914063-102.042969 102.835938-130.582031-1.023438-4.820313-7.265625-6.824219-13.765625-4.425782-39.261719 14.472657-161.210938 66.1875-101.242188 131.246094 2.621094 2.84375 7.089844 4.21875 12.171875 3.761719zm0 0" fill="#ccc033"/><path d="m309.546875 43.683594c-.453125-2.871094-.941406-5.433594-1.410156-7.625-1.023438-4.820313-7.265625-6.824219-13.765625-4.425782-17.835938 6.574219-52.734375 20.835938-79.894532 40.539063-.492187.355469-.980468.714844-1.464843 1.078125-.066407.046875-.132813.097656-.199219.144531-.421875.316407-.84375.628907-1.261719.949219-.09375.066406-.183593.136719-.273437.203125-.390625.296875-.78125.597656-1.167969.898437-.109375.082032-.214844.167969-.324219.25-.371094.289063-.738281.578126-1.105468.867188-.113282.089844-.226563.179688-.335938.269531-.367188.289063-.730469.582031-1.09375.875-.105469.085938-.210938.171875-.320312.257813-.367188.300781-.734376.605468-1.101563.90625-.09375.082031-.191406.160156-.285156.234375-.382813.324219-.765625.644531-1.144531.96875-.074219.0625-.144532.125-.21875.183593-.4375.375-.871094.75-1.300782 1.128907-.011718.007812-.019531.015625-.03125.027343-1.355468 1.1875-2.671875 2.390626-3.953125 3.609376-.050781.050781-.101562.101562-.15625.152343-.359375.34375-.71875.691407-1.074219 1.039063-.09375.089844-.183593.179687-.273437.273437-.3125.308594-.625.621094-.933594.933594-.109375.109375-.214843.21875-.324219.328125-.285156.292969-.574218.589844-.855468.882812-.117188.121094-.230469.246094-.347656.367188-.273438.285156-.542969.574219-.808594.863281-.117188.125-.238282.253907-.351563.378907-.265625.289062-.527343.578124-.785156.867187-.113281.125-.226563.25-.335937.375-.265626.296875-.523438.59375-.78125.894531-.101563.121094-.207032.238282-.308594.359375-.269532.3125-.53125.628907-.792969.941407-.089844.105468-.175781.210937-.261719.316406-.300781.363281-.597656.726562-.890625 1.09375-.042969.054687-.085937.109375-.128906.164062-.683594.867188-1.347656 1.738282-1.988281 2.617188-.011719.011718-.019532.023437-.027344.039062-.300781.414063-.59375.828125-.882812 1.242188-.070313.101562-.140626.203125-.210938.304687-.226562.332031-.449219.660157-.667969.992188-.089843.132812-.175781.265625-.261719.398437-.199218.300782-.394531.605469-.585937.90625-.09375.148438-.183594.296875-.273437.445313-.183594.289062-.359376.582031-.535157.871093-.09375.15625-.1875.316407-.277343.472657-.167969.285156-.332032.570312-.492188.855469-.09375.160156-.183594.324218-.273438.484374-.15625.285157-.3125.570313-.464843.859376-.085938.160156-.171875.320312-.253907.480468-.152343.292969-.304687.589844-.449218.882813-.078125.15625-.15625.308593-.230469.464843-.148437.308594-.296875.617188-.4375.925782-.066406.144531-.132813.285156-.199219.429687-.15625.34375-.308594.691407-.457031 1.039063-.042969.105468-.09375.210937-.136719.320312-.386718.917969-.742187 1.839844-1.070312 2.769532-.03125.089843-.058594.175781-.089844.265624-.125.371094-.25.742188-.371094 1.117188-.042968.144531-.085937.292969-.132812.4375-.09375.316406-.191406.632812-.28125.953125-.046875.167969-.089844.335937-.136719.507813-.078125.292968-.160156.589843-.230469.890624-.046875.179688-.089844.363282-.132812.546876-.066406.285156-.128906.570312-.191406.859374-.039063.1875-.078126.375-.117188.566407-.054688.28125-.109375.566406-.160156.851562-.03125.191407-.066406.382813-.097656.578125-.046876.28125-.089844.566406-.128907.851563-.027343.191406-.054687.386719-.078125.578125-.035156.289062-.070312.578125-.097656.871094-.019531.1875-.042969.375-.058594.5625-.027344.304687-.050781.609374-.070312.914062-.011719.175781-.027344.351562-.035156.523438-.019532.339843-.03125.679687-.042969 1.019531-.003907.144531-.011719.285156-.011719.425781-.019531.972656-.003906 1.945312.050781 2.925781.003907.136719.019531.273438.027344.410157.023437.351562.046875.703124.078125 1.054687.015625.179687.039062.363281.058594.542969.03125.308594.066406.621094.105468.929687.023438.199219.054688.398438.082032.59375.042968.296875.085937.59375.136718.886719.035157.207031.070313.414062.109376.625.054687.289062.105468.578125.164062.867188.042969.210937.089844.421874.136719.636718.0625.285156.128906.574219.199219.863282.050781.214843.105468.425781.160156.640624.074218.289063.152344.582032.234375.871094.058593.210938.121093.425782.183593.636719.085938.296875.179688.59375.273438.886719.066406.210937.132812.417968.203125.628906.101563.308594.210937.617188.324219.921875.070312.199219.136718.394531.210937.59375.128907.34375.265625.683594.402344 1.027344.066406.164062.125.332031.195313.496093.203124.492188.417968.988282.640624 1.484376.003907.015624.011719.027343.019532.042968.230468.511719.472656 1.023438.722656 1.535156.082031.167969.171875.332032.253906.496094.175782.347656.351563.699219.535156 1.046875.109376.199219.21875.402344.332032.601563.171875.316406.34375.632812.527344.949218.121093.214844.25.429688.375.644532.179687.300781.355468.605468.542968.90625.136719.226562.277344.449218.417969.671875.1875.296875.378906.597656.574219.894531.144531.226562.296875.453125.449218.679688.199219.296874.402344.59375.609376.894531.15625.226562.316406.453125.476562.679687.214844.300782.433594.601563.65625.902344.164062.226562.328125.449219.5.675781.230469.308594.46875.613281.707031.917969.171875.222656.339844.445312.519531.667969.253907.316406.515626.636719.777344.957031.167969.207031.335938.417969.511719.625.296875.355469.605469.710938.910156 1.066406.152344.175782.300781.347656.453125.523438.46875.53125.945313 1.0625 1.4375 1.597656.230469.25.484375.488281.746094.714844.117188.101562.242188.199218.363281.296875.140625.105469.277344.210937.421875.3125.167969.121093.339844.238281.519532.351562.078124.050781.164062.09375.242187.144531.554687.328126 1.132813.632813 1.757813.886719 2.695312.269531 5.441406.507813 8.253906.707031 1.257812.085938 2.472656.058594 3.652344-.039062.382812-.039062.777343-.074219 1.160156-.117188 3.996094-.539062 7.382812-2.128906 9.59375-4.625 25.160156-28.449218 22.226562-54.253906 5.980468-76.386718 27.152344-19.695313 62.027344-33.949219 79.855469-40.523438 1.316407-.480468 2.617188-.777344 3.871094-.914062zm0 0" fill="#99af17"/><path d="m184.1875 170.164062c-140.144531-23.484374-120.117188-131.070312-110.316406-164.414062 1.65625-5.632812 9.253906-7.445312 16.753906-4.011719 45.320312 20.75 185.480469 93.21875 108.359375 165.058594-3.371094 3.140625-8.804687 4.371094-14.796875 3.367187zm0 0" fill="#eacf32"/><path d="m99.726562 6.015625c-3.328124-1.601563-6.386718-3.035156-9.101562-4.277344-7.5-3.433593-15.097656-1.621093-16.753906 4.011719-9.800782 33.34375-29.828125 140.929688 110.316406 164.414062 5.992188 1.003907 11.425781-.226562 14.796875-3.367187 3.222656-3 6.054687-6 8.539063-8.996094-120.933594-22.863281-116.859376-110.632812-107.796876-151.785156zm0 0" fill="#ccc033"/><path d="m232.398438 423.875c-100.539063 0-182.042969-90.636719-182.042969-202.445312v-12.4375c0-1.757813.320312-3.4375.875-5h-35.875c-8.28125 0-15 6.714843-15 15v12.4375c0 111.808593 81.503906 202.445312 182.042969 202.445312 19.941406 0 39.128906-3.578125 57.085937-10.167969-2.351563.097657-4.710937.167969-7.085937.167969zm0 0" fill="#fce575"/><path d="m182.398438 408.875c-86.59375 0-157.042969-79.601562-157.042969-177.445312 0-1.347657 1.09375-2.4375 2.441406-2.4375h309.207031c1.347656 0 2.4375 1.089843 2.4375 2.4375 0 97.84375-70.445312 177.445312-157.042968 177.445312zm0 0" fill="#ccc033"/><path d="m25.355469 231.429688c0 89.066406 58.382812 163.003906 134.175781 175.554687-62.304688-30.300781-106.402344-98.253906-109.035156-177.996094h-22.699219c-1.347656 0-2.441406 1.09375-2.441406 2.441407zm0 0" fill="#99af17"/><path d="m247.667969 376.523438c-2.351563 0-4.582031-1.386719-5.542969-3.691407-1.273438-3.058593.171875-6.574219 3.230469-7.847656 52.085937-21.699219 59.941406-96.292969 60.015625-97.042969.320312-3.296875 3.246094-5.710937 6.554687-5.390625 3.296875.324219 5.710938 3.257813 5.386719 6.554688-.082031.839843-2.105469 20.773437-11.226562 43.871093-12.28125 31.09375-31.683594 52.90625-56.113282 63.085938-.753906.3125-1.535156.460938-2.304687.460938zm0 0" fill="#eacf32"/><path d="m199.667969 151.523438c-1.660157 0-3.308594-.683594-4.496094-2.023438l-40.132813-45.332031c-2.199218-2.480469-1.96875-6.273438.511719-8.46875 2.480469-2.195313 6.273438-1.964844 8.46875.515625l40.136719 45.332031c2.195312 2.480469 1.964844 6.273437-.515625 8.46875-1.140625 1.011719-2.558594 1.507813-3.972656 1.507813zm0 0" fill="#fcda4f"/><g fill="#99af17"><path d="m134.921875 339.808594c0 8.285156-6.714844 15-15 15s-15-6.714844-15-15 6.714844-15 15-15 15 6.714844 15 15zm0 0"/><path d="m174.53125 370.617188c0 8.28125-6.71875 15-15 15-8.285156 0-15-6.71875-15-15 0-8.285157 6.714844-15 15-15 8.28125 0 15 6.714843 15 15zm0 0"/></g></svg>