<svg height="462pt" viewBox="-93 0 462 462.944" width="462pt" xmlns="http://www.w3.org/2000/svg"><path d="m264.75 103.25h-251.980469c-7.222656 0-12.890625 6.195312-12.246093 13.390625l8.953124 100.171875c.566407 6.34375 5.878907 11.203125 12.246094 11.203125h2.710938l19.515625 214.765625c1.039062 11.414062 10.761719 20.164062 22.417969 20.164062h144.734374c11.652344 0 21.378907-8.75 22.414063-20.164062l19.519531-214.765625h2.761719c6.367187 0 11.683594-4.859375 12.25-11.203125l8.953125-100.171875c.640625-7.195313-5.027344-13.390625-12.25-13.390625zm0 0" fill="#fff4c1"/><path d="m136.679688 418.570312c-7.460938 0-13.507813-6.046874-13.507813-13.503906v-391.558594c0-7.460937 6.046875-13.507812 13.507813-13.507812 7.460937 0 13.507812 6.046875 13.507812 13.507812v391.558594c0 7.457032-6.046875 13.503906-13.507812 13.503906zm0 0" fill="#ff9079"/><path d="m137.390625 405.066406v-391.558594c0-4.847656 2.5625-9.085937 6.398437-11.46875-2.066406-1.285156-4.5-2.039062-7.109374-2.039062-7.460938 0-13.507813 6.046875-13.507813 13.507812v391.558594c0 7.460938 6.046875 13.507813 13.507813 13.507813 2.609374 0 5.042968-.753907 7.109374-2.039063-3.835937-2.382812-6.398437-6.621094-6.398437-11.46875zm0 0" fill="#ff624b"/><path d="m27.554688 209.339844h13.933593l7.234375 79.636718h180.019532l7.238281-79.636718h7.152343c3.867188 0 7.097657-2.949219 7.441407-6.804688l6.839843-76.546875c.195313-2.183593-1.523437-4.066406-3.71875-4.066406h-229.871093c-2.191407 0-3.914063 1.882813-3.71875 4.066406zm0 0" fill="#a56021"/><path d="m90.636719 442.78125-19.519531-214.765625h-2.710938c-6.367188 0-11.679688-4.859375-12.246094-11.203125l-8.953125-100.175781c-.644531-7.191407 5.023438-13.390625 12.246094-13.390625h-46.683594c-7.222656 0-12.890625 6.199218-12.246093 13.390625l8.953124 100.175781c.566407 6.34375 5.878907 11.203125 12.246094 11.203125h2.710938l19.515625 214.765625c1.039062 11.414062 10.765625 20.164062 22.417969 20.164062h46.683593c-11.652343 0-21.378906-8.75-22.414062-20.164062zm0 0" fill="#ffdf74"/><path d="m48.722656 288.976562 13.824219 152.113282c.164063 1.785156 1.839844 3.179687 3.820313 3.179687h144.734374c1.980469 0 3.65625-1.394531 3.816407-3.179687l13.824219-152.113282zm0 0" fill="#ffeacf"/><path d="m62.546875 441.089844c.164063 1.785156 1.839844 3.179687 3.820313 3.179687h24.476562c-.078125-.492187-.160156-.984375-.207031-1.488281l-13.976563-153.804688h-27.9375zm0 0" fill="#ffd59a"/><path d="m97.457031 167.984375-45.855469-7.636719c-8.171874-1.363281-13.691406-9.089844-12.332031-17.261718l7.636719-45.855469c1.363281-8.171875 9.089844-13.691407 17.261719-12.332031l45.855469 7.636718c8.171874 1.363282 13.691406 9.089844 12.332031 17.261719l-7.636719 45.855469c-1.363281 8.171875-9.089844 13.691406-17.261719 12.332031zm0 0" fill="#ffa730"/><path d="m69.453125 151.476562 8.730469-52.402343c1.058594-6.363281 7.078125-10.664063 13.441406-9.601563l-30.730469-5.117187c-6.363281-1.0625-12.378906 3.238281-13.441406 9.601562l-8.726563 52.402344c-1.0625 6.363281 3.238282 12.382813 9.601563 13.441406l30.730469 5.117188c-6.363282-1.058594-10.664063-7.078125-9.605469-13.441407zm0 0" fill="#e58d23"/><path d="m185.460938 170.96875-38.519532-26.023438c-6.863281-4.636718-8.671875-13.960937-4.03125-20.824218l26.019532-38.523438c4.636718-6.863281 13.960937-8.667968 20.828124-4.03125l38.519532 26.023438c6.867187 4.636718 8.671875 13.960937 4.035156 20.824218l-26.023438 38.519532c-4.636718 6.867187-13.960937 8.671875-20.828124 4.035156zm0 0" fill="#ffa730"/><path d="m166.863281 144.308594 29.738281-44.023438c3.609376-5.34375 10.875-6.75 16.21875-3.140625l-25.8125-17.4375c-5.347656-3.609375-12.609374-2.203125-16.21875 3.140625l-29.738281 44.019532c-3.609375 5.347656-2.203125 12.609374 3.140625 16.222656l25.8125 17.4375c-5.34375-3.613282-6.75-10.875-3.140625-16.21875zm0 0" fill="#e58d23"/><path d="m208.304688 241.566406-45.582032 9.128906c-8.121094 1.625-16.027344-3.640624-17.652344-11.761718l-9.125-45.582032c-1.628906-8.125 3.636719-16.027343 11.761719-17.65625l45.582031-9.125c8.121094-1.625 16.027344 3.640626 17.652344 11.761719l9.128906 45.582031c1.625 8.125-3.640624 16.027344-11.765624 17.652344zm0 0" fill="#bf6c0d"/><path d="m176.269531 236.070312-10.433593-52.089843c-1.265626-6.328125 2.835937-12.480469 9.164062-13.75l-30.546875 6.117187c-6.324219 1.265625-10.425781 7.421875-9.160156 13.75l10.429687 52.085938c1.265625 6.328125 7.421875 10.429687 13.75 9.164062l30.542969-6.117187c-6.324219 1.265625-12.480469-2.835938-13.746094-9.160157zm0 0" fill="#a56021"/><path d="m235.085938 121.921875h-90.691407l-2.042969 3.023437c-4.328124 6.410157-2.644531 15.117188 3.765626 19.445313l40.167968 27.132813c6.410156 4.332031 15.117188 2.644531 19.445313-3.765626l27.136719-40.167968c1.191406-1.761719 1.910156-3.699219 2.21875-5.667969zm0 0" fill="#bf6c0d"/><path d="m181.984375 121.921875h-37.589844l-3.34375 4.949219c-3.613281 5.34375-2.203125 12.605468 3.140625 16.21875l25.8125 17.4375c-5.34375-3.613282-6.75-10.875-3.140625-16.21875zm0 0" fill="#a56021"/><path d="m42.796875 121.921875-3.6875 22.144531c-1.273437 7.632813 3.882813 14.847656 11.511719 16.117188l47.816406 7.964844c7.632812 1.269531 14.847656-3.882813 16.117188-11.515626l5.78125-34.710937zm0 0" fill="#bf6c0d"/><path d="m74.375 121.921875h-31.578125l-4.070313 24.4375c-1.0625 6.363281 3.238282 12.382813 9.601563 13.441406l30.730469 5.121094c-6.363282-1.0625-10.664063-7.078125-9.605469-13.445313zm0 0" fill="#a56021"/><path d="m166.339844 193.371094-41.203125 21.523437c-7.34375 3.832031-16.40625.988281-20.242188-6.355469l-21.519531-41.203124c-3.835938-7.34375-.988281-16.40625 6.351562-20.238282l41.207032-21.523437c7.34375-3.832031 16.402344-.988281 20.238281 6.355469l21.519531 41.203124c3.835938 7.34375.992188 16.40625-6.351562 20.238282zm0 0" fill="#bf6c0d"/><path d="m134.042969 197.0625-24.589844-47.089844c-2.988281-5.71875-.773437-12.773437 4.945313-15.761718l-27.613282 14.421874c-5.71875 2.984376-7.933594 10.042969-4.945312 15.761719l24.589844 47.089844c2.988281 5.71875 10.046874 7.929687 15.765624 4.945313l27.613282-14.421876c-5.722656 2.988282-12.777344.773438-15.765625-4.945312zm0 0" fill="#a56021"/><path d="m71.117188 228.015625-1.332032-19.382813-1.59375-16.191406h-14.210937l-6.300781-70.519531h-23.855469c-2.191407 0-3.914063 1.882813-3.71875 4.066406l6.839843 76.546875c.34375 3.855469 3.574219 6.808594 7.441407 6.808594h7.101562l7.234375 79.632812h27.9375zm0 0" fill="#8c4c17"/><path d="m209.390625 281.949219c-.183594 0-.367187-.007813-.550781-.023438-3.300782-.300781-5.730469-3.21875-5.433594-6.519531l1.949219-21.453125c.300781-3.296875 3.210937-5.71875 6.519531-5.429687 3.300781.296874 5.730469 3.21875 5.433594 6.515624l-1.949219 21.453126c-.285156 3.113281-2.902344 5.457031-5.96875 5.457031zm0 0" fill="#bf6c0d"/><path d="m200.710938 424.570312c-.125 0-.253907-.003906-.378907-.011718-3.308593-.203125-5.820312-3.054688-5.617187-6.359375l7.402344-118.585938c.207031-3.308593 3.03125-5.824219 6.363281-5.613281 3.308593.203125 5.820312 3.054688 5.613281 6.359375l-7.402344 118.585937c-.195312 3.179688-2.835937 5.625-5.980468 5.625zm0 0" fill="#fff4c1"/></svg>